<?xml version="1.0" encoding="utf-8"?>
<!-- Generator: Adobe Illustrator 24.1.0, SVG Export Plug-In . SVG Version: 6.00 Build 0)  -->
<svg version="1.1" id="Calque_1" xmlns="http://www.w3.org/2000/svg" xmlns:xlink="http://www.w3.org/1999/xlink" x="0px" y="0px"
	 viewBox="0 0 370.4 522.5" style="enable-background:new 0 0 370.4 522.5;" xml:space="preserve">
<style type="text/css">
	.st1{fill:#FFFFFF;}
</style>

<path d="M138.4,162.9c-1.5-0.9-2.9-1.7-4.2-2.6c-6.6-4.6-11.3-10.8-15.1-17.7c-1.6-2.9-2.9-5.9-4.2-8.9c-2.3-5.2-4.5-10.4-6.6-15.7
	c-0.6-1.4-0.9-2.9-1.3-4.3c-1.5-5.1-3-10.2-4.5-15.4c-0.3-1.1-1-2.2-0.3-3.4c5-1.5,9.7-0.4,14.4,1.4c3.8,1.5,7,3.7,10.5,5.8
	c0.4,0.2,0.8,0.5,1.2,0.8c0.7-2.5,1.3-4.9,1.9-7.2c0.2-0.7,0.4-1.4,0.8-2c0.9-1.5,2.5-1.5,3.3,0c0.6,1,1,2.2,1.5,3.2
	c0.9,1.8,2,3.5,3.1,5.5c2.2-2.9,4.2-5.6,6.4-8.6c-1.5-0.6-2.8-1.2-4.1-1.6c-2.2-0.7-4.5-1.2-6.6-2c-1.8-0.6-3.2-1.7-4.2-3.4
	c-1.3-2.4-1.1-4.4,1-6.2c1-1,2.3-1.7,3.7-2.7c-0.7-0.1-1.2-0.2-1.6-0.3c-2.6-0.1-5.3-0.1-7.9-0.3c-3.6-0.3-6.4-1.9-7.9-5.3
	c-1.4-3.1-1.1-6.2,1.3-8.6c3.4-3.5,7.7-5,12.5-5.4c0.7-0.1,1.4-0.1,2.5-0.1c-0.6-0.9-1-1.6-1.4-2.3c-1.3-2.1-2.4-4.3-2.4-6.9
	c0-2.4,0.8-4.5,2.5-6.3c3.6-3.7,8.1-4.9,13-4.2c7.1,1.1,13.1,4.4,18,9.8c4.2,4.7,7.6,10,10.6,15.6c2.8,5.3,4.1,11.2,5.4,17
	c1,4.3,1.7,8.6,1.4,13c-0.1,0.9-0.1,1.9-0.2,3.1c0.9-0.3,1.6-0.7,2.3-0.9c2-0.6,3.9-1.3,5.9-1.8c1.8-0.4,1.8-0.3,2.5,2
	c0.6-1.2,1.1-2.2,1.6-3.2c5.1-10,12.2-18.2,21.4-24.4c7.3-5,15.5-8,24.3-8.7c6.3-0.5,12.6,0.3,18.7,2.2c2.3,0.7,4.5,1.8,6.2,3.5
	c5.6,5.9,2.8,13.5-2,16.6c-4.1,2.7-8.7,4-13.4,4.9c-3.3,0.7-6.7,1.1-10.7,1.8c2.1,0.5,3.8,0.7,5.3,1.1c1.7,0.5,3.4,0.9,5,1.6
	c4.8,2,6.2,7.4,4.7,11.6c-1.3,3.5-3.5,5.7-7.2,6.1c-2.2,0.3-4.4,0.4-6.8,0.6c0.8,0.7,1.6,1.3,2.4,2c1.5,1.3,1.8,3,1.3,4.8
	c-0.6,2.2-1.8,4-4,5.2c-3.9,2.2-8.2,3.3-12.5,4.1s-8.7,1.1-13.1,1.5c-2.9,0.3-5.7,0.2-8.6,0.5c-3.5,0.4-6.6,1.6-9.5,3.9
	c4.5,2.8,9.2,4.2,14,5.2c9.5,2,19,3.7,28.4,5.8c8.2,1.8,16,4.6,23.1,9.1c5.5,3.4,9.9,7.9,13.6,13.3c6.9,10,11.2,21.1,14.8,32.6
	c2.8,8.7,4.3,17.6,5.3,26.7c0.6,5.5,1.2,11.1,1.7,16.6c0.2,1.8-0.2,3.7-0.3,5.5c-0.8,9.3-2.6,18.5-5.8,27.3
	c-4.3,12-11.5,21.7-22.8,27.9c-5.5,3-11.4,4.8-17.4,6.6c-11.3,3.3-22.8,5.5-34.2,8.2c-12,2.8-23.9,5.6-35.5,10
	c-5.9,2.2-11.6,4.9-17,8.3c-6.3,4.1-11.5,9.2-14.4,16.2s-3.4,14.2-0.3,21.4c1.2,2.8,2.5,5.5,3.8,8.3c1.2,2.6,2,5.4,2.2,8.3
	c0.2,3.7-1.3,7.8-6.1,8.7c-2,0.4-3.8,1.1-5.8,1.3c-4.9,0.5-8.9-1.8-12.4-4.8c-3.9-3.4-6.8-7.6-8.5-12.6c-1.9-5.8-3.4-11.7-2.7-17.8
	c0.3-2.5,0.8-5.1,1.6-7.5c3.4-9.7,8.1-18.6,14.8-26.4c9.7-11.4,21.7-19,36.1-22.7c6.2-1.6,12.7-2.5,19-3.6
	c9.9-1.7,19.8-3.6,29.5-6.2c0.6-0.2,1.2-0.4,1.8-0.9c-0.5-0.1-1-0.2-1.4-0.2c-7.4,0.1-14.7,0-22.1,0.2c-3.9,0.1-7.8,0.9-11.3,2.8
	c-3.8,2-7.8,3.1-12.2,2.9c-3.7-0.2-6.4-2.6-6.5-6.3c-0.2-3.4,1.3-6,4.3-7.7c2.8-1.6,6-2.3,9.1-2.8c11-1.7,21.4-5.1,31.4-10
	c3.9-1.9,7.8-3.6,11.8-5.4c1.1-0.5,2.1-1.1,3.5-1.7c-1.4-1.1-2.5-2.1-3.7-2.9c-1.7-1.2-3.4-2.4-5.2-3.4c-4.6-2.8-7.5-6.9-8.9-12
	c-0.5-1.8-1.4-3.2-2.9-4.2c-2-1.4-4-2.7-6-3.9c-2.4-1.5-4.9-2.8-7.1-4.5c-1.9-1.4-3.5-3.2-5.3-5c-0.3,0.8-0.6,1.7-0.9,2.6
	c-3.8,11.3-6.6,22.8-8.5,34.6c-0.3,2-0.8,3.9-1.4,5.8c-1,2.9-3.2,4.3-6.1,4.8c-2.1,0.3-4.3,0.5-6.4,0.8c-4.3,0.6-7.8-3.9-6.2-7.9
	c0.5-1.2,1.5-2.3,2.4-3.2c1-1.1,2.2-1.9,3.2-2.9c2.7-2.7,3.2-6.2,3.5-9.7c0.5-6,0.8-12.1,1.2-18.1c-0.2-0.1-0.4-0.2-0.5-0.2
	c-0.4,0.7-1,1.3-1.3,2.1c-3.5,9-8.2,17.3-14,25c-1.8,2.4-4,4.6-6.3,6.5c-2.1,1.8-4.8,2.4-7.7,1.8c-3.5-0.7-5.4-4-3.9-7.2
	c0.7-1.5,1.6-3.1,2.8-4.1c6.8-5.2,10.7-12.2,13-20.2c1.7-6.2,2.9-12.4,3-18.8c0.1-7.7-2-14.7-5.5-21.3c-1.4-2.5-2.8-5-4.3-7.4
	c-3.6-6-5.7-12.5-6.9-19.3C136.7,171.3,137.3,167.1,138.4,162.9z M266.4,271.2c0,2.2-0.4,3.2-2.3,4.8c-4.1,3.6-8.2,7.1-12.4,10.6
	s-9.1,5.9-14.5,7.1c-2.5,0.6-5,1-7.5,1.5c-1,0.2-1.8,0.6-2.6,1.3c-1.7,1.5-3.5,3.1-5.5,3.6c-7.2,1.9-14.4,3.6-21.7,5
	c-8.7,1.7-17.5,2.7-26.2,4.6c-15,3.2-27.4,11.1-37.3,22.8c-5.7,6.7-9.9,14.3-13,22.5c-1.2,3.2-2.1,6.6-2,10
	c0.2,8.9,2.3,17.2,8.4,24.1c4.9,5.6,10.9,7.1,17.7,4.2c2.3-1,2.9-2.3,2.6-4.7c-0.3-3.2-1.5-6-3-8.8c-0.7-1.2-1.2-2.4-1.8-3.6
	c-2.5-4.9-3.9-10.2-3.5-15.7c0.8-12.3,6.4-22.1,16.5-29.2c6.5-4.6,13.8-7.7,21.2-10.4c9.6-3.5,19.6-5.8,29.5-8.2
	c7.9-1.9,15.9-3.5,23.8-5.3c9.4-2.2,18.8-4.5,27.8-8.2c12.8-5.3,21.3-14.6,26.1-27.5c2.6-7.1,4.3-14.4,5.2-21.8
	c0.5-4.3,1-8.6,0.5-12.9c-0.9-7.5-1.8-15-2.8-22.5c-1.5-10.3-5.1-20.1-8.5-29.6c-1.7-0.8-3.1-1.5-4.6-2.2c-2.1-0.9-4.2-1.9-6.4-2.7
	c-5.5-2-11-3.9-16.4-5.9c-1.4-0.5-2.8-1.2-4.1-2c-4.4-2.4-7.5-5.9-9.1-10.7c-1.1-3.2-1.2-6.3,0.3-9.3c0.7-1.4,1.8-2.6,2.8-3.9
	c-0.5-0.2-1-0.4-1.5-0.5c-10.1-2.7-20.2-5.2-30.6-6.8c-6.7-1.1-12.9-3.4-18.9-6.6c-4.5-2.4-8.5-5.3-11-10c-0.1-0.2-0.3-0.3-0.7-0.6
	c-0.2,0.8-0.4,1.5-0.7,2.1c-1.4,4.2-2.7,8.5-4.3,12.7c-1,2.5-2.5,4.9-4.1,7c-3,3.8-6.8,6.9-10.7,9.9c-4.7,3.5-9.7,6.5-14.9,9
	c-0.8,0.4-1.5,0.6-2.5,0.1c-0.9-0.5-1.9-0.6-3.1-0.9c-0.2,2.2-0.5,4.2-0.6,6.3c-0.1,1.4-0.1,2.9,0.2,4.3c1.4,7.1,3.4,13.9,7.3,20.2
	c2.4,3.9,4.6,7.9,6.4,12c3.2,7.2,4,14.7,3.1,22.5c-0.8,6.9-2.3,13.7-5,20.1c-2.3,5.5-5.2,10.6-9.9,14.5c-1.3,1.1-2.5,2.5-3.4,3.9
	c-1.1,1.7-0.4,2.9,1.6,3.2c2,0.3,3.9,0,5.4-1.3c1.9-1.7,3.9-3.3,5.4-5.4c2.9-4,5.6-8.2,8-12.5c2.8-5.1,5.3-10.4,7.9-15.6
	c0.6-1.2,1.2-2.5,2-3.5c0.6-0.7,0.7-1.3,0.8-2.1c0.3-3.2,0.5-6.5,1-9.7c0.4-2.4,1-4.8,1.7-7.2c0.2-0.7,0.2-1.7,1.6-1.4
	c0,0.5,0.1,1.1,0,1.6c-1.7,7.2-1.8,14.5-1.9,21.9c0,7.3-0.3,14.5-1,21.7c-0.2,1.6-0.4,3.2-0.8,4.7c-1,3.9-3.3,6.8-6.3,9.4
	c-0.7,0.6-1.4,1.1-1.9,1.8c-0.7,0.8-1.1,1.8-0.4,2.8c0.7,0.9,1.2,2,2.8,1.7c2.3-0.5,4.6-0.5,6.8-1.1c2.2-0.5,4-1.7,4.5-4.2
	c0.5-2.6,1.1-5.2,1.6-7.7c2.4-12.4,5.7-24.5,10-36.4c1.7-4.6,2.8-9.5,4.1-14.2c0.4-1.3,0.4-2.7,1.8-3.8c0.4,0.6,0.7,1.1,1,1.6
	c0.7,1.5,0.1,3-0.3,4.4c-1,3.7-2.2,7.3-3.4,11c-0.4,1.2-0.5,2.2,0.5,3.1c1.5,1.5,3,3.2,4.8,4.3c4.2,2.8,8.7,5.4,13,8.1
	c0.1,0.1,0.3,0,0.4,0c0.1-0.1,0.2-0.2,0.2-0.4c0.5-8.7,3.1-16.9,7-24.7c2.1-4.2,4.7-8,8.1-11.2c4.3-4,9.4-6.2,15.2-6.9
	c2.8-0.3,5.6,0.1,8.2,1.3c0.4,0.2,0.9,0.8,0.8,1c-0.2,0.4-0.6,0.8-1,1.1c-0.3,0.2-0.8,0.1-1.2,0.1c-9.3-0.8-16.6,3-22.4,10
	c-4,4.9-6.8,10.5-8.4,16.6c-1.2,4.3-2.4,8.6-2.5,13.1c0,2.4,0,4.8,0.6,7.1c1.1,3.7,3.4,6.4,6.5,8.6s6.2,4.4,9.3,6.8
	c2.4,1.9,2.1,4.4-0.4,6c-1,0.6-2.1,1.1-3.2,1.6c-4,1.8-8,3.6-12,5.4c-8.8,4.2-17.9,7.6-27.5,9.5c-2.9,0.6-5.8,1.2-8.7,1.9
	c-2.1,0.5-4.1,1.3-5.7,2.9c-1.2,1.2-1.8,2.6-1.1,4.3c0.7,1.7,2,2.2,3.7,2.1c2.7-0.1,5.4-0.4,7.9-1.7c3.1-1.5,6.2-3,9.6-3.7
	c4.7-0.9,9.3-1.1,14-1.2c7.3-0.2,14.6,0,21.8-0.6c8.9-0.7,17.2-3.4,23.9-9.8c3.4-3.2,7.1-6.1,10.7-9.2
	C263.4,271.8,264.6,270.9,266.4,271.2z M226.3,107.5c0.5-0.3,1-0.6,1.5-0.7c2.1-0.4,4.2-0.8,6.4-0.9c2.5-0.2,5.1,0,7.7-0.1
	c1.5-0.1,3.1-0.2,4.4-0.8c2.3-1,3.5-2.8,3.5-5.5c0-2.6-1.4-3.9-3.6-4.7c-0.5-0.2-1-0.5-1.6-0.6c-3.7-0.7-7.3-1.4-11-2
	c-1.7-0.3-3.3-0.3-5-0.5c-1.3-0.2-2.6-1.6-2.6-2.8c0-1.3,1.2-1.3,2-1.7c0.8-0.3,1.6-0.7,2.5-0.9c3.5-0.7,7-1.3,10.6-1.8
	c5-0.7,10-1.4,14.7-3.3c2.2-0.9,4.4-1.9,6-3.8c2.9-3.3,2.3-7.8-1.3-10.2c-0.8-0.5-1.7-1-2.6-1.3c-5.8-2-11.9-3-17.9-2.5
	c-10.8,0.8-20.4,5-28.8,11.9c-8.1,6.6-14.5,14.6-19.5,23.8c-0.5,0.8-0.6,2-0.6,3c0.1,2.6-0.5,5-1.4,7.5c-1.4,3.9-3.7,7.3-6.4,10.3
	c-1.4,1.6-1,2.5,0,3.7c2.1,2.6,4.8,4.6,7.7,6.3c0.3-0.2,0.5-0.4,0.7-0.5c3.4-3.5,7.6-5.4,12.5-5.8c5.6-0.4,11.1-0.7,16.7-1.2
	c5.3-0.5,10.6-1.7,15.4-4.2c1.3-0.7,2.5-1.5,2.7-3.3c-0.7-0.5-1.4-1.2-2.3-1.5c-2.3-0.8-4.6-1.8-7-2.2
	C227.5,110.7,226.7,109.5,226.3,107.5z M105.6,96.5c0,0.3-0.1,0.4,0,0.6c0.1,0.4,0.3,0.8,0.4,1.1c1.7,3.7,2.7,7.5,3.4,11.4
	c0.5,2.9,0.9,5.9,1.9,8.6c1.9,5.3,4.2,10.5,6.3,15.8c2.6,6.7,6.2,12.8,11,18.2c3.9,4.5,8.5,8,14.3,9.7c0.6,0.2,1.5,0.3,2,0.1
	c2.1-0.9,4.3-1.8,6.2-3.1c3.7-2.4,7.4-4.8,10.8-7.5c2.9-2.3,5.5-4.8,8-7.5c3.5-3.7,4.9-8.6,6.2-13.3c1.5-5.3,3.3-10.2,7.1-14.4
	c4.9-5.5,6.3-12.2,5.5-19.7c-7.5,2.3-14.5,5.4-20.8,9.5c0,3.2-0.3,6,0.1,8.7c0.2,1.9-0.4,2.8-1.8,3.8c-2.1,1.5-4.5,1.9-7,2.4
	c-4.4,1-8.7,0.2-13.1-0.5c-6.7-1.1-13.1-3-18.3-7.7c-0.5-0.5-1-1-1.2-1.2c0.3-1.6,0.5-2.9,0.9-4.1c0.6-2-0.1-2.3-1.4-3
	c-1.5-0.8-3.2-1.5-4.7-2.4c-3.6-2.4-7.5-3.8-11.5-5.2C108.7,96.4,107.2,96.1,105.6,96.5z M167.9,103.6c3.8-2.2,7.5-4.2,11.2-6.3
	c-0.2-2.4-0.1-4.8-0.5-7.1c-0.7-4-1.6-8-2.7-11.9c-1.2-4.5-2.4-8.9-4.8-13c-2.9-4.9-6.1-9.5-9.8-13.9c-3.9-4.6-8.9-7.2-14.6-8.6
	c-4-1-7.8-0.3-11,2.5c-1.7,1.4-2.3,3.1-1.5,5.1c0.6,1.5,1.3,3,2.4,4.1c2,2.2,4.1,4.2,6.3,6.2c2.1,1.9,4.5,3.6,6.6,5.5
	c1.8,1.6,1.7,3-0.2,4.9c-0.6-0.5-1.3-0.9-1.8-1.5c-2.1-2.3-4.8-3.9-7.4-5.6c-6.5-4.2-14.1-1.4-18.3,2.3c-1.7,1.5-1.7,3.6,0,5.2
	c1.2,1.1,2.6,1.6,4.1,1.7c3.4,0.2,6.9,0.1,10.3,0.3c2.8,0.2,5.5,0.7,8.2,1.3c1.7,0.4,1.7,1,1.2,2.7c-0.3,1.1-1.1,1.4-2.1,1.7
	c-2.5,0.9-5,1.8-7.3,2.8c-1,0.5-1.9,1.3-2.9,2c1.7,2.3,4.1,2.8,6.2,3.4c2.2,0.6,4.4,1.4,6.4,2.7c0.4,0.3,1.1,0.5,1.5,0.4
	c1.6-0.6,2.2,0.3,2.8,1.5c0.7,1.4,1.5,2.8,2.2,4.3c0.8,1.5,1.5,2.9,2.3,4.4c0.4-0.2,0.6-0.2,0.7-0.3c2.6-2.7,5.2-5.4,7.8-8.1
	c0.4-0.4,0.7-0.9,1.1-1.2c1.3-1,2.2-0.6,2.6,0.9c0.1,0.4,0.1,0.8,0.2,1.2c0.2,2.7,0.4,5.4,0.6,8.1
	C167.7,102.2,167.8,102.9,167.9,103.6z M132.7,95.6c-2.2,5-2.4,10.3-3.8,15.3c5.5,3.8,8.4,5.2,14.1,6.6c2.6,0.6,5.3,1,8,1.5
	c3.9,0.7,7.8,0.3,11.6-0.9c1.5-0.5,3-1.1,3.8-2.3c-0.6-6.9-1.2-13.6-1.8-20.7c-3.6,3.3-6.8,6.3-10.4,9.5c-2.1-3.7-4-7.1-6-10.7
	c-3.1,4.1-6.2,7.9-9.7,11.7C136.4,102.1,134.6,98.9,132.7,95.6z M278.5,179.9c-0.3-0.7-0.4-1.2-0.7-1.6c-1.9-3.2-3.9-6.4-5.8-9.6
	c-5.6-9.3-14-14.9-23.8-18.7c-1-0.4-1.8-0.2-2.7,0.3c-2.9,1.9-4.2,5.4-3.2,9c1.4,5.5,5.1,9.2,10.2,11.3c5.6,2.3,11.4,4.1,17.1,6.1
	C272.4,177.7,275.3,178.8,278.5,179.9z"/>
<path d="M139.8,136c-0.7-0.4-1.3-0.7-1.9-1.1c-2.2,2.3-4.8,2-7.5,1.2c-4.8-1.4-7.1-3.3-10.8-8.5c2.2-2.5,7.6-3.3,12.3-1.6
	C135.4,127.2,139.7,132.5,139.8,136z M133.4,128.6c-0.4,0.9-0.6,1.3-0.8,1.8s-0.4,1.1-0.7,1.5c-0.8,1.2-1.6,1.2-2.5,0.2
	s-1.4-2.1-0.8-3.5c0.2-0.5,0.4-0.9,0.6-1.4c-3.2-0.6-5-0.4-7.2,0.7c3,4.1,7.2,6,12,6.4c0.9,0.1,1.9-0.5,3.2-0.9
	C135.8,131.7,134.7,130.3,133.4,128.6z"/>
<path d="M167.1,128.7c-0.5,1.2-1.1,2.3-1.5,3.4c-1.6,4.8-5.1,7.2-10.2,6.8c-1.2-0.1-2.4-0.2-3.5-0.6c-1.6-0.5-2-1.4-1.3-3
	c0-0.1,0.1-0.1,0.1-0.2c2.4-4.9,10.6-8.5,15.8-6.9C166.7,128.5,167,128.6,167.1,128.7z M164,130.8c-2.1-0.3-2.1-0.3-2.6,1.5
	c-0.1,0.3-0.1,0.6-0.2,0.9c-0.9,2-2.4,2.1-3.8,0.4c-0.2-0.2-0.4-0.4-0.7-0.7c-1.6,1.2-3.4,2-4.5,3.9
	C158.7,137.9,162.7,135.6,164,130.8z"/>
<path d="M143,146.4c2.1,0,3,1,3,3.1c0,2-1.2,3.4-2.8,3.4c-1.8,0-3.6-1.9-3.5-3.7C139.7,147.3,140.8,146.3,143,146.4z M141.4,148.2
	c0.2,1.4,0.5,2.5,1.9,2.6c0.8,0,1.3-0.8,1.1-1.5C143.9,147.7,142.7,148.1,141.4,148.2z"/>
<g id="Color">
	<path class="st1" d="M266.4,271.2c-1.8-0.4-2.9,0.5-4,1.5c-3.6,3-7.3,6-10.7,9.2c-6.8,6.3-15,9.1-23.9,9.8
		c-7.2,0.6-14.5,0.4-21.8,0.6c-4.7,0.1-9.4,0.3-14,1.2c-3.4,0.7-6.5,2.1-9.6,3.7c-2.5,1.3-5.2,1.6-7.9,1.7c-1.6,0-3-0.5-3.7-2.1
		c-0.7-1.7-0.1-3.1,1.1-4.3c1.6-1.6,3.6-2.4,5.7-2.9c2.9-0.7,5.8-1.3,8.7-1.9c9.6-1.9,18.7-5.3,27.5-9.5c4-1.9,8-3.6,12-5.4
		c1.1-0.5,2.2-1,3.2-1.6c2.6-1.6,2.8-4.2,0.4-6c-3-2.4-6.2-4.6-9.3-6.8c-3.1-2.2-5.4-4.9-6.5-8.6c-0.7-2.3-0.7-4.7-0.6-7.1
		c0.1-4.6,1.4-8.8,2.5-13.1c1.6-6.1,4.4-11.7,8.4-16.6c5.8-7,13.1-10.8,22.4-10c0.4,0,0.9,0.1,1.2-0.1c0.4-0.2,0.9-0.7,1-1.1
		c0.1-0.2-0.5-0.8-0.8-1c-2.6-1.2-5.3-1.6-8.2-1.3c-5.8,0.7-11,2.9-15.2,6.9c-3.4,3.2-6,7.1-8.1,11.2c-3.9,7.8-6.4,16-7,24.7
		c0,0.1-0.1,0.3-0.2,0.4c-0.2,0-0.3,0.1-0.4,0c-4.3-2.7-8.8-5.3-13-8.1c-1.8-1.2-3.2-2.8-4.8-4.3c-0.9-0.9-0.9-1.9-0.5-3.1
		c1.2-3.6,2.4-7.3,3.4-11c0.4-1.4,1-2.9,0.3-4.4c-0.2-0.5-0.6-1-1-1.6c-1.4,1.1-1.5,2.5-1.8,3.8c-1.4,4.8-2.5,9.6-4.1,14.2
		c-4.3,11.9-7.6,24-10,36.4c-0.5,2.6-1.1,5.2-1.6,7.7s-2.3,3.6-4.5,4.2s-4.6,0.6-6.8,1.1c-1.6,0.3-2.1-0.8-2.8-1.7
		c-0.8-1-0.3-2,0.4-2.8c0.6-0.7,1.3-1.2,1.9-1.8c3-2.5,5.3-5.5,6.3-9.4c0.4-1.5,0.6-3.1,0.8-4.7c0.7-7.2,1-14.5,1-21.7
		c0-7.3,0.2-14.7,1.9-21.9c0.1-0.5,0-1.1,0-1.6c-1.3-0.4-1.4,0.7-1.6,1.4c-0.6,2.4-1.3,4.8-1.7,7.2c-0.5,3.2-0.7,6.5-1,9.7
		c-0.1,0.8-0.2,1.4-0.8,2.1c-0.8,1-1.4,2.3-2,3.5c-2.6,5.2-5.1,10.5-7.9,15.6c-2.4,4.3-5.1,8.5-8,12.5c-1.5,2.1-3.5,3.7-5.4,5.4
		c-1.5,1.3-3.5,1.6-5.4,1.3c-2-0.3-2.7-1.5-1.6-3.2c0.9-1.4,2.1-2.8,3.4-3.9c4.7-3.9,7.6-9,9.9-14.5c2.7-6.5,4.2-13.2,5-20.1
		c0.9-7.8,0-15.3-3.1-22.5c-1.8-4.2-4-8.2-6.4-12c-3.9-6.2-5.8-13.1-7.3-20.2c-0.3-1.4-0.2-2.9-0.2-4.3c0.1-2,0.4-4.1,0.6-6.3
		c1.2,0.3,2.3,0.5,3.1,0.9c0.9,0.5,1.6,0.3,2.5-0.1c5.3-2.5,10.2-5.5,14.9-9c3.9-2.9,7.7-6,10.7-9.9c1.7-2.1,3.1-4.5,4.1-7
		c1.7-4.1,2.9-8.4,4.3-12.7c0.2-0.7,0.4-1.3,0.7-2.1c0.3,0.3,0.5,0.4,0.7,0.6c2.5,4.6,6.5,7.5,11,10c6,3.2,12.2,5.6,18.9,6.6
		c10.3,1.6,20.5,4.2,30.6,6.8c0.5,0.1,1,0.4,1.5,0.5c-1,1.3-2.1,2.5-2.8,3.9c-1.4,3-1.4,6.2-0.3,9.3c1.7,4.8,4.8,8.2,9.1,10.7
		c1.3,0.7,2.7,1.5,4.1,2c5.5,2,11,3.9,16.4,5.9c2.2,0.8,4.3,1.8,6.4,2.7c1.4,0.6,2.9,1.4,4.6,2.2c3.4,9.5,7.1,19.2,8.5,29.6
		c1.1,7.5,2,15,2.8,22.5c0.5,4.3,0,8.6-0.5,12.9c-0.9,7.5-2.7,14.8-5.2,21.8c-4.7,12.9-13.3,22.2-26.1,27.5
		c-9,3.7-18.3,6.1-27.8,8.2c-7.9,1.8-15.9,3.4-23.8,5.3c-9.9,2.4-19.9,4.7-29.5,8.2c-7.5,2.7-14.7,5.8-21.2,10.4
		c-10.1,7.1-15.7,16.8-16.5,29.2c-0.3,5.6,1,10.8,3.5,15.7c0.6,1.2,1.2,2.4,1.8,3.6c1.5,2.7,2.7,5.6,3,8.8c0.3,2.5-0.4,3.8-2.6,4.7
		c-6.8,2.9-12.8,1.3-17.7-4.2c-6.1-6.9-8.1-15.2-8.4-24.1c-0.1-3.5,0.8-6.8,2-10c3-8.2,7.3-15.8,13-22.5
		c9.9-11.7,22.3-19.6,37.3-22.8c8.7-1.9,17.5-2.9,26.2-4.6c7.3-1.4,14.5-3.1,21.7-5c2-0.5,3.9-2.2,5.5-3.6c0.8-0.8,1.6-1.1,2.6-1.3
		c2.5-0.5,5-1,7.5-1.5c5.4-1.2,10.3-3.5,14.5-7.1c4.2-3.5,8.3-7,12.4-10.6C265.9,274.5,266.4,273.5,266.4,271.2z"/>
	<path class="st1" d="M226.3,107.5c0.4,2,1.2,3.2,3.3,3.5c2.4,0.4,4.7,1.3,7,2.2c0.9,0.3,1.6,1,2.3,1.5c-0.2,1.8-1.4,2.6-2.7,3.3
		c-4.8,2.6-10,3.7-15.4,4.2c-5.5,0.6-11.1,0.8-16.7,1.2c-4.9,0.4-9.1,2.2-12.5,5.8c-0.2,0.2-0.4,0.3-0.7,0.5
		c-2.9-1.7-5.5-3.7-7.7-6.3c-1-1.3-1.4-2.1,0-3.7c2.7-3,5-6.4,6.4-10.3c0.9-2.4,1.5-4.9,1.4-7.5c0-1,0.1-2.1,0.6-3
		c5-9.1,11.4-17.2,19.5-23.8c8.4-6.9,17.9-11.1,28.8-11.9C246,63,252,64,257.8,66c0.9,0.3,1.8,0.8,2.6,1.3c3.6,2.4,4.2,6.9,1.3,10.2
		c-1.6,1.9-3.8,2.9-6,3.8c-4.7,2-9.7,2.6-14.7,3.3c-3.5,0.5-7.1,1.2-10.6,1.8c-0.8,0.2-1.7,0.5-2.5,0.9s-2,0.4-2,1.7
		c0,1.2,1.3,2.6,2.6,2.8c1.7,0.2,3.3,0.2,5,0.5c3.7,0.6,7.4,1.3,11,2c0.5,0.1,1,0.4,1.6,0.6c2.2,0.8,3.6,2.2,3.6,4.7
		c0,2.7-1.2,4.5-3.5,5.5c-1.3,0.6-2.9,0.7-4.4,0.8c-2.5,0.1-5.1-0.1-7.7,0.1c-2.1,0.1-4.3,0.6-6.4,0.9
		C227.3,106.9,226.8,107.3,226.3,107.5z"/>
	<path class="st1" d="M105.6,96.5c1.6-0.3,3.1-0.1,4.6,0.4c4,1.4,8,2.8,11.5,5.2c1.5,1,3.1,1.6,4.7,2.4c1.3,0.7,2,1,1.4,3
		c-0.4,1.2-0.5,2.4-0.9,4.1c0.2,0.2,0.7,0.7,1.2,1.2c5.2,4.7,11.6,6.6,18.3,7.7c4.3,0.7,8.7,1.5,13.1,0.5c2.4-0.6,4.9-1,7-2.4
		c1.3-0.9,2-1.9,1.8-3.8c-0.3-2.8-0.1-5.6-0.1-8.7c6.3-4.1,13.3-7.3,20.8-9.5c0.8,7.5-0.6,14.2-5.5,19.7c-3.8,4.2-5.7,9.1-7.1,14.4
		c-1.3,4.8-2.7,9.6-6.2,13.3c-2.5,2.7-5.2,5.3-8,7.5c-3.5,2.7-7.1,5.1-10.8,7.5c-1.9,1.2-4.1,2.2-6.2,3.1c-0.6,0.2-1.4,0.1-2-0.1
		c-5.8-1.7-10.4-5.2-14.3-9.7c-4.7-5.4-8.3-11.5-11-18.2c-2.1-5.3-4.4-10.5-6.3-15.8c-1-2.8-1.4-5.7-1.9-8.6
		c-0.7-4-1.8-7.8-3.4-11.4c-0.2-0.4-0.3-0.7-0.4-1.1C105.5,96.9,105.6,96.7,105.6,96.5z M139.8,136c-0.1-3.5-4.4-8.8-8-10.1
		c-4.7-1.7-10.1-0.9-12.3,1.6c3.7,5.2,6,7.2,10.8,8.5c2.7,0.8,5.4,1.1,7.5-1.2C138.6,135.2,139.2,135.6,139.8,136z M167.1,128.7
		c-0.1,0-0.3-0.2-0.6-0.3c-5.2-1.6-13.4,1.9-15.8,6.9c0,0.1-0.1,0.1-0.1,0.2c-0.6,1.5-0.3,2.5,1.3,3c1.1,0.3,2.3,0.5,3.5,0.6
		c5.1,0.4,8.6-2,10.2-6.8C165.9,131,166.5,129.9,167.1,128.7z M143,146.4c-2.2,0-3.3,0.9-3.4,2.8c0,1.9,1.8,3.8,3.5,3.7
		c1.7,0,2.8-1.4,2.8-3.4C146,147.3,145.1,146.4,143,146.4z"/>
	<path class="st1" d="M167.9,103.6c-0.1-0.8-0.2-1.4-0.3-2.1c-0.2-2.7-0.4-5.4-0.6-8.1c0-0.4-0.1-0.8-0.2-1.2
		c-0.4-1.5-1.3-1.9-2.6-0.9c-0.4,0.3-0.8,0.8-1.1,1.2c-2.6,2.7-5.2,5.4-7.8,8.1c-0.1,0.1-0.3,0.1-0.7,0.3c-0.8-1.4-1.5-2.9-2.3-4.4
		c-0.7-1.4-1.5-2.8-2.2-4.3c-0.6-1.2-1.2-2.1-2.8-1.5c-0.4,0.2-1.1-0.1-1.5-0.4c-2-1.3-4.1-2-6.4-2.7c-2.2-0.6-4.5-1.1-6.2-3.4
		c1-0.7,1.8-1.6,2.9-2c2.4-1.1,4.9-2,7.3-2.8c0.9-0.3,1.7-0.6,2.1-1.7c0.5-1.7,0.5-2.3-1.2-2.7c-2.7-0.6-5.5-1.1-8.2-1.3
		c-3.4-0.3-6.9-0.2-10.3-0.3c-1.5-0.1-3-0.6-4.1-1.7c-1.7-1.6-1.8-3.6,0-5.2c4.2-3.8,11.8-6.6,18.3-2.3c2.6,1.7,5.3,3.3,7.4,5.6
		c0.5,0.6,1.2,1,1.8,1.5c1.9-2,2-3.3,0.2-4.9c-2.1-1.9-4.5-3.6-6.6-5.5c-2.2-2-4.3-4-6.3-6.2c-1-1.2-1.8-2.7-2.4-4.1
		c-0.8-2-0.2-3.7,1.5-5.1c3.2-2.8,7-3.5,11-2.5c5.7,1.4,10.7,4,14.6,8.6c3.7,4.3,6.9,9,9.8,13.9c2.4,4,3.6,8.5,4.8,13
		c1.1,3.9,2,7.9,2.7,11.9c0.4,2.3,0.4,4.7,0.5,7.1C175.3,99.4,171.7,101.5,167.9,103.6z"/>
	<path class="st1" d="M132.7,95.6c1.9,3.3,3.8,6.5,5.8,10.1c3.5-3.8,6.6-7.5,9.7-11.7c2,3.6,3.9,6.9,6,10.7
		c3.5-3.2,6.8-6.2,10.4-9.5c0.6,7.1,1.2,13.7,1.8,20.7c-0.9,1.2-2.3,1.8-3.8,2.3c-3.8,1.2-7.6,1.6-11.6,0.9c-2.7-0.5-5.3-0.9-8-1.5
		c-5.8-1.3-8.6-2.7-14.1-6.6C130.2,105.9,130.4,100.6,132.7,95.6z"/>
	<path class="st1" d="M278.5,179.9c-3.2-1.1-6.1-2.2-8.9-3.2c-5.7-2-11.5-3.9-17.1-6.1c-5.1-2.1-8.8-5.7-10.2-11.3
		c-0.9-3.6,0.3-7.1,3.2-9c0.9-0.6,1.7-0.7,2.7-0.3c9.8,3.9,18.3,9.5,23.8,18.7c1.9,3.2,3.9,6.4,5.8,9.6
		C278.1,178.7,278.2,179.2,278.5,179.9z"/>
	<path class="st1" d="M133.4,128.6c1.3,1.6,2.4,3,3.8,4.8c-1.3,0.4-2.3,1-3.2,0.9c-4.9-0.4-9-2.3-12-6.4c2.1-1.1,4-1.2,7.2-0.7
		c-0.2,0.5-0.4,1-0.6,1.4c-0.6,1.4-0.1,2.5,0.8,3.5c0.9,1,1.8,0.9,2.5-0.2c0.3-0.5,0.5-1,0.7-1.5C132.8,130,133,129.5,133.4,128.6z"
		/>
	<path class="st1" d="M164,130.8c-1.3,4.8-5.3,7.2-11.8,6c1.1-1.8,2.9-2.7,4.5-3.9c0.2,0.3,0.5,0.5,0.7,0.7c1.4,1.7,2.9,1.6,3.8-0.4
		c0.1-0.3,0.2-0.6,0.2-0.9C161.9,130.5,161.9,130.5,164,130.8z"/>
	<path class="st1" d="M141.4,148.2c1.3-0.1,2.6-0.5,3,1c0.2,0.7-0.2,1.6-1.1,1.5C141.9,150.7,141.6,149.6,141.4,148.2z"/>
</g>
</svg>
