<?xml version="1.0" encoding="utf-8"?>
<!-- Generator: Adobe Illustrator 24.1.0, SVG Export Plug-In . SVG Version: 6.00 Build 0)  -->
<svg version="1.1" id="Calque_1" xmlns="http://www.w3.org/2000/svg" xmlns:xlink="http://www.w3.org/1999/xlink" x="0px" y="0px"
	 viewBox="0 0 792 907.2" style="enable-background:new 0 0 792 907.2;" xml:space="preserve">
<style type="text/css">
	.st1{fill:#FFFFFF;}
</style>

<path d="M593.1,370.9c2.6-0.2,5.1-0.4,7.5-0.6c5.7-0.4,11.4-1.1,17.2-1.2c3.9-0.1,7.8,0.4,11.7,0.8c6.2,0.7,12.3,1.8,18.3,3.7
	c7.6,2.5,14.7,5.8,20.6,11.3c7.5,7,11.2,15.6,10.7,25.9c-0.3,6.6-1.7,12.9-3.8,19.2c-4.6,14.1-10.3,27.7-16.8,41
	c-1.7,3.5-3.7,6.9-5.6,10.4c-0.3,0.6-0.7,1.3-1.1,2c0.5,0.3,0.9,0.7,1.4,0.9c8.3,4.2,16.4,8.9,23.9,14.6c5.2,3.9,10.7,7.4,15.6,11.6
	c13.1,11.2,23.8,24.4,30.6,40.3c6.1,14.3,6.8,29.1,0.9,43.8c-2.9,7.3-7.6,13.4-13.3,18.8c-10.2,9.4-22.4,15.2-35.4,19.4
	c-14.1,4.6-28.4,7.9-43,10.5c-11.1,2-22.2,3.9-33.3,5.5c-8.4,1.2-17,1.8-25.5,2.7c-11.3,1.3-22.7,2.5-34,4.1
	c-9.3,1.3-18.6,3.1-27.8,4.8c-2.9,0.5-5.7,1.5-8.5,2.3c-0.7,0.2-1.3,0.8-1.9,1.4c-14.2,14.1-28.4,28.2-42.6,42.3
	c-5.1,5-10.2,10-15.2,15c-7.5,7.4-15.1,14.8-22.5,22.3c-13.3,13.5-26.3,27.2-37.7,42.4c-6.3,8.5-12.2,17.2-17.3,26.5
	c-2.4,4.4-3.9,9.1-5,13.9c-2.2,9-4.2,18-5,27.2c-0.5,5.8-0.7,11.6-1.1,17.4c-0.1,1.1-0.3,2.2-0.8,3.2c-1.1,2.7-3.1,4-6,3.6
	c-5.5-0.7-10.5-2.6-14.3-7c-5.9-6.8-11.7-13.8-16.5-21.4c-4.1-6.5-6.2-13.5-5.4-21.2c0.5-4.7,2.1-9.2,3.6-13.6
	c2.2-6.2,4.6-12.4,6.4-18.8c1-3.6,1.5-7.4,1.7-11.1c0.3-7.4-1.8-14.5-4.3-21.4c-0.7-2-1.7-4-2.5-6c-2-4.9-2.1-10-1-15.1
	c0.6-2.9,2.4-5.2,4.3-7.4c3.2-3.8,7.3-6.3,11.9-8.3c5.3-2.3,11-3.2,16.7-4.3c5.7-1.2,11.4-2.5,17-4c3.8-1,6.9-3.3,9.9-5.7
	c7.8-6.4,15.3-13.1,22.1-20.5c4.7-5,8.9-10.4,13.5-15.9c-0.6-0.2-0.8-0.3-1-0.2c-2.5,0.8-5,1.7-7.5,2.4c-12.3,3.5-24.6,7-36.8,10.5
	c-11.4,3.3-23,5.5-34.6,7.6c-8.3,1.5-16.6,2.6-24.9,3.2c-3.3,0.3-6.7,0.5-10,0.6c-8.2,0.2-16.3,0.5-24.5,0.4c-5,0-10-0.4-15.1-0.9
	c-8.2-0.7-16.4-1.6-24.5-2.4c-6.3-0.7-12.7-1.5-19-2.2c-9.8-1.1-19.7-2.1-29.5-3.1c-11-1.1-21.5-4.1-31.6-8.2
	c-4.2-1.8-7.9-4.6-11.3-7.6c-2.1-1.9-3.3-4.4-2.2-7.3c0.3-0.9,0.8-1.8,1.5-2.4c0.8-0.8,1.8-1.6,2.9-2c6.2-2.3,12.4-4.8,18.7-6.6
	c7.6-2.2,15.5-2.3,23.3-1.1c5.9,0.9,11.8,1.9,17.7,2.8c3.3,0.5,6.7,0.6,10-0.1c2.4-0.5,4.2-1.8,5.7-3.7c1.8-2.4,3.5-4.8,5.3-7.1
	c3-3.7,5.9-7.4,11.2-8.5c-1-0.9-1.8-1.7-2.5-2.3c-5.3-4.5-9-10.3-12.6-16.2c-5.5-9.3-8.6-19.4-9.8-30.1c-0.5-4.7-0.9-9.4-0.8-14.1
	c0.2-6.2,1.1-12.4,1.6-18.6c0-0.4,0-0.9,0-1.5c-0.3,0.2-0.5,0.2-0.7,0.4c-4.2,5.5-8.4,11.1-12.5,16.7c-5.5,7.3-9.4,15.4-13.2,23.6
	c-4.2,9.1-8.8,17.9-13.3,26.8c-0.8,1.6-1.8,3-2.9,4.4c-1,1.3-2,1.1-2.4-0.4c-1.3-5.6-2.7-11.1-2.5-17c0.3-7.3,2.2-14,6-20.2
	c0.4-0.6,0.7-1.3,1-1.9c0,0,0-0.1-0.1-0.4c-1.9,1-3.7,2.1-5.6,3c-7,3.6-13.9,7.2-20.9,10.8c-7.2,3.7-13.2,8.9-18.3,15.1
	c-2.9,3.6-6.3,6.5-10.8,8.1c-2,0.7-3.9,0.8-5.9,0.2c-2.5-0.8-2.8-1.2-3-4c-0.5,0.2-1,0.4-1.4,0.7c-1.4,0.7-2.7,0.7-4.1,0
	c-2-0.9-2.5-2.1-1.4-4c2.4-4,4.8-7.9,7.2-11.9c0.4-0.7,0.9-1.3,1.5-2.2c-0.8,0.1-1.3,0.2-1.8,0.2c-2.2,0-5.1-2.1-5.5-4.3
	c-0.1-0.8,0.5-1.8,1-2.5c1-1.2,2.2-2.3,3.3-3.5c3-3,5.8-6.2,8.9-9.1c5.2-4.7,11.4-7.6,17.8-10.1c6.6-2.5,13.3-4.7,19.8-7.3
	c7.3-3,14.4-6.5,20.5-11.8c3-2.6,5.6-5.7,8.3-8.6c4-4.2,7.8-8.5,11.9-12.5c2.2-2.1,3.6-4.6,4.9-7.3c2.9-5.7,4.5-11.8,5.7-18
	c1.2-6.7,2.3-13.5,3.3-20.3c1.5-9.6,2.9-19.2,4.3-28.8c0.8-5.8,1.5-11.7,2.4-17.5c1.5-10.5,4-20.8,6.6-31.1c1.7-7.1,3-14.4,5-21.4
	c3.2-11.2,6.8-22.2,10.5-33.3c2.9-8.7,4.7-17.5,5.5-26.6c0.8-8.6,1.8-17.3,2.7-25.9c0.4-3.9,0.6-7.8,1-11.7c1-8,1.7-16,3.2-23.9
	c3.2-17.9,6.8-35.7,10.3-53.5c2.3-11.7,6.3-22.9,10.6-34c0.4-1.1,1-2.2,1.5-3.2c1.5-2.8,3.6-5,6.6-6.4c4.2-2.1,8.7-3.1,13.3-4
	c5.2-1.1,10.4-2.4,15.8-2.6c0.5,0,0.9-0.2,1.6-0.3c0.6-4.5,1.4-9.1,1.9-13.6c2-18.2,3.9-36.5,7.8-54.4c2.7-12.3,5.8-24.5,10.1-36.4
	c2.4-6.7,6.5-12.4,13.1-15.6c5.4-2.6,10.9-4.9,16.9-5.9c1-0.2,1.5-0.8,2-1.5c2.6-3.4,5.2-6.9,8.7-9.6c6.5-5.1,13.8-7.5,22.3-6.8
	c12,1.1,21.9,6.8,30.7,14.4c5.4,4.7,10.6,9.7,15.6,14.9c3.1,3.2,5.6,6.9,8.3,10.5c6,8,11.8,16.1,17.8,24.1
	c7.9,10.5,15.3,21.3,22.2,32.4c4.6,7.3,9.7,14.3,14.4,21.5c4.8,7.3,9.4,14.6,14.1,22c0.4,0.7,0.8,1.3,1.4,2.2
	c0.8-0.3,1.6-0.6,2.4-0.9c9.7-4.1,19.5-8,29.7-10.9c6.6-1.9,13.4-2.7,20.3-3.3c1.9-0.2,3.8,0.1,5.7,0.5c4.2,0.9,7.3,3.3,9.3,7.2
	c3.2,6,5.1,12.4,6.2,19c1.6,9.3,2.8,18.7,3.1,28.2c0.2,6.3,0.8,12.6,1.2,18.8c0.4,6,0.8,11.9,1.1,17.9c0.3,4.7,0.6,9.4,0.7,14.1
	c0.1,2.5-0.3,5.1-0.2,7.7c0.2,6.8,0.6,13.5,0.8,20.3c0.2,4.5,0.4,8.9,0.6,13.4c0.2,5.7,0.5,11.3,0.8,17c0,0.2,0,0.5,0,0.7
	c0.2,8.5,0.6,17.1,0.4,25.6c-0.1,6.8-1,13.7-1.6,20.5c-0.3,3.2-0.8,6.3-1.1,9.5C593.1,369.8,593.1,370.2,593.1,370.9z M302.7,270.8
	c-0.2,0.1-0.3,0.2-0.5,0.2c0,4.8,0.2,9.6-0.1,14.4c-0.4,6.1-1.1,12.2-1.9,18.3c-0.8,6.2-1.6,12.3-2.7,18.4c-0.7,3.5-0.3,6.5,1,9.8
	c2.2,5.4,4.3,10.8,6.2,16.3c4.5,13,8.8,26.2,13.4,39.2c3.2,9,6.9,17.9,10.3,26.8c0.2,0.7,0.1,1.6-0.1,2.3c-1.1,3.1-2.8,5.9-5,8.4
	c-3.4,4.1-7.4,7.6-11.5,10.8c-7.2,5.5-14.6,10.9-22,16.2c-13.6,9.6-26.8,19.7-38,32.1c-4.2,4.7-8.5,9.3-12,14.6
	c-4.2,6.5-7.4,13.4-10.7,20.3c-3.7,7.8-7.2,15.7-9.8,23.9c-4,12.3-5.5,24.9-5.7,37.7c-0.1,3.5,0.3,7,0.8,10.5
	c2.3,18.6,9.9,34.4,24.5,46.5c1.9,1.6,4,2.9,6,4.3c2.4,1.6,5,2.8,7.2,4.6c5.3,4.2,10.5,8.6,15.5,13.1c3.5,3.1,7.4,5.5,11.7,7.3
	c6.2,2.6,12.3,2.6,18.2-0.6c2.3-1.2,4.5-2.8,6.5-4.4c11.7-9.3,23.3-18.7,34.9-28.1c10.7-8.7,22.2-15.8,34.8-21.4
	c17.7-7.8,35.8-14,54.9-17.2c7.2-1.2,14.5-2.3,21.9-1.8c1.8,0.1,3.6,0.2,5.5,0.3c0.2-0.7,0.5-1.2,0.7-1.8c2.2-6.7,4.4-13.3,6.7-20
	c3.9-11.4,9.2-22.3,15.7-32.5c6.8-10.5,14.4-20.3,22.7-29.6c5-5.7,10-11.4,15.1-17c7.1-7.6,15-14.4,22.7-21.3
	c8.3-7.3,17.1-14,26.9-19.2c3.2-1.7,6.6-2.9,9.9-4.3c0.4-0.2,0.9-0.3,1.4-0.3c0.4,0,1,0.3,1.1,0.6c0.1,0.3-0.2,0.9-0.5,1.2
	c-0.5,0.5-1.2,0.8-1.8,1.1c-7.5,3.5-14.5,7.9-21,12.9c-6.2,4.8-12,10-17.9,15.1c-8.5,7.3-16.6,15.1-23.8,23.6
	c-6.5,7.7-13.1,15.3-19.5,23.1c-15.1,18.3-25,39.3-31.8,61.8c-3.4,11.2-7.5,22.2-12,33.1c-3.8,9.2-9,17.6-14,26.2
	c-5.5,9.4-11.9,18.2-18.5,26.8c-5.4,7.1-10.9,14.2-16.9,20.9c-7.8,8.6-16.4,16.3-25.5,23.6c-3.5,2.8-7.4,5-11.8,6
	c-7.1,1.6-14.1,3.4-21.2,5.2c-5.9,1.5-11.6,3.5-16.7,7.1c-4.8,3.4-7.1,8.1-6.7,14c0.2,2.8,1,5.3,2.1,7.8c3,6.8,4.9,14.1,5.8,21.4
	c1,8.5-0.7,16.7-3.5,24.7c-1.8,5.1-3.8,10-5.5,15.1c-1.4,3.9-2.6,7.9-2.7,12.1c-0.2,6.2,2,11.7,5.3,16.9c4.2,6.7,9.3,12.8,14.1,19
	c3.1,4,7.1,6.3,11.9,7.4c3.3,0.7,4.5-0.2,4.6-3.5c0.2-5.7,0.4-11.5,0.9-17.2c0.8-9.1,2.7-17.9,4.7-26.8c1.5-7,3.8-13.7,7.7-19.8
	c4.5-7.2,9-14.4,13.9-21.2c11.3-15.7,24.5-29.9,38.1-43.7c13.7-14,27.7-27.7,41.5-41.6c12.8-12.8,25.6-25.5,38.3-38.3
	c4-4,7.8-8.2,11.8-12.3c8.9-9.1,17.7-18.2,26.7-27.2c9.4-9.4,19-18.8,28.5-28.1c10.1-9.8,19.6-20.2,28.9-30.8
	c10.6-12.1,20.7-24.6,29.1-38.3c5.5-9,10.9-18,16.3-27.1c9.4-15.9,18.6-31.9,25.3-49.2c4.5-11.7,9.3-23.3,10.5-35.9
	c0.7-6.8-1-12.8-4.8-18.3c-3.4-4.9-8.2-8.2-13.4-11c-10.6-5.6-22.2-7.6-33.9-8.3c-9.6-0.6-19.1,0.8-28.7,1.8
	c-5.4,0.6-10.8,1.5-16.2,2c-11.8,1.1-23.6,3-35.3,5.1c-19.1,3.4-37.9,8.5-56.3,14.6c-31.4,10.3-61.8,22.9-90.8,38.9
	c-17.7,9.7-34.8,20.2-51.1,32.1c-10.1,7.3-19.8,15.1-29.7,22.7c-1.3,1-2.6,2.2-4.3,2.3c-1.4-1.8-1.5-3.3-0.1-5
	c0.8-1,1.7-1.9,2.7-2.7c16.4-13.5,33.6-26,51.5-37.5c20.4-13,41.4-24.8,63.5-34.6c26.4-11.7,53.3-22.1,81.2-29.3c4-1,8-2.1,12-3.2
	c2.4-7.7,6.1-14.9,7.9-22.8c-4.3,2.4-8.5,4.8-12.8,6.9c-6.6,3.2-13.7,4.8-21.1,4.9c-2.4,0-4.9-0.7-7.2-1.4c-1.8-0.5-2.2-1.5-1.8-3
	c0.9,0.1,1.8,0.2,2.7,0.2c1.8-0.2,3.5-0.4,5.2-0.7c4.3-0.6,8.6-1,12.7-2c8.7-2.2,16.4-6.7,23.2-12.5c10.2-8.7,14.7-20,14.3-33.3
	c-0.1-2.8-0.3-5.6-0.3-8.4c0-7.3-0.1-14.5,0-21.8c0-3.7,0.3-7.3,0.3-11c-0.1-6.5,0.9-12.9,2.6-19.1c1.1-4.1,2.7-8,5.3-11.4
	c0.5-0.7,1.1-1.3,1.8-1.9c0.6-0.5,1.6-0.9,2.1,0c0.3,0.4,0,1.4-0.3,1.9c-2.2,3.3-3.5,7-4.4,10.8c-1.9,7.8-2,15.8-2.1,23.8
	c-0.2,14.1,0,28.1-0.1,42.2c0,5.5-1.5,10.6-3.8,15.5c-0.6,1.2-0.7,2.4-0.4,3.7c0.3,2,0.6,3.9,0.7,5.9c0.3,4.4,0.5,8.8,0.6,13.2
	c0.2,4.6,0.2,9.2,0.3,13.9c0,0.5,0.1,0.9,0.1,1.2c14.4-1.9,28.7-3.8,42.9-5.7c0.4-4.5,0.8-8.9,1.2-13.3c0.5-6,1.1-12.1,1.3-18.1
	c0.2-4.5-0.1-8.9-0.3-13.4c-0.3-9.8-0.6-19.6-0.9-29.5c-0.2-4.9-0.4-9.7-0.6-14.6c-0.3-5.8-0.7-11.6-0.8-17.5
	c-0.1-5.7,0.2-11.3-0.1-17c-0.3-6.9-0.9-13.8-1.4-20.8c-0.5-7.8-1.2-15.6-1.4-23.4c-0.2-8.5-1.2-16.8-2.5-25.2
	c-1.1-6.7-2.5-13.3-5.8-19.4c-2.1-3.9-6.5-6.3-10.9-5.9c-9.8,0.9-19.4,2.9-28.7,6.2c-22.1,7.8-43.4,17.5-63.6,29.5
	c-5.7,3.4-11.4,6.8-17.1,10.2c-0.4,0.3-0.8,0.8-1.2,1.1c-0.1,0.1-0.2,0.1-0.3,0.2c-0.5-0.3-1.1-0.7-1.4-0.9c-0.1-1-0.1-1.9-0.2-2.7
	c-1.4-5.4-3-10.8-4.2-16.2c-1.6-7.3-2.6-14.8-4.1-22.1c-2-9.8-4.7-19.4-7.7-28.9c-1.3-4.1-2.3-8.3-3.6-12.4
	c-1.8-5.4-1.9-5.4,1.3-10.1c0.8-1.2,1.6-2.6,1.9-4.1c0.5-2.9,0-5.9-0.6-8.8c-0.2-1.1-0.9-1.8-2-2.2c-1.2-0.5-2.5-0.5-3.7,0
	c-2.8,1.1-4.9,3-6.5,5.5c-0.6,1-1.3,2-1.8,2.7c-1,0-1.7-0.1-2.3,0c-3.6,0.8-7.1,0.5-10.5-1.2c-4.1-2-8.2-3.9-12.3-6
	c-9.9-5.1-18.5-11.9-26.3-19.8c-1.8-1.8-3.7-3.6-5.8-5.6c-0.2,3.2-0.4,6.1-0.5,8.9c-0.1,5.8-1.5,11.2-4.3,16.3
	c-2.4,4.2-5,8.3-7.7,12.4c-4.8,7.3-10.8,13.5-17.3,19.1c-1.7,1.5-2.2,2.9-1.9,4.9c2.4,14.3,5.4,28.3,11.2,41.7
	c3.6,8.3,8.1,15.9,14.9,22c4.5,4,9.3,7.2,15.1,9c3.2,1,6.5,1.8,9.5,3.1c2.2,0.9,3.8,0.7,5.6-0.6c2.6-2,5.5-3.7,7.7-6
	c4.7-5,9.3-10.1,13.6-15.4c6.8-8.4,11.7-17.7,14-28.3c0.9-3.8,2-7.6,3-11.7c1.1,1.1,1.1,2.2,1.1,3.3c-0.1,7-1.9,13.7-4.5,20.2
	c-3.8,9.1-9.3,17.1-15.8,24.5c-4.9,5.6-9.9,11-16.4,14.9c-2.1,1.3-4.2,1.9-6.8,1.8c-5.2-0.2-10-1.9-14.8-3.7c-2.5-0.9-4.9-2-7-3.5
	c-8.1-5.6-14.8-12.5-19-21.5c-1.5-3.3-3.5-4.7-6.9-5.6c-7-1.9-14.2-3.1-21.5-3.5c-8.9-0.4-17.7,0.2-26.4,2.4c-4,1-8,2-12,3.2
	c-4.2,1.3-7,4.3-8.5,8.4c-3.3,8.8-6.7,17.6-8.8,26.8c-1.7,7.3-3.1,14.7-4.6,22c-2.2,10.9-4.4,21.7-6.4,32.6
	c-2.7,14.7-4.3,29.6-5.4,44.5c-0.6,7.5-1.6,15-2.2,22.6c-0.8,9.3-2.7,18.3-5.5,27.1c-3,9.3-5.8,18.6-8.4,28
	c-2.7,9.8-4.9,19.8-7.2,29.7c-1.5,6.2-3.3,12.4-4.3,18.6c-2.3,15-4.5,29.9-6.3,45c-1,8.2-3,16.2-4.9,24.1
	c-1.7,7.2-4.1,14.3-6.3,21.3c-1.1,3.5-3,6.7-5.5,9.5c-4.4,4.9-8.8,9.9-13.3,14.8c-3.2,3.5-6.3,7.2-9.9,10.4c-5.5,4.8-12,8.3-18.7,11
	c-6.6,2.7-13.5,5-20.2,7.6c-7.2,2.8-14.3,5.9-20,11.6c-2.8,2.8-5.6,5.7-8.4,8.5c-0.4,0.4-0.8,0.9-1.3,1.4c1.7,1.2,3.4,0.7,5,0.7
	c1.2,0,2-0.6,2.7-1.6c2.1-3.2,4.3-6.3,6.4-9.5c1.3-1.9,2.8-3.4,4.8-4.5c6.7-3.8,13.9-6.4,21.5-8c2.3-0.5,4.6-1,6.9-1.5
	c0.1,0.2,0.2,0.3,0.2,0.5c-0.7,0.5-1.4,1.2-2.2,1.5c-2,0.9-4.1,1.7-6.3,2.4c-6.6,2.2-13.1,4.7-19.2,8.1c-1.4,0.8-2.4,1.7-3.3,3
	c-3.8,5.8-7.8,11.5-11.6,17.3c-2.3,3.5-4.5,7-7,10.9c1.2,0,2.1-0.1,2.9,0c2.4,0.3,3.8-0.9,5-2.9c3.4-5.8,7.4-11.2,11.7-16.3
	c3.6-4.3,7.8-7.8,12.9-10.1c2.5-1.2,5-2.4,7.5-3.7c4.8-2.4,9.7-4.9,14.5-7.4c0.7-0.4,1.5-1,2.6,0.1c-2.2,1.5-4.2,2.9-6.3,4.1
	c-6.7,3.8-13.4,7.5-20.1,11.2c-3,1.7-5.4,3.9-7.7,6.4c-5.6,6.1-10,13.1-14.6,19.9c-0.4,0.6-0.7,1.2-1.1,1.8c2.3,0.9,2.8,0.9,4.8,0.2
	c1.3-0.5,2.7-1,4-1.5c0.3-0.1,0.7-0.3,1-0.6c1.8-2,3.6-4.1,5.3-6.2c6-7.4,13.2-13.1,21.7-17.3c8.3-4.2,16.5-8.7,24.8-13.1
	c1.7-0.9,3.3-1.8,4.4-3.6c1.1-1.8,1.7-1.8,3.7-0.3c-0.2,0.5-0.3,1.2-0.6,1.7c-1.6,3.4-3.2,6.9-5,10.3c-2.2,4.2-4.5,8.3-5.1,13.1
	c-0.4,3.2-0.7,6.5-0.8,9.8c0,2.7,0.5,5.4,1.3,8.4c0.5-0.8,0.8-1.2,1-1.6c4.8-9.9,9.9-19.7,14.4-29.8s10.5-19.2,17.8-27.4
	c3.8-4.3,7.2-8.9,10.5-13.7c0.4-0.6,0.6-1.3,0.8-2c2-6.4,3.8-12.9,6.2-19.1c2.5-6.4,5.5-12.6,8.4-18.8c2.4-5,4.9-9.9,7.6-14.7
	c1.6-2.8,3.2-5.5,4.4-8.5c3.5-8.7,7.4-17.3,10.7-26.2c7.7-20.7,15.1-41.4,22.6-62.1c8.8-24,16.2-48.4,21-73.6
	c1.3-6.7,2.7-13.4,3.3-20.3c0.5-6,1.6-12,2.1-18c0.6-6.3,0.8-12.6,1.2-18.8c0.1-1.2-0.3-1.9-1.4-2.4c-4.5-2.1-9.2-3.5-14.2-3.8
	c-1.3-0.1-2.5-0.1-3.8-0.3c-1.9-0.2-2.4-0.9-2.1-3.2c4.7-1,9.4-1,14.2-0.2c8.7,1.5,15.2,6,18.9,14.2c1.5,3.4,3.1,6.8,4.6,10.3
	c0.2,0.4,0.2,0.8,0.3,1.3C310.8,281.9,307.5,275.7,302.7,270.8z M635.9,561.6c-1.2,2.2-1.3,2.3-3.3,2.4c-3.9,0.2-7.8,0.2-11.7,0.5
	c-7.2,0.5-14.5,1.1-21.7,1.6c-2,0.1-3.2,1-4.4,2.3c-5.3,5.9-10.5,11.8-16,17.5c-5.3,5.6-10.8,11.1-16.3,16.6
	c-7.2,7.2-14.6,14.3-21.8,21.6c-9.9,9.9-19.7,19.9-29.5,29.8c-0.3,0.3-0.4,0.7-0.7,1.3c1.3-0.2,2.3-0.4,3.3-0.6
	c7.5-1.4,14.9-2.9,22.4-4.1c8.5-1.3,17.1-2.3,25.6-3.3c4.8-0.6,9.5-1,14.3-1.5c7.3-0.7,14.6-1.2,21.9-2.2
	c10.8-1.5,21.5-3.2,32.2-5.1c12.4-2.2,24.8-4.6,36.9-8.2c8.7-2.6,17.4-5.2,25.6-9.4c7.9-4.1,15.2-9.2,20.8-16.2
	c9.2-11.4,11.7-24.6,9.5-38.8c-1.2-7.8-4.3-14.8-8.3-21.5c-6.5-11.1-14.6-21-24.4-29.3c-9.5-8.2-19.8-15.4-30.2-22.4
	c-3.2-2.1-6.4-4.2-9.7-6.3c-0.3,0.4-0.6,0.6-0.7,0.9c-4.8,8.2-9.5,16.4-14.3,24.7c-9.8,16.7-20.2,32.9-33,47.6c-0.6,0.6-1,1.3-1.6,2
	c1.3,0,2.3-0.3,3.3-0.7c6-2,12.3-1.8,18.5-1.8c3.2,0,6.4,0.4,9.5,0.8C633.6,560,635,560.1,635.9,561.6z M455.5,596.4
	c-3.9,0-7.6-0.3-11.2,0.1c-8.6,0.7-17.1,2.5-25.5,4.5c-13.8,3.3-27,8.2-40.1,13.7c-12.7,5.3-24.4,12.2-35.1,20.8
	c-11.3,9.1-22.7,18.2-34,27.3c-3.6,2.9-7.3,5.7-11.5,7.8c-5.5,2.7-11.3,3.2-17,1.5c-5-1.5-9.7-3.6-13.9-6.8
	c-1.8-1.4-3.8-2.7-5.6-4.2c-4.5-3.6-9-7.2-13.4-10.8c-2.1-1.7-4.4-3.2-7-4c-3.8-1.2-9-1-12.2,3.4c-2.2,3-4.6,5.7-6.9,8.6
	c-2.7,3.5-6.3,5.5-10.7,6.3c-3,0.6-6.1,0.4-9.1,0c-8.1-1.1-16.2-2.7-24.5-3.1c-7-0.3-13.7,0.6-20.3,2.7c-4,1.3-8,2.7-12,4.1
	c-0.8,0.3-1.7,0.6-2.4,1c-1.3,0.7-1.5,1.5-0.9,2.8c0.3,0.6,0.8,1.2,1.3,1.7c2.8,2.8,6,5.1,9.6,6.6c6.5,2.8,13.4,4.9,20.4,6.1
	c5.9,1,11.9,1.4,17.8,2c8.2,0.8,16.5,1.5,24.8,2.4c10.2,1.1,20.4,2.4,30.7,3.4c9.3,0.8,18.6,1.4,28,1.8c5.4,0.2,10.9-0.2,16.3-0.4
	c4.6-0.2,9.3-0.2,13.9-0.5c12-0.8,23.8-2.8,35.5-5c12.2-2.4,24.3-5.6,36.2-9.2c10.9-3.3,22-6,33-9c1.3-0.3,2.7-0.4,4-0.8
	c0.7-0.2,1.4-0.6,2-1.1s1-1.3,1.5-1.9c9.3-12.2,17.4-25.2,24.7-38.8c4.5-8.4,7.8-17.3,11.2-26.2
	C453.8,600.9,454.6,598.7,455.5,596.4z M422,98.4c0.4-0.9,0.8-1.7,1.2-2.5c1.6-3.1,3.7-5.8,6.9-7.4c3.8-1.9,10.1-1.2,11.2,5.1
	c0.5,3,0.5,6,0.6,9c0.1,2-0.6,3.9-1.8,5.6c-1.1,1.7-2.2,3.3-3.2,4.8c1.6,5.7,3.2,11.2,4.9,16.7c3.3,10.8,6,21.8,8.2,33
	c1.6,8.5,3.3,16.9,5,25.3c0.6,3,1.4,6,2.1,9.3c16.7-12.3,34.2-22.9,53.2-31.4c-0.9-1.5-1.7-2.7-2.6-4c-5.3-7.7-10.8-15.2-16.1-23
	c-5.4-8-10.7-16.1-15.9-24.2c-7.6-12-16.1-23.2-24.6-34.6c-3.5-4.8-6.9-9.6-10.2-14.5c-5.7-8.5-12.8-15.7-20.4-22.5
	c-4.3-3.8-8.7-7.2-13.7-10.1c-6.2-3.6-12.8-5.7-20-6.1c-6.8-0.4-12.9,2-18.3,5.9c-4,2.8-7.2,6.5-10.3,10.3c-0.5,0.7-1.1,1.3-1.9,2.1
	c-0.5-0.9-0.9-1.5-1.4-2.4c-4.8,2.3-9.6,4.4-14.3,6.8c-1.5,0.7-2.8,1.9-4,3c-4.1,3.6-6.3,8.3-8,13.4c-8.1,25.1-12.9,50.8-15.8,76.9
	c-0.8,6.8-1.8,13.6-2.7,20.3c-0.1,0.9-0.1,1.8-0.2,3c11.2-0.2,21.8,1.2,32.5,5.2c-0.5-1.2-0.8-2-1-2.7c-1.6-4.7-3.4-9.3-4.6-14.1
	c-2-8-3.6-16-4.1-24.2c-0.1-1.8-0.1-3.9,0.8-5.3c1.7-2.8,3.9-5.2,6-7.7c1.9-2.2,4-4.4,6-6.5c4-4.3,6.9-9.4,10.1-14.3
	c4.5-6.8,7.1-14.2,7.4-22.5c0.1-2.7,0.4-5.4,0.8-8.1c0.3-2.1,1.1-2.4,2.8-1.1c2.6,2,5.1,4.1,7.6,6.2c5.7,4.9,11.7,9.5,18.3,13.1
	c6.8,3.8,13.8,7.1,20.7,10.5C415.9,96.1,419,97.1,422,98.4z M245.5,482.7c0.1,0.1,0.3,0.2,0.4,0.3c0.5-0.6,1-1.2,1.6-1.7
	c3.2-3.3,6.2-6.7,9.5-9.8c9.4-8.6,19.3-16.5,29.8-23.7s21-14.3,30.6-22.6c3.2-2.7,6.2-5.6,8.1-9.4c-12.1-26.8-21-54.8-29.8-82.9
	c-0.4,0.8-0.6,1.5-0.8,2.3c-2.9,13.9-6.5,27.6-10.9,41.1c-4,12.5-8.2,24.8-12.7,37.2c-7.5,20.8-15.3,41.5-23,62.2
	C247.6,478,246.5,480.3,245.5,482.7z M543,377.8c-0.2-4.6-0.5-9.1-0.6-13.5c-0.1-5.3-0.1-10.5-0.2-15.8c0-1,0.1-2-0.7-2.9
	c-2.5,3.9-5.1,7.4-8.4,10.3c-0.5,0.5-0.8,1.3-0.9,2.1c-1.5,7.1-3.3,14.1-6.1,20.8c-0.3,0.8-0.5,1.6-0.9,2.8
	C531.3,380.3,537.1,379.1,543,377.8z"/>
<path d="M436,355.6c-0.3,0.7-0.3,1-0.5,1.3c-4.1,5.8-8.7,11-14.9,14.7c-5.5,3.3-10.9,6.7-17.1,8.6c-3.7,1.1-7.5,1.6-11.3,1.8
	c-3.7,0.2-7.3,0.3-11-0.4c-11-2.1-20.2-7.2-27.5-15.8c-5.6-6.7-11-13.4-16.6-20.1c-1.8-2.1-3.7-4.2-5.6-6.2c-0.6-0.7-1-1.5-1.6-2.3
	c1.5-0.8,2.3-0.1,3,0.6c3.1,3,6.3,5.8,9.3,9c5.6,5.9,10.8,12.2,16.5,18c7.1,7.2,16.1,10.9,26.1,11.9c9.6,0.9,18.7-1.2,27.1-6.3
	c4.8-3,9.6-6,14-9.6c2.2-1.8,4.9-3,7.4-4.4C434.1,355.8,435,355.8,436,355.6z"/>
<path d="M446.5,228c1.1-0.7,1.6,0.1,2.2,0.6c2.4,2.1,2.8,2.2,5.4,0.4c4.8-3.3,9.6-6.6,14.3-10c8.2-6,16.8-11.4,26-15.7
	c10.4-4.9,20.8-9.9,31.1-14.8c2-1,3.8-2.2,6.1-3c-0.5,0.7-0.9,1.5-1.6,2.1c-1.8,1.6-3.5,3.3-5.4,4.7c-7.8,5.6-15.8,10.9-24.5,14.9
	c-12,5.6-23.3,12.3-34.3,19.5c-3.2,2.1-6.6,3.9-10.1,5.5C451.1,234.5,448.1,233,446.5,228z"/>
<path d="M408.2,235.4c-0.8,0.3-1.5,0.8-2.3,1c-4.4,1.1-8.8,1.7-13.3,1c-3.2-0.5-5.9-1.9-8.3-4c-2.7-2.4-5.2-4.9-7.9-7.4
	c-2.8-2.6-5.5-5.1-8.3-7.6c-6.4-5.7-14-9.2-21.9-12.1c-1.3-0.5-2.8-0.6-3.6-2.1c0.2-0.1,0.3-0.3,0.4-0.3c6,1.3,12,2.8,17.6,5.4
	c6,2.8,11.1,6.9,16,11.3c3.2,2.8,6.4,5.8,9.8,8.5c1.7,1.3,3.6,2.3,5.6,3.1c4.7,1.8,9.7,2.5,14.8,2.8c0.4,0,0.8,0.1,1.1,0.2
	C408.1,235.1,408.1,235.3,408.2,235.4z"/>
<path d="M401.5,182.9c-1.5-0.4-2.2,0.6-2.8,1.6c-2,3.1-4.7,5.4-8,7c-3.4,1.8-7,1.4-10.5,0.6c-2.1-0.5-4.1-1.2-6.2-1.7
	c-1.1-0.3-1.2-1-0.8-1.8c1.5-2.9,3.3-5.5,5.9-7.4c0.9-0.6,2.2-0.6,3.4-0.7c0.9,0,1.7,0.2,2.4-0.6c1.7-1.9,4-2.3,6.4-2
	c3,0.3,6,1,8.6,2.6C400.7,181,401.6,181.4,401.5,182.9z M396,182.5c-1.6-0.4-2.9-0.9-4.2-1.1c-2-0.4-3.8-0.2-5.3,1.5
	c-1,1.1-2.1,1.2-3.5,0.9c-1-0.2-2.2-0.3-3,0.2c-1.8,1.2-3.4,2.8-4.5,4.8C385.3,191,389.6,190,396,182.5z"/>
<path d="M410.8,112.1c-4,1.8-7.6,4.4-11.9,5.3c-5.2,1-9.3,3.5-12.8,7.3c-0.6,0.6-1.2,1.2-1.9,1.8c-1.3-0.8-1.6-1.7-1-2.9
	c2.3-4,5.1-7.7,9.3-9.7c4.8-2.3,10-3.4,15.3-3.1c1,0,2,0.4,2.9,0.6C410.8,111.6,410.8,111.9,410.8,112.1z"/>
<path d="M354.6,156.7c4-0.3,7.9,3,8.3,7.7c0.3,3.4-0.6,6.3-2.5,9c-1.9,2.6-4.5,3.2-7.4,2c-2.4-1.1-4.7-2.4-6.2-4.7
	c-3.3-5.1-1.9-11.6,4.6-13.3C352.4,157,353.5,156.9,354.6,156.7z M353.9,159.2c-1.6,0.5-3.2,0.9-4.7,1.5c-0.5,0.2-1.1,0.7-1.3,1.3
	c-1.6,3.1-0.9,6.6,1.9,8.8c1.2,1,2.7,1.8,4.1,2.4c1.8,0.8,3.3,0.5,4.5-1c1-1.3,1.9-2.9,2.2-4.4C361.4,162.3,358.2,159.3,353.9,159.2
	z"/>
<path d="M426.9,143.8c-0.5,4.5-4.5,10-8.7,11.4c-3,1.1-5.9-0.1-7.5-2.9c-2.6-4.6-0.8-10.8,2.4-13.3c2.6-2.1,5.7-2.7,9-2.4
	c1.5,0.2,2.7,1.2,3.3,2.5C426.1,140.6,426.4,142.2,426.9,143.8z M417.8,139.3c-0.9,0.1-2,0.2-3.1,0.5c-0.5,0.1-1,0.4-1.4,0.8
	c-2.2,2.4-2.8,7.5-1.1,10.3c1.2,2,3.2,2.8,5.3,1.7c3.3-1.7,5.6-4.2,6.4-7.9c0.5-2.3-0.5-5-3.5-5.1
	C419.6,139.5,418.8,139.4,417.8,139.3z"/>
<path d="M411.2,129.3c-0.3,1.1-0.5,2.3-1,3.4c-1.8,4.5-4.9,8-9.1,10.4c-2.8,1.6-5.7,2.1-8.7,0.8c-1.3-0.6-2.3-1.4-2.3-3.3
	c0.8-0.1,1.7-0.3,2.5-0.2c3.1,0.3,5.7-0.9,7.9-2.8c2.8-2.3,5.6-4.8,8.4-7.2c0.6-0.5,1.2-1,1.8-1.5
	C410.9,129.1,411,129.2,411.2,129.3z"/>
<path d="M368.7,143.7c-1,4.7-5.5,9.5-11.7,9.1c-4.2-0.3-7.8-1.6-10.3-5.1c-0.5-0.8-0.9-1.7-1.2-2.6c-0.1-0.3,0.1-0.8,0.4-1
	c0.2-0.2,0.7-0.1,1.1,0.1c0.3,0.1,0.5,0.4,0.7,0.7c3.2,3.4,7.2,3.9,11.4,3c3-0.6,5.8-1.7,8.3-3.5C367.7,144.2,368,144.1,368.7,143.7
	z"/>
<path d="M365.8,129.4c-3.4,0.8-6.8,0.8-10.2,0.2c-4.8-0.8-9.3-0.1-13.7,2.1c-0.6,0.3-1.2,0.6-1.8,0.7c-0.4,0-1-0.2-1.1-0.5
	c-0.2-0.3-0.1-0.9,0.1-1.3c0.1-0.3,0.5-0.4,0.7-0.6c6.2-4.6,12.8-6.3,20.2-3.5c2,0.7,3.9,1.5,5.9,2.3
	C365.9,129,365.9,129.2,365.8,129.4z"/>
<path d="M249.8,423.4c0.2-0.8,0.3-1.7,0.7-2.4c2.7-5.1,5.7-9.9,10.3-13.5c1-0.8,2.1-1.5,3.2-2c0.9-0.4,2-0.6,3.1,0.4
	c-0.4,0.7-0.6,1.4-1.1,2c-4.4,4.6-8.9,9.1-13.3,13.6c-0.8,0.8-1.7,1.4-2.5,2.1C250.1,423.6,249.9,423.5,249.8,423.4z"/>
<path d="M390,164.6c-1.6,3.4-3.9,6.1-7.4,7.5c-1.6,0.7-3.3,0.5-4.9-0.2s-2.2-2-2.2-3.9C380.7,168,385.1,165.5,390,164.6z"/>
<path d="M426.1,215.2c1.6-0.8,2.5-0.3,3.3,0.8c1.1,1.7,1.5,3.5,1.5,5.4c0,3.8-1.2,7.3-3,10.7c-0.9-0.5-0.9-1.2-0.9-1.9
	c0-2.4-0.1-4.8,0-7.2C427.2,220.4,427.3,217.8,426.1,215.2z"/>
<path d="M385.7,342.2c0-3.3,2.9-5.2,5.7-3.9c0.8,0.4,1.4,1,1.2,2.1c-0.3,1.9-1.3,3.4-2.7,4.6c-1.2,1.1-3.8,0-4.1-1.7
	C385.7,342.9,385.7,342.4,385.7,342.2z"/>
<path d="M528.9,337c2.5,0,3.4,1.2,2.3,3.4c-0.5,1-1.2,2.1-2,2.9c-1,1-2.3,0.8-2.9-0.5c-0.4-0.9-0.8-2-0.8-2.9
	C525.6,338.2,527,337.1,528.9,337z"/>
<g id="Color">
	<path class="st1" d="M302.7,270.8c4.8,4.9,8.1,11.1,13.7,15.4c-0.1-0.4-0.2-0.9-0.3-1.3c-1.5-3.4-3.1-6.8-4.6-10.3
		c-3.7-8.2-10.2-12.6-18.9-14.2c-4.8-0.8-9.5-0.8-14.2,0.2c-0.3,2.3,0.2,3,2.1,3.2c1.3,0.2,2.5,0.2,3.8,0.3c5,0.2,9.7,1.7,14.2,3.8
		c1.1,0.5,1.5,1.3,1.4,2.4c-0.4,6.3-0.6,12.6-1.2,18.8c-0.5,6-1.6,12-2.1,18c-0.6,6.8-2,13.5-3.3,20.3c-4.7,25.2-12.2,49.5-21,73.6
		c-7.5,20.7-14.9,41.5-22.6,62.1c-3.3,8.8-7.1,17.4-10.7,26.2c-1.2,3-2.8,5.7-4.4,8.5c-2.7,4.8-5.3,9.7-7.6,14.7
		c-3,6.2-6,12.4-8.4,18.8c-2.4,6.2-4.1,12.8-6.2,19.1c-0.2,0.7-0.4,1.4-0.8,2c-3.2,4.7-6.6,9.4-10.5,13.7
		c-7.3,8.2-13.3,17.3-17.8,27.4c-4.5,10.1-9.6,19.8-14.4,29.8c-0.2,0.4-0.5,0.8-1,1.6c-0.8-3-1.4-5.7-1.3-8.4
		c0.1-3.3,0.4-6.5,0.8-9.8c0.6-4.8,2.9-8.9,5.1-13.1c1.8-3.4,3.4-6.9,5-10.3c0.3-0.6,0.4-1.2,0.6-1.7c-2-1.5-2.7-1.5-3.7,0.3
		c-1,1.7-2.7,2.7-4.4,3.6c-8.2,4.4-16.4,9-24.8,13.1c-8.5,4.3-15.8,9.9-21.7,17.3c-1.7,2.1-3.5,4.1-5.3,6.2c-0.2,0.3-0.6,0.5-1,0.6
		c-1.3,0.5-2.7,1-4,1.5c-2,0.7-2.4,0.7-4.8-0.2c0.4-0.6,0.7-1.2,1.1-1.8c4.6-6.8,9-13.8,14.6-19.9c2.3-2.5,4.7-4.8,7.7-6.4
		c6.7-3.7,13.4-7.4,20.1-11.2c2.1-1.2,4.1-2.7,6.3-4.1c-1.2-1.1-1.9-0.4-2.6-0.1c-4.8,2.4-9.7,4.9-14.5,7.4c-2.5,1.2-5,2.5-7.5,3.7
		c-5.1,2.3-9.2,5.9-12.9,10.1c-4.4,5.1-8.3,10.5-11.7,16.3c-1.2,2-2.6,3.2-5,2.9c-0.8-0.1-1.7,0-2.9,0c2.5-3.9,4.7-7.4,7-10.9
		c3.8-5.8,7.8-11.6,11.6-17.3c0.9-1.3,1.9-2.3,3.3-3c6.1-3.4,12.5-5.9,19.2-8.1c2.1-0.7,4.2-1.5,6.3-2.4c0.8-0.3,1.5-1,2.2-1.5
		c-0.1-0.2-0.2-0.3-0.2-0.5c-2.3,0.5-4.6,1.1-6.9,1.5c-7.5,1.6-14.7,4.2-21.5,8c-2,1.1-3.6,2.6-4.8,4.5c-2.1,3.2-4.4,6.3-6.4,9.5
		c-0.7,1.1-1.5,1.6-2.7,1.6c-1.6,0-3.3,0.5-5-0.7c0.5-0.5,0.9-1,1.3-1.4c2.8-2.8,5.6-5.7,8.4-8.5c5.6-5.7,12.7-8.8,20-11.6
		c6.7-2.6,13.5-4.9,20.2-7.6c6.7-2.8,13.2-6.2,18.7-11c3.6-3.1,6.7-6.8,9.9-10.4c4.5-4.9,8.9-9.8,13.3-14.8c2.5-2.8,4.4-5.9,5.5-9.5
		c2.2-7.1,4.5-14.2,6.3-21.3c1.9-8,3.9-15.9,4.9-24.1c1.9-15,4-30,6.3-45c1-6.3,2.8-12.4,4.3-18.6c2.4-9.9,4.6-19.9,7.2-29.7
		c2.5-9.4,5.4-18.7,8.4-28c2.8-8.8,4.7-17.9,5.5-27.1c0.7-7.5,1.7-15,2.2-22.6c1.2-14.9,2.8-29.8,5.4-44.5c2-10.9,4.2-21.8,6.4-32.6
		c1.5-7.3,2.9-14.7,4.6-22c2.1-9.2,5.5-18,8.8-26.8c1.6-4.2,4.3-7.1,8.5-8.4c4-1.2,8-2.2,12-3.2c8.7-2.2,17.5-2.8,26.4-2.4
		c7.3,0.4,14.4,1.6,21.5,3.5c3.3,0.9,5.3,2.3,6.9,5.6c4.2,9,10.9,15.9,19,21.5c2.1,1.5,4.6,2.6,7,3.5c4.8,1.8,9.6,3.5,14.8,3.7
		c2.5,0.1,4.6-0.5,6.8-1.8c6.5-3.9,11.5-9.3,16.4-14.9c6.5-7.4,12-15.4,15.8-24.5c2.7-6.4,4.4-13.1,4.5-20.2c0-1.1,0-2.2-1.1-3.3
		c-1.1,4.1-2.2,7.8-3,11.7c-2.4,10.6-7.3,19.9-14,28.3c-4.3,5.3-8.9,10.5-13.6,15.4c-2.2,2.3-5.1,4.1-7.7,6
		c-1.7,1.3-3.4,1.5-5.6,0.6c-3.1-1.3-6.3-2.2-9.5-3.1c-5.8-1.8-10.6-5-15.1-9c-6.8-6.1-11.3-13.7-14.9-22
		c-5.8-13.4-8.8-27.5-11.2-41.7c-0.3-2.1,0.2-3.5,1.9-4.9c6.5-5.7,12.5-11.9,17.3-19.1c2.7-4.1,5.3-8.2,7.7-12.4
		c2.8-5,4.2-10.5,4.3-16.3c0-2.8,0.3-5.7,0.5-8.9c2.1,2,4,3.7,5.8,5.6c7.8,7.8,16.5,14.7,26.3,19.8c4,2.1,8.2,4,12.3,6
		c3.4,1.7,6.8,2,10.5,1.2c0.6-0.2,1.3,0,2.3,0c0.5-0.7,1.1-1.7,1.8-2.7c1.6-2.5,3.7-4.3,6.5-5.5c1.3-0.5,2.5-0.5,3.7,0
		c1,0.4,1.7,1.1,2,2.2c0.6,2.9,1.1,5.8,0.6,8.8c-0.2,1.4-1,2.8-1.9,4.1c-3.2,4.7-3.2,4.6-1.3,10.1c1.4,4.1,2.3,8.3,3.6,12.4
		c3,9.5,5.7,19.1,7.7,28.9c1.5,7.3,2.6,14.8,4.1,22.1c1.2,5.5,2.8,10.8,4.2,16.2c0.2,0.8,0.2,1.7,0.2,2.7c0.3,0.2,0.9,0.6,1.4,0.9
		c0.1-0.1,0.2-0.1,0.3-0.2c0.4-0.4,0.7-0.9,1.2-1.1c5.7-3.4,11.4-6.8,17.1-10.2c20.2-12,41.4-21.7,63.6-29.5
		c9.3-3.3,18.9-5.3,28.7-6.2c4.4-0.4,8.8,2,10.9,5.9c3.3,6.1,4.7,12.7,5.8,19.4c1.3,8.3,2.3,16.7,2.5,25.2
		c0.2,7.8,0.9,15.6,1.4,23.4c0.4,6.9,1.1,13.8,1.4,20.8c0.2,5.7-0.1,11.3,0.1,17c0.1,5.8,0.5,11.6,0.8,17.5
		c0.2,4.9,0.4,9.7,0.6,14.6c0.3,9.8,0.7,19.6,0.9,29.5c0.1,4.5,0.4,9,0.3,13.4c-0.2,6-0.8,12.1-1.3,18.1c-0.3,4.4-0.8,8.7-1.2,13.3
		c-14.2,1.9-28.5,3.8-42.9,5.7c0-0.3-0.1-0.8-0.1-1.2c-0.1-4.6-0.2-9.2-0.3-13.9c-0.2-4.4-0.4-8.8-0.6-13.2c-0.1-2-0.4-4-0.7-5.9
		c-0.2-1.3-0.1-2.5,0.4-3.7c2.3-4.9,3.8-10,3.8-15.5c0-14.1-0.1-28.1,0.1-42.2c0.1-8,0.2-16,2.1-23.8c0.9-3.8,2.2-7.5,4.4-10.8
		c0.3-0.5,0.6-1.5,0.3-1.9c-0.5-0.8-1.5-0.5-2.1,0c-0.7,0.5-1.3,1.2-1.8,1.9c-2.7,3.4-4.2,7.3-5.3,11.4c-1.7,6.3-2.7,12.6-2.6,19.1
		c0,3.7-0.2,7.3-0.3,11c-0.1,7.3,0,14.5,0,21.8c0,2.8,0.2,5.6,0.3,8.4c0.4,13.3-4.1,24.7-14.3,33.3c-6.8,5.8-14.5,10.3-23.2,12.5
		c-4.2,1.1-8.5,1.4-12.7,2c-1.7,0.3-3.5,0.5-5.2,0.7c-0.9,0.1-1.8-0.1-2.7-0.2c-0.3,1.5,0,2.5,1.8,3c2.3,0.7,4.8,1.4,7.2,1.4
		c7.3,0,14.4-1.6,21.1-4.9c4.3-2.1,8.4-4.5,12.8-6.9c-1.8,7.9-5.4,15.1-7.9,22.8c-4,1.1-8,2.2-12,3.2c-28,7.3-54.9,17.6-81.2,29.3
		c-22.1,9.8-43.1,21.6-63.5,34.6c-18,11.4-35.1,24-51.5,37.5c-1,0.8-1.9,1.7-2.7,2.7c-1.3,1.7-1.2,3.2,0.1,5c1.7-0.1,3-1.3,4.3-2.3
		c9.9-7.6,19.7-15.3,29.7-22.7c16.3-11.9,33.5-22.4,51.1-32.1c29-16,59.4-28.6,90.8-38.9c18.4-6,37.2-11.1,56.3-14.6
		c11.7-2.1,23.4-4,35.3-5.1c5.4-0.5,10.8-1.5,16.2-2c9.5-1.1,19.1-2.4,28.7-1.8c11.8,0.7,23.3,2.7,33.9,8.3c5.2,2.8,10,6.1,13.4,11
		c3.8,5.5,5.4,11.5,4.8,18.3c-1.3,12.7-6,24.2-10.5,35.9c-6.7,17.3-15.9,33.3-25.3,49.2c-5.4,9.1-10.8,18.1-16.3,27.1
		c-8.4,13.7-18.5,26.2-29.1,38.3c-9.3,10.6-18.8,20.9-28.9,30.8c-9.6,9.3-19.1,18.7-28.5,28.1c-9,9-17.8,18.2-26.7,27.2
		c-4,4.1-7.8,8.2-11.8,12.3c-12.8,12.8-25.6,25.6-38.3,38.3c-13.9,13.8-27.8,27.6-41.5,41.6c-13.5,13.8-26.7,28-38.1,43.7
		c-4.9,6.9-9.4,14.1-13.9,21.2c-3.8,6.1-6.1,12.8-7.7,19.8c-2,8.9-3.9,17.8-4.7,26.8c-0.5,5.7-0.7,11.5-0.9,17.2
		c-0.1,3.3-1.3,4.2-4.6,3.5c-4.9-1.1-8.8-3.4-11.9-7.4c-4.8-6.2-9.9-12.3-14.1-19c-3.3-5.2-5.5-10.7-5.3-16.9
		c0.1-4.2,1.3-8.2,2.7-12.1c1.8-5.1,3.8-10,5.5-15.1c2.8-8,4.5-16.2,3.5-24.7c-0.9-7.4-2.7-14.6-5.8-21.4c-1.1-2.5-2-5.1-2.1-7.8
		c-0.3-5.9,1.9-10.6,6.7-14c5-3.6,10.8-5.6,16.7-7.1c7-1.8,14.1-3.5,21.2-5.2c4.5-1,8.3-3.2,11.8-6c9-7.3,17.7-15,25.5-23.6
		c6-6.6,11.4-13.8,16.9-20.9c6.6-8.6,13-17.4,18.5-26.8c5-8.6,10.2-17,14-26.2c4.4-10.8,8.6-21.8,12-33.1
		c6.8-22.5,16.7-43.5,31.8-61.8c6.4-7.8,12.9-15.4,19.5-23.1c7.3-8.6,15.3-16.3,23.8-23.6c5.9-5.1,11.8-10.3,17.9-15.1
		c6.5-5,13.5-9.5,21-12.9c0.7-0.3,1.3-0.6,1.8-1.1c0.3-0.3,0.6-0.9,0.5-1.2c-0.1-0.3-0.7-0.6-1.1-0.6c-0.4,0-1,0.1-1.4,0.3
		c-3.3,1.4-6.7,2.6-9.9,4.3c-9.8,5.2-18.6,11.8-26.9,19.2c-7.8,6.9-15.7,13.7-22.7,21.3c-5.2,5.6-10.1,11.3-15.1,17
		c-8.3,9.3-16,19.2-22.7,29.6c-6.6,10.2-11.8,21-15.7,32.5c-2.3,6.6-4.5,13.3-6.7,20c-0.2,0.6-0.4,1.2-0.7,1.8
		c-1.9-0.1-3.7-0.2-5.5-0.3c-7.4-0.5-14.7,0.6-21.9,1.8c-19.1,3.2-37.3,9.4-54.9,17.2c-12.6,5.5-24.2,12.7-34.8,21.4
		c-11.6,9.4-23.2,18.8-34.9,28.1c-2,1.6-4.2,3.2-6.5,4.4c-5.9,3.2-12.1,3.2-18.2,0.6c-4.3-1.8-8.2-4.2-11.7-7.3
		c-5.1-4.5-10.3-8.9-15.5-13.1c-2.2-1.8-4.8-3.1-7.2-4.6c-2-1.4-4.1-2.7-6-4.3c-14.6-12.1-22.2-27.9-24.5-46.5
		c-0.4-3.5-0.8-7-0.8-10.5c0.3-12.8,1.8-25.4,5.7-37.7c2.7-8.2,6.1-16.1,9.8-23.9c3.3-6.9,6.5-13.9,10.7-20.3
		c3.4-5.3,7.7-10,12-14.6c11.2-12.4,24.4-22.5,38-32.1c7.4-5.3,14.8-10.6,22-16.2c4.2-3.2,8.1-6.7,11.5-10.8c2.1-2.5,3.9-5.3,5-8.4
		c0.2-0.7,0.4-1.6,0.1-2.3c-3.4-8.9-7.1-17.8-10.3-26.8c-4.6-13-8.9-26.2-13.4-39.2c-1.9-5.5-4-11-6.2-16.3c-1.3-3.2-1.7-6.3-1-9.8
		c1.2-6.1,2-12.3,2.7-18.4c0.8-6.1,1.5-12.2,1.9-18.3c0.3-4.8,0.1-9.6,0.1-14.4C302.3,270.9,302.5,270.8,302.7,270.8z M436,355.6
		c-1.1,0.2-1.9,0.2-2.5,0.6c-2.5,1.4-5.2,2.6-7.4,4.4c-4.4,3.6-9.2,6.6-14,9.6c-8.3,5.1-17.5,7.2-27.1,6.3c-9.9-1-19-4.7-26.1-11.9
		c-5.7-5.8-11-12-16.5-18c-3-3.1-6.2-6-9.3-9c-0.7-0.7-1.6-1.5-3-0.6c0.5,0.8,1,1.6,1.6,2.3c1.8,2.1,3.8,4.1,5.6,6.2
		c5.6,6.7,11,13.5,16.6,20.1c7.2,8.6,16.5,13.7,27.5,15.8c3.6,0.7,7.3,0.6,11,0.4c3.8-0.2,7.6-0.7,11.3-1.8
		c6.2-1.9,11.6-5.3,17.1-8.6c6.2-3.7,10.8-8.9,14.9-14.7C435.7,356.6,435.8,356.3,436,355.6z M446.5,228c1.6,5,4.6,6.5,9.2,4.2
		c3.4-1.7,6.9-3.5,10.1-5.5c11-7.2,22.3-14,34.3-19.5c8.7-4.1,16.7-9.3,24.5-14.9c1.9-1.4,3.7-3,5.4-4.7c0.6-0.6,1.1-1.4,1.6-2.1
		c-2.2,0.8-4.1,2-6.1,3c-10.3,5-20.7,9.9-31.1,14.8c-9.2,4.4-17.8,9.8-26,15.7c-4.7,3.4-9.5,6.7-14.3,10c-2.6,1.8-3,1.7-5.4-0.4
		C448.1,228.1,447.6,227.3,446.5,228z M408.2,235.4c0-0.1-0.1-0.3-0.1-0.4c-0.4,0-0.8-0.1-1.1-0.2c-5-0.2-10-1-14.8-2.8
		c-2-0.7-4-1.8-5.6-3.1c-3.4-2.7-6.5-5.6-9.8-8.5c-4.9-4.3-10.1-8.4-16-11.3c-5.6-2.7-11.5-4.1-17.6-5.4c-0.1,0-0.2,0.2-0.4,0.3
		c0.7,1.5,2.3,1.6,3.6,2.1c7.9,2.9,15.5,6.4,21.9,12.1c2.8,2.5,5.5,5.1,8.3,7.6c2.6,2.5,5.2,5,7.9,7.4c2.4,2.1,5.1,3.5,8.3,4
		c4.5,0.7,8.9,0.1,13.3-1C406.7,236.2,407.4,235.7,408.2,235.4z M401.5,182.9c0.1-1.5-0.8-1.9-1.5-2.3c-2.7-1.5-5.6-2.2-8.6-2.6
		c-2.4-0.3-4.6,0.1-6.4,2c-0.7,0.8-1.6,0.5-2.4,0.6c-1.2,0.1-2.5,0.1-3.4,0.7c-2.7,1.8-4.5,4.5-5.9,7.4c-0.4,0.8-0.3,1.5,0.8,1.8
		c2.1,0.5,4.1,1.3,6.2,1.7c3.5,0.8,7.1,1.2,10.5-0.6c3.2-1.7,6-3.9,8-7C399.3,183.5,399.9,182.5,401.5,182.9z M410.8,112.1
		c0-0.2,0-0.5-0.1-0.7c-1-0.2-2-0.5-2.9-0.6c-5.4-0.3-10.5,0.8-15.3,3.1c-4.3,2-7,5.6-9.3,9.7c-0.7,1.2-0.4,2.1,1,2.9
		c0.7-0.6,1.3-1.2,1.9-1.8c3.5-3.8,7.7-6.3,12.8-7.3C403.2,116.5,406.9,113.9,410.8,112.1z M354.6,156.7c-1.1,0.2-2.2,0.3-3.3,0.6
		c-6.5,1.7-7.9,8.1-4.6,13.3c1.5,2.3,3.8,3.7,6.2,4.7c3,1.3,5.5,0.6,7.4-2c2-2.7,2.8-5.5,2.5-9C362.5,159.7,358.6,156.4,354.6,156.7
		z M426.9,143.8c-0.5-1.6-0.8-3.2-1.6-4.7c-0.6-1.3-1.8-2.3-3.3-2.5c-3.3-0.3-6.4,0.3-9,2.4c-3.2,2.5-5,8.7-2.4,13.3
		c1.6,2.8,4.5,4,7.5,2.9C422.4,153.8,426.5,148.3,426.9,143.8z M411.2,129.3c-0.2-0.1-0.4-0.2-0.6-0.3c-0.6,0.5-1.2,1-1.8,1.5
		c-2.8,2.4-5.5,4.8-8.4,7.2c-2.3,1.9-4.8,3-7.9,2.8c-0.8-0.1-1.6,0.1-2.5,0.2c0,1.9,1,2.7,2.3,3.3c3,1.3,6,0.8,8.7-0.8
		c4.2-2.4,7.3-5.9,9.1-10.4C410.7,131.6,410.9,130.4,411.2,129.3z M368.7,143.7c-0.7,0.3-1,0.5-1.3,0.7c-2.5,1.8-5.3,2.9-8.3,3.5
		c-4.2,0.9-8.3,0.4-11.4-3c-0.2-0.2-0.4-0.5-0.7-0.7c-0.3-0.1-0.8-0.2-1.1-0.1c-0.2,0.2-0.5,0.7-0.4,1c0.3,0.9,0.7,1.8,1.2,2.6
		c2.5,3.5,6.2,4.8,10.3,5.1C363.2,153.2,367.7,148.4,368.7,143.7z M365.8,129.4c0-0.2,0.1-0.4,0.2-0.7c-2-0.8-3.9-1.5-5.9-2.3
		c-7.4-2.7-14.1-1-20.2,3.5c-0.3,0.2-0.6,0.4-0.7,0.6c-0.1,0.4-0.3,1-0.1,1.3c0.2,0.3,0.8,0.5,1.1,0.5c0.6-0.1,1.2-0.4,1.8-0.7
		c4.3-2.2,8.8-3,13.7-2.1C359,130.3,362.5,130.2,365.8,129.4z M249.8,423.4c0.1,0.1,0.3,0.2,0.4,0.3c0.8-0.7,1.7-1.4,2.5-2.1
		c4.5-4.5,8.9-9.1,13.3-13.6c0.5-0.5,0.8-1.3,1.1-2c-1.1-1.1-2.2-0.8-3.1-0.4c-1.2,0.5-2.2,1.2-3.2,2c-4.6,3.6-7.6,8.5-10.3,13.5
		C250.2,421.7,250,422.6,249.8,423.4z M390,164.6c-4.9,0.9-9.3,3.4-14.4,3.3c0,2,0.6,3.2,2.2,3.9s3.3,0.9,4.9,0.2
		C386.1,170.7,388.4,168,390,164.6z M426.1,215.2c1.2,2.7,1.1,5.2,1,7.9c-0.2,2.4,0,4.8,0,7.2c0,0.7,0,1.4,0.9,1.9
		c1.8-3.5,3-6.9,3-10.7c0-1.9-0.5-3.8-1.5-5.4C428.6,214.8,427.6,214.3,426.1,215.2z M385.7,342.2c0,0.2,0,0.7,0.1,1.1
		c0.4,1.7,2.9,2.8,4.1,1.7c1.4-1.2,2.4-2.7,2.7-4.6c0.2-1-0.4-1.7-1.2-2.1C388.6,337.1,385.7,338.9,385.7,342.2z M528.9,337
		c-1.9,0-3.3,1.1-3.3,2.9c0,1,0.3,2,0.8,2.9c0.6,1.3,1.9,1.5,2.9,0.5c0.8-0.8,1.5-1.9,2-2.9C532.3,338.3,531.4,337,528.9,337z"/>
	<path class="st1" d="M635.9,561.6c-0.9-1.4-2.3-1.6-3.7-1.7c-3.2-0.3-6.3-0.7-9.5-0.8c-6.2-0.1-12.5-0.2-18.5,1.8
		c-1,0.3-2.1,0.7-3.3,0.7c0.5-0.7,1-1.3,1.6-2c12.8-14.6,23.2-30.9,33-47.6c4.8-8.2,9.5-16.4,14.3-24.7c0.2-0.3,0.4-0.5,0.7-0.9
		c3.2,2.1,6.5,4.1,9.7,6.3c10.4,7,20.7,14.2,30.2,22.4c9.8,8.4,17.9,18.2,24.4,29.3c4,6.8,7.1,13.8,8.3,21.5
		c2.2,14.2-0.3,27.4-9.5,38.8c-5.7,7-12.9,12.1-20.8,16.2c-8.1,4.2-16.8,6.8-25.6,9.4c-12.1,3.6-24.5,6-36.9,8.2
		c-10.7,1.9-21.4,3.6-32.2,5.1c-7.3,1-14.6,1.5-21.9,2.2c-4.8,0.5-9.5,0.9-14.3,1.5c-8.6,1-17.1,2-25.6,3.3
		c-7.5,1.1-14.9,2.7-22.4,4.1c-1,0.2-2,0.3-3.3,0.6c0.3-0.6,0.4-1,0.7-1.3c9.8-10,19.6-19.9,29.5-29.8c7.2-7.2,14.6-14.3,21.8-21.6
		c5.5-5.5,11-10.9,16.3-16.6c5.4-5.7,10.7-11.7,16-17.5c1.2-1.4,2.5-2.2,4.4-2.3c7.2-0.4,14.5-1.1,21.7-1.6
		c3.9-0.3,7.8-0.3,11.7-0.5C634.6,563.9,634.8,563.8,635.9,561.6z"/>
	<path class="st1" d="M455.5,596.4c-0.8,2.3-1.6,4.6-2.4,6.8c-3.3,8.9-6.6,17.8-11.2,26.2c-7.3,13.5-15.4,26.5-24.7,38.8
		c-0.5,0.6-0.9,1.4-1.5,1.9c-0.5,0.5-1.2,0.9-2,1.1c-1.3,0.4-2.7,0.4-4,0.8c-11,2.9-22.1,5.7-33,9c-11.9,3.6-24,6.8-36.2,9.2
		c-11.8,2.3-23.6,4.2-35.5,5c-4.6,0.3-9.3,0.4-13.9,0.5c-5.4,0.2-10.9,0.6-16.3,0.4c-9.3-0.4-18.7-0.9-28-1.8
		c-10.2-0.9-20.5-2.3-30.7-3.4c-8.2-0.9-16.5-1.6-24.8-2.4c-6-0.6-11.9-1-17.8-2c-7-1.2-13.8-3.3-20.4-6.1c-3.6-1.6-6.8-3.9-9.6-6.6
		c-0.5-0.5-1-1.1-1.3-1.7c-0.7-1.2-0.4-2.1,0.9-2.8c0.8-0.4,1.6-0.7,2.4-1c4-1.4,8-2.8,12-4.1c6.6-2.1,13.4-3,20.3-2.7
		c8.2,0.3,16.3,1.9,24.5,3.1c3,0.4,6,0.6,9.1,0c4.3-0.8,7.9-2.8,10.7-6.3c2.3-2.9,4.7-5.6,6.9-8.6c3.2-4.4,8.5-4.6,12.2-3.4
		c2.6,0.8,4.9,2.3,7,4c4.5,3.6,8.9,7.2,13.4,10.8c1.8,1.4,3.7,2.8,5.6,4.2c4.2,3.2,8.9,5.4,13.9,6.8c5.8,1.7,11.5,1.2,17-1.5
		c4.2-2.1,7.9-4.9,11.5-7.8c11.3-9.1,22.7-18.2,34-27.3c10.7-8.6,22.5-15.5,35.1-20.8c13-5.5,26.3-10.4,40.1-13.7
		c8.4-2,16.8-3.7,25.5-4.5C447.8,596.1,451.5,596.4,455.5,596.4z"/>
	<path class="st1" d="M422,98.4c-3-1.2-6.1-2.2-8.9-3.6c-7-3.4-14-6.7-20.7-10.5c-6.5-3.7-12.5-8.3-18.3-13.1
		c-2.5-2.1-5-4.2-7.6-6.2c-1.7-1.3-2.5-1-2.8,1.1c-0.4,2.7-0.7,5.4-0.8,8.1c-0.3,8.2-3,15.6-7.4,22.5c-3.2,4.9-6.1,10-10.1,14.3
		c-2,2.2-4,4.3-6,6.5c-2.1,2.5-4.4,4.9-6,7.7c-0.9,1.4-0.8,3.5-0.8,5.3c0.4,8.2,2.1,16.3,4.1,24.2c1.2,4.8,3,9.4,4.6,14.1
		c0.2,0.8,0.5,1.5,1,2.7c-10.6-4-21.3-5.4-32.5-5.2c0.1-1.1,0.1-2,0.2-3c0.9-6.8,2-13.5,2.7-20.3c2.9-26.1,7.7-51.9,15.8-76.9
		c1.7-5.1,3.9-9.8,8-13.4c1.2-1.1,2.5-2.3,4-3c4.7-2.3,9.5-4.5,14.3-6.8c0.5,0.9,0.9,1.5,1.4,2.4c0.7-0.8,1.3-1.5,1.9-2.1
		c3.1-3.8,6.4-7.4,10.3-10.3c5.5-3.9,11.5-6.3,18.3-5.9c7.1,0.4,13.8,2.5,20,6.1c5,2.8,9.4,6.3,13.7,10.1
		c7.7,6.7,14.7,13.9,20.4,22.5c3.3,4.9,6.7,9.8,10.2,14.5c8.4,11.4,17,22.6,24.6,34.6c5.2,8.2,10.5,16.2,15.9,24.2
		c5.2,7.7,10.7,15.3,16.1,23c0.9,1.2,1.7,2.5,2.6,4c-18.9,8.5-36.4,19.1-53.2,31.4c-0.8-3.3-1.5-6.3-2.1-9.3
		c-1.7-8.4-3.4-16.9-5-25.3c-2.1-11.1-4.9-22.1-8.2-33c-1.7-5.5-3.2-11-4.8-16.7c1-1.5,2.1-3.1,3.2-4.8c1.1-1.7,1.8-3.6,1.8-5.6
		c-0.1-3-0.1-6.1-0.6-9c-1.1-6.3-7.4-7-11.2-5.1c-3.2,1.6-5.3,4.3-6.9,7.4C422.8,96.6,422.5,97.4,422,98.4z"/>
	<path class="st1" d="M396,182.5c-6.4,7.5-10.7,8.5-20.4,6.2c1.1-2.1,2.7-3.6,4.5-4.8c0.7-0.5,2-0.4,3-0.2c1.4,0.3,2.5,0.2,3.5-0.9
		c1.4-1.6,3.3-1.9,5.3-1.5C393.2,181.7,394.5,182.1,396,182.5z"/>
	<path class="st1" d="M353.9,159.2c4.4,0.1,7.6,3.1,6.5,8.6c-0.3,1.6-1.2,3.1-2.2,4.4c-1.2,1.6-2.7,1.9-4.5,1
		c-1.4-0.7-2.9-1.4-4.1-2.4c-2.7-2.2-3.4-5.8-1.9-8.8c0.3-0.5,0.8-1.1,1.3-1.3C350.7,160.1,352.3,159.7,353.9,159.2z"/>
	<path class="st1" d="M417.8,139.3c1,0.1,1.8,0.2,2.6,0.3c3,0.2,4,2.8,3.5,5.1c-0.8,3.7-3.2,6.2-6.4,7.9c-2.1,1.1-4.1,0.4-5.3-1.7
		c-1.7-2.9-1.2-7.9,1.1-10.3c0.3-0.4,0.9-0.7,1.4-0.8C415.8,139.5,416.9,139.4,417.8,139.3z"/>
</g>
</svg>
