<?xml version="1.0" encoding="utf-8"?>
<!-- Generator: Adobe Illustrator 24.1.0, SVG Export Plug-In . SVG Version: 6.00 Build 0)  -->
<svg version="1.1" id="Calque_1" xmlns="http://www.w3.org/2000/svg" xmlns:xlink="http://www.w3.org/1999/xlink" x="0px" y="0px"
	 viewBox="0 0 525.4 907.2" style="enable-background:new 0 0 525.4 907.2;" xml:space="preserve">
<style type="text/css">
	.st1{fill:#FFFFFF;}
</style>

<path d="M246.5,705.2c0,5.6-4.9,10.6-10.3,10.5c-5.7-0.1-9.5-4.9-9.8-10c-0.3-4.8,5.8-10.1,10.9-10.2
	C241.3,695.7,246.5,701.1,246.5,705.2z M234.2,701.7c-4.7,0.1-5.3,3-3.6,6.3c1.2,2.2,3.1,3.4,5.4,3.2c2.4-0.2,4.2-1.8,5.4-3.9
	c0.6-1,0.5-2.1-0.6-3C238.9,702.7,236.7,701.9,234.2,701.7z"/>
<path d="M236.6,588.7c6,0.1,9.1,4.2,7.7,10.8c-0.1,0.5-0.4,1-0.6,1.6c-2.7,7.6-10.2,7.9-15.4,2.5c-0.5-0.5-0.8-1.2-1.2-1.8
	c-2.7-4.7-0.9-10,4.2-11.9C233,589.3,234.8,589.1,236.6,588.7z M239.3,597.3c0.1-0.9-0.1-1.7-1.3-2.1c-1.8-0.5-3.6-1.2-5.5-1.7
	c-1.1-0.3-1.8,0.1-2.4,1c-1.1,1.7-1.2,2.8-0.1,4.4c0.8,1.3,2,2.2,3.6,2.7C236.5,602.5,239.2,600.6,239.3,597.3z"/>
<path d="M98.2,665c1.5-0.7,2.8-1.9,4.6-0.7c0.3,0.2,0.9,0.1,1.4,0.1c21.1,1.3,42.2,0.7,63.3,0.7c15.3,0,30.7-0.3,46-0.5
	c8.5-0.1,17.1-0.3,25.7-0.5c8.1-0.2,16.1-0.3,24.2-0.5c8.2-0.2,16.3-0.2,24.4-0.5c7.7-0.3,15.3-0.8,22.9-1.2
	c3.2-0.2,6.4-0.2,9.6-0.2c12.7-0.1,25.4-0.2,38.1-0.3c2.5,0,4.9,0.2,7.4,0.3c2.2,0.2,2.3,0.2,2.7,2.3c0.8,3.6,1.6,7.2,2.1,10.8
	c0.7,5.8,1,11.7,1.5,17.6c0.9,10,1.7,20,2.8,29.9c0.9,7.8,2.3,15.4,3.5,23.1c0.4,2.6,0.8,5.2,1.3,7.8c0.2,1,0.5,1.9,1,2.8
	c0.9,1.8-0.6,5.2-2.4,5.4c-3.2,0.5-6.4,1.1-9.7,1.5c-3.7,0.4-7.5,0.7-11.2,1c-6.6,0.5-13.2,0.9-19.8,1.3c-3.8,0.2-7.7,0.4-11.5,0.6
	c-5.7,0.3-11.5,0.6-17.2,0.9c-7.5,0.4-15,0.9-22.5,1c-16.2,0.2-32.3,0.1-48.5,0c-8.5-0.1-17.1-0.4-25.6-0.7
	c-7.2-0.2-14.4-0.6-21.5-0.7c-7,0-14.1,0.3-21.1,0.4c-13.2,0.2-26.4,0.3-39.6,0.5c-6.2,0.1-12.4,0.6-18.7,0.7
	c-2.8,0.1-5.7-0.2-8.6-0.5c-0.6-0.1-1.4-0.6-1.7-1.1c-0.6-1.1-1.2-2.3-1.3-3.5c-0.8-8.1-1.9-16.2-2.2-24.3
	c-0.5-11.1-1-22.2-0.3-33.3c0.2-2.8,0.1-5.6,0.2-8.4c0.4-7.4,0.8-14.8,1.2-22.2c0.1-2.6,0.3-5.1,0.3-7.7
	C99.2,666.6,98.6,665.9,98.2,665z M104.8,763.2c2.6,1.7,5.3,2.2,8.5,1.8c6.5-0.8,13-1.2,19.5-1.7c4.2-0.3,8.5-0.3,12.7-0.5
	c7.7-0.3,15.5-0.6,23.2-0.9c4.5-0.2,8.9-0.3,13.4-0.5c8-0.3,15.9-0.6,23.9-0.3c10.5,0.5,21.1,0.7,31.6,0.7c16.5,0,33.1-0.2,49.6-0.5
	c7.7-0.1,15.3-0.6,23-0.9c6.3-0.3,12.6-0.6,18.9-0.9c6.4-0.3,12.9-0.7,19.3-1.1c5.2-0.3,10.3-0.6,15.5-0.9c3.8-0.2,7.5-0.9,11.3-1.6
	c-0.4-2.4-0.7-4.5-1.1-6.6c-1.2-6.8-2.6-13.6-3.5-20.5c-1.1-9-1.8-18.1-2.5-27.1c-0.4-5.4-0.6-10.8-0.9-16.2
	c-0.2-4.3-0.4-8.6-0.7-12.9c-0.1-1.6-0.4-3.3-0.6-4.8c-0.3-0.2-0.4-0.2-0.4-0.2c-18.5,0.2-36.9,0.5-55.4,0.8c-2.6,0-5.3,0.3-7.9,0.4
	c-5.5,0.3-11,0.7-16.5,0.8c-9.1,0.2-18.2,0.3-27.3,0.5c-10.2,0.2-20.3,0.5-30.5,0.5c-23.5,0-47-0.1-70.5-0.3
	c-8.5-0.1-16.9-0.4-25.4-0.7c-7.3-0.2-14.5-0.6-21.7-1.7c-2.5-0.4-5-0.7-7.7-1c0,0.6,0,1,0,1.4c0,8.3,0,16.6,0,24.9
	c0,9.2-0.1,18.4-0.1,27.6c-0.1,9.5,0.1,19,1,28.4C104.2,753.8,104.5,758.5,104.8,763.2z"/>
<path d="M103.4,612.8c0-7.4-0.2-14.9,0-22.3c0.2-6.5,0.8-13.1,1.2-19.6c0.2-3.3,0.4-6.7,0.7-10c0.1-1.3,0.2-2.5,0.5-3.8
	c0.4-1.9,1.6-2.4,3.3-1.4c0.4,0.2,1,0.3,1.5,0.3c6.7,0.2,13.4,0.3,20.1,0.4c0.6,0,1.1,0,1.7,0c23.4-0.1,46.7-0.1,70.1-0.2
	c7.6,0,15.2-0.2,22.8-0.5c21-0.9,42.1,0,63.1-0.2c7.8-0.1,15.5-0.1,23.3-0.2c10.8-0.2,21.6-0.6,32.3-1c3.6-0.1,7.2-0.5,10.7-0.7
	c1.4-0.1,2.8-0.1,4.2,0.7c0.7,0.4,1.7,0.4,2.5,0.5c1.7,0.2,2.1,0.5,2.2,2.2c0.2,4.1,0.4,8.3,0.5,12.4c0.2,6.2,0.3,12.4,0.5,18.7
	c0.2,5.9,0.5,11.8,1,17.7c0.3,3.7,1.1,7.4,1.3,11.1c0.3,5.3,0.4,10.7,0.6,16c0,1.1,0.2,2.2,0.3,3.3c0.1,0.4,0.3,1,0.6,1.2
	c1.3,0.6,1.1,1.7,0.8,2.7c-0.3,1.2-1.1,2-2.3,2.1c-0.6,0.1-1.3,0.1-1.9,0.1c-3.1-0.1-6.2-0.2-9.3-0.2c-8.2,0-16.3-0.1-24.5,0
	c-9.8,0.1-19.7,0.5-29.5,0.6c-14.7,0.2-29.4,0.2-44.2,0.3c-5.5,0-11,0.1-16.6,0.2c-10.1,0.3-20.3,0.6-30.4,0.9
	c-5.6,0.2-11.2,0.4-16.8,0.5c-10.4,0.2-20.8,0.3-31.2,0.5c-7,0.1-14.1,0.3-21.1,0.5c-3.9,0.1-7.8,0.6-11.7,0.4c-7-0.3-14-0.9-21-1.4
	c-0.3,0-0.6-0.1-1-0.1c-0.8-0.1-2,0-2.4-0.4c-0.8-0.9-1.4-2.2-1.6-3.3c-0.3-2-0.4-4.1-0.4-6.2C103.4,627.3,103.4,620.1,103.4,612.8z
	 M359.3,559.7c-1.8-0.7-3.4-1.1-5.3-1c-3.7,0.3-7.3,0.4-11,0.5c-5.6,0.2-11.2,0.3-16.8,0.5c-9.6,0.2-19.2,0.5-28.8,0.7
	c-6.2,0.1-12.5,0-18.7,0c-18.5,0.2-36.9-0.4-55.4,0.2c-11.5,0.4-23,0.4-34.5,0.4c-17.5-0.1-35-0.4-52.5-0.6
	c-6.6-0.1-13.1-0.6-19.6-1.3c-2.4-0.3-4.9,0-7.4,0c-1.5,27.6-0.1,55.3-0.9,82.9c0.6,0.1,1,0.3,1.5,0.3c3,0.1,5.9,0.2,8.9,0.2
	c8.8,0.2,17.5-0.4,26.3-0.9c8.4-0.5,16.9-0.7,25.4-1c10.8-0.4,21.5-0.6,32.3-1c8.5-0.3,17.1-0.7,25.6-0.9c7.9-0.3,15.8-0.5,23.7-0.7
	c8.5-0.2,16.9-0.3,25.4-0.3c15,0,30.1-0.2,45.1-0.6c12.7-0.3,25.4,0.1,38.1,0.1c0.7,0,1.4-0.1,2.3-0.1c0-1.1,0.1-2,0-2.9
	c-0.1-1.8-0.3-3.7-0.4-5.5c-0.3-3.8-0.3-7.7-0.9-11.4c-1.2-8.6-1.8-17.1-2-25.7C359.6,580.9,359.5,570.3,359.3,559.7z"/>
<path d="M230.5,499.5c-0.2-3.6,0.7-5.5,5.2-6.7c2.9-0.8,5.6-0.7,8.4,0.7c6.1,2.9,5.3,10.8,1.3,13.8c-2.8,2.1-5.9,3.2-9.4,1.5
	C232.5,507,230.5,503.7,230.5,499.5z M236.3,496.6c-3.2-0.1-4.1,1-3.8,3.3c0.2,2.6,2.2,5.1,4.7,5.8c2.2,0.7,4.8-0.2,6.5-2.3
	c1.7-2.1,1.2-4.5-1.3-5.4C240.1,497.3,237.7,496.9,236.3,496.6z"/>
<path d="M339.2,301.6c-3.3,0-4.9-1.7-4.5-4.5c0.1-0.9,0.5-1.8,0.8-2.7c3.3-7.9,9.5-12.7,17.3-15.5c3-1.1,6.1-1.7,9.2-2.4
	c1-0.2,2.2-0.1,3.3,0.2c1.8,0.5,2.1,1.3,1.5,3.1c-2.6,8.2-7.8,14.3-15.6,18.2c-3.4,1.7-7,3.1-10.9,3.5
	C339.9,301.5,339.4,301.6,339.2,301.6z M349.1,285.4c-4.9,2.3-9.2,5.1-10.3,11c8.6,0.2,21.6-7.4,24.5-15.4c-2.2,0.5-4.3,1-6.4,1.4
	c-0.1,0.7,0,1.2-0.2,1.6c-0.5,1.5-0.8,3.1-1.7,4.4c-1.3,2.1-3.5,1.9-4.8-0.2C349.9,287.4,349.6,286.5,349.1,285.4z"/>
<path d="M339.8,338.5c-1.2,0-1.8,0-2.4,0c-2.7,4.9-8.1,7.3-13.4,6.1c-3.3-0.8-6.3-2.1-8.9-4.4c-0.8-0.7-1.5-1.6-2.9-1.4
	c-0.3,0-0.9-0.7-1-1.1c-0.1-0.3,0.2-1,0.6-1.2c3.9-2.5,7.8-5,12.5-5.8c0.5-0.1,1.2-0.1,1.6,0.2c1.6,1,3.2,1,5,0.6
	c0.5-0.1,1.2-0.1,1.7,0.1C335.7,332.9,338,335.1,339.8,338.5z M335.7,337.8c-0.6-0.5-0.9-0.7-1.1-1c-1.8-2-3.7-2.6-6.1-1.1
	c-0.8,0.5-1.4,0.1-2.2-0.3c-0.7-0.4-1.7-0.8-2.4-0.6c-2.5,0.7-4.9,1.6-7.4,2.4c0,0.2,0,0.4,0.1,0.6c4.1,2.5,8.3,4,13.2,2.4
	C331.6,339.6,333.5,338.7,335.7,337.8z"/>
<path d="M303.6,311.3c0.3,3.7-1.8,6.7-5,7.9c-1,0.4-2.2,0.7-3.2,0.5c-2.8-0.5-5.6-1.5-7.8-3.4c-2.4-2-3.2-5.2-2.1-8.2s4.2-5.3,7-5.3
	c0.4,0,0.8,0,1.2,0.1c1.6,0.5,3.2,1,4.8,1.5C301.3,305.2,304,306.9,303.6,311.3z M301.2,311c0.3-1.6-0.6-2.7-2.1-3.4
	c-2.2-1-4.4-1.9-6.6-2.8c-0.3-0.1-0.8-0.2-1.1-0.1c-1.8,0.4-3.8,3-4.1,5.2c-0.3,2.2,0.7,4,2.9,5c1.2,0.6,2.5,1,3.8,1.5
	C297.9,317.7,301.2,315.3,301.2,311z"/>
<path d="M372.2,307.3c-0.4,3.8-1.7,7.3-5.7,9.2c-2.8,1.4-6.3,0.9-8.4-1.3c-2.3-2.4-3-5.1-1.5-8.3c1.8-3.8,4.8-5.9,9-6.3
	C369.9,300.2,372.3,302.5,372.2,307.3z M369.8,306.7c0-0.3,0-0.8-0.1-1.3c-0.4-2.3-1.9-3.3-4.3-2.9c-3.1,0.5-5.2,2.3-6.5,5.1
	c-1,2-0.8,3.7,0.6,5.1c1.5,1.6,3.4,2.1,5.5,1.3C367.8,312.8,369.7,310,369.8,306.7z"/>
<path d="M335.9,316.6c-1.7,3.3-5.5,5.2-8.8,4.8c-3.3-0.4-5.5-2-6.2-4.9c0.9-0.2,1.8-0.5,2.7-0.5c1.7,0.1,3.5,0.2,5.2,0.5
	C331,317,333.2,317.5,335.9,316.6z"/>
<path d="M203.9,294.5c2-4.9,3.8-9.6,5.8-14.3c5.5-13,12.8-25,20.5-36.8c6.4-9.8,13.3-19.2,20.9-28c10.7-12.4,23.4-21.9,38.8-27.7
	c7.5-2.8,15.1-3.8,23.1-3.1c3.9,0.4,7.3,2.1,10.9,3.5c0.4,0.2,0.7,0.3,1,0.5c2.5-2.4,5.1-4.8,7.5-7.2c8.8-8.7,22.2-9.2,32-4
	c4.8,2.6,8.6,6.3,12.1,10.4c10.8,12.9,17.7,27.6,21.6,43.8c1.7,7.2,2.8,14.4,3.5,21.7c1.2,12.5,1.3,25,0.7,37.6
	c-0.5,10.3-1.3,20.7-2.9,30.9c-1.9,11.9-4.5,23.7-9.9,34.6c-3.5,7-7.6,13.5-12.6,19.5c-0.9,1-1.7,2.1-2.6,3.2
	c4.6,9.1,9.8,17.8,15.4,26.2c3,4.5,6,9.1,9,13.6c0.4,0.6,0.9,1.1,1.4,1.6c1.3,1.4,2,2.9,1.9,4.9c-0.3,5.6-0.4,11.2-0.6,16.8
	c-0.2,3.8-0.3,7.5-0.5,11.2c-0.4,6.6-0.8,13.2-1.3,19.8c-0.5,6.1-1.1,12.2-1.6,18.3c-0.9,10.7-2,21.4-3.6,32.1
	c-0.8,5.6-1.4,11.2-2,16.8c-0.8,8-1.4,16-2,24.1c-0.3,4.2-0.4,8.4-0.6,12.7c-0.9,17.8-0.9,35.6-1,53.4c-0.1,15.3-0.1,30.7,0.1,46.1
	c0.1,7.7,0.5,15.5,1.1,23.2c1,12.3,2.4,24.6,3.7,36.8c0.9,9.1,2,18.2,2.9,27.3c0.9,8.9,1.6,17.8,2.5,26.6c0.8,8.2,1.6,16.5,2.4,24.7
	c0.7,7,1.5,13.9,2.2,20.9c0.3,3.2,0.5,6.5,0.5,9.8c0.1,5.9,0,11.8,0,17.7c0,5-3.2,6.7-7.9,4.7c-3-1.3-4.9-3.5-6.4-6.2
	c-4.1-7.6-7.5-15.5-9.6-23.9c-1.9-7.8-3.1-15.6-4.3-23.5c-1.1-7.4-1.9-14.8-2.8-22.3c-0.3-2.4-0.2-4.9-0.2-7.4c0-0.9,0-1.7,0-2.9
	c-12.7,0.8-25,2-37.3,3.4s-24.6,2.5-36.9,3.8c-0.2,1.2-0.4,2.2-0.5,3.2c-0.4,4.5-0.8,9.1-1.2,13.6c-0.4,3.9-0.7,7.8-1.2,11.6
	c-0.9,6.9-1.8,13.9-2.8,20.8c-0.2,1.4-0.4,2.8-0.8,4.2c-0.2,0.7-0.8,1.3-1.3,2.1c-0.9-0.7-1.7-1.1-2.2-1.8
	c-3.3-4.3-6.2-8.8-7.1-14.2c-1-5.7-1.1-11.4-1-17.2c0.1-4.9,0.3-9.7,0.4-14.6c0.1-1.8,0.2-3.6,0.3-5.6c-1.6,0-3-0.1-4.4,0
	c-6.7,0.4-13.4,0.9-20.1,1.4c-7,0.6-14,1.2-21,1.8c-5.4,0.4-10.8,0.6-16.2,0.9c-6.5,0.3-12.9,0.7-19.4,1.1c-7.1,0.5-14.2,1-21.2,1.5
	c-6.3,0.5-12.6,0.9-18.8,1.4c-4.9,0.3-9.9,0.6-14.8,1c-6,0.5-11.9,1.3-17.9,1.7c-7,0.4-14,0.5-21.1,0.7c-1.2,0-2.4,0-3.8,0
	c-0.4,2.5-0.8,4.9-1.3,7.4c-1.7,9.6-3.1,19.2-5.7,28.6c-2.7,9.4-6.3,18.4-10.3,27.3c-1.1,2.5-2.7,4.9-2.7,7.8c0,0.3-0.4,0.6-0.8,1.2
	c-0.8-0.8-1.5-1.3-2-2.1c-2.8-3.5-4.2-7.7-5.2-12c-1.6-6.9-2.5-13.9-3-21c-0.5-6.6-1.1-13.2-1.3-19.8c-0.2-5.9,0.1-11.8,0.3-17.7
	c0.1-4,0.3-8,0.7-11.9c0.1-1.6-0.7-2.3-1.8-3c-7.3-4.6-13.8-10.4-21.2-14.8c-4.4-2.6-8.3-5.9-11.9-9.6c-0.2-0.2-0.5-0.4-1-0.8
	c-0.1,2.9-0.2,5.6-0.3,8.2c-0.3,8-1,15.9-2.5,23.7c-1,5.4-1.6,10.9-2.7,16.3c-1.2,5.7-2.7,11.3-4.1,17c-0.3,1.3-1,2.4-1.5,3.6
	c-2.9-0.2-4.2-1.8-4.7-4.2c-0.9-4.8-2.1-9.5-2.6-14.3c-0.7-6.3-0.8-12.6-1.1-18.9c-0.3-6.5-0.3-12.9-0.5-19.4
	c-0.1-4.5-0.3-8.9-0.5-13.4c-0.2-4.8-0.4-9.6-0.5-14.4c-0.2-6.6-0.3-13.2-0.3-19.9c0.1-10.2,0.2-20.5,0.5-30.7
	c0.2-8,0.6-15.9,1-23.9c0.3-5.9,0.6-11.8,1-17.7c0.4-7.2,0.9-14.5,1.5-21.7c0.6-7.9,1.2-15.9,1.9-23.8c0.8-9.4,1.6-18.9,2.4-28.3
	c0.7-8.3,1.6-16.7,2.3-25c0.5-5.8,0.7-11.6,1-17.4c0.3-6.4,0.6-12.9,1-19.3c0.3-6.1,0.7-12.3,1-18.4c0.3-7,0.6-14,1-21s0.6-14,1-21
	c0.3-7.2,0.6-14.3,1-21.5c0.3-6.5,0.7-13.1,0.9-19.6c0.3-8.4,0.3-16.8,0.5-25.2c0.1-5.1,0.3-10.2,0.5-15.3c0-1.7,0-3.3-1.1-4.8
	c-1-1.3-0.5-1.8,1.2-1.9c3.3-0.2,6.7-0.5,10-0.7c3-0.2,5.9-0.3,8.8-0.4c3-0.1,6-0.3,9.4-0.4c0-1.3,0-2.5,0-3.7
	c-0.4-15.5,2.5-30.5,8.1-44.9c1.3-3.3,3.2-6.4,5.1-9.5c3.4-5.6,7.2-10.9,10.5-16.6c5.6-9.8,9.6-20.2,11.5-31.3
	c0.8-4.7,1.3-9.3,1.3-14c0-3.4,0-6.9,0-10.3c0-1.6,0.3-1.9,1.8-2.3c0.4-0.1,0.8-0.2,1.2-0.2c0.4-0.1,0.7-0.1,1.2-0.2
	c0.1-3-0.7-5.6-1.5-8.3c-1.6-4.8-3.1-9.7-4.6-14.7c-0.2,0.2-0.5,0.5-0.8,0.9c-1.8,2.3-3.5,4.9-5.6,6.9c-3.3,3.2-7.3,5.1-12.1,5
	c-5.4-0.1-10.7-4.7-11.3-10c-0.5-4.4,1.4-8,4.7-10.8c3.7-3.1,7.9-5.2,12.5-6.3c2.5-0.6,5-0.7,7.6-1c0.5-0.1,0.9-0.1,1.4-0.1
	c-1.2-3.8-2.4-7.5-3.6-11.5c-1.9-0.3-3.7,0.5-5.3,1.5c-2.1,1.4-4.2,3-6.2,4.5c-2.3,1.8-4.8,2.8-7.8,2.7c-4.7-0.1-8.5-3.7-8.7-8.4
	c-0.2-3.5,1.1-6.6,3.4-9.2c5.5-6.4,11.1-8.9,20.2-8.4c-2.5-4.5-4.8-8.7-7.2-13c-2.8,1.7-5.4,3.6-8.2,5.1c-4.4,2.4-9.2,3.8-14.2,3.7
	c-4.4-0.1-8.3-3.3-9.4-7.6c-0.6-2.3,0.2-4.4,1.2-6.4c1.3-2.5,3.4-4.2,5.9-5.5c5.2-2.7,10.6-4.9,16.6-4.8c0.2,0,0.4-0.1,1-0.3
	c-2.2-2.6-4.3-5-6.4-7.4c-3.6,1.2-6.9,2.4-10.4,3.4c-3.7,1-7.6,1.5-11.4,0.7c-5.5-1.1-9-4.6-10.8-9.8c-1.2-3.4-0.1-6.5,2.5-8.9
	c3.1-2.8,6.9-4,10.8-4.8c4.4-0.9,8.9-0.7,13.4,0.4c0-1.5,0.1-2.9,0-4.2c-0.2-2.9-0.7-5.7-0.7-8.6c0-5,1.1-9.8,4.1-14
	c2.5-3.3,6.9-4.8,10.9-3.8c2.5,0.6,4,2.2,4.8,4.6c1.2,4,1.1,8.1,0.4,12.1c-1.2,7.7-3.1,15.2-6.5,22.4c2.6,2.3,5.2,4.5,7.6,6.7
	c0.2-3.2,1.6-6.9,2.8-10.6c1.8-5.6,7.7-9.8,15.5-9c5.6,0.6,7,4,7.1,8.3c0.1,2-0.4,4.1-0.7,6.1c4.9,1,9.3,3,13.5,6.1
	c1.5-7.2-0.2-14.4,0.9-21.7c-1.6-0.6-3.2-1.2-4.7-1.8c-10-3.5-16-10.7-19.1-20.6c-0.8-2.6-0.6-5.2-0.1-7.8c0.6-2.9,2.5-4.3,5.2-4.9
	c2.8-0.6,5.4,0.3,7.8,1.6c3.3,1.8,6.2,4.2,8.3,7.4c0.2,0.4,0.5,0.7,1.1,1.4c0.6-2.8-0.2-5.7,2.4-7.6c-3.8-3.5-7.4-6.8-10.9-10.1
	c-5-4.8-7.9-10.6-7.9-17.6c0-2.4,0.1-4.8,0.6-7.1c1-4.8,4.5-7.2,9-8.2c4.3-1,7.9,0.6,10.6,3.9c4.1,5,6.6,10.9,8.2,17.2
	c0.3,1.4,0.6,2.9,0.9,4.7c1.5-2.3,2.8-4.2,4.1-6.1c3.1-4.3,7.1-7.6,12.1-9.4c1.8-0.7,3.7-1,5.6-0.5c4.1,1,5.9,3.6,5.2,7.8
	c-1.5,9.7-6,17.9-13.4,24.5c-3.9,3.5-7.9,6.8-12.7,8.9c-0.2,3.1-0.4,6.1-0.5,9.1c0.1,0.1,0.2,0.1,0.3,0.2c0.5-0.8,1-1.5,1.5-2.3
	c3-5,6.9-8.8,12.4-10.9c2-0.8,4-1.1,6.1-0.7c4.4,1,7.3,4.4,7.7,9c0.5,6.7-1.7,12.3-6.9,16.6c-5,4-10.5,7.8-17.9,9.6
	c-0.5,4.7-0.9,9.3-1.4,14.3c0.8-0.7,1.3-1.2,1.9-1.7c4.3-3.9,9.2-6.7,15-7.3c2.2-0.2,4.5,0,6.6,0.5c4.1,1,6.2,4.6,5.4,8.8
	c-0.8,4.4-2.9,8.1-6,11.3c-6,6.1-12.9,10.9-20.9,14.1c-0.2,0.1-0.4,0.2-0.8,0.4c-0.2,2.7-0.4,5.4-0.7,8.8c1-0.8,1.7-1.3,2.4-1.8
	c3.7-2.8,7.5-5.5,11.8-7.3c1.5-0.6,3.1-1,4.6-0.9c4.2,0.1,6.8,2.5,7.7,6.8c0.2,1.1,0.4,2.2,0.6,3.4c5.4-19.4,10.7-38.7,16-58
	c-2.1-3.3-4.3-6.7-6.2-10.1c-3.5-6.5-5.4-13.6-7.5-20.7c-0.9-3-1.6-6-2.3-9c-1.1-4.7-0.2-9.3,1.2-13.8c0.5-1.4,1.1-2.8,1.5-4.3
	c0.7-2.4,2.4-3.1,4.4-1.6c2.2,1.7,4.4,3.5,6.5,5.3c1.3,1.1,2.6,2.3,4.2,3.7c0.3-1.1,0.5-2.1,0.8-3c0.9-3.2,1.8-6.4,2.8-9.6
	c0.2-0.7,0.5-1.4,1-1.9c1.6-2,4-1.8,5.2,0.5c2.2,4.1,3.4,8.6,4,13.2c0.1,1,0.3,2,0.5,3.4c1.5-1.5,2.7-2.8,4-4
	c2.4-2.2,4.8-4.4,7.3-6.5c0.7-0.6,1.6-1.1,2.5-1.4c1.9-0.6,2.9,0.1,3,2.1c0.2,4.1-0.6,8.2-1.7,12c-1.7,5.7-3.8,11.3-5.9,16.9
	c-0.7,1.8-1.8,3.6-2.8,5.3c-4.7,7.1-9.4,14.3-14.4,21.2c-1.6,2.2-2.7,4.3-2.7,7.1c0,2-0.6,3.9-0.9,6.3c0.6-0.6,1-0.9,1.3-1.3
	c2.5-3.3,5.8-5.7,9.4-7.7c4.1-2.3,8.2-4.6,12.3-6.9c0.3-0.2,0.7-0.4,1.1-0.6c1.5-0.6,2.2-0.1,2,1.5c-0.1,1.2-0.5,2.3-0.9,3.5
	c-1.6,5.2-4.3,10-7.6,14.3c-3.5,4.7-7.1,9.3-11.8,12.8c-2.4,1.7-4.8,3.4-7.2,5.1c-1.1,0.8-2.2,1.6-3.1,2.6c-0.5,0.5-0.9,1.3-1.1,2
	c-4,12.2-7.3,24.5-8.3,37.3c-0.5,6.4-1.2,12.8-1.8,19.3c0,0.3,0,0.6,0.1,1.4c0.3-0.7,0.5-1,0.6-1.3c2.6-9.1,7.2-17.2,12.7-24.8
	c2.8-3.8,6-7.5,9-11.2c0.2-0.2,0.4-0.5,0.7-0.7c1.1-1,2.6-1.9,3.1-3.2c0.5-1.2-0.1-2.8-0.2-4.2c-0.3-4.5,0.7-8.9,2-13.2
	c1.8-5.7,3.7-11.4,5.5-17.1c0.3-0.9,0.5-1.8,1.6-2.2c0.3-0.1,0.5-0.6,0.8-0.9c2-2.6,3.9-5.2,5.9-7.8c0.3-0.4,0.6-0.8,1-1
	c1.1-0.8,2.2-0.5,2.7,0.8c0.4,1,0.5,2,0.9,3c0.7,2.1,1.6,4.2,2.3,6.3c0.5,1.4,0.8,2.9,1.2,4.3c0.2,0.6,0.4,1.1,0.6,1.8
	c1.9-2,3.5-3.8,5.3-5.5c2.9-2.7,6.4-4.4,10.2-5.7c2.3-0.8,3.3,0.2,2.8,2.6c-1,4.9-2.8,9.5-6.5,13.1c-0.4,0.4-0.7,0.9-1.2,1.5
	c0.6-0.1,0.9-0.1,1.2-0.2c3.8-1.4,7.7-1.9,11.7-2.2c1.3-0.1,2.8-0.3,3.5,1c0.7,1.2,0.2,2.7-0.6,3.8c-1.7,2.3-3.3,4.7-5.3,6.7
	c-5,5.1-10.3,9.8-16.2,13.9c-5.4,3.7-11.5,5.9-17.7,7.7c-2.3,0.7-5.6,0.6-8.6-0.9c-5.4,7.3-10.9,14.7-14.3,23.6
	c0.7-0.2,1.2-0.3,1.7-0.4c2.7-1,5.3-1,7.9,0.2c1.5,0.7,3.1,1.3,4.5,2.1c4.3,2.5,8.9,4.3,13.6,5.8c1.8,0.5,3.6,1.3,5,2.4
	c-4,5.3-9.4,7.7-15.6,8.6c-2.9,0.5-5.7,0.1-8.5-0.9c-2.4-0.9-4.7-2-7.1-2.9c-2.5-1-5-1.9-7.8-3c-1.7,5.6-3.3,10.9-5.1,16.6
	c1.6-0.2,2.8-0.4,4.1-0.5c2.8-0.4,3.6,0.4,3.2,3.1c-0.7,4.6-0.5,9.2,0,13.8c0.2,2.1,0.2,4.3,0.2,6.5c-0.2,9.9,2.5,18.9,8,27.1
	c3.4,5.1,7.1,9.8,11.4,14.2c3.7,3.8,7,7.9,9.7,12.5C203.2,293.6,203.5,293.9,203.9,294.5z M87.1,433.5c-0.1,0.7-0.1,1-0.1,1.3
	c0.2,5.9,0.3,11.8,0.5,17.7c0.1,6.2,0.2,12.3,0.2,18.5c0,5.2-0.4,10.4-0.4,15.6c0,3.1,0.2,6.2,0.3,9.3c0.1,7.1,0.1,14.2,0.2,21.3
	c0.1,10.3-0.2,20.6-0.9,30.9c-0.4,5.3-0.3,10.7-0.5,16c-0.1,4.4-0.4,8.8-0.5,13.2c-0.2,7.8-0.3,15.5-0.5,23.2
	c-0.2,8.7-0.3,17.4-0.5,26.1c-0.3,11.9-0.6,23.8-1,35.7c-0.2,5.5-0.3,11-0.5,16.5c-0.2,7.7-0.3,15.3-0.5,23
	c-0.1,5.1-0.3,10.2-0.5,15.3c-0.2,6.8-0.4,13.6-0.5,20.3c-0.1,12.1-0.1,24.1-0.2,36.2c0,1.8,0,3.7,0,5.5c0,1.1-0.2,2.2-1.2,2.9
	c-1.6-1-1.5-2.4-1.5-3.9c0.1-11.2,0.2-22.4,0.3-33.6c0.1-8.5,0.3-16.9,0.5-25.4c0.1-5.3,0.3-10.7,0.5-16c0.2-7.4,0.3-14.8,0.5-22.3
	c0.1-5.7,0.3-11.3,0.5-17c0.2-4.8,0.3-9.6,0.5-14.3c0.2-7.2,0.3-14.4,0.5-21.6c0.2-8.2,0.3-16.5,0.5-24.7
	c0.2-10.1,0.3-20.1,0.5-30.2c0.1-7.1,0.3-14.2,0.5-21.3c0-2.1,0.1-4.2,0.2-6.2c0.2-5.4,0.7-10.8,0.7-16.2c0-11.3-0.4-22.7-0.4-34
	c0-7.5,0.3-15,0.4-22.5c0-3.7-0.2-7.3-0.3-11c0-5.3,0-10.5,0-15.8c0-3.7,0.2-7.3,0.3-11c0-1-0.2-1.8-1.1-2.4
	c-3.1-2.3-5.6-5.2-7.9-8.3c-2.8-3.9-5.6-7.8-8.5-11.6c-9.6-12.3-19.9-24-31.4-34.5c-0.2-0.2-0.5-0.3-1-0.6c0,1.1,0,1.9,0,2.7
	c0,7.6,0.2,15.2,0.1,22.8c-0.2,11-0.6,22-0.9,33c-0.3,9.2-0.6,18.3-1,27.5c-0.1,2.1-0.1,4.2-0.2,6.2c-0.2,5.2-0.5,10.5-0.8,15.8
	c-0.2,4.5-0.4,9.1-0.6,13.6c-0.3,5.6-0.6,11.1-0.8,16.7c-0.2,4.9-0.4,9.7-0.7,14.6c-0.4,6.8-0.8,13.5-1.3,20.3
	c-0.2,3.2-0.4,6.4-0.7,9.5c-0.7,7.9-1.5,15.8-2.2,23.8c-0.4,4.7-0.7,9.4-1.1,14.1c-0.7,8.1-1.5,16.2-2.2,24.3
	c-0.6,6.9-1,13.8-1.5,20.7c-0.5,7.9-1,15.7-1.4,23.6c-0.4,7.1-0.7,14.2-1,21.3c-0.2,4.8-0.4,9.6-0.5,14.3
	c-0.2,9.7-0.4,19.5-0.5,29.2c0,5.8,0.2,11.7,0.3,17.5c0.1,5.7,0.3,11.3,0.5,17s0.3,11.5,0.5,17.2c0.2,5.1,0.2,10.2,0.5,15.3
	c0.2,5.1,0.5,10.2,1,15.2c0.4,3.8,1.2,7.6,1.9,11.6c0.4-0.3,0.7-0.4,0.7-0.5c1.3-5.8,2.8-11.6,4-17.5c0.7-3.3,1.1-6.8,1.8-10.1
	c2.1-9.7,3.3-19.5,4.1-29.3c0.2-2.8-0.1-5.7,1-8.4c0.2-0.5,0.5-1.2,0.8-1.2c0.5,0.1,1.1,0.4,1.5,0.8c1.7,1.6,3.1,3.4,5,4.8
	c3.6,2.7,7.2,5.4,11.2,7.4c7.5,4,13.6,10,21,14.4c0.1,7.3,0.2,14.6,0.2,21.8c0,2.8,0,5.6,0.2,8.4c0.5,6.3,1.3,12.5,1.7,18.8
	c0.5,7.4,1.4,14.7,2.6,22.1c0.6,3.4,1.3,6.8,2.6,10c0.2-0.1,0.3-0.1,0.4-0.1c0.6-1.2,1.2-2.4,1.8-3.7c4.7-10.4,8.9-21,11.4-32.2
	c1.9-8.5,3.7-17,5.5-25.5c0.4-1.7,0.5-3.5,0.8-5.7c0.3-0.1,1-0.4,1.8-0.4c4.4-0.3,8.8-0.5,13.1-0.8c4.9-0.3,9.9-0.6,14.8-1.2
	c11.2-1.5,22.5-2.3,33.8-3.1c7.3-0.5,14.6-1,22-1.6c8.4-0.6,16.9-1.3,25.3-1.8c7.2-0.4,14.5-0.6,21.8-1c9-0.6,18-1.4,27-2
	c6.4-0.5,12.9-0.8,19.3-1.3c4.8-0.4,9.7-0.8,14.5-1.3c6.3-0.6,12.7-1.4,19-2c6.5-0.7,13-1.2,19.5-1.8c6.1-0.6,12.2-1.4,18.3-2
	c7.6-0.7,15.3-1.1,22.9-1.7c1.1-0.1,2.4-0.5,3.1,0.6c0.8,1.2-0.2,2.2-0.7,3.3c-0.3,0.6-0.6,1.3-0.5,2c0.3,3.3,0.6,6.7,1.1,10
	c1.8,10.7,3.7,21.3,5.6,32s4.8,21.2,9.7,31c0.8,1.6,1.7,3.3,2.6,4.9c0.9,1.7,2.5,2.7,4.1,3.6c1,0.5,1.8,0.4,2.9-0.7
	c-0.2-7.3-0.3-14.9-0.6-22.4c-0.1-3.1-0.3-6.2-0.6-9.3c-0.7-7-1.5-13.9-2.2-20.9c-0.4-4-0.8-8.1-1.2-12.1c-0.7-6.3-1.5-12.7-2.1-19
	c-0.6-5.8-1-11.6-1.6-17.4c-1.4-13.3-2.9-26.6-4.2-39.9c-0.7-6.9-1.3-13.8-1.9-20.7c-0.3-4.1-0.4-8.1-0.6-12.2
	c-0.2-5-0.7-10-0.7-15.1c-0.1-20.5,0-40.9,0-61.4c0-1.4,0-2.7,0-4.1c0.2-9.1,0.5-18.2,0.8-27.3c0.2-5,0.3-10.1,0.6-15.1
	c0.4-6.4,0.9-12.7,1.5-19.1c0.5-5.5,1.1-10.9,1.8-16.4c0.8-6.9,1.8-13.8,2.6-20.6c0.6-5.3,1-10.6,1.5-15.9
	c0.7-8.1,1.6-16.2,2.2-24.3c0.5-7.7,0.7-15.5,1-23.2c0.2-5.3,0.7-10.5,0.9-15.8c0.1-2.1,0-4.2,0-6.5c-1.8,0.5-3.6,1.3-5.5,1.5
	c-4.7,0.5-9.4,0.8-14.1,1c-4.4,0.2-8.8,0.2-13.2,0.3c-3.2,0.1-6.4,0.2-9.6,0.2c-6.6,0.1-13.3,0.3-19.9,0.2
	c-6.8-0.2-13.6-0.7-20.3-1.2c-5.2-0.4-10.3-0.9-15.5-1.3c-1.5-0.1-2.9-0.4-4.6-0.6c-0.4,6.6-0.8,13-1.2,19.5c0.6,0,1.1,0,1.6,0
	c6.7-0.3,13.4-0.7,20.1-0.9c8.5-0.3,16.9-0.3,25.4-0.5c7.1-0.2,14.2-0.3,21.3-0.5c1.6,0,3.2-0.1,4.8,0c0.6,0,1.6,0.4,1.8,0.9
	c0.9,2.2,1.8,4.5,2.2,6.8c0.9,6.6,1.6,13.3,2.3,19.9c0.7,7.8,1.5,15.6,1.9,23.3c0.2,5.4-0.1,10.8-0.3,16.3
	c-0.2,3.9-0.6,7.8-0.9,11.7c-0.4,4.5-0.6,9.1-1.2,13.6c-0.5,4.4-1.3,4.8-5.8,4.2c-1.4-0.2-2.9-0.6-4.3-0.5
	c-3.4,0.1-6.8,0.6-10.3,0.7c-7.3,0.2-14.7,0.4-22.1,0.4c-7,0-14.1-0.3-21.1-0.2c-14.6,0.1-29.3,0.3-43.9,0.4
	c-9.5,0.1-19,0.2-28.5,0.3c-8.4,0.1-16.8,0.1-25.2,0.2c-11.9,0.1-23.8,0.2-35.8,0.3c-0.5,0-1,0.1-1.4,0.1c-4.7,0-9.4,0-14.1-0.1
	c-4.5-0.1-8.9-0.4-13.4-0.7c-3.3-0.2-6.7-0.4-10-0.8c-7.1-0.9-14.2-2-21.3-3c-1.1-0.2-1.6-0.7-1.7-1.6c-0.2-1.4-0.5-2.8-0.5-4.2
	c0-6.8-0.3-13.6-1-20.3c-0.6-5.9-1.2-11.9-1.4-17.9c-0.3-7.7-0.3-15.5-0.5-23.2c-0.1-4-0.3-8-0.5-12c-0.2-3.8-0.4-7.6-0.6-11.7
	c1.1-0.2,2.1-0.5,3.1-0.4c3.3,0.1,6.7,0.4,10,0.4c5.1,0.1,10.2,0,15.4,0c6.3,0,12.6,0.1,18.9,0.3c5.8,0.2,11.6,0.7,17.5,0.9
	c5,0.1,10.1-0.2,15.1-0.1c8.2,0.1,16.5,0.3,24.7,0.4c7,0.1,14.1,0,21.1,0c0.8,0,1.5,0,2.6-0.1c-5.3-7-10.4-13.6-15.5-20.2
	c-4.9,0.2-9.7,0.5-14.6,0.6c-11.3,0.2-22.7,0.3-34,0.5c-6.4,0.1-12.8,0.2-19.2,0.5c-10.4,0.5-20.9,1-31.3,1.7
	c-10,0.7-19.9,1.5-29.8,2.4C91.8,432.9,89.5,433.2,87.1,433.5z M244.8,480.2c3.5,3.3,10.4,5.3,16.7,2.8c3.5-1.4,6.9-2.9,10.2-4.8
	c5.7-3.3,10.4-7.8,13.2-13.8c1.3-2.7,2.3-5.6,3.2-8.5c1.9-6,2.6-12.3,2.8-18.6c0.2-5.3,0.8-10.6,0.2-16c-0.9-8.8-3.2-17.2-6.4-25.4
	c-1.9-5-3.9-10-5.4-15.1c-2.3-7.6-3.4-15.3-2.9-23.3c0.4-6.4,1.5-12.7,2.7-18.9c0.3-1.4,0.1-2.4-0.7-3.5c-4.2-6.4-8.7-12.7-11-20.1
	c-0.3-0.9-0.9-1.2-1.7-1.5c-1.7-0.5-3.4-1-5-1.5c-2.2-0.8-4.1-2-5.2-4.1c-1.4-2.7-2.9-5.4-3.8-8.2c-2.3-7.7-0.7-15.3,1.1-22.9
	c0.4-1.5,1.5-2.3,3-2.3c1.2,0,2.6,0.1,3.7,0.7c2.6,1.5,5.1,3.2,7.6,5c2.9,2.2,5.7,4.6,8.7,7.1c1.1-0.7,2.2-1.4,3.4-2.1
	c0.9-0.6,1.7-1.2,2.5-1.8c5.7-4,10.8-8.8,14.7-14.6c6.2-9.1,12.3-18.3,17.4-28.1c6.2-11.7,13-23.1,18.7-35.1
	c0.1-0.3,0.3-0.6,0.4-0.8c0.5-0.8,1-1,1.8-0.2c1.8,1.8,3.2,4,4.1,6.4c1.9,5.3,3.7,10.7,5.7,16c4.5,12.2,9.9,23.9,18,34.2
	c3.5,4.4,8.2,7.3,11.8,10.8c2-1.8,3.9-3.4,5.7-5.1c2.6-2.4,5.6-3.6,9-4c1.8-0.2,3.4,0.2,4.3,2c1.3,2.9,2,5.9,1.8,9.1
	c-0.4,6-2.2,11.5-4.7,17c-1.6,3.3-3.5,6.1-7.2,6.9c-0.7,2.4-1,4.7-1.9,6.8c-3.9,8.7-7.5,17.5-12,25.9c-5.6,10.7-12.4,20.7-20.9,29.4
	c-0.6,0.7-0.8,1.3-0.6,2.1c1.8,8.7,4.4,17.2,7.1,25.6c0.1,0.3,0.2,0.5,0.4,0.8c4.5-2.4,8.6-5,11.9-8.7c3.1-3.4,6.2-6.9,9.1-10.5
	c6.6-8.4,11.8-17.6,14.4-27.9c2.3-8.7,4.5-17.5,5.2-26.5c0.6-8.5,1.8-17,2.1-25.5c0.5-10.4,0.5-20.8-0.2-31.1
	c-0.6-8.5-1.6-16.8-3.5-25.1c-3.5-15.2-9.6-29.1-19.8-41c-3.2-3.8-6.5-7.5-11.1-9.8c-8.9-4.3-17.7-4.6-26.2,0.8
	c-3,1.9-5.7,4.1-8.5,6.3c-0.7,0.5-1.1,1.5-1.9,2.5c-0.5-0.2-1.3-0.3-2.1-0.6c-4.6-1.6-9.3-3.1-14.2-3c-7.2,0.2-14.1,1.7-20.7,4.5
	c-14.3,6.1-26.3,15.3-36.3,27.1c-13.2,15.6-24.4,32.6-34.2,50.5c-6,11-10.8,22.6-13.8,34.9c-1.8,7-2.9,14.1-3.5,21.2
	c-0.4,3.8-0.5,7.6-0.5,11.5c0,2.9,0.2,5.7,0.3,8.6c0.1,3.2,0.3,6.4,0.5,9.5c0.3,7.9,2,15.6,4,23.3c3.6,14.3,9.3,27.7,17.2,40.1
	c5,7.8,10.6,15.2,16.5,22.3c4.2,5.1,8.1,10.3,11.4,16c3,5.1,4.8,10.7,4.4,16.7c-0.4,5.5-3.3,7.1-8,6.4
	C246.8,480.7,246.1,480.5,244.8,480.2z M112.6,450.1c0.3,4.3,0.7,8.4,1,12.5c0.4,5.2,1,10.3,1.2,15.5c0.3,8,0.3,15.9,1.1,23.9
	c0.9,8.1,1.8,16.2,1.8,24.3c0,2.4,0,4.8,0,7.3c1.5,0.1,2.6,0.3,3.8,0.4c2.2,0.1,4.3,0.2,6.5,0.4c4.7,0.4,9.4,1,14,1.3
	c5.3,0.3,10.7,0.4,16,0.5c7.4,0.1,14.9,0.1,22.3,0c7.3,0,14.5-0.2,21.8-0.3c5.2-0.1,10.4-0.1,15.6-0.2c9.8-0.2,19.7-0.3,29.5-0.5
	c12.9-0.2,25.7-0.3,38.6-0.5c8.1-0.1,16.2-0.2,24.2-0.3c6.7,0,13.4,0.2,20.1,0.2c8.7,0,17.4-0.1,26.1-0.3c2.3,0,4.6-0.3,6.9-0.5
	c0.9-0.1,1.8-0.2,2.6,0c1.3,0.3,2.5,0.2,3.7-0.4c0.2-1.7,0.5-3.4,0.6-5c0.4-6.3,0.7-12.6,1-18.9c0.4-8.8,0-17.6-0.7-26.3
	c-0.8-9.6-1.4-19.2-2.2-28.8c-0.2-2.2-0.1-4.6-1.2-6.6c-12.3,0.2-24.4,0.6-36.6,0.6c-12.1,0-24.2-0.6-36.4-0.3
	c-1,6.1-2.8,11.6-5.2,17c-1.7,3.9-4,7.5-7,10.5c-6,6.1-13.4,9.7-21.4,12.2c-3.8,1.2-7.6,1-11.3-0.2c-6.2-2-10.2-6.3-12.5-12.3
	c-0.4-1.1-0.2-1.7,1-2.2c1.6-0.6,3-0.7,4.6,0.2c1.9,1.2,3.8,2.3,5.9,3.1c2.4,0.9,3.6,0,3.6-2.7c0-3.5-0.7-6.9-2.2-10
	c-1.8-3.5-4-6.9-6.2-10.2c-2.2-3.3-2.4-3.3-6.2-3c-0.1,0-0.2,0-0.2,0c-5.9,0.3-11.8,0.7-17.7,0.8c-4.9,0.1-9.8,0-14.6,0
	c-4.6,0-9.1,0.2-13.7,0.2c-10.4-0.1-20.8,0.3-31.2-0.4c-4.6-0.3-9.2-0.4-13.9-0.5c-5.7-0.1-11.3-0.1-17-0.2c-3.4,0-6.8-0.2-10.3-0.2
	C116.7,450.1,114.8,450.1,112.6,450.1z M120.1,236.4c-7,0.8-13.7,1.5-20.5,2.2c0,0.5,0,1,0,1.5c0.6,6,0.8,11.9,0.4,17.9
	c-0.9,11.6-4.3,22.5-9.3,33c-3.6,7.6-8.1,14.7-12.7,21.7c-3.1,4.8-5.5,9.8-7.1,15.3c-3.7,12.6-5.8,25.3-5.5,38.4
	c0.2,5.9,0.7,11.7,1.1,17.6c0.2,0.1,0.4,0.2,0.6,0.3c5.2,2.5,10.8,3.4,16.4,3.9c8.2,0.7,16.3,1.7,24.6,1.6c3,0,6.1-0.1,9.1-0.3
	c3.8-0.2,7.5-0.2,11.2-0.6c6.8-0.9,13.6-2,20.3-3.1c2-0.3,3.9-0.9,5.8-1.4c0.2-0.9,0.4-1.7,0.5-2.4c0.6-3.8,1.3-7.5,1.7-11.3
	c0.5-5.5,1-11,1.1-16.5c0-4.5-0.5-9.1-0.9-13.6c-0.6-6.5-2.4-12.7-5.4-18.5c-3.8-7.5-8.1-14.7-12.8-21.6
	c-5.2-7.7-10.6-15.2-14.2-23.8c-2.3-5.5-3.9-11.2-4.3-17.1c-0.3-4.8-0.2-9.6-0.2-14.4C120.1,242.3,120.1,239.4,120.1,236.4z
	 M292,277.5c0.3,0.2,0.3,0.3,0.4,0.3c0.8,0,1.6,0,2.4,0c6.3-0.1,12.1,1.8,17.4,5.3c3.7,2.4,6.2,5.7,6.6,10.5
	c-1.2-0.1-1.8,0.7-2.4,1.5c-0.4,0.6-1.2,1.2-1.9,1.4c-3.1,0.9-6.2,1.5-9.4,0.7c-8.2-1.9-15.4-5.6-20.9-12.4c-0.6,0.5-1.3,1-1.9,1.5
	c-1.6,1.2-3.1,2.5-4.8,3.5c-2.8,1.8-3.2,1.6-5.7-0.4c-3.8-3-7.6-5.8-11.4-8.7c-1-0.7-2-1.6-3.8-1.4c-0.3,3.2-0.6,6.5-1,9.7
	c-0.6,4.8,0.5,9.3,2.6,13.6c1.2,2.3,2.9,3.9,5.5,4.6c1.8,0.5,3.5,1.1,5.2,1.8c1.6,0.7,1.9,1.4,1.3,3c-0.3,0.8-0.3,1.5,0.1,2.2
	c0.8,1.5,1.5,3.2,2.4,4.7c4.9,7.7,10,15.3,16.5,22c8,8.3,16.4,16.1,25.7,22.9c2.6,1.9,5.5,3.2,8.6,4c1.3,0.3,2.6,0.8,4.5,1.3
	c1.8-0.9,4.2-2,6.5-3.3c5.6-3.3,10.1-7.8,14.4-12.6c7.9-8.6,14.1-18.4,19.3-28.8c2.9-5.7,5.2-11.7,7.7-17.5c1.5-3.4,2.7-6.9,3-10.5
	c0.1-2,1-2.8,2.8-3.2c2.2-0.4,3.7-1.8,4.7-3.7c2.8-5.3,4.4-10.9,4.4-17c0-1.6-0.5-3.2-0.7-5c-3.2,0-5.6,1.1-7.7,2.9
	c-2.1,1.7-4.1,3.6-6.1,5.4c-1.4,1.3-1.7,1.4-3.3,0.2c-1.3-1-2.6-2.2-3.9-3.2c-3.9-3-7.7-6.3-10.6-10.3c-0.8-1.1-1.8-2.1-2.9-3.3
	c-5.1,2.4-10.1,4.8-15.2,7.1c-0.1-1.4,0.4-2.7,1.2-3.8c2.9-3.9,6.5-6.7,11.6-7.7c-0.3-0.7-0.5-1.1-0.8-1.5
	c-7.5-13-12.5-27-16.3-41.5c-0.4-1.6-0.9-3.2-1.9-4.5c-8.7,17.8-18.1,35.1-28.3,52.2c8.1,0.9,14.2,7.9,14.6,13.6
	c-2.7-1.8-5.3-3.3-7.6-5.3c-2.8-2.4-5.8-4.1-9.5-5C299.9,267.9,296.7,273.2,292,277.5z M202.4,382c-0.1-0.7-0.2-1.3-0.4-2
	c-0.7-2.9-1.5-5.7-2.1-8.6c-1.5-7.3-2.2-14.7-2.3-22.1c-0.2-8.1-0.5-16.3,0.3-24.4c0.7-7.2,1.8-14.2,3.6-21.2c0.6-2.3,0.4-4.2-1-6
	c-3-4-5.8-8.2-9.2-12c-4.4-5-8.8-9.9-12.4-15.5c-5.1-7.8-8.7-16.2-9.2-25.6c-0.4-7.5-0.4-15-0.5-22.5c0-0.4,0-0.9,0-1.4
	c-5.8,0.7-11.5,2-17.3,1.5c-0.2,0.7-0.4,1.3-0.4,1.9c-0.2,7.2-1.4,14.3-2.5,21.3c-1.4,8.7-4.4,16.8-8.5,24.5
	c-2.3,4.4-4.7,8.7-6,13.6c-0.5,1.6-0.1,2.8,0.8,4.2c4.6,6.7,9.1,13.5,13.5,20.3c3.3,5.1,6.2,10.5,8.7,16c3.1,6.9,4,14.3,4.4,21.7
	c0.4,8.5,0.2,16.9-1,25.3c-0.5,3.4-0.9,6.8-1.4,10.1C168.2,384.6,193.3,385.1,202.4,382z M35.6,373.6c0.7,0.7,1.3,1.2,1.9,1.8
	c5.5,4.7,11.2,9.2,16.2,14.6c9,9.7,17.3,19.8,24.8,30.7c1.6,2.3,3.7,4.4,5.5,6.7c0.7,0.9,1.5,1.2,2.7,1.1c2.5-0.3,5.1-0.4,7.6-0.6
	c7.6-0.6,15.3-1.2,22.9-1.8c5.4-0.4,10.8-0.7,16.2-1c6.2-0.3,12.4-0.8,18.6-0.9c16.4,0,32.8,0.1,49.2,0.2c6.2,0,12.3,0.3,18.4,0.5
	c0.5,0,1.1-0.1,1.5-0.1c-3.4-6.3-7-12.3-10-18.6c-3-6.3-5.3-13-7.8-19.2c-15.1,3.8-30,2-44.6-2.6c-0.5,1.6-1,3.3-1.5,5
	c-0.7,0.1-1.2,0.1-1.6,0.3c-5.2,2.1-10.7,2.7-16.1,3.7c-6.5,1.2-13.1,1.8-19.7,2c-7.9,0.3-15.8,0.5-23.7-0.3
	c-4.7-0.5-9.3-1.2-14-1.8c-5.6-0.8-11-2.2-15.6-5.6c-0.3-0.2-0.6-0.5-0.8-0.5c-1.5,0.2-2-0.9-2.3-1.9c-0.6-1.5-1.2-3-1.4-4.5
	c-0.5-3.2-0.8-6.5-1.1-9.5C52.5,372,44.2,372.8,35.6,373.6z M149.6,191.1c-1.7-0.9-3.2-0.8-4.7-0.4c-5.2,1.4-9.9,3.6-13.4,7.8
	c-0.6,0.7-1.2,2-2.5,1.5c-1.4-0.5-2.1-1.7-2.2-3.2c-0.1-0.8,0-1.6,0-2.4c0-1.3,0.2-2.6,0.1-3.8c-0.2-2.9-0.4-5.9-0.6-8.8
	c-0.1-2,0.5-2.6,2.5-2.6c1,0,2.1,0.2,3.1,0.3c2.2,0.2,4.5,0.2,6.6-0.6c3.4-1.2,6.7-2.7,9.3-5.2c2.8-2.7,5.4-5.5,6.1-9.5
	c0.4-2.2,0.1-4.3-1.6-5.7c-1.5-1.3-3.6-1-5.5-0.2c-0.4,0.2-0.7,0.3-1.1,0.5c-1.7,1-3.4,1.8-4.9,3c-3.4,2.6-6.7,5.4-10,8.1
	c-1.5,1.2-2.1,1.2-3.3-0.2c-1.1-1.3-1.1-2.8-1-4.3c0.1-4.1,0.3-8.3,0.4-12.4c0-1.8,0.2-2.2,1.9-2.8c1.5-0.5,3-1,4.5-1.7
	c5.2-2.4,9.8-5.7,14.1-9.4c2.4-2.1,4.7-4.4,6.3-7.2c0.7-1.2,1.3-2.6,1.7-3.9c0.6-2.2-0.2-3.4-2.4-3.8c-3.4-0.7-6.8-0.5-10.1,0.9
	c-5.9,2.5-10.5,6.6-13.6,12.3c-0.4,0.8-1,1.6-1.4,2.3c-2.2-1.1-2.8-1.8-2.6-3.8c0.4-3.9,0.8-7.8,1.3-11.6c0.5-3.7,1-7.3,0.6-11
	c-0.2-2.3,0.2-2.7,2.6-3.1c2.1-0.3,4.3-0.7,6.2-1.7c3.7-2,7.2-4.4,10.6-6.9c1.4-1,2.6-2.4,3.6-3.8c2.5-3.3,3.3-7,2.1-11.1
	c-0.5-1.6-1.6-2.5-3.1-3c-2.2-0.7-4.3-0.2-6.2,0.8c-3.9,2-6.9,4.9-9.1,8.6c-2.2,3.7-4.5,7.4-6.7,11c-0.1,0.2-0.4,0.3-0.7,0.5
	c-0.4-0.3-1-0.5-1.3-0.8c-1.5-1.4-1.3-3.1-1.1-4.9c0.3-3.4,0.7-6.8,0.9-10.2c0.1-2.1,0-4.2,0-6.2c0-1.4,0.6-2.4,2-2.9
	c3.2-1.2,6.1-3.2,8.7-5.5c2.4-2.1,4.7-4.3,6.9-6.6c4.3-4.6,6.9-10.1,8.6-16.1c1.1-3.9-0.6-5.4-4.6-4.3c-0.7,0.2-1.4,0.4-2,0.8
	c-3,1.6-5.7,3.5-7.8,6.2c-3.4,4.3-6.1,9-8.3,14c-0.4,1-1,2-1.4,2.9c-2.4-0.8-3.3-2.1-3.1-4.2c0.6-5.9-0.1-11.7-2.6-17.1
	c-1.4-3.1-3.1-6.1-5-9c-1.6-2.3-4-3.3-6.9-2.6c-3,0.7-5.2,2.5-5.8,5.4c-1.5,7.5,0.4,14,6.2,19.3c3.6,3.3,7,6.8,10.4,10.2
	c0.5,0.4,0.8,1,1.1,1.6c0.8,1.4,0.6,3.2-0.7,4.1c-1.1,0.8-1.3,1.7-1.2,2.9c0.2,2.1,0.3,4.3,0.7,6.4c0.2,1.5,0.1,2.8-0.6,4.1
	c-1.4,0.2-2.1-0.8-2.7-1.7c-1.7-2.3-3.5-4.6-5.2-6.9c-2.2-2.9-5-4.9-8.4-6.1c-1.1-0.4-2.3-0.5-3.5-0.4c-1.7,0.1-2.7,1-2.9,2.7
	c-0.1,1.6-0.2,3.2,0.2,4.7c2.3,8.2,7.4,14.2,15.4,17.5c2,0.8,4,1.7,5.9,2.6c1.5,0.7,2.2,1.7,2,3.4c-0.4,3.4-0.3,6.8-0.2,10.2
	c0.1,4.5-0.2,9.1-0.3,13.6c0,1.3-0.2,2.7-1.1,4.1c-2.8-1.7-5.5-3.7-8.3-5c-2.9-1.4-6.1-2.2-9.2-3.4c-0.7,1.4-1.3,2.9-2.1,4.1
	c-1.2,1.6-0.8,3,0.4,4.2c1.4,1.4,2.8,2.8,4.3,4.1c0.5-0.2,0.9-0.5,1.4-0.6c4.4-1.9,7.8,0,8.5,4.8c0.2,1.3,0.3,2.7,0.5,4.2
	c1-0.2,1.9-0.3,2.8-0.5c2.1-0.4,2.6,0.1,2.3,2.3c-0.3,2.6-0.6,5.2-0.8,7.8c-0.5,5.2-1,10.5-1.5,15.7c-0.2,1.6-0.6,3.2,0.7,4.7
	c0.6,0.6,0.7,1.8,0.7,2.7c0,2.2-0.1,4.3-0.3,6.4c-0.3,2.2-1.2,4.4-1.1,6.6c0.2,5.4-0.3,10.7-0.9,16c-0.9,7.9-1.6,15.8-2.4,24
	c2-0.4,3.8-0.8,5.6-1.2c0.4-3.1,0.7-5.9,1.1-8.8c0.5-3.2,0.8-6.5,2.4-9.5c0.7-1.5,1.7-2.2,3.4-2.1c1.3,0.1,2.8,0.1,4-0.3
	c3.7-1.2,7.3-2.7,10.3-5.4C145,202.6,148,197.4,149.6,191.1z M79.6,138.7c-1.9-0.7-2-0.8-2.9-2.8c-1.3-3-2.9-5.6-5.5-7.6
	c-1.6-1.2-2.9-3-4.3-4.4c-0.9-0.9-0.9-1.9-0.3-3.1c2.7-5.1,4.2-10.7,5.5-16.3c0.9-4.2,1.6-8.5,1.2-12.8c-0.1-1.5-0.1-3.2-1.7-4
	c-1.9-0.8-3.9-0.7-5.7,0.4c-0.4,0.2-0.8,0.6-1.1,0.9c-3,2.9-4.5,6.5-4.4,10.5c0.1,4.8,0.6,9.7,0.8,14.5c0.1,1.3,0,2.5-0.3,3.8
	c-0.3,1.7-0.8,1.8-2.3,1.3c-6.2-2.2-12.4-1.6-18.5,0.7c-1.7,0.7-3.1,1.9-4.5,3.1c-1.2,1-1.4,2.3-0.7,3.7c1.5,3.2,3.8,5.3,7.3,5.9
	c4.4,0.6,8.5-0.3,12.7-1.7c1.5-0.5,3-1.1,4.6-1.2c1.5-0.1,3.3-0.2,4.4,0.5c3.9,2.7,7.7,5.5,8.5,10.7c0.3,1.8,0.3,2.1-1.6,2.1
	c-6.9,0.2-12.9,2.9-18.4,6.7c-1.4,0.9-2.5,2.5-3.4,3.9c-1.1,1.7-0.8,3.3,0.6,4.8c1.1,1.2,2.5,1.9,4.2,1.9c3.7,0.1,7.2-0.9,10.4-2.6
	c3.8-2,7.5-4.2,10.6-7.3c1.1-1,2.3-1.8,3.9-1c0.9,4.6,3.1,8.5,5.2,12.6c1.3,2.4,2.4,4.9,3.6,7.3c0.6,1.2,0.6,2.3-0.3,3.5
	c-0.8-0.1-1.5-0.2-2.3-0.2c-2.6-0.3-5.3-0.3-7.8,0.4c-5.5,1.5-9.2,5.2-12.2,9.8c-0.5,0.7-0.7,1.6-0.8,2.5c-0.5,2.7,1.7,5.3,4.4,5.4
	c2.6,0.2,4.6-1,6.5-2.5c2.5-1.8,5-3.7,7.8-5.1c2.3-1.2,5-1.7,7.7-0.9c1.7,0.5,1.7,0.6,1.8,2.3c0.1,1.6,0.2,3.2,0.6,4.7
	c0.7,2.7,1.7,5.3,2.6,8c1.2,3.4,0.5,4.4-3.1,4.3c-3.8-0.1-7.3,0.7-10.8,2c-4,1.6-7.8,3.8-10.4,7.4c-2.4,3.3-1.5,6.1,1.5,8.5
	c0.8,0.7,2,1.2,3,1.4c4,0.9,7.2-1,10-3.4c1.6-1.4,3-3.1,4.4-4.8c1.5-1.8,2.8-3.7,4.3-5.5c0.8-0.9,1.8-1.6,2.9-1
	c0.6,0.3,1,1.4,1.2,2.2c1,3.9,1.9,7.9,2.9,11.8c1,3.9,2.1,7.8,3.2,11.8c0.3,1.1,0.5,2.3,0.7,3.5c2.1-0.4,3.9-0.7,5.8-1.1
	c-0.2-1.1-0.3-1.9-0.5-2.7c-1-5-2-10-3.1-15c-0.8-3.5-0.3-6.8,1-10c1-2.4,2.2-4.8,3.2-7.2c1.7-4.1,3.3-8.1,3.9-12.5
	c0.3-2.3,0.8-4.7,0-7.4c-1,0.5-1.9,0.7-2.6,1.2c-2.8,1.8-4.6,4.4-5.7,7.5c-1.4,3.7-2.1,7.5-2.1,11.5c0,1.4-0.2,2.8-1.1,4
	c-1.7-0.4-2.2-1.6-2.5-3c-0.3-1.2-0.4-2.4-0.6-3.5c-0.8-4.6-1.3-9.3-2.4-13.9c-0.5-2.4-0.3-4.3,0.8-6.4c3.2-6.6,6.2-13.3,9.4-19.9
	c1.9-3.9,2.1-8,1.8-12.2c0-0.5-0.2-0.9-0.3-1.4c-0.2-1-0.9-1.3-1.8-1.2c-0.8,0.2-1.5,0.5-2.2,0.8c-2.1,1.2-3.4,3.1-4.6,5.1
	c-2.8,5-4.5,10.3-5,16.1c-0.1,1-0.5,2.1-0.8,3.2c-1.9-0.4-2.4-1.7-2.7-3c-1.4-5.2-4-9.7-7.2-14c-1.7-2.2-1.6-2.3-0.2-4.7
	c2.6-4.2,5.4-8.3,7.8-12.6c2-3.5,3.8-7.2,5.4-10.9c0.7-1.8,0.8-3.9,0.8-5.9c0-1.9-0.8-2.7-2.4-3.1c-4.8-1.1-10,0.5-12.4,5.3
	c-1.4,2.8-2.3,5.9-3.1,9c-0.7,3-0.9,6.1-1.3,9.1C80,137.6,79.8,138,79.6,138.7z M352.3,395.2c-4.1-10.5-5.6-21.4-6.8-32.5
	c-0.7,0.5-1.2,0.9-1.6,1.3c-4.2,3.5-8.6,6.6-13.7,8.6c-2,0.8-3.8,0.8-5.8,0.4c-4.1-0.7-7.9-2-11.2-4.5c-3.8-2.8-7.6-5.8-11.3-8.8
	c-6.8-5.7-13-12-18.8-18.8c-0.3-0.4-0.8-0.7-1.5-1.3c-0.4,4.2-0.7,8-1.1,11.8c-0.9,8.7-0.3,17.4,2.3,25.8c1.7,5.5,3.9,11,5.9,16.5
	c1.6,4.3,3.1,8.7,4.7,13.2c0.9,0.1,2,0.3,3.1,0.3c5.7,0,11.3-0.1,17-0.3c9.6-0.3,19-2.3,28.1-5.4C345.5,400,349.4,398.4,352.3,395.2
	z M356.3,393.1c-0.1,0.8-0.1,1.8-0.4,2.6c-0.4,1.1-0.8,2.3-1.6,3.1c-2.6,2.8-5.8,4.8-9.3,6.2c-9.3,3.6-19,5.6-28.9,6
	c-5.6,0.2-11.2-0.4-16.7-0.7c-1.8-0.1-3.6-0.3-5.3-0.4c0.6,4.5,1.2,8.9,1.9,13.1c0.2,0.1,0.3,0.2,0.5,0.2c7.5,0.4,15,0.9,22.5,1.3
	c2.9,0.2,5.8,0.1,8.6,0.2c7.2,0.3,14.3,0.8,21.5,0.5c9.3-0.4,18.7-0.4,28-0.5c2,0,4,0.1,6,0c3.1-0.2,6.2-0.6,9.3-1
	c1.9-0.3,3.9-0.9,5.6-1.3c-9.6-13-19.1-25.9-25.4-41C367.7,386.2,362.8,390.5,356.3,393.1z M154.2,218.1c-0.1-8.5-0.7-16.7-0.3-24.8
	c0.5-8.2,1.9-16.2,2.9-24.2c-5.9,9.5-14.4,15-26,14.8c0,2.9,0,5.8,0,9c0.7-0.5,1.1-0.7,1.4-1c3.7-2.5,7.6-4.3,12-5.2
	c2.1-0.4,4.1-0.4,6.1,0.5c1.9,0.9,2.5,1.8,2.4,3.9c0,0.5-0.1,1.1-0.3,1.7c-1.6,6.4-4.7,12-9.7,16.4c-4.5,3.9-9.7,6.2-15.5,6.8
	c-1.7,0.2-2.5,0.7-2.9,2.2c-0.8,3.2-1.7,6.3-2.4,9.5c-0.3,1.4-0.6,2.8-0.9,4.1c2.6,0.7,2.6,0.7,2.3,3.3c-0.2,1.7-0.3,3.5-0.3,5.2
	s0.2,3.3,0.3,5c0.2,4.3,0.3,8.6,0.5,12.9c0.3,8.4,3.6,15.8,7.3,23.1c0.1,0.2,0.3,0.3,0.6,0.5c1.4-5.4,3.5-10.3,6-15.1
	c4.9-9.5,7.5-19.6,8.6-30.2c0.5-5.2,1-10.3,1.5-15.5c0.2-2.3,0.8-2.9,3.1-3.1C152.1,218.1,153,218.1,154.2,218.1z M164.1,50.7
	c-2.1,4.6-3.1,9.1-3.5,13.7c-0.1,1.2,0,2.4,0.4,3.5c1.9,5.7,4,11.5,6,17.2c2.1,5.8,4.9,11.3,8.5,16.3c0.6,0.8,1.3,1.5,2.2,2.5
	c0.7-0.9,1.3-1.5,1.8-2.3c3.9-5.8,7.8-11.7,11.7-17.6c2-3,4.1-6,5.6-9.2c3.5-7.5,6.2-15.2,7.7-23.3c0.1-0.5,0.1-1.1,0.1-2
	c-2.2,2.1-4.1,4-6,6c-2.6,2.7-5.1,5.5-7.7,8.2c-1.6,1.6-2.5,1.5-3.8-0.4c-0.4-0.6-0.7-1.4-0.7-2.2c-0.2-2.1-0.1-4.2-0.5-6.2
	c-0.6-3.3-1.6-6.5-2.4-9.7c0-0.2-0.3-0.3-0.7-0.5c-0.4,1.3-0.9,2.5-1.2,3.7c-1,3.9-1.9,7.7-2.9,11.6c-0.3,1-0.7,2-1.1,3
	c-1.8-0.3-2.3-1.5-3.1-2.5c-0.7-0.9-1.2-2-2-2.7C169.8,55.3,167,53.1,164.1,50.7z M206.1,116.4c-0.2,0-0.4-0.1-0.6-0.2
	c-2.2,2.8-4.5,5.6-6.6,8.4c-0.8,1-1.3,2.4-1.6,3.7c-1.4,5.1-2.6,10.2-3.9,15.3c-1.2,4.5-1.6,9-1.1,13.5c0.1,1.2,0.4,2.4,0.9,3.4
	c0.3,0.7,1.2,1.5,1.9,1.6c1.5,0.2,3.1,0.2,4.5-0.2c5.9-1.8,11.6-4.1,16.6-7.9c6.4-4.9,12.4-10.3,18-16.1c0.4-0.4,0.8-0.9,1.4-1.7
	c-3.8,0.3-7.1,1.2-10.3,2.5c-2.2,0.9-4.5,1.6-6.8,2.3c-0.5,0.2-1.2,0.1-2.3,0.2c0.6-1,0.9-1.5,1.3-1.9c0.5-0.5,1.1-0.9,1.5-1.5
	c2.3-3.3,4.5-6.6,6.7-9.9c1-1.6,1.7-3.4,2-5.8c-2.7,1.7-5.2,3.1-7.6,4.7c-2.5,1.7-5.5,2.9-6.6,6.2c-1.3-0.3-1.9-1.2-2.3-2.2
	c-0.7-1.5-1.2-3.1-1.8-4.7C208.3,122.8,207.2,119.6,206.1,116.4z M178.4,107.4c-1.4-0.8-1.8-0.1-2,0.8c-0.5,1.8-0.9,3.7-1.4,5.6
	c-2.5,8.9-5.2,17.8-7.6,26.7c-3.4,12.7-7.4,25.3-9.1,38.4c-0.8,6-1.7,12-2,18c-0.4,6-0.2,12.1-0.2,18.2c0,1,0,2,0,3.1
	c1.5-0.2,2.8-0.4,4.1-0.5c-0.7-7.6-0.2-15,0.3-22.4c0.3-5.2,0.9-10.3,1.3-15.5c0.7-8,1.8-15.8,4.2-23.5c1.9-6.1,4.1-12.1,6.3-18.1
	c0.3-0.9,1.1-1.8,1.9-2.4c2-1.5,4.1-2.8,6.1-4.2c1.8-1.2,3.8-2.2,5.3-3.7c6.1-5.8,11.1-12.6,14.5-20.4c0.2-0.5,0.3-1.1,0.5-1.9
	c-3.6,1.8-6.9,3.5-10.3,5.2c-4,2-7.4,4.8-9.9,8.5c-1.7,2.5-3.3,5.1-5,7.6c-0.3,0.4-0.6,0.8-1,1.1c-0.2-0.1-0.5-0.2-0.7-0.2
	C174.9,120.9,177.2,114.3,178.4,107.4z M162.7,217c0.9,0.1,1.5,0,1.6-1s0.3-2.1,0.6-3c1.8-5.1,3.5-10.2,5.4-15.3
	c0.2-0.6,0.9-1.1,1.5-1.4c2.5-1.2,5-0.7,7.3,0.6c2.5,1.3,5,2.5,7.4,3.9c5.2,3.1,10.5,2.6,16,1.3c1.2-0.3,2.3-0.7,3-1.8
	c-1.9-0.7-3.8-1.3-5.5-2c-4.2-1.6-8.1-3.8-11.9-6.2c-3.4-2.2-7-2.6-10.7-0.8c-0.9,0.4-1.9,0.5-3.1,0.8c0-0.6,0-0.9,0.1-1.2
	c1.5-6.3,3.9-12.2,8-17.3c2.8-3.5,5.7-7.1,8.5-10.7c-0.1-0.2-0.3-0.5-0.5-0.8c-0.1-0.2-0.4-0.3-0.8-0.5c-3.9,5-7.9,9.8-11.6,14.9
	c-6.9,9.4-11.8,19.7-14.5,31C162.9,210.7,161.8,213.7,162.7,217z M289.1,834c2.4-14.8,3.7-29.2,4.9-43.8c-3.4,0.4-6.4,0.7-9.7,1
	c0.2,2.2,0.4,4,0.4,5.8c0.2,5.2,0.3,10.4,0.5,15.6c0.2,3.8,0.3,7.7,0.7,11.5C286.2,827.3,286.8,830.6,289.1,834z M114.1,151.2
	c-1.2,3.3-2.1,6.4-3.4,9.3c-2.9,6.4-6.1,12.6-9.1,19c-0.4,0.8-0.7,1.8-0.6,2.7c0.4,2.4,1,4.7,1.5,7.2c1.4-2.7,2.5-5.4,4.1-7.8
	c1.7-2.5,4.3-4,7.3-5.1c0.7-8.4,1.3-16.7,2-25.2C115.1,151.2,114.4,151.2,114.1,151.2z M301.3,282.2c-3-1.2-5.9-1.6-9.6-1.8
	c-2.8-0.1-4.4,1.3-6,3.4c1.5,1.1,2.7,2.3,4.2,3c5,2.7,10.3,4.6,16.1,5.2c2.8,0.3,5.5-0.3,8.2-1.5c-1.7-2.4-3.4-4.2-6-5.3
	c-0.4,0.8-0.7,1.6-1,2.3c-1.5,2.8-3.8,2.9-5.6,0.3C300.3,286.1,300.2,284.2,301.3,282.2z M94,158.2c1.4-5.9,3.4-11.2,6.7-15.7
	c-1.7-1.9-3.3-3.6-5-5.4c-2.4,3.9-4.9,7.7-7.2,11.4C90.3,151.8,92.1,154.9,94,158.2z M114,202.3c-0.2-0.1-0.4-0.1-0.5-0.2
	c-1.2,2.9-2.6,5.8-3.7,8.7c-0.5,1.5-0.6,3.1-0.5,4.7c0.1,2.1,0.5,4.3,0.9,6.4c0.3,1.8,0.6,3.5,0.9,5.3c0.1,0,0.1,0,0.2-0.1
	C112.2,218.8,113.1,210.6,114,202.3z"/>
<g id="Color">

	<path class="st1" d="M244.8,480.2c1.2,0.3,2,0.6,2.8,0.7c4.7,0.7,7.6-0.9,8-6.4c0.4-6-1.4-11.5-4.4-16.7c-3.3-5.7-7.2-11-11.4-16
		c-5.9-7.1-11.5-14.5-16.5-22.3c-7.9-12.4-13.6-25.8-17.2-40.1c-2-7.7-3.6-15.4-4-23.3c-0.1-3.2-0.3-6.4-0.5-9.5
		c-0.1-2.9-0.3-5.7-0.3-8.6c0-3.8,0.1-7.7,0.5-11.5c0.7-7.1,1.8-14.2,3.5-21.2c3.1-12.2,7.8-23.8,13.8-34.9
		c9.8-17.9,20.9-34.9,34.2-50.5c10.1-11.8,22-21,36.3-27.1c6.6-2.8,13.5-4.4,20.7-4.5c4.9-0.1,9.6,1.4,14.2,3
		c0.8,0.3,1.6,0.5,2.1,0.6c0.8-1,1.2-2,1.9-2.5c2.8-2.2,5.5-4.4,8.5-6.3c8.5-5.5,17.3-5.2,26.2-0.8c4.6,2.2,7.8,6,11.1,9.8
		c10.2,11.9,16.3,25.8,19.8,41c1.9,8.3,2.9,16.6,3.5,25.1c0.7,10.4,0.7,20.8,0.2,31.1c-0.4,8.5-1.5,17-2.1,25.5
		c-0.7,9-2.9,17.8-5.2,26.5c-2.7,10.3-7.8,19.5-14.4,27.9c-2.9,3.6-5.9,7.1-9.1,10.5c-3.3,3.7-7.4,6.2-11.9,8.7
		c-0.2-0.3-0.3-0.5-0.4-0.8c-2.7-8.4-5.2-16.9-7.1-25.6c-0.2-0.9,0-1.5,0.6-2.1c8.5-8.7,15.3-18.7,20.9-29.4
		c4.4-8.4,8.1-17.2,12-25.9c0.9-2.1,1.3-4.4,1.9-6.8c3.7-0.8,5.7-3.5,7.2-6.9c2.5-5.4,4.3-11,4.7-17c0.2-3.2-0.5-6.2-1.8-9.1
		c-0.8-1.8-2.5-2.2-4.3-2c-3.4,0.4-6.5,1.7-9,4c-1.8,1.7-3.7,3.3-5.7,5.1c-3.6-3.6-8.3-6.4-11.8-10.8c-8.1-10.3-13.5-22-18-34.2
		c-2-5.3-3.7-10.7-5.7-16c-0.9-2.4-2.2-4.6-4.1-6.4c-0.9-0.9-1.3-0.6-1.8,0.2c-0.2,0.3-0.3,0.6-0.4,0.8c-5.7,12-12.6,23.3-18.7,35.1
		c-5.1,9.8-11.2,19-17.4,28.1c-4,5.8-9,10.5-14.7,14.6c-0.8,0.6-1.7,1.3-2.5,1.8c-1.1,0.7-2.3,1.4-3.4,2.1c-3-2.5-5.8-4.9-8.7-7.1
		c-2.4-1.8-4.9-3.5-7.6-5c-1-0.6-2.4-0.7-3.7-0.7c-1.5,0-2.6,0.7-3,2.3c-1.9,7.6-3.4,15.2-1.1,22.9c0.8,2.9,2.3,5.6,3.8,8.2
		c1.1,2,3,3.3,5.2,4.1c1.7,0.6,3.3,1.1,5,1.5c0.8,0.2,1.4,0.6,1.7,1.5c2.3,7.4,6.8,13.7,11,20.1c0.8,1.2,0.9,2.2,0.7,3.5
		c-1.2,6.2-2.3,12.5-2.7,18.9c-0.5,8,0.5,15.8,2.9,23.3c1.6,5.1,3.5,10.1,5.4,15.1c3.2,8.2,5.5,16.6,6.4,25.4c0.5,5.4,0,10.7-0.2,16
		c-0.2,6.3-0.9,12.6-2.8,18.6c-0.9,2.9-1.9,5.8-3.2,8.5c-2.9,6-7.5,10.5-13.2,13.8c-3.2,1.9-6.7,3.3-10.2,4.8
		C255.3,485.5,248.4,483.5,244.8,480.2z"/>
	<path class="st1" d="M112.6,450.1c2.2,0,4,0,5.9,0c3.4,0.1,6.8,0.2,10.3,0.2c5.7,0.1,11.3,0.1,17,0.2c4.6,0.1,9.3,0.2,13.9,0.5
		c10.4,0.8,20.8,0.4,31.2,0.4c4.6,0,9.1-0.2,13.7-0.2c4.9,0,9.8,0.1,14.6,0c5.9-0.2,11.8-0.5,17.7-0.8c0.1,0,0.2,0,0.2,0
		c3.9-0.4,4.1-0.3,6.2,3c2.2,3.3,4.4,6.7,6.2,10.2c1.5,3.1,2.2,6.5,2.2,10c0,2.6-1.2,3.6-3.6,2.7c-2.1-0.8-4-2-5.9-3.1
		c-1.5-0.9-3-0.8-4.6-0.2c-1.2,0.5-1.4,1.1-1,2.2c2.3,6,6.3,10.3,12.5,12.3c3.8,1.2,7.6,1.4,11.3,0.2c8-2.5,15.4-6.1,21.4-12.2
		c3-3.1,5.3-6.6,7-10.5c2.4-5.3,4.2-10.9,5.2-17c12.1-0.3,24.2,0.3,36.4,0.3c12.1,0,24.3-0.3,36.6-0.6c1.1,2,1,4.4,1.2,6.6
		c0.8,9.6,1.3,19.2,2.2,28.8c0.8,8.8,1.1,17.5,0.7,26.3c-0.3,6.3-0.6,12.6-1,18.9c-0.1,1.7-0.4,3.3-0.6,5c-1.2,0.7-2.3,0.8-3.7,0.4
		c-0.8-0.2-1.7,0-2.6,0c-2.3,0.2-4.6,0.5-6.9,0.5c-8.7,0.1-17.4,0.3-26.1,0.3c-6.7,0-13.4-0.2-20.1-0.2c-8.1,0-16.2,0.2-24.2,0.3
		c-12.9,0.2-25.7,0.3-38.6,0.5c-9.8,0.1-19.7,0.3-29.5,0.5c-5.2,0.1-10.4,0.1-15.6,0.2c-7.3,0.1-14.5,0.2-21.8,0.3
		c-7.4,0-14.9,0.1-22.3,0c-5.3-0.1-10.7-0.2-16-0.5c-4.7-0.3-9.4-0.9-14-1.3c-2.1-0.2-4.3-0.2-6.5-0.4c-1.2-0.1-2.3-0.2-3.8-0.4
		c0-2.6,0-4.9,0-7.3c0-8.1-1-16.2-1.8-24.3c-0.8-7.9-0.8-15.9-1.1-23.9c-0.2-5.2-0.8-10.3-1.2-15.5
		C113.3,458.5,113,454.4,112.6,450.1z M230.5,499.5c0,4.2,2,7.6,5.6,9.2c3.5,1.7,6.6,0.6,9.4-1.5c3.9-3,4.7-10.9-1.3-13.8
		c-2.7-1.3-5.5-1.4-8.4-0.7C231.1,494,230.2,495.9,230.5,499.5z"/>
	<path class="st1" d="M120.1,236.4c0,3,0,5.9,0,8.9c0,4.8-0.1,9.6,0.2,14.4c0.4,5.9,2,11.6,4.3,17.1c3.6,8.7,9,16.2,14.2,23.8
		c4.7,7,9,14.2,12.8,21.6c3,5.8,4.8,12,5.4,18.5c0.4,4.5,0.9,9.1,0.9,13.6c0,5.5-0.5,11-1.1,16.5c-0.4,3.8-1.1,7.6-1.7,11.3
		c-0.1,0.8-0.3,1.5-0.5,2.4c-2,0.5-3.9,1-5.8,1.4c-6.8,1.1-13.5,2.2-20.3,3.1c-3.7,0.5-7.5,0.5-11.2,0.6c-3,0.1-6.1,0.2-9.1,0.3
		c-8.2,0.1-16.4-0.8-24.6-1.6c-5.7-0.5-11.2-1.4-16.4-3.9c-0.2-0.1-0.4-0.2-0.6-0.3c-0.4-5.9-1-11.8-1.1-17.6
		c-0.3-13.1,1.8-25.9,5.5-38.4c1.6-5.5,4-10.6,7.1-15.3c4.6-7,9.1-14.1,12.7-21.7c5-10.5,8.4-21.4,9.3-33c0.4-6,0.2-11.9-0.4-17.9
		c0-0.5,0-0.9,0-1.5C106.4,237.9,113.1,237.2,120.1,236.4z"/>

	<path class="st1" d="M202.4,382c-9,3.2-34.2,2.7-43-0.8c0.5-3.3,0.8-6.7,1.4-10.1c1.3-8.4,1.4-16.9,1-25.3
		c-0.3-7.4-1.3-14.8-4.4-21.7c-2.5-5.5-5.3-10.9-8.7-16c-4.5-6.8-9-13.6-13.5-20.3c-0.9-1.4-1.2-2.5-0.8-4.2c1.3-4.8,3.7-9.2,6-13.6
		c4.1-7.7,7.1-15.8,8.5-24.5c1.1-7.1,2.3-14.2,2.5-21.3c0-0.6,0.2-1.2,0.4-1.9c5.9,0.5,11.5-0.8,17.3-1.5c0,0.6,0,1,0,1.4
		c0.2,7.5,0.2,15,0.5,22.5c0.5,9.4,4.1,17.8,9.2,25.6c3.7,5.6,8,10.5,12.4,15.5c3.3,3.8,6.1,8,9.2,12c1.4,1.8,1.6,3.7,1,6
		c-1.9,6.9-3,14-3.6,21.2c-0.8,8.1-0.5,16.3-0.3,24.4c0.1,7.4,0.8,14.8,2.3,22.1c0.6,2.9,1.4,5.7,2.1,8.6
		C202.1,380.6,202.2,381.2,202.4,382z"/>

	<g class="st1" >
			<path  d="M356.3,393.1c6.4-2.6,11.4-6.8,16.1-11.9c6.4,15.1,15.8,28.1,25.4,41c-1.8,0.4-3.7,1-5.6,1.3
		c-3.1,0.5-6.2,0.8-9.3,1c-2,0.2-4,0-6,0c-9.3,0.2-18.7,0.1-28,0.5c-7.2,0.3-14.4-0.2-21.5-0.5c-2.9-0.1-5.8-0.1-8.6-0.2
		c-7.5-0.4-15-0.8-22.5-1.3c-0.2,0-0.3-0.1-0.5-0.2c-0.6-4.3-1.2-8.6-1.9-13.1c1.8,0.2,3.6,0.3,5.3,0.4c5.6,0.3,11.2,0.9,16.7,0.7
		c9.9-0.3,19.6-2.3,28.9-6c3.5-1.4,6.7-3.4,9.3-6.2c0.8-0.8,1.2-2,1.6-3.1C356.2,394.8,356.2,393.9,356.3,393.1z"/>
			<path d="M35.6,373.6c8.6-0.8,16.9-1.6,25.3-2.4c0.4,3.1,0.6,6.3,1.1,9.5c0.2,1.5,0.9,3,1.4,4.5c0.4,1,0.8,2.1,2.3,1.9
		c0.2,0,0.6,0.3,0.8,0.5c4.7,3.3,10,4.8,15.6,5.6c4.7,0.7,9.3,1.4,14,1.8c7.9,0.8,15.8,0.6,23.7,0.3c6.6-0.2,13.2-0.8,19.7-2
		c5.4-1,10.9-1.6,16.1-3.7c0.4-0.2,0.9-0.2,1.6-0.3c0.5-1.7,1-3.4,1.5-5c14.6,4.5,29.4,6.3,44.6,2.6c2.5,6.3,4.8,12.9,7.8,19.2
		c3,6.3,6.6,12.3,10,18.6c-0.5,0-1,0.1-1.5,0.1c-6.2-0.2-12.3-0.4-18.4-0.5c-16.4-0.1-32.8-0.3-49.2-0.2c-6.2,0-12.4,0.5-18.6,0.9
		c-5.4,0.3-10.8,0.6-16.2,1c-7.6,0.6-15.3,1.2-22.9,1.8c-2.5,0.2-5.1,0.4-7.6,0.6c-1.2,0.1-2-0.3-2.7-1.1c-1.8-2.2-3.8-4.3-5.5-6.7
		c-7.5-10.8-15.8-21-24.8-30.7c-5-5.4-10.6-9.9-16.2-14.6C36.9,374.9,36.3,374.3,35.6,373.6z"/>
	</g>

	<path class="st1" d="M149.6,191.1c-1.6,6.3-4.5,11.5-9.3,15.8c-3,2.7-6.6,4.2-10.3,5.4c-1.2,0.4-2.7,0.4-4,0.3
		c-1.7-0.1-2.6,0.6-3.4,2.1c-1.5,3-1.8,6.3-2.4,9.5c-0.5,2.8-0.7,5.7-1.1,8.8c-1.7,0.4-3.6,0.7-5.6,1.2c0.8-8.2,1.6-16.1,2.4-24
		c0.6-5.3,1.1-10.6,0.9-16c-0.1-2.2,0.8-4.4,1.1-6.6c0.2-2.1,0.3-4.3,0.3-6.4c0-0.9-0.1-2.1-0.7-2.7c-1.3-1.5-0.9-3.1-0.7-4.7
		c0.5-5.2,1-10.5,1.5-15.7c0.2-2.6,0.5-5.2,0.8-7.8c0.3-2.2-0.2-2.6-2.3-2.3c-0.9,0.2-1.8,0.3-2.8,0.5c-0.2-1.6-0.3-2.9-0.5-4.2
		c-0.7-4.8-4-6.7-8.5-4.8c-0.4,0.2-0.9,0.4-1.4,0.6c-1.5-1.4-2.9-2.7-4.3-4.1c-1.2-1.3-1.6-2.6-0.4-4.2c0.9-1.2,1.4-2.7,2.1-4.1
		c3.2,1.1,6.3,2,9.2,3.4c2.9,1.4,5.5,3.3,8.3,5c0.9-1.4,1.1-2.7,1.1-4.1c0.1-4.5,0.4-9.1,0.3-13.6c-0.1-3.4-0.2-6.8,0.2-10.2
		c0.2-1.7-0.5-2.7-2-3.4c-2-0.9-3.9-1.8-5.9-2.6c-8-3.3-13.1-9.2-15.4-17.5c-0.4-1.5-0.4-3.2-0.2-4.7c0.2-1.7,1.2-2.6,2.9-2.7
		c1.2,0,2.4,0,3.5,0.4c3.3,1.3,6.2,3.2,8.4,6.1c1.7,2.3,3.4,4.6,5.2,6.9c0.7,0.9,1.3,1.9,2.7,1.7c0.7-1.3,0.8-2.7,0.6-4.1
		c-0.3-2.1-0.5-4.3-0.7-6.4c-0.1-1.2,0.2-2.1,1.2-2.9c1.3-0.9,1.4-2.7,0.7-4.1c-0.3-0.6-0.7-1.1-1.1-1.6c-3.5-3.4-6.8-6.9-10.4-10.2
		c-5.8-5.3-7.7-11.8-6.2-19.3c0.6-3,2.8-4.7,5.8-5.4c2.9-0.7,5.4,0.3,6.9,2.6c1.9,2.8,3.6,5.8,5,9c2.5,5.4,3.2,11.2,2.6,17.1
		c-0.2,2.1,0.7,3.4,3.1,4.2c0.5-1,1-1.9,1.4-2.9c2.2-5,4.9-9.7,8.3-14c2.1-2.7,4.9-4.6,7.8-6.2c0.6-0.3,1.3-0.5,2-0.8
		c4-1.2,5.7,0.3,4.6,4.3c-1.7,6-4.3,11.5-8.6,16.1c-2.2,2.3-4.5,4.5-6.9,6.6c-2.6,2.3-5.4,4.2-8.7,5.5c-1.4,0.5-2,1.5-2,2.9
		c0,2.1,0.2,4.2,0,6.2c-0.2,3.4-0.6,6.8-0.9,10.2c-0.2,1.8-0.4,3.5,1.1,4.9c0.4,0.3,0.9,0.6,1.3,0.8c0.3-0.2,0.6-0.3,0.7-0.5
		c2.3-3.7,4.5-7.3,6.7-11s5.2-6.6,9.1-8.6c2-1,4-1.6,6.2-0.8c1.6,0.5,2.7,1.4,3.1,3c1.2,4,0.4,7.8-2.1,11.1c-1,1.4-2.2,2.8-3.6,3.8
		c-3.4,2.4-7,4.8-10.6,6.9c-1.8,1-4.1,1.3-6.2,1.7c-2.4,0.4-2.9,0.8-2.6,3.1c0.4,3.7-0.1,7.3-0.6,11c-0.5,3.9-1,7.8-1.3,11.6
		c-0.2,2,0.3,2.7,2.6,3.8c0.5-0.8,1-1.5,1.4-2.3c3.1-5.7,7.7-9.7,13.6-12.3c3.3-1.4,6.6-1.6,10.1-0.9c2.2,0.4,3,1.7,2.4,3.8
		c-0.4,1.4-1,2.7-1.7,3.9c-1.6,2.8-3.8,5.1-6.3,7.2c-4.3,3.7-9,6.9-14.1,9.4c-1.4,0.7-3,1.1-4.5,1.7c-1.7,0.6-1.9,1-1.9,2.8
		c-0.1,4.2-0.3,8.3-0.4,12.4c0,1.5-0.1,3,1,4.3c1.2,1.4,1.8,1.5,3.3,0.2c3.3-2.7,6.6-5.5,10-8.1c1.5-1.2,3.3-2,4.9-3
		c0.3-0.2,0.7-0.3,1.1-0.5c1.9-0.8,3.9-1.1,5.5,0.2c1.7,1.4,1.9,3.5,1.6,5.7c-0.7,4-3.3,6.8-6.1,9.5c-2.7,2.5-5.9,4-9.3,5.2
		c-2.2,0.8-4.4,0.8-6.6,0.6c-1-0.1-2.1-0.3-3.1-0.3c-1.9,0-2.6,0.6-2.5,2.6c0.2,2.9,0.5,5.9,0.6,8.8c0.1,1.3-0.1,2.5-0.1,3.8
		c0,0.8-0.1,1.6,0,2.4c0.1,1.5,0.8,2.6,2.2,3.2c1.3,0.5,1.8-0.8,2.5-1.5c3.6-4.2,8.2-6.5,13.4-7.8
		C146.4,190.3,147.9,190.2,149.6,191.1z"/>
	<path class="st1" d="M79.6,138.7c0.2-0.6,0.4-1,0.5-1.5c0.4-3,0.6-6.2,1.3-9.1c0.7-3.1,1.7-6.2,3.1-9c2.4-4.8,7.6-6.5,12.4-5.3
		c1.7,0.4,2.5,1.2,2.4,3.1c0,2-0.1,4.1-0.8,5.9c-1.5,3.8-3.4,7.4-5.4,10.9c-2.5,4.3-5.2,8.4-7.8,12.6c-1.5,2.3-1.5,2.4,0.2,4.7
		c3.2,4.3,5.8,8.8,7.2,14c0.3,1.3,0.8,2.6,2.7,3c0.3-1.1,0.7-2.1,0.8-3.2c0.5-5.7,2.2-11.1,5-16.1c1.1-2,2.5-3.9,4.6-5.1
		c0.7-0.4,1.4-0.7,2.2-0.8c0.9-0.2,1.6,0.2,1.8,1.2c0.1,0.5,0.3,0.9,0.3,1.4c0.3,4.2,0,8.3-1.8,12.2c-3.2,6.6-6.2,13.3-9.4,19.9
		c-1,2.1-1.3,4-0.8,6.4c1.1,4.6,1.6,9.2,2.4,13.9c0.2,1.2,0.3,2.4,0.6,3.5c0.3,1.3,0.9,2.6,2.5,3c0.9-1.2,1.1-2.6,1.1-4
		c0-4,0.7-7.8,2.1-11.5c1.1-3.1,3-5.7,5.7-7.5c0.8-0.5,1.7-0.8,2.6-1.2c0.8,2.7,0.3,5,0,7.4c-0.5,4.4-2.2,8.5-3.9,12.5
		c-1,2.4-2.1,4.8-3.2,7.2c-1.4,3.2-1.8,6.5-1,10c1.1,5,2.1,10,3.1,15c0.2,0.8,0.3,1.6,0.5,2.7c-1.9,0.3-3.8,0.7-5.8,1.1
		c-0.2-1.3-0.4-2.4-0.7-3.5c-1-3.9-2.1-7.8-3.2-11.8s-1.9-7.9-2.9-11.8c-0.2-0.8-0.6-1.8-1.2-2.2c-1.1-0.6-2.2,0.1-2.9,1
		c-1.5,1.8-2.8,3.7-4.3,5.5c-1.4,1.7-2.7,3.4-4.4,4.8c-2.9,2.4-6.1,4.2-10,3.4c-1.1-0.2-2.2-0.7-3-1.4c-3-2.5-3.9-5.2-1.5-8.5
		c2.6-3.7,6.3-5.8,10.4-7.4c3.4-1.4,7-2.1,10.8-2c3.6,0.1,4.3-1,3.1-4.3c-0.9-2.6-1.9-5.3-2.6-8c-0.4-1.5-0.5-3.1-0.6-4.7
		c-0.1-1.7-0.1-1.8-1.8-2.3c-2.7-0.8-5.3-0.3-7.7,0.9c-2.7,1.5-5.2,3.3-7.8,5.1c-2,1.5-3.9,2.7-6.5,2.5c-2.7-0.2-4.9-2.8-4.4-5.4
		c0.2-0.8,0.4-1.8,0.8-2.5c2.9-4.7,6.7-8.4,12.2-9.8c2.6-0.7,5.2-0.7,7.8-0.4c0.8,0.1,1.6,0.2,2.3,0.2c0.9-1.2,0.9-2.3,0.3-3.5
		c-1.2-2.4-2.3-4.9-3.6-7.3c-2.1-4-4.4-8-5.2-12.6c-1.6-0.8-2.8-0.1-3.9,1c-3.1,3.1-6.8,5.3-10.6,7.3c-3.2,1.6-6.7,2.6-10.4,2.6
		c-1.7,0-3.1-0.7-4.2-1.9c-1.4-1.5-1.7-3.1-0.6-4.8c1-1.4,2-3,3.4-3.9c5.6-3.7,11.5-6.5,18.4-6.7c1.8,0,1.9-0.3,1.6-2.1
		c-0.8-5.2-4.6-8.1-8.5-10.7c-1.1-0.7-2.9-0.7-4.4-0.5c-1.6,0.1-3.1,0.7-4.6,1.2c-4.1,1.3-8.3,2.3-12.7,1.7
		c-3.6-0.5-5.8-2.7-7.3-5.9c-0.7-1.4-0.4-2.8,0.7-3.7c1.4-1.2,2.9-2.4,4.5-3.1c6-2.4,12.2-2.9,18.5-0.7c1.5,0.5,2,0.4,2.3-1.3
		c0.2-1.2,0.3-2.5,0.3-3.8c-0.2-4.8-0.7-9.7-0.8-14.5c-0.1-4.1,1.5-7.6,4.4-10.5c0.3-0.3,0.7-0.7,1.1-0.9c1.8-1.1,3.8-1.2,5.7-0.4
		c1.6,0.7,1.6,2.5,1.7,4c0.4,4.3-0.2,8.6-1.2,12.8c-1.2,5.6-2.7,11.2-5.5,16.3c-0.6,1.1-0.6,2.1,0.3,3.1c1.4,1.5,2.7,3.2,4.3,4.4
		c2.7,2,4.3,4.7,5.5,7.6C77.6,137.8,77.7,137.9,79.6,138.7z"/>

	<g class="st1" >
			<path  d="M292,277.5c4.7-4.3,7.8-9.6,11.3-14.6c3.6,0.9,6.7,2.6,9.5,5c2.3,1.9,4.9,3.5,7.6,5.3
		c-0.5-5.7-6.5-12.7-14.6-13.6c10.2-17,19.6-34.4,28.3-52.2c1.1,1.3,1.5,2.9,1.9,4.5c3.8,14.5,8.8,28.5,16.3,41.5
		c0.2,0.4,0.4,0.8,0.8,1.5c-5.1,1-8.7,3.8-11.6,7.7c-0.8,1.1-1.3,2.3-1.2,3.8c5.1-2.4,10.1-4.7,15.2-7.1c1,1.2,2.1,2.2,2.9,3.3
		c2.9,4.1,6.7,7.3,10.6,10.3c1.3,1,2.5,2.2,3.9,3.2c1.6,1.2,1.8,1.1,3.3-0.2c2-1.8,3.9-3.7,6.1-5.4c2.1-1.7,4.6-2.9,7.7-2.9
		c0.3,1.7,0.7,3.3,0.7,5c0,6-1.6,11.7-4.4,17c-1,2-2.5,3.3-4.7,3.7c-1.8,0.3-2.7,1.2-2.8,3.2c-0.2,3.7-1.5,7.2-3,10.5
		c-2.6,5.8-4.8,11.8-7.7,17.5c-5.2,10.4-11.4,20.1-19.3,28.8c-4.3,4.7-8.8,9.3-14.4,12.6c-2.3,1.3-4.7,2.4-6.5,3.3
		c-1.9-0.6-3.2-1-4.5-1.3c-3.1-0.8-6-2.1-8.6-4c-9.3-6.8-17.7-14.6-25.7-22.9c-6.4-6.7-11.5-14.3-16.5-22c-0.9-1.5-1.6-3.1-2.4-4.7
		c-0.4-0.8-0.4-1.4-0.1-2.2c0.6-1.6,0.3-2.4-1.3-3c-1.7-0.7-3.4-1.3-5.2-1.8c-2.6-0.7-4.4-2.3-5.5-4.6c-2.1-4.3-3.2-8.8-2.6-13.6
		c0.4-3.2,0.7-6.5,1-9.7c1.7-0.1,2.8,0.7,3.8,1.4c3.9,2.8,7.7,5.7,11.4,8.7c2.5,2,2.9,2.2,5.7,0.4c1.7-1.1,3.2-2.3,4.8-3.5
		c0.7-0.5,1.4-1,1.9-1.5c5.6,6.8,12.7,10.5,20.9,12.4c3.2,0.7,6.4,0.2,9.4-0.7c0.7-0.2,1.4-0.8,1.9-1.4c0.6-0.9,1.2-1.6,2.4-1.5
		c-0.3-4.8-2.9-8-6.6-10.5c-5.3-3.5-11-5.4-17.4-5.3c-0.8,0-1.6,0-2.4,0C292.4,277.8,292.3,277.7,292,277.5z M339.2,301.6
		c0.1,0,0.7-0.1,1.2-0.1c3.9-0.4,7.4-1.8,10.9-3.5c7.8-3.8,12.9-9.9,15.6-18.2c0.6-1.8,0.2-2.5-1.5-3.1c-1-0.3-2.2-0.4-3.3-0.2
		c-3.1,0.7-6.3,1.3-9.2,2.4c-7.8,2.8-14,7.6-17.3,15.5c-0.4,0.9-0.7,1.8-0.8,2.7C334.3,299.8,335.9,301.6,339.2,301.6z M339.8,338.5
		c-1.8-3.5-4.1-5.6-7.2-6.9c-0.5-0.2-1.1-0.2-1.7-0.1c-1.8,0.4-3.4,0.3-5-0.6c-0.4-0.3-1.1-0.2-1.6-0.2c-4.7,0.8-8.6,3.3-12.5,5.8
		c-0.3,0.2-0.7,0.9-0.6,1.2c0.1,0.5,0.7,1.2,1,1.1c1.3-0.2,2,0.7,2.9,1.4c2.6,2.2,5.6,3.6,8.9,4.4c5.3,1.2,10.7-1.2,13.4-6.1
		C338,338.5,338.6,338.5,339.8,338.5z M303.6,311.3c0.3-4.4-2.3-6.2-5.2-7c-1.6-0.5-3.2-1-4.8-1.5c-0.4-0.1-0.8-0.1-1.2-0.1
		c-2.8,0-5.9,2.4-7,5.3c-1.1,3-0.4,6.2,2.1,8.2c2.3,1.9,5,2.8,7.8,3.4c1,0.2,2.2-0.1,3.2-0.5C301.8,318,303.9,315,303.6,311.3z
		 M372.2,307.3c0.1-4.7-2.3-7-6.7-6.7c-4.2,0.3-7.2,2.5-9,6.3c-1.6,3.2-0.8,5.9,1.5,8.3c2.1,2.2,5.6,2.7,8.4,1.3
		C370.5,314.6,371.8,311,372.2,307.3z M335.9,316.6c-2.7,0.9-4.9,0.4-7.2,0c-1.7-0.3-3.5-0.5-5.2-0.5c-0.9,0-1.8,0.3-2.7,0.5
		c0.7,2.9,2.9,4.6,6.2,4.9C330.4,321.8,334.2,319.8,335.9,316.6z"/>
			<path d="M352.3,395.2c-2.9,3.2-6.8,4.9-10.8,6.2c-9.1,3.1-18.4,5.1-28.1,5.4c-5.7,0.2-11.3,0.2-17,0.3
		c-1.1,0-2.2-0.2-3.1-0.3c-1.6-4.5-3.2-8.8-4.7-13.2c-2-5.5-4.1-10.9-5.9-16.5c-2.6-8.4-3.2-17-2.3-25.8c0.4-3.8,0.7-7.6,1.1-11.8
		c0.7,0.6,1.1,0.9,1.5,1.3c5.8,6.7,12,13,18.8,18.8c3.7,3.1,7.4,6,11.3,8.8c3.3,2.5,7.1,3.8,11.2,4.5c2.1,0.3,3.8,0.4,5.8-0.4
		c5.1-2,9.6-5.1,13.7-8.6c0.5-0.4,0.9-0.8,1.6-1.3C346.7,373.8,348.2,384.6,352.3,395.2z"/>
	</g>


	<path class="st1" d="M164.1,50.7c2.9,2.4,5.8,4.7,8.4,7c0.8,0.7,1.3,1.8,2,2.7c0.8,1,1.3,2.2,3.1,2.5c0.3-1,0.8-1.9,1.1-3
		c1-3.9,1.9-7.7,2.9-11.6c0.3-1.2,0.8-2.4,1.2-3.7c0.3,0.3,0.6,0.4,0.7,0.5c0.8,3.2,1.8,6.5,2.4,9.7c0.4,2,0.3,4.1,0.5,6.2
		c0.1,0.8,0.3,1.6,0.7,2.2c1.2,1.9,2.2,2.1,3.8,0.4c2.6-2.7,5.1-5.5,7.7-8.2c1.9-2,3.8-3.8,6-6c0,0.8,0,1.4-0.1,2
		c-1.5,8.1-4.3,15.9-7.7,23.3c-1.5,3.2-3.6,6.2-5.6,9.2c-3.8,5.9-7.8,11.7-11.7,17.6c-0.5,0.7-1,1.3-1.8,2.3c-0.9-1-1.6-1.7-2.2-2.5
		c-3.6-5-6.4-10.5-8.5-16.3c-2.1-5.7-4.1-11.4-6-17.2c-0.4-1.1-0.5-2.3-0.4-3.5C161,59.8,162,55.3,164.1,50.7z"/>
	<path class="st1" d="M206.1,116.4c1.1,3.2,2.2,6.5,3.3,9.7c0.5,1.6,1.1,3.2,1.8,4.7c0.4,0.9,0.9,1.9,2.3,2.2c1-3.3,4-4.5,6.6-6.2
		c2.4-1.6,4.8-3,7.6-4.7c-0.2,2.4-0.9,4.2-2,5.8c-2.2,3.3-4.4,6.6-6.7,9.9c-0.4,0.6-1,1-1.5,1.5c-0.4,0.4-0.7,1-1.3,1.9
		c1.1-0.1,1.7,0,2.3-0.2c2.3-0.7,4.6-1.4,6.8-2.3c3.2-1.3,6.5-2.2,10.3-2.5c-0.6,0.8-1,1.3-1.4,1.7c-5.6,5.8-11.6,11.2-18,16.1
		c-5,3.8-10.7,6.1-16.6,7.9c-1.4,0.4-3,0.4-4.5,0.2c-0.7-0.1-1.5-0.9-1.9-1.6c-0.5-1-0.8-2.2-0.9-3.4c-0.5-4.6-0.1-9.1,1.1-13.5
		c1.3-5.1,2.5-10.2,3.9-15.3c0.3-1.3,0.9-2.6,1.6-3.7c2.1-2.9,4.4-5.6,6.6-8.4C205.7,116.3,205.9,116.3,206.1,116.4z"/>
	<path class="st1" d="M178.4,107.4c-1.2,6.9-3.5,13.5-4.6,20.5c0.2,0.1,0.5,0.2,0.7,0.2c0.3-0.4,0.7-0.7,1-1.1
		c1.7-2.5,3.2-5.1,5-7.6c2.5-3.7,5.9-6.4,9.9-8.5c3.3-1.7,6.7-3.4,10.3-5.2c-0.2,0.8-0.3,1.4-0.5,1.9c-3.4,7.8-8.3,14.5-14.5,20.4
		c-1.5,1.5-3.5,2.5-5.3,3.7c-2,1.4-4.2,2.7-6.1,4.2c-0.8,0.6-1.5,1.5-1.9,2.4c-2.2,6-4.4,12-6.3,18.1c-2.4,7.6-3.5,15.5-4.2,23.5
		c-0.4,5.2-1,10.3-1.3,15.5c-0.5,7.4-1,14.8-0.3,22.4c-1.4,0.2-2.7,0.3-4.1,0.5c0-1.1,0-2.1,0-3.1c0-6.1-0.2-12.2,0.2-18.2
		s1.2-12,2-18c1.7-13.1,5.7-25.7,9.1-38.4c2.4-8.9,5.1-17.8,7.6-26.7c0.5-1.8,0.9-3.7,1.4-5.6C176.6,107.3,177,106.6,178.4,107.4z"
		/>
	<path class="st1" d="M162.7,217c-1-3.4,0.2-6.4,0.9-9.4c2.7-11.3,7.6-21.7,14.5-31c3.7-5.1,7.7-9.9,11.6-14.9
		c0.4,0.3,0.7,0.4,0.8,0.5c0.2,0.2,0.3,0.5,0.5,0.8c-2.9,3.6-5.7,7.1-8.5,10.7c-4.1,5.1-6.4,11-8,17.3c-0.1,0.3,0,0.6-0.1,1.2
		c1.1-0.3,2.2-0.4,3.1-0.8c3.8-1.7,7.3-1.3,10.7,0.8c3.8,2.4,7.7,4.6,11.9,6.2c1.8,0.7,3.6,1.3,5.5,2c-0.7,1-1.9,1.5-3,1.8
		c-5.5,1.3-10.8,1.8-16-1.3c-2.4-1.5-4.9-2.6-7.4-3.9c-2.4-1.3-4.8-1.8-7.3-0.6c-0.6,0.3-1.3,0.8-1.5,1.4
		c-1.9,5.1-3.7,10.2-5.4,15.3c-0.3,1-0.5,2-0.6,3C164.2,217.1,163.6,217.2,162.7,217z"/>


	<g class="st1" >
		<path  d="M87.1,433.5c2.4-0.2,4.7-0.5,7-0.7c9.9-0.8,19.9-1.7,29.8-2.4c10.4-0.7,20.9-1.2,31.3-1.7
		c6.4-0.3,12.8-0.4,19.2-0.5c11.3-0.2,22.7-0.3,34-0.5c4.9-0.1,9.7-0.4,14.6-0.6c5,6.6,10.1,13.2,15.5,20.2c-1.1,0-1.8,0.1-2.6,0.1
		c-7,0-14.1,0.1-21.1,0c-8.2-0.1-16.5-0.3-24.7-0.4c-5,0-10.1,0.2-15.1,0.1c-5.8-0.1-11.6-0.7-17.5-0.9c-6.3-0.2-12.6-0.2-18.9-0.3
		c-5.1,0-10.2,0.1-15.4,0c-3.3,0-6.7-0.3-10-0.4c-1,0-2,0.3-3.1,0.4c0.2,4.1,0.4,7.9,0.6,11.7c0.2,4,0.4,8,0.5,12
		c0.2,7.7,0.2,15.5,0.5,23.2c0.3,6,0.8,11.9,1.4,17.9c0.7,6.8,0.9,13.5,1,20.3c0,1.4,0.3,2.8,0.5,4.2c0.2,0.9,0.7,1.5,1.7,1.6
		c7.1,1,14.2,2.1,21.3,3c3.3,0.4,6.7,0.6,10,0.8c4.5,0.3,8.9,0.6,13.4,0.7c4.7,0.1,9.4,0.1,14.1,0.1c0.5,0,1-0.1,1.4-0.1
		c11.9-0.1,23.8-0.2,35.8-0.3c8.4-0.1,16.8-0.1,25.2-0.2c9.5-0.1,19-0.2,28.5-0.3c14.6-0.2,29.3-0.4,43.9-0.4c7,0,14.1,0.2,21.1,0.2
		c7.3,0,14.7-0.2,22.1-0.4c3.4-0.1,6.8-0.5,10.3-0.7c1.4-0.1,2.8,0.3,4.3,0.5c4.5,0.6,5.2,0.2,5.8-4.2c0.5-4.5,0.8-9,1.2-13.6
		c0.3-3.9,0.7-7.8,0.9-11.7c0.2-5.4,0.6-10.9,0.3-16.3c-0.4-7.8-1.1-15.6-1.9-23.3c-0.6-6.7-1.3-13.3-2.3-19.9
		c-0.3-2.3-1.3-4.6-2.2-6.8c-0.2-0.5-1.1-0.8-1.8-0.9c-1.6-0.1-3.2-0.1-4.8,0c-7.1,0.2-14.2,0.3-21.3,0.5
		c-8.5,0.2-16.9,0.2-25.4,0.5c-6.7,0.2-13.4,0.6-20.1,0.9c-0.5,0-0.9,0-1.6,0c0.4-6.5,0.8-12.9,1.2-19.5c1.6,0.2,3.1,0.5,4.6,0.6
		c5.2,0.5,10.3,1,15.5,1.3c6.8,0.5,13.5,1,20.3,1.2c6.6,0.2,13.3-0.1,19.9-0.2c3.2,0,6.4-0.2,9.6-0.2c4.4-0.1,8.8-0.1,13.2-0.3
		c4.7-0.2,9.4-0.5,14.1-1c1.9-0.2,3.7-1,5.5-1.5c0,2.3,0.1,4.4,0,6.5c-0.3,5.3-0.7,10.5-0.9,15.8c-0.4,7.7-0.5,15.5-1,23.2
		c-0.6,8.1-1.4,16.2-2.2,24.3c-0.5,5.3-0.9,10.6-1.5,15.9c-0.8,6.9-1.7,13.8-2.6,20.6c-0.7,5.5-1.3,10.9-1.8,16.4
		c-0.6,6.3-1.1,12.7-1.5,19.1c-0.3,5-0.4,10-0.6,15.1c-0.3,9.1-0.5,18.2-0.8,27.3c0,1.4,0,2.7,0,4.1c0,20.5-0.1,40.9,0,61.4
		c0,5,0.5,10,0.7,15.1c0.2,4.1,0.3,8.1,0.6,12.2c0.5,6.9,1.2,13.8,1.9,20.7c1.4,13.3,2.8,26.6,4.2,39.9c0.6,5.8,1,11.6,1.6,17.4
		c0.7,6.3,1.4,12.7,2.1,19c0.4,4,0.8,8.1,1.2,12.1c0.7,7,1.5,13.9,2.2,20.9c0.3,3.1,0.5,6.2,0.6,9.3c0.2,7.6,0.4,15.2,0.6,22.4
		c-1.1,1.1-1.9,1.2-2.9,0.7c-1.6-0.9-3.2-1.8-4.1-3.6c-0.9-1.6-1.7-3.2-2.6-4.9c-4.9-9.8-7.8-20.2-9.7-31c-1.9-10.7-3.8-21.3-5.6-32
		c-0.6-3.3-0.8-6.6-1.1-10c-0.1-0.6,0.3-1.3,0.5-2c0.4-1.1,1.4-2.2,0.7-3.3c-0.7-1.1-2-0.7-3.1-0.6c-7.6,0.6-15.3,1.1-22.9,1.7
		c-6.1,0.5-12.2,1.4-18.3,2c-6.5,0.7-13,1.2-19.5,1.8c-6.3,0.6-12.7,1.4-19,2c-4.8,0.5-9.7,0.9-14.5,1.3c-6.4,0.5-12.9,0.9-19.3,1.3
		c-9,0.7-18,1.4-27,2c-7.2,0.5-14.5,0.6-21.8,1c-8.4,0.5-16.9,1.2-25.3,1.8c-7.3,0.5-14.6,1.1-22,1.6c-11.3,0.7-22.6,1.6-33.8,3.1
		c-4.9,0.7-9.8,0.9-14.8,1.2c-4.4,0.3-8.8,0.5-13.1,0.8c-0.8,0.1-1.5,0.4-1.8,0.4c-0.3,2.2-0.5,3.9-0.8,5.7
		c-1.8,8.5-3.6,17-5.5,25.5c-2.5,11.2-6.7,21.8-11.4,32.2c-0.6,1.2-1.2,2.4-1.8,3.7c0,0-0.1,0-0.4,0.1c-1.3-3.2-2-6.6-2.6-10
		c-1.2-7.3-2.1-14.7-2.6-22.1c-0.4-6.3-1.2-12.5-1.7-18.8c-0.2-2.8-0.2-5.6-0.2-8.4c-0.1-7.3-0.2-14.5-0.2-21.8
		C65.7,781,59.6,775,52,771c-3.9-2.1-7.5-4.8-11.2-7.4c-1.8-1.3-3.3-3.2-5-4.8c-0.4-0.4-1-0.7-1.5-0.8c-0.2,0-0.6,0.8-0.8,1.2
		c-1.1,2.7-0.8,5.6-1,8.4c-0.8,9.9-2,19.7-4.1,29.3c-0.7,3.3-1.1,6.8-1.8,10.1c-1.3,5.8-2.7,11.7-4,17.5c0,0.1-0.2,0.2-0.7,0.5
		c-0.7-4-1.5-7.8-1.9-11.6c-0.5-5.1-0.8-10.2-1-15.2c-0.2-5.1-0.3-10.2-0.5-15.3c-0.2-5.7-0.3-11.5-0.5-17.2s-0.3-11.3-0.5-17
		c-0.1-5.8-0.3-11.7-0.3-17.5c0.1-9.7,0.3-19.5,0.5-29.2c0.1-4.8,0.3-9.6,0.5-14.3c0.3-7.1,0.6-14.2,1-21.3
		c0.4-7.9,0.9-15.8,1.4-23.6c0.5-6.9,0.9-13.8,1.5-20.7c0.7-8.1,1.5-16.2,2.2-24.3c0.4-4.7,0.7-9.4,1.1-14.1
		c0.7-7.9,1.5-15.8,2.2-23.8c0.3-3.2,0.5-6.4,0.7-9.5c0.4-6.8,0.9-13.5,1.3-20.3c0.3-4.9,0.4-9.7,0.7-14.6
		c0.3-5.6,0.6-11.1,0.8-16.7c0.2-4.5,0.4-9.1,0.6-13.6c0.2-5.2,0.5-10.5,0.8-15.8c0.1-2.1,0.1-4.2,0.2-6.2c0.3-9.2,0.7-18.3,1-27.5
		c0.3-11,0.7-22,0.9-33c0.1-7.6-0.1-15.2-0.1-22.8c0-0.8,0-1.6,0-2.7c0.5,0.3,0.8,0.5,1,0.6c11.6,10.5,21.8,22.2,31.4,34.5
		c3,3.8,5.7,7.7,8.5,11.6c2.3,3.1,4.8,6,7.9,8.3c0.9,0.7,1.1,1.4,1.1,2.4c-0.1,3.7-0.3,7.3-0.3,11c0,5.3,0,10.5,0,15.8
		c0,3.7,0.3,7.3,0.3,11c-0.1,7.5-0.4,15-0.4,22.5c0,11.3,0.4,22.7,0.4,34c0,5.4-0.5,10.8-0.7,16.2c-0.1,2.1-0.1,4.2-0.2,6.2
		c-0.2,7.1-0.3,14.2-0.5,21.3c-0.2,10.1-0.3,20.1-0.5,30.2c-0.1,8.2-0.3,16.5-0.5,24.7c-0.2,7.2-0.3,14.4-0.5,21.6
		c-0.1,4.8-0.3,9.6-0.5,14.3c-0.2,5.7-0.3,11.3-0.5,17c-0.2,7.4-0.3,14.8-0.5,22.3c-0.1,5.3-0.3,10.7-0.5,16
		c-0.2,8.5-0.4,16.9-0.5,25.4c-0.2,11.2-0.2,22.4-0.3,33.6c0,1.4,0,2.9,1.5,3.9c1-0.7,1.2-1.8,1.2-2.9c0-1.8,0-3.7,0-5.5
		c0-12.1,0.1-24.1,0.2-36.2c0.1-6.8,0.3-13.6,0.5-20.3c0.1-5.1,0.3-10.2,0.5-15.3c0.2-7.7,0.3-15.3,0.5-23c0.1-5.5,0.3-11,0.5-16.5
		c0.3-11.9,0.7-23.8,1-35.7c0.2-8.7,0.3-17.4,0.5-26.1c0.2-7.8,0.3-15.5,0.5-23.2c0.1-4.4,0.3-8.8,0.5-13.2c0.2-5.3,0.2-10.7,0.5-16
		c0.7-10.3,1-20.6,0.9-30.9c0-7.1-0.1-14.2-0.2-21.3c0-3.1-0.3-6.2-0.3-9.3c0.1-5.2,0.4-10.4,0.4-15.5c0-6.2,0-12.3-0.2-18.5
		c-0.1-5.9-0.3-11.8-0.5-17.7C87,434.5,87,434.2,87.1,433.5z M98.2,665c0.4,0.9,1,1.6,1,2.3c0,2.6-0.1,5.1-0.3,7.7
		c-0.4,7.4-0.9,14.8-1.2,22.2c-0.2,2.8-0.1,5.6-0.2,8.4c-0.7,11.1-0.1,22.2,0.3,33.3c0.3,8.1,1.4,16.2,2.2,24.3
		c0.1,1.2,0.7,2.4,1.3,3.5c0.3,0.5,1.1,1,1.7,1.1c2.8,0.3,5.7,0.6,8.6,0.5c6.2-0.1,12.4-0.6,18.7-0.7c13.2-0.2,26.4-0.3,39.6-0.5
		c7-0.1,14.1-0.5,21.1-0.4c7.2,0.1,14.4,0.5,21.5,0.7c8.5,0.3,17.1,0.6,25.6,0.7c16.2,0.1,32.3,0.1,48.5,0c7.5-0.1,15-0.6,22.5-1
		c5.7-0.3,11.5-0.6,17.2-0.9c3.8-0.2,7.7-0.3,11.5-0.6c6.6-0.4,13.2-0.9,19.8-1.3c3.7-0.3,7.5-0.6,11.2-1c3.2-0.4,6.5-1,9.7-1.5
		c1.8-0.3,3.3-3.7,2.4-5.4c-0.4-0.9-0.8-1.8-1-2.8c-0.5-2.6-0.9-5.2-1.3-7.8c-1.2-7.7-2.6-15.4-3.5-23.1c-1.2-10-1.9-20-2.8-29.9
		c-0.5-5.9-0.8-11.8-1.5-17.6c-0.4-3.6-1.3-7.2-2.1-10.8c-0.5-2.1-0.6-2.1-2.7-2.3c-2.5-0.2-4.9-0.3-7.4-0.3
		c-12.7,0.1-25.4,0.2-38.1,0.3c-3.2,0-6.4,0.1-9.6,0.2c-7.7,0.4-15.3,0.9-22.9,1.2c-8.2,0.3-16.3,0.3-24.4,0.5
		c-8.1,0.2-16.1,0.3-24.2,0.5c-8.5,0.2-17.1,0.4-25.7,0.5c-15.3,0.2-30.7,0.5-46,0.5c-21.1,0-42.2,0.5-63.3-0.7
		c-0.5,0-1.1,0.1-1.4-0.1C101,663.1,99.7,664.3,98.2,665z M103.4,612.8c0,7.3,0,14.6,0,21.8c0,2.1,0,4.2,0.4,6.2
		c0.2,1.2,0.8,2.4,1.6,3.3c0.4,0.5,1.6,0.3,2.4,0.4c0.3,0.1,0.6,0.1,1,0.1c7,0.5,14,1.1,21,1.4c3.9,0.2,7.8-0.3,11.7-0.4
		c7-0.2,14.1-0.4,21.1-0.5c10.4-0.2,20.8-0.3,31.2-0.5c5.6-0.1,11.2-0.3,16.8-0.5c10.1-0.3,20.3-0.7,30.4-0.9
		c5.5-0.2,11-0.2,16.6-0.2c14.7-0.1,29.4-0.1,44.2-0.3c9.8-0.1,19.7-0.5,29.5-0.6c8.2-0.1,16.3,0,24.5,0c3.1,0,6.2,0.1,9.3,0.2
		c0.6,0,1.3,0,1.9-0.1c1.2-0.2,2-0.9,2.3-2.1c0.2-1,0.4-2-0.8-2.7c-0.3-0.2-0.5-0.8-0.6-1.2c-0.2-1.1-0.3-2.2-0.3-3.3
		c-0.2-5.3-0.2-10.7-0.6-16c-0.2-3.7-1.1-7.4-1.3-11.1c-0.4-5.9-0.7-11.8-1-17.7c-0.2-6.2-0.3-12.4-0.5-18.7
		c-0.1-4.1-0.3-8.3-0.5-12.4c-0.1-1.7-0.4-2-2.2-2.2c-0.8-0.1-1.8-0.1-2.5-0.5c-1.3-0.8-2.8-0.8-4.2-0.7c-3.6,0.2-7.2,0.6-10.7,0.7
		c-10.8,0.4-21.6,0.7-32.3,1c-7.8,0.2-15.5,0.2-23.3,0.2c-21,0.2-42.1-0.6-63.1,0.2c-7.6,0.3-15.2,0.4-22.8,0.5
		c-23.4,0.1-46.7,0.2-70.1,0.2c-0.6,0-1.1,0-1.7,0c-6.7-0.2-13.4-0.3-20.1-0.4c-0.5,0-1.1-0.1-1.5-0.3c-1.7-1-2.9-0.6-3.3,1.4
		c-0.3,1.2-0.4,2.5-0.5,3.8c-0.2,3.3-0.5,6.7-0.7,10c-0.4,6.5-1,13.1-1.2,19.6C103.3,597.9,103.4,605.4,103.4,612.8z"/>
			<path d="M289.1,834c-2.3-3.3-2.9-6.7-3.2-10c-0.3-3.8-0.5-7.6-0.7-11.5c-0.2-5.2-0.3-10.4-0.5-15.6
		c-0.1-1.8-0.3-3.6-0.4-5.8c3.2-0.3,6.3-0.7,9.7-1C292.7,804.8,291.4,819.2,289.1,834z"/>
		<path d="M236.3,496.6c1.4,0.3,3.8,0.7,6,1.5c2.6,0.9,3,3.3,1.3,5.4c-1.8,2.2-4.3,3.1-6.5,2.3c-2.4-0.8-4.4-3.3-4.7-5.8
		C232.2,497.5,233.1,496.5,236.3,496.6z"/>
		<path  d="M239.3,597.3c-0.1,3.2-2.8,5.2-5.7,4.3c-1.5-0.4-2.7-1.3-3.6-2.7c-1-1.7-1-2.8,0.1-4.4c0.6-0.9,1.4-1.3,2.4-1
		c1.8,0.6,3.6,1.2,5.5,1.7C239.2,595.6,239.4,596.4,239.3,597.3z"/>
		<path  d="M234.2,701.7c2.5,0.2,4.7,1,6.6,2.6c1.1,0.9,1.2,1.9,0.6,3c-1.2,2.1-3,3.7-5.4,3.9c-2.3,0.2-4.3-1-5.4-3.2
		C228.8,704.7,229.5,701.7,234.2,701.7z"/>
	</g>




	<path class="st1" d="M114.1,151.2c0.3,0,0.9,0,1.9,0c-0.7,8.5-1.4,16.8-2,25.2c-3,1.1-5.6,2.6-7.3,5.1c-1.6,2.4-2.7,5.1-4.1,7.8
		c-0.5-2.4-1.2-4.8-1.5-7.2c-0.1-0.8,0.2-1.9,0.6-2.7c3-6.3,6.2-12.6,9.1-19C112.1,157.6,112.9,154.6,114.1,151.2z"/>
	<path class="st1" d="M301.3,282.2c-1.1,2.1-1.1,3.9,0.2,5.8c1.8,2.5,4.1,2.4,5.6-0.3c0.4-0.7,0.6-1.5,1-2.3c2.6,1.1,4.4,3,6,5.3
		c-2.7,1.1-5.3,1.8-8.2,1.5c-5.7-0.6-11-2.5-16.1-5.2c-1.5-0.8-2.7-2-4.2-3c1.6-2.1,3.2-3.5,6-3.4
		C295.4,280.6,298.3,280.9,301.3,282.2z"/>
	<path class="st1" d="M94,158.2c-1.9-3.3-3.7-6.4-5.6-9.7c2.3-3.7,4.8-7.5,7.2-11.4c1.7,1.8,3.3,3.5,5,5.4
		C97.5,147,95.5,152.3,94,158.2z"/>
	<path class="st1" d="M114,202.3c-0.9,8.3-1.8,16.6-2.7,24.8c-0.1,0-0.1,0-0.2,0.1c-0.3-1.8-0.6-3.5-0.9-5.3
		c-0.3-2.1-0.8-4.2-0.9-6.4c-0.1-1.6,0-3.2,0.5-4.7c1-3,2.4-5.8,3.7-8.7C113.6,202.1,113.8,202.2,114,202.3z"/>
	<path class="st1" d="M104.8,763.2c-0.3-4.6-0.7-9.3-1.1-14c-0.8-9.5-1-19-1-28.4c0.1-9.2,0.1-18.4,0.1-27.6c0-8.3,0-16.6,0-24.9
		c0-0.4,0-0.8,0-1.4c2.7,0.3,5.2,0.6,7.7,1c7.2,1.1,14.4,1.5,21.7,1.7c8.5,0.2,16.9,0.6,25.4,0.7c23.5,0.2,47,0.3,70.5,0.3
		c10.2,0,20.3-0.3,30.4-0.5c9.1-0.2,18.2-0.2,27.3-0.5c5.5-0.2,11-0.5,16.5-0.8c2.6-0.1,5.3-0.4,7.9-0.4c18.5-0.3,36.9-0.5,55.4-0.8
		c0.1,0,0.1,0.1,0.4,0.2c0.2,1.5,0.5,3.1,0.6,4.8c0.3,4.3,0.4,8.6,0.7,12.9c0.3,5.4,0.5,10.8,0.9,16.2c0.7,9.1,1.4,18.1,2.5,27.1
		c0.8,6.9,2.3,13.7,3.5,20.5c0.4,2.1,0.7,4.2,1.1,6.6c-3.8,0.7-7.5,1.4-11.3,1.6c-5.2,0.3-10.3,0.6-15.5,0.9
		c-6.4,0.3-12.9,0.7-19.3,1.1c-6.3,0.3-12.6,0.7-18.9,0.9c-7.7,0.3-15.3,0.8-23,0.9c-16.5,0.3-33.1,0.5-49.6,0.5
		c-10.5,0-21.1-0.2-31.6-0.7c-8-0.3-16-0.1-23.9,0.3c-4.5,0.2-8.9,0.3-13.4,0.5c-7.7,0.3-15.5,0.6-23.2,0.9
		c-4.2,0.2-8.5,0.2-12.7,0.5c-6.5,0.4-13.1,0.8-19.5,1.7C110.2,765.3,107.5,764.9,104.8,763.2z M246.5,705.2c0-4.2-5.2-9.6-9.2-9.6
		c-5.1,0-11.2,5.4-10.9,10.2c0.3,5.1,4.1,9.9,9.8,10C241.6,715.9,246.5,710.8,246.5,705.2z"/>
	<path class="st1" d="M359.3,559.7c0.2,10.7,0.3,21.2,0.5,31.8c0.2,8.6,0.8,17.2,2,25.7c0.5,3.8,0.6,7.6,0.9,11.4
		c0.1,1.8,0.3,3.7,0.4,5.5c0.1,0.9,0,1.9,0,2.9c-0.9,0-1.6,0.1-2.3,0.1c-12.7-0.1-25.4-0.4-38.1-0.1c-15,0.4-30,0.6-45.1,0.6
		c-8.5,0-16.9,0.1-25.4,0.3c-7.9,0.2-15.8,0.4-23.7,0.7c-8.5,0.3-17.1,0.7-25.6,0.9c-10.8,0.3-21.5,0.6-32.3,1
		c-8.5,0.3-16.9,0.5-25.4,1c-8.8,0.5-17.5,1.1-26.3,0.9c-3-0.1-5.9-0.1-8.9-0.2c-0.5,0-0.9-0.2-1.5-0.3c0.8-27.6-0.6-55.2,0.9-82.9
		c2.5,0,5-0.2,7.4,0c6.5,0.7,13,1.3,19.6,1.3c17.5,0.2,35,0.5,52.5,0.6c11.5,0.1,23,0,34.5-0.4c18.5-0.6,36.9-0.1,55.4-0.2
		c6.2-0.1,12.5,0.1,18.7,0c9.6-0.2,19.2-0.4,28.8-0.7c5.6-0.1,11.2-0.3,16.8-0.5c3.7-0.1,7.3-0.2,11-0.5
		C355.9,558.5,357.4,558.9,359.3,559.7z M236.6,588.7c-1.8,0.4-3.6,0.6-5.3,1.2c-5.1,1.9-6.9,7.2-4.2,11.9c0.4,0.6,0.7,1.3,1.2,1.8
		c5.2,5.3,12.7,5.1,15.4-2.5c0.2-0.5,0.5-1,0.6-1.6C245.7,592.9,242.6,588.8,236.6,588.7z"/>

	<path class="st1" d="M349.1,285.4c0.5,1.1,0.8,2,1.3,2.8c1.3,2.1,3.4,2.2,4.8,0.2c0.8-1.3,1.2-2.9,1.7-4.4c0.2-0.4,0.1-0.9,0.2-1.6
		c2.1-0.5,4.1-0.9,6.4-1.4c-2.9,8-15.9,15.7-24.5,15.4C339.9,290.5,344.2,287.8,349.1,285.4z"/>
	<path class="st1" d="M335.7,337.8c-2.2,0.9-4.1,1.8-6,2.5c-4.9,1.6-9.1,0.1-13.2-2.4c0-0.2,0-0.4-0.1-0.6c2.5-0.8,4.9-1.7,7.4-2.4
		c0.7-0.2,1.7,0.2,2.4,0.6c0.8,0.4,1.4,0.8,2.2,0.3c2.4-1.5,4.3-1,6.1,1.1C334.8,337.1,335.1,337.3,335.7,337.8z"/>

	<g class="st1">
			<path  d="M301.2,311c0,4.4-3.3,6.7-7.2,5.3c-1.3-0.5-2.6-0.9-3.8-1.5c-2.2-1-3.2-2.8-2.9-5c0.3-2.2,2.2-4.8,4.1-5.2
		c0.4-0.1,0.8,0,1.1,0.1c2.2,0.9,4.4,1.8,6.6,2.8C300.6,308.3,301.5,309.4,301.2,311z"/>

		<path d="M369.8,306.7c0,3.3-2,6.1-4.8,7.2c-2,0.8-4,0.3-5.5-1.3c-1.3-1.4-1.6-3-0.6-5.1c1.3-2.7,3.4-4.6,6.5-5.1
		c2.4-0.4,3.8,0.6,4.3,2.9C369.7,305.9,369.7,306.3,369.8,306.7z"/>
	</g>




</g>
</svg>
