<?xml version="1.0" encoding="utf-8"?>
<!-- Generator: Adobe Illustrator 24.1.0, SVG Export Plug-In . SVG Version: 6.00 Build 0)  -->
<svg version="1.1" class="drag" xmlns="http://www.w3.org/2000/svg" xmlns:xlink="http://www.w3.org/1999/xlink" x="0px" y="0px"
	 viewBox="0 0 595.3 610" style="enable-background:new 0 0 595.3 610;" xml:space="preserve">
<style type="text/css">

	.st1{fill:#FFFFFF;}
</style>

<path d="M195.8,344.7c0.6-2.2,1-4.9,2.9-7.1c0.4-0.4,0.6-0.9,0.8-1.5c3-5.6,6-11.2,10.3-16c4.7-5.3,10.2-9.8,16-13.8
	c5-3.4,10.4-6.2,15.8-8.9c0.8-0.4,1.8-0.8,2.7-1.1c1.3-0.4,2,0.1,1.8,1.5c-1.2,6.4-2.3,12.8-5.2,18.7c-1.9,3.9-3.7,7.8-6.8,10.9
	c-2.9,2.8-6.2,5.1-9.6,7.1c-3.7,2.2-7.5,4-11.5,5.6c-4.6,1.8-8.9,3.9-13.2,6.3c-0.3,0.1-0.6,0.4-0.9,0.5
	C197.2,348,195.8,347.2,195.8,344.7z M198.5,343.9c0.9-0.4,1.4-0.7,2-0.9c3.9-1.8,7.9-3.9,11.9-5.5c6-2.5,11.6-5.6,16.8-9.5
	c3.1-2.3,5.9-5.1,7.7-8.6c1.5-3,2.8-6,4.1-9.1s1.7-6.5,2.3-10c-10.1,5.1-19.4,11-27.6,18.6c0.6,0.1,1.2,0.2,1.7,0.4
	c0.8,0.4,1.7,0.9,2,1.6c1.1,1.9,1.3,3.9,0.6,6c-0.6,1.8-1.6,3.3-3,4.6c-1.9,1.9-4.3,2.1-6.7,2c-1.9-0.1-3.2-1.2-4.1-2.8
	c-0.1-0.1-0.2-0.1-0.5-0.1c-2.1,3.7-4.3,7.3-6.3,11C198.9,342.2,198.8,342.8,198.5,343.9z"/>
<path d="M466,35.5c-0.8,0.4-1.4,0.7-2,0.9c-2.7,0.8-5.6,1.1-8.5,1.1c-5.6,0.1-11.2,0.1-16.9,0.4c-10.3,0.5-20.6,1.2-30.9,2.7
	c-9.1,1.3-18,3.8-26.3,8c-2.7,1.4-5.6,2.7-8.4,4c-0.6,0.3-1.1,0.6-1.5,1.1c2-0.3,4.1-0.6,6.1-0.8c6.3-0.8,12.6-1.5,18.9-2.2
	c3.4-0.4,7-0.4,10.4-0.6c3.9-0.2,7.8-0.6,11.7-0.8c2.7-0.1,5.4-0.3,8.1-0.4c3.8-0.1,7.7-0.2,11.5-0.1c5.7,0.1,11.3,0.2,17,0.5
	c4.8,0.2,9.5,0.6,14.3,1c6,0.6,11.7,1.9,17.5,3.4c1.3,0.4,2.5,0.6,3.7,1c0.9,0.3,1.7,0.6,2.2,1.7c-0.3,0.3-0.6,0.7-0.8,1.1
	c-0.2,0.2-0.6,0.4-0.7,0.7c-0.4,1.5-1.7,1.7-2.9,1.9c-2.6,0.4-5.2,0.7-7.9,1c-8.2,0.9-16.2,2-24.2,3.8c-13.6,3-27.1,6.4-40.3,10.8
	c-8.9,3-17.7,6-26.4,9.8c-9.8,4.2-19.3,8.9-28.2,14.7c-6.3,4.1-12.2,8.7-17.7,13.7c-9.8,8.8-18.6,18.6-26.6,29.1
	c-7.5,9.9-12.9,20.9-15.6,33.1c-1.1,5-1.9,10-2.2,15.1c-0.4,6.1,0.1,12.2,1.1,18.2c0.1,0.9,0.4,1.8,0.6,2.9c0.4-0.2,0.6-0.3,0.8-0.5
	c11.2-9.4,24-15.9,37.8-20.5c10.4-3.4,21-6.2,31.6-9.1c10-2.7,20-5.6,29.5-9.8c5-2.2,9.8-4.7,14.3-7.9c2.2-1.6,4.7-3.1,7-4.6
	c1-0.6,2-0.7,3.1,0.2c-0.2,0.6-0.4,1.3-0.6,2c-3.8,10-9.6,18.6-16.9,26.4c-4.3,4.6-8.4,9.4-12.5,14.1c-7.1,8.2-15.1,15.2-24,21.3
	c-4.9,3.4-9.9,6.6-15.2,9.3c-0.3,0.1-0.6,0.4-1.1,0.6c1.3,1.3,2.5,2.6,3.8,3.7c1.8,1.5,3.4,3.4,5,5.2c5.8,6.9,10.5,14.4,15.5,21.8
	c3.7,5.4,7.8,10.6,11.4,16.1c4.4,6.6,8.6,13.3,12.4,20.2c3.9,7,7.4,14.3,10.8,21.5c8.1,17.2,14.4,35.1,20,53.2
	c4.1,13.4,7.2,27,10,40.6c2.8,13.1,5.1,26.4,7.1,39.7c1.2,7.9,2.2,16,3.4,24c0.6,4.5,1.2,9,2,13.5c0.4,2,1.1,3.9,1.5,5.8
	c0.3,1.3,0.5,2.7,0.6,4c0.1,1,0.1,1.9,1.1,2.4c-1,1.8-2.4,3-3.8,4.1c-5.8,5-12.2,8.9-19.2,12.1c-15.2,7-30.8,12.8-47.1,16.7
	c-11.7,2.7-23.5,5.2-35.3,7c-6.5,1-13,2-19.5,2.7c-4.8,0.6-9.6,0.8-14.4,1.3c-3.7,0.4-7.4,0.6-11,0.9c-7.6,0.6-15.2,0.8-22.9,0.6
	c-9.6-0.2-19-1-28.5-2.3c-7.2-1.1-14.4-2.5-21.6-3.7c-18.8-3.3-37-8.9-54.8-15.5c-2-0.7-3.9-1.5-5.7-2.5c-2.2-1.1-2.3-1.3-1.5-3.7
	c2.2-6.3,4.4-12.6,6.8-18.8c5.6-14.5,11.4-28.8,16.7-43.4c6.4-17.4,12.2-35.1,17.3-52.9c1.4-4.8,2.5-9.7,2.6-14.7
	c0-0.9,0.2-1.8,0.3-3c-0.7,0.5-1.2,0.7-1.6,1.1c-3.2,2.7-6.6,5.3-9.6,8.2c-7.1,6.9-13.7,14.2-19.7,22.1c-4.1,5.3-9.1,9.8-14.5,13.6
	c-3.7,2.7-7.7,5.1-11.5,7.6c-5.8,3.6-12.2,5.4-18.7,7c-2.7,0.6-5.5,1.4-8.2,1.8c-4.6,0.6-9.1,0.1-13.6-0.9c-3.2-0.8-5.8-2.7-8.2-4.8
	c-2.2-1.9-4.2-4-6.4-6c-0.8-0.8-1.2-1.6-0.9-2.7c0.4-1.3,0.7-2.7,1.1-4.1c0.4-1.2,0.8-2.3,1.2-3.5c1.8-6.7,4.6-13.1,7.1-19.6
	c2.2-5.6,4.8-11,7.1-16.6c2.5-5.9,4.8-11.9,7.1-17.8c3.1-7.9,6.7-15.5,10.3-23.3c1.8-3.9,3.7-7.9,5.3-12c1.8-4.3,2.7-8.9,2.1-13.5
	c-0.2-1.9-0.6-3.7-1.2-5.6c-0.9-3.2-2-6.4-3-9.6c-0.8-2.8-1.3-5.7-1.1-8.6c0.1-2.2,0.4-4.4,0.6-6.7c0.4-3.4,0.8-6.7,2-9.8
	c0.4-1.1,0.9-2.2,1.5-3.4c5.2-10.5,11.8-20.3,18.3-30c2-3,4.4-5.7,6.6-8.5c2.1-2.7,4.1-5.4,6.3-8.2c-2.2-2-4.4-3.7-6.3-5.6
	c-2.5-2.3-4.9-4.8-7.3-7.2c-1.3-1.3-2.7-2.6-4.1-3.9c-6.2-5.9-11.9-12.2-16.4-19.6c-5.5-9.1-9.6-18.8-11.5-29.3
	c-1-5.6-1.5-11.2-1.1-16.9c0.4-6.2,1.1-12.4,1.6-18.6c0.3-3.1,0.4-6.3,0.6-9.4c0.1-1.5,0.4-2,1.3-2.2c1.2-0.3,1.5,0.6,2,1.4
	c1.9,3.2,3.8,6.5,5.6,9.8c4.6,8.4,10.8,15.4,18.2,21.4c3.9,3.2,7.8,6.4,11.5,9.8c3.2,3,6.2,6.4,9.3,9.6c3.4,3.4,5.8,7.5,8.2,11.7
	c0.2,0.4,0.5,0.8,0.9,1.5c0.1-2,0.4-3.6,0.4-5.2c0.7-11.9,3.9-23.3,8.9-34.2c3.8-8.3,8.5-16.1,13.4-23.8c7.2-11.4,15-22.2,23.6-32.6
	c7-8.5,14.6-16.7,22.8-24.1c4.4-3.9,8.8-7.9,13.4-11.5c7.9-6.1,16.2-11.5,25.1-16c15.7-8,32.3-13.6,49.8-16.9
	c8.7-1.6,17.5-3,26.4-3.6c4.7-0.4,9.4-0.4,14.1-0.7c4.4-0.4,8.9-0.1,13.3,0.2c5.3,0.4,10.5,0.9,15.7,1.8c8.4,1.3,16.7,2.7,25,4.3
	c6.7,1.3,13.4,3,19.7,5.4C462.5,32.8,464.5,33.5,466,35.5z M455.2,506.1c-0.2-1.1-0.5-2-0.6-3.1c-0.3-2.7-0.4-5.5-0.7-8.2
	c-1.3-9.3-2.5-18.6-3.9-27.8c-1.8-11.5-3.5-23.1-5.6-34.5c-3.1-17.6-7.2-35-11.9-52.3c-4.1-15.5-10.1-30.3-15.8-45.3
	c-3.2-8.4-7.5-16.4-11.5-24.5c-5.1-10.5-11.4-20.2-18.1-29.8c-5.7-8.1-11.7-16-17.1-24.2c-4.2-6.3-8.7-12.4-14.1-17.8
	c-0.8-0.8-1.5-1.8-2.2-2.7c-0.3-0.4-0.5-0.7-0.7-1c-4.7,2.2-9.3,4.5-14,6.6c-3.7,1.7-7.5,3.2-11.4,4.6c-2.6,1-5.3,1-8,0.6
	c-0.4-0.1-1-0.4-1.2-0.7c-0.3-0.6,0.4-0.8,0.8-1.1c1.5-0.8,3-1.8,4.7-2.3c4.8-1.7,9.5-3.7,14.2-5.8c7.6-3.4,15-7.2,22.2-11.3
	c13.6-7.9,25.6-18.1,35.9-30c3.2-3.7,6.5-7.3,9.9-10.8c4-4.2,7.8-8.7,11-13.6c1.1-1.6,2-3.3,2.6-5.2c-0.8,0.4-1.5,0.9-2.2,1.5
	c-4.6,3.6-9.6,6.3-14.8,8.6c-9.7,4.3-19.8,7.2-30,10c-10.8,3-21.5,5.6-32,9.1c-12.9,4.3-25,10.3-35.7,18.8
	c-5.7,4.5-10.9,9.6-15.8,14.9c-2.3,2.5-4.8,5-6.5,8.1c-0.1,0.1-0.3,0.1-0.4,0.3c-1.6-1.2,0.1-2.4,0.1-3.7c-0.6,0.1-1.2,0.1-1.8,0.2
	c-4,0.8-8.2,1.1-12.2,1c-3.7,0-7.5-0.5-11.2-1.1c-4-0.6-8-1.8-12-2.6s-8-1.8-11.5-4.2c-0.1-0.1-0.3-0.1-0.4-0.2
	c-1.3-0.5-1.9-1.5-1.8-2.7c0-1.1,0-2.3,0-3.6c-1,0.6-1.7,1.1-2.5,1.5c-5.7,2.5-11.6,4.3-17.7,5.3c-2.4,0.4-4.9,0.1-7.4,0.1
	c-2.8-0.1-5.6-0.6-8.2-1.6c-1.1-0.4-2-0.9-2.3-2c-0.6-1.8-1.1-3.7-1.5-5.6c-0.6-3.7-1.1-7.4-1.6-11.1c-0.6-4.5-1.3-9-1.1-13.6
	c0-0.8-0.3-1.3-0.8-1.9c-0.9-1-1.8-2-2.5-3.2c-2.5-4.2-5.2-8.3-8.6-11.7c-2.8-2.8-5.5-5.8-8.4-8.5c-5.3-4.8-10.8-9.3-16.2-14
	c-3.7-3.2-7-6.9-9.6-11c-2.5-3.9-4.7-8-7.1-12c-0.4-0.6-0.6-1.1-1-1.7c-0.3,0.4-0.4,0.6-0.4,0.8c-0.1,2.4-0.2,4.8-0.5,7.2
	c-0.8,7-1.5,13.9-1.3,20.9c0.1,4.1,0.5,8.3,1.3,12.4c1.9,9.9,6,18.9,11.2,27.5c3.3,5.6,7.5,10.5,12,15.1c3,3.2,6.2,6.2,9.3,9.3
	c3.8,3.9,7.6,7.9,11.4,11.9c2.2-2,2.2-2,3.2-1.6c-1.9,1.4-3.1,3.4-4.4,5.3c-2,2.7-3.9,5.6-6,8.2c-2.5,3.2-5,6.4-7.1,9.8
	c-1.3,2.1-2.7,4.3-4.1,6.3c-4.8,7.2-9.1,14.7-13,22.4c-0.4,0.7-0.6,1.4-0.9,2.2c-1.4,4.1-1.7,8.4-2.1,12.6c-0.6,5.1,0.3,10,1.9,14.8
	c0.9,2.7,2,5.5,2.7,8.4c1.5,6,0.9,11.8-1.2,17.5c-1.3,3.7-3,7.2-4.6,10.8c-3.4,7.6-7.1,15-10.3,22.7c-5.1,12.5-10.1,25.1-15.5,37.5
	c-2,4.6-3.7,9.3-5.4,14c-0.2,0.6-0.4,1.2-0.5,1.8c0.6,0.2,1.1,0.4,1.5,0.6c2.2,0.8,4.2,1.8,6,3.2c1.5,1.3,2.8,2.7,3.4,4.7
	c0.7,2.5,0.8,5,0.4,7.5c-0.3,1.5-0.8,3-1.3,4.7c1.5,0.3,3.1,0.6,4.6,0.8c4.4,0.6,8.9,0.7,13.1-0.6c1.5-0.5,3.2-0.8,4.8-1.1
	c5.6-1.3,11-2.9,15.9-5.9c4.7-2.9,9.4-6,13.9-9.2c3.5-2.5,6.9-5.3,9.7-8.5c5-5.7,9.3-11.9,14.7-17.4c3.4-3.4,6.5-7,10-10.2
	c4.9-4.6,10.3-8.6,16.4-11.7c7.3-3.7,14.3-8.2,21-12.7c7.7-5.2,14.6-11.5,21-18.3c4-4.4,7.2-9.1,9.6-14.5c3.2-7.2,5.8-14.6,8.2-22.1
	c3-9.1,5.1-18.5,6.3-28c0.5-3.7,1.3-7.3,1.9-10.9c0.1-0.4,0.3-0.6,0.4-0.9c0.4,1.5,0.6,3,0.6,4.4c-0.1,3.1-0.1,6.2-0.6,9.2
	c-0.7,5.1-1.4,10.1-2.6,15c-2.7,11-6.3,21.7-10.8,32.2c-2.5,5.9-5.3,11.5-9.8,16.2c-1,1.1-2,2.2-3,3.2c-3.1,3-6.1,6.1-9.3,9
	c-9.6,8.4-20.6,14.6-31.6,20.8c-1.7,1-3.4,1.9-5.1,2.8c0,1.5-0.1,2.7,0,4.1c0.2,5.4-0.6,10.6-2,15.8c-5.3,20.3-11.9,40.1-19.3,59.7
	c-3.4,9.2-7.2,18.3-10.8,27.4c-2.9,7.4-5.6,15-8.4,22.6c-0.7,2-1.4,4-2.2,6.1c0.8,0.4,1.6,0.6,2.5,0.9c3.9,1.3,7.9,2.6,11.8,3.9
	c17.1,5.6,34.6,10,52.4,13.1c7.9,1.4,15.8,2.7,23.8,3.4c6.7,0.7,13.4,1.3,20.2,1.2c3.7,0,7.3,0.1,11,0c2.8-0.1,5.6-0.2,8.4-0.4
	c4.9-0.4,9.8-0.8,14.8-1.3c6.1-0.6,12.3-1.1,18.4-1.8c11-1.4,21.9-3.4,32.7-5.6c11.7-2.4,23.3-5.1,34.6-8.8
	c9.8-3.2,19.3-7.2,28.8-11.4C443.3,515,449.3,510.8,455.2,506.1z M240.7,177.2c-1.5,5.5-3,10.8-4.4,16.1
	c9.1,6.7,19.1,11.1,29.8,14.1c10.9,3,21.9,4.3,33.4,3.4c-1.7-5.5-2.2-10.9-2.6-16.3c-1.3,0-2.5,0.1-3.6,0c-2.3-0.1-4.6-0.4-6.9-0.6
	c-8.6-1-16.9-2.9-25-5.8c-7.2-2.6-14-5.8-20-10.6C241.3,177.5,241.1,177.4,240.7,177.2z M235,187.6c1.5-5.3,3.1-10.4,4.5-15.2
	c-2.3-1.5-4.5-2.7-6.4-4.2c-5.1-4.1-9.3-8.9-12.9-14.3c-3.9-5.9-7.6-11.9-11.4-17.9c-0.1,0.1-0.4,0.4-0.5,0.6
	c-2.3,4.2-4.6,8.3-6.8,12.6c-1.4,2.8-2.5,5.8-3.7,8.7c-0.3,0.7-0.3,1.2,0.4,1.8c1.1,1,1.9,2,3,3c2.7,2.7,5.6,5.2,8.4,7.9
	c4.2,4.1,8.6,7.8,13.5,11.1C226.6,184.2,230.5,186.2,235,187.6z M268.4,117.9c-0.3-0.4-0.6-0.6-0.9-1c-2.7-3-5-6.2-6.7-9.8
	c-3.8-8.2-5.8-16.9-6.9-25.9c-0.1-1.2-0.3-2.4-0.5-3.8c-0.5,0.4-0.8,0.6-1.1,0.9c-4.1,4.4-8.2,8.9-12.2,13.2
	c-0.6,0.6-0.8,1.1-0.7,1.9c0.6,6.4,1.6,12.6,3.1,18.9c2.1,8.7,5.6,16.8,11.3,23.8c0.4,0.5,0.8,1,1.3,1.5c2.2-3.5,4.2-6.9,6.4-10.1
	C263.7,124.3,266,121.2,268.4,117.9z M236.1,195c-0.8,4.3-1.5,8.5-1.8,12.7c-0.1,1,0.5,1.4,1.1,1.8c7.7,5.4,16.1,9.7,25,13
	c7.5,2.8,15.2,4.8,23.1,6.1c1.5,0.3,2.6-0.1,3.6-1.4c3.9-4.9,8.1-9.6,12.9-13.7c0.1-0.1,0.3-0.4,0.3-0.5
	C277,214,255.4,209.4,236.1,195z M300.4,168.7c-17.3-5.9-31.8-15.2-42.4-30.5c-3.7,6.3-6.9,12.6-9.8,19.1c0.8,0.6,1.5,1.3,2.2,1.9
	c6,4.8,12.6,8.4,19.5,11.5c8.4,3.7,17,6.6,26.1,8.2c0.6,0.1,1.3,0.1,1.9,0.1C298.8,175.5,299.6,172,300.4,168.7z M297.5,181.3
	c-9.5-1-18.1-4.1-26.6-7.7c-8.5-3.7-16.4-8.4-23.3-15c-2.6,5.7-4.7,11.3-6.3,17.2c0.4,0.3,0.6,0.6,0.8,0.7c2.8,1.7,5.5,3.5,8.4,5
	c9.2,4.6,19,7.3,29.1,9.1c5.6,1,11.3,1.7,17.1,1.8C297,188.7,297.2,185,297.5,181.3z M246.5,154.2c-0.5-0.4-0.9-0.6-1.3-1.1
	c-1.8-1.7-3.8-3.3-5.6-5.1c-3.4-3.7-6.1-8.1-8.4-12.5c-3.2-6.2-6-12.5-9-18.8c-0.1-0.4-0.3-0.6-0.6-1.1c-0.4,0.5-0.7,0.8-0.9,1.2
	c-3.4,5.3-6.8,10.7-10.3,16c-0.6,1-0.6,1.8,0,2.7c2.3,3.4,4.5,6.8,6.7,10.3c4.6,6.9,9.4,13.6,15.6,19c2.2,2,4.6,3.8,7.3,4.9
	C242.3,164.6,244.3,159.5,246.5,154.2z M192.1,184.6c6.3,5.4,26,15.8,40.3,16.9c0.7-3.9,1.4-7.9,2.1-11.8c-0.2-0.1-0.4-0.2-0.5-0.3
	c-4.9-1.5-9.3-4-13.6-7c-7.7-5.5-14.1-12.3-20.7-19c-0.9-0.9-1.8-1.9-2.8-3C193.8,168.4,192.6,176.4,192.1,184.6z M332.3,120.2
	c-3.8-2.6-7.1-5.6-10-9c-2-2.3-3.9-4.8-5.7-7.3c-3.8-5.1-6.2-10.8-7.4-16.9c-0.3-1.4-0.6-2.8-0.9-4.4c-6,4.1-11.5,8.6-16.7,13.6
	c1.1,3,2.4,5.7,4.1,8.2c6.3,9,13.8,16.8,23.1,22.8c1.5,1,3.1,1.8,4.7,2.6C326.6,126.5,329.4,123.4,332.3,120.2z M253.9,139.8
	c-1.3-1.8-2.6-3.5-3.9-5.1c-2.3-2.8-4-6-5.4-9.3c-3.5-8-5.3-16.5-6.2-25.2c-0.2-1.9-0.4-3.7-0.5-5.7c-1.6,1.1-13.9,17.1-15,19.6
	c1.9,3.8,3.8,7.7,5.8,11.5c2,3.9,4.1,7.9,6.3,11.7c2.7,4.6,5.8,9,9.8,12.6c0.9,0.8,1.7,1.8,2.8,2.2
	C249.8,147.9,251.8,143.9,253.9,139.8z M301.1,166.1c1.7-3.9,3.3-7.6,4.8-11.1c-16.4-6-28.9-16.7-38.4-31.1
	c-1.8,1.8-7.8,10.8-8.6,13.1c5.6,7.4,12.2,13.6,20,18.6C285.9,160,293.2,163.7,301.1,166.1z M342.3,110.6c-1.4-1.8-3-3.4-4.2-5.2
	c-1.1-1.6-2.1-3.3-3.1-5c-4.6-7.2-7.3-15-7.5-23.5c-0.1-1.8-0.2-3.5-0.4-5.5c-6.3,2.9-11.9,6.4-17.4,10.2c0.4,1.5,0.6,2.8,1,4.1
	c1.3,5.3,3.1,10.3,6.3,14.8c3.7,5.2,7.7,10.1,12.4,14.3c1.5,1.3,3,2.5,4.6,3.7C336.8,115.8,339.6,113.2,342.3,110.6z M270.8,61.9
	c-0.6,0.4-0.8,0.6-1.1,0.8c-4.1,3.7-8.2,7.3-12.4,10.8c-1.9,1.5-2.5,3.1-2.1,5.6c1.1,6.3,2.2,12.6,4.1,18.7c2,6,4.6,11.7,8.6,16.6
	c0.5,0.6,1.1,1.3,1.5,2c3.2-3.8,6.3-7.5,9.1-11C272.1,91.6,269.9,77.2,270.8,61.9z M278.4,110.3c-0.1,0-0.2,0.1-0.3,0.2
	c-3,3.7-5.9,7.3-8.9,11c-0.4,0.5-0.4,1-0.1,1.5c0.9,1.4,1.8,2.9,2.8,4.2c4.1,5.1,8.8,9.6,13.9,13.6c4.8,3.8,10,6.7,15.5,9.5
	c2,1,4,1.7,6.1,2c2.2-3.4,4.3-6.8,6.5-10.3c-3.9-1.1-7.3-3-10.5-5.3c-7.7-5.4-14.5-11.8-20.2-19.4
	C281.4,115.2,279.9,112.7,278.4,110.3z M291.1,92.8c-0.5-1.1-0.9-1.8-1.1-2.5c-1.7-4.8-2.6-9.8-2.9-15c-0.1-3.3,0.1-6.6,0.2-9.9
	c0.2-5.1,1.1-10.1,2.2-15.1c0.1-0.4,0.1-0.8,0.2-1.3c-0.3,0.1-0.5,0.1-0.6,0.1c-5.6,3.4-11,7-16.1,11c-0.6,0.5-0.7,1.1-0.8,1.8
	c-0.3,6,0,12,1,17.9c1.2,7.2,3,14.3,6,21.2c0.4,0.8,0.9,1.6,1.1,2.1C284,99.5,287.6,96.2,291.1,92.8z M329.5,31.9
	c-0.1-0.1-0.1-0.2-0.2-0.4c-5.6,2-11.3,4-16.9,6c-0.4,0.1-0.7,0.7-0.8,1.1c-2,5.3-3.4,10.7-4.3,16.2c-0.6,4.1-1.2,8.3-1.6,12.5
	c-0.3,3-0.4,6-0.5,9.1c0,1.3,0.2,2.7,0.4,4.1c6-3.7,11.7-7.4,17.5-11C320.4,56.3,323.5,43.9,329.5,31.9z M321.9,131.9
	c-1.3-0.8-2.6-1.4-3.7-2.2c-4-2.7-7.7-5.8-11.2-9.1c-4.2-4-7.8-8.5-11.2-13.2c-1.7-2.3-2.9-4.9-4.2-7.4c-0.4-0.8-0.6-1.6-1.1-2.6
	c-4,3.8-7.7,7.7-11.2,11.7c3.4,5.6,7.6,10.2,12,14.7c5,5,10.5,9.3,16.4,13c2.4,1.5,4.9,2.6,7.6,3.4
	C317.6,137.3,319.7,134.6,321.9,131.9z M303.3,82.4c-0.9-5-0.5-9.9,0.1-14.8c0.6-4.8,1.3-9.8,2.1-14.6c0.8-4.8,2.5-9.5,4.3-14.3
	c-0.9,0.4-1.4,0.6-1.9,0.8c-4.8,2.3-9.6,4.7-14.3,7c-1.2,0.6-1.7,1.5-1.9,2.7c-1.2,5.8-2,11.7-2.3,17.6c-0.3,5.3-0.1,10.6,1,15.9
	c0.6,2.8,1.2,5.7,2.4,8.4C296.3,88.1,299.7,85.3,303.3,82.4z M360.3,59.1c-5.3,1.1-10,2.6-14.8,4.3c-1.8,0.6-1.8,0.6-1.8,2.5
	c-0.1,3.5,0.1,7,0.6,10.5c0.8,6.8,2.7,13.3,6,19.3c1.1,1.9,2.1,3.8,3.4,5.4c4.4-2.8,8.6-5.6,12.9-8.4
	C360.4,82.4,359,71.1,360.3,59.1z M232,203.3c-15-1.5-27.9-7.9-40.1-16.4c-0.1,1.3-0.4,2.5-0.3,3.8c0.1,3.5,0.2,7,0.3,10.6
	c0,0.9,0.4,1.5,1.3,2c1.5,0.9,3.1,1.8,4.6,2.8c3.9,2.6,8.2,4.3,12.6,5.4c5.8,1.4,11.7,2.2,17.6,2.4c1.1,0,2.2,0.1,3.4,0.2
	C231.6,210.4,231.8,206.9,232,203.3z M338.4,62.7c-0.2-6.3,0.6-12.4,2.6-18.3c2-5.8,4.1-11.7,7.9-17c-0.6,0-0.9,0-1.2,0.1
	c-4.8,1.1-9.8,2.2-14.6,3.2c-0.8,0.1-1.1,0.6-1.4,1.3c-2.7,5.3-4.7,10.8-5.9,16.6c-1.1,5.1-1.8,10.1-1.3,15.3c0.1,1.7,0.4,3.3,0.6,5
	C329.6,66.7,333.9,64.7,338.4,62.7z M328.3,70.6c0.4,2.7,0.5,5.3,0.9,7.7c0.5,3.1,0.9,6.3,1.9,9.2c2.2,6.8,6,12.7,10.2,18.5
	c0.8,1.1,1.8,1.9,2.9,3c2.6-2.1,5.1-4.1,7.7-6.2c-8.6-11.2-10.6-24.2-9.8-38.2C337.2,66.6,332.9,68.5,328.3,70.6z M368,24.4
	c-6,9.8-10.5,20.2-10.8,32.1c2.2-0.5,4.4-0.9,6.5-1.3c0.4-0.1,0.6-0.4,1-0.6c0.7-0.5,1.4-1.1,2.2-1.5c1.8-1.1,3.7-2,5.5-3
	c0.5-0.3,0.8-0.6,0.8-1.1c0.4-1.7,0.8-3.4,1.3-5c2.2-7.2,5.5-14,10-20c0.1-0.1,0-0.2,0.1-0.5C379,23.3,373.5,23.8,368,24.4z
	 M365.8,24.7c-4.6,0.7-8.9,1.3-13.2,1.9c-1.1,0.1-1.8,0.6-2.4,1.5c-2,3.2-3.7,6.6-4.9,10.1c-2.4,6.5-4.6,13.1-5,20.1
	c-0.1,1.1-0.1,2.3,0.1,3.5c5.1-1.7,9.9-3.3,14.7-4.8c-0.1-0.7-0.3-1.3-0.3-2c-0.1-3.4,0.6-6.8,1.5-10.1c1.8-6.8,4.7-13.2,8.7-19
	C365.3,25.6,365.4,25.2,365.8,24.7z M376.5,56.4c-1.7-0.1-13,1.8-14.8,2.6c-1,11.5,1.3,22.4,6.9,32.7c2.5-1.3,4.8-2.5,7-3.7
	c-0.5-2.2-1.2-4.2-1.3-6.2c-0.3-3.1-0.4-6.3-0.2-9.4c0.1-3,0.4-5.9,0.8-8.9C375.3,61.2,376,58.8,376.5,56.4z M192.8,205
	c-0.1,0.1-0.2,0.1-0.3,0.2c0,0.4-0.1,0.8,0,1.3c0.2,2.3,0.4,4.6,0.7,7c0.4,2.7,0.8,5.6,1.1,8.3c0.1,1.1,0.7,1.6,1.8,1.8
	c4.4,1.1,8.9,0.8,13.4,0.7c0.4,0,0.9-0.1,1.3-0.3c2.9-0.8,5.8-1.5,8.7-2.5c3.5-1.1,7-2.5,10.5-3.7c1.3-0.5,1.5-0.8,1.1-2.2
	C217.1,216.4,203.9,214.8,192.8,205z M391.6,54.4c-0.6,0-1-0.1-1.4,0c-3.6,0.4-7.1,0.9-10.7,1.3c-0.8,0.1-1.2,0.6-1.5,1.4
	c-1,3.5-1.5,7.1-1.5,10.8c-0.1,3.6,0.2,7.2,0.1,10.8c0,2.8,0.8,5.4,1.5,8.2c2.6-1.2,5.1-2.3,7.7-3.5
	C385.7,73.2,388.2,63.8,391.6,54.4z M398.8,77.9c1-8.7,4.1-16.7,8.4-24.5c-1.1,0.1-1.9,0.2-2.7,0.2c-2.9,0.1-5.7,0.3-8.6,0.4
	c-1.5,0-2.2,0.7-2.7,2c-0.4,1-0.7,1.9-1,2.9c-1.4,5-2.7,10-3.2,15.2c-0.3,2.6-0.4,5.2-0.5,8.2C392.1,80.6,395.4,79.2,398.8,77.9z
	 M277.2,230.1c-15.6-3.7-30.1-9.5-43-19.2c0.1,4.5-0.9,8.9-0.6,13.1c2.5,1.3,4.9,2.3,7.5,2.8c5.6,1,11,2,16.6,2.8
	c5.3,0.8,10.7,1.2,16.1,0.7C274.8,230.2,276,230.2,277.2,230.1z M401.7,76.8c3.9-1.3,7.6-2.6,11.2-3.8c0.6-0.2,0.8-0.6,0.9-1.1
	c0.4-1.5,0.9-3.2,1.4-4.7c1.7-5.3,4.3-10,8.4-13.8c0.3-0.2,0.4-0.6,0.8-1.1c-0.6,0-1.1,0-1.4,0c-2.3,0.1-4.7,0.2-7,0.4
	c-1.5,0.1-3,0.2-4.5,0.3c-1.3,0.1-2.2,0.4-2.9,1.8c-2.7,5.4-4.6,11.2-6,17.1C402,73.3,402,74.9,401.7,76.8z M398.7,23.3
	c-3.9,0-7.5-0.1-11.2,0c-0.4,0-1.1,0.4-1.3,0.8c-1.3,1.8-2.6,3.7-3.7,5.6c-3.4,6-5.5,12.4-7.7,19c0.3-0.1,0.5-0.1,0.7-0.3
	c4.1-2,8.3-3.9,12.5-5.8c0.7-0.4,0.9-0.8,1-1.4c0.4-2.7,1.5-5.1,3-7.4C394.2,30.3,396.3,27,398.7,23.3z M416.4,71.6
	c0.4,0,0.6,0,0.7-0.1c4-1.2,8.1-2.4,12.1-3.5c0.8-0.2,1.2-0.6,1.4-1.4c0.4-1.3,0.7-2.5,1.3-3.7c1.8-3.7,4.1-7,6.9-9.9
	c0.2-0.3,0.4-0.6,0.7-1c-2.8,0-5.4,0-8,0c-3.8,0-3.8,0.1-6.4,2.7c-0.1,0.1-0.4,0.3-0.5,0.5C420.3,59.8,417.8,65.3,416.4,71.6z
	 M457.6,52.9c-0.4-0.1-0.5-0.1-0.7-0.1c-4.4-0.1-8.7-0.3-13.1-0.5c-1.3-0.1-2.2,0.5-3,1.4c-3.2,3.7-5.6,7.8-7.7,12.2
	c-0.1,0.3-0.2,0.6-0.4,1.1c0.4,0,0.5,0,0.6,0c5.4-1.3,10.9-2.7,16.3-4.1c0.6-0.1,1.1-0.5,1.3-1.1c1.1-2.2,2.6-4.3,4.3-6.2
	C456.1,54.7,456.7,53.8,457.6,52.9z M412.3,24.7c-3.9-0.4-7.5-0.8-11.1-1.1c-0.6-0.1-1,0.3-1.3,0.8c-3.8,5.3-6.9,11.2-9.6,17.2
	c0.2,0,0.4,0.1,0.6,0c3.7-1,7.4-2,11-3c0.6-0.1,0.9-0.6,1.2-1.1c2-3.7,4.4-7.2,7.1-10.4C410.8,26.4,411.4,25.7,412.3,24.7z
	 M426.8,27.1c-0.1-0.1-0.1-0.2-0.1-0.4c-3.7-0.6-7.3-1-11-1.6c-1.1-0.2-1.6,0.1-2.2,0.8c-3,3.9-6,7.7-9,11.5
	c-0.1,0.1-0.1,0.3-0.1,0.4c4.4-0.5,8.8-1.1,13.1-1.5c1.3-0.1,1.9-0.6,2.5-1.6c1.2-2.2,2.7-4.1,4.6-5.8
	C425.2,28.4,426,27.8,426.8,27.1z M110,428.9c-0.8,2.2-1.5,4.3-2.2,6.3c-0.8,2.3-0.7,2.3,1.1,3.9c2,1.8,4.1,3.7,6.2,5.5
	c0.8,0.8,1.9,1.3,3,2c1.3-3,1.5-5.8,1.2-8.7c-0.2-2.2-1.2-3.8-2.7-5.2C114.5,431,112.3,430,110,428.9z M472.9,54.1
	c-2-0.6-10-1.3-13.4-1.1c-2.2,2.9-4.4,5.8-6.7,8.9c5.8-1.1,11.4-2,16.9-3C470.8,57.4,471.8,55.7,472.9,54.1z M438.8,29.2
	c-0.4-0.1-0.6-0.3-0.8-0.4c-2.5-0.4-5-0.9-7.4-1.3c-0.4-0.1-0.9,0.1-1.2,0.4c-1.8,1.5-3.4,3-5.1,4.6c-1.1,1-1.9,2.1-3.1,3.4
	c1-0.1,1.7-0.1,2.3-0.1c2.7-0.1,5.3-0.4,8.1-0.5c1-0.1,1.8-0.4,2.4-1.3c0.8-1.2,2-2.1,3-3.2C437.5,30.3,438.2,29.8,438.8,29.2z
	 M459.8,35c0.1-0.1,0.1-0.1,0.1-0.3c-0.4-0.2-0.8-0.4-1.1-0.6c-3-0.9-6-1.8-9-2.7c-2.2-0.6-4.6-1.1-6.9-1.7
	c-0.6-0.1-1.3-0.3-1.9,0.2c-1.9,1.4-3.9,2.7-5.8,4.1c-0.4,0.2-0.6,0.6-1,0.8C442.9,35,451.4,35,459.8,35z M471.5,58.8
	c5.3-0.6,10.3-1.2,15.1-1.7c-3.4-1.1-7-1.8-10.5-2.6c-0.4-0.1-1,0-1.3,0.2C473.8,55.9,472.8,57.1,471.5,58.8z"/>
<g id="Color">
	<path class="st1" d="M455.2,506.1c-5.9,4.6-11.9,8.9-18.7,11.9c-9.4,4.2-19,8.2-28.8,11.4c-11.3,3.7-22.9,6.4-34.6,8.8
		c-10.8,2.2-21.7,4.1-32.7,5.6c-6.1,0.8-12.3,1.3-18.4,1.8c-4.9,0.5-9.8,0.9-14.8,1.3c-2.8,0.2-5.6,0.4-8.4,0.4c-3.7,0.1-7.3,0-11,0
		c-6.7,0.1-13.4-0.5-20.2-1.2c-8-0.8-15.9-2.1-23.8-3.4c-17.8-3.1-35.2-7.4-52.4-13.1c-3.9-1.3-7.9-2.6-11.8-3.9
		c-0.8-0.3-1.5-0.6-2.5-0.9c0.8-2.1,1.4-4.1,2.2-6.1c2.8-7.5,5.6-15,8.4-22.6c3.5-9.1,7.3-18.2,10.8-27.4
		c7.3-19.6,14-39.4,19.3-59.7c1.3-5.2,2.2-10.4,2-15.8c-0.1-1.3,0-2.6,0-4.1c1.6-0.9,3.4-1.8,5.1-2.8c11-6.2,22-12.4,31.6-20.8
		c3.2-2.8,6.3-6,9.3-9c1.1-1,2-2.1,3-3.2c4.4-4.7,7.2-10.3,9.8-16.2c4.4-10.5,8.1-21.2,10.8-32.2c1.2-4.9,1.9-10,2.6-15
		c0.4-3,0.5-6.1,0.6-9.2c0.1-1.4-0.2-2.9-0.6-4.4c-0.1,0.3-0.4,0.6-0.4,0.9c-0.6,3.7-1.4,7.2-1.9,10.9c-1.2,9.6-3.2,18.9-6.3,28
		c-2.5,7.4-5.1,14.9-8.2,22.1c-2.4,5.4-5.6,10.2-9.6,14.5c-6.4,6.9-13.3,13.1-21,18.3c-6.8,4.6-13.7,9-21,12.7
		c-6,3.1-11.5,7-16.4,11.7c-3.4,3.3-6.7,6.8-10,10.2c-5.3,5.4-9.7,11.7-14.7,17.4c-2.9,3.3-6.3,6-9.7,8.5c-4.5,3.2-9.2,6.3-13.9,9.2
		c-4.8,3-10.3,4.6-15.9,5.9c-1.6,0.4-3.2,0.6-4.8,1.1c-4.4,1.3-8.7,1.3-13.1,0.6c-1.5-0.2-3.1-0.5-4.6-0.8c0.5-1.7,1.1-3.2,1.3-4.7
		c0.4-2.5,0.3-5.1-0.4-7.5c-0.6-2-1.8-3.4-3.4-4.7c-1.8-1.5-3.9-2.5-6-3.2c-0.5-0.1-0.9-0.4-1.5-0.6c0.2-0.6,0.3-1.3,0.5-1.8
		c1.8-4.6,3.4-9.4,5.4-14c5.4-12.4,10.4-24.9,15.5-37.5c3.2-7.7,6.8-15.1,10.3-22.7c1.6-3.6,3.2-7.2,4.6-10.8
		c2.1-5.7,2.7-11.6,1.2-17.5c-0.7-2.8-1.8-5.6-2.7-8.4c-1.6-4.8-2.5-9.7-1.9-14.8c0.4-4.2,0.7-8.5,2.1-12.6c0.3-0.8,0.6-1.5,0.9-2.2
		c3.9-7.7,8.2-15.2,13-22.4c1.4-2.1,2.8-4.2,4.1-6.3c2.2-3.4,4.6-6.7,7.1-9.8c2.1-2.6,4-5.4,6-8.2c1.3-1.8,2.5-3.8,4.4-5.3
		c-0.9-0.5-0.9-0.5-3.2,1.6c-3.8-3.9-7.6-7.9-11.4-11.9c-3-3.2-6.2-6.2-9.3-9.3c-4.5-4.6-8.7-9.6-12-15.1
		c-5.1-8.6-9.2-17.6-11.2-27.5c-0.8-4.1-1.2-8.2-1.3-12.4c-0.1-7,0.6-14,1.3-20.9c0.3-2.4,0.4-4.8,0.5-7.2c0-0.3,0.1-0.5,0.4-0.8
		c0.4,0.6,0.6,1.1,1,1.7c2.3,4,4.6,8.1,7.1,12c2.6,4.1,5.9,7.8,9.6,11c5.3,4.7,10.9,9.2,16.2,14c3,2.7,5.6,5.6,8.4,8.5
		c3.4,3.5,6.2,7.5,8.6,11.7c0.7,1.1,1.5,2.2,2.5,3.2c0.6,0.6,0.8,1.1,0.8,1.9c-0.1,4.6,0.6,9.1,1.1,13.6c0.5,3.7,1,7.4,1.6,11.1
		c0.3,1.9,0.9,3.7,1.5,5.6c0.4,1.1,1.3,1.7,2.3,2c2.7,1.1,5.4,1.5,8.2,1.6c2.5,0.1,5,0.4,7.4-0.1c6.1-1.1,12-2.9,17.7-5.3
		c0.8-0.4,1.5-0.9,2.5-1.5c0,1.3,0,2.4,0,3.6c-0.1,1.3,0.6,2.3,1.8,2.7c0.1,0.1,0.4,0.1,0.4,0.2c3.4,2.5,7.4,3.4,11.5,4.2
		c4,0.8,7.9,2,12,2.6c3.7,0.6,7.4,1.1,11.2,1.1c4.1,0,8.2-0.2,12.2-1c0.6-0.1,1.1-0.1,1.8-0.2c0,1.3-1.7,2.5-0.1,3.7
		c0.1-0.1,0.4-0.1,0.4-0.3c1.7-3.1,4.1-5.6,6.5-8.1c4.9-5.3,10.1-10.3,15.8-14.9c10.8-8.5,22.8-14.5,35.7-18.8
		c10.5-3.5,21.4-6.2,32-9.1c10.2-2.8,20.3-5.8,30-10c5.3-2.3,10.3-5,14.8-8.6c0.7-0.6,1.4-1.1,2.2-1.5c-0.6,1.9-1.5,3.6-2.6,5.2
		c-3.2,4.9-7,9.3-11,13.6c-3.4,3.5-6.7,7.1-9.9,10.8c-10.3,11.9-22.3,22-35.9,30c-7.2,4.2-14.6,7.9-22.2,11.3
		c-4.6,2.1-9.3,4.1-14.2,5.8c-1.6,0.6-3.2,1.5-4.7,2.3c-0.4,0.2-1.1,0.5-0.8,1.1c0.2,0.4,0.8,0.6,1.2,0.7c2.7,0.4,5.4,0.4,8-0.6
		c3.8-1.5,7.7-3,11.4-4.6c4.6-2.1,9.2-4.4,14-6.6c0.2,0.3,0.5,0.6,0.7,1c0.7,0.9,1.3,2,2.2,2.7c5.4,5.3,9.9,11.5,14.1,17.8
		c5.5,8.2,11.5,16.1,17.1,24.2c6.7,9.5,12.9,19.3,18.1,29.8c3.9,8.2,8.3,16.1,11.5,24.5c5.7,15,11.7,29.8,15.8,45.3
		c4.6,17.3,8.8,34.6,11.9,52.3c2,11.5,3.8,23,5.6,34.5c1.4,9.2,2.7,18.5,3.9,27.8c0.4,2.7,0.4,5.5,0.7,8.2
		C454.7,504,455,505,455.2,506.1z M195.8,344.7c-0.1,2.5,1.3,3.3,3.1,2.3c0.3-0.1,0.6-0.4,0.9-0.5c4.2-2.4,8.6-4.6,13.2-6.3
		c4-1.5,7.8-3.4,11.5-5.6c3.4-2,6.7-4.3,9.6-7.1c3.2-3.1,4.9-7,6.8-10.9c2.9-5.9,4.1-12.3,5.2-18.7c0.3-1.3-0.4-1.9-1.8-1.5
		c-0.9,0.3-1.8,0.6-2.7,1.1c-5.4,2.7-10.8,5.5-15.8,8.9c-5.8,4-11.4,8.4-16,13.8c-4.2,4.8-7.4,10.3-10.3,16
		c-0.3,0.5-0.5,1.1-0.8,1.5C196.8,339.8,196.4,342.5,195.8,344.7z"/>


<g class="st1" >
		<path d="M268.4,117.9c-2.3,3.2-4.7,6.4-6.9,9.6c-2.2,3.2-4.2,6.7-6.4,10.1c-0.4-0.5-0.8-1-1.3-1.5
		c-5.6-7-9.2-15.1-11.3-23.8c-1.5-6.2-2.6-12.5-3.1-18.9c-0.1-0.8,0.1-1.3,0.7-1.9c4.1-4.4,8.2-8.8,12.2-13.2
		c0.3-0.3,0.6-0.5,1.1-0.9c0.1,1.4,0.4,2.6,0.5,3.8c1.1,9,3.1,17.6,6.9,25.9c1.7,3.7,4,6.9,6.7,9.8
		C267.7,117.3,268,117.6,268.4,117.9z"/>



	<path  d="M253.9,139.8c-2.1,4.1-4.2,8.2-6.3,12.3c-1.1-0.4-1.9-1.4-2.8-2.2c-4.1-3.6-7.1-7.9-9.8-12.6
		c-2.2-3.8-4.3-7.7-6.3-11.7c-2-3.8-3.9-7.7-5.8-11.5c1.1-2.5,13.4-18.6,15-19.6c0.1,1.9,0.3,3.8,0.5,5.7c0.9,8.6,2.7,17.1,6.2,25.2
		c1.4,3.3,3.2,6.5,5.4,9.3C251.4,136.3,252.6,138,253.9,139.8z"/>
	<path  d="M301.1,166.1c-7.9-2.5-15.2-6.1-22.1-10.5c-7.9-5-14.5-11.2-20-18.6c0.8-2.2,6.7-11.3,8.6-13.1
		c9.5,14.4,22,25.1,38.4,31.1C304.4,158.6,302.7,162.1,301.1,166.1z"/>
	<path  d="M342.3,110.6c-2.7,2.5-5.4,5.2-8.3,7.9c-1.5-1.3-3.1-2.5-4.6-3.7c-4.8-4.1-8.8-9.1-12.4-14.3
		c-3.2-4.5-4.9-9.6-6.3-14.8c-0.4-1.3-0.6-2.7-1-4.1c5.6-3.8,11.2-7.3,17.4-10.2c0.1,2,0.3,3.7,0.4,5.5c0.2,8.6,3,16.4,7.5,23.5
		c1.1,1.7,2,3.4,3.1,5C339.4,107.2,340.8,108.8,342.3,110.6z"/>
		<path  d="M303.3,82.4c-3.6,3-7,5.8-10.5,8.6c-1.3-2.7-1.8-5.6-2.4-8.4c-1.1-5.3-1.3-10.5-1-15.9
		c0.3-5.9,1.1-11.8,2.3-17.6c0.3-1.2,0.7-2.1,1.9-2.7c4.8-2.3,9.6-4.7,14.3-7c0.5-0.2,1-0.4,1.9-0.8c-1.9,4.9-3.5,9.5-4.3,14.3
		s-1.5,9.7-2.1,14.6C302.8,72.5,302.4,77.4,303.3,82.4z"/>
	<path  d="M360.3,59.1c-1.3,11.9,0.1,23.3,6.2,33.7c-4.3,2.8-8.5,5.6-12.9,8.4c-1.3-1.6-2.4-3.5-3.4-5.4
		c-3.2-6-5.1-12.5-6-19.3c-0.4-3.5-0.6-7-0.6-10.5c0.1-1.9,0-1.9,1.8-2.5C350.2,61.7,355,60.2,360.3,59.1z"/>
	<path  d="M232,203.3c-0.2,3.7-0.4,7.1-0.6,10.8c-1.3-0.1-2.3-0.2-3.4-0.2c-6-0.2-11.9-1-17.6-2.4
		c-4.5-1.1-8.8-2.8-12.6-5.4c-1.5-1-3-1.9-4.6-2.8c-0.8-0.5-1.2-1.1-1.3-2c-0.1-3.5-0.3-7-0.3-10.6c0-1.2,0.2-2.4,0.3-3.8
		C204.1,195.4,217,201.8,232,203.3z"/>
	<path  d="M338.4,62.7c-4.5,2-8.8,4.1-13.3,6.1c-0.2-1.7-0.4-3.4-0.6-5c-0.5-5.2,0.2-10.3,1.3-15.3
		c1.3-5.8,3.2-11.3,5.9-16.6c0.4-0.6,0.7-1.1,1.4-1.3c4.8-1.1,9.8-2.2,14.6-3.2c0.3-0.1,0.6,0,1.2-0.1c-3.9,5.3-5.9,11.2-7.9,17
		C338.9,50.3,338.2,56.4,338.4,62.7z"/>
		<path d="M328.3,70.6c4.6-2,9-3.9,13.6-6c-0.8,13.9,1.2,26.9,9.8,38.2c-2.5,2.1-5.1,4.1-7.7,6.2c-1-1.1-2.1-1.9-2.9-3
		c-4.1-5.8-8-11.7-10.2-18.5c-0.9-3-1.3-6.1-1.9-9.2C328.8,75.8,328.6,73.3,328.3,70.6z"/>
	<path  d="M368,24.4c5.6-0.6,11-1.1,16.5-1.1c0,0.3,0,0.4-0.1,0.5c-4.6,6.1-7.9,12.8-10,20c-0.5,1.7-1,3.3-1.3,5
		c-0.1,0.6-0.4,0.8-0.8,1.1c-1.8,1-3.7,2-5.5,3c-0.8,0.4-1.4,1.1-2.2,1.5c-0.3,0.2-0.6,0.5-1,0.6c-2,0.5-4.1,0.8-6.5,1.3
		C357.3,44.6,361.8,34.2,368,24.4z"/>
	<path  d="M365.8,24.7c-0.4,0.6-0.6,0.9-0.8,1.3c-4.1,5.8-7,12.2-8.7,19c-0.8,3.3-1.5,6.7-1.5,10.1c0,0.6,0.2,1.3,0.3,2
		c-4.8,1.5-9.6,3.2-14.7,4.8c-0.2-1.2-0.1-2.3-0.1-3.5c0.4-7,2.6-13.6,5-20.1c1.3-3.5,2.9-6.9,4.9-10.1c0.6-1,1.3-1.4,2.4-1.5
		C356.9,25.9,361.1,25.3,365.8,24.7z"/>
	<path  d="M376.5,56.4c-0.6,2.4-1.3,4.7-1.6,7.2c-0.4,3-0.8,5.9-0.8,8.9c-0.1,3.2-0.1,6.3,0.2,9.4c0.2,2,0.8,4,1.3,6.2
		c-2.1,1.1-4.5,2.4-7,3.7c-5.6-10.3-7.9-21.2-6.9-32.7C363.5,58.2,374.8,56.2,376.5,56.4z"/>
	<path d="M192.8,205c11.1,9.8,24.3,11.4,38.4,10.7c0.4,1.4,0.2,1.8-1.1,2.2c-3.4,1.3-7,2.5-10.5,3.7
		c-2.9,0.9-5.8,1.7-8.7,2.5c-0.4,0.1-0.8,0.2-1.3,0.3c-4.5,0.1-9,0.3-13.4-0.7c-1.1-0.3-1.7-0.8-1.8-1.8c-0.4-2.7-0.8-5.6-1.1-8.3
		c-0.3-2.3-0.5-4.6-0.7-7c-0.1-0.4,0-0.8,0-1.3C192.6,205.1,192.8,205.1,192.8,205z"/>
		<path d="M240.7,177.2c0.4,0.2,0.6,0.3,0.7,0.4c6,4.8,12.8,8.1,20,10.6c8.2,2.9,16.4,4.8,25,5.8
		c2.2,0.3,4.6,0.4,6.9,0.6c1.1,0.1,2.2,0,3.6,0c0.4,5.3,1,10.8,2.6,16.3c-11.5,0.8-22.5-0.4-33.4-3.4c-10.7-3-20.7-7.3-29.8-14.1
		C237.7,187.9,239.2,182.7,240.7,177.2z"/>
	<path d="M398.7,23.3c-2.4,3.7-4.6,7-6.7,10.5c-1.4,2.3-2.5,4.7-3,7.4c-0.1,0.6-0.3,1.1-1,1.4
		c-4.2,1.9-8.4,3.9-12.5,5.8c-0.2,0.1-0.5,0.1-0.7,0.3c2.2-6.5,4.3-13.1,7.7-19c1.1-2,2.4-3.8,3.7-5.6c0.3-0.4,0.8-0.8,1.3-0.8
		C391.2,23.2,394.9,23.3,398.7,23.3z"/>
	<path  d="M438.8,29.2c-0.7,0.6-1.3,1.1-1.9,1.8c-1.1,1.1-2.2,2-3,3.2c-0.6,0.9-1.4,1.2-2.4,1.3
		c-2.7,0.2-5.3,0.4-8.1,0.5c-0.6,0.1-1.3,0.1-2.3,0.1c1.2-1.3,2.1-2.5,3.1-3.4c1.7-1.6,3.4-3.1,5.1-4.6c0.3-0.3,0.8-0.4,1.2-0.4
		c2.5,0.4,5,0.8,7.4,1.3C438.3,28.9,438.4,29,438.8,29.2z"/>
	<path  d="M459.8,35c-8.4,0-16.9,0-25.5,0c0.4-0.4,0.6-0.6,1-0.8c1.9-1.4,3.9-2.7,5.8-4.1c0.6-0.5,1.3-0.4,1.9-0.2
		c2.3,0.5,4.6,1.1,6.9,1.7c3,0.8,6,1.8,9,2.7c0.4,0.1,0.8,0.4,1.1,0.6C459.9,34.8,459.9,34.9,459.8,35z"/>

</g>
	<path class="st1" d="M198.5,343.9c0.4-1,0.4-1.7,0.7-2.2c2.1-3.7,4.2-7.4,6.3-11c0.3,0.1,0.4,0.1,0.5,0.1c1,1.5,2.2,2.7,4.1,2.8
		c2.5,0.1,4.8-0.1,6.7-2c1.3-1.3,2.4-2.9,3-4.6c0.7-2.1,0.4-4.1-0.6-6c-0.4-0.7-1.3-1.1-2-1.6c-0.4-0.3-1-0.3-1.7-0.4
		c8.2-7.7,17.5-13.6,27.6-18.6c-0.6,3.5-1.1,6.9-2.3,10c-1.3,3.1-2.6,6.1-4.1,9.1c-1.8,3.6-4.5,6.3-7.7,8.6
		c-5.2,3.9-10.8,7-16.8,9.5c-4,1.7-7.9,3.7-11.9,5.5C199.9,343.2,199.4,343.5,198.5,343.9z"/>

	<g class="st1" >

	<path  d="M246.5,154.2c-2.2,5.3-4.3,10.4-6.4,15.6c-2.7-1.1-5.1-3-7.3-4.9c-6.2-5.6-11.1-12.2-15.6-19
		c-2.2-3.4-4.5-6.9-6.7-10.3c-0.6-1-0.6-1.8,0-2.7c3.4-5.3,6.9-10.7,10.3-16c0.2-0.4,0.5-0.7,0.9-1.2c0.2,0.4,0.4,0.8,0.6,1.1
		c3,6.3,5.8,12.6,9,18.8c2.3,4.5,5,8.8,8.4,12.5c1.7,1.8,3.7,3.4,5.6,5.1C245.6,153.6,246.1,153.8,246.5,154.2z"/>
		<path  d="M192.1,184.6c0.6-8.2,1.8-16.2,4.9-24.1c1,1.1,1.9,2.1,2.8,3c6.5,6.7,13,13.5,20.7,19c4.1,3,8.6,5.5,13.6,7
		c0.1,0.1,0.3,0.1,0.5,0.3c-0.7,3.9-1.4,7.9-2.1,11.8C218.1,200.4,198.3,190,192.1,184.6z"/>


		<path  d="M270.8,61.9c-0.9,15.3,1.3,29.7,8,43.5c-2.9,3.4-6,7.2-9.1,11c-0.6-0.7-1.1-1.3-1.5-2
		c-4.1-4.9-6.7-10.5-8.6-16.6c-2-6.1-3.1-12.4-4.1-18.7c-0.4-2.5,0.2-4,2.1-5.6c4.2-3.5,8.3-7.2,12.4-10.8
		C270,62.5,270.3,62.3,270.8,61.9z"/>
			<path d="M278.4,110.3c1.6,2.4,3,4.8,4.8,7.2c5.6,7.6,12.4,14,20.2,19.4c3.2,2.2,6.6,4.2,10.5,5.3
		c-2.2,3.4-4.3,6.8-6.5,10.3c-2.1-0.4-4.1-1.1-6.1-2c-5.4-2.7-10.7-5.7-15.5-9.5c-5.1-4.1-9.8-8.6-13.9-13.6
		c-1.1-1.3-1.9-2.8-2.8-4.2c-0.4-0.6-0.4-1,0.1-1.5c3-3.7,6-7.3,8.9-11C278.1,110.4,278.3,110.3,278.4,110.3z"/>
		<path d="M291.1,92.8c-3.6,3.4-7.2,6.7-10.8,10.1c-0.3-0.5-0.8-1.3-1.1-2.1c-3-6.7-4.8-13.8-6-21.2
		c-1-5.9-1.3-11.9-1-17.9c0-0.7,0.1-1.3,0.8-1.8c5.1-4,10.5-7.7,16.1-11c0.1-0.1,0.4-0.1,0.6-0.1c-0.1,0.5-0.1,0.9-0.2,1.3
		c-1.1,5-2,10-2.2,15.1c-0.1,3.3-0.4,6.6-0.2,9.9c0.2,5.1,1.2,10.1,2.9,15C290.2,91,290.7,91.8,291.1,92.8z"/>
		<path d="M329.5,31.9c-6,11.9-9.2,24.4-6.5,37.7c-5.8,3.6-11.5,7.2-17.5,11c-0.1-1.4-0.4-2.7-0.4-4.1
		c0.1-3,0.1-6,0.5-9.1c0.4-4.1,1-8.4,1.6-12.5c0.8-5.6,2.3-11,4.3-16.2c0.1-0.4,0.5-1,0.8-1.1c5.6-2,11.3-4,16.9-6
		C329.4,31.7,329.4,31.8,329.5,31.9z"/>
		<path d="M321.9,131.9c-2.1,2.7-4.2,5.3-6.4,8.2c-2.7-0.8-5.2-2-7.6-3.4c-6-3.7-11.5-8-16.4-13
		c-4.4-4.4-8.6-9.1-12-14.7c3.5-4,7.1-7.9,11.2-11.7c0.4,1,0.6,1.8,1.1,2.6c1.3,2.5,2.6,5.1,4.2,7.4c3.4,4.7,7,9.3,11.2,13.2
		c3.5,3.3,7.2,6.5,11.2,9.1C319.3,130.4,320.5,131.1,321.9,131.9z"/>

		<path  d="M235,187.6c-4.5-1.4-8.4-3.4-12.1-6c-4.8-3.3-9.3-7.1-13.5-11.1c-2.7-2.7-5.6-5.2-8.4-7.9c-1-1-1.9-2-3-3
		c-0.6-0.6-0.6-1.1-0.4-1.8c1.2-2.9,2.2-5.9,3.7-8.7c2.1-4.3,4.5-8.4,6.8-12.6c0.1-0.3,0.4-0.5,0.5-0.6c3.8,6,7.5,12,11.4,17.9
		c3.6,5.4,7.9,10.2,12.9,14.3c1.9,1.5,4.1,2.7,6.4,4.2C238,177.2,236.5,182.4,235,187.6z"/>
		<path d="M412.3,24.7c-0.9,1.1-1.5,1.8-2.2,2.5c-2.7,3.2-5.1,6.7-7.1,10.4c-0.3,0.5-0.5,0.9-1.2,1.1
		c-3.7,0.9-7.4,2-11,3c-0.1,0.1-0.4,0-0.6,0c2.7-6,5.8-11.8,9.6-17.2c0.4-0.5,0.7-0.8,1.3-0.8C404.8,23.9,408.4,24.3,412.3,24.7z"/>


		<path  d="M416.4,71.6c1.4-6.3,3.9-11.7,8.2-16.3c0.1-0.1,0.4-0.4,0.5-0.5c2.6-2.7,2.6-2.7,6.4-2.7c2.6,0,5.1,0,8,0
		c-0.3,0.4-0.4,0.8-0.7,1c-2.7,3-5.1,6.3-6.9,9.9c-0.6,1.1-1,2.4-1.3,3.7c-0.2,0.8-0.6,1.2-1.4,1.4c-4.1,1.1-8.1,2.4-12.1,3.5
		C417,71.6,416.9,71.6,416.4,71.6z"/>
	<path  d="M398.8,77.9c-3.4,1.4-6.7,2.7-10.3,4.2c0.1-2.9,0.2-5.6,0.5-8.2c0.6-5.2,1.8-10.3,3.2-15.2
		c0.3-1,0.6-1.9,1-2.9c0.4-1.3,1.3-2,2.7-2c2.9-0.1,5.7-0.2,8.6-0.4c0.8-0.1,1.7-0.1,2.7-0.2C403,61.2,399.9,69.1,398.8,77.9z"/>
			<path d="M391.6,54.4c-3.4,9.3-5.8,18.8-5.7,28.8c-2.5,1.2-5.1,2.3-7.7,3.5c-0.8-2.7-1.5-5.3-1.5-8.2
		c0-3.6-0.3-7.2-0.1-10.8c0.1-3.7,0.6-7.2,1.5-10.8c0.2-0.8,0.6-1.3,1.5-1.4c3.6-0.4,7.1-0.9,10.7-1.3
		C390.6,54.3,391.1,54.4,391.6,54.4z"/>
			<path  d="M332.3,120.2c-2.9,3.2-5.7,6.3-8.7,9.6c-1.6-0.9-3.2-1.7-4.7-2.6c-9.3-6-16.8-13.8-23.1-22.8
		c-1.8-2.5-3.2-5.3-4.1-8.2c5.1-5.1,10.6-9.5,16.7-13.6c0.4,1.6,0.6,3,0.9,4.4c1.3,6.2,3.7,11.9,7.4,16.9c1.8,2.5,3.7,5,5.7,7.3
		C325.3,114.6,328.5,117.6,332.3,120.2z"/>
			<path  d="M300.4,168.7c-0.8,3.3-1.6,6.7-2.5,10.3c-0.6-0.1-1.3,0-1.9-0.1c-9.1-1.5-17.7-4.4-26.1-8.2
		c-7-3.1-13.6-6.7-19.5-11.5c-0.8-0.6-1.5-1.2-2.2-1.9c2.9-6.5,6-12.8,9.8-19.1C268.6,153.5,283.1,162.9,300.4,168.7z"/>
		<path d="M401.7,76.8c0.3-1.8,0.4-3.4,0.8-4.9c1.4-5.9,3.3-11.6,6-17.1c0.7-1.3,1.6-1.7,2.9-1.8c1.5-0.1,3-0.2,4.5-0.3
		c2.3-0.1,4.7-0.3,7-0.4c0.4,0,0.8,0,1.4,0c-0.4,0.5-0.6,0.8-0.8,1.1c-4.1,3.8-6.7,8.5-8.4,13.8c-0.5,1.5-1,3.1-1.4,4.7
		c-0.1,0.6-0.4,0.9-0.9,1.1C409.3,74.2,405.6,75.4,401.7,76.8z"/>
		<path d="M297.5,181.3c-0.3,3.7-0.5,7.4-0.8,11.1c-5.8-0.1-11.5-0.8-17.1-1.8c-10.1-1.8-19.9-4.5-29.1-9.1
		c-2.9-1.5-5.6-3.3-8.4-5c-0.3-0.1-0.5-0.4-0.8-0.7c1.6-5.8,3.7-11.5,6.3-17.2c6.9,6.5,14.8,11.2,23.3,15
		C279.3,177.2,288,180.3,297.5,181.3z"/>
			<path d="M236.1,195c19.3,14.3,40.9,19,64.2,18.1c-0.1,0.1-0.1,0.4-0.3,0.5c-4.8,4.1-9,8.8-12.9,13.7
		c-1,1.3-2,1.6-3.6,1.4c-7.9-1.3-15.5-3.4-23.1-6.1c-8.9-3.3-17.2-7.6-25-13c-0.6-0.5-1.3-0.8-1.1-1.8
		C234.6,203.5,235.3,199.3,236.1,195z"/>
			<path d="M277.2,230.1c-1.1,0.1-2.3,0.1-3.4,0.3c-5.4,0.5-10.8,0.1-16.1-0.7c-5.6-0.8-11-1.8-16.6-2.8
		c-2.6-0.5-5.1-1.5-7.5-2.8c-0.2-4.4,0.8-8.7,0.6-13.1C247,220.6,261.6,226.3,277.2,230.1z"/>
		<path d="M457.6,52.9c-0.8,1-1.5,1.8-2.2,2.6c-1.7,1.9-3.2,3.9-4.3,6.2c-0.3,0.6-0.7,0.9-1.3,1.1
		c-5.4,1.3-10.9,2.7-16.3,4.1c-0.1,0.1-0.4,0-0.6,0c0.1-0.4,0.2-0.7,0.4-1.1c2-4.4,4.5-8.5,7.7-12.2c0.8-1,1.7-1.5,3-1.4
		c4.4,0.2,8.7,0.4,13.1,0.5C457.1,52.7,457.2,52.8,457.6,52.9z"/>
		<path  d="M472.9,54.1c-1.1,1.7-2.2,3.2-3.2,4.8c-5.5,1-11,2-16.9,3c2.3-3.2,4.5-6,6.7-8.9
		C462.9,52.8,471,53.5,472.9,54.1z"/>
		<path  d="M471.5,58.8c1.3-1.5,2.3-2.9,3.4-4.1c0.2-0.3,0.8-0.4,1.3-0.2c3.5,0.7,7,1.5,10.5,2.6
		C481.7,57.6,476.8,58.1,471.5,58.8z"/>
		<path  d="M426.8,27.1c-0.8,0.6-1.5,1.3-2.3,1.9c-1.8,1.7-3.4,3.6-4.6,5.8c-0.6,1.1-1.2,1.5-2.5,1.6
		c-4.4,0.4-8.8,1-13.1,1.5c0.1-0.1,0.1-0.3,0.1-0.4c3-3.9,6-7.7,9-11.5c0.6-0.8,1.3-1.1,2.2-0.8c3.7,0.6,7.3,1.1,11,1.6
		C426.7,26.9,426.8,27,426.8,27.1z"/>
		<path d="M110,428.9c2.3,1.1,4.6,2.1,6.4,3.8c1.5,1.4,2.5,3,2.7,5.2c0.3,3,0.1,5.8-1.2,8.7c-1.1-0.7-2.1-1.2-3-2
		c-2.1-1.8-4.1-3.7-6.2-5.5c-1.8-1.6-1.8-1.6-1.1-3.9C108.4,433.2,109.2,431.2,110,428.9z"/>


	</g>




</g>
</svg>
