<?xml version="1.0" encoding="utf-8"?>
<!-- Generator: Adobe Illustrator 24.1.0, SVG Export Plug-In . SVG Version: 6.00 Build 0)  -->
<svg version="1.1" id="handle" xmlns="http://www.w3.org/2000/svg" xmlns:xlink="http://www.w3.org/1999/xlink" x="0px"
     y="0px"
     viewBox="0 0 586.1 907.3" style="enable-background:new 0 0 586.1 907.3;" xml:space="preserve">
<style type="text/css">

	.st1{fill:#FFFFFF;}
</style>

    <path d="M123.5,861.7c-3.6,3.8-7.3,7.3-10.5,11.1c-2.8,3.3-5.9,6.1-9.6,8.2c-4,2.2-8,4.4-12,6.6c-6.1,3.3-12.9,4.9-19.7,5.7
	c-5.8,0.7-11.8,0.8-17.7,1.1c-2.4,0.1-4.1-1.1-5.3-3.1c-1.4-2.3-1.2-4.3,0.4-6.4c1.6-2.2,3.8-3.8,6.1-5.4c7.7-5.2,15-10.9,22-17
	c9.7-8.5,19.1-17.4,27.8-27.1c12-13.2,22.5-27.5,31.9-42.5c6.7-10.6,11.3-22.2,15.3-34c2-6,3.8-12,5.6-17.9
	c-3.9-2.8-7.6-5.4-11.6-8.2c-0.1,0-0.7,0.2-1.5,0.4c0.3-3.6,1.1-6.8,2.1-10c2.5-8.3,6.2-16.1,10-23.8c15.8-31.5,31.7-62.9,47.6-94.4
	c6.9-13.6,14.1-27.1,21-40.7c5.1-10,9.9-20.1,14.8-30.1c0.3-0.6,0.5-1.2,0.8-1.6c-3.9-9.4-7-18.9-9.5-28.7
	c-1.9-7.5-2.9-15.2-4.3-22.8c-1.9-10.2-2.8-20.5-3.9-30.8c-0.9-8.9-1.9-17.7-2.9-26.6c-0.1-1-0.3-2-0.5-3.3c-2.1,0.5-4.1,0.9-6,1.4
	c-1.2,0.3-2.3,0.5-3.5,0.7c-2.6,0.4-3.8-0.5-4.2-3.2c-0.2-1.4-0.5-2.8-0.8-4.2c-0.7-3.2-2.3-5.9-3.9-8.7c-4.4-7.9-7.6-16.3-8.8-25.4
	c-0.5-3.4-0.8-6.8-1.2-10.4c-0.4-0.1-0.9-0.2-1.4-0.2c-7.1,0-13.8-1.7-20.1-4.8c-19.4-9.3-30.6-24.8-34.3-45.8
	c-2-11.1-0.7-21.9,3.2-32.5c1-2.7,2-5.3,3.1-8c-3.6-4.8-5.2-10.5-6.1-16.3c-1.1-6.6-1.7-13.3-1.5-20c0.2-6.4,1.1-12.7,2.1-19
	c1.8-11.5,6.5-21.8,12.5-31.6c2.3-3.8,4.8-7.5,7.3-11.2c0.6-0.9,1.6-1.6,2.2-2.4c0.5-0.7,0.8-1.5,1.1-2.2c1.6-4.3,3-8.8,4.9-13
	c2.9-6.4,7.4-11.8,11.9-17c3.8-4.5,7.9-8.6,12.7-12c1.6-1.1,3.2-2.1,4.9-3.3c1-4.6,3-8.8,5.8-12.8c3.5-5,6.7-10.2,11.1-14.4
	c1.2-1.2,0.9-2.9,1-4.3c0.2-4,1.1-7.7,2.3-11.5c0.8-2.6,2-5.1,3.8-7.1c3.1-3.4,6.4-6.7,9.8-9.8c1.1-1.1,2.7-1.7,4.1-2.6
	c0-0.1,0.2-0.3,0.1-0.6c-0.2-7.4,1.3-14.6,2.7-21.8c1-5.1,2.1-10.2,3.3-15.2c0.9-3.8,2.4-7.3,4.8-10.3c2.9-3.6,6.8-5.2,11.2-5.8
	c2.9-0.4,5.9-0.6,8.8,0.3c4.5-3.7,9.7-6.3,15.4-7.3c9.2-1.6,18.2-0.6,26.6,3.4c4.2,2,7.6,5.2,10.8,8.6c3.8,4.1,7.3,8.5,10.2,13.3
	c0.4,0.7,0.9,1.3,1.9,1.2c5.5-0.5,10.4,1.4,15.2,3.6c6.4,2.9,11.7,7.1,15.6,13c3.6,5.5,5.3,11.6,5.1,18.2c0,0.9-0.2,1.7-0.2,2.7
	c2,1.4,4,2.9,6.1,4.3c9.5,6.5,17.3,14.6,23.4,24.3c1.7,2.7,2.8,5.5,3.5,8.6c0.3,1.5,0.3,3.1,0.4,5c2.6,2.2,5.6,4.5,8.3,7
	c2.2,2,4.5,4.1,6.4,6.4c5.8,6.8,11.2,13.9,15.7,21.7c2.4,4.3,3.7,9,5.1,13.6c0.5,1.7,1.2,3.3,1.7,5c0.3,1.3,0.4,2.7,0.6,4
	c1.1,6.8,3.4,13.3,5.6,19.8c2.3,7,5.6,13.6,8.4,20.4c3.1,7.6,6.5,15.1,8.1,23.2c0.8,4.1,1.9,8.2,2.5,12.4c0.4,2.7,0,5.6,0.3,8.3
	c0.6,5.6,0.6,11.2-0.6,16.7c-2.2,10.4-5.8,20.3-13,28.4c-2.6,2.9-5.6,5.4-8.5,8.1c-2.2,2.1-4.5,4.1-6.7,6.1
	c-0.6,0.6-0.7,1.2-0.6,1.9c0.4,2.2,1.1,4.4,1.2,6.5c0,2.5-0.3,5.1-1,7.5c-2.8,9.9-7.2,19-14.6,26.3c-2,2-4.4,3.7-6.7,5.7
	c0,0.3,0,0.8,0.2,1.2c2.6,7.8,3.8,16,5.6,24c1.3,6.2,2.6,12.3,3.2,18.6c0.3,3.4,0.5,6.8,0.7,10.3c0.3,4.5,0.6,8.9,0.9,13.4
	c0.4,7.1,0.8,14.2,0.2,21.3c-0.2,2.1-0.1,4.2-0.2,6.2c-0.1,1.5-0.5,1.7-2,1.5c-2.1,2.2-4.1,4.4-6.1,6.5
	c-5.2,5.5-10.3,11.1-16.4,15.7c-6.5,4.9-13.2,9.5-20.3,13.6c-5.2,3-10.3,6.1-15.6,9c-2.1,1.2-4.3,2-6.5,3c-0.8,0.4-1.4,0.8-2.3,1.3
	c2.4,2.9,4.6,5.5,6.7,8.2c10.6,13.1,21,26.3,31.7,39.3c5,6.1,10.5,11.8,15.8,17.7c4.1,4.6,8.2,9.1,12.4,13.7c3,3.2,6,6.4,9,9.6
	c3.1,3.2,6.1,6.6,9.3,9.7c4.3,4.3,8.7,8.5,13.1,12.6c5.1,4.7,10.2,9.2,15.4,13.7c0.3,0.3,0.7,0.7,1.1,0.9c2,1.1,2.8,2.3,2.3,4.6
	c-0.5,2.5-1.2,5-1.9,7.4c-0.8,2.7-1.8,5.5-2.9,8.1c-0.5,1.2-0.4,2,0.6,2.9c3.4,3.2,6.8,6.3,9.9,9.7c7.1,7.6,15.1,14.2,23.2,20.7
	c1.9,1.5,3.9,1.6,6.1,1.2c1.6-0.3,3.3-0.4,4.9-0.7c0.7-0.1,1.3-0.5,2-0.7c3.1-1.2,6.3-2.4,9.4-3.5c1.4-0.5,2.5-0.1,3.2,1.2
	c1.5,2.8,3.1,5.6,4.6,8.4c1.7,3,3.3,6,5,9c1,1.8,0.9,2.7-0.9,3.8c-1.7,1-3.5,1.6-5.5,2.5c1.3,0.6,2.7,1.2,3.9,1.8
	c9.7,4.7,17,12.1,22.5,21.3c2.7,4.6,5.1,9.4,5.9,14.8c0.3,2.4,0.6,4.7,0.8,7.1c0.1,2.2-0.4,4.3-2.5,5.3s-4.3,0.3-6-1.3
	c-2.7-2.6-5.1-5.5-7.7-8.2c-3.4-3.5-6.6-7.2-10.4-10.3c-3.6-2.9-7.7-5.2-11.7-7.4c-8.2-4.5-17.1-7.5-25.9-10.6
	c-8.8-3-17.5-6.2-25.3-11.3c-8.4-5.5-16.3-11.8-23.2-19.2c-0.2-0.2-0.3-0.5-0.6-0.9c-0.4,0.6-0.7,0.9-0.9,1.2
	c-5.8,10-12.5,19.3-20.1,28c-2.2,2.5-4.8,4.7-7.4,6.8c-3.2,2.4-5.3,2.3-8.4-0.3c-3.1-2.5-6.2-5.1-9-7.9
	c-6.7-6.5-13.3-13.1-19.8-19.8c-6.1-6.2-12.1-12.5-17.8-19.1c-6.9-8-13.7-16.2-20.2-24.6c-7.9-10.4-15.3-21.1-22.9-31.6
	c-0.2-0.3-0.5-0.6-0.9-1.2c-0.4,1-0.8,1.8-1,2.6c-8.1,26.8-15.2,53.8-21.2,81c-4.9,21.7-9.8,43.4-14.6,65.1
	c-1.3,6.1-2.2,12.2-3.2,18.4c0,0.2,0,0.5-0.1,0.7c-0.9,3.5-1,4.1-4.6,2.7c-3.5-1.3-7.1-2.5-10.6-3.7c-2.3-0.8-4.6-1.3-6.9-2.1
	c-5.2-1.9-10.8-2.8-15.6-6c-3.9-2.6-8.3-4-12.7-5.7c-10-4-20-8.1-30-12.1c-0.6-0.2-1.2-0.4-1.9-0.7c-0.7,1.2-1.5,2.4-2.1,3.5
	c-3.2,5.7-7,11-11.2,16.1c-6.8,8.3-13.7,16.6-20.6,24.9c-0.5,0.6-0.7,1.2-0.4,1.9c0.6,1.6,1,3.2,1.6,4.8c1.8,4.1,1.6,8.2,0.3,12.4
	c-1.9,6.2-4.7,12.1-8,17.6c-0.6,1-1,2.1-1.3,3.3c-0.5,2-0.8,4.1-1.1,6.1c-0.2,1.5-0.3,3-0.5,4.5c0,0.5-0.1,1-0.1,1.4
	c-0.4,3.7-1.7,5.1-5.3,5.6c-5,0.7-10,1.3-15,1.9c-0.6,0.1-1.3,0.2-1.9,0.3c-3.2,0.6-4.6-0.6-4.8-4
	C123.9,862.3,123.8,862.2,123.5,861.7z M147.8,731.2c2.5,1.6,5.1,3.4,7.8,4.9c7.1,4.1,14.4,8,21.5,12.1c7.2,4.1,14.3,8.3,21.9,11.5
	c8,3.3,16,6.4,24,9.7c0.6,0.2,1.2,0.4,1.8,0.6c0.1-1.1,0.2-2.1,0.4-3c1.2-5,2.1-10.2,3.8-15.1c5.2-15,10.5-30,16-44.9
	c9.2-25,19.7-49.4,30-73.9c10.1-24.2,20.3-48.3,29.5-72.8c6.1-16.1,11.5-32.3,14.7-49.2c1.5-7.7,2.8-15.5,4.1-23.3
	c0.3-1.6,0.5-3.3,0.4-5c-0.2-5.5-0.5-11-0.8-16.5c-0.2-4.9-0.4-9.9-0.7-14.8c-0.3-5.6-0.8-11.1-1.2-16.7c-0.1-1.8-0.2-3.6-0.3-5.6
	c-0.8,0.3-1.2,0.5-1.6,0.7c-1.2,0.6-2.3,1.2-3.4,1.7c-1.8,0.8-3.6,0.3-4.8-1.1c-0.8-1-0.7-2,0.6-3.9c0.4-0.6,0.8-1.2,1.3-1.7
	c2.1-2.6,4.2-5.2,6.3-7.8c1.1-1.4,2-2.9,3-4.4c-1,0.2-1.7,0.6-2.3,1.1c-2.4,1.7-4.7,3.6-7.2,5.1c-2.3,1.4-4.7,2.7-7.2,3.7
	c-2.4,1-3.8,0.4-5.5-1.8c2.6-3.4,5.3-6.7,8.5-9.6c3.7-3.4,7.2-7,10.7-10.6c1.8-1.8,3.5-3.7,5.2-5.5c-1.2-2.3-2.4-4.4-3.7-6.8
	c-3.4,4-7.5,6.8-11.5,9.6c-0.4,0.3-0.8,0.7-1.2,0.8c-0.7,0.1-1.6,0.1-2.2-0.2c-0.8-0.3-1-1.1-0.8-2c0.4-1.3,0.6-2.7,1.1-3.9
	c2.3-5.5,4.8-10.9,9.1-15.3c-7.3-15.2-14.3-30.5-22-45.1c-4.4,1.2-8.7,0.9-12.9,1c-2.2,3.3-2.1,3.3-2.3,7.7
	c-0.3,7.4-0.7,14.8-0.9,22.2c-0.3,7.3-0.4,14.7-0.7,22c-0.1,2.3,0.3,4.6-0.7,6.8c-0.2,0.3-0.1,0.8-0.1,1.2c0.2,2.6,0.6,5.2,0.8,7.8
	c0.1,1.8,0.1,3.5,0,5.3c-0.1,2.5-0.8,3.3-3.4,3.8c-0.9,0.1-1.7,0.2-2.6,0.4c-6.9,1.4-13.8,2.7-20.7,4.1c-8.5,1.8-17,3.6-25.5,5.4
	c-0.5,0.1-1,0.3-1.6,0.5c0,0.6,0.1,1.1,0.1,1.5c1.4,9.8,2.8,19.7,4.2,29.6c1.2,8.5,2.1,17.1,3.5,25.6c1.5,9.3,2.8,18.6,5.2,27.7
	c2.1,8.1,4.6,16.1,7.5,24.2c0.5-0.9,0.8-1.5,1.1-2.1c2.3-4.8,4.5-9.7,6.8-14.6c14-30,24.3-61.2,30.6-93.8c0.5-2.3,0.7-4.6,1.1-6.9
	c-0.2-0.1-0.3-0.1-0.5-0.2c-5.5,7.1-10.5,14.6-15.7,21.9c2.8-7.1,6.5-13.8,10.8-20.1c4.3-6.3,9.1-12.3,13.7-18.4
	c-1.5,0.4-2.8,1-4.1,1.7c-0.8,0.4-1.4,0.3-1.9-0.4c-0.4-0.6-0.7-1.3-0.1-2c0.5-0.6,1-1.2,1.5-1.8c1.9-2.5,3.8-5,5.8-7.5
	c-1.6,0.2-2.8,0.8-4.1,1.4c-1.9,0.9-3.9,1.9-5.8,2.8c-0.8,0.4-1.3,0.2-1.6-0.8c1.4-0.9,2.8-1.8,4.1-2.6c-0.2-4.6-0.7-8.9,0.5-13.2
	c1.2,4,0.7,8.1,0.7,12.5c0.7-0.3,1.2-0.5,1.6-0.8c2.8-1.5,5.7-3,8.5-4.4c0.9-0.5,1.9-1,3,0.2c-1.7,4.5-6.1,7.3-8.3,11.6
	c1.3-0.2,2.4-0.4,3.6-0.4c1.6,0,2.1,0.6,1.6,2.1c-0.4,1-1,2-1.7,2.9c-2.6,3.3-5.2,6.5-7.9,9.7c-1.2,1.4-1.9,2.9-1.7,4.8
	c0.1,1.1,0.1,2.2-0.1,3.3c-1,6.4-1.8,12.8-3.2,19.1c-2.7,12.2-6.3,24.2-10,36.2c-6.2,19.8-14.5,38.9-23.4,57.6
	c-6.5,13.7-13.1,27.4-19.8,41c-6.3,12.7-13,25.1-19.4,37.7c-16.2,32.2-32.4,64.5-48.5,96.8c-3,6.1-5.6,12.5-8.2,18.8
	C150.3,724.2,149.2,727.5,147.8,731.2z M452.9,663.2c-0.3-0.5-0.4-0.7-0.5-0.8c-5.9-5.1-11.2-10.7-16.3-16.6
	c-5.2-5.9-10.3-11.9-15.5-17.9c-14.5-16.7-29.1-33.3-43.5-50.1c-10.7-12.4-21.7-24.5-33.6-35.8c-1.5-1.4-3-2.7-4.7-4.3
	c-0.3,1.1-0.5,1.9-0.7,2.7c-1.2,5.3-2.2,10.6-3.7,15.8c-5.5,20.3-11.1,40.6-16.7,60.9c-0.4,1.4-0.2,2.4,0.6,3.5
	c4.5,5.9,8.8,12,13.4,17.8c8.5,10.8,16.9,21.6,25.7,32.1c5.8,6.9,12.2,13.3,18.3,19.9c8.2,8.9,16.6,17.8,25.6,25.9
	c3.4,3,6.8,6,10.2,9.1c0.9-0.6,1.7-1.1,2.4-1.7c3.6-2.9,6.3-6.5,9.1-10.2c8.2-10.8,15.3-22.2,21.4-34.3
	C447.3,673.8,450.2,668.5,452.9,663.2z M365.5,282.6c2.5,1.8,5,3.3,7.1,5.3c4.7,4.6,10.3,7.6,16,10.4c6.5,3.1,13.3,5.8,20.1,8.4
	c6.4,2.5,13,4.7,19.6,7.1c2.3-2.1,4.8-4.3,7.2-6.5c2.8-2.5,5.7-4.9,8.2-7.7c7-7.8,10.7-17.3,13.1-27.4c1.5-6.1,1-12.4,0.8-18.6
	c0-0.7-0.7-1.5-1.2-1.9c-3.1-2.8-6.4-5-10.4-6.2c-2.6-0.8-5.1-1.8-7.7-2.6c-3.4-1.1-6.9-2-10.3-3c-0.5-0.1-0.9-0.4-1.3-0.6
	c0-0.2,0.1-0.3,0.1-0.5c2,0,3.9-0.2,5.9,0c4.4,0.2,8.3,2.2,12.4,3.5c4,1.3,7.7,3.1,10.9,5.8c0.2,0.2,0.5,0.2,1.2,0.5
	c-1.2-5.4-2.3-10.4-3.4-15.5c-1.6-6.8-4.4-13.2-7.2-19.5c-4-9-7.8-18.2-10.7-27.6c-1.6-5.1-2.9-10.3-3.3-15.6c0-0.6-0.3-1.2-0.5-1.9
	c-3.1,1.5-6.1,2.7-8.9,4.2c-8.5,4.4-17,8.9-25.4,13.4c-9.2,4.9-17.7,10.8-26.2,16.9c-1.1,0.8-1.8,1.8-1.8,3.2
	c-0.3,7.2-0.6,14.5-1,21.8c-0.2,3.6-0.6,7.2-0.8,10.7c-0.5,6-1,12.1-1.5,18.1c-0.4,5.1-0.9,10.2-1.3,15.2c-0.2,1.9-0.4,3.8-0.7,6.2
	c4.5-4.6,9.3-8,14.3-10.9c5.2-2.9,10.7-4.9,16.5-6.3c9.2-2.3,14.8-3.2,17.1-2.4c-0.8,0.4-1.5,0.7-2.2,1c-5.4,2-10.8,4-16.2,5.8
	c-7.8,2.5-15.1,6-21.7,11C369.5,278.2,367.2,280.1,365.5,282.6z M324.6,498.1c-0.1,0-0.2,0-0.3,0c-0.5,3.1-1,6.3-1.5,9.4
	c-2.1,12.6-4.9,25-8.9,37.2c-6.4,19.5-13.8,38.6-21.6,57.6c-11.3,27.3-22.7,54.6-33.9,81.9c-9.2,22.4-17.4,45.2-25.5,67.9
	c-2.2,6.2-3.9,12.6-4.3,19.4c6.6,2.1,12.3,5.7,18.3,9c0.6,0.3,1.3,0.6,2,0.6c5.8,0.6,11.2,2.4,16.6,4.5c2.6,1,5.2,1.7,7.7,2.6
	c1.3-7.2,2.3-14.2,3.8-21c4.5-20.4,9.2-40.8,13.8-61.2c4.5-19.6,9.2-39.1,14.7-58.5c6.2-21.7,12.4-43.4,18.6-65.1
	c4.8-17,9.7-33.9,13-51.2c1.3-7.1,2.4-14.2,3.5-21.4c-4.3-0.8-8.2-1.5-12.2-2.3c-1.8-0.3-2.4-0.8-2.7-2.8
	C325.3,502.5,324.9,500.3,324.6,498.1z M296.4,65.9c1.7-2,3.2-4,4.9-5.8c1.2-1.3,2.7-2.2,4.5-2.6c2.1-0.5,4.1,0.2,4.8,2.1
	c2.2,5.8,3.5,11.5-1.2,16.8c-0.6,0.7-0.6,1.3-0.4,2.2c0.3,1.5,0.7,3,0.5,4.5c-0.7,6-2.1,11.8-4.5,17.3c-0.3,0.8-0.5,1.7-0.6,2.5
	c-0.4,3.6-0.6,7.1-1.9,10.5c-3.3,8.7-6.4,17.5-9.7,26.3c-4.2,11-6.9,22.2-7.3,34c-0.2,6.6-0.4,13.2,0.5,19.8c0.3,2.5,0.7,5,1.8,7.5
	c4.6-2.1,9.3-2.3,14.1-2.5c0.2-1.2,0.6-2.2,0.6-3.2c0-5.4,1.3-10.6,2.6-15.8c4.7-18.7,10-37.1,18.6-54.5c4.3-8.6,7.7-17.5,10.4-26.8
	c2.3-8,3.3-16.1,2.5-24.4c-1.2-11.8-5-22.9-9.7-33.7c-3.2-7.5-8.4-13.8-14.1-19.5c-3.9-3.9-8.3-7.1-13.8-8.7
	c-8.3-2.3-16.5-3-24.7-0.2c-3.4,1.2-6.5,3-9.7,4.6c-1.2,0.6-2.1,1.1-3.5,1c-3.5-0.3-6.8,0.4-10.1,1.5c-2.6,0.9-4.8,2.5-6.5,4.7
	c-2.2,2.7-3.5,5.8-4.2,9.1c-1.5,7.2-2.9,14.4-4.4,21.5c-1.2,5.9-1.8,11.8-0.9,17.8c1,6.6,2.1,13.2,4.8,19.5c2.6,6.1,5.4,12.1,8,18.2
	c3.1,7.3,7.5,13.7,13.5,19c3.3,2.9,6.3,6.1,9.5,9.1c2.2,2,4.5,3.9,7,6.1c0-6,0-11.7,0-17.4c-5.1-0.3-9.3-2.5-13.2-5.4
	c-4.2-3-8.1-6.5-10.9-11c-4.7-7.5-8.8-15.4-11.6-23.9c-0.9-2.8-1.7-5.4-0.2-8.3c0.9-1.8,1.4-3.8,2.4-5.5c3.4-5.6,7-11.1,10.3-16.7
	c3.8-6.3,6.9-13,7.6-20.5c0.1-0.7,0.3-1.3,0.5-2c1.5-0.4,2.2,0.5,3,1.3c3,3.1,5.8,6.4,9.1,9.2c6.4,5.6,11.8,12.1,17.5,18.4
	C293.3,63.6,294.5,65.1,296.4,65.9z M350.7,505.9c2-1.1,3.7-2,5.3-3c7.6-4.8,15.3-9.6,22.8-14.6c7.7-5.1,15.3-10.4,21.9-17
	c5.1-5.1,10.2-10.2,15.2-15.3c0.5-0.5,0.8-1.5,0.8-2.3c0.1-2.5,0.1-5,0.1-7.4c-0.2-6.1-0.3-12.1-0.6-18.2
	c-0.3-5.2-0.8-10.5-1.2-15.7c-0.4-4.2-0.6-8.4-1.3-12.6c-1.6-9.2-3.4-18.3-5.1-27.5c-0.5-2.5-1.2-5.1-1.8-7.7
	c-0.6,0.2-0.9,0.3-1.1,0.5c-6.6,4.4-14,6.5-21.9,6.8c-1.1,0-2.2,0.3-3.4,0.5c0.4,0.9,0.7,1.6,0.9,2.2c1.8,4.2,3.6,8.4,4.3,12.9
	c0.6,3.8,1,7.6,1.5,11.4c0.1,0.5,0.4,1.1,0.8,1.6c1.5,2,2.6,4.2,2.8,6.8c0.1,2.1,0,3.8-2.6,4.2c0.1,0.8,0.1,1.5,0.2,2.1
	c0.5,2.6,1.2,5.1,1.6,7.7c0.2,1.1,0.3,2.5-0.1,3.5c-0.8,1.8-2,3.4-3.2,5.3c-3.1-1.5-6.3-2.8-8.8-5.2c-0.5-0.5-0.6-1.4-0.6-2.2
	c-0.1-2.8,0-5.6,0-8.4c-3.1-1-3.8-3.4-4.2-5.9c-0.2-1-0.2-2.1,0.1-2.9c0.3-0.7,1.3-1,2.1-1.5c0.4-0.3,0.9-0.6,1-0.7
	c-0.4-2.4-0.6-4.6-1.2-6.6c-1.6-4.9-3.3-9.8-5-14.7c-0.2-0.5-0.8-0.7-1.4-1.2c-0.6,1.6-1.1,2.8-1.6,4.1c-3.8,11-9.2,21.1-16.2,30.3
	c-2.6,3.4-5.5,6.6-8.5,9.7c-1.8,1.8-2.9,1.6-4.6-0.4c-0.2-0.2-0.2-0.6-0.3-0.7c-1.8,1-1.8,2.1-1.5,3.5c1.5,6.7,3.1,13.4,4.4,20.1
	c1.3,6.6,2.3,13.3,3.4,20c1.6,9,3.1,18.1,4.7,27.1C349,498.2,349.8,501.9,350.7,505.9z M159.1,181.6c-0.4,0.5-0.9,1.2-1.4,1.9
	c-1.9,2.9-3.8,5.7-5.6,8.7c-6.3,10.2-11.6,20.8-13.4,32.8c-0.8,5.4-1.7,10.9-2,16.3c-0.4,6.5,0,12.9,0.8,19.3c0.6,5,2,9.8,3.9,14.5
	c0.6,1.6,1.7,3,3.5,3.2c4.2,0.4,8.4,0.6,12.7,0.8c2.6,0.1,5.3-0.1,7.9-0.2c4.2-0.2,8.5-0.3,12.7-0.6c5.4-0.4,10.8-0.7,16.2-1.3
	c4.3-0.5,8.5-1.2,12.5-3c4.2-2,8.6-3.8,13.3-3.7c2.7,0,4.3-0.9,5.6-3c0.6-1,1.5-1.9,1.5-3.2c0-2.2,0.2-4.5-0.2-6.7
	c-1.9-10.4-5-20.2-11.3-29c-6.6-9.1-13.8-17.6-22.1-25.1c-6.1-5.5-12.8-10.4-20.1-14.3C168.9,186.5,164.1,184.1,159.1,181.6z
	 M259.7,268.2c-0.2-0.2-0.3-0.3-0.4-0.4c-0.3-0.2-0.7-0.4-1.1-0.5c-7.6-2.9-15.5-2.9-23.4-2c-4,0.4-7.2,2.5-9.3,6.1
	c-3.5,6.2-7.5,12.1-10.7,18.4c-5.2,10.2-8.9,21-11.7,32.1c-2.5,10-4.3,20.1-3.9,30.5c0.2,5,1.6,9.7,3.1,14.5
	c0.1,0.3,0.3,0.6,0.4,0.8c0.4,0.9,1.1,1.2,2.1,1.3c3,0,6.1,0.2,9.1,0.2c11.9-0.3,23.2-3.3,33.5-9.4c10.1-6,18.8-13.5,26.2-22.6
	c7.1-8.8,9.4-19,8.5-30.3C267.2,298.4,260.6,284.9,259.7,268.2z M430.7,166.5c-2.9-11-3.3-12.1-8.3-20c-7.6-12-16.7-22.8-28.2-31.4
	c-2.3,0.6-3.1,1-5.8,3.5c-8.8,7.8-16.9,16.3-24.7,25.1c-5.4,6.1-10.7,12.3-16,18.5c-4.3,5-8.4,10.3-11.5,16.2
	c-3.1,6.1-6.1,12.3-9,18.5c-0.5,1.1-0.9,2.3-1.3,3.3c2.4,1,4.7,1.7,6.8,2.8c0.8,0.4,1.8,1.1,2,1.9c0.5,1.7,1.8,2.4,2.9,3.3
	c4.9-1.5,9.5-3.1,14.2-4.3c4.9-1.2,9.8-2.3,14.8-3c2.3-0.3,4.1-1.2,5.8-2.4c2.5-1.8,4.9-3.6,7.4-5.3c13.6-8.8,28-16,42.5-23.1
	C425,168.7,427.8,167.7,430.7,166.5z M198.9,364.9c-0.1-0.4-0.1-0.7-0.2-1.1c-2.4-7.7-2.5-15.6-1.5-23.5c2-15.6,6.5-30.5,12.5-45
	c3.2-7.6,7.5-14.6,11.7-21.7c0.3-0.5,0.5-1.1,1-2.1c-3,0.7-5.7,0.9-8.1,1.8c-9,3.2-17.2,7.6-24.6,13.7c-5.8,4.9-11.4,10-16.4,15.7
	c-0.4,0.4-0.9,0.8-1.4,1.2c-0.9-1.2-1.1-2.2-0.3-3.2c1.9-2.5,3.6-5.1,5.6-7.4c2.2-2.5,4.6-4.6,7-7c-6.6,3.2-11.8,8.6-18.8,11.2
	c0-1.4,0-1.5,1.1-2.3c7-5.5,14.3-10.4,22.3-14.4c0.7-0.3,1.4-0.7,2.4-1.2c-5.1,0.4-9.8,0.9-14.4,1.2c-5.7,0.4-11.3,0.8-17,0.9
	c-4.4,0.1-8.8-0.4-13.1-0.6c-2.7-0.2-3.1,0-4,2.3s-1.6,4.7-2.5,7c-3.2,9.1-3.7,18.4-2.5,27.8c0.9,7.3,3.4,14.1,7.1,20.4
	c8,14,19.9,23,35.5,27.2C186.5,367.6,192.7,367.8,198.9,364.9z M160.5,742.2c-1.3,4.8-2.4,9.4-3.8,13.9
	c-4.2,13.5-9.2,26.6-16.4,38.8c-4.4,7.5-9.6,14.5-14.6,21.7c-8.8,12.6-18.8,24.2-29.7,35c-3.2,3.2-6.4,6.3-9.7,9.2
	c-6.2,5.4-12.4,10.8-18.8,16c-4,3.2-8.3,6-12.4,9c-1.2,0.9-2.4,1.8-2.9,3.2c0.7,1.2,1.7,1.2,2.8,1.2c3.9-0.1,7.8-0.2,11.7-0.5
	c7.3-0.6,14.5-1.9,21-5.2c5.2-2.6,10.2-5.6,15.2-8.6c2.3-1.4,4.4-3.1,6-5.4c3.5-4.9,7.9-9,12.4-13c2.7-2.4,5.7-4.6,8.8-6.6
	c3.7-2.4,8-3.6,12.3-4.7c3.4-0.9,6-2.8,7.9-5.8c3.3-5.1,5.9-10.4,7.6-16.2c0.9-3.2,0.9-6.2-0.5-9.3c-1-2.2-1.6-4.7-2.3-7
	c-0.5-1.6-0.1-2.9,1-4.2c7.8-9.2,15.5-18.4,23.2-27.8c4.1-5,7.8-10.3,11-15.9C180.3,754,170.4,748.1,160.5,742.2z M362.7,285.6
	c-0.6,2.4-1.2,4.8-1.9,7.2c-4.2,15-9.4,29.7-14.9,44.2c-0.4,1-0.6,2.1-0.8,2.8c2,1.2,3.8,2,5.5,3.1c8.2,5.6,15.7,12,23.2,18.5
	c2.3,2,4.4,4.4,5.4,7.6c2-0.2,4-0.5,5.9-0.6c10.6-0.5,19.2-5.4,26.9-12.2c7.8-6.8,12.3-15.8,15.4-25.5c1.1-3.4,1.5-7,1-10.6
	c-0.3-2.2-1.4-3.5-3.2-4.4c-0.8-0.4-1.8-0.7-2.7-0.9c-3.5-1-7.1-1.9-10.5-3.2c-6.1-2.2-12-4.8-18.1-7c-5.7-2.2-11-5-16.2-8.3
	c-1.9-1.2-3.7-2.7-5.5-4.2c-1.9-1.6-3.7-3.3-5.6-4.9C365.6,286.4,364.4,285.5,362.7,285.6z M363.2,74.2c-0.8,2.9-1.5,5.6-2.3,8.2
	c-3.7,11.9-10.3,22.2-18,32c-6.3,8.1-12.8,16.1-19.1,24.3c-5,6.4-9,13.3-10.9,21.4c-2.2,9.2-4.8,18.4-7.1,27.6
	c-0.8,3.4-1.6,7-0.6,10.6c6,0.5,11.9,1,17.8,1.5c2.2-4.8,4.4-9.4,6.5-14c4-9,9.1-17.4,15.6-24.9c4.8-5.5,9.5-11,14.3-16.5
	c7.3-8.2,14.8-16.1,22.8-23.6c3.7-3.5,7.2-7.3,12.6-8.5c-0.7-3.7-1.8-7-3.7-10.2c-2.2-3.7-5-7-7.8-10.3
	C377.3,85,370.6,79.3,363.2,74.2z M241.9,226.5c0-0.3,0.1-0.5,0-0.6c-4.3-12.3-8.6-24.7-13-37c-3.3-9.4-6.9-18.7-10.2-28.1
	c-1.8-5.3-3.1-10.9-4.6-16.3c-0.2-0.7-0.6-1.6-1.2-2c-4.8-3.4-9.7-6.7-15.5-8.5c-1.9-0.6-3.5-0.3-5,0.7c-2.3,1.6-4.6,3.2-6.7,5
	c-7.8,6.9-14.5,14.9-19.8,23.9c-2.8,4.7-4.5,9.8-6.2,15.2c3.3,1.8,6.5,3.6,9.8,5.1c11.1,5,20.6,12.2,29.2,20.6
	c7.2,7,13.7,14.7,19.2,23.2c0.8,1.2,1.6,1.8,3.1,1.7c3.5-0.2,7-0.2,10.5-0.6C235.2,228.4,238.7,227.6,241.9,226.5z M282.6,221.5
	c-0.4-0.2-0.6-0.4-0.9-0.4c-0.5-0.1-0.9-0.2-1.4-0.2c-1.6-0.2-1.7-0.3-1.8-1.9c-0.2-2.1,1.1-3.6,2.2-5.2c0.4-0.6,1.1-1.3,1.1-2
	c0.1-1.3,0.7-2.3,1.4-3.2c0.9-1.1,1.8-2.3,2.8-3.3c0.9-1,0.8-1.9,0.2-3c-0.7-1.3-1.5-2.7-1.7-4.1c-0.6-3.7-1.3-7.4-1.4-11.1
	c-0.2-4.5,0-8.9,0.3-13.4c0.2-4.4,0.7-8.7,1.2-13.1c0.1-1.1,0-2-0.4-3c-2.3-5.2-5.3-10-9.8-13.7c-5.6-4.6-10.8-9.8-16.1-14.7
	c-4.8-4.5-8.6-9.6-11.4-15.6c-2.2-4.8-4.1-9.7-6.5-14.4c-4.3-8.4-6.9-17.3-8-26.7c-0.1-0.5-0.3-1-0.5-1.6c-0.6,0.4-1,0.6-1.3,0.9
	c-2.5,2.3-5,4.7-7.5,7.1c-7.5,7.3-9.8,16.6-9,26.5c0.8,10.1,6,17.8,15,22.8c6.1,3.3,12.5,6.1,19,8.6c5.6,2.1,10.6,5.2,14.2,10.2
	c3.4,4.7,5.3,10,5.8,15.8c0.5,5.2,0.7,10.3,0.9,15.5c0.2,6.2,0.2,12.5,0.2,18.7c0,5.6-0.3,11.2-0.5,16.7c-0.1,2.9-0.3,5.7-0.7,8.6
	c-1.1,8.3-1.8,16.6-2.1,25c-0.1,3.3-0.3,6.5-0.5,9.8c-0.1,2.1,0,4.2,0,6.4c1.7-0.4,3.1-0.8,4.3-1.1c0.8-2.6,1.4-5,2.4-7.3
	c2.1-4.9,4.9-9.5,8.5-13.5c0.3-0.4,0.6-1,0.6-1.5c0.3-3.1,0.7-6.2,0.9-9.3C282.2,227.7,282.4,224.6,282.6,221.5z M462.5,637.2
	c-43.7-38.2-81.7-81.4-115.3-128.4c-1,0.1-1.9,0.2-2.8,0.3c-1.7,0.2-1.7,0.3-2,2.1c-0.9,7.3-1.9,14.5-2.9,21.8
	c-0.2,1.3,0,2.2,1.2,3.1c10.7,8.7,20.2,18.6,29.4,28.8c9.1,10,17.7,20.3,26.6,30.5c11.6,13.4,23.2,26.8,34.7,40.2
	c6.7,7.8,13.4,15.7,20.8,22.8c0.6,0.5,1.1,1,1.8,1.7C457.7,652.4,460.3,644.9,462.5,637.2z M252.2,104.2c0.1,0.2,0.2,0.5,0.4,0.9
	c3.3,6.6,8.3,11.6,14.4,15.7c4.1,2.8,8.6,3.7,13.3,4.2c2.1,0.2,3.5-0.5,4.9-1.9c2.3-2.4,4.8-4.7,7-7.2c8.2-9.4,13.7-20.1,15.2-32.7
	c0.1-1,0.2-2-0.5-3c-1.4-2.2-1.1-4.4,0.8-6.3c1.2-1.1,1.9-2.5,2.1-4.2c0.3-2.8-0.2-5.4-1.1-8c-0.5-1.5-1.5-1.9-3-1.3
	c-1.1,0.5-2.2,1.1-3,1.8c-1.5,1.3-2.8,2.8-4.3,4.2c-1.7,1.7-2.7,1.8-4.6,0.3c-1.4-1.1-2.5-2.5-3.7-3.7c-0.9-1-1.8-1.9-2.6-2.7
	c-1.2,0.7-2.1,1.4-3.1,1.8c-2.5,0.9-4.6,2.2-6.4,4c-0.3,0.3-0.7,0.4-1,0.5c-1.4-1.7-1.5-1.8-0.4-3.3c1.6-2.4,3.7-4.1,6.5-5
	c0.6-0.2,1.2-0.5,2.3-0.9c-3.6-3.7-6.9-7.1-10.3-10.6c-1.8-1.9-3.7-3.7-5.5-5.6c-1.7-1.8-3.4-3.6-5.3-5.6c-0.2,0.9-0.4,1.5-0.5,2
	c-0.7,2.9-1.2,5.8-2.1,8.6c-1.6,4.8-4,9.2-6.7,13.5c-1.3,2-2.5,4.2-4,6.8c4.6-0.9,8,0.3,11.2,3.2c-2,1.2-3.9,0.8-5.9,0.5
	c-2.3-0.4-4.5-0.8-7-1.3c-2.2,3.5-4.3,6.8-6.5,10.1c-0.7,1-0.8,2-0.4,3.2c1.3,3.5,2.7,7,4,10.5c0.1,0.3,0.3,0.5,0.6,0.8
	c0.7-0.4,1.3-0.8,1.9-1.1c0.7-0.3,1.5-0.5,2.3-0.7c2.6-0.4,5.7,1.1,6.4,3.1c0.8,2.2,1,5.7-2.2,7.7
	C254.5,103.2,253.4,103.6,252.2,104.2z M332.5,273.2c3.9,0.5,7.5-1.3,11.7-0.6c-3.3,5.9-9,7.7-13.9,9.8c-1.3,5-2.4,9.6-3.7,14.2
	c-0.6,2-1.6,3.8-2.1,5.8s-1.6,3.2-3.7,3.3c-3.4,0.2-6.8,0.4-10.3,0.5c-0.8,0-1.7,0-2.8,0c0.2,1.9,0.5,3.4,0.7,5
	c2.2,0.1,4.1,0.3,6,0.3c9.8,0,19.6-1,29.3-2.7c2.9-0.5,5.7-1.4,8.6-2c1-0.2,1.4-0.8,1.7-1.7c4.5-13.1,7.5-26.5,8.5-40.4
	c0.5-6.4,1-12.9,1.5-19.3c0.6-7.2,1.3-14.4,1.9-21.7c0.3-4.2,0.4-8.5,0.6-12.7c0.1-2.8,0.3-5.5,0.4-8.3c-9.8,1.3-19.3,3.6-28.6,6.9
	c0.1,0.8,0.2,1.3,0.1,1.8c-0.3,1.5,0.3,2.5,1.4,3.5c0.6,0.6,1.1,1.4,1.6,2.1c1.6,2.1,1.5,4.6,0.2,6.5c-1.2,1.8-1.3,3.7-1.5,5.6
	c-0.8,5.9-1.6,11.8-2.4,17.8c-0.2,1.5-0.4,3.1-0.7,4.7c2.4,0.1,4.3-1.6,7-1.3c-0.7,1.2-1.2,2.1-1.8,2.8c-2,2.3-4,4.5-6,6.8
	c-0.5,0.6-1.2,1.2-1.3,1.9C334,265.6,333.3,269.4,332.5,273.2z M196.3,130.4c2.9,1.1,5.6,1.8,7.9,3c7.5,3.9,14.2,8.8,19.9,15.2
	c8.4,9.4,14.7,20.1,19.4,31.7c3.8,9.4,6.5,19.2,9.1,29c2.1,8.1,4.2,16.2,6,24.4c1.2,5.9,1.8,12,2.7,17.9c0.4,2.8,1,5.5,1.5,8.2
	c0.5-5.2,0.6-10.3,0.8-15.4c0.3-5.6,0.5-11.2,1.2-16.7c1.2-10,2.1-20,2.1-30c0-5.7-0.2-11.3-0.3-17c0-3.8,0.1-7.7,0-11.5
	c-0.2-3.2-0.4-6.5-1.1-9.7c-1.1-5.5-3.5-10.4-7.9-14.1c-3.1-2.7-6.7-4.5-10.5-6.1c-5.6-2.3-11.2-4.7-16.6-7.4
	c-9.9-4.8-16.2-12.5-18.4-23.4c-0.2-0.8-0.3-1.6-0.6-3C205.8,113.9,199.6,121.2,196.3,130.4z M459.8,660.4
	c-4.9,9.5-9.6,18.6-14.4,27.7c4.6,4.9,9.8,8.9,15.2,12.9c9.1,6.8,18.9,12.1,29.7,15.7c7.3,2.4,14.4,5.2,21.6,8
	c11.3,4.5,21.7,10.4,29.9,19.7c2.6,2.9,5.3,5.8,8,8.6c0.9,1,1.7,2.2,3.3,2.8c0.1-0.7,0.2-1.2,0.2-1.6c-0.4-3.2-0.5-6.6-1.4-9.7
	c-2.5-9.2-7.9-16.7-15-22.9c-3.5-3.1-7.4-5.5-11.8-7.1c-0.7-0.2-1.3-0.6-2-0.8c-4.7-2-7.9-5.3-9.7-10c-0.5-1.3-1-2.7-1.6-4
	c-0.8-1.9-1.8-3.5-3.4-4.9c-1.3-1.2-2.5-1.5-4.3-1c-4.1,1.1-8,0.8-11.4-2.4c-2.3-2.1-4.8-4-7.2-6c-5.1-4.2-9.8-8.7-14.3-13.5
	C467.6,668,463.7,664.3,459.8,660.4z M273.3,389.3c0.2-1.1,0.4-1.9,0.4-2.8c0-9.3,0.2-18.7,1-28c0.3-4.4,0.7-8.7,0.9-13.1
	c0.1-1.8,0-3.6,0-5.3c-0.2-0.1-0.4-0.1-0.6-0.2c-0.2,0.3-0.3,0.6-0.5,0.8c-5.2,6.3-11.3,11.5-17.7,16.4c-6.3,4.9-13.2,8.6-20.8,11.2
	s-15.5,3.8-23.5,3.6c-2.2,0-4.3-0.3-6.5-0.2c-2.9,0.3-5-0.7-6.1-3.4c0-0.1-0.2-0.2-0.4-0.3c-2.1,0.8-4.3,1.6-6.5,2.5
	c1,12.1,4.2,23.3,10.2,33.9c0.6-0.2,1.1-0.2,1.5-0.4c5.4-2.2,11.2-3.3,16.8-4.6c3.6-0.8,7.2-1.2,10.8-1.9c8.5-1.6,17.1-3.3,25.6-5
	C263.1,391.5,268.2,390.4,273.3,389.3z M287.9,292.7c0.7-0.2,1.3-0.3,1.9-0.4c7.7-1.5,15.2-3.5,22.6-6.2c5.9-2.1,12-4,17.9-6.1
	c2.2-0.8,4.3-1.6,6.4-2.6c1.2-0.6,2.3-1.6,3.7-2.6c-4.4,0.3-8.3,0.7-12.2,0.9c-4.8,0.3-9.5,0.9-14.1,2.7c-1.5,0.6-2.9,1.2-4.4,1.8
	c-0.6,0.2-1.3,0.6-2.2-0.6c3.6-2.7,7.9-4.4,11.4-7.2c3.5-2.9,7.1-5.7,10.5-8.8c3.3-3,6.9-5.8,9.9-10c-3.3,0.8-6.1,1.6-8.6,2.8
	c-3.1,1.5-6.1,3.1-9.2,4.7c-1,0.6-2,1.3-2.9,2.1c-3.4,2.5-6.8,5.1-10.2,7.6c-0.7,0.5-1.5,1.1-3.1,0.6c1.7-1.3,3-2.5,4.3-3.5
	c1.8-1.4,3.9-2.5,5.6-4.1c3.3-3,6.5-6.1,9.5-9.5c3.2-3.7,6-7.8,9-11.8c0.2-0.3,0.3-0.8,0.4-1.1c-1.6,0.8-3,1.8-4.2,3
	c-3.3,3.3-7.1,6-11.2,8.2c-3,1.6-5.8,3.6-8.8,5.4c-4.8,2.9-10,5.3-15,7.8c-0.8,0.4-1.9,0.4-2.8,0.6c0.8-1.9,2.3-2.6,3.8-3.3
	c2.5-1.3,5-2.5,7.5-3.7c4.3-2.1,8.2-4.7,11.4-8.2c3.8-4.2,7.5-8.5,11.2-12.8c0.5-0.6,0.8-1.2,1.3-1.9c-0.1-0.1-0.2-0.3-0.3-0.4
	c-7.2,4.3-14.1,9.2-22,12.3c-7.8,3.1-15.6,6.2-23.7,9.2c-1.1-4.7-0.3-9.1,0-14c-1.2,1.7-2.2,2.9-3,4.1c-2.5,3.5-4.8,7.2-6.3,11.3
	c-1.2,3.1-1.7,6.1,0.2,9.2c0.2,0.4,0.3,0.9,0.5,1.3C276.3,278.3,280.8,286.2,287.9,292.7z M342.8,387.7c-0.8,2.8-1.9,5.1-3.4,7.2
	c-3.4,4.6-7.5,8.5-11.6,12.5c-0.7,0.7-1.4,1.3-1.8,2.2c-3,6.1-6.9,11.7-10.9,17.2c-0.3,0.5-0.6,1-1.2,1.9c0.8-0.3,1.1-0.5,1.5-0.6
	c4.1-1.9,7.7-4.6,10.9-7.8c6.1-6.2,11.3-13,16.3-20.1c1.2-1.7,2.5-3.3,3.8-4.9c0.6-0.7,1.3-1.2,2-1.8c0.1,0.1,0.3,0.2,0.4,0.3
	c-0.1,0.8-0.2,1.6-0.4,2.3c-0.8,1.9-1.6,3.9-2.7,5.6c-4.7,7.4-10.3,14.1-16.3,20.3c-2.1,2.2-2.9,4.6-3.5,8c1.5-1.2,2.6-2,3.6-3
	c5.8-5.7,10.5-12.2,14.8-19c1.2-1.9,2.5-3.7,3.8-5.5c0.5-0.6,1-1.4,2-1.5c0,0.4,0.1,0.8,0,1.1c-1.1,4.5-2.8,8.8-5.7,12.5
	c-1.7,2.2-3.4,4.4-5.2,6.6c-1,1.3-1,1.3,0.5,2.5c0.5-0.4,0.9-0.8,1.4-1.3c1-1.1,2.1-2.2,3-3.4c6.7-8.5,12.2-17.6,16.6-27.4
	c1.8-4.1,3.3-8.5,6.2-12.1c-9.3-8-18.1-16.3-24.6-26.9c-3.4,2.5-6.1,5.2-8.6,8c-4.2,4.6-7.8,9.6-12.5,14c1.1,2.1,2.3,4.2,3.5,6.4
	c0.7-0.5,1.1-0.7,1.5-1c1.9-1.3,3.8-2.7,5.8-3.8c2.1-1.1,3.2-0.3,3.9,1.9c0.4,1.2,0.3,2.4-0.2,3.5c-1.3,3-2.7,6-4.1,8.9
	c-1.8,3.7-4.8,6.6-7.6,9.5c-5.1,5.1-10.2,10.2-15.2,15.2c-0.8,0.8-1.5,1.7-2.6,2.8c0.8-0.1,1,0,1.2-0.1c0.6-0.3,1.3-0.6,1.9-1
	c9.9-6.6,19.1-13.9,26.5-23.4c1-1.3,2.1-2.6,3.3-3.8C339.9,388.8,341,387.8,342.8,387.7z M341,350.4c-0.9-3.5-0.7-6.7,0.5-10
	c2.3-6.2,4.5-12.4,6.8-18.7c1.2-3.5,2.4-7,3.7-10.8c-14.6,2.9-29,4.8-43.5,2.8c0.1,1.8,0.2,3.3,0.4,4.9c0.9,7.8,1.9,15.6,2.8,23.5
	c0.5,4,0.9,8.1,1.5,12.1c0.3,2.2,0.7,4.4,1.4,6.5c0.7,2,1.7,4,2.7,5.9c0.8,1.7,1.7,3.3,2.6,5.1C326.7,364.3,332.3,355.9,341,350.4z
	 M320.8,137.2c0.1,0.1,0.3,0.1,0.4,0.2c0.3-0.4,0.7-0.7,0.9-1.1c6-8.6,12.9-16.5,19.4-24.7c7.2-9.1,13.5-18.8,17.1-30
	c1.8-5.4,3-10.8,2.4-16.5c-1.2-10.2-6.6-17.7-15.2-22.8c-3.5-2.1-7.5-3.5-11.4-5c-2.1-0.8-4.4-1.3-6.8-1.2c0.1,0.4,0.1,0.7,0.2,0.9
	c2.1,5.5,4.3,11,6.3,16.5c2.8,7.8,4.4,15.8,4.9,24c0.3,6.2-0.5,12.4-2,18.5c-2.9,11.7-7.8,22.8-12.8,33.7
	C323,132.3,321.9,134.7,320.8,137.2z M348,505.4c-0.2-1-0.3-1.7-0.4-2.4c-1.4-7.3-2.9-14.5-4.1-21.8c-2.9-17.6-5.2-35.3-8.8-52.8
	c-0.1-0.4-0.3-0.8-0.6-1.4c-0.9,0.7-1.6,1.4-2.3,2c-1.7,1.2-3.4,2.4-5.1,3.6c-0.9,0.6-1.7,0.2-2.5-0.2c-0.9-0.5-0.8-1.3-0.6-2.1
	c0.3-1.2,0.6-2.4,1-4c-1.2,0.8-2,1.5-2.8,2c0,1.2-0.1,2.1,0,3.1c0.5,6.1,1.2,12.2,1.7,18.3c0.6,7.2,1,14.5,1.5,21.7
	c0.4,5.9,0.5,11.8,1,17.6c0.4,4.7,1.1,9.3,1.5,14c0.1,1.3,0.8,1.7,2,1.9c2.1,0.3,4.3,0.6,6.4,1.1C340,506.8,343.8,505.9,348,505.4z
	 M282.4,255.7c0.5,0,0.8,0,1-0.1c5.4-2.4,10.8-4.8,16.2-7.2c7-3.1,14-6.2,20.4-10.6c2.5-1.7,5.5-2.9,8.3-4.2
	c0.6-0.3,1.3-0.2,2.4-0.4c-0.5,1.4-0.8,2.3-1.1,3.1c-1.4,3.1-3.8,5.5-5.9,8.1c-1.6,1.9-3.2,3.8-4.7,5.7c0.8,0.1,1.3-0.1,1.7-0.5
	c2.9-2.3,5.9-4.7,8.7-7.1c2.5-2.2,4.9-4.3,8.4-5.1c0.5-4,1.1-8.1,1.6-12.2c-9.5,1.4-18.7,1.2-27.9,0.4c-9.2-0.9-18.4-1.6-27.5-4
	C283.4,233.2,282.9,244.4,282.4,255.7z M209.2,419.6c21.3-4.7,42.4-9.4,63.8-14.2c0-4.2,0-8.5,0-12.9c-0.6,0.1-1.1,0.1-1.7,0.2
	c-4.4,1-8.9,2-13.3,2.9c-9.4,1.9-18.7,4-28.2,5.6c-6.2,1.1-12.4,2.2-18.5,3.7c-1.8,0.5-3.7,0.8-5.4,2
	C207.9,411,208.9,415.2,209.2,419.6z M220.2,230.8c3.2,5.3,5.3,10.6,6.7,16.2c1.4,5.7,2.9,11.2,1.8,17.2c9.1-4.1,18.2-2.2,27.1-1
	c-4.4-11.5-8.8-23.1-13.2-34.7C235.5,230.6,228.2,231.6,220.2,230.8z M261.8,264.6c-0.8-3.6-1.6-7-2.3-10.4c-0.5-2.3-1-4.6-1.9-6.9
	c-5.6-14-11-28.1-16.5-42.1c-6.6-16.7-11.5-34-17.4-50.9c-1.5-4.2-4.6-6.6-7.7-9.3c0.1,1.1,0.4,2.1,0.7,3c2.6,9.1,5.1,18.3,8.6,27.1
	c3.1,7.9,6.2,15.7,9.1,23.7c5.4,15.1,10.5,30.3,15.9,45.4c2.3,6.5,5.2,12.9,7.9,19.2C259.1,265.7,259.5,265.6,261.8,264.6z
	 M327.9,283.1c-12.9,4.5-25,9.6-38.2,11.7c-0.2,2.3-0.3,4.3-0.5,6.3c5.2,2.3,26.9,3.2,32.8,1.4C324,296.3,326.3,290.1,327.9,283.1z
	 M376.5,371.6c-0.4-2.8-2-4.7-3.9-6.3c-5.5-4.7-11.1-9.4-16.7-13.9c-3.7-3-7.7-5.6-11.7-8.5c-0.7,2-1.3,3.8-1.9,5.5
	c0.6,1.1,1.1,2.2,1.9,3.3c3.9,5.6,8.3,10.7,13.3,15.3c2,1.8,4,3.7,6,5.5c2.1,1.9,4.3,3.8,6.5,5.8c1.1-1,2.3-1.9,3.2-2.9
	C374.4,374.2,375.5,372.9,376.5,371.6z M261.9,267.3c0.2,1.6,0.3,3,0.5,4.3c0.2,1.4,0.2,2.8,0.6,4.2c0.5,1.9,1,3.8,1.7,5.7
	c0.9,2.6,1.8,5.3,3.1,7.7c3.4,6.4,8.9,10.7,14.8,14.7c0.1,0.1,0.3,0,0.5-0.1c0.8-3,1.7-5.9,2.4-8.9c0.2-0.8,0-1.7-0.8-2.4
	c-1-0.9-1.9-1.9-2.8-3c-5-6.1-8.5-13.1-10.9-20.6c-0.5-1.4-0.9-2.8-1.5-4.5C266.9,265.5,264.5,266.4,261.9,267.3z M285.5,155.4
	c0.3-1.2,0.7-2.4,1-3.7c2.7-9.6,6.5-18.8,10-28.2c1.8-4.7,3.5-9.4,5.2-14.2c0.3-0.8,0.3-1.7,0.5-2.5c-1.4,1.2-2.3,2.6-3.3,4
	c-3.4,5.2-7.7,9.6-12.3,13.7c-1.5,1.4-3.2,2.6-5.5,2c-0.4-0.1-0.9,0.2-1.6,0.4c0,3.5,0,7,0,10.6c0,2.5-0.2,4.9-0.3,7.4
	c0,0.8,0.2,1.6,0.6,2.2C281.6,149.9,283.5,152.6,285.5,155.4z M256.6,239.1c0.2,0,0.4-0.1,0.5-0.1c-0.3-1.9-0.5-3.9-1-5.8
	c-3.7-15.5-7.8-30.9-12.9-46.1c-3.8-11.2-9.4-21.3-16.3-30.7c-0.3-0.4-0.7-0.7-1.1-1.1C234.6,183.9,245.9,211.4,256.6,239.1z
	 M288.2,295.9c-0.2,0-0.4,0-0.6-0.1c-0.4,1.2-0.8,2.4-1.1,3.5c-0.5,1.8-0.3,3.4,0.7,5.2c2.8,4.8,5.3,9.8,7.9,14.7
	c1.8,3.3,3.5,6.6,5.2,10c2.7-0.5,5.3-1,7.9-1.5c-0.6-7.3-1.2-14.3-1.8-21.5c-2.1-0.2-4-0.2-6-0.5c-3.6-0.5-7.2-1.1-10.8-1.8
	c-2-0.4-2.3-1.3-2-3.3C287.8,299,288,297.5,288.2,295.9z M285.5,304.5c-0.2,0.9-0.5,1.5-0.5,2.1c0.1,3.5,0.5,7,2.7,9.9
	c0.2,0.3,0.4,0.7,0.5,1.1c2.4,5.1,4.8,10.2,7.3,15.3c4,8.1,8,16.2,12,24.3c4.8,9.9,9.5,19.9,14.3,29.8c1.1,2.2,2.3,4.3,3.5,6.5
	c2.7-3.1,2.8-3.1,0.8-6.2c-5.6-9-10.3-18.3-14.7-27.9c-3.6-7.9-7-15.9-10.7-23.8c-4.7-9.9-9.5-19.7-14.3-29.5
	C286.2,305.6,285.9,305.2,285.5,304.5z M339.6,222.7c1.3-3.3-0.3-5.5-2.2-7.7c-4.9,3.2-10.4,3.5-16,3.5c-6.5,0-12.9-0.4-19.4-1.1
	c-6-0.7-12-1.5-17.7-3.9c-0.3-0.1-0.6-0.1-0.9-0.2c-1.1,1.4-2,2.7-2.4,4.6C300.5,222.7,319.9,224,339.6,222.7z M288.5,203.1
	c1.8,1.8,2.5,2.2,5.2,2.9c11,3,22.3,3.8,33.6,2.6c0.8-0.1,1.6-0.2,2.3-0.5c2.1-0.6,2.5-1.6,1.7-3.5c-0.2-0.5-0.7-0.9-1.1-1.1
	c-1.1-0.4-2.3-0.7-3.5-0.9c-9.9-1.7-19.9-2.4-30-1.7C294,201.2,291.4,201.8,288.5,203.1z M334.2,207.6c-2.1,3-5.2,3.5-8.4,3.6
	c-4.7,0.1-9.4,0.3-14.1,0c-5.1-0.4-10.1-1.3-15.1-2.2c-3-0.6-5.9-1.8-9-2.8c-1,1.4-2.1,3-3.3,4.7c4,2,7.9,2.7,11.8,3.2
	c9.8,1.4,19.7,2.2,29.6,2c3.5-0.1,6.8-0.8,9.9-2.1C336.5,211.6,336.5,209.6,334.2,207.6z M371.4,381c1.4,3.5,2.9,7,4.2,10.5
	c1.4,3.5,2.2,7.2,1.9,11.1c2.6-0.7,4.9-1.4,7.3-2c-1-9.5-2.3-18.7-6.4-27.1c-1,1.4-2,2.8-3.2,4.1C374.1,378.8,372.7,379.9,371.4,381
	z M128.1,861.6c6.2-1.3,12.3-1.5,18.2-2.8c0.2-3.1,0.5-6,0.7-8.9c-2,0.6-3.9,1.2-5.7,1.7c-3.5,1.1-6.9,2.5-10.1,4.3
	C129,857.1,128,858.8,128.1,861.6z M510.4,690.5c3.5,2.8,5.5,6.1,6.8,9.7c0.5,1.3,1,2.5,1.5,3.8c0.5,1.2,1.2,2.2,2.1,2.6
	c1.8-1.2,3.5-2.4,5.2-3.5c-2.7-4.8-5.4-9.8-8.2-14.8C515.3,689,513.1,689.7,510.4,690.5z M310.8,352.9c0.2-0.1,0.4-0.2,0.5-0.2
	c-1-7.3-1.9-14.7-2.9-22.2c-2.5,0.3-4.8,0.6-7.2,0.9C304.5,338.7,307.6,345.8,310.8,352.9z M285.8,315.6c-0.2,0-0.5,0-0.7,0.1
	c-0.6,5.3-1.6,10.5-4.2,15.5c4-0.5,7.5-1,11.1-1.4C289.9,324.9,287.8,320.2,285.8,315.6z M378.8,413.7c0.2,1.6,0.4,3,0.6,4.4
	c0.2,1.6-0.1,3.6,0.7,4.8c0.8,1.2,2.8,1.7,4.2,2.5c0.3,0.2,0.7,0.3,1.1,0.4c2.1-2.5,2.1-2.5,1.4-5.6c-0.4-1.9-0.7-3.7-1.1-5.6
	c-0.2-1-0.5-1.9-0.7-3C382.8,412.4,380.9,413,378.8,413.7z M387.4,407.4c0-0.2,0.1-0.5,0-0.7c0-0.3-0.1-0.6-0.2-0.9
	c-0.6-2.3-0.6-2.3-2.8-2.3c-3.5,0-6.7,1.3-9.8,2.7c-0.3,0.1-0.6,0.2-0.9,0.3c0.9,1.8,1.7,3.2,2.4,4.7
	C380.1,409.9,383.7,408.7,387.4,407.4z M316,379.1c-3.5,4.9-6,9.8-7.6,15.3c1.1-0.5,1.9-1.2,2.8-1.8c2.9-2,4.7-5.2,8.3-6.3
	C318.3,383.9,317.2,381.7,316,379.1z M247.4,94.8c1.3,2.7,2.6,5.1,3.8,7.5c1.9,0.3,3.3-0.5,4.4-1.6c2.2-2.2,1.6-5.6-1.1-7
	C251.9,92.4,249.7,93.1,247.4,94.8z M319.3,274.7c3.8-0.4,7.5-0.9,11.3-1.3c0.8-3.3,1.5-6.5,2.3-10.3
	C328.1,267.3,323.7,271,319.3,274.7z M324.2,257.6c3.8-1.8,7-3.3,10.3-4.8c0.9-0.4,1.1-1.1,1.2-1.9c0.2-1.4,0.4-2.8,0.6-4.2
	c0.3-1.9,0.6-3.8,0.9-5.8C333.4,246.8,329.2,252.2,324.2,257.6z M328.9,388.1c1.3-3,2.3-5.6,3.6-8.6c-2.7,1-4.7,2.2-6.6,3.7
	C326.9,384.8,327.8,386.2,328.9,388.1z"/>
    <path d="M269.7,94.9c2.2-1.2,4.6-0.9,6.9-0.6c-0.6,1.8-2.1,2.8-4,2.8C270.9,97.1,270.4,96.8,269.7,94.9z"/>
    <path d="M383.8,416.1c0.9,1.3,0.9,2.6,0.6,3.8c-0.4,1.5-1.6,1.8-2.8,0.8c-0.2-0.2-0.3-0.3-0.5-0.5c-1.5-1.8-1-3.5,1.2-4.1
	C382.8,416,383.3,416.1,383.8,416.1z"/>
    <path d="M285.1,351.2c0.5,5.7,1.1,10.9,0,16.4C284.1,362.7,284,353.8,285.1,351.2z"/>
    <path d="M293.2,348.3c-1.4-3.5-1.6-11.3-0.3-13.5C293.7,339.6,294.1,343.9,293.2,348.3z"/>
    <path d="M291.2,362.9c0.2-3.5,0.9-6.5,1.9-9.7C294.6,356.2,293.9,360.1,291.2,362.9z"/>
    <path d="M285,334.2c0.6,1.6,0.7,7.3,0.2,10C284,342.7,283.9,335.9,285,334.2z"/>
    <path d="M262,82.5c-0.5,0.6-0.9,1.2-1.3,1.7c-2,2.7-4.6,3.9-7.9,3.3c-3.4-0.6-6.3-2.3-8.6-4.8c-0.9-0.9-0.8-1.8,0.3-2.3
	c3.9-1.7,7.9-3.2,12.2-2C259,79,261.3,79.9,262,82.5z M250.9,80.4c-0.8,0.2-1.8,0.3-2.7,0.5s-1.7,0.5-2.7,0.9
	c5.1,4.2,10.1,4.3,13.5,0.4c-1-0.5-2-1-3-1.5c-0.5,1.1-0.8,2.1-1.3,3c-0.7,1.3-1.8,1.3-2.5,0.1C251.5,82.8,251.3,81.7,250.9,80.4z"
    />
    <path d="M292.5,67.6c1,1.8,0.4,3.4-0.1,4.9c-2.3,6.9-5.6,8.4-11.1,8.6c-0.8,0-1.6-0.1-2.3-0.3c-1.1-0.3-1.7-1.3-1.1-2.2
	c2.8-4.4,5.7-9,11.2-10.5C290.3,67.7,291.4,67.7,292.5,67.6z M279,79.1c6.8,0.8,11.6-4,11.8-9.5c-0.8,0.4-1.6,0.8-2.1,1
	c-0.3,1.6-0.5,3-1,4.2c-0.6,1.4-1.5,1.5-2.5,0.2c-0.4-0.5-0.7-1-1.2-1.7C282.3,75.2,280.8,77,279,79.1z"/>
    <path d="M283.7,104.2c-0.2,1-0.3,2-0.6,3c-1.5,4.2-5.8,6-10.4,4.4c-1.2-0.4-2.3-0.9-3.5-1.3c0.2-1.6,3-6,4.4-6.6
	C277,102.3,280.4,101.4,283.7,104.2z M281.2,105c-1.4,0-2.8-0.3-4,0.1c-0.9,0.3-1.5,1-2.6,0.7c-0.3-0.1-0.9,0.2-1.2,0.6
	c-0.7,0.8-1.3,1.7-2.1,2.6C275.8,110.7,279.2,109.4,281.2,105z"/>
    <path d="M303.6,83.6c0.5,2.7-3.1,6.6-5.2,7.2c-3.3,1-7.5-1.6-7.8-5.1c-0.3-3,0.9-5.5,3.4-6.8c2.4-1.3,6.1-0.8,8.1,0.9
	C303.3,80.8,303.8,82.1,303.6,83.6z M297.4,80.2c-2.4-0.1-3.9,1.3-5.1,3.1c-1.4,2.2-0.7,4.4,1.7,5.5c3.1,1.4,5.3,0.6,7.4-3.1
	c1.4-2.4,0.5-4.4-2.1-5.2C298.7,80.3,298.1,80.3,297.4,80.2z"/>
    <g id="Color">

	<g class="st1">
			<path d="M452.9,663.2c-2.8,5.3-5.6,10.7-8.4,16.1c-6.1,12.1-13.2,23.5-21.4,34.3c-2.8,3.6-5.5,7.2-9.1,10.2
		c-0.7,0.6-1.5,1.1-2.4,1.7c-3.5-3.1-6.9-6-10.2-9.1c-9.1-8.1-17.4-16.9-25.6-25.9c-6.1-6.6-12.5-13-18.3-19.9
		c-8.8-10.5-17.3-21.3-25.7-32.1c-4.6-5.8-8.9-11.9-13.4-17.8c-0.8-1.1-1-2.1-0.6-3.5c5.6-20.3,11.2-40.6,16.7-60.9
		c1.4-5.2,2.5-10.6,3.7-15.8c0.2-0.8,0.4-1.5,0.7-2.7c1.7,1.5,3.3,2.8,4.7,4.3c11.8,11.3,22.8,23.5,33.6,35.8
		c14.5,16.7,29,33.4,43.5,50.1c5.2,6,10.3,12,15.5,17.9c5.1,5.8,10.4,11.5,16.3,16.6C452.6,662.5,452.6,662.6,452.9,663.2z"/>
        <path d="M310.8,352.9c-3.2-7.1-6.3-14.2-9.6-21.6c2.4-0.3,4.7-0.6,7.2-0.9c1,7.5,1.9,14.9,2.9,22.2
		C311.2,352.7,311,352.8,310.8,352.9z"/>
        <path d="M147.8,731.2c1.4-3.7,2.6-7,3.9-10.2c2.7-6.3,5.2-12.7,8.2-18.8c16.1-32.3,32.3-64.6,48.5-96.8
		c6.4-12.6,13.1-25.1,19.4-37.7c6.8-13.6,13.3-27.3,19.8-41c8.9-18.8,17.2-37.8,23.4-57.6c3.8-12,7.4-24,10-36.2
		c1.4-6.3,2.2-12.7,3.2-19.1c0.2-1.1,0.2-2.2,0.1-3.3c-0.2-1.9,0.5-3.3,1.7-4.8c2.7-3.2,5.3-6.4,7.9-9.7c0.7-0.9,1.3-1.8,1.7-2.9
		c0.6-1.5,0.1-2.1-1.6-2.1c-1.2,0-2.3,0.3-3.6,0.4c2.2-4.3,6.5-7.1,8.3-11.6c-1.1-1.2-2-0.7-3-0.2c-2.8,1.5-5.7,3-8.5,4.4
		c-0.4,0.2-0.8,0.4-1.6,0.8c0-4.3,0.5-8.5-0.7-12.5c-1.2,4.3-0.7,8.7-0.5,13.2c-1.3,0.8-2.7,1.7-4.1,2.6c0.2,1.1,0.8,1.2,1.6,0.8
		c1.9-0.9,3.9-1.9,5.8-2.8c1.3-0.6,2.6-1.2,4.1-1.4c-1.9,2.5-3.8,5-5.8,7.5c-0.5,0.6-1,1.2-1.5,1.8c-0.6,0.7-0.3,1.3,0.1,2
		c0.5,0.7,1.1,0.8,1.9,0.4c1.3-0.7,2.7-1.3,4.1-1.7c-4.6,6.1-9.4,12.1-13.7,18.4c-4.3,6.3-8,13-10.8,20.1
		c5.3-7.3,10.3-14.8,15.7-21.9c0.2,0.1,0.3,0.1,0.5,0.2c-0.3,2.3-0.6,4.6-1.1,6.9c-6.3,32.5-16.6,63.7-30.6,93.7
		c-2.3,4.8-4.5,9.7-6.8,14.6c-0.3,0.6-0.7,1.2-1.1,2.1c-2.9-8.2-5.4-16.1-7.5-24.2c-2.4-9.1-3.7-18.4-5.2-27.7
		c-1.3-8.5-2.3-17-3.5-25.6c-1.4-9.9-2.8-19.7-4.2-29.6c-0.1-0.5-0.1-0.9-0.1-1.5c0.5-0.2,1-0.4,1.6-0.5c8.5-1.8,17-3.6,25.5-5.4
		c6.9-1.4,13.8-2.8,20.7-4.1c0.9-0.2,1.7-0.3,2.6-0.4c2.5-0.4,3.3-1.2,3.4-3.8c0.1-1.8,0.1-3.5,0-5.3c-0.2-2.6-0.5-5.2-0.8-7.8
		c0-0.4-0.1-0.9,0.1-1.2c1.1-2.2,0.7-4.5,0.7-6.8c0.2-7.3,0.4-14.7,0.7-22c0.3-7.4,0.6-14.8,0.9-22.2c0.2-4.4,0.2-4.4,2.3-7.7
		c4.2,0,8.5,0.2,12.9-1c7.7,14.7,14.7,29.9,22,45.1c-4.2,4.4-6.8,9.8-9.1,15.3c-0.5,1.2-0.7,2.6-1.1,3.9c-0.3,0.9-0.1,1.7,0.8,2
		c0.7,0.3,1.5,0.3,2.2,0.2c0.4,0,0.8-0.5,1.2-0.8c4-2.8,8.1-5.7,11.5-9.6c1.3,2.4,2.5,4.5,3.7,6.8c-1.7,1.8-3.4,3.7-5.2,5.5
		c-3.5,3.6-7,7.2-10.7,10.6c-3.2,3-5.9,6.3-8.5,9.6c1.7,2.2,3.1,2.8,5.5,1.8c2.5-1,4.9-2.3,7.2-3.7c2.5-1.5,4.8-3.4,7.2-5.1
		c0.6-0.5,1.3-0.9,2.3-1.1c-1,1.5-2,3-3,4.4c-2.1,2.7-4.2,5.2-6.3,7.8c-0.5,0.6-0.9,1.1-1.3,1.7c-1.3,1.9-1.4,2.9-0.6,3.9
		c1.1,1.4,3,1.9,4.8,1.1c1.2-0.5,2.3-1.1,3.4-1.7c0.4-0.2,0.8-0.4,1.6-0.7c0.1,2,0.2,3.8,0.3,5.6c0.4,5.6,0.9,11.1,1.2,16.7
		c0.3,4.9,0.5,9.9,0.7,14.8c0.3,5.5,0.6,11,0.8,16.5c0,1.7-0.1,3.3-0.4,5c-1.3,7.8-2.6,15.6-4.1,23.3c-3.2,16.9-8.6,33.2-14.7,49.2
		c-9.2,24.5-19.5,48.6-29.5,72.8c-10.2,24.5-20.8,48.9-30,73.9c-5.5,14.9-10.8,29.9-16,44.9c-1.7,4.9-2.6,10-3.8,15.1
		c-0.2,0.9-0.3,1.9-0.4,3c-0.6-0.2-1.2-0.3-1.8-0.6c-8-3.2-16-6.3-24-9.7c-7.6-3.2-14.8-7.3-21.9-11.5c-7.1-4.1-14.4-8-21.5-12.1
		C152.8,734.6,150.3,732.8,147.8,731.2z M285.1,351.2c-1.2,2.6-1.1,11.5,0,16.4C286.2,362.1,285.6,356.9,285.1,351.2z M293.2,348.3
		c1-4.4,0.5-8.8-0.3-13.5C291.5,337,291.8,344.8,293.2,348.3z M291.2,362.9c2.7-2.8,3.4-6.6,1.9-9.7
		C292.1,356.4,291.4,359.3,291.2,362.9z M285,334.2c-1,1.7-0.9,8.5,0.2,10C285.6,341.6,285.5,335.8,285,334.2z"/>
	</g>


        <path class="st1" d="M324.6,498.1c0.3,2.2,0.6,4.4,0.9,6.6c0.3,1.9,0.8,2.5,2.7,2.8c4,0.7,8,1.5,12.2,2.3
		c-1.2,7.1-2.2,14.3-3.5,21.4c-3.3,17.3-8.2,34.3-13,51.2c-6.1,21.7-12.4,43.4-18.6,65.1c-5.5,19.3-10.3,38.9-14.7,58.5
		c-4.6,20.4-9.3,40.8-13.8,61.2c-1.5,6.8-2.5,13.8-3.8,21c-2.5-0.8-5.2-1.6-7.7-2.6c-5.4-2-10.8-3.8-16.6-4.5
		c-0.7-0.1-1.4-0.3-2-0.6c-5.9-3.3-11.7-6.9-18.3-9c0.4-6.8,2.1-13.2,4.3-19.4c8.2-22.8,16.3-45.5,25.5-67.9
		c11.3-27.3,22.7-54.6,33.9-81.9c7.8-19,15.3-38.1,21.6-57.6c4-12.2,6.8-24.6,8.9-37.2c0.5-3.1,1-6.3,1.5-9.4
		C324.4,498.1,324.5,498.1,324.6,498.1z"/>
        <path class="st1" d="M296.4,65.9c-2-0.8-3.2-2.3-4.4-3.7c-5.7-6.3-11-12.8-17.5-18.4c-3.2-2.8-6.1-6.1-9.1-9.2
		c-0.8-0.8-1.5-1.7-3-1.3c-0.2,0.6-0.5,1.3-0.5,2c-0.7,7.5-3.8,14.2-7.6,20.5c-3.4,5.6-7,11.1-10.3,16.7c-1,1.7-1.5,3.7-2.4,5.5
		c-1.5,2.8-0.7,5.5,0.2,8.3c2.8,8.5,6.9,16.3,11.6,23.9c2.8,4.5,6.7,7.9,10.9,11c3.9,2.8,8.1,5,13.2,5.4c0,5.8,0,11.4,0,17.4
		c-2.5-2.2-4.8-4.1-7-6.1c-3.2-3-6.2-6.2-9.5-9.1c-5.9-5.3-10.3-11.7-13.5-19c-2.6-6.1-5.4-12.1-8-18.2c-2.7-6.2-3.8-12.8-4.8-19.5
		c-0.9-6-0.3-11.9,0.9-17.8c1.5-7.2,2.8-14.4,4.4-21.5c0.7-3.3,2-6.4,4.2-9.1c1.7-2.2,3.8-3.8,6.5-4.7c3.3-1.1,6.7-1.8,10.1-1.5
		c1.4,0.1,2.4-0.4,3.5-1c3.2-1.6,6.3-3.4,9.7-4.6c8.2-2.9,16.5-2.2,24.7,0.2c5.5,1.6,9.9,4.8,13.8,8.7c5.7,5.8,10.8,12,14.1,19.5
		c4.7,10.8,8.5,21.9,9.7,33.7c0.9,8.3-0.1,16.4-2.5,24.4c-2.7,9.2-6.1,18.2-10.4,26.8c-8.6,17.4-13.9,35.8-18.6,54.5
		c-1.3,5.2-2.6,10.4-2.6,15.8c0,1-0.4,2-0.6,3.2c-4.8,0.2-9.6,0.4-14.1,2.5c-1.1-2.5-1.5-5-1.8-7.5c-0.9-6.6-0.7-13.2-0.5-19.8
		c0.4-11.8,3.2-23,7.3-34c3.3-8.7,6.4-17.5,9.7-26.3c1.3-3.4,1.5-7,1.9-10.5c0.1-0.8,0.3-1.7,0.6-2.5c2.4-5.5,3.8-11.3,4.5-17.3
		c0.2-1.5-0.2-3-0.5-4.5c-0.2-0.9-0.2-1.5,0.4-2.2c4.7-5.3,3.3-11.1,1.2-16.8c-0.7-1.9-2.7-2.6-4.8-2.1c-1.8,0.4-3.3,1.3-4.5,2.6
		C299.7,61.9,298.1,63.8,296.4,65.9z"/>

        <g class="st1">
			<path d="M261.8,264.6c-2.3,1-2.7,1.1-3.6-1.1c-2.7-6.4-5.6-12.7-7.9-19.2c-5.4-15.1-10.5-30.3-15.9-45.4
		c-2.8-8-6-15.8-9.1-23.7c-3.5-8.8-6-18-8.6-27.1c-0.3-1-0.6-1.9-0.7-3c3.1,2.7,6.2,5.1,7.7,9.3c5.9,17,10.8,34.2,17.4,50.9
		c5.5,14,10.9,28.1,16.5,42.1c0.9,2.2,1.4,4.5,1.9,6.9C260.2,257.6,261,261,261.8,264.6z"/>
            <path d="M285.5,304.5c0.4,0.7,0.7,1,0.9,1.5c4.8,9.8,9.6,19.6,14.3,29.5c3.7,7.9,7.1,15.9,10.7,23.8
		c4.4,9.6,9.1,19,14.7,27.9c2,3.2,1.9,3.2-0.8,6.2c-1.2-2.2-2.5-4.3-3.5-6.5c-4.8-9.9-9.5-19.9-14.3-29.8c-3.9-8.1-8-16.2-12-24.3
		c-2.5-5.1-4.9-10.2-7.3-15.3c-0.2-0.4-0.3-0.8-0.5-1.1c-2.2-2.9-2.6-6.4-2.7-9.9C285,306,285.3,305.4,285.5,304.5z"/>
            <path d="M387.4,407.4c-3.8,1.3-7.4,2.5-11.2,3.8c-0.8-1.5-1.5-2.9-2.4-4.7c0.3-0.1,0.6-0.2,0.9-0.3
		c3.1-1.4,6.3-2.8,9.8-2.7c2.3,0,2.3,0,2.8,2.3c0.1,0.3,0.1,0.6,0.2,0.9C387.5,406.9,387.5,407.1,387.4,407.4z"/>
            <path d="M350.7,505.9c-0.8-4.1-1.7-7.8-2.4-11.5c-1.6-9-3.1-18-4.7-27.1c-1.1-6.7-2.1-13.4-3.4-20
		c-1.3-6.7-2.9-13.4-4.4-20.1c-0.3-1.4-0.3-2.5,1.5-3.5c0,0.1,0.1,0.5,0.3,0.7c1.7,2,2.8,2.2,4.6,0.4c3-3.1,5.9-6.3,8.5-9.7
		c7.1-9.2,12.4-19.3,16.2-30.3c0.4-1.3,1-2.5,1.6-4.1c0.6,0.5,1.2,0.8,1.4,1.2c1.7,4.9,3.5,9.8,5,14.7c0.6,2,0.8,4.2,1.2,6.6
		c-0.1,0.1-0.6,0.4-1,0.7c-0.7,0.5-1.8,0.8-2.1,1.5c-0.4,0.8-0.3,2-0.1,2.9c0.4,2.5,1.2,4.9,4.2,5.9c0,2.8,0,5.6,0,8.4
		c0,0.7,0.2,1.7,0.6,2.2c2.5,2.4,5.7,3.7,8.8,5.2c1.2-1.9,2.4-3.5,3.2-5.3c0.4-1,0.3-2.3,0.1-3.5c-0.4-2.6-1.1-5.2-1.6-7.7
		c-0.1-0.6-0.2-1.2-0.2-2.1c2.6-0.3,2.8-2.1,2.6-4.2c-0.2-2.6-1.2-4.7-2.8-6.8c-0.3-0.5-0.7-1-0.8-1.6c-0.5-3.8-0.9-7.6-1.5-11.4
		c-0.7-4.5-2.6-8.7-4.3-12.9c-0.3-0.7-0.6-1.3-0.9-2.2c1.3-0.2,2.3-0.5,3.4-0.5c7.9-0.3,15.3-2.4,21.9-6.8c0.2-0.2,0.6-0.2,1.1-0.5
		c0.6,2.7,1.3,5.2,1.8,7.7c1.8,9.2,3.6,18.3,5.1,27.5c0.7,4.2,1,8.4,1.3,12.6c0.5,5.2,0.9,10.5,1.2,15.7c0.3,6,0.4,12.1,0.6,18.2
		c0.1,2.5,0.1,5-0.1,7.4c0,0.8-0.3,1.8-0.8,2.3c-5,5.2-10.1,10.2-15.2,15.3c-6.6,6.6-14.2,11.9-21.9,17c-7.5,5-15.2,9.8-22.8,14.6
		C354.4,504,352.7,504.8,350.7,505.9z"/>
	</g>


        <g class="st1">
			<path d="M510.4,690.5c2.7-0.8,4.9-1.5,7.4-2.2c2.8,5.1,5.6,10,8.2,14.8c-1.7,1.1-3.3,2.2-5.2,3.5
		c-0.9-0.4-1.6-1.4-2.1-2.6c-0.5-1.2-1.1-2.5-1.5-3.8C515.9,696.5,513.9,693.3,510.4,690.5z"/>
            <path d="M128.1,861.6c-0.1-2.8,0.9-4.5,3.1-5.7c3.2-1.8,6.6-3.2,10.1-4.3c1.8-0.5,3.7-1.1,5.7-1.7
		c-0.2,2.9-0.5,5.8-0.7,8.9C140.4,860.1,134.2,860.3,128.1,861.6z"/>
            <path d="M459.8,660.4c3.9,3.9,7.8,7.6,11.5,11.5c4.5,4.8,9.2,9.3,14.3,13.5c2.4,2,4.9,3.9,7.2,6
		c3.4,3.1,7.3,3.4,11.4,2.4c1.8-0.5,3-0.2,4.3,1c1.6,1.4,2.6,3,3.4,4.9c0.6,1.3,1,2.7,1.6,4c1.8,4.7,5.1,8.1,9.7,10
		c0.7,0.3,1.3,0.6,2,0.8c4.4,1.7,8.3,4,11.8,7.1c7.1,6.3,12.5,13.7,15,22.9c0.8,3.1,1,6.4,1.4,9.7c0.1,0.4-0.1,0.9-0.2,1.6
		c-1.6-0.6-2.4-1.8-3.3-2.8c-2.7-2.8-5.4-5.7-8-8.6c-8.2-9.3-18.6-15.3-29.9-19.7c-7.1-2.8-14.3-5.5-21.6-8
		c-10.8-3.6-20.7-8.8-29.7-15.7c-5.3-4-10.6-8-15.2-12.9C450.1,678.9,454.9,669.8,459.8,660.4z"/>
            <path d="M160.5,742.2c10,6,19.8,11.9,29.7,17.8c-3.1,5.6-6.8,10.9-11,15.9c-7.7,9.3-15.4,18.5-23.2,27.8
		c-1.1,1.3-1.5,2.7-1,4.2c0.7,2.4,1.3,4.8,2.3,7c1.4,3.1,1.5,6.1,0.5,9.3c-1.7,5.8-4.3,11.2-7.6,16.2c-1.9,2.9-4.5,4.9-7.9,5.8
		c-4.3,1.1-8.5,2.3-12.3,4.7c-3.1,1.9-6.1,4.1-8.8,6.6c-4.4,4-8.9,8.1-12.4,13c-1.6,2.3-3.7,4-6,5.4c-5,3-10,6-15.2,8.6
		c-6.6,3.3-13.7,4.6-21,5.2c-3.9,0.3-7.8,0.3-11.7,0.5c-1,0-2.1,0-2.8-1.2c0.5-1.5,1.7-2.4,2.9-3.2c4.1-3,8.5-5.8,12.4-9
		c6.4-5.2,12.6-10.6,18.8-16c3.4-2.9,6.6-6.1,9.7-9.2c10.9-10.8,20.9-22.4,29.7-35c5-7.1,10.2-14.2,14.6-21.7
		c7.2-12.2,12.2-25.3,16.4-38.8C158,751.6,159.1,747,160.5,742.2z"/>
	</g>
        <path class="st1" d="M462.5,637.2c-2.2,7.6-4.8,15.2-8.3,22.8c-0.7-0.7-1.3-1.2-1.8-1.7c-7.5-7.1-14.1-15-20.8-22.8
		c-11.6-13.4-23.1-26.8-34.7-40.2c-8.8-10.2-17.5-20.5-26.6-30.5c-9.2-10.2-18.7-20.1-29.4-28.8c-1.1-0.9-1.3-1.8-1.2-3.1
		c1-7.2,2-14.5,2.9-21.8c0.2-1.8,0.3-1.9,2-2.1c0.9-0.1,1.7-0.2,2.8-0.3C380.8,555.8,418.8,599,462.5,637.2z"/>

        <g class="st1">
		<path d="M316,379.1c1.3,2.6,2.3,4.8,3.5,7.1c-3.6,1.1-5.4,4.4-8.3,6.3c-0.9,0.6-1.7,1.3-2.8,1.8
		C309.9,388.9,312.4,384,316,379.1z"/>
            <path d="M287.9,292.7c-7.1-6.5-11.6-14.4-15-23c-0.2-0.5-0.3-0.9-0.5-1.3c-1.8-3-1.4-6-0.2-9.2
		c1.5-4.1,3.8-7.7,6.3-11.3c0.8-1.2,1.8-2.4,3-4.1c-0.3,5-1.1,9.3,0,14c8.1-3,15.9-6.1,23.7-9.2c7.9-3.2,14.8-8,22-12.3
		c0.1,0.1,0.2,0.3,0.3,0.4c-0.4,0.6-0.8,1.3-1.3,1.9c-3.7,4.3-7.4,8.6-11.2,12.8c-3.2,3.5-7.1,6.2-11.4,8.2c-2.5,1.2-5,2.4-7.5,3.7
		c-1.5,0.7-3,1.4-3.8,3.3c1-0.2,2-0.2,2.8-0.6c5.1-2.5,10.2-4.9,15-7.8c2.9-1.8,5.7-3.8,8.8-5.4c4.1-2.2,7.8-4.9,11.2-8.2
		c1.2-1.2,2.5-2.2,4.2-3c-0.1,0.4-0.2,0.8-0.4,1.1c-3,4-5.8,8-9,11.8c-2.9,3.4-6.2,6.5-9.5,9.5c-1.7,1.6-3.7,2.7-5.6,4.1
		c-1.4,1-2.7,2.2-4.3,3.5c1.6,0.4,2.4-0.1,3.1-0.6c3.4-2.5,6.8-5,10.2-7.6c1-0.7,1.9-1.5,2.9-2.1c3-1.6,6.1-3.2,9.2-4.7
		c2.6-1.3,5.3-2.1,8.6-2.8c-2.9,4.2-6.5,7-9.9,10s-6.9,5.9-10.5,8.8c-3.5,2.8-7.8,4.5-11.4,7.2c0.8,1.2,1.5,0.8,2.2,0.6
		c1.5-0.6,2.9-1.2,4.4-1.8c4.5-1.7,9.2-2.4,14.1-2.7c3.9-0.2,7.8-0.6,12.2-0.9c-1.5,1-2.5,2-3.7,2.6c-2.1,1-4.2,1.9-6.4,2.6
		c-6,2.1-12,4-17.9,6.1c-7.4,2.6-14.9,4.7-22.6,6.2C289.2,292.4,288.6,292.5,287.9,292.7z"/>
            <path d="M342.8,387.7c-1.8,0-2.9,1-3.9,2c-1.2,1.2-2.3,2.5-3.3,3.8c-7.3,9.5-16.6,16.8-26.5,23.4
		c-0.6,0.4-1.2,0.7-1.9,1c-0.2,0.1-0.4,0.1-1.2,0.1c1.1-1.2,1.8-2,2.6-2.8c5.1-5.1,10.2-10.2,15.2-15.2c2.9-2.9,5.8-5.7,7.6-9.5
		c1.4-2.9,2.8-5.9,4.1-8.9c0.5-1.1,0.5-2.3,0.2-3.5c-0.7-2.3-1.8-3-3.9-1.9c-2,1.1-3.9,2.5-5.8,3.8c-0.4,0.3-0.8,0.5-1.5,1
		c-1.2-2.2-2.4-4.3-3.5-6.4c4.7-4.4,8.3-9.5,12.5-14c2.6-2.8,5.3-5.5,8.6-8c6.5,10.6,15.3,18.8,24.6,26.9c-3,3.7-4.4,8-6.2,12.1
		c-4.4,9.8-9.9,19-16.6,27.4c-0.9,1.2-2,2.3-3,3.4c-0.4,0.5-0.9,0.9-1.4,1.3c-1.5-1.2-1.5-1.2-0.5-2.5c1.7-2.2,3.4-4.4,5.2-6.6
		c2.9-3.7,4.6-8,5.7-12.5c0.1-0.3,0-0.6,0-1.1c-1,0.2-1.5,0.9-2,1.5c-1.3,1.8-2.6,3.6-3.8,5.5c-4.4,6.8-9,13.3-14.8,19
		c-1,1-2.1,1.8-3.6,3c0.6-3.3,1.4-5.8,3.5-8c6.1-6.2,11.7-12.9,16.4-20.3c1.1-1.7,1.9-3.7,2.7-5.6c0.3-0.7,0.3-1.5,0.4-2.3
		c-0.1-0.1-0.3-0.2-0.4-0.3c-0.7,0.6-1.5,1.1-2,1.8c-1.3,1.6-2.6,3.2-3.8,4.9c-4.9,7.1-10.2,13.9-16.3,20.1
		c-3.2,3.2-6.8,5.8-10.9,7.8c-0.3,0.2-0.7,0.3-1.5,0.6c0.5-0.9,0.8-1.5,1.2-1.9c4-5.5,7.9-11,10.9-17.2c0.4-0.8,1.2-1.5,1.8-2.2
		c4.1-3.9,8.2-7.9,11.6-12.5C341,392.8,342,390.5,342.8,387.7z"/>
            <path d="M285.5,155.4c-1.9-2.8-3.9-5.5-5.7-8.3c-0.4-0.6-0.6-1.5-0.6-2.2c0-2.5,0.2-4.9,0.3-7.4c0-3.5,0-7,0-10.6
		c0.7-0.2,1.2-0.5,1.6-0.4c2.3,0.5,4-0.7,5.5-2c4.7-4.1,8.9-8.5,12.3-13.7c0.9-1.4,1.9-2.8,3.3-4c-0.2,0.8-0.2,1.7-0.5,2.5
		c-1.7,4.7-3.4,9.5-5.2,14.2c-3.5,9.3-7.3,18.5-10,28.2C286.2,153,285.8,154.3,285.5,155.4z"/>
            <path d="M252.2,104.2c1.1-0.6,2.2-1,3.2-1.7c3.1-2,2.9-5.5,2.2-7.7c-0.7-2.1-3.8-3.5-6.4-3.1c-0.8,0.1-1.5,0.4-2.3,0.7
		c-0.6,0.3-1.2,0.7-1.9,1.1c-0.2-0.3-0.5-0.6-0.6-0.8c-1.3-3.5-2.7-7-4-10.5c-0.4-1.1-0.3-2.1,0.4-3.2c2.2-3.3,4.3-6.7,6.5-10.1
		c2.5,0.5,4.8,0.9,7,1.3c1.9,0.4,3.9,0.7,5.9-0.5c-3.2-2.8-6.6-4.1-11.2-3.2c1.5-2.6,2.7-4.7,4-6.8c2.7-4.2,5.1-8.7,6.7-13.5
		c0.9-2.8,1.4-5.7,2.1-8.6c0.1-0.5,0.3-1.1,0.5-2c1.9,2,3.5,3.8,5.3,5.6c1.8,1.9,3.7,3.8,5.5,5.6c3.3,3.4,6.7,6.8,10.3,10.6
		c-1,0.4-1.6,0.7-2.3,0.9c-2.8,0.9-4.9,2.6-6.5,5c-1,1.5-1,1.6,0.4,3.3c0.3-0.2,0.7-0.3,1-0.5c1.8-1.8,4-3.2,6.4-4
		c1-0.4,1.9-1.1,3.1-1.8c0.8,0.8,1.7,1.8,2.6,2.7c1.2,1.3,2.3,2.6,3.7,3.7c1.9,1.5,2.8,1.3,4.6-0.3c1.4-1.4,2.8-2.9,4.3-4.2
		c0.9-0.8,2-1.4,3-1.8c1.5-0.7,2.5-0.3,3,1.3c0.9,2.6,1.4,5.2,1.1,8c-0.2,1.7-0.9,3.1-2.1,4.2c-1.9,1.9-2.2,4-0.8,6.3
		c0.6,1,0.6,1.9,0.5,3c-1.5,12.6-7,23.3-15.2,32.7c-2.2,2.5-4.6,4.8-7,7.2c-1.3,1.4-2.8,2.1-4.9,1.9c-4.7-0.5-9.2-1.4-13.3-4.2
		c-6.1-4.1-11.1-9.1-14.4-15.7C252.5,104.7,252.3,104.4,252.2,104.2z M262,82.5c-0.7-2.7-3-3.5-5.3-4.1c-4.3-1.2-8.4,0.3-12.2,2
		c-1.1,0.5-1.2,1.4-0.3,2.3c2.4,2.5,5.2,4.2,8.6,4.8c3.3,0.6,5.9-0.7,7.9-3.3C261.1,83.7,261.5,83.2,262,82.5z M292.5,67.6
		c-1.1,0.1-2.3,0.2-3.4,0.5c-5.6,1.5-8.4,6-11.2,10.5c-0.5,0.9,0,1.9,1.1,2.2c0.8,0.2,1.6,0.3,2.3,0.3c5.5-0.2,8.8-1.7,11.1-8.6
		C293,71,293.6,69.4,292.5,67.6z M283.7,104.2c-3.4-2.7-6.8-1.9-10.2-0.5c-1.4,0.5-4.2,4.9-4.4,6.6c1.2,0.5,2.3,0.9,3.5,1.3
		c4.6,1.5,8.9-0.3,10.4-4.4C283.4,106.2,283.5,105.1,283.7,104.2z M303.6,83.6c0.2-1.5-0.3-2.7-1.5-3.8c-2-1.8-5.7-2.2-8.1-0.9
		c-2.5,1.3-3.7,3.8-3.4,6.8c0.4,3.5,4.5,6.1,7.8,5.1C300.5,90.2,304.1,86.3,303.6,83.6z M269.7,94.9c0.8,1.9,1.2,2.2,2.9,2.2
		c1.9,0,3.4-1,4-2.8C274.3,94,271.9,93.7,269.7,94.9z"/>
</g>


        <g class="st1">
		<path d="M282.4,255.7c0.5-11.3,1-22.6,1.5-34.1c9.1,2.4,18.3,3.2,27.5,4c9.2,0.9,18.4,1,27.9-0.4
		c-0.5,4.2-1.1,8.2-1.6,12.2c-3.5,0.9-5.9,3-8.4,5.1c-2.8,2.5-5.8,4.8-8.7,7.1c-0.4,0.3-0.9,0.5-1.7,0.5c1.6-1.9,3.2-3.8,4.7-5.7
		c2.2-2.6,4.5-5,5.9-8.1c0.4-0.8,0.6-1.7,1.1-3.1c-1.1,0.2-1.8,0.1-2.4,0.4c-2.8,1.3-5.8,2.5-8.3,4.2c-6.4,4.3-13.4,7.5-20.4,10.6
		c-5.4,2.4-10.8,4.8-16.2,7.2C283.2,255.8,283,255.7,282.4,255.7z"/>
            <path d="M327.9,283.1c-1.6,7-3.9,13.2-5.9,19.4c-5.9,1.8-27.6,1-32.8-1.4c0.2-2,0.3-4,0.5-6.3
		C302.9,292.7,315,287.7,327.9,283.1z"/>
            <path d="M324.2,257.6c5.1-5.4,9.2-10.9,13-16.7c-0.3,1.9-0.6,3.8-0.9,5.8c-0.2,1.4-0.4,2.8-0.6,4.2
		c-0.1,0.8-0.3,1.5-1.2,1.9C331.2,254.3,328,255.9,324.2,257.6z"/>
            <path d="M319.3,274.7c4.4-3.7,8.8-7.5,13.6-11.6c-0.9,3.8-1.6,7-2.3,10.3C326.8,273.9,323.1,274.3,319.3,274.7z"/>

</g>
        <path class="st1" d="M348,505.4c-4.1,0.5-8,1.4-12,0.5c-2.1-0.5-4.2-0.8-6.4-1.1c-1.2-0.2-1.8-0.6-2-1.9c-0.5-4.7-1.2-9.3-1.5-14
		c-0.5-5.9-0.7-11.8-1-17.7c-0.5-7.2-0.9-14.5-1.5-21.7c-0.5-6.1-1.1-12.2-1.7-18.3c-0.1-1,0-1.9,0-3.1c0.7-0.5,1.6-1.2,2.8-2
		c-0.4,1.5-0.7,2.8-1,4c-0.2,0.8-0.3,1.6,0.6,2.1c0.8,0.4,1.6,0.9,2.5,0.2c1.7-1.2,3.4-2.4,5.1-3.6c0.8-0.6,1.5-1.2,2.3-2
		c0.2,0.6,0.5,1,0.6,1.4c3.6,17.5,5.9,35.2,8.8,52.8c1.2,7.3,2.7,14.6,4.1,21.8C347.7,503.7,347.8,504.4,348,505.4z"/>


        <g class="st1">
		<path d="M285.8,315.6c2,4.7,4.1,9.3,6.2,14.2c-3.7,0.5-7.2,0.9-11.1,1.4c2.6-5.1,3.6-10.2,4.2-15.5
		C285.3,315.6,285.5,315.6,285.8,315.6z"/>
            <path d="M288.2,295.9c-0.2,1.6-0.5,3.1-0.7,4.7c-0.3,2,0,2.9,2,3.3c3.6,0.8,7.2,1.3,10.8,1.8c2,0.3,3.9,0.3,6,0.5
		c0.6,7.2,1.2,14.2,1.8,21.5c-2.6,0.5-5.2,1-7.9,1.5c-1.8-3.4-3.5-6.8-5.2-10c-2.6-4.9-5.2-9.9-7.9-14.7c-1-1.8-1.2-3.3-0.7-5.2
		c0.4-1.2,0.7-2.4,1.1-3.5C287.8,295.8,288,295.9,288.2,295.9z"/></g>


        <path class="st1" d="M339.6,222.7c-19.7,1.3-39.2,0-58.6-4.7c0.4-1.9,1.3-3.2,2.4-4.6c0.3,0.1,0.6,0.1,0.9,0.2
		c5.7,2.3,11.7,3.2,17.7,3.9c6.4,0.7,12.9,1.1,19.4,1.1c5.6,0,11-0.3,16-3.5C339.3,217.2,340.9,219.4,339.6,222.7z"/>
        <path class="st1" d="M288.5,203.1c2.8-1.2,5.5-1.9,8.3-2.1c10.1-0.8,20,0,30,1.7c1.2,0.2,2.3,0.5,3.5,0.9c0.5,0.2,0.9,0.6,1.1,1.1
		c0.9,2,0.4,2.9-1.7,3.5c-0.8,0.2-1.5,0.4-2.3,0.5c-11.4,1.2-22.6,0.3-33.6-2.6C291,205.3,290.3,204.9,288.5,203.1z"/>
        <path class="st1" d="M334.2,207.6c2.3,1.9,2.3,3.9,1.3,6.2c-3.1,1.4-6.4,2-9.9,2.1c-9.9,0.3-19.8-0.6-29.6-2
		c-3.9-0.6-7.9-1.3-11.8-3.2c1.2-1.7,2.3-3.2,3.3-4.7c3.2,1,6,2.2,9,2.8c5,1,10,1.8,15.1,2.2c4.7,0.4,9.4,0.2,14.1,0
		C329,211.1,332.1,210.6,334.2,207.6z"/>

        <g class="st1">
			<path d="M371.4,381c1.3-1.2,2.7-2.3,3.9-3.5c1.2-1.3,2.1-2.7,3.2-4.1c4.1,8.4,5.4,17.6,6.4,27.1
		c-2.4,0.7-4.7,1.3-7.3,2c0.2-3.9-0.6-7.6-1.9-11.1C374.3,388,372.8,384.6,371.4,381z"/>
            <path d="M378.8,413.7c2.2-0.7,4-1.4,6.2-2.1c0.3,1.1,0.5,2.1,0.7,3c0.4,1.9,0.7,3.7,1.1,5.6c0.7,3.1,0.7,3.1-1.4,5.6
		c-0.3-0.1-0.7-0.2-1.1-0.4c-1.5-0.8-3.4-1.2-4.2-2.5c-0.8-1.2-0.5-3.2-0.7-4.8C379.1,416.7,379,415.3,378.8,413.7z M383.8,416.1
		c-0.5,0-1-0.1-1.5,0c-2.2,0.6-2.8,2.3-1.2,4.1c0.2,0.2,0.3,0.3,0.5,0.5c1.2,1.1,2.4,0.8,2.8-0.8
		C384.8,418.7,384.7,417.5,383.8,416.1z"/>
	</g>


        <g class="st1">
	 	<path d="M328.9,388.1c-1.1-1.9-2-3.3-3-5c1.9-1.4,3.9-2.7,6.6-3.7C331.3,382.5,330.2,385,328.9,388.1z"/>
            <path d="M209.2,419.6c-0.4-4.4-1.3-8.5-3.2-12.6c1.7-1.1,3.5-1.5,5.4-2c6.1-1.6,12.3-2.7,18.5-3.7
		c9.4-1.6,18.8-3.7,28.2-5.6c4.5-0.9,8.9-2,13.3-2.9c0.5-0.1,1.1-0.2,1.7-0.2c0,4.4,0,8.7,0,12.9
		C251.6,410.2,230.5,414.9,209.2,419.6z"/>
            <path d="M273.3,389.3c-5.1,1.1-10.2,2.3-15.2,3.3c-8.5,1.7-17,3.4-25.6,5c-3.6,0.7-7.3,1.1-10.8,1.9
		c-5.7,1.2-11.4,2.4-16.8,4.6c-0.4,0.2-0.9,0.2-1.5,0.4c-6-10.5-9.3-21.8-10.2-33.9c2.3-0.8,4.4-1.7,6.5-2.5
		c0.2,0.1,0.3,0.1,0.4,0.3c1.2,2.7,3.2,3.7,6.1,3.4c2.1-0.2,4.3,0.1,6.5,0.2c8.1,0.2,15.9-1,23.5-3.6c7.5-2.6,14.5-6.3,20.8-11.2
		c6.3-5,12.5-10.2,17.7-16.4c0.2-0.2,0.3-0.5,0.5-0.8c0.2,0.1,0.4,0.1,0.6,0.2c0,1.8,0.1,3.6,0,5.3c-0.3,4.4-0.6,8.7-0.9,13.1
		c-0.7,9.3-1,18.6-1,28C273.7,387.4,273.5,388.2,273.3,389.3z"/>
            <path d="M259.7,268.2c0.9,16.7,7.5,30.2,22.5,38.6c0.8,11.3-1.4,21.6-8.5,30.3c-7.4,9-16.1,16.6-26.2,22.6
		c-10.3,6.1-21.6,9-33.5,9.4c-3,0.1-6.1-0.2-9.1-0.2c-1,0-1.7-0.4-2.1-1.3c-0.1-0.3-0.3-0.5-0.4-0.8c-1.4-4.7-2.9-9.5-3.1-14.5
		c-0.4-10.4,1.3-20.5,3.9-30.5c2.8-11.1,6.5-21.9,11.7-32.1c3.2-6.3,7.1-12.3,10.7-18.4c2.1-3.6,5.3-5.7,9.3-6.1
		c7.9-0.8,15.8-0.9,23.4,2c0.4,0.1,0.7,0.3,1.1,0.5C259.4,267.9,259.5,268,259.7,268.2z"/>
            <path d="M261.9,267.3c2.6-0.9,5-1.8,7.6-2.8c0.5,1.6,1,3,1.5,4.5c2.4,7.5,5.9,14.5,10.9,20.6c0.9,1,1.8,2,2.8,3
		c0.8,0.7,1,1.5,0.8,2.4c-0.7,3-1.6,6-2.4,8.9c-0.2,0-0.4,0.1-0.5,0.1c-5.9-3.9-11.4-8.3-14.8-14.7c-1.3-2.4-2.2-5.1-3.1-7.7
		c-0.7-1.9-1.2-3.8-1.7-5.7c-0.3-1.4-0.4-2.8-0.6-4.2C262.2,270.3,262.1,269,261.9,267.3z"/>
            <path d="M198.9,364.9c-6.2,2.8-12.4,2.7-18.7,1c-15.5-4.2-27.5-13.2-35.5-27.2c-3.6-6.4-6.2-13.2-7.1-20.4
		c-1.2-9.4-0.7-18.8,2.5-27.8c0.8-2.3,1.6-4.7,2.5-7s1.3-2.5,4-2.3c4.4,0.3,8.8,0.7,13.1,0.6c5.7-0.1,11.3-0.5,17-0.9
		c4.7-0.3,9.3-0.8,14.4-1.2c-1,0.5-1.7,0.8-2.4,1.2c-8,4-15.3,8.9-22.3,14.4c-1,0.8-1,0.8-1.1,2.3c7-2.6,12.2-8,18.8-11.2
		c-2.3,2.3-4.8,4.5-7,7c-2,2.3-3.8,4.9-5.6,7.4c-0.8,1-0.7,2,0.3,3.2c0.5-0.4,1-0.8,1.4-1.2c5-5.7,10.6-10.9,16.4-15.7
		c7.3-6.1,15.6-10.5,24.6-13.7c2.4-0.9,5.1-1.1,8.1-1.8c-0.5,1-0.8,1.6-1,2.1c-4.1,7.1-8.5,14.1-11.7,21.7
		c-6,14.5-10.5,29.4-12.5,45c-1,7.9-0.9,15.8,1.5,23.5C198.7,364.2,198.8,364.6,198.9,364.9z"/>
            <path d="M159.1,181.6c5,2.5,9.8,4.8,14.5,7.3c7.3,3.9,13.9,8.8,20.1,14.3c8.4,7.5,15.6,16,22.1,25.1
		c6.3,8.7,9.4,18.6,11.3,29c0.4,2.2,0.2,4.5,0.2,6.7c0,1.3-0.8,2.2-1.5,3.2c-1.3,2.1-3,3.1-5.6,3c-4.7-0.1-9.1,1.7-13.3,3.7
		c-4,1.9-8.2,2.6-12.5,3c-5.4,0.6-10.8,1-16.2,1.3c-4.2,0.3-8.5,0.5-12.7,0.6c-2.6,0.1-5.3,0.3-7.9,0.2c-4.2-0.1-8.5-0.4-12.7-0.8
		c-1.8-0.2-2.9-1.6-3.5-3.2c-1.9-4.7-3.3-9.5-3.9-14.5c-0.8-6.4-1.2-12.9-0.8-19.3c0.3-5.5,1.2-10.9,2-16.3
		c1.8-12,7.1-22.6,13.4-32.8c1.8-2.9,3.7-5.8,5.6-8.7C158.2,182.8,158.7,182.2,159.1,181.6z"/>
            <path d="M220.2,230.8c8,0.8,15.2-0.2,22.4-2.3c4.4,11.7,8.8,23.2,13.2,34.7c-8.9-1.2-18-3-27.1,1
		c1-6-0.4-11.6-1.8-17.2C225.5,241.4,223.4,236.2,220.2,230.8z"/>
            <path d="M241.9,226.5c-3.3,1.1-6.7,1.9-10.2,2.2c-3.5,0.4-7,0.3-10.5,0.6c-1.5,0.1-2.3-0.5-3.1-1.7
		c-5.5-8.5-12-16.1-19.2-23.2c-8.6-8.4-18.2-15.6-29.2-20.6c-3.3-1.5-6.5-3.4-9.8-5.1c1.8-5.4,3.5-10.5,6.2-15.2
		c5.3-9,12-16.9,19.8-23.9c2.1-1.8,4.4-3.4,6.7-5c1.5-1,3.1-1.3,5-0.7c5.8,1.8,10.7,5,15.5,8.5c0.6,0.4,0.9,1.3,1.2,2
		c1.6,5.4,2.8,11,4.6,16.3c3.2,9.4,6.8,18.7,10.2,28.1c4.4,12.3,8.7,24.7,13,37C242,226,242,226.2,241.9,226.5z"/>
            <path d="M196.3,130.4c3.2-9.2,9.4-16.5,15.2-24.9c0.3,1.4,0.5,2.2,0.6,3c2.2,10.9,8.5,18.6,18.4,23.4
		c5.5,2.7,11,5,16.6,7.4c3.8,1.6,7.4,3.4,10.5,6.1c4.4,3.8,6.8,8.6,7.9,14.1c0.7,3.2,0.9,6.5,1.1,9.7c0.2,3.8,0,7.7,0,11.5
		c0.1,5.7,0.3,11.3,0.3,17c0,10-0.9,20-2.1,30c-0.7,5.5-0.9,11.1-1.2,16.7c-0.3,5.1-0.3,10.2-0.8,15.4c-0.5-2.7-1.1-5.5-1.5-8.2
		c-0.9-6-1.5-12-2.7-17.9c-1.7-8.2-3.8-16.3-6-24.4c-2.6-9.8-5.3-19.6-9.1-29c-4.7-11.6-11-22.3-19.4-31.7
		c-5.7-6.4-12.4-11.2-19.9-15.2C201.9,132.2,199.3,131.5,196.3,130.4z"/>
            <path d="M282.6,221.5c-0.2,3.1-0.4,6.2-0.6,9.4c-0.2,3.1-0.6,6.2-0.9,9.3c-0.1,0.5-0.3,1.1-0.6,1.5
		c-3.6,4-6.3,8.6-8.5,13.5c-1,2.2-1.5,4.7-2.4,7.3c-1.2,0.3-2.7,0.7-4.3,1.1c0-2.2-0.1-4.3,0-6.4c0.1-3.3,0.3-6.5,0.5-9.8
		c0.3-8.4,1-16.7,2.1-25c0.4-2.8,0.6-5.7,0.7-8.6c0.2-5.6,0.4-11.2,0.5-16.7c0-6.2,0-12.5-0.2-18.7c-0.1-5.2-0.4-10.4-0.9-15.5
		c-0.5-5.7-2.5-11.1-5.8-15.8c-3.6-5-8.5-8.1-14.2-10.2c-6.5-2.4-12.9-5.2-19-8.6c-9-5-14.2-12.7-15-22.8c-0.8-10,1.6-19.2,9-26.5
		c2.5-2.4,5-4.7,7.5-7.1c0.3-0.3,0.8-0.5,1.3-0.9c0.2,0.7,0.5,1.1,0.5,1.6c1.1,9.3,3.7,18.2,8,26.7c2.4,4.7,4.3,9.6,6.5,14.4
		c2.8,5.9,6.5,11.1,11.4,15.6c5.3,4.9,10.5,10.1,16.1,14.7c4.5,3.7,7.5,8.4,9.8,13.7c0.4,1,0.5,1.9,0.4,3c-0.5,4.3-1,8.7-1.2,13.1
		c-0.2,4.5-0.5,8.9-0.3,13.4c0.2,3.7,0.8,7.4,1.4,11.1c0.2,1.4,1,2.8,1.7,4.1c0.6,1.1,0.7,2-0.2,3c-1,1-1.9,2.2-2.8,3.3
		c-0.8,0.9-1.3,1.9-1.4,3.2c0,0.7-0.7,1.4-1.1,2c-1.1,1.6-2.4,3-2.2,5.2c0.1,1.6,0.2,1.7,1.8,1.9c0.5,0.1,1,0.1,1.4,0.2
		C281.9,221.1,282.1,221.3,282.6,221.5z"/>
            <path d="M320.8,137.2c1.1-2.4,2.2-4.9,3.3-7.3c5-11,9.8-22,12.8-33.7c1.5-6.1,2.4-12.2,2-18.5
		c-0.5-8.2-2.1-16.3-4.9-24c-2-5.5-4.2-11-6.3-16.5c-0.1-0.2-0.1-0.5-0.2-0.9c2.4-0.1,4.7,0.4,6.8,1.2c3.9,1.5,7.8,2.9,11.4,5
		c8.6,5.1,14.1,12.7,15.2,22.8c0.6,5.6-0.6,11.1-2.4,16.5c-3.7,11.2-9.9,20.9-17.1,30c-6.5,8.2-13.4,16.1-19.4,24.7
		c-0.3,0.4-0.6,0.7-0.9,1.1C321.1,137.3,320.9,137.2,320.8,137.2z"/>
            <path d="M363.2,74.2c7.4,5.2,14.2,10.8,20,17.6c2.8,3.3,5.6,6.5,7.8,10.3c1.9,3.1,3,6.5,3.7,10.2
		c-5.3,1.2-8.8,5-12.6,8.5c-8,7.5-15.5,15.4-22.8,23.6c-4.8,5.4-9.5,11-14.3,16.5c-6.5,7.5-11.6,15.8-15.6,24.9
		c-2.1,4.7-4.3,9.3-6.5,14c-5.8-0.5-11.8-1-17.8-1.5c-0.9-3.7-0.2-7.2,0.6-10.6c2.2-9.2,4.8-18.3,7.1-27.6c2-8,6-14.9,10.9-21.4
		c6.3-8.2,12.7-16.2,19.1-24.3c7.6-9.7,14.3-20,18-32C361.6,79.8,362.3,77.1,363.2,74.2z"/>
            <path d="M365.5,282.6c1.8-2.5,3.9-4.5,6.3-6.3c6.6-5,13.9-8.4,21.7-11c5.5-1.8,10.8-3.9,16.2-5.8
		c0.7-0.3,1.4-0.6,2.2-1c-2.3-0.8-7.9,0-17.1,2.4c-5.8,1.5-11.3,3.4-16.5,6.3c-5.1,2.9-9.8,6.2-14.3,10.9c0.3-2.4,0.5-4.3,0.7-6.2
		c0.5-5.1,0.9-10.2,1.3-15.2c0.5-6,1-12.1,1.5-18.1c0.3-3.6,0.7-7.1,0.8-10.7c0.4-7.2,0.7-14.5,1-21.8c0.1-1.4,0.7-2.4,1.8-3.2
		c8.4-6.1,16.9-12,26.2-16.9c8.5-4.5,16.9-9,25.4-13.4c2.8-1.5,5.8-2.7,8.9-4.2c0.2,0.8,0.5,1.3,0.5,1.9c0.4,5.4,1.8,10.5,3.3,15.6
		c2.9,9.5,6.7,18.6,10.7,27.6c2.8,6.3,5.6,12.7,7.2,19.5c1.2,5,2.2,10.1,3.4,15.5c-0.6-0.3-0.9-0.3-1.2-0.5
		c-3.2-2.7-6.9-4.5-10.9-5.8c-4.1-1.4-8-3.3-12.4-3.5c-2-0.1-3.9,0-5.9,0c0,0.2-0.1,0.3-0.1,0.5c0.4,0.2,0.9,0.5,1.3,0.6
		c3.4,1,6.9,2,10.3,3c2.6,0.8,5.1,1.8,7.7,2.6c4,1.2,7.4,3.5,10.4,6.2c0.6,0.5,1.2,1.3,1.2,1.9c0.3,6.2,0.7,12.5-0.8,18.6
		c-2.4,10-6.1,19.5-13.1,27.4c-2.5,2.8-5.4,5.1-8.2,7.7c-2.4,2.2-4.9,4.4-7.2,6.5c-6.6-2.4-13.2-4.6-19.6-7.1
		c-6.8-2.6-13.6-5.2-20.1-8.4c-5.7-2.8-11.4-5.8-16-10.4C370.5,285.9,368,284.5,365.5,282.6z"/>
            <path d="M362.7,285.6c1.7-0.1,2.9,0.8,3.9,1.6c1.9,1.5,3.7,3.3,5.6,4.9c1.8,1.5,3.6,3,5.5,4.2
		c5.1,3.2,10.5,6.1,16.2,8.3c6.1,2.3,12,4.8,18.1,7c3.4,1.3,7,2.1,10.5,3.2c0.9,0.3,1.9,0.5,2.7,0.9c1.8,0.9,2.9,2.2,3.2,4.4
		c0.5,3.7,0.1,7.2-1,10.6c-3.1,9.7-7.6,18.7-15.4,25.5c-7.7,6.8-16.3,11.7-26.9,12.2c-2,0.1-3.9,0.4-5.9,0.6
		c-0.9-3.2-3.1-5.6-5.4-7.6c-7.5-6.5-15-12.9-23.2-18.5c-1.6-1.1-3.4-2-5.5-3.1c0.2-0.8,0.4-1.8,0.8-2.8
		c5.5-14.6,10.7-29.2,14.9-44.2C361.5,290.4,362.1,288,362.7,285.6z"/>
            <path d="M376.5,371.6c-1.1,1.2-2.1,2.6-3.3,3.9c-1,1-2.1,1.9-3.2,2.9c-2.2-2-4.4-3.9-6.5-5.8c-2-1.8-4-3.7-6-5.5
		c-5-4.6-9.4-9.7-13.3-15.3c-0.7-1-1.2-2.2-1.9-3.3c0.6-1.8,1.2-3.5,1.9-5.5c4,2.9,8,5.5,11.7,8.5c5.7,4.5,11.2,9.2,16.7,13.9
		C374.5,367,376.1,368.9,376.5,371.6z"/>
            <path d="M430.7,166.5c-2.9,1.2-5.8,2.3-8.5,3.6c-14.5,7.1-28.9,14.3-42.5,23.1c-2.5,1.7-5,3.5-7.4,5.3
		c-1.8,1.3-3.5,2.1-5.8,2.4c-5,0.6-9.9,1.8-14.8,3c-4.7,1.2-9.3,2.8-14.2,4.3c-1-0.8-2.3-1.6-2.9-3.3c-0.2-0.8-1.2-1.5-2-1.9
		c-2.2-1-4.4-1.8-6.8-2.8c0.4-1,0.8-2.2,1.3-3.3c3-6.2,5.9-12.4,9-18.5c3-5.9,7.1-11.2,11.4-16.2c5.3-6.2,10.5-12.4,16-18.5
		c7.8-8.7,15.9-17.3,24.7-25.1c2.8-2.5,3.5-2.8,5.8-3.5c11.5,8.6,20.6,19.4,28.2,31.4C427.4,154.3,427.8,155.5,430.7,166.5z"/>
            <path d="M332.5,273.2c0.8-3.8,1.5-7.6,2.4-11.3c0.2-0.7,0.8-1.3,1.3-1.9c2-2.3,4-4.5,6-6.8c0.7-0.8,1.1-1.7,1.8-2.8
		c-2.7-0.3-4.5,1.4-7,1.3c0.2-1.6,0.5-3.1,0.7-4.7c0.8-5.9,1.6-11.8,2.4-17.8c0.3-1.9,0.3-3.8,1.5-5.6c1.3-2,1.4-4.4-0.2-6.5
		c-0.5-0.7-0.9-1.5-1.6-2.1c-1.1-1-1.7-2-1.4-3.5c0.1-0.5-0.1-1.1-0.1-1.8c9.2-3.3,18.7-5.5,28.6-6.9c-0.1,2.8-0.3,5.6-0.4,8.3
		c-0.2,4.2-0.3,8.5-0.6,12.7c-0.6,7.2-1.3,14.4-1.9,21.7c-0.5,6.4-1,12.9-1.5,19.3c-1,13.8-4,27.3-8.5,40.4
		c-0.3,0.9-0.7,1.5-1.7,1.7c-2.9,0.6-5.7,1.5-8.6,2c-9.7,1.7-19.5,2.7-29.3,2.7c-1.9,0-3.8-0.2-6-0.3c-0.2-1.6-0.4-3.1-0.7-5
		c1.1,0,1.9,0,2.8,0c3.4-0.2,6.8-0.4,10.3-0.5c2.2-0.1,3.2-1.3,3.7-3.3s1.6-3.8,2.1-5.8c1.3-4.6,2.4-9.2,3.7-14.2
		c4.9-2.1,10.5-3.9,13.9-9.8C340,271.9,336.4,273.7,332.5,273.2z"/>
            <path d="M341,350.4c-8.8,5.5-14.3,13.8-21.2,21.3c-0.9-1.8-1.8-3.4-2.6-5.1c-0.9-1.9-2-3.8-2.7-5.9s-1.1-4.3-1.4-6.5
		c-0.6-4-1-8.1-1.5-12.1c-0.9-7.8-1.9-15.6-2.8-23.5c-0.2-1.6-0.2-3.2-0.4-4.9c14.5,2,28.8,0.1,43.5-2.8c-1.3,3.8-2.5,7.3-3.7,10.8
		c-2.2,6.2-4.4,12.5-6.8,18.7C340.4,343.7,340.1,346.9,341,350.4z"/>
            <path d="M256.6,239.1c-10.7-27.7-22-55.1-30.7-83.8c0.4,0.4,0.8,0.7,1.1,1.1c7,9.4,12.6,19.6,16.3,30.7
		c5.1,15.1,9.2,30.5,12.9,46.1c0.4,1.9,0.6,3.8,1,5.8C257,239,256.8,239,256.6,239.1z"/>
 </g>
        <path class="st1" d="M250.9,80.4c0.5,1.3,0.7,2.4,1.2,3.3c0.8,1.3,1.8,1.2,2.5-0.1c0.5-0.9,0.8-1.9,1.3-3c1,0.5,2,1,3,1.5
		c-3.3,4-8.4,3.9-13.5-0.4c1-0.3,1.9-0.7,2.7-0.9C249.1,80.6,250,80.5,250.9,80.4z"/>
        <path class="st1" d="M279,79.1c1.8-2.1,3.4-3.8,5.1-5.8c0.5,0.7,0.8,1.2,1.2,1.7c1,1.2,1.9,1.2,2.5-0.2c0.5-1.2,0.6-2.6,1-4.2
		c0.5-0.2,1.2-0.6,2.1-1C290.6,75.1,285.8,79.9,279,79.1z"/>
        <path class="st1" d="M281.2,105c-2,4.4-5.4,5.8-9.8,4c0.7-0.9,1.3-1.8,2.1-2.6c0.3-0.3,0.9-0.7,1.2-0.6c1.1,0.3,1.7-0.4,2.6-0.7
		C278.4,104.7,279.8,105,281.2,105z"/>
        <g class="st1">
	<path d="M247.4,94.8c2.3-1.7,4.5-2.4,7.1-1.1c2.7,1.4,3.3,4.8,1.1,7c-1.2,1.2-2.5,2-4.4,1.6
		C249.9,99.9,248.7,97.5,247.4,94.8z"/>
            <path d="M297.4,80.2c0.6,0.1,1.3,0.1,1.9,0.3c2.6,0.8,3.5,2.8,2.1,5.2c-2.1,3.7-4.3,4.5-7.4,3.1
		c-2.4-1.1-3.1-3.3-1.7-5.5C293.5,81.5,295,80.1,297.4,80.2z"/>
	</g>

</g>
</svg>
