<?xml version="1.0" encoding="utf-8"?>
<!-- Generator: Adobe Illustrator 24.1.0, SVG Export Plug-In . SVG Version: 6.00 Build 0)  -->
<svg version="1.1" id="Calque_1" xmlns="http://www.w3.org/2000/svg" xmlns:xlink="http://www.w3.org/1999/xlink" x="0px" y="0px"
	 viewBox="0 0 595.5 855" style="enable-background:new 0 0 595.5 855;" xml:space="preserve">
<style type="text/css">
	.st1{fill:#FFFFFF;}
</style>

<path d="M225.8,392.4c-0.4,0.2-0.8,0.5-1.3,0.8C224.5,392.1,225.1,392,225.8,392.4z"/>
<path d="M164.9,423.2c-1.1-1.1-1.1-2-0.4-3c1.3-1.6,2.5-3.2,3.8-4.7c1.9-2.4,3.9-4.8,5.8-7.2c0.5-0.6,0.7-1.5,2.2-1.3
	c-0.8,2.3-2.3,4.1-3.6,5.9s-2.7,3.6-4,5.5c4.7-1.5,9.4-1.6,14.4-0.8c-1.9,1.7-4.1,2-6.1,2.2C172.8,420.3,168.7,421.1,164.9,423.2z"
	/>
<path d="M209.5,393.2c0,1.6-1.3,2.7-3,2.3c-2.8-0.7-4.9-2.6-6.2-5.1c-0.6-1.2-0.9-2.7-1.1-4.1c-0.2-1.6,0.4-2.3,2.1-2
	c1.1,0.2,2.2,0.5,3.1,1.1C207.4,387.1,209.4,389.5,209.5,393.2z M204,390.7c0.5-0.7,0.9-1.3,1.4-2c-1.2-1.4-2.4-2.6-4.5-2.9
	C201.5,387.8,202.1,389.6,204,390.7z"/>
<path d="M207.6,409c-0.4-0.9-1.1-1.3-2.2-1.2c-0.9,0.1-1.5-0.1-1.4-1.2c1.8-1.3,3.7-0.5,5.6-0.2c2.2,0.3,3,2.1,4.2,3.4
	c-0.6,1.1-1.6,1.3-2.4,0.5C210.3,409.2,208.9,409.2,207.6,409L207.6,409z"/>
<path d="M214.2,393c-0.3,2.9-0.7,5.7-1,8.5c-0.1,0.6-0.3,1.2-0.5,1.7c-0.7,1.3-1.4,1.4-3,0.3c1.8-0.9,1.6-2.6,1.8-4.2
	c0.2-2,1-3.9,1.6-5.8C213.1,392.8,213.6,392.5,214.2,393z"/>
<path d="M211.3,384.6c-1.4-0.8-2.5-1.3-3.5-1.9c-1.4-1-2.9-1.5-4.6-1.6c-1.1,0-1.1-0.1-1.9-1.1C205.6,377.9,210.3,380.4,211.3,384.6
	z"/>
<path d="M190.7,421.2c-0.5-0.6-1.1-1.1-1.3-1.8c-0.3-1-0.5-2-0.5-3c0-0.7,0.8-0.9,1.3-0.5c0.4,0.3,0.7,1,0.8,1.5
	c0.1,1.2,0,2.3,0,3.5C190.9,421,190.8,421.1,190.7,421.2z"/>
<path d="M207.5,409c0.8,0.5,1.6,1,2.3,1.5c-2.3,1.2-3.5,0.8-4.2-1.6C206.4,409,207,409,207.5,409C207.6,409,207.5,409,207.5,409z"/>
<path d="M193.2,479.2c-0.3-0.6-0.5-1.1-0.9-1.9c0.7-0.1,1.2-0.2,2.1-0.4c-0.2,1-0.4,1.6-0.5,2.3
	C193.6,479.2,193.4,479.2,193.2,479.2z"/>
<path d="M546.2,464.9c-0.7,0-1.5,0.2-2.3,0.1c-8.9-0.6-17.7-1.7-26.4-3.2c-10.1-1.7-19.9-4.8-29.5-8.2c-5.9-2.1-11.7-4.4-17.6-6.5
	c-2.4-0.9-4.8-1.7-7.3-2.2c-2.9-0.6-3.3-1.4-3.3-4.4c0-12.7,0.1-25.3,0-38c-0.1-13.7-0.4-27.4-0.4-41.1c0-7.4,0.2-14.9,0.5-22.3
	c0.4-8,1.2-15.9,1.7-23.8c0.5-8.2,0.7-16.4,1-24.6c0.1-3.5,0.3-6.9,0.3-10.4c0-2.9-0.3-5.9-0.3-8.8c0-9.5,0.2-19,0.3-28.5
	c0-3.3-0.2-6.6-0.4-9.9c-0.1-1.5,0-1.9,1.5-2.4c7.4-2.6,14.9-4.8,22.7-5.8c6.6-0.8,13.2-2,19.9-2.8c5.7-0.7,11.4-1.1,17-1.7
	c7.8-0.8,15.5-2,22.9-4.8c0.6-0.2,1.4-0.3,1.9,0c0.8,0.5,0.8,1.4,0.5,2.2c-0.2,0.6-0.4,1.3-0.4,1.9c-0.2,11.4-0.3,22.9-0.5,34.3
	c-0.1,5.8-0.2,11.6-0.5,17.4c-0.3,5.2-0.9,10.3-1.2,15.5c-0.4,6.4-0.8,12.8-1,19.1c-0.3,9.6-0.1,19.1-0.5,28.7
	c-1,23.5-0.6,47-0.7,70.5c0,5.9,0.2,11.7,0.5,17.6c0.3,5.6,0.9,11.2,1.1,16.9c0.2,6.4,0.1,12.8,0.2,19.2
	C545.8,461,546,462.7,546.2,464.9z M543.4,462.4c0-0.8,0-1.2,0-1.7c-0.1-2.6-0.3-5.2-0.4-7.9c-0.1-2.8,0-5.6-0.2-8.4
	c-0.5-7.5-1.2-15-1.6-22.5c-0.3-6.6-0.4-13.2-0.5-19.9c0-4,0.3-8,0.3-12c0-13,0-25.9,0-38.9c0-7.5,0.3-15.1,0.4-22.6
	c0.2-8.4,0.2-16.9,0.5-25.3c0.2-6.4,0.7-12.8,1.1-19.1c0.5-8.5,1.2-16.9,1.6-25.4c0.3-5.6,0.1-11.1,0.2-16.7c0.1-6,0.3-12,0.4-18.1
	c0-1.4,0-2.8,0-4.3c-0.5,0-0.8,0-1.1,0.1c-5.5,1.8-11.3,2.8-17,3.5c-4.8,0.6-9.6,0.9-14.4,1.5c-6.7,0.8-13.4,1.9-20.1,2.5
	c-9,0.9-17.8,3-26.5,5.2c-0.3,0.1-0.7,0.3-1.1,0.4c0.2,1.5,0.4,2.9,0.4,4.3c0.1,6.1,0.1,12.2,0.1,18.3c0,4.4,0,8.9,0,13.3
	c0,4.7,0.3,9.5,0.2,14.2c-0.1,5-0.5,9.9-0.6,14.9c-0.1,8-0.7,15.9-1.4,23.9c-0.6,6.4-1,12.7-1.3,19.1c-0.3,6-0.6,12-0.6,18
	c-0.1,11.5,0.1,22.9,0.1,34.4c0,12.7-0.1,25.3-0.2,38c0,1.6-0.2,3.3-0.3,4.9c0,2.1,0,4.2,0,6c4.1,1.3,8.1,2.3,12,3.7
	c9.8,3.5,19.5,7.1,29.5,10c8.9,2.6,17.9,3.9,27,5.1C534.4,461.7,538.7,461.9,543.4,462.4z"/>
<path d="M567.1,17.8c-0.2,2.5-0.5,5-0.6,7.4c-0.2,5.7-1.3,11.3-2.6,16.9c-2.6,11-4.5,22.2-5.8,33.5c-0.9,7.8-1.3,15.6-1.8,23.4
	c-0.3,5.5-0.6,11-0.9,16.4c-0.3,7-0.6,14-0.9,20.9c-0.6,11-1.5,21.9-2.9,32.7c-0.9,6.8-1.4,13.7-2,20.6c-0.5,5-0.8,10-1.2,15
	c-0.2,1.7-0.4,3.4-0.6,5.1c-0.1,1-0.6,1.9-1.6,2.4c-0.9,0.5-1.9,1-2.9,1.1c-7.4,1-14.7,2.2-22.2,2.7c-7.9,0.6-15.6,2.2-23.4,3.8
	c-7.8,1.6-15.6,3.2-23.5,4.6c-3.2,0.6-6.4,0.6-9.7,0.8c-1.4,0.1-1.8-0.4-1.7-2c0.1-2.3,0.3-4.7,0.3-7c0.1-16.6,0.1-33.3,0.2-49.9
	c0-11.8-0.1-23.7-0.1-35.5c0-7.2,0.1-14.3,0.2-21.5c0.1-5.9,0.3-11.7,0.4-17.6c0.1-8.2,0.2-16.4,0.3-24.6c0-1.4,0.2-2.9-0.1-4.2
	c-0.3-1.8,0.5-2.7,1.8-3.5c2.6-1.5,5.2-3,8-4.2c17.1-7.4,34.1-15.2,51.5-22c10-3.9,20.1-7.7,30.1-11.6c2.7-1,5.2-2.3,7.8-3.5
	C564.5,17.7,565.8,17.2,567.1,17.8z M465.7,223.4c2.4-0.3,4.7-0.4,6.9-0.8c8.5-1.7,17.1-3.6,25.6-5.4c5.1-1.1,10.1-2.3,15.3-3
	c5.9-0.8,12-1.1,18-1.7c3.7-0.4,7.5-1,11.2-1.5c1.9-0.3,2.4-0.9,2.5-2.8c0.1-1.1,0.3-2.2,0.4-3.3c0.5-5.6,0.8-11.2,1.4-16.8
	c0.6-6.6,1.1-13.2,2-19.7c1.5-11.2,2.3-22.4,2.9-33.6c0.4-6.8,0.6-13.7,0.9-20.5c0.3-5.2,0.6-10.5,0.9-15.7
	c0.4-7.8,0.7-15.6,1.9-23.4c1.1-7.3,2.1-14.6,3.5-21.8c1.4-7.6,3.3-15.1,4.8-22.7c0.7-3.3,0.8-6.7,1.3-10.2
	c-0.6,0.2-0.8,0.3-1.1,0.4c-3.1,1.4-6.2,2.8-9.3,4.1c-9.1,3.6-18.3,6.9-27.3,10.7c-18.3,7.6-36.6,15.4-54.9,23.2
	c-2.3,1-4.4,2.2-6.5,3.2c0.3,2.3,0.7,4.3,0.8,6.3c0.2,4.4,0.2,8.7,0.2,13.1c-0.1,8.1-0.3,16.3-0.4,24.4c-0.1,10.6-0.2,21.2-0.1,31.9
	c0,9.7,0.4,19.4,0.4,29.1c0,8.4-0.2,16.9-0.3,25.3c-0.1,6.8-0.3,13.6-0.4,20.3C466,215.9,465.8,219.5,465.7,223.4z"/>
<path d="M460.7,448.6c3.1,0.2,6,0.9,8.8,1.9c5.5,2,11,4,16.5,6.1c7.4,2.7,15.2,4.4,22.8,6.3c7.8,1.9,15.8,3,23.8,4
	c2.6,0.3,5.2,0.5,7.9,0.8c0.5,0,0.9,0,1.3,0.2c1.1,0.4,2.3,0.6,3.4-0.1c1.1,0.8,1,1.9,1,2.9c-0.1,2.2-0.3,4.5-0.6,6.7
	c-0.5,4.9-1.1,9.8-1.6,14.8c-0.5,5.3-1,10.6-1.4,15.9c-0.3,4.9-0.3,9.8-0.6,14.7c-0.4,7-1,13.9-1.6,20.9c-0.2,3.1-0.5,6.1-0.7,9.2
	c-0.6,8.5-1.2,16.9-1.7,25.4c-0.4,5.6-0.6,11.3-1,16.9c-0.4,6.1-0.9,12.1-1.3,18.2c-0.4,6.7-0.7,13.4-1,20c-0.3,6.7-0.5,13.4-1,20
	c-0.7,9.4-1.8,18.8-2.4,28.3c-0.3,3.6-1,7.1-1.8,10.6c-0.2,0.9-0.3,1.9-0.5,3.2c-0.7-0.3-1.3-0.5-1.9-0.8c-3.1-1.9-6.3-3.8-9.4-5.8
	c-11.4-7.4-22.6-14.9-34.1-22.2c-8.5-5.4-16.6-11.2-24.4-17.4c-1.6-1.3-3.3-2.7-3.7-4.9c-0.2-0.8-0.3-1.6-0.3-2.4
	c0-6.7-0.1-13.4,0-20.1c0.1-5.5,0.5-11,0.7-16.5c0.1-3.4,0.1-6.8,0.2-10.2c0.2-4.8,0.5-9.6,0.8-14.4c0.2-4.2,0.5-8.4,0.5-12.6
	c0.2-11.7,0.3-23.3,0.5-35c0.2-18.4,0.4-36.8,0.8-55.1c0.1-6.8,0.8-13.6,1.3-20.5c0.2-2.6,0.3-5.1,0.4-7.7
	C460.5,449.4,460.6,449.1,460.7,448.6z M543.3,470.5c-1.7-0.1-3.1-0.2-4.5-0.4c-10.7-1.2-21.4-2.5-31.8-5.1
	c-9.3-2.4-18.7-4.6-27.6-8.4c-4.3-1.8-8.7-3.2-13.2-4.7c-1.5-0.5-3-0.8-4.5-1.2c-0.2,3.7-0.4,7-0.6,10.4c-0.2,6.4-0.5,12.8-0.6,19.2
	c-0.2,8.4-0.2,16.7-0.3,25.1c-0.1,12.2-0.3,24.4-0.4,36.6c-0.1,8,0,16,0,23.9c0,2.3-0.1,4.5-0.2,6.8c-0.4,7.2-0.9,14.4-1.2,21.6
	c-0.4,10-0.7,20-0.9,30c-0.1,6.9,0,13.8,0,20.9c2.9,2.2,5.8,4.6,8.9,6.8c7.1,4.9,14.3,9.7,21.4,14.7c12.1,8.4,24.6,16.1,37,23.8
	c0.7,0.5,1.5,0.8,2.6,1.4c0.5-3.9,1-7.5,1.3-11.1c0.5-5.3,0.8-10.6,1.1-16c0.6-8.8,1.1-17.5,1.6-26.3c0.3-5.2,0.4-10.4,0.6-15.6
	c0.3-5.9,0.8-11.7,1.2-17.5c0.4-6.3,0.7-12.6,1-18.9c0.4-5.7,0.8-11.4,1.2-17.1c0.4-5.3,0.6-10.6,1-16c0.5-6.7,1.2-13.5,1.7-20.2
	c0.4-6.1,0.7-12.2,0.9-18.2c0.1-2.3,0-4.7,0.2-7c0.5-6.1,1.1-12.1,1.8-18.2c0.5-4.6,1.1-9.2,1.6-13.9
	C543,474.3,543.1,472.5,543.3,470.5z"/>
<path d="M55.2,23.2c2,0.9,3.6,1.6,5.2,2.4c4,2,8.1,4,12,6.1c10,5.5,20.4,9.5,31.6,11.9c9.2,2,18.2,4.6,27.1,7.8
	c4.2,1.5,8.5,2.9,12.8,4.4c0.8,0.3,1.5,0.6,2.3,1c-0.2,1-0.3,1.8-0.5,2.5c-1.3,4.3-1.4,8.7-1.4,13.2c0,2.3,0.1,4.5,0.1,6.8
	c0.1,6.5,0.3,13.1,0.3,19.6c-0.1,8.5-0.5,17-0.7,25.5c-0.1,4.1-0.1,8.3-0.2,12.4c-0.2,7.3-0.4,14.6-0.8,21.9
	c-0.4,6.7-0.9,13.3-1.4,20c-0.6,7.3-1.4,14.6-2.1,22c-0.4,4.3-0.7,8.5-1,12.8c-0.5,6.1-1.1,12.2-1.7,18.4c-0.2,1.8-1,2.4-3,2.4
	c-1.6,0-3.2,0.2-4.7,0.2c-2.2,0-4.4-0.1-6.5-0.4c-5.7-0.8-11.3-1.7-16.9-2.6c-8.5-1.3-17-2.5-25.4-4c-11.3-2-22.3-4.8-33.3-8
	c-1.6-0.5-3.2-0.8-4.8-1.3c-1.5-0.5-1.5-0.6-1.1-2.2c0.1-0.5,0.1-1,0.2-1.5c0.2-4.7,0.3-9.3,0.6-14c0.2-3.7,0.6-7.3,0.9-11
	c0.4-4.1,0.9-8.2,1.3-12.3c0.6-5.7,1.2-11.5,1.6-17.2c0.5-5.7,0.7-11.4,1.1-17.1c0.3-5,0.8-10,1.2-15c0.2-2.8,0.4-5.7,0.6-8.5
	c0.5-6.9,1.1-13.8,1.7-20.6c0.2-3,0.3-6,0.5-9c0.3-4,0.6-7.9,0.8-11.9c0.3-5.2,0.4-10.4,0.6-15.5c0.2-4.9,0.5-9.8,0.9-14.6
	c0.5-5.8,1.1-11.5,1.7-17.2c0.1-1.5,0.1-3,0.2-4.5C55,25,55.1,24.3,55.2,23.2z M143.5,58.5c-4.8-1.5-9.5-2.9-14.1-4.5
	c-9.2-3.2-18.5-5.8-28-8c-11.2-2.6-21.8-6.9-31.7-12.8c-3.9-2.3-8-4.4-12.1-6.6c-0.2-0.1-0.5-0.2-1-0.3c-0.2,2.7-0.2,5.4-0.5,8
	c-0.5,6.2-1.3,12.4-1.7,18.6c-0.4,4.9-0.5,9.9-0.7,14.9c-0.2,4.2-0.2,8.4-0.5,12.6C52.9,86,52.4,91.6,52,97.2
	c-0.2,3.4-0.4,6.9-0.6,10.3c-0.4,4.8-0.8,9.6-1.2,14.4c-0.2,3.2-0.4,6.4-0.6,9.7c-0.4,5.5-0.8,11.1-1.2,16.6
	c-0.2,3.1-0.4,6.3-0.7,9.4c-0.5,5.8-1.1,11.5-1.6,17.3c-0.4,4.3-0.6,8.6-1.2,12.8c-0.9,6-1.1,12.1-1.5,18.2
	c-0.2,3.4-0.2,6.7-0.3,10.2c0.2,0.1,0.5,0.2,0.8,0.3c5.4,1.2,10.9,2.4,16.3,3.6c9,2,18.1,4,27.2,5.2c8.7,1.2,17.4,2.5,26.1,3.9
	c6.8,1.1,13.6,1.9,20.7,1.4c0.3-3.2,0.5-6.4,0.8-9.6c0.4-4.7,0.7-9.4,1.1-14.2c0.7-7.4,1.4-14.8,2.1-22.2c0.4-4.7,0.7-9.4,1.1-14.2
	c0.5-7,1.2-14.1,1.6-21.1c0.3-5.4,0.3-10.8,0.5-16.2c0.2-5.1,0.3-10.2,0.4-15.3c0.2-7.2,0.3-14.4,0.5-21.7c0.1-4.4,0-8.9,0-13.3
	c0-2.7-0.2-5.4-0.3-8.1c0-2.8,0-5.6,0.2-8.3C142.7,63.7,143.1,61.2,143.5,58.5z"/>

<path d="M537.3,706.3c-0.6,0.4-1.2,0.8-2,1.3c-0.9-2.5-3.3-3.5-5.2-4.7c-9.5-6.1-19.1-12.1-28.5-18.3c-12-8-23.8-16.2-35.7-24.3
	c-4.1-2.8-8.3-5.5-12.4-8.2c-0.4-0.3-1-0.5-1.4-0.4c-4,0.7-8-0.2-11.9-0.5c-4.6-0.3-9.2-0.6-13.7-0.9c-2.5-0.2-4.9-0.4-7.4-0.5
	c-4.3-0.2-8.6-0.5-12.8-0.7c-6.4-0.3-12.8-0.6-19.2-0.8c-3.6-0.1-7.2-0.1-10.8-0.3c-6.5-0.3-13.1-0.6-19.6-1.1
	c-8.4-0.7-16.8-1.6-25.2-2.2c-9.5-0.8-19-1.5-28.6-2c-7.5-0.4-15-0.6-22.6-0.9c-0.7,0-1.5,0.1-2.2,0.1c0.3,8.4-0.3,16.5-1.1,24.7
	c-0.6,6.9-1.2,13.8-2,20.6c-0.8,7-1.7,14-2.5,21c-0.4,3.9-0.8,7.8-1.1,11.7c-0.7,8.2-0.9,16.5-0.9,24.8c-0.1,13.8-0.4,27.6-0.4,41.3
	c0,7.5,0.2,15,1.4,22.5c0.7,4.4,1.8,8.7,2.7,13c0.5,2.1,1.4,4,2.7,5.7c2.1,2.8,4.1,5.6,6.3,8.3c1.4,1.8,1.8,3.4,0.5,5.1
	c-1,0.3-1.8,0.5-2.6,0.7c-1.2,0.3-2.3,0.8-3.5,0.8c-4.1-0.2-8.2-0.1-12.1-1.2c-4.3-1.2-7.8-3.5-10.3-7.2c-1.3-1.9-1.9-3.9-1.9-6.1
	c0-3.4,0.1-6.9-0.7-10.3c-0.6-2.7-1.7-4.7-4.1-6.2c-2.9-1.9-4.3-4.8-4.1-8.3c0.1-1.1,0.5-2.2,0.8-3.2c0.3-0.8,0.6-1.5,1.1-2.2
	c3.9-5.5,3.4-11.5,2.2-17.6c-1.2-6.1-4.2-11.4-6.9-16.8c-4.6-9.2-9.1-18.4-11.9-28.3c-1.8-6.2-2.5-12.5-2.7-18.9
	c0-1.5-0.2-3-0.3-4.5c-0.4-12.8,2.9-24.9,8.2-36.4c1.2-2.6,2.2-5.3,3.3-7.9c0.3-0.7,0.5-1.5,0.8-2.7c-1.2,0.6-2,1-2.8,1.5
	c-2.3,1.5-4.8,2.1-7.4,2.8c-1.6,0.4-2.3,0-3.2-1.4c-0.4-0.6-1-1.1-1.5-1.6c-1.7-1.6-3.7-2.9-5.2-4.7c-4.7-5.6-9.2-11.3-13.8-17
	c-0.5-0.6-1-1.2-1.4-1.7c-7.6,0-15,0.3-22.4-0.5c-4-0.5-8-0.4-11.9-0.7c-5.2-0.4-10.3-0.9-15.5-1.2c-5.6-0.4-11.1-0.6-16.7-0.8
	c-4.1-0.1-8.1,0-12.4,0c-0.2,0.5-0.5,1-0.6,1.3c-1.1,0.6-2,0.9-2.7,1.5c-15.1,13.1-31.2,24.9-47.2,36.8
	c-8.8,6.6-17.6,13.2-26.5,19.6c-6.8,4.9-13.6,9.7-21.4,13c-0.8,0.3-1.5,0.7-2.3,0.9c-1,0.3-1.6-0.1-1.7-1.1
	c-0.1-1.2-0.2-2.4-0.2-3.6c-0.2-9.6-0.4-19.3-0.5-28.9c-0.2-23.2-0.3-46.4-0.5-69.6c0-5.8-0.3-11.6-0.3-17.4c0-5.5,0.2-11,0.4-16.5
	c0.3-6.6,0.6-13.2,0.9-19.8c0.3-7.7,0.6-15.3,0.9-23c0.3-7.1,0.6-14.3,0.9-21.4c0.3-6.1,0.6-12.2,0.9-18.2c0.3-5.5,0.6-11,0.9-16.4
	c0.3-7.5,0.6-15,0.9-22.5c0.2-4.4,0.3-8.9,0.5-13.3c0.2-6,0.3-12,0.5-18.1c0.2-9.6,0.3-19.3,0.5-28.9c0.1-6,0.5-12,0.7-18
	c0.1-2,0.1-3.9,0.1-5.9c0.2-5.2,0.3-10.4,0.5-15.6c0.2-5.7,0.3-11.4,0.5-17.1c0.1-4.9,0.3-9.8,0.5-14.7c0.2-4.4,0.5-8.8,0.7-13.3
	c0.1-1.8,0.1-3.6,0.2-5.4c0.5-7.6,1.1-15.1,1.6-22.7c0.1-1.7,0.1-3.5,0.2-5.2c0.2-4.7,0.3-9.4,0.5-14.2c0.2-4.7,0.4-9.3,0.4-14
	c0.1-10.5,0.4-20.9,1.3-31.3c0.4-5,0.6-10,1-15.1c0.7-8.4,1.4-16.7,2.1-25.1c0.3-3.8,0.4-7.7,0.6-11.5c0.3-4.6,0.8-9.3,1.1-13.9
	c0.3-3.5,0.4-7,0.7-10.6c0.5-6.1,1.1-12.3,1.6-18.4c0.4-5.3,0.7-10.6,1.1-16c0.4-6.1,0.8-12.1,1.2-18.2c0.3-4.7,0.4-9.5,0.7-14.2
	c0.3-4.6,0.7-9.1,1.1-13.7c0.2-2.7,0.4-5.4,0.6-8.1c0.4-6.8,1.6-13.6,3-20.3c0.7-3.5,1-7,0.3-10.5c0-0.2,0-0.5,0-0.7
	c-0.1-2.5,0.5-3.1,2.9-2.5c3.8,1,7.5,2.3,11.2,3.6c12.5,4.5,25.1,8.9,37.6,13.5c10.7,3.9,21.4,8.1,32.1,12.1
	c1.8,0.7,3.7,1.2,5.5,1.9c2.9,1.1,5.9,2.3,8.8,3.6c0.7,0.3,1.3,0.4,2.1,0.2c3.8-0.9,7.6-1.2,11.4-0.2c3.8,1,7.7,0.9,11.6,0.7
	c3.1-0.2,6.3-0.2,9.5-0.1c3.4,0.1,6.8,0.3,10.2,0.4c11.5,0.2,23.1,0.3,34.6,0.5c8.1,0.2,16.1,0.6,24.2,0.9c8,0.3,16.1,0.7,24.2,0.9
	c11.7,0.3,23.4,0.4,35,0.7c7,0.2,14,0.6,21,0.9c3.3,0.1,6.6,0.2,9.9,0.2c13.6,0.3,27.1,0.6,40.7,0.8c6.6,0.1,13.1-0.1,19.7-0.1
	c7.1,0,14.2,0.2,21.3,0.2c10.4-0.1,20.8-0.4,31.2-0.6c1.5,0,3.1-0.7,4.6,0.3c0.3,0.2,1-0.2,1.4-0.5c10.8-6.2,21.9-11.7,33.3-16.8
	c11-5,22.3-9.4,33.5-14.1c7.5-3.2,14.9-6.5,22.4-9.7c6.4-2.7,12.8-5.3,19.2-7.8c2.6-1,2.7-1.8,6.9,0.1c-0.2,1.7-0.4,3.6-0.6,5.4
	c-0.4,4-0.7,7.9-1.2,11.9c-0.8,6.2-1.6,12.3-2.5,18.5c-1.3,9-2.8,18-3.9,27c-1,7.6-1.6,15.2-2.3,22.8c-0.7,6.9-1.2,13.9-1.8,20.9
	c-1,10-2,20-3,30c-0.4,4.3-0.7,8.5-1.1,12.8c-0.7,7.1-1.4,14.2-2.1,21.3c-0.4,4.7-0.9,9.4-1.1,14.1c-0.4,8.7-0.7,17.4-0.9,26.1
	c-0.2,5.7-0.3,11.4-0.5,17.2c-0.2,7.4-0.4,14.7-0.4,22.1c-0.2,16.2-0.3,32.4-0.5,48.6c-0.1,8.4-0.3,16.7-0.4,25.1
	c-0.2,14.2-0.3,28.3-0.5,42.5c-0.2,25.4-0.3,50.8-0.4,76.2c0,9.9,0.1,19.7,0.1,29.6c0,4.5-0.1,9-0.2,13.6
	c-0.1,6.2-0.3,12.3-0.5,18.5c-0.1,4.7-0.3,9.5-0.5,14.2c-0.1,4-0.3,8-0.5,11.9c-0.3,6.9-0.6,13.8-0.9,20.7c-0.3,6.7-0.5,13.4-0.9,20
	c-0.3,6-0.8,12-1.2,18c-0.2,3.8-0.4,7.5-0.7,11.3c-0.5,6.4-1,12.7-1.6,19.1c-0.6,5.8-1.2,11.6-1.9,17.4c-1.6,13.5-3.3,27-4.9,40.4
	c-0.7,6.3-1.5,12.5-2.1,18.8C537.2,705.3,537.3,705.8,537.3,706.3z M253,481.5c2.5-1.1,4.6-2.3,6.9-3.2c6.9-2.7,14.2-3.8,21.6-4.1
	c2.2-0.1,2.3-0.2,2.6-2.5c0.3-2.2,0.6-4.5,1-6.7c0.4-1.9,1.5-3.4,3.2-4.5c1.1-0.7,2.2-1.5,3.4-2.3c0.7-0.5,1.2-1,1.2-2
	c0.1-1.9,0.2-3.7,0.5-5.6c1.1-9.6,2.5-19.2,2.7-28.9c0-0.8,0.3-1.5,0.5-2.5c1,0.3,1.7,0.6,2.4,0.8c1.3,0.4,2.6,0.8,3.9,1.1
	c2.1,0.4,4.1,0.7,6.2,1.2c1.7,0.4,3.4,0.8,5.2,1.3c1.6-6.2,2.6-12.2,4.8-18c0.6,0.2,1.1,0.4,1.5,0.5c0.6-1.5,1.2-2.9,1.8-4.3
	c1.5,0.2,1.7,1.3,2.1,2.1c3.1,7.2,6.2,14.3,9.4,21.5c0.7,1.6,1.2,3.3,1,5c-0.2,2.2-0.7,4.3-0.7,6.5c-0.1,4.3,0,8.6,0,12.9
	c0,0.2,0.1,0.4,0.2,0.7c0.9,0.2,1.8,0.4,2.6,0.7c5.4,1.5,9.6,4.6,12.3,9.6c1.1,2.1,2,4.4,2.8,6.6c1,2.8,1.8,5.7,2.7,8.6
	c1.2,3.6,2.3,7.3,3.5,10.8c0.3,0.1,0.4,0.2,0.5,0.2c8.5-0.2,17-0.8,25.5-0.3c6.2,0.4,12.3,0.3,18.5,0.5c1.9,0,3.8,0.1,5.6,0.2
	c6.1,0.4,12.2,0.7,18.2,1.1c6.2,0.4,12.4,0.9,18.7,1.3c2.2,0.1,4.3,0,6.7,0c0-0.9,0-1.6,0-2.3c0.1-5,0.2-9.9,0.3-14.9
	c0.2-9.1,0.4-18.2,0.4-27.3c0.2-38.9-0.4-77.9,0.5-116.8c0.1-4.9,0.3-9.8,0.4-14.7c0.2-8.2,0.3-16.4,0.5-24.6
	c0.1-4.4-0.1-8.7,0-13.1c0.2-8.6,0.7-17.3,0.8-25.9c0.2-14.2,0.3-28.5,0.5-42.7c0.2-17.2,0.3-34.5,0.5-51.7
	c0.1-6.2,0.3-12.3,0.4-18.5c0.1-5.8,0.4-11.6,0.4-17.4c0.1-9.9,0.1-19.7,0.2-29.6c0.1-8.8,0.3-17.6,0.4-26.4c0-1.3-0.1-2.6-0.1-4.2
	c-1.1,0-1.8,0-2.5,0c-10.4,0.2-20.8,0.5-31.2,0.7c-4.1,0.1-8.1,0-12.2,0c-16.4,0.1-32.7,0.1-49.1,0.2c-2.7,0-5.4-0.1-8.1-0.2
	c-7.4-0.2-14.7-0.5-22.1-0.7c-0.8,0-1.5,0-2.3,0c-6.1-0.3-12.2-0.7-18.3-0.8c-8.1-0.2-16.1-0.3-24.2-0.5c-5.9-0.1-11.9-0.3-17.8-0.5
	c-7.2-0.3-14.4-0.6-21.6-0.9c-7.6-0.3-15.2-0.6-22.8-0.9c-6.5-0.2-12.9-0.3-19.4-0.5c-9.6-0.2-19.3-0.3-28.9-1.3
	c-1.8-0.2-3.5,0.2-5.4,0.5c1.4,7.9,0.6,15.5,0.8,23.2c0,1.7,0.1,3.5,0.1,5.2c0,5.5,0,11-0.2,16.5c-0.1,4.8-0.4,9.6-0.8,14.4
	c-0.3,4.3-0.7,8.7-1.1,13c-0.8,8.4-1.7,16.9-2.5,25.3c-0.4,4.9-0.6,9.7-0.9,14.6c-0.5,6.5-1,13-1.5,19.5c-0.4,6.2-0.9,12.4-1.2,18.7
	c-0.4,6.5-0.7,13.1-1,19.6c-0.2,4.6-0.5,9.1-0.8,13.7c-0.2,4.1-0.4,8.1-0.6,12.2c-0.3,5.2-0.5,10.3-0.8,15.5
	c-0.2,3.9-0.3,7.8-0.6,11.7c-0.6,7.2-1.3,14.3-2.1,21.5c-0.9,8.5-1.8,17-2.7,25.5c-1.1,10.6-2.1,21.2-3.2,31.8
	c-0.8,7.7-1.6,15.4-2.4,23.1c-1,9.3-1.6,18.6-1.6,27.9c0,0.6,0.1,1.2,0.2,2.1c6.5-3.8,12.7-7.3,18.8-11c4-2.4,7.7-5.2,10.5-9.1
	c0.5-0.8,1-1.7,1.3-2.6c1.5-4.8,2.6-9.7,4.4-14.4c2.9-8,8.7-13.4,16.4-16.9c0.9-0.4,1.9-0.7,2.8-0.7c1.6,0,2.1,1,1.3,2.4
	c-0.2,0.4-0.5,0.8-0.8,1.4c0.8-0.2,1.4-0.3,1.9-0.4c3-0.9,6.1-1.8,9.1-2.6c0.9-0.2,1.9-0.4,2.9-0.3c1.2,0.2,1.5,1.1,1,2.2
	c-0.3,0.6-0.7,1.2-1.2,2c2.7,0.9,5.2,1.8,7.6,2.7c3.7,1.4,4.3,2.8,2.6,6.3c0.2,0.1,0.4,0.2,0.6,0.2c1-0.1,2.1-0.2,3.1-0.3
	c0.8-0.1,1.8-0.4,2.2,0.5c0.3,0.6,0.1,1.4-0.1,2.1c-0.3,0.8-0.7,1.5-1.2,2.2c-0.5,0.8-1,1.6-1.4,2.2c0.8,2.2,3,0.9,4.2,2.3
	c-0.7,2.5-3.3,2.3-5.1,3.4c-0.2,1.5-0.1,3.2-0.5,4.6c-0.8,2.7-1.8,5.4-2.7,8c-0.3,0.8-0.8,1.4-0.9,2.2c-0.9,5.2-3.2,9.8-6.4,14
	c-0.7,0.9-1.4,1.8-2.1,2.7c2.3,2.5,3,5.5,3.3,8.7c0.4,3.9,0.9,7.7,1.2,11.6c0.3,3.7,1.7,6.5,4.7,8.8c6.4,5,12.3,10.5,17.3,17.1
	C248.2,465.8,252.2,472.8,253,481.5z M42.6,226.2c-0.2,1.1-0.3,1.9-0.4,2.6c-0.1,2-0.1,3.9-0.2,5.9c-0.2,5.4-0.6,10.8-0.7,16.2
	c-0.1,2.9,0.3,5.9,0.2,8.8c0,3.7-0.2,7.4-0.3,11c-0.2,8.3-0.5,16.5-0.6,24.8c-0.1,8.8-0.2,17.6-0.8,26.4c-0.4,5.4-0.6,10.8-0.9,16.2
	c-0.3,6.1-0.6,12.1-0.9,18.2c-0.2,4.1-0.3,8.3-0.5,12.4c-0.2,5.6-0.3,11.1-0.5,16.7c-0.1,4.2-0.3,8.4-0.4,12.6
	c-0.2,5-0.3,10.1-0.5,15.1c-0.2,7.2-0.3,14.4-0.5,21.7c0,0.4-0.1,0.8-0.1,1.1c-0.3,5.2-0.6,10.3-0.8,15.5c-0.2,4-0.3,8-0.5,11.9
	c-0.1,1.6-0.4,3.3-0.5,4.9c-0.1,0.9,0,1.8,0,2.6c5.5-1.2,10.9-2.3,16.2-3.7c12.9-3.5,26-5.9,39.1-8c9.9-1.6,19.7-3.6,29.1-6.7
	c1.2-3.4,2.4-6.9,3.5-10.4c0.2-0.8,0.3-1.6,0.2-2.5c-0.2-3.3-0.7-6.6-0.7-9.8c0-5.5,0.1-11,0.3-16.5c0.1-4.3,0.4-8.6,0.6-12.8
	c0.2-5,0.5-10,0.8-15.1c0.2-4.1,0.4-8.1,0.6-12.2c0.3-5.3,0.8-10.6,1.2-15.9c0.3-3.7,0.4-7.4,0.6-11c0.3-4.6,0.8-9.1,1.2-13.7
	c0.4-4.9,0.7-9.7,1.1-14.6c0.4-5.5,0.8-10.9,1.2-16.4c0.2-3.6,0.3-7.2,0.6-10.8c0.5-8.3,1.1-16.6,1.7-24.9
	c0.5-6.1,1.1-12.3,1.7-18.4c0.2-2.1,0.4-4.1,0.6-6.2c-7.8-0.5-15.5-0.8-23.1-1.5s-15.2-2.1-22.8-2.9c-7.7-0.8-15-3-22.5-4.5
	C57.6,230.9,50.2,229.2,42.6,226.2z M184.5,387.4c-1.5,1.5-3.4,1.9-4.5,3.7c-2.5,4-6.1,6.9-10.1,9.1c-4.2,2.3-8.3,4.5-12.5,6.8
	c-6.4,3.6-12.5,7.6-17.7,12.8c-5.2,5.3-9.4,11.3-13.2,17.7c-1.3,2.1-2.3,4.4-3.2,6.7c-2.3,5.5-3.4,11.3-4.4,17.2
	c-0.9,4.9-1,9.9-1.1,14.8c-0.1,3.1,0.2,6.2,0.3,9.2c0,1.1,0,2.3,0.2,3.4c0.7,6.9,2.5,13.6,4.9,20.1c2.2,5.8,4.5,11.5,6.8,17.2
	c4.6,11.8,8.6,23.9,14,35.5c1.3,2.7,2.5,5.4,3.8,8.1c0.7-0.2,1.1-0.3,1.5-0.4c2.9-1.4,5.9-2.8,8.8-4.1c7.3-3.4,14.4-7.3,20.8-12.3
	c1.2-1,2.4-2,3.8-3.1c-1.1-0.6-1.9-1-2.7-1.4c-5-2.6-10-5.2-14.6-8.6c-5.2-3.8-9.1-8.5-11.9-14.2c-2.9-6.1-5-12.6-6.4-19.2
	c-1.9-8.9-4.1-17.7-7.7-26.1c-1.1-2.6-2.5-5.1-4.4-7.3c-0.3-0.4-0.6-0.9-0.9-1.5c1.4-0.5,2.1,0.2,2.7,0.9c1.3,1.7,2.7,3.4,3.8,5.3
	c2.7,4.9,4.7,10.1,6.2,15.5c1.6,6,2.9,12,4.6,17.9c1.2,4.1,2.6,8.2,4.3,12.1c3.7,8.8,10.7,14.4,18.9,18.6
	c8.8,4.6,17.8,8.9,26.6,13.4c2.5,1.2,4.9,2.7,7.5,4.1c-0.1,0,0.2,0,0.3-0.1c0.7-0.4,1.4-0.9,2.1-1.4c6.3-4.5,12.8-8.8,19.5-12.8
	c3-1.8,6-3.9,8.5-6.3c8.1-7.5,16.1-15,23.9-22.7c7.5-7.4,15.3-14.3,23.7-20.6c1.6-1.2,3.3-2.1,5.2-2.6c7.7-2.1,15.4-4.2,23-6.4
	c3.8-1.1,7.5-2.3,10.8-4.5c1.9-1.3,3.5-2.7,4.9-5c-3.1,0.9-5.9,1.8-8.7,2.5c-1.4,0.4-2.8,0.6-4.2,0.9c-0.7,0.1-1.4,0-1.4-1.3
	c1.8-1.6,3.7-3.4,5.6-5.1c0.8-0.7,1.7-1.3,2.5-1.9c2.5-2,4.7-4.2,6.5-6.9c0.3-0.4,0.3-1,0.7-1.9c-1.3,0.8-2.1,1.2-2.9,1.6
	c-4.4,2.3-8.8,4.7-13.2,6.9c-0.9,0.5-1.9,0.6-3,1c-0.1-0.6-0.2-1-0.1-1.1c1-1.4,2-2.8,3.1-4.1c2.9-3.1,5.9-6,8.8-9.1
	c1.4-1.5,2.9-3.1,3.6-5.3c-1.6,0.9-3.3,1.9-4.6,3.1c-4.5,4.3-9.5,7.9-14.6,11.4c-0.6,0.4-1.3,0.6-2.4,1.1
	c2.5-6.7,7.4-11.3,10.6-16.9c-1.5,1.1-2.9,2.3-4.3,3.5c-3.7,3.2-7.3,6.5-11.1,9.6c-1.9,1.5-4.1,2.5-6.2,3.6
	c-1.6,0.8-2.6,0.2-2.8-1.6c-0.1-1.1,0-2.2,0.2-3.3c0.2-1.1,0.2-2.1,0-3.5c-0.7,0.6-1.1,0.9-1.6,1.3c-2.2,1.6-3.4,3.7-3.7,6.4
	c-0.1,1.3-0.4,2.7-0.5,4c-0.5,4.7-2.4,8.5-6,11.8c-7.8,7-16.7,12-26.5,15.6c-5.4,2-10.7,4-16,6.1c-8.1,3.2-15,8.3-21.8,13.5
	c-3.5,2.7-6.9,5.6-9.2,9.8c1,2.7,1.9,5.5,3,8.3c0.6,1.6,0.8,3.1-0.1,5c-0.8-1-1.5-1.7-1.9-2.6c-0.9-2-1.7-4-2.4-6.1
	c-1.8-5.1-3.5-10.3-6.5-14.9c-5.7-8.8-12.2-17-19.3-24.7c-3.2-3.4-6.2-7-9-10.7c-4-5.4-6.1-11.5-6-18.3c0.1-5.5-0.2-11-0.4-16.5
	c-0.1-2.7-0.5-5.4-1.7-7.9c-1.6-3.3-3.4-6.5-5.1-9.8c-0.8-1.4-1.7-2.8-2-4.4c1.5-0.2,1.5-0.3,2.1,0.6c1.2,1.6,2.4,3.1,3.5,4.7
	c2.8,4,5,8.2,5.8,13.1c0.3,2.3,0.5,4.6,0.6,6.9c0.1,4.7,0,9.5,0,14.2c0,3.3,0.6,6.4,1.9,9.4c2.1,4.8,5.6,8.7,9.2,12.5
	c0.1,0.1,0.3,0,0.7,0c-0.2-9-0.7-18.1,0.6-27.5c0.6,0.4,1.1,0.6,1.2,1c0.2,0.6,0.3,1.3,0.3,2c0.1,6.5,0.2,13,0.1,19.4
	c0,2.2-0.2,4.4-0.5,6.5c-0.1,0.9,0.1,1.5,0.7,2.2c3.4,3.8,6.7,7.7,10.1,11.6c0.3,0.3,0.7,0.6,1.3,1.1c0-4.5,0.8-8.7,0.5-13.1
	c-1.1,1-1.9,1.7-3,2.6c-0.2-2.1,0.5-3.6,1.5-5c1.3-1.8,2.1-3.8,2.5-6c0.7-3.8,0.2-7.6-0.3-11.4c-0.6-5.2-1.5-10.4-1.3-15.7
	c0.2-5.8,2.9-10.3,6.7-14.4c0.5-0.5,1.2-0.9,1.8-1.3c0.7-0.4,1.4-0.6,2.3,0.1c-1.3,1.3-2.6,2.5-3.6,3.9c-1.1,1.4-2.2,2.9-2.9,4.5
	c-0.8,1.6-1.4,3.3-1.8,5.1c-0.4,1.7-0.5,3.5-0.7,5.3c2.7,0.9,4.9,2.3,6.6,4.2c4.4,4.8,8.4,9.8,11.8,15.4c2.3,3.7,4.5,7.5,6.9,11.1
	c3.6,5.2,7.9,9.7,14.1,11.9c1,0.4,1.8,0.4,2.8,0c5.7-2.1,11.5-4,17.2-6.2c4.2-1.6,8.4-3.3,12.4-5.3c5.1-2.6,9.8-6,13.9-10
	c0.8-0.7,1.3-1.7,2.3-2.9c-13.4,0.8-25.6,3.3-36.1,11.8c0-0.8-0.2-1.3,0-1.5c1.4-1.6,2.9-3.2,4.4-4.9c-0.7-2.3-1.3-4.7-2.2-7.1
	c-0.9-2.5-1.9-5-3.2-7.2c-3.9-6.5-8.7-12.3-14.2-17.5c-2.3-2.2-4.8-4.1-7.2-6.2c-1.9-1.7-4-3.3-4.8-5.9c-0.7-2.2-1.1-4.5-1.4-6.8
	c-0.5-3.9-0.8-7.9-1.3-11.9c-0.2-1.8-0.6-3.5-2-4.9c-1.8,1.5-3.5,3-5.2,4.4c-1.3,1.1-1.7,1.2-2.9,0c-3.8-3.6-8.1-6.4-12.6-9.1
	c-1.6-0.9-3.1-2.1-4.6-3.2c-1.2-0.8-1.7-2-1.6-3.3c0.3-3.3,1.1-6.5,3.4-9.1c0.3-0.4,0.9-0.6,1.3-0.9c0.2,0.1,0.3,0.2,0.4,0.3
	c-0.3,1.2-0.6,2.4-0.9,3.6c-0.3,1.1-0.8,2.1-1.1,3.2c-1,3.2-0.9,3.5,1.9,5.3c3.8,2.5,7.6,4.9,11.2,7.6c1.6,1.1,2.8,2.6,4.3,4
	c7.2-5.6,12.8-12.3,15-21.8c-2.1,1.2-4.1,1-6,0.7c-1.7-0.2-2.5-1.8-1.7-3.1c1.5-2.6,5.2-4.3,8.1-3.9c0.5,0.1,1,0.2,1.6,0.3
	c0.3-1.2,0.5-2.3,0.8-3.7c-1.6,0-3,0-4.4,0s-2.8,0.1-4.7,0.2c0.6-0.8,0.8-1.3,1.2-1.5c2.7-1.1,5.4-0.7,8.2,0.5
	c0.2-1.4,0.4-2.6,0.6-3.8c-0.3-0.1-0.5-0.2-0.6-0.2c-4.3,0.9-8.2-0.2-11.9-2.3c-0.3-0.2-0.7-0.5-1-0.4c-2.2,0.5-4-0.7-5.7-1.6
	c-2.2-1.1-4.2-0.8-6.2,0.3c-0.4,0.3-1.1,0.7-1.3,0.6c-0.9-0.5-1.2,0.2-1.6,0.6c-2,2.2-4,4.5-6,6.7c-0.4,0.4-0.8,0.7-1.4,1.3
	c-0.3-0.9-0.7-1.5-0.6-2c0.3-1.6-0.8-1.9-1.8-2.4c-0.2,0.3-0.4,0.5-0.6,0.8c-0.4,1-0.9,2.1-1.2,3.1c-0.4,1.1-0.5,2.2,0.3,3.2
	c0.3,0.5,0.4,1.2,0.5,1.8C185.5,391.9,184.9,390.5,184.5,387.4z M30.1,700.2c0.9-0.7,1.6-1.3,2.3-1.8c8.1-6.9,15.9-14.1,24.3-20.5
	c17.1-12.9,34.5-25.3,51.8-37.8c2.8-2,5.6-3.9,8.6-5.9c0-0.2,0.1-0.5,0.1-0.8c-0.1-5.5-0.2-11-0.3-16.5c-0.1-4.4-0.3-8.9-0.4-13.3
	c-0.2-6.5-0.3-13.1-0.5-19.6c-0.3-8-0.6-15.9-0.9-23.9c-0.3-7.6-0.6-15.2-0.9-22.8c-0.1-3.2-0.2-6.5-0.2-9.7
	c-0.1-5.4-0.3-10.8-0.2-16.3c0.2-5.9,0.8-11.8,1.3-17.7c0.1-1.9,0.3-3.7,0.5-5.6c0.1-1.9,0.3-3.7,0.4-5.6c0.1-4.8,0.2-9.6,0.4-14.4
	c0.1-1.9,0.3-3.9,0.5-6c-4.4,1.1-8.6,2.2-12.8,3.1c-7.2,1.5-14.5,2.8-21.7,4.3c-12.9,2.7-25.7,5.5-38.8,7.5c-3.2,0.5-6.3,1.3-9.5,2
	c-0.1,2.3-0.3,4.4-0.3,6.5c0,6,0.1,12.1-0.1,18.1c-0.2,7.8-0.6,15.6-0.9,23.4c-0.2,4-0.3,8-0.5,11.9c-0.3,4.9-0.6,9.9-0.8,14.8
	c-0.2,4.5-0.4,9-0.6,13.5c-0.3,7-0.8,14-0.8,20.9c0,13.8,0.3,27.6,0.4,41.3c0,5.2,0,10.4,0,15.6c0,5.9,0,11.9,0,17.8
	c0,7.6,0,15.2,0,22.8c0,4.3,0.5,8.6-0.3,12.8C30,699.1,30.1,699.5,30.1,700.2z M257.1,592.9c2.3-1.6,4.7-2.9,6.9-4.7
	c5.7-4.7,11.4-9.6,17-14.5c2.2-1.9,3.9-4.3,5.5-6.7c-3.5-2.5-5.7-5.5-7.4-9.2c-3.1-6.6-4-13.6-4.3-20.6c-0.3-8.9-0.1-17.8-0.1-26.6
	c0-0.6-0.1-1.1-0.2-2c-1.4,1.2-2.6,2.1-3.6,3.2c-9.1,8.9-18.2,17.8-27.4,26.6c-2.6,2.5-5.4,5-8.5,7.1c-8.2,5.6-16.6,10.9-24.9,16.3
	c-0.6,0.4-1.3,0.7-1.8,0.9c-8.3-3.9-15.9-8.5-24.1-12.1c-10.1,10.6-23.1,16.2-35.9,22.3c0.7,1.3,1.3,2.5,2,3.8
	c3.6,6.5,7.6,12.9,12.3,18.6c5.8,7,12.5,13.3,19.3,19.3c6.8,6,13.3,12.2,19.2,19.1c5.2,6.1,10.2,12.2,15.3,18.4
	c3.3,4,7.2,7.7,9.5,12.6c1.9-3,3.8-5.9,5.6-8.8c5.3-8.8,12.4-16.1,20.5-22.3c6.3-4.8,11.6-10.4,16.5-16.7c-0.2-0.5-0.5-1.1-0.7-1.7
	c-1.7-4.7-4-9.1-7.5-12.8c-5-5.4-10.2-10.7-15.6-15.7c-5.6-5.2-11.4-10.3-16.4-16.1c-2-2.3-3.9-4.7-5.8-7c0.7-0.9,1.3-1,1.9-0.4
	c0.8,0.7,1.6,1.4,2.3,2.1c3.5,3.4,7,6.8,10.6,10.1c4.4,4,8.9,7.9,13.3,11.9C252.9,588.9,254.9,590.8,257.1,592.9z M534.4,702.6
	c0.1-0.8,0.3-1.2,0.3-1.6c0.4-3.8,0.7-7.6,1.1-11.4c1-8.7,2.1-17.4,3.1-26.2c0.7-5.5,1.3-11,1.9-16.5c1-8.7,2-17.4,2.9-26.2
	c0.6-6.1,1-12.3,1.4-18.4c0.5-7.6,1-15.3,1.4-22.9c0.4-6.8,0.6-13.5,0.9-20.3c0.3-6.4,0.6-12.8,0.9-19.1c0.3-8.3,0.6-16.7,0.9-25
	c0.2-5.4,0.3-10.8,0.4-16.2c0.2-10,0.4-20,0.4-30.1c0-4.4-0.3-8.9-0.3-13.3c0.1-16.3,0.2-32.5,0.3-48.8c0.1-16,0.3-31.9,0.5-47.9
	c0.1-9.3,0.3-18.7,0.5-28c0.1-7.6,0.4-15.2,0.4-22.8c0.2-18.2,0.3-36.3,0.5-54.5c0.1-6.8,0.3-13.5,0.4-20.3
	c0.2-6.5,0.3-13.1,0.5-19.6c0.1-4.5,0.2-9,0.5-13.5c0.4-6.7,0.9-13.5,1.4-20.2c0.7-8,1.5-16,2.2-24c0.4-4,0.6-8.1,1-12.1
	c0.7-7.1,1.4-14.2,2.1-21.3c0.5-5.9,1-11.8,1.5-17.7c0.8-9.2,1.7-18.4,2.6-27.6c0.6-5.5,1.3-11,2.1-16.5c1.2-8.1,2.5-16.2,3.7-24.3
	c0.7-4.8,1.2-9.7,1.8-14.5c0.4-3.8,0.8-7.6,1.2-11.4c-0.2,0-0.5,0-0.7,0.1c-7.3,2.9-14.7,5.8-22,8.8c-7.6,3.2-15.1,6.8-22.8,9.8
	c-21,8.3-41.7,17.4-61.8,27.7c-2.1,1-4.1,2.2-6,3.2c-0.2,3.3-0.4,6.3-0.4,9.3c-0.2,19.8-0.3,39.6-0.5,59.4c0,5.2-0.3,10.4-0.4,15.6
	c-0.2,6.8-0.4,13.7-0.4,20.5c-0.1,13-0.1,25.9-0.2,38.9c-0.1,11-0.2,22-0.3,33c0,0.2,0,0.5,0,0.7c-0.3,11.5-0.7,23-0.9,34.5
	c-0.2,8.1-0.1,16.3-0.2,24.4c0,4.4-0.2,8.9-0.3,13.3c-0.2,6.8-0.4,13.5-0.4,20.3c-0.1,18-0.1,36-0.2,54c-0.1,25.5,0.7,51.1-0.3,76.6
	c-0.2,5.6-0.1,11.1-0.2,16.7c-0.1,4.4-0.2,8.9-0.3,13.3c-0.2,7-0.3,14-0.5,21c-0.2,5.5-0.3,11-0.6,16.5c-0.2,5-0.5,10-0.8,15.1
	c-0.2,3.8-0.3,7.7-0.5,11.5c-0.3,6.8-0.7,13.5-0.9,20.3c-0.2,5.6-0.1,11.3-0.2,16.9c0,2.1,0.3,4.2-0.3,6.4c-0.1,0.6,0,1.2,0,1.8
	c-0.1,7.1,0.2,14.1,0.7,21.2c0.4,5.6,0.7,11.2,1.1,16.9c0.2,3.1,0.7,6.3,0.7,9.4c0,2.1,0.7,3.3,2.4,4.4c4,2.5,8.1,5,12,7.6
	c7.4,5,14.7,10.2,22.2,15.2c10.5,7,21,13.8,31.6,20.6C525.9,697.5,530,699.9,534.4,702.6z M333.9,453.2c0.2,2.6,0.2,4.9,0.5,7.2
	c0.2,1.4,0.2,2.7-0.5,3.9c-0.8,1.3-1.5,2.6-2.4,3.8c-2.1,2.8-4.7,5-7.5,7.1c-0.6,0.5-1.2,1-1.8,1.5c1.7-0.2,3.2-0.8,4.8-1.3
	c1.5-0.5,3-1.1,4.6-1.3c1.8-0.2,2.6,1,1.7,2.5c-1.2,2-2.6,3.9-4.3,5.5c-3.7,3.6-8.4,5.5-13.3,7c-7.9,2.4-15.9,4.6-23.9,6.9
	c-1.1,0.3-2.3,0.8-3.3,1.5c-2.9,2-5.6,4.3-8.5,6.4c-2,1.5-3.7,3.1-2.7,5.9c0,0.1,0,0.2,0,0.2c0.2,8,0.2,16.1,0.5,24.2
	c0.2,4.6,0.8,9.3,1.5,13.9c0.6,3.8,2.1,7.4,4,10.6c2.1-3.1,4-6.2,6.3-9.1c3-3.8,6.2-7.4,9.3-11c5.7-6.5,11.5-12.9,17.3-19.4
	c2.7-3,5.6-5.9,8.5-9c-0.5-1.3-1-2.7-1.5-4c-1.4-3.6-3.6-6.2-7.7-6.9c-0.5-0.1-0.8-0.6-1.4-1c2.5-1.1,2.6-1.1,4.4-0.5
	c2.4,0.8,4.4,2.2,5.6,4.6c0.8,1.6,1.7,3,2.3,4.6c3.3,8.3,4.4,17,5.1,25.8c0.3,4.4,0.7,8.8,1,13.3c0.3,4.4,2.3,8.1,5.5,11.1
	c3,2.9,6.3,5.6,9.3,8.5c4.4,4.1,8.7,8.4,13.1,12.5c6.4,6,12.1,12.5,17.4,19.5c4.8,6.4,7.6,13.5,7,21.6c-0.2,2.4-0.3,4.8-0.4,7.2
	c-0.1,3.9-0.7,7.8,0,11.7c0.6,3.5,2,4.4,5.3,3.3c0.1,0,0.3-0.1,0.4-0.2c2.9-1,5.9-1.8,9-2.1c4.8-0.3,9.3,0.4,13.5,2.9
	c1.3,0.8,2.6,1.6,3.9,2.3c1.5,0.8,3,1.6,4.8,1.8c3.7,0.6,7.4,0.3,11,0.1c2-0.2,4-0.2,6.1-0.2c1.3,0,2.5,0.2,3.8,0.2
	c1.2,0.1,1.8-0.5,1.8-1.7c-1.4-0.5-2.8-0.9-4.1-1.5c-6.1-2.6-11.7-5.9-17.1-9.5c-4.2-2.7-8-5.9-11.3-9.7
	c-6.1-6.8-11.2-14.3-15.9-22.2c-5.9-9.8-10.9-20-15.9-30.2c-6.1-12.5-10.7-25.5-13.4-39.2c-4.2-21.4-9.6-42.4-16.9-62.9
	c-0.9-2.6-2-5.2-3.4-7.6C343.5,457.4,339.2,454.8,333.9,453.2z M116.9,496.8c-0.1,0-0.3,0-0.4,0c-0.2,2.8-0.4,5.5-0.5,8.3
	c-0.1,6.9-0.2,13.9-0.2,20.8c0,3,0,6,0.2,9c0.2,3.1,0.5,6.1,0.7,9.2c0.2,3.7,0.3,7.4,0.5,11c0.3,6.6,0.6,13.2,0.9,19.8
	c0.1,2.3,0.1,4.7,0.2,7c0.2,6.9,0.5,13.8,0.7,20.8c0.2,5,0.4,9.9,0.5,14.9c0.1,4.4,0.2,8.9,0.4,13.3c0.1,3.6-1.2,6.6-4,8.8
	c-0.9,0.7-1.9,1.5-2.9,2.2c-1.5,1.1-3.2,2-4.7,3.1c-13.2,9.4-26.4,18.8-39.6,28.2c-13.7,9.8-26.7,20.5-40,31c-1-1.1-0.9-2.5-0.9-3.8
	c0-1.4,0-2.8,0-4.2c-0.1-5.5-0.4-11-0.4-16.5c0-8.7,0.2-17.5,0.3-26.2c0-18.5,0-37.1,0-55.6c0-7.3,0.2-14.6,0.4-21.9
	c0.2-6.8,0.6-13.5,0.9-20.3c0.3-5.9,0.6-11.7,0.9-17.6c0.3-6.8,0.7-13.5,0.9-20.3c0.2-7.1,0.3-14.1,0.5-21.2c0.1-3.1-0.1-6.2,0-9.2
	c0.1-3.2,0.4-6.4,0.6-9.7c28.6-6.2,57-12.3,85.4-18.4c0.2-0.9,0.3-1.7,0.5-2.8c-1.2,0.3-2.1,0.4-2.9,0.7c-6.3,2.2-12.8,3.3-19.3,4.4
	c-10.4,1.8-20.9,3.4-31.3,5.5c-9.9,2-19.7,4.4-29.5,6.7c-2,0.5-3-0.4-2.7-2.5c0.2-1.5,0.5-2.9,0-4.4c-0.2-0.5-0.1-1.2-0.1-1.8
	c0.2-4,0.5-8.1,0.7-12.1c0.3-6.5,0.7-13.1,0.9-19.6c0.3-9,0.6-18,0.9-27.1c0.2-5,0.3-9.9,0.5-14.9c0.2-4.8,0.3-9.6,0.5-14.4
	c0.2-5.2,0.3-10.4,0.5-15.6c0.2-6,0.6-12,0.9-18c0.4-7.4,1-14.7,1.3-22c0.3-6.7,0.4-13.4,0.6-20.1c0.1-3.8,0.2-7.5,0.3-11.3
	c0-1.7,0.1-3.5,0.2-5.2c0.2-6.1,0.6-12.2,0.7-18.2c0.1-3.6-0.3-7.2-0.2-10.8c0-5.3,0.2-10.5,0.3-15.8c0-1.3,0.2-2.7,0.3-4
	c0.2-3.7,0.4-7.4,0.6-11.3c2.2-0.3,4.4,0.3,6.5,0.8c4.3,1.1,8.6,2.3,12.9,3.1c4.1,0.8,8.3,1.6,12.3,2.7c3.3,0.9,6.6,1.5,9.9,2
	c5.5,0.8,11,1.4,16.6,2.1c9,1.1,17.9,2.4,27,2.3c2.9,0,5.7,0.3,8.6,0.4c0.8,0,1.5,0.2,1.5,1.3c-0.1,1.6-0.2,3.3-0.3,4.9
	c-0.6,6.3-1.2,12.5-1.7,18.8c-0.5,7-0.9,14.1-1.4,21.1c-0.3,5-0.7,10-1,15.1c-0.4,6.5-0.8,13-1.3,19.6c-0.2,3.1-0.4,6.3-0.7,9.4
	c-0.5,6.4-1.1,12.7-1.6,19.1c-0.4,5.8-0.7,11.5-1.1,17.3c-0.4,6.1-0.8,12.1-1.2,18.2c-0.3,4.4-0.4,8.7-0.6,13.1
	c-0.4,6.3-1,12.6-1.1,18.9c-0.2,6.9,0,13.9,0,20.8c0,0.3,0,0.7,0.1,1.5c2.2-3.4,4.1-6.3,5.7-8.9c-0.2-1.3-0.6-2.3-0.5-3.2
	c0.2-5.6,0.5-11.3,0.9-16.9c0.4-6.4,0.9-12.9,1.3-19.3c0.5-6.9,1-13.8,1.3-20.7c0.4-7.3,0.6-14.6,0.9-21.9c0.2-3.8,0.3-7.5,0.5-11.3
	c0.2-4,0.6-7.9,0.8-11.9c0.2-3.2,0.3-6.5,0.5-9.7c0.3-6.9,0.6-13.8,0.9-20.7c0.2-4.4,0.4-8.7,0.6-13.1c0.4-6,0.8-12,1.2-18
	c0.3-4.6,0.7-9.1,1.1-13.7c0.7-8.2,1.4-16.3,2.1-24.4c0.4-4.9,0.6-9.9,0.9-14.8c0.4-6.4,0.9-12.9,1.4-19.3
	c0.4-6.3,0.9-12.6,1.3-18.9c0.5-7.6,1-15.3,1.3-22.9c0.3-7,0.4-14,0.5-21c0.2-14.4,0.3-28.8,0.5-43.1c0-3.1,0.3-6.3,0.6-9.4
	c0.7-5.9,0.7-11.9,0.7-17.8c0-0.2-0.1-0.4-0.3-0.9c-2.6-1.1-5.4-2.2-8.2-3.3c-2.9-1.1-5.8-2-8.7-3.1c-6.3-2.4-12.6-4.9-19-7.3
	c-12.4-4.6-24.9-9.1-37.3-13.7c-6.6-2.4-13.3-4.9-19.9-7.3c-1-0.4-2.1-0.6-3.3-0.9c-0.1,0.7-0.2,1.2-0.1,1.6
	c0.4,3.6-0.2,7.2-0.8,10.8c-0.8,4.7-1.7,9.3-2.2,14c-0.7,5.7-1,11.4-1.4,17c-0.5,8-0.9,16-1.3,24.1c-0.2,4.5-0.4,9-0.6,13.5
	c-0.3,5.8-0.8,11.5-1.2,17.3c-0.2,3.2-0.4,6.4-0.7,9.7c-0.4,4.6-0.8,9.1-1.1,13.7c-0.3,3.7-0.4,7.4-0.6,11c-0.5,8-1.1,16-1.6,24
	c-0.2,3.3-0.4,6.6-0.6,9.9c-0.4,5.2-0.8,10.3-1.2,15.5c-0.3,3.8-0.4,7.5-0.6,11.3c-0.4,5.4-0.9,10.8-1.1,16.2
	c-0.3,7.7-0.4,15.5-0.5,23.3c-0.1,4.9,0,9.8-0.2,14.7c-0.2,4.7-0.7,9.4-1.1,14.1c-0.3,3.8-0.7,7.6-1,11.4c-0.3,4.2-0.4,8.4-0.6,12.6
	c-0.2,4.3-0.5,8.7-0.7,13c-0.2,5-0.3,10.1-0.5,15.1c-0.2,5.3-0.3,10.5-0.5,15.8c-0.2,6-0.3,12-0.5,18c-0.2,5.7-0.3,11.4-0.4,17.1
	c-0.1,6.1-0.1,12.2-0.2,18.3c-0.1,4.4-0.2,8.9-0.3,13.3c-0.2,7.1-0.3,14.1-0.5,21.2c-0.1,4.5-0.3,9-0.4,13.5
	c-0.3,7.4-0.6,14.9-0.9,22.3c-0.3,5.6-0.6,11.3-0.9,16.9c-0.3,5.8-0.6,11.5-0.9,17.3c-0.3,7.4-0.6,14.7-0.9,22.1
	c-0.3,7.8-0.6,15.6-0.9,23.4c-0.2,4.1-0.3,8.1-0.5,12.2c-0.1,1.8-0.1,3.6-0.2,5.4c-0.2,5.5-0.7,11-0.7,16.4c0,9.5,0.2,19,0.3,28.5
	c0.2,18.2,0.3,36.3,0.5,54.5c0.1,8.6,0.3,17.2,0.4,25.7c0.1,4.6,0,9.2,0,14.1c3.1-1.8,6.2-3.4,8.9-5.4c9.5-6.8,18.9-13.7,28.3-20.7
	c12.9-9.7,25.7-19.4,38.5-29.2c7.4-5.7,14.5-11.7,21.6-17.4c-0.1-3.8-0.3-7.2-0.4-10.5c-0.3-9.5-0.6-19-0.9-28.4
	c-0.2-4.5-0.4-9-0.6-13.5c-0.3-5.6-0.7-11.3-0.7-16.9c-0.1-6.8,0.2-13.5,0.2-20.3c0-11.1,0.1-22.1,1.4-33.1c0.2-1.8,0.2-3.6-0.8-5.3
	c-0.4-0.8-0.6-1.7-0.9-2.6C118.7,503.1,117.8,500,116.9,496.8z M150.8,55.2c0,1,0,1.9,0,2.7c0.3,4.9,0.3,9.8-0.1,14.6
	c-0.5,4.9-1,9.7-1.2,14.6c-0.2,5.2-0.1,10.4-0.2,15.6c-0.1,11.3-0.2,22.6-0.3,33.9c-0.1,4.8-0.3,9.6-0.4,14.4
	c-0.2,4.1-0.4,8.1-0.6,12.2c-0.2,4.3-0.5,8.7-0.8,13c-0.2,3.4-0.4,6.9-0.6,10.3c-0.5,7.1-1.1,14.2-1.6,21.3
	c-0.3,3.9-0.4,7.8-0.6,11.7c-0.4,5.5-0.8,10.9-1.2,16.4c-0.4,4.6-0.8,9.3-1.1,13.9c-0.5,6.5-1.1,13-1.5,19.5
	c-0.3,4.6-0.4,9.2-0.6,13.7c-0.4,6.3-0.8,12.6-1.2,18.9c-0.4,7.4-0.6,14.7-0.9,22.1c-0.2,4.8-0.6,9.6-0.9,14.4
	c-0.3,6.2-0.6,12.4-0.9,18.7c-0.3,6.2-0.5,12.3-0.9,18.5c-0.5,8.2-1.2,16.5-1.8,24.7c-0.4,7-0.7,14.1-1.1,21.2c0,1,0,2,0,3.1
	c4.4-4.7,8.6-9.2,13.6-12.8c0.2-4.9,0.2-9.7,0.5-14.6c0.2-5.4,0.5-10.8,0.9-16.2c0.3-4,0.7-8.1,1.1-12.1c0.8-7.4,1.7-14.8,2.5-22.1
	c0.7-6.6,1.3-13.3,2-19.9c1.1-10.7,2.3-21.5,3.4-32.2c0.7-7,1.3-14.1,1.8-21.1c0.5-7.3,0.9-14.7,1.4-22c0.3-5.7,0.7-11.4,1-17.1
	c0.4-6.1,0.8-12.1,1.2-18.2s0.7-12.1,1.1-18.2c0.4-5.7,0.9-11.4,1.3-17.1c0.3-4.3,0.7-8.7,1-13c0.4-5.8,0.8-11.5,1.2-17.3
	c0.4-5.1,0.8-10.2,1.3-15.3c0.4-4.7,1-9.4,1.4-14.1c0.4-5.1,0.8-10.2,1-15.3c0.2-5.7,0.3-11.4,0.4-17.1c0-2.3-0.2-4.5-0.3-6.7
	c-0.1-5.9,0-11.8-0.2-17.6c-0.1-2.9-0.5-5.8-0.7-8.7c-1.1,0-1.9,0-2.7,0c-1.1,0-2.3,0.2-3.3-0.1C158.9,54.6,155,55.2,150.8,55.2z
	 M278.1,640.1c5,0.1,9.9,0.2,14.7,0.4c4.8,0.1,9.6,0.2,14.4,0.5c7.7,0.4,15.5,0.9,23.2,1.6c10.3,0.8,20.5,1.9,30.8,2.7
	c6.5,0.5,13.1,0.9,19.6,1.1c10.7,0.4,21.4,0.6,32.1,1c0.4,0,0.8,0,1.6,0c-4.8-3.4-9.4-5.2-14.9-4.7c-3.1,0.3-6.1,1-9,2
	c-4.8,1.6-8.1-0.8-8.7-5.3c-0.4-2.7-0.5-5.5-0.4-8.3c0-5.4,0.9-10.8,0.6-16.2c-0.2-3.4-0.8-6.6-2.6-9.5c-2.1-3.3-4.4-6.4-6.6-9.7
	c-0.8-1.1-1.8-1.5-3.1-1.5c-2.6,0-5.3-0.1-7.9-0.2c-3.6-0.1-7.2-0.2-10.8-0.5c-6.6-0.5-13.2-1-19.8-1.6c-7.7-0.6-15.4-1.2-23.1-1.9
	c-10.7-1-21.4-1.9-32.1-3.2c-3.5-0.4-6.2,0.1-8.8,2.5c-2.4,2.1-5.2,3.8-7.9,5.8c0.5,0.7,1,1.3,1.6,1.9c3.9,4.4,7.1,9.1,9.4,14.5
	c1.1,2.6,2.1,5.2,0.7,8.1c0.7,0.6,1.2,1.2,1.8,1.6c2.4,1.5,3.4,3.7,4,6.3c0.4,1.7,0.6,3.4,0.8,5.1
	C277.7,635,277.9,637.5,278.1,640.1z M281.6,838.5c-0.4-0.6-0.6-0.9-0.8-1.2c-1.9-2.3-3.9-4.6-5.8-6.9c-2.7-3.2-4.2-6.9-5.3-10.8
	c-2.4-8.9-3.4-18-3.5-27.2c-0.1-12.5,0.1-25,0.3-37.5c0.2-9.4,0.5-18.8,0.9-28.2c0.3-5.6,0.9-11.2,1.6-16.8c0.9-7.7,2.1-15.5,3-23.2
	c0.7-5.6,1.4-11.2,1.9-16.8c0.6-6,1.4-11.9,1.5-17.9c0.2-6.8-0.1-13.7-0.4-20.5c-0.2-4.2-1.6-7.9-5.3-10.4c-0.9,1.3-1.5,2.8-2.6,3.9
	c-3.1,3.1-6.1,6.3-9.5,9c-5.3,4.2-10.2,8.7-14.9,13.5c-1.2,1.3-2.3,2.7-3.5,4c4,6,3.7,12.1,1.2,18.3c-1.1,2.6-2.2,5.3-3.4,7.9
	c-4.8,10.4-7.7,21.2-7.5,32.7c0,1.9,0.2,3.8,0.3,5.6c0.2,5.5,0.8,11,2.2,16.3c2.9,11,7.9,21.3,13.1,31.4c3.3,6.3,6,12.8,6.8,19.9
	c0.6,5.2,0.4,10.4-2.4,15.1c-0.4,0.7-0.8,1.5-1.1,2.2c-1.4,3-0.9,5.3,1.7,7.4c0.7,0.6,1.5,1,2.1,1.7c0.9,1.1,1.9,2.2,2.4,3.5
	c0.7,1.9,1.3,3.9,1.5,5.9c0.3,2.4,0.3,4.8,0.4,7.2c0,2.2,0.5,4.2,2,5.8c2.3,2.5,5,4.3,8.3,5.1C271.5,838.4,276.3,838.4,281.6,838.5z
	 M289.5,556.1c0.9,3.3-1,6.2-0.4,9.2c0,0.2-0.1,0.4-0.2,0.6c-1.7,3.4-3.6,6.8-6.4,9.5c-2.8,2.8-5.7,5.5-8.6,8.3
	c-0.3,0.3-0.6,0.7-1.1,1.2c0.8,0.1,1.3,0.3,1.8,0.3c5.3,0.3,10.7,0.6,16,0.9c9.1,0.6,18.1,1.3,27.2,2c8.5,0.7,16.9,1.4,25.4,2
	c7.2,0.5,14.4,0.9,21.6,1.3c1.5,0.1,3,0,4.8,0c-1.1-1.2-1.9-2.2-2.8-3.1c-5.3-5.2-10.6-10.5-15.9-15.7c-1.6-1.5-3.2-2.9-4.8-4.4
	c-3.8-3.6-7.5-7.2-11.3-10.7c-0.3-0.3-0.9-0.6-1.3-0.6c-1.6-0.1-3.1,0-4.7,0c-6.1-0.1-12.2-0.1-18.3-0.2c-4.2-0.1-8.4-0.5-12.6-0.6
	C295.2,556.1,292.6,556.1,289.5,556.1z M200.7,638.8c0.1-0.2,0.1-0.4,0.2-0.5c-2.7-2.9-5.3-6-8.1-8.7c-5.9-5.7-12-11.2-17.9-16.8
	c-7.4-7-14.6-14.1-19.9-22.9c-1.2-2-2.4-3.8-5.2-3.2c-0.2,0-0.4-0.1-0.7-0.1c-1.9-0.2-3.9-0.3-5.7-0.5
	c-6.5,16.9-12.8,33.7-18.3,50.8c3.9-0.1,7.6-0.3,11.3-0.4c5.8,0,11.6,0,17.4,0.2c6.1,0.2,12.2,0.7,18.2,1c2.3,0.1,4.7,0,7,0.3
	c6.6,0.6,13.2,1,19.8,0.9C199.4,638.8,200,638.8,200.7,638.8z M399,560.2c0.7,0.1,1,0.2,1.3,0.2c3.2,0.2,6.5,0.4,9.7,0.4
	c8.3,0,16.7-0.2,25.1-0.2c1,0,2,0.1,2.9,0.2c3.7,0.2,7.3,0.4,11.1,0.6c0.6-12.4,1.2-24.6,1.8-37c-8.2-1.1-16.5-0.3-24.6-0.7
	c-8.2-0.4-16.5-0.5-24.9-0.7C400.6,535.2,399.8,547.6,399,560.2z M451.2,649.4c-0.2-2.1-0.5-4.1-0.6-6.1c-0.5-5.9-0.9-11.8-1.4-17.7
	c-0.3-4.1-0.6-8.2-0.8-12.4c-0.2-5.5-0.1-11-0.1-16.5c0-0.3-0.1-0.6-0.2-1c-0.6,0-1.1,0-1.6,0c-5,0.1-10.1,0.3-15.1,0.3
	c-4.7,0-9.3-0.1-14-0.2c-3.8-0.1-7.7-0.3-11.5-0.6c-2.1-0.1-4.2-0.3-6.3-0.5c-1.4-0.1-2.7,1.2-4.1-0.2c0.1,0.5,0.2,0.7,0.3,1
	c4.9,8.9,10.2,17.4,16.9,25c2.9,3.3,6.2,6.4,9.9,8.9c6.8,4.6,13.9,8.7,21.4,12c2,0.9,2.7,2,2.3,4.3c-0.2,1.1-0.5,2.3-0.8,3.6
	C447.4,649.4,449.2,649.4,451.2,649.4z M399.1,593c3.6,1,44.2,1.3,49.2,0.3c0.2-9.7,0.4-19.3,0.6-29.1c-0.8-0.1-1.4-0.2-2-0.2
	c-3.4-0.2-6.8-0.4-10.1-0.4c-5.9,0-11.8,0.1-17.6,0.2c-4.1,0.1-8.1,0.2-12.2,0.3c-2.6,0-5.2,0-7.9,0
	C398.7,573.7,398.3,583.4,399.1,593z M123.2,516.3c-0.1,0-0.3,0-0.4,0.1c0,0.3-0.1,0.5-0.1,0.8c-0.3,4.2-0.7,8.4-0.8,12.6
	c-0.2,6.2-0.2,12.5-0.2,18.7c0.1,9.8,0.2,19.5,0.5,29.3c0.1,5.6,0.6,11.2,0.9,16.9c0.3,7.4,0.7,14.7,0.9,22.1
	c0.1,3.8,0.1,7.7,0.2,11.5c0,0.6,0.2,1.3,0.3,2.4c0.4-0.8,0.6-1,0.7-1.3c2.8-7.5,5.5-15.1,8.3-22.7c1.4-3.7,2.9-7.4,4.3-11.1
	c1-2.6,2.1-5.1,3.2-7.7c0.6-1.4,1-2.8,0.3-4.3c-0.3-0.8-0.3-1.8-0.4-2.7c-0.3-6.7-0.6-13.3-1-20c-0.1-1.1-0.4-2.2-0.8-3.2
	c-1.6-3.9-3.4-7.7-4.9-11.7c-3.2-8.5-6.3-17.1-9.4-25.6C124.4,519,123.8,517.7,123.2,516.3z M398.2,519.1c0.2-9.3,0.4-18.7,0.6-28.3
	c-13.3-0.9-26.5-1.3-39.7-1.6c2.5,9.6,4.9,19.1,7.3,28.6C376.9,518.3,387.4,518.7,398.2,519.1z M451.6,495.6
	c-1.7-0.4-3.5-0.9-5.4-1.3c-2.2-0.5-4.2-0.1-6.1,1.1c-2.2,1.5-3.7,3.5-4,6.2c-0.2,1.6-0.2,3.3-0.5,4.9c-0.2,1.7,0.3,2.5,2,3
	c2.1,0.6,4,0,5.8-1.2c1.2-0.8,1.2-1,0.1-2.5c-0.8,0.2-1.6,0.4-2.4,0.4c-0.4,0-1-0.2-1.2-0.4c-0.5-0.9-0.2-1.7,0.4-2.5
	c0.5-0.7,1.1-1.5,2-1.1c1.4,0.7,2.9,1.3,4,2.4c1.6,1.4,1.5,3.4-0.1,5c-3.6,3.6-9,3.9-12.9,0.7c-0.3,0.3-0.7,0.5-1,0.8
	c-3.9,2.9-9.6,2.3-13-1.2c-2.1-2.2-1.8-5.8,0.7-7.5c1.6-1.1,3-0.8,4,0.9c0.8,1.4,0.5,2.5-1,3.1c-0.8,0.3-1.6,0.5-2.6,0.7
	c0.2,0.5,0.3,0.9,0.6,1.1c2,2.1,6.7,2.8,9.3,1.4c1.5-0.8,2.4-1.9,2.3-3.8c-0.1-1.3,0-2.6,0.4-3.8c0.4-1.3,0.1-2.3-0.6-3.1
	c-1.1-1.2-2.1-2.4-3.5-3.2c-6.3-3.7-13.7-3.4-19.5,1c-5.6,4.2-6.3,9.9-1.1,15.2c3.2,3.2,7,5.2,11.4,6c6.6,1.1,13.2,2.2,20,2
	c3.8-0.1,7.2-1.4,10.4-3.3c0.8-0.5,1.1-1.1,1.1-2c0.1-3.1,0.3-6.2,0.4-9.2C451.7,502.2,451.6,499.1,451.6,495.6z M196.7,484
	c-0.3,2.1-0.7,3.7-0.8,5.4c-0.2,4.8-0.3,9.6-0.5,14.4c-0.1,2.1,0.1,4,1.6,5.6c0.7,0.8,1.3,1.7,1.8,2.6c0.6,0.9,1.2,1.4,2.4,1.4
	c5,0,9.9,0.1,14.9,0.1c0.7,0,1.5-0.5,2.2-1c4.1-2.7,8.3-5.5,12.4-8.2c0.4-0.3,0.8-0.5,1.4-1c-5.7-2.6-9.5-6.9-12.9-11.7
	c-1.5-2.1-2.8-4.3-4.1-6.5c-0.5-0.9-1.1-1.3-2.1-1.3C207.6,484,202.4,484,196.7,484z M325.2,432.4c-4-0.8-7.7-1.6-11.4-2.4
	c-3.7-0.8-7.4-1.7-11.4-2.7c-0.8,11.8-1.6,23.6-2.5,35.8c2-1.6,3.6-2.8,5.2-4.1c2.9-2.4,5.7-4.9,8.6-7.3c1.2-1,2.6-1.8,4-2.5
	c0.9-0.5,1.9-0.6,2.6,0.7c-0.8,1.5-1.6,3.1-2.6,4.6c-1.7,2.6-3.6,5-5.4,7.5c-0.3,0.4-0.4,0.8-0.6,1.2c0.1,0.1,0.3,0.2,0.4,0.3
	c3-2.6,5.9-5.3,8.9-7.9c1.2-1,2.2-2.3,3.6-3.1c1.4-0.8,1.6-1.8,1.5-3.1c-0.2-3.2-0.3-6.5-0.5-9.7
	C325.6,437.3,325.4,434.9,325.2,432.4z M195.7,361.9c-0.8,0.5-1.4,0.8-1.9,1.3c-2,1.9-4,3.9-5.4,6.3c-3,5.1-4.4,10.8-5.9,16.5
	c1.8,0,3-0.6,3.5-2.4c0.2-0.7,0.5-1.3,0.8-1.9c0.9-1.9,2.7-2.3,4.4-1c0.7,0.6,1.3,1.4,1.8,2c2.2-2.4,4.4-4.9,6.7-7.2
	c0.5-0.5,1.4-1.1,1.9-0.9c1.2,0.4,2.2-0.2,3.3-0.1c1.3,0,2.7,0.2,4,0.4c0.9,0.2,1.8,0.7,2.7,1c1.7-1.1,2-1.2,3.4,0
	c1.7,1.5,3.7,2.3,5.8,2.9c2.7,0.8,5.4,0.8,8.1,0.2c-0.4-1.3-1-2.4-0.9-3.5s0.8-2.2,1.3-3.4c-1.3-0.1-2.5,0-3.7-0.2
	c-1.9-0.3-2.8-2.3-1.9-3.9c0.3-0.5,0.7-0.9,1.1-1.5c-0.8-0.3-1.5-0.5-2.1-0.7c-2-0.7-4-1.3-6-2c-1.6-0.5-2.9-1.3-3.2-3.2
	c-4,1.1-7.9,2.2-11.8,3.3c-1.1,0.3-2.2,0.7-3.3,1c-1.4,0.3-1.9,0-2.3-1.4C195.9,363,195.9,362.6,195.7,361.9z M302.4,539
	c-4.7,4.8-12.1,13.6-12.7,15.1c14.1-0.8,28.1,0.4,42.4,0.2c-2.3-4.7-2.5-9.5-3-14.6C320.2,539.5,311.4,539.3,302.4,539z M397,538.5
	c0.3-5.3,0.6-10.8,1-16c-10.4-0.8-20.7-1.6-31.3-2.5c1.4,6.5,2.8,12.9,4.2,19.4C379.6,538.4,388.1,538.3,397,538.5z M396.7,541.7
	c-8.6,0.4-16.9-1.1-25.2-0.9c0,0.5,0,0.9,0.1,1.3c1.5,5.8,3.5,11.5,5.9,17c0.4,1.1,1.1,1.4,2.2,1.4c4.2,0,8.4,0.1,12.6,0.1
	c1.2,0,2.3-0.2,3.5-0.3C396.2,554,396.5,547.8,396.7,541.7z M379.1,562.2c0.3,0.9,0.5,1.6,0.8,2.1c3.5,7.2,7,14.3,10.5,21.5
	c1.1,2.1,2.3,4.2,3.4,6.3c0.5,0.8,1,1.3,1.8,0.9c0-9.8,0-19.5,0-29.2C390.1,563.3,384.8,562.8,379.1,562.2z M303.9,537.1
	c8.8-0.2,16.9-0.5,25.2-0.7c-0.5-4.9-0.9-9.6-1.4-14.6c-3.3-0.1-6.5-0.2-9.6-0.2c-0.6,0-1.2,0.5-1.6,1c-2.3,2.5-4.4,5.1-6.6,7.6
	C307.9,532.4,306.1,534.5,303.9,537.1z M195.5,461c0.7,7.1,1.4,13.9,2.1,20.9c1.5-0.1,3.2-0.2,4.8-0.3c1.7-0.1,3.5-0.2,5.2-0.4
	c1.6-0.3,3.2,0.7,4.8-0.1c-0.2-0.4-0.3-0.7-0.5-0.9c-3.5-5.6-7.6-10.8-12-15.8C198.8,463,197.5,461.9,195.5,461z M321.4,429
	c0-0.2,0.1-0.3,0.1-0.5c-3.9-1.2-7.8-2.4-11.8-3.6s-8-2.2-12-3.3c-0.1,2.8-0.3,5.5-0.4,8.3c-0.2,3.5-0.5,7-0.8,10.5
	c-0.5,5.7-0.9,11.4-1.5,17c-0.3,2.7,0.5,5.6-0.9,8.2c0,0.1,0.2,0.2,0.3,0.5c1.2-0.6,2.5-1.3,3.8-2c0-1.5-0.1-3,0-4.4
	c0.3-4.6,0.8-9.3,1.1-13.9c0.5-6.6,0.9-13.2,1.4-19.8c0-0.6,0.3-1.2,0.4-1.5C308.2,426.2,314.8,427.6,321.4,429z M330.3,427.3
	c-3.6-6.2-7-12.2-10.8-18.7c-1.1,5.6-2.1,10.7-3.1,15.9c2,0.6,3.8,1,5.5,1.7c1.7,0.8,3.3,2,5,3C328,428.5,329.2,427.8,330.3,427.3z
	 M150.9,583.6c-0.4-0.8-0.8-1.6-1.2-2.4c-1.3-2.8-2.7-5.5-3.8-8.4c-0.9-2.4-2.1-4.7-3.2-6.9c-0.2-0.4-0.5-0.7-0.9-1.3
	c0.5,6.5,0.9,12.7,1.4,19.1C145.8,583.6,148.2,583.6,150.9,583.6z M331.5,450.2c0.2-6.9,0.3-13.7,0.5-20.7c-1.5,0.5-2.9,0.9-4.3,1.3
	c-0.1,0.4-0.2,0.6-0.2,0.8c0.3,4.1,0.6,8.2,0.8,12.4c0.1,2,0.6,4.1-0.3,6.2C329.3,450.2,330.3,450.2,331.5,450.2z M213.8,516
	c-4.1-0.2-8.2-0.5-12.5-0.7c1.6,3.2,3.1,6.1,4.6,8.9C208.5,521.4,211.1,518.8,213.8,516z M402,490.9c0,3.7,0,7.2,0,10.4
	c1.5-1.9,2.9-4.1,4.7-5.8c1.8-1.6,4.1-2.6,6.3-4C409.3,491.3,405.7,491.1,402,490.9z M229.5,665.9c3.7-1.2,6.6-3.7,9.9-5.4
	c0.2-2.5-0.5-4.8-1.6-7C235.5,655.9,230,664.1,229.5,665.9z M319.4,466.8c0.1,0.1,0.2,0.2,0.3,0.3c0.2-0.1,0.4-0.1,0.6-0.2
	c2.4-1.5,4.7-3,7-4.5c1.4-0.9,3.4-1.6,4.1-3s0.2-3.4,0.2-5.1c0-0.7,0.2-1.5-0.4-2.5C328.2,457.8,323.3,461.9,319.4,466.8z
	 M401.4,519.6c2,0,3.6,0,5.2,0s3.3,0.2,5.3-0.3c-4.3-2.5-7.6-5.5-10.1-9.4C401.7,512.9,401.6,516,401.4,519.6z M325.4,512.3
	c-2.2,2.5-4.1,4.7-6.3,7.1c2.9,0,5.4,0.2,8-0.6C326.6,516.7,326.1,514.7,325.4,512.3z M428.9,492.4c2.1,1.8,3.9,3.5,5.7,5.1
	c1.4-1.5,2.9-3,4.5-4.7C435.6,492.6,432.3,492.5,428.9,492.4z M325.5,413.9c0.1,0,0.2,0,0.3-0.1c-1.1-2.9-2.1-5.8-3.3-8.8
	c-1.4,1.4-1.6,2.6-0.4,4.1C323.3,410.6,324.4,412.3,325.5,413.9z M286.6,562.6c0.9-1.9,0.9-3.6,0.3-5.5c-0.7,1.1-1.5,2.3-2.3,3.5
	C285.3,561.3,285.9,561.8,286.6,562.6z M451.1,517.6c-1.7,0.9-3.1,1.7-4.8,2.6c1.8,0.3,3.2,0.8,4.8,0.3
	C451.1,519.6,451.1,518.7,451.1,517.6z M220.9,392.3c-1.2,0.8-2.8,0.8-2.9,2.7c1,0,1.9,0,2.9,0C220.9,394.1,220.9,393.4,220.9,392.3
	z M450.7,492.2c0,0.2,0,0.3-0.1,0.5c0.4,0.1,0.8,0.2,1.2,0.2c0-0.1,0.1-0.3,0.1-0.4C451.5,492.4,451.1,492.3,450.7,492.2z
	 M225.8,392.4c-0.8-0.4-1.3-0.3-1.3,0.8C225.1,392.8,225.5,392.6,225.8,392.4z"/>
<g id="Color">
	<path class="st1" d="M42.6,226.2c7.6,3,15,4.7,22.5,6.2s14.8,3.8,22.5,4.5c7.6,0.8,15.2,2.1,22.8,2.9c7.6,0.7,15.3,1,23.1,1.5
		c-0.2,2.1-0.4,4.2-0.6,6.2c-0.6,6.1-1.3,12.2-1.7,18.4c-0.7,8.3-1.2,16.6-1.7,24.9c-0.2,3.6-0.3,7.2-0.6,10.8
		c-0.3,5.5-0.8,10.9-1.2,16.4c-0.4,4.9-0.7,9.7-1.1,14.6c-0.4,4.6-0.8,9.1-1.2,13.7c-0.3,3.7-0.4,7.4-0.6,11
		c-0.4,5.3-0.8,10.6-1.2,15.9c-0.3,4.1-0.4,8.1-0.6,12.2c-0.3,5-0.5,10-0.8,15.1c-0.2,4.3-0.4,8.6-0.6,12.8
		c-0.2,5.5-0.3,11-0.3,16.5c0,3.3,0.5,6.6,0.7,9.8c0,0.8,0,1.7-0.2,2.5c-1.1,3.5-2.4,7-3.5,10.4c-9.5,3.1-19.2,5.1-29.1,6.7
		c-13.1,2.1-26.2,4.5-39.1,8c-5.3,1.4-10.7,2.5-16.2,3.7c0-0.8-0.1-1.7,0-2.6c0.1-1.6,0.5-3.3,0.5-4.9c0.2-4,0.3-8,0.5-11.9
		c0.2-5.2,0.5-10.3,0.8-15.5c0-0.4,0.1-0.8,0.1-1.1c0.2-7.2,0.3-14.4,0.5-21.7c0.1-5,0.3-10.1,0.5-15.1c0.1-4.2,0.3-8.4,0.4-12.6
		c0.2-5.6,0.3-11.1,0.5-16.7c0.1-4.1,0.3-8.3,0.5-12.4c0.3-6.1,0.6-12.1,0.9-18.2c0.3-5.4,0.5-10.8,0.9-16.2
		c0.6-8.8,0.7-17.6,0.8-26.4c0.1-8.3,0.4-16.5,0.6-24.8c0.1-3.7,0.3-7.4,0.3-11c0-2.9-0.3-5.9-0.2-8.8c0.1-5.4,0.5-10.8,0.7-16.2
		c0.1-2,0.1-3.9,0.2-5.9C42.3,228.1,42.4,227.4,42.6,226.2z"/>

	<g class="st1">


	<path  d="M184.5,387.4c0.4,3.1,1,4.5,3.9,4c-0.2-0.6-0.2-1.3-0.5-1.8c-0.8-1.1-0.7-2.1-0.3-3.2c0.4-1.1,0.8-2.1,1.2-3.1
		c0.1-0.3,0.3-0.5,0.6-0.8c1,0.5,2.1,0.9,1.8,2.4c-0.1,0.5,0.3,1.1,0.6,2c0.6-0.6,1.1-0.9,1.4-1.3c2-2.2,4-4.5,6-6.7
		c0.4-0.5,0.7-1.1,1.6-0.6c0.3,0.2,0.9-0.3,1.3-0.6c2-1.2,4-1.4,6.2-0.3c1.8,0.9,3.5,2.1,5.7,1.6c0.3-0.1,0.7,0.2,1,0.4
		c3.7,2.1,7.6,3.2,11.9,2.3c0.1,0,0.3,0.1,0.6,0.2c-0.2,1.2-0.4,2.4-0.6,3.8c-2.7-1.1-5.4-1.5-8.2-0.5c-0.4,0.2-0.6,0.7-1.2,1.5
		c1.9-0.1,3.3-0.2,4.7-0.2c1.4,0,2.8,0,4.4,0c-0.3,1.4-0.6,2.5-0.8,3.7c-0.6-0.1-1.1-0.2-1.6-0.3c-3-0.4-6.6,1.3-8.1,3.9
		c-0.8,1.3,0,2.9,1.7,3.1c1.9,0.3,3.9,0.5,6-0.7c-2.2,9.5-7.8,16.1-15,21.8c-1.5-1.4-2.8-2.9-4.3-4c-3.7-2.6-7.4-5.1-11.2-7.6
		c-2.8-1.8-3-2.1-1.9-5.3c0.3-1.1,0.8-2.1,1.1-3.2c0.4-1.2,0.6-2.4,0.9-3.6c-0.2-0.1-0.3-0.2-0.4-0.3c-0.4,0.3-1,0.5-1.3,0.9
		c-2.3,2.6-3.1,5.8-3.4,9.1c-0.1,1.3,0.4,2.5,1.6,3.3c1.5,1.1,3,2.3,4.6,3.2c4.5,2.6,8.8,5.5,12.6,9.1c1.2,1.1,1.6,1.1,2.9,0
		c1.7-1.5,3.4-2.9,5.2-4.4c1.4,1.4,1.8,3.1,2,4.9c0.5,3.9,0.8,7.9,1.3,11.9c0.3,2.3,0.7,4.6,1.4,6.8c0.8,2.5,2.8,4.2,4.8,5.9
		c2.4,2.1,4.9,4,7.2,6.2c5.5,5.2,10.4,10.9,14.2,17.5c1.3,2.2,2.3,4.7,3.2,7.2c0.9,2.4,1.5,4.9,2.2,7.1c-1.5,1.7-3,3.3-4.4,4.9
		c-0.2,0.2,0,0.7,0,1.5c10.6-8.5,22.8-11,36.1-11.8c-1,1.2-1.5,2.2-2.3,2.9c-4.1,4-8.7,7.4-13.9,10c-4,2-8.2,3.7-12.4,5.3
		c-5.7,2.2-11.5,4.1-17.2,6.2c-1,0.4-1.8,0.3-2.8,0c-6.2-2.3-10.5-6.7-14.1-11.9c-2.5-3.6-4.7-7.4-6.9-11.1
		c-3.4-5.6-7.4-10.6-11.8-15.4c-1.7-1.9-3.9-3.3-6.6-4.2c0.2-1.8,0.3-3.6,0.7-5.3c0.4-1.7,1-3.5,1.8-5.1s1.8-3.1,2.9-4.5
		s2.4-2.6,3.6-3.9c-1-0.7-1.7-0.5-2.3-0.1c-0.6,0.4-1.3,0.8-1.8,1.3c-3.8,4.1-6.5,8.6-6.7,14.4c-0.2,5.3,0.7,10.5,1.3,15.7
		c0.5,3.8,1,7.6,0.3,11.4c-0.4,2.2-1.1,4.2-2.5,6c-1,1.4-1.7,2.9-1.5,5c1.1-0.9,1.9-1.6,3-2.6c0.3,4.5-0.6,8.6-0.5,13.1
		c-0.6-0.5-1-0.8-1.3-1.1c-3.4-3.9-6.7-7.8-10.1-11.6c-0.6-0.7-0.8-1.3-0.7-2.2c0.2-2.2,0.5-4.3,0.5-6.5c0-6.5-0.1-13-0.1-19.4
		c0-0.7-0.1-1.4-0.3-2c-0.1-0.3-0.7-0.5-1.2-1c-1.3,9.4-0.8,18.4-0.6,27.5c-0.5,0-0.7,0.1-0.7,0c-3.6-3.8-7.1-7.6-9.2-12.5
		c-1.3-3-1.9-6.2-1.9-9.4c0-4.7,0.1-9.5,0-14.2c0-2.3-0.2-4.7-0.6-6.9c-0.7-4.9-3-9.1-5.8-13.1c-1.1-1.6-2.3-3.2-3.5-4.7
		c-0.6-0.8-0.7-0.8-2.1-0.6c0.3,1.7,1.2,3,2,4.4c1.7,3.2,3.5,6.5,5.1,9.8c1.2,2.5,1.6,5.2,1.7,7.9c0.2,5.5,0.5,11,0.4,16.5
		c-0.1,6.8,2,12.9,6,18.3c2.8,3.7,5.8,7.3,9,10.7c7.2,7.7,13.6,15.9,19.3,24.7c3,4.6,4.7,9.7,6.5,14.9c0.7,2.1,1.5,4.1,2.4,6.1
		c0.4,0.8,1.1,1.5,1.9,2.6c0.9-2,0.7-3.5,0.1-5c-1-2.8-2-5.7-3-8.3c2.2-4.2,5.7-7,9.2-9.8c6.8-5.3,13.7-10.3,21.8-13.5
		c5.3-2.1,10.6-4.2,16-6.1c9.8-3.6,18.7-8.5,26.5-15.6c3.6-3.2,5.5-7.1,6-11.8c0.1-1.3,0.4-2.7,0.5-4c0.3-2.7,1.5-4.8,3.7-6.4
		c0.5-0.3,0.9-0.7,1.6-1.3c0.2,1.3,0.2,2.4,0,3.5s-0.3,2.2-0.2,3.3c0.2,1.8,1.2,2.4,2.8,1.6c2.2-1,4.4-2.1,6.2-3.6
		c3.8-3,7.4-6.4,11.1-9.6c1.4-1.2,2.8-2.4,4.3-3.5c-3.3,5.6-8.1,10.2-10.6,16.9c1.1-0.5,1.8-0.7,2.4-1.1c5.2-3.4,10.1-7.1,14.6-11.4
		c1.3-1.3,2.9-2.2,4.6-3.1c-0.7,2.1-2.2,3.7-3.6,5.3c-2.9,3.1-5.9,6-8.8,9.1c-1.2,1.2-2.1,2.7-3.1,4.1c-0.1,0.2,0,0.5,0.1,1.1
		c1.1-0.3,2.2-0.5,3-1c4.4-2.3,8.8-4.6,13.2-6.9c0.8-0.4,1.6-0.9,2.9-1.6c-0.3,1-0.4,1.5-0.7,1.9c-1.7,2.7-4,4.9-6.5,6.9
		c-0.8,0.7-1.7,1.2-2.5,1.9c-2,1.7-3.9,3.5-5.6,5.1c0,1.2,0.6,1.4,1.4,1.3c1.4-0.3,2.8-0.5,4.2-0.9c2.8-0.8,5.6-1.6,8.7-2.5
		c-1.3,2.3-3,3.8-4.9,5c-3.3,2.2-7,3.4-10.8,4.5c-7.7,2.2-15.4,4.3-23,6.4c-1.9,0.5-3.6,1.4-5.2,2.6c-8.4,6.3-16.2,13.2-23.7,20.6
		c-7.8,7.7-15.8,15.3-23.9,22.7c-2.6,2.4-5.5,4.5-8.5,6.3c-6.7,3.9-13.1,8.3-19.5,12.8c-0.7,0.5-1.4,0.9-2.1,1.4
		c-0.2,0.1-0.4,0.1-0.3,0.1c-2.6-1.5-5-2.9-7.5-4.1c-8.9-4.5-17.8-8.8-26.6-13.4c-8.2-4.2-15.2-9.8-18.9-18.6
		c-1.7-3.9-3.1-8-4.3-12.1c-1.7-5.9-3-11.9-4.6-17.9c-1.4-5.4-3.5-10.6-6.2-15.5c-1-1.9-2.4-3.6-3.8-5.3c-0.6-0.7-1.3-1.5-2.7-0.9
		c0.3,0.6,0.5,1.1,0.9,1.5c1.9,2.2,3.3,4.7,4.4,7.3c3.6,8.4,5.8,17.2,7.7,26.1c1.5,6.6,3.5,13.1,6.4,19.2
		c2.8,5.7,6.7,10.5,11.9,14.2c4.6,3.3,9.6,6,14.6,8.6c0.8,0.4,1.6,0.8,2.7,1.4c-1.4,1.2-2.6,2.2-3.8,3.1c-6.4,5-13.4,8.9-20.8,12.3
		c-2.9,1.4-5.8,2.8-8.8,4.1c-0.4,0.2-0.8,0.2-1.5,0.4c-1.3-2.7-2.6-5.4-3.8-8.1c-5.4-11.5-9.4-23.6-14-35.5
		c-2.2-5.7-4.6-11.5-6.8-17.2c-2.5-6.5-4.2-13.1-4.9-20.1c-0.1-1.1-0.1-2.3-0.2-3.4c-0.1-3.1-0.4-6.2-0.3-9.2
		c0.2-4.9,0.3-9.9,1.1-14.8c1-5.9,2-11.7,4.4-17.2c1-2.3,2-4.6,3.2-6.7c3.7-6.4,7.9-12.4,13.2-17.7c5.2-5.3,11.3-9.3,17.7-12.8
		c4.1-2.3,8.3-4.5,12.5-6.8c4.1-2.2,7.7-5.1,10.1-9.1C181.1,389.4,183,388.9,184.5,387.4z M207.5,409c1.4,0.2,2.8,0.2,3.9,1.4
		c0.8,0.8,1.8,0.6,2.4-0.5c-1.3-1.3-2.1-3.1-4.2-3.4c-1.9-0.3-3.8-1.1-5.6,0.2c-0.1,1.1,0.5,1.4,1.4,1.2
		C206.4,407.7,207.2,408.1,207.5,409c-0.6,0-1.2,0-1.8-0.1c0.7,2.4,1.9,2.8,4.2,1.6C209.1,410,208.3,409.5,207.5,409z M164.9,423.2
		c3.8-2.2,7.9-3,12.1-3.3c2-0.2,4.2-0.5,6.1-2.2c-5.1-0.8-9.7-0.7-14.4,0.8c1.3-2,2.7-3.7,4-5.5s2.8-3.6,3.6-5.9
		c-1.4-0.3-1.7,0.7-2.2,1.3c-2,2.4-3.9,4.8-5.8,7.2c-1.3,1.6-2.5,3.2-3.8,4.7C163.8,421.2,163.8,422.2,164.9,423.2z M209.5,393.2
		c-0.1-3.7-2.1-6.1-5.1-7.9c-0.9-0.6-2.1-1-3.1-1.1c-1.6-0.2-2.3,0.4-2.1,2c0.2,1.4,0.4,2.9,1.1,4.1c1.3,2.6,3.3,4.4,6.2,5.1
		C208.2,395.9,209.5,394.8,209.5,393.2z M214.2,393c-0.5-0.5-1.1-0.1-1.3,0.5c-0.6,1.9-1.3,3.8-1.6,5.8c-0.2,1.6,0,3.3-1.8,4.2
		c1.6,1.1,2.3,1,3-0.3c0.3-0.5,0.5-1.1,0.5-1.7C213.5,398.7,213.8,395.9,214.2,393z M211.3,384.6c-1-4.2-5.7-6.7-9.9-4.6
		c0.7,1,0.7,1.1,1.9,1.1c1.7,0.1,3.2,0.6,4.6,1.6C208.8,383.3,209.8,383.8,211.3,384.6z M190.7,421.2c0.1-0.1,0.2-0.2,0.4-0.3
		c0-1.2,0.1-2.4,0-3.5c0-0.5-0.4-1.1-0.8-1.5c-0.5-0.5-1.3-0.2-1.3,0.5c0,1,0.1,2.1,0.5,3C189.6,420.1,190.2,420.6,190.7,421.2z
		 M193.2,479.2c0.2,0,0.4,0,0.6,0c0.2-0.7,0.3-1.3,0.5-2.3c-0.8,0.2-1.3,0.3-2.1,0.4C192.7,478.1,192.9,478.7,193.2,479.2z"/>
		<path  d="M281.6,838.5c-5.2-0.1-10-0.1-14.8-1.2c-3.4-0.8-6.1-2.6-8.3-5.1c-1.5-1.7-1.9-3.7-2-5.8
		c-0.1-2.4,0-4.8-0.4-7.2c-0.3-2-0.8-4-1.5-5.9c-0.5-1.3-1.5-2.4-2.4-3.5c-0.6-0.7-1.4-1.1-2.1-1.7c-2.6-2.1-3.1-4.4-1.7-7.4
		c0.3-0.8,0.7-1.5,1.1-2.2c2.8-4.7,3-9.8,2.4-15.1c-0.8-7.1-3.6-13.6-6.8-19.9c-5.2-10.1-10.1-20.3-13.1-31.4
		c-1.4-5.3-2-10.8-2.2-16.3c-0.1-1.9-0.3-3.8-0.3-5.6c-0.2-11.5,2.6-22.3,7.5-32.7c1.2-2.6,2.3-5.2,3.4-7.9
		c2.5-6.2,2.8-12.3-1.2-18.3c1.2-1.3,2.3-2.7,3.5-4c4.7-4.8,9.6-9.3,14.9-13.5c3.4-2.7,6.4-5.9,9.5-9c1.1-1.1,1.7-2.6,2.6-3.9
		c3.7,2.5,5.2,6.2,5.3,10.4c0.3,6.8,0.6,13.7,0.4,20.5c-0.2,6-0.9,12-1.5,17.9c-0.6,5.6-1.2,11.2-1.9,16.8c-1,7.7-2.1,15.5-3,23.2
		c-0.7,5.6-1.3,11.2-1.6,16.8c-0.5,9.4-0.8,18.8-0.9,28.2c-0.2,12.5-0.4,25-0.3,37.5c0.1,9.2,1.1,18.3,3.5,27.2
		c1,4,2.6,7.7,5.3,10.8c2,2.3,3.9,4.6,5.8,6.9C281,837.6,281.2,837.9,281.6,838.5z"/>
		<path  d="M333.9,453.2c5.4,1.7,9.6,4.2,12.3,8.8c1.4,2.4,2.5,5,3.4,7.6c7.3,20.5,12.7,41.6,16.9,62.9
		c2.7,13.7,7.2,26.7,13.4,39.2c5,10.2,10,20.4,15.9,30.2c4.7,7.8,9.8,15.3,15.9,22.2c3.3,3.7,7.1,6.9,11.3,9.7
		c5.5,3.6,11.1,7,17.1,9.5c1.3,0.6,2.7,1,4.1,1.5c0,1.2-0.6,1.8-1.8,1.7c-1.3-0.1-2.5-0.2-3.8-0.2c-2,0-4.1,0-6.1,0.2
		c-3.7,0.3-7.3,0.5-11-0.1c-1.8-0.3-3.3-1-4.8-1.8c-1.3-0.7-2.6-1.5-3.9-2.3c-4.2-2.5-8.7-3.2-13.5-2.9c-3.1,0.2-6.1,1-9,2.1
		c-0.1,0-0.3,0.1-0.4,0.2c-3.3,1.1-4.7,0.2-5.3-3.3c-0.7-3.9-0.1-7.8,0-11.7c0-2.4,0.2-4.8,0.4-7.2c0.5-8.1-2.2-15.2-7-21.6
		c-5.3-7-11-13.6-17.4-19.5c-4.4-4.1-8.7-8.3-13.1-12.5c-3.1-2.9-6.3-5.6-9.3-8.5c-3.1-3-5.1-6.6-5.5-11.1c-0.3-4.4-0.7-8.8-1-13.3
		c-0.6-8.8-1.8-17.5-5.1-25.8c-0.6-1.6-1.6-3.1-2.3-4.6c-1.2-2.4-3.2-3.7-5.6-4.6c-1.8-0.6-1.9-0.7-4.4,0.5c0.6,0.4,0.9,0.9,1.4,1
		c4,0.7,6.3,3.3,7.7,6.9c0.5,1.3,1,2.7,1.5,4c-2.9,3.1-5.8,6-8.5,9c-5.8,6.4-11.6,12.9-17.3,19.4c-3.2,3.6-6.4,7.2-9.3,11
		c-2.3,2.9-4.2,6-6.3,9.1c-1.9-3.2-3.4-6.8-4-10.6c-0.7-4.6-1.3-9.2-1.5-13.9c-0.3-8-0.4-16.1-0.5-24.2c0-0.1,0-0.2,0-0.2
		c-1.1-2.9,0.6-4.4,2.7-5.9c2.9-2.1,5.6-4.3,8.5-6.4c1-0.7,2.1-1.1,3.3-1.5c7.9-2.3,15.9-4.5,23.9-6.9c4.9-1.5,9.6-3.4,13.3-7
		c1.6-1.6,3-3.5,4.3-5.5c1-1.5,0.1-2.7-1.7-2.5c-1.5,0.2-3,0.8-4.6,1.3s-3.1,1.1-4.8,1.3c0.6-0.5,1.2-1,1.8-1.5
		c2.8-2.1,5.4-4.4,7.5-7.1c0.9-1.2,1.6-2.5,2.4-3.8c0.7-1.2,0.6-2.6,0.5-3.9C334.1,458.1,334,455.8,333.9,453.2z"/>

	</g>

		<path class="st1" d="M30.1,700.2c0-0.7-0.2-1.1-0.1-1.4c0.8-4.3,0.3-8.5,0.3-12.8c0-7.6,0-15.2,0-22.8c0-5.9,0-11.9,0-17.8
		c0-5.2,0-10.4,0-15.6c-0.1-13.8-0.4-27.6-0.4-41.3c0-7,0.5-14,0.8-20.9c0.2-4.5,0.4-9,0.6-13.5c0.3-4.9,0.6-9.9,0.8-14.8
		c0.2-4,0.4-8,0.5-11.9c0.3-7.8,0.7-15.6,0.9-23.4c0.1-6,0-12,0.1-18.1c0-2.1,0.2-4.2,0.3-6.5c3.2-0.7,6.3-1.6,9.5-2
		c13-2,25.9-4.8,38.8-7.5c7.2-1.5,14.5-2.8,21.7-4.3c4.3-0.9,8.5-2.1,12.8-3.1c-0.2,2.1-0.4,4-0.5,6c-0.2,4.8-0.2,9.6-0.4,14.4
		c-0.1,1.9-0.2,3.7-0.4,5.6c-0.1,1.9-0.3,3.7-0.5,5.6c-0.5,5.9-1.1,11.8-1.3,17.7c-0.2,5.4,0.1,10.8,0.2,16.3c0,3.2,0.1,6.5,0.2,9.7
		c0.3,7.6,0.6,15.2,0.9,22.8c0.3,8,0.6,15.9,0.9,23.9c0.2,6.5,0.3,13.1,0.5,19.6c0.1,4.4,0.3,8.9,0.4,13.3c0.1,5.5,0.2,11,0.3,16.5
		c0,0.3-0.1,0.6-0.1,0.8c-2.9,2-5.8,3.9-8.6,5.9c-17.3,12.6-34.7,24.9-51.8,37.8c-8.5,6.4-16.2,13.6-24.3,20.5
		C31.7,698.9,31,699.5,30.1,700.2z"/>

	<g class="st1" >
			<path d="M229.5,665.9c0.5-1.8,6.1-10,8.4-12.4c1.1,2.3,1.8,4.5,1.6,7C236,662.3,233.2,664.8,229.5,665.9z"/>

		<path d="M257.1,592.9c-2.2-2.1-4.2-4-6.3-5.9c-4.4-4-8.9-7.9-13.3-11.9c-3.6-3.3-7.1-6.8-10.6-10.1
		c-0.8-0.7-1.5-1.4-2.3-2.1c-0.6-0.6-1.2-0.5-1.9,0.4c1.9,2.3,3.8,4.7,5.8,7c5,5.9,10.8,10.9,16.4,16.1c5.4,5,10.5,10.3,15.6,15.7
		c3.4,3.7,5.7,8.1,7.5,12.8c0.2,0.6,0.5,1.2,0.7,1.7c-4.9,6.2-10.3,11.8-16.5,16.7c-8.1,6.2-15.2,13.5-20.5,22.3
		c-1.8,2.9-3.7,5.8-5.6,8.8c-2.2-4.9-6.1-8.6-9.5-12.6c-5.1-6.2-10.1-12.3-15.3-18.4c-5.9-6.9-12.4-13.1-19.2-19.1
		c-6.9-6-13.5-12.3-19.3-19.3c-4.7-5.7-8.7-12.1-12.3-18.6c-0.7-1.2-1.3-2.5-2-3.8c12.8-6.1,25.8-11.7,35.9-22.3
		c8.1,3.6,15.8,8.2,24.1,12.1c0.5-0.2,1.2-0.5,1.8-0.9c8.3-5.4,16.7-10.8,24.9-16.3c3-2.1,5.8-4.5,8.5-7.1
		c9.2-8.8,18.2-17.7,27.4-26.6c1.1-1,2.2-2,3.6-3.2c0.1,0.9,0.2,1.5,0.2,2c0,8.9-0.2,17.8,0.1,26.6c0.3,7,1.2,14.1,4.3,20.6
		c1.7,3.6,3.9,6.7,7.4,9.2c-1.6,2.4-3.3,4.8-5.5,6.7c-5.6,4.9-11.3,9.8-17,14.5C261.8,590,259.4,591.4,257.1,592.9z"/>
	</g>

	<path class="st1" d="M534.4,702.6c-4.4-2.6-8.5-5.1-12.6-7.7c-10.6-6.8-21.1-13.7-31.6-20.6c-7.5-5-14.7-10.2-22.2-15.2
		c-3.9-2.7-8-5.2-12-7.6c-1.7-1-2.4-2.3-2.4-4.4c0-3.1-0.5-6.3-0.7-9.4c-0.4-5.6-0.6-11.2-1.1-16.9c-0.5-7-0.8-14.1-0.7-21.2
		c0-0.6-0.1-1.2,0-1.8c0.5-2.1,0.2-4.2,0.3-6.4c0.1-5.6,0-11.3,0.2-16.9c0.2-6.8,0.6-13.5,0.9-20.3c0.2-3.8,0.3-7.7,0.5-11.5
		c0.2-5,0.6-10,0.8-15.1c0.2-5.5,0.4-11,0.6-16.5c0.2-7,0.3-14,0.5-21c0.1-4.4,0.2-8.9,0.3-13.3c0.1-5.6,0-11.1,0.2-16.7
		c0.9-25.5,0.1-51.1,0.3-76.6c0.1-18,0.1-36,0.2-54c0-6.8,0.3-13.5,0.4-20.3c0.1-4.4,0.2-8.9,0.3-13.3c0.1-8.1,0-16.3,0.2-24.4
		c0.2-11.5,0.6-23,0.9-34.5c0-0.2,0-0.5,0-0.7c0.1-11,0.2-22,0.3-33c0.1-13,0.1-25.9,0.2-38.9c0.1-6.8,0.3-13.7,0.4-20.5
		c0.1-5.2,0.4-10.4,0.4-15.6c0.2-19.8,0.3-39.6,0.5-59.4c0-3,0.3-6,0.4-9.3c1.9-1,3.9-2.1,6-3.2c20.1-10.3,40.8-19.3,61.8-27.7
		c7.7-3.1,15.2-6.6,22.8-9.8c7.3-3.1,14.7-5.9,22-8.8c0.2-0.1,0.4-0.1,0.7-0.1c-0.4,3.8-0.7,7.6-1.2,11.4c-0.6,4.8-1.1,9.7-1.8,14.5
		c-1.2,8.1-2.5,16.2-3.7,24.3c-0.8,5.5-1.5,11-2.1,16.5c-1,9.2-1.8,18.4-2.6,27.6c-0.5,5.9-1,11.8-1.5,17.7
		c-0.7,7.1-1.4,14.2-2.1,21.3c-0.4,4-0.6,8.1-1,12.1c-0.7,8-1.6,16-2.2,24c-0.6,6.7-1,13.5-1.4,20.2c-0.3,4.5-0.3,9-0.5,13.5
		c-0.2,6.5-0.3,13.1-0.5,19.6c-0.2,6.8-0.4,13.5-0.4,20.3c-0.2,18.2-0.3,36.3-0.5,54.5c-0.1,7.6-0.3,15.2-0.4,22.8
		c-0.2,9.3-0.3,18.7-0.5,28c-0.2,16-0.3,31.9-0.5,47.9c-0.1,16.3-0.2,32.5-0.3,48.8c0,4.4,0.3,8.9,0.3,13.3c-0.1,10-0.3,20-0.4,30.1
		c-0.1,5.4-0.3,10.8-0.4,16.2c-0.3,8.3-0.6,16.7-0.9,25c-0.3,6.4-0.6,12.8-0.9,19.1c-0.3,6.8-0.6,13.5-0.9,20.3
		c-0.4,7.7-0.9,15.3-1.4,22.9c-0.4,6.1-0.8,12.3-1.4,18.4c-0.9,8.7-1.9,17.5-2.9,26.2c-0.6,5.5-1.3,11-1.9,16.5
		c-1,8.7-2.1,17.4-3.1,26.2c-0.4,3.8-0.7,7.6-1.1,11.4C534.7,701.4,534.5,701.8,534.4,702.6z M546.2,464.9c-0.2-2.2-0.4-3.9-0.5-5.7
		c-0.1-6.4,0-12.8-0.2-19.2c-0.2-5.6-0.8-11.2-1.1-16.9c-0.3-5.9-0.5-11.7-0.5-17.6c0.1-23.5-0.4-47,0.7-70.5
		c0.4-9.5,0.3-19.1,0.5-28.7c0.2-6.4,0.6-12.8,1-19.1c0.3-5.2,1-10.3,1.2-15.5c0.3-5.8,0.4-11.6,0.5-17.4
		c0.2-11.4,0.3-22.9,0.5-34.3c0-0.7,0.2-1.3,0.4-1.9c0.3-0.9,0.3-1.8-0.5-2.2c-0.5-0.3-1.3-0.2-1.9,0c-7.4,2.8-15.1,3.9-22.9,4.8
		c-5.7,0.6-11.4,1-17,1.7c-6.6,0.8-13.3,1.9-19.9,2.8c-7.8,1-15.3,3.2-22.7,5.8c-1.4,0.5-1.5,0.8-1.5,2.4c0.2,3.3,0.4,6.6,0.4,9.9
		c0,9.5-0.2,19-0.3,28.5c0,2.9,0.3,5.9,0.3,8.8c0,3.5-0.2,6.9-0.3,10.4c-0.3,8.2-0.5,16.4-1,24.6c-0.4,7.9-1.3,15.9-1.7,23.8
		c-0.4,7.4-0.6,14.9-0.5,22.3c0,13.7,0.3,27.4,0.4,41.1c0.1,12.7,0.1,25.3,0,38c0,2.9,0.4,3.8,3.3,4.4c2.5,0.5,4.9,1.3,7.3,2.2
		c5.9,2.1,11.7,4.4,17.6,6.5c9.7,3.4,19.4,6.4,29.5,8.2c8.8,1.5,17.6,2.6,26.4,3.2C544.7,465.1,545.5,464.9,546.2,464.9z
		 M567.1,17.8c-1.3-0.6-2.6-0.1-3.8,0.5c-2.6,1.1-5.2,2.4-7.8,3.5c-10,3.9-20.1,7.7-30.1,11.6C508,40.1,491,48,473.9,55.4
		c-2.8,1.2-5.4,2.8-8,4.2c-1.3,0.7-2.1,1.7-1.8,3.5c0.3,1.4,0.1,2.8,0.1,4.2c-0.1,8.2-0.2,16.4-0.3,24.6c-0.1,5.9-0.3,11.7-0.4,17.6
		c-0.1,7.2-0.2,14.3-0.2,21.5c0,11.8,0.1,23.7,0.1,35.5c0,16.7-0.1,33.3-0.2,49.9c0,2.3-0.2,4.7-0.3,7c0,1.6,0.4,2.1,1.7,2
		c3.2-0.2,6.5-0.3,9.7-0.8c7.9-1.4,15.7-2.9,23.5-4.6c7.7-1.6,15.4-3.2,23.4-3.8c7.4-0.5,14.8-1.7,22.2-2.7c1-0.1,2-0.6,2.9-1.1
		s1.4-1.3,1.6-2.4c0.2-1.7,0.5-3.4,0.6-5.1c0.4-5,0.8-10,1.2-15c0.6-6.9,1.1-13.8,2-20.6c1.4-10.9,2.4-21.8,2.9-32.7
		c0.4-7,0.6-14,0.9-20.9c0.3-5.5,0.6-11,0.9-16.4c0.4-7.8,0.9-15.6,1.8-23.4c1.3-11.3,3.2-22.4,5.8-33.5c1.3-5.6,2.4-11.2,2.6-16.9
		C566.6,22.7,566.9,20.3,567.1,17.8z M460.7,448.6c-0.1,0.4-0.2,0.8-0.2,1.1c-0.1,2.6-0.2,5.1-0.4,7.7c-0.4,6.8-1.1,13.6-1.3,20.5
		c-0.4,18.4-0.6,36.8-0.8,55.1c-0.2,11.7-0.3,23.3-0.5,35c-0.1,4.2-0.3,8.4-0.5,12.6c-0.2,4.8-0.6,9.6-0.8,14.4
		c-0.1,3.4-0.1,6.8-0.2,10.2c-0.2,5.5-0.6,11-0.7,16.5c-0.1,6.7,0,13.4,0,20.1c0,0.8,0.2,1.6,0.3,2.4c0.4,2.2,2,3.6,3.7,4.9
		c7.8,6.3,16,12.1,24.4,17.4c11.4,7.3,22.7,14.8,34.1,22.2c3.1,2,6.3,3.9,9.4,5.8c0.5,0.3,1.1,0.5,1.9,0.8c0.2-1.3,0.3-2.2,0.5-3.2
		c0.8-3.5,1.5-7,1.8-10.6c0.7-9.4,1.7-18.8,2.4-28.3c0.5-6.7,0.6-13.4,1-20c0.3-6.7,0.6-13.4,1-20c0.4-6.1,0.9-12.1,1.3-18.2
		c0.4-5.6,0.6-11.3,1-16.9c0.6-8.5,1.1-16.9,1.7-25.4c0.2-3.1,0.4-6.1,0.7-9.2c0.5-7,1.1-13.9,1.6-20.9c0.3-4.9,0.3-9.8,0.6-14.7
		c0.3-5.3,0.9-10.6,1.4-15.9c0.5-4.9,1.1-9.8,1.6-14.8c0.2-2.2,0.4-4.5,0.6-6.7c0.1-1,0.2-2.1-1-2.9c-1.1,0.7-2.2,0.6-3.4,0.1
		c-0.4-0.2-0.9-0.1-1.3-0.2c-2.6-0.3-5.2-0.5-7.9-0.8c-8-1-16-2-23.8-4c-7.7-1.9-15.4-3.6-22.8-6.3c-5.5-2-11-4.1-16.5-6.1
		C466.7,449.6,463.8,448.8,460.7,448.6z"/>

	<path class="st1" d="M116.9,496.8c0.9,3.1,1.8,6.3,2.7,9.4c0.3,0.9,0.4,1.8,0.9,2.6c0.9,1.7,1,3.5,0.8,5.3
		c-1.3,11-1.3,22.1-1.4,33.1c0,6.8-0.3,13.6-0.2,20.3c0.1,5.6,0.5,11.3,0.7,16.9c0.2,4.5,0.5,9,0.6,13.5c0.3,9.5,0.6,19,0.9,28.4
		c0.1,3.4,0.2,6.7,0.4,10.5c-7.1,5.7-14.2,11.7-21.6,17.4c-12.8,9.8-25.6,19.6-38.5,29.2c-9.3,7-18.8,13.9-28.3,20.7
		c-2.8,2-5.9,3.6-8.9,5.4c0-4.9,0-9.5,0-14.1c-0.1-8.6-0.3-17.2-0.4-25.7c-0.2-18.2-0.3-36.3-0.5-54.5c-0.1-9.5-0.3-19-0.3-28.5
		c0-5.5,0.5-11,0.7-16.4c0.1-1.8,0.1-3.6,0.2-5.4c0.2-4.1,0.3-8.1,0.5-12.2c0.3-7.8,0.6-15.6,0.9-23.4c0.3-7.4,0.6-14.7,0.9-22.1
		c0.3-5.8,0.6-11.6,0.9-17.3c0.3-5.6,0.6-11.2,0.9-16.9c0.3-7.4,0.6-14.9,0.9-22.3c0.2-4.5,0.3-9,0.4-13.5
		c0.2-7.1,0.3-14.1,0.5-21.2c0.1-4.4,0.2-8.9,0.3-13.3c0.1-6.1,0.1-12.2,0.2-18.3c0.1-5.7,0.3-11.4,0.4-17.1c0.2-6,0.3-12,0.5-18
		c0.1-5.3,0.3-10.5,0.5-15.8c0.2-5,0.3-10.1,0.5-15.1c0.2-4.3,0.5-8.7,0.7-13c0.2-4.2,0.4-8.4,0.6-12.6c0.3-3.8,0.7-7.6,1-11.4
		c0.4-4.7,0.9-9.4,1.1-14.1c0.2-4.9,0.1-9.8,0.2-14.7c0.1-7.8,0.2-15.5,0.5-23.3c0.2-5.4,0.8-10.8,1.1-16.2
		c0.3-3.8,0.4-7.5,0.6-11.3c0.4-5.2,0.8-10.3,1.2-15.5c0.2-3.3,0.4-6.6,0.6-9.9c0.5-8,1.1-16,1.6-24c0.2-3.7,0.4-7.4,0.6-11
		c0.3-4.6,0.8-9.1,1.1-13.7c0.3-3.2,0.4-6.4,0.7-9.7c0.4-5.8,0.8-11.5,1.2-17.3c0.3-4.5,0.4-9,0.6-13.5c0.4-8,0.8-16,1.3-24.1
		c0.4-5.7,0.7-11.4,1.4-17c0.5-4.7,1.4-9.3,2.2-14c0.6-3.6,1.2-7.1,0.8-10.8c0-0.4,0.1-0.9,0.1-1.6c1.2,0.3,2.3,0.5,3.3,0.9
		c6.6,2.4,13.3,4.9,19.9,7.3c12.4,4.6,24.9,9.1,37.3,13.7c6.4,2.4,12.6,4.9,19,7.3c2.9,1.1,5.8,2,8.7,3.1c2.8,1.1,5.6,2.2,8.2,3.3
		c0.2,0.5,0.3,0.7,0.3,0.9c0.1,5.9,0,11.9-0.7,17.8c-0.4,3.1-0.6,6.3-0.6,9.4c-0.2,14.4-0.3,28.8-0.5,43.1c-0.1,7-0.2,14-0.5,21
		c-0.3,7.7-0.8,15.3-1.3,22.9c-0.4,6.3-0.9,12.6-1.3,18.9c-0.5,6.4-0.9,12.9-1.4,19.3c-0.3,4.9-0.5,9.9-0.9,14.8
		c-0.6,8.2-1.4,16.3-2.1,24.4c-0.4,4.6-0.8,9.1-1.1,13.7c-0.4,6-0.8,12-1.2,18c-0.3,4.4-0.4,8.7-0.6,13.1
		c-0.3,6.9-0.6,13.8-0.9,20.7c-0.1,3.2-0.3,6.5-0.5,9.7c-0.2,4-0.6,7.9-0.8,11.9c-0.2,3.8-0.4,7.5-0.5,11.3
		c-0.3,7.3-0.5,14.6-0.9,21.9c-0.4,6.9-0.9,13.8-1.3,20.7c-0.4,6.4-0.9,12.9-1.3,19.3c-0.3,5.6-0.6,11.3-0.9,16.9
		c0,0.9,0.3,1.9,0.5,3.2c-1.7,2.6-3.6,5.5-5.7,8.9c-0.1-0.8-0.1-1.2-0.1-1.5c0-6.9-0.2-13.9,0-20.8c0.2-6.3,0.8-12.6,1.1-18.9
		c0.3-4.4,0.4-8.7,0.6-13.1c0.4-6.1,0.8-12.1,1.2-18.2c0.4-5.8,0.7-11.5,1.1-17.3c0.5-6.4,1.1-12.7,1.6-19.1
		c0.3-3.1,0.5-6.3,0.7-9.4c0.4-6.5,0.8-13,1.3-19.6c0.3-5,0.7-10,1-15.1c0.5-7,0.8-14.1,1.4-21.1c0.5-6.3,1.1-12.6,1.7-18.8
		c0.2-1.6,0.2-3.3,0.3-4.9c0.1-1-0.7-1.2-1.5-1.3c-2.9-0.2-5.7-0.4-8.6-0.4c-9.1,0-18-1.3-27-2.3c-5.5-0.7-11.1-1.3-16.6-2.1
		c-3.3-0.5-6.7-1.1-9.9-2c-4.1-1.1-8.2-2-12.3-2.7c-4.4-0.8-8.6-2-12.9-3.1c-2.2-0.6-4.3-1.1-6.5-0.8c-0.2,3.8-0.4,7.6-0.6,11.3
		c-0.1,1.3-0.3,2.7-0.3,4c-0.1,5.3-0.3,10.5-0.3,15.8c0,3.6,0.3,7.2,0.2,10.8c-0.1,6.1-0.5,12.2-0.7,18.2c-0.1,1.7-0.1,3.5-0.2,5.2
		c-0.1,3.8-0.2,7.5-0.3,11.3c-0.2,6.7-0.3,13.4-0.6,20.1c-0.3,7.4-0.9,14.7-1.3,22c-0.3,6-0.7,12-0.9,18c-0.2,5.2-0.3,10.4-0.5,15.6
		c-0.1,4.8-0.3,9.6-0.5,14.4c-0.2,5-0.3,9.9-0.5,14.9c-0.3,9-0.6,18-0.9,27.1c-0.2,6.5-0.6,13.1-0.9,19.6C32.5,457,32.2,461,32,465
		c0,0.6-0.1,1.2,0.1,1.8c0.5,1.5,0.3,2.9,0,4.4c-0.3,2.1,0.7,3,2.7,2.5c9.8-2.3,19.6-4.7,29.5-6.7c10.4-2.1,20.9-3.6,31.3-5.5
		c6.5-1.1,13.1-2.2,19.3-4.4c0.8-0.3,1.7-0.4,2.9-0.7c-0.2,1.1-0.3,1.9-0.5,2.8c-28.4,6.1-56.8,12.3-85.4,18.4
		c-0.2,3.3-0.5,6.5-0.6,9.7c-0.1,3.1,0,6.2,0,9.2c-0.1,7.1-0.2,14.2-0.5,21.2c-0.2,6.8-0.6,13.5-0.9,20.3
		c-0.3,5.9-0.6,11.7-0.9,17.6c-0.3,6.8-0.7,13.5-0.9,20.3c-0.2,7.3-0.4,14.6-0.4,21.9c-0.1,18.5,0,37.1,0,55.6
		c0,8.7-0.3,17.5-0.3,26.2c0,5.5,0.3,11,0.4,16.5c0,1.4,0,2.8,0,4.2c0,1.3-0.1,2.7,0.9,3.8c13.3-10.4,26.3-21.2,40-31
		c13.2-9.4,26.4-18.8,39.6-28.2c1.5-1.1,3.2-2.1,4.7-3.1c1-0.7,1.9-1.4,2.9-2.2c2.9-2.3,4.1-5.2,4-8.8c-0.1-4.4-0.2-8.9-0.4-13.3
		c-0.2-5-0.4-9.9-0.5-14.9c-0.2-6.9-0.5-13.8-0.7-20.8c-0.1-2.3-0.1-4.7-0.2-7c-0.3-6.6-0.6-13.2-0.9-19.8c-0.2-3.7-0.3-7.4-0.5-11
		c-0.2-3.1-0.5-6.1-0.7-9.2c-0.2-3-0.2-6-0.2-9c0-6.9,0-13.9,0.2-20.8c0-2.8,0.3-5.5,0.5-8.3C116.6,496.9,116.7,496.8,116.9,496.8z
		 M55.2,23.2c-0.1,1.1-0.3,1.8-0.3,2.5c-0.1,1.5-0.1,3-0.2,4.5c-0.5,5.7-1.2,11.5-1.7,17.2c-0.4,4.9-0.6,9.7-0.9,14.6
		c-0.2,5.2-0.4,10.4-0.6,15.5c-0.2,4-0.6,7.9-0.8,11.9c-0.2,3-0.3,6-0.5,9c-0.5,6.9-1.1,13.8-1.7,20.6c-0.2,2.8-0.4,5.7-0.6,8.5
		c-0.4,5-0.8,10-1.2,15c-0.4,5.7-0.7,11.4-1.1,17.1c-0.5,5.8-1.1,11.5-1.6,17.2c-0.4,4.1-0.9,8.2-1.3,12.3c-0.4,3.7-0.7,7.3-0.9,11
		c-0.3,4.7-0.4,9.3-0.6,14c0,0.5,0,1.1-0.2,1.5c-0.4,1.6-0.4,1.8,1.1,2.2c1.6,0.5,3.2,0.8,4.8,1.3c11,3.2,22.1,6,33.3,8
		c8.4,1.5,16.9,2.7,25.4,4c5.6,0.9,11.3,1.8,16.9,2.6c2.1,0.3,4.3,0.3,6.5,0.4c1.6,0,3.2-0.2,4.7-0.2c1.9,0,2.8-0.6,3-2.4
		c0.6-6.1,1.1-12.2,1.7-18.4c0.4-4.3,0.6-8.5,1-12.8c0.7-7.3,1.4-14.6,2.1-22c0.6-6.7,1.1-13.3,1.4-20c0.4-7.3,0.6-14.6,0.8-21.9
		c0.1-4.1,0.1-8.3,0.2-12.4c0.2-8.5,0.6-17,0.7-25.5c0.1-6.5-0.2-13.1-0.3-19.6c0-2.3-0.1-4.5-0.1-6.8c0-4.4,0-8.9,1.4-13.2
		c0.2-0.8,0.3-1.6,0.5-2.5c-0.8-0.4-1.6-0.7-2.3-1c-4.3-1.5-8.6-2.8-12.8-4.4c-8.9-3.2-17.9-5.9-27.1-7.8
		c-11.1-2.4-21.6-6.4-31.6-11.9c-3.9-2.2-8-4.1-12-6.1C58.9,24.8,57.2,24.1,55.2,23.2z"/>





<g class="st1" >
	<path d="M200.7,638.8c-0.7,0-1.3,0-1.9,0c-6.6,0.2-13.2-0.3-19.8-0.9c-2.3-0.2-4.7-0.1-7-0.3c-6.1-0.3-12.1-0.8-18.2-1
		c-5.8-0.2-11.6-0.2-17.4-0.2c-3.7,0-7.3,0.2-11.3,0.4c5.5-17.2,11.8-34,18.3-50.8c1.8,0.2,3.7,0.3,5.7,0.5c0.2,0,0.5,0.2,0.7,0.1
		c2.8-0.6,4,1.2,5.2,3.2c5.3,8.8,12.5,16,19.9,22.9c6,5.6,12,11.1,17.9,16.8c2.9,2.8,5.4,5.8,8.1,8.7
		C200.8,638.5,200.7,638.7,200.7,638.8z"/>
		<path  d="M278.1,640.1c-0.2-2.5-0.4-5.1-0.6-7.6c-0.2-1.7-0.4-3.4-0.8-5.1c-0.6-2.5-1.7-4.8-4-6.3
		c-0.6-0.4-1.1-1-1.8-1.6c1.4-2.9,0.5-5.4-0.7-8.1c-2.3-5.4-5.5-10.2-9.4-14.5c-0.5-0.6-1-1.3-1.6-1.9c2.7-2,5.5-3.7,7.9-5.8
		c2.6-2.4,5.3-2.9,8.8-2.5c10.7,1.3,21.4,2.2,32.1,3.2c7.7,0.7,15.4,1.3,23.1,1.9c6.6,0.5,13.2,1.1,19.8,1.6
		c3.6,0.3,7.2,0.4,10.8,0.5c2.6,0.1,5.3,0.2,7.9,0.2c1.3,0,2.3,0.4,3.1,1.5c2.2,3.3,4.5,6.4,6.6,9.7c1.8,2.8,2.4,6.1,2.6,9.5
		c0.3,5.4-0.5,10.8-0.6,16.2c0,2.8,0.1,5.6,0.4,8.3c0.6,4.5,3.9,6.9,8.7,5.3c2.9-1,5.9-1.6,9-2c5.5-0.6,10.2,1.3,14.9,4.7
		c-0.8,0-1.2,0-1.6,0c-10.7-0.3-21.4-0.6-32.1-1c-6.5-0.2-13.1-0.6-19.6-1.1c-10.3-0.8-20.5-1.9-30.8-2.7
		c-7.7-0.6-15.5-1.1-23.2-1.6c-4.8-0.3-9.6-0.3-14.4-0.5C287.9,640.3,283.1,640.2,278.1,640.1z"/>
		<path d="M451.2,649.4c-2,0-3.9,0-5.8,0c0.3-1.3,0.6-2.5,0.8-3.6c0.4-2.2-0.2-3.4-2.3-4.3c-7.5-3.3-14.6-7.4-21.4-12
		c-3.7-2.5-6.9-5.6-9.9-8.9c-6.7-7.6-12-16.2-16.9-25c-0.1-0.2-0.2-0.5-0.3-1c1.4,1.4,2.7,0.1,4.1,0.2c2.1,0.2,4.2,0.4,6.3,0.5
		c3.8,0.2,7.7,0.4,11.5,0.6c4.7,0.1,9.3,0.3,14,0.2c5,0,10.1-0.2,15.1-0.3c0.5,0,1,0,1.6,0c0.1,0.4,0.2,0.7,0.2,1
		c0,5.5,0,11,0.1,16.5c0.1,4.1,0.5,8.2,0.8,12.4c0.4,5.9,0.9,11.8,1.4,17.7C450.8,645.3,451,647.3,451.2,649.4z"/>

</g>

	<g class="st1">

			<path  d="M150.8,55.2c4.2,0,8.1-0.6,12,0.4c1.1,0.3,2.2,0,3.3,0.1c0.8,0,1.6,0,2.7,0c0.3,2.9,0.7,5.8,0.7,8.7
		c0.2,5.9,0.1,11.8,0.2,17.6c0,2.3,0.3,4.5,0.3,6.7c-0.1,5.7-0.1,11.4-0.4,17.1c-0.2,5.1-0.6,10.2-1,15.3c-0.4,4.7-1,9.4-1.4,14.1
		c-0.5,5.1-0.9,10.2-1.3,15.3c-0.4,5.8-0.8,11.5-1.2,17.3c-0.3,4.3-0.7,8.7-1,13c-0.4,5.7-0.9,11.4-1.3,17.1
		c-0.4,6.1-0.7,12.1-1.1,18.2c-0.4,6.1-0.8,12.1-1.2,18.2c-0.4,5.7-0.7,11.4-1,17.1c-0.5,7.3-0.8,14.7-1.4,22
		c-0.5,7-1.1,14.1-1.8,21.1c-1.1,10.8-2.3,21.5-3.4,32.2c-0.7,6.6-1.3,13.3-2,19.9c-0.8,7.4-1.7,14.8-2.5,22.1
		c-0.4,4-0.8,8.1-1.1,12.1c-0.4,5.4-0.7,10.8-0.9,16.2c-0.2,4.8-0.3,9.6-0.5,14.6c-4.9,3.6-9.2,8.1-13.6,12.8c0-1,0-2,0-3.1
		c0.3-7,0.6-14.1,1.1-21.2c0.5-8.2,1.2-16.5,1.8-24.7c0.4-6.1,0.6-12.3,0.9-18.5c0.3-6.2,0.6-12.5,0.9-18.7
		c0.3-4.8,0.7-9.6,0.9-14.4c0.3-7.4,0.6-14.7,0.9-22.1c0.3-6.3,0.8-12.6,1.2-18.9c0.3-4.6,0.3-9.2,0.6-13.7c0.4-6.5,1-13,1.5-19.5
		c0.4-4.6,0.8-9.3,1.1-13.9c0.4-5.5,0.8-10.9,1.2-16.4c0.3-3.9,0.4-7.8,0.6-11.7c0.5-7.1,1.1-14.2,1.6-21.3
		c0.3-3.4,0.4-6.9,0.6-10.3c0.3-4.3,0.5-8.7,0.8-13c0.2-4.1,0.4-8.1,0.6-12.2c0.2-4.8,0.4-9.6,0.4-14.4c0.2-11.3,0.2-22.6,0.3-33.9
		c0-5.2,0-10.4,0.2-15.6c0.2-4.9,0.7-9.7,1.2-14.6s0.5-9.7,0.1-14.6C150.8,57.1,150.8,56.2,150.8,55.2z"/>

		<path  d="M123.2,516.3c0.6,1.4,1.1,2.7,1.7,4.1c3.1,8.5,6.2,17.1,9.4,25.6c1.5,3.9,3.3,7.8,4.9,11.7
		c0.4,1,0.7,2.1,0.8,3.2c0.4,6.7,0.6,13.3,1,20c0,0.9,0.1,1.9,0.4,2.7c0.7,1.6,0.2,2.9-0.3,4.3c-1.1,2.6-2.1,5.1-3.2,7.7
		c-1.5,3.7-3,7.4-4.3,11.1c-2.8,7.5-5.5,15.1-8.3,22.7c-0.1,0.3-0.3,0.5-0.7,1.3c-0.2-1.2-0.3-1.8-0.3-2.4c-0.1-3.8,0-7.7-0.2-11.5
		c-0.3-7.4-0.6-14.7-0.9-22.1c-0.3-5.6-0.7-11.2-0.9-16.9c-0.3-9.8-0.4-19.5-0.5-29.3c0-6.2,0-12.5,0.2-18.7
		c0.1-4.2,0.5-8.4,0.8-12.6c0-0.3,0.1-0.5,0.1-0.8C123,516.4,123.1,516.3,123.2,516.3z"/>

	</g>

	<path class="st1" d="M325.2,432.4c0.2,2.5,0.4,5,0.5,7.5c0.2,3.2,0.3,6.5,0.5,9.7c0.1,1.4-0.2,2.4-1.5,3.1c-1.3,0.8-2.4,2-3.6,3.1
		c-3,2.6-5.9,5.3-8.9,7.9c-0.1-0.1-0.3-0.2-0.4-0.3c0.2-0.4,0.4-0.8,0.6-1.2c1.8-2.5,3.6-5,5.4-7.5c1-1.5,1.8-3.1,2.6-4.6
		c-0.8-1.3-1.8-1.2-2.6-0.7c-1.4,0.8-2.8,1.5-4,2.5c-2.9,2.4-5.8,4.8-8.6,7.3c-1.5,1.3-3.1,2.5-5.2,4.1c0.8-12.3,1.6-24,2.5-35.8
		c3.9,0.9,7.6,1.8,11.4,2.7C317.5,430.8,321.2,431.5,325.2,432.4z"/>
	<path class="st1" d="M195.7,361.9c0.1,0.7,0.1,1.1,0.2,1.5c0.4,1.4,0.9,1.7,2.3,1.4c1.1-0.3,2.2-0.6,3.3-1
		c3.9-1.1,7.8-2.2,11.8-3.3c0.3,1.9,1.6,2.7,3.2,3.2c2,0.7,4,1.3,6,2c0.6,0.2,1.3,0.4,2.1,0.7c-0.4,0.6-0.8,1.1-1.1,1.5
		c-0.9,1.6,0,3.6,1.9,3.9c1.2,0.2,2.4,0.1,3.7,0.2c-0.5,1.2-1.3,2.3-1.3,3.4s0.6,2.3,0.9,3.5c-2.7,0.5-5.4,0.5-8.1-0.2
		c-2.1-0.6-4.1-1.4-5.8-2.9c-1.3-1.2-1.6-1.1-3.4,0c-0.9-0.3-1.8-0.8-2.7-1c-1.3-0.3-2.6-0.4-4-0.4c-1.1,0-2.1,0.5-3.3,0.1
		c-0.5-0.2-1.4,0.5-1.9,0.9c-2.3,2.4-4.5,4.8-6.7,7.2c-0.5-0.6-1.1-1.4-1.8-2c-1.7-1.3-3.5-0.9-4.4,1c-0.3,0.6-0.6,1.2-0.8,1.9
		c-0.4,1.7-1.6,2.3-3.5,2.4c1.5-5.7,2.9-11.4,5.9-16.5c1.5-2.4,3.4-4.4,5.4-6.3C194.4,362.7,195,362.4,195.7,361.9z"/>

	<path class="st1" d="M195.5,461c2,0.9,3.3,2,4.4,3.3c4.3,5,8.5,10.1,12,15.8c0.2,0.3,0.3,0.5,0.5,0.9c-1.6,0.8-3.3-0.1-4.8,0.1
		c-1.7,0.3-3.4,0.3-5.2,0.4c-1.6,0.1-3.3,0.2-4.8,0.3C196.9,474.9,196.2,468.1,195.5,461z"/>
	<path class="st1" d="M321.4,429c-6.6-1.4-13.2-2.9-20.1-4.4c-0.1,0.3-0.4,0.9-0.4,1.5c-0.5,6.6-0.9,13.2-1.4,19.8
		c-0.3,4.6-0.8,9.3-1.1,13.9c-0.1,1.4,0,2.8,0,4.4c-1.3,0.7-2.6,1.3-3.8,2c-0.2-0.3-0.4-0.5-0.3-0.5c1.4-2.6,0.6-5.4,0.9-8.2
		c0.6-5.7,1-11.4,1.5-17c0.3-3.5,0.6-7,0.8-10.5c0.2-2.8,0.3-5.5,0.4-8.3c4,1.1,8,2.2,12,3.3c3.9,1.1,7.8,2.4,11.8,3.6
		C321.5,428.7,321.5,428.9,321.4,429z"/>
	<path class="st1" d="M330.3,427.3c-1.1,0.6-2.2,1.2-3.4,1.8c-1.7-1-3.2-2.2-5-3c-1.7-0.8-3.5-1.1-5.5-1.7c1-5.2,2-10.3,3.1-15.9
		C323.2,415,326.7,421.1,330.3,427.3z"/>

	<path class="st1" d="M331.5,450.2c-1.2,0-2.2,0-3.5,0c1-2,0.4-4.1,0.3-6.2c-0.2-4.1-0.5-8.2-0.8-12.4c0-0.2,0.1-0.4,0.2-0.8
		c1.3-0.4,2.7-0.8,4.3-1.3C331.8,436.5,331.7,443.3,331.5,450.2z"/>

	<path class="st1" d="M319.4,466.8c3.9-4.9,8.9-9,11.8-15c0.7,0.9,0.4,1.7,0.4,2.5c0,1.7,0.5,3.7-0.2,5.1c-0.7,1.3-2.6,2-4.1,3
		c-2.3,1.5-4.7,3-7,4.5c-0.2,0.1-0.4,0.1-0.6,0.2C319.6,467,319.5,466.9,319.4,466.8z"/>

	<path class="st1" d="M325.5,413.9c-1.1-1.6-2.2-3.2-3.4-4.8c-1.1-1.5-1-2.7,0.4-4.1c1.1,3,2.2,5.9,3.3,8.8
		C325.7,413.8,325.6,413.9,325.5,413.9z"/>
	<path class="st1" d="M286.6,562.6c-0.7-0.8-1.3-1.3-2-2c0.8-1.2,1.5-2.3,2.3-3.5C287.5,559,287.5,560.7,286.6,562.6z"/>

	<path class="st1" d="M220.9,392.3c0,1.1,0,1.8,0,2.7c-1,0-1.9,0-2.9,0C218.1,393.1,219.7,393.1,220.9,392.3z"/>
	<path class="st1" d="M450.7,492.2c0.4,0.1,0.8,0.2,1.2,0.3c0,0.1-0.1,0.3-0.1,0.4c-0.4-0.1-0.8-0.2-1.2-0.2
		C450.6,492.5,450.6,492.4,450.7,492.2z"/>
	<path class="st1" d="M204,390.7c-1.9-1.1-2.5-2.9-3.1-4.9c2,0.4,3.2,1.6,4.5,2.9C204.9,389.4,204.5,390,204,390.7z"/>
	<path class="st1" d="M543.4,462.4c-4.7-0.4-9-0.7-13.3-1.3c-9.1-1.2-18.2-2.5-27-5.1c-10-2.9-19.7-6.5-29.5-10
		c-3.9-1.4-7.9-2.5-12-3.7c0-1.8,0-3.9,0-6c0-1.6,0.2-3.3,0.3-4.9c0.1-12.7,0.2-25.3,0.2-38c0-11.5-0.2-22.9-0.1-34.4
		c0-6,0.3-12,0.6-18c0.3-6.4,0.8-12.8,1.3-19.1c0.7-7.9,1.2-15.9,1.4-23.9c0.1-5,0.5-9.9,0.6-14.9c0.1-4.7-0.2-9.5-0.2-14.2
		c0-4.4,0-8.9,0-13.3c0-6.1-0.1-12.2-0.1-18.3c0-1.4-0.3-2.8-0.4-4.3c0.4-0.2,0.8-0.4,1.1-0.4c8.8-2.2,17.5-4.3,26.5-5.2
		c6.7-0.7,13.4-1.7,20.1-2.5c4.8-0.6,9.6-0.9,14.4-1.5c5.7-0.7,11.5-1.7,17-3.5c0.3-0.1,0.6-0.1,1.1-0.1c0,1.5,0,2.9,0,4.3
		c-0.1,6-0.3,12-0.4,18.1c-0.1,5.6,0.1,11.2-0.2,16.7c-0.4,8.5-1.1,16.9-1.6,25.4c-0.4,6.4-0.8,12.8-1.1,19.1
		c-0.3,8.4-0.3,16.9-0.5,25.3c-0.1,7.5-0.4,15.1-0.4,22.6c-0.1,13,0,25.9,0,38.9c0,4-0.3,8-0.3,12c0.1,6.6,0.1,13.3,0.5,19.9
		c0.4,7.5,1.1,15,1.6,22.5c0.2,2.8,0.1,5.6,0.2,8.4c0.1,2.6,0.3,5.3,0.4,7.9C543.4,461.1,543.4,461.6,543.4,462.4z"/>
	<path class="st1" d="M465.7,223.4c0.1-4,0.3-7.6,0.4-11.1c0.2-6.8,0.3-13.6,0.4-20.3c0.1-8.4,0.3-16.9,0.3-25.3
		c0-9.7-0.4-19.4-0.4-29.1c0-10.6,0-21.2,0.1-31.9c0.1-8.1,0.3-16.3,0.4-24.4c0-4.4,0-8.7-0.2-13.1c-0.1-2-0.5-4-0.8-6.3
		c2.1-1,4.3-2.3,6.5-3.2c18.3-7.8,36.5-15.6,54.9-23.2c9-3.8,18.2-7.1,27.3-10.7c3.1-1.2,6.2-2.7,9.3-4.1c0.3-0.1,0.5-0.2,1.1-0.4
		c-0.4,3.5-0.6,6.9-1.3,10.2c-1.5,7.6-3.4,15.1-4.8,22.7c-1.4,7.2-2.4,14.5-3.5,21.8c-1.2,7.7-1.5,15.5-1.9,23.4
		c-0.3,5.2-0.6,10.5-0.9,15.7c-0.3,6.8-0.6,13.7-0.9,20.5c-0.6,11.2-1.4,22.5-2.9,33.6c-0.9,6.5-1.4,13.1-2,19.7
		c-0.5,5.6-0.9,11.2-1.4,16.8c-0.1,1.1-0.3,2.2-0.4,3.3c-0.2,1.9-0.6,2.5-2.5,2.8c-3.7,0.6-7.4,1.1-11.2,1.5c-6,0.6-12,0.9-18,1.7
		c-5.1,0.7-10.2,1.9-15.3,3c-8.5,1.8-17.1,3.7-25.6,5.4C470.4,223.1,468.1,223.2,465.7,223.4z"/>
	<path class="st1" d="M543.3,470.5c-0.2,1.9-0.3,3.7-0.5,5.5c-0.5,4.6-1.1,9.2-1.6,13.9c-0.6,6-1.3,12.1-1.8,18.2
		c-0.2,2.3-0.1,4.7-0.2,7c-0.3,6.1-0.5,12.2-0.9,18.2c-0.5,6.7-1.2,13.5-1.7,20.2c-0.4,5.3-0.7,10.6-1,16
		c-0.4,5.7-0.9,11.4-1.2,17.1c-0.4,6.3-0.7,12.6-1,18.9c-0.4,5.8-0.8,11.7-1.2,17.5c-0.3,5.2-0.4,10.4-0.6,15.6
		c-0.5,8.8-1.1,17.5-1.6,26.3c-0.3,5.3-0.7,10.6-1.1,16c-0.3,3.6-0.9,7.1-1.3,11.1c-1-0.5-1.8-0.9-2.6-1.4
		c-12.5-7.8-25-15.4-37-23.8c-7.1-4.9-14.3-9.7-21.4-14.7c-3.1-2.1-6-4.5-8.9-6.8c0-7.1-0.1-14,0-20.9c0.2-10,0.5-20,0.9-30
		c0.3-7.2,0.8-14.4,1.2-21.6c0.1-2.3,0.2-4.5,0.2-6.8c0-8,0-16,0-23.9c0.1-12.2,0.3-24.4,0.4-36.6c0.1-8.4,0.2-16.7,0.3-25.1
		c0.1-6.4,0.4-12.8,0.6-19.2c0.1-3.4,0.4-6.7,0.6-10.4c1.6,0.4,3.1,0.7,4.5,1.2c4.4,1.5,8.9,2.9,13.2,4.7c8.9,3.8,18.3,6,27.6,8.4
		c10.5,2.7,21.1,3.9,31.8,5.1C540.2,470.3,541.6,470.4,543.3,470.5z"/>
	<path class="st1" d="M143.5,58.5c-0.3,2.7-0.8,5.2-1,7.7c-0.2,2.8-0.3,5.6-0.2,8.3c0,2.7,0.2,5.4,0.3,8.1c0,4.4,0.1,8.9,0,13.3
		c-0.1,7.2-0.3,14.4-0.5,21.7c-0.1,5.1-0.3,10.2-0.4,15.3c-0.2,5.4-0.2,10.8-0.5,16.2c-0.4,7-1.1,14.1-1.6,21.1
		c-0.4,4.7-0.7,9.4-1.1,14.2c-0.7,7.4-1.4,14.8-2.1,22.2c-0.4,4.7-0.7,9.4-1.1,14.2c-0.3,3.2-0.5,6.4-0.8,9.6
		c-7.1,0.5-13.9-0.3-20.7-1.4c-8.7-1.4-17.4-2.7-26.1-3.9c-9.2-1.3-18.2-3.3-27.2-5.2c-5.4-1.2-10.9-2.4-16.3-3.6
		c-0.3-0.1-0.5-0.2-0.8-0.3c0.1-3.5,0-6.8,0.3-10.2c0.4-6.1,0.6-12.1,1.5-18.2c0.6-4.2,0.8-8.5,1.2-12.8c0.5-5.7,1.1-11.5,1.6-17.3
		c0.3-3.1,0.5-6.3,0.7-9.4c0.4-5.5,0.8-11.1,1.2-16.6c0.2-3.2,0.4-6.4,0.6-9.7c0.4-4.8,0.8-9.6,1.2-14.4c0.3-3.4,0.4-6.9,0.6-10.3
		c0.4-5.6,0.8-11.2,1.2-16.8c0.2-4.2,0.3-8.4,0.5-12.6c0.2-5,0.3-9.9,0.7-14.9c0.5-6.2,1.2-12.4,1.7-18.6c0.2-2.6,0.3-5.2,0.5-8
		c0.4,0.1,0.7,0.2,1,0.3c4,2.2,8.1,4.3,12.1,6.6c9.9,5.9,20.5,10.2,31.7,12.8c9.5,2.1,18.8,4.8,28,8C134,55.6,138.7,57,143.5,58.5z"
		/>
</g>
</svg>
