<svg version="1.1" id="Calque_1" xmlns="http://www.w3.org/2000/svg" xmlns:xlink="http://www.w3.org/1999/xlink" x="0px" y="0px" viewBox="0 0 602.5 907.2" style="enable-background:new 0 0 602.5 907.2;" xml:space="preserve">
<style type="text/css">
	.st0{fill:#F8F7F7;}
	.st1{fill:#FFFFFF;}
</style>

<path d="M257.6,537.7c5,0.2,5.7,0.8,6.3,5.3c0.6-0.1,1.2-0.1,1.8-0.2c3.1-0.6,4.5,0,6.2,2.7c0.8,1.3,1.6,2.6,2.3,3.9
	c3.6,6.6,9.2,10.2,16.6,11.3c3.4,0.5,6.8,0.8,10.2,1.3c7.8,1.2,15.7,2,23.2,4.6c2.8,1,5.4,2.6,8.1,4c0.8,0.4,1.4,1,2.1,1.6
	c2.4,2,5.2,2.6,8.2,2.8c8,0.6,15.7-0.3,23.5-2c10.8-2.3,21.4-1.4,31.4,3.8c3.7,1.9,7.4,3.8,11.2,5.4c2.2,1,4.7,1.7,7.1,1.9
	c4.8,0.4,9.1,1.7,12.8,4.8c1,0.9,2.1,1.2,3.5,1c1.2-0.2,2.4,0,3.6,0.3c2.5,0.5,5,1.2,7.4,1.8c0.8,0.2,1.5,0.6,2.2,0.9
	c1.4,0.6,2.2,1.6,2.2,3.1c0,0.5,0.2,0.9,0.2,1.4c9.5,1.5,18,5.6,26.6,9.5c2.4,1.1,4.8,2.2,7.2,3.2c2.3,0.9,4.5,1.1,7,0.6
	c9.1-1.9,18.3-2.7,27.6-1.9c2.5,0.2,4.9,1.2,7.4,1.9c0.6,0.2,1.2,0.6,1.7,0.9c0.7,0.5,1.5,1.3,1.1,2.2c-0.3,0.6-1,1.2-1.7,1.4
	c-1.7,0.5-3.4,0.8-5.1,1.2c-1.5,0.3-3,0.7-4.5,1.4c1.4-0.1,2.8-0.2,4.2-0.2c4.8,0,9.6,0,14.4,0.2c3.7,0.2,7.3,1,10.6,2.7
	c2.8,1.5,5.6,3.1,8.3,4.7c0.6,0.3,1.1,0.7,1.5,1.2c0.3,0.5,0.7,1.2,0.5,1.7c-0.1,0.4-0.9,0.9-1.4,0.9c-1.9,0.1-3.8,0.1-5.7-0.1
	c-5.9-0.6-11.8-1.3-17.7-1.1c-1.6,0.1-3.1,0.3-4.7,0.6c11.6,0.8,21.5,5.9,30.7,12.5c0.4,0.3,0.5,0.9,0.7,1.5
	c-1.8,0.7-3.4,0.9-5.1,0.6c-4.2-0.8-8.3-1.5-12.4-2.6c-5.7-1.6-11.6-2.4-17.5-2.7c-0.3,0-0.6,0.1-1,0.5c0.9,0.2,1.9,0.4,2.8,0.8
	c4.1,1.4,8.2,2.8,12.2,4.4c5.5,2.2,10.2,5.6,14.8,9.2c0.3,0.2,0.7,0.5,0.8,0.8c0.3,0.6,0.6,1.3,0.5,1.9c-0.1,0.4-1,0.6-1.6,0.8
	c-2.3,0.6-4.6,0.3-6.8-0.5c-8.6-3-17.4-4.8-26.2-6.5c-4.3-0.8-8.3-2.2-12.4-3.7s-8.3-2.8-12.4-4.3c-0.1,0.2-0.2,0.4-0.3,0.6
	c1.1,1.1,2.2,2.4,3.4,3.4c3.9,3.1,8,6.2,11.9,9.2c0.8,0.6,1.5,1.2,2.1,1.9c0.9,1.2,0.5,2.1-1,2.4c-2.1,0.5-4.3,0.3-6.4-0.2
	c-3.1-0.7-6.2-1.5-9.3-2.4c-4.8-1.3-8.5-4.3-11.4-8.2c-1.4-1.9-2.8-3.9-4.1-5.9c-1.2-1.9-2.8-3.3-4.8-4.2c-1.9-0.9-3.8-1.8-5.7-2.4
	c-6.8-2.2-13.6-4-20.8-4.7c-2.6-0.2-5.2-0.5-7.9-0.7c-1-0.1-2-0.4-3,0.4c-0.3,0.2-0.9,0.1-1.4,0.1c-0.9-0.1-1.9-0.2-2.8-0.4
	c-2.7-0.6-5.3-1.7-8.1-1.4c-2.7,0.3-5.4,0.5-8,1.1c-2.7,0.7-5.3,1.8-7.9,2.7c-1.3,0.5-2.5,1-3.7,1.6c-2.4,1.2-4.8,0.9-7.2-0.2
	c-2.7-1.3-5.2-2.9-7.2-5.2c-2.4-2.7-5.2-3.4-8.6-2.5c-1.5,0.4-3,0.7-4.4,1.2c-4.6,1.6-9,1.1-13.1-1.3c-2-1.2-3.9-2.5-5.9-3.7
	c-0.3-0.2-0.5-0.4-0.8-0.6c-5.4-4.6-11.7-5.2-18.3-3.5c-3,0.8-5.8,0.6-8.6-1c-0.7-0.4-1.5-0.7-2.1-1.1c-1.8-1.2-3.7-1.4-5.7-0.9
	c-3.8,0.8-7.6,1.2-11.6,0.8c-0.1,0.4-0.2,0.7-0.1,0.9c0.8,3.7,0.5,7.4,0.1,11.2c-0.4,4.6,0.1,9.1,2,13.3c1.9,4.4,4.7,8.4,7.5,12.2
	c5.3,7.1,7,15.1,6.6,23.7c-0.4,7.8-3.2,14.9-6.5,21.9c-1.9,4.1-3.6,8.2-5.1,12.4c-1.4,4-1.5,8.1-0.4,12.2c1.3,5.1,2,10.3,1.9,15.6
	c-0.1,3.3-0.5,6.5-1.6,9.6c-2.4,7.2-6,13.7-10.7,19.7c-2.4,3.1-4.6,6.3-6.7,9.6c-1.9,2.9-2.7,6.3-3,9.8c-0.3,3.2,0.9,6.1,2.1,9
	c1.5,3.4,3.1,6.8,4.5,10.3s3.8,5.7,7.5,6.2s6.6,2.3,9.1,4.9c1.4,1.5,3,2.9,4.6,4.1c2.2,1.7,4.6,1.9,7.2,1.4c0.7-1.2,0.2-2.2-0.5-2.9
	c-1.6-1.7-3.2-3.3-4.9-4.8c-1.2-1-1.3-0.9-1.9-2.9c0.8-0.9,1.7-0.9,2.8-0.5c0.8,0.3,1.7,0.6,2.5,0.6c5.9,0.2,11.4,4.9,11.8,11.9
	c0.1,1.6-0.1,3.2-0.5,4.7c-0.6,2.3-2.1,3.9-4.2,5c-4.5,2.4-9.2,3.8-14.3,2.9c-2.8-0.5-5.2,0.4-7.6,1.7c-3.2,1.7-6.3,3.4-9.4,5.2
	c-2.6,1.4-5.3,1.7-8.1,0.5c-2.1-0.9-4.2-2-6.2-3.1c-2.2-1.3-3.6-3.4-4.8-5.6c-1.5-2.8-3.8-4.2-6.9-4.4c-2.2-0.2-4.4-0.5-6.6-0.8
	c-3.9-0.6-6.7-2.8-8.8-6c-2.3-3.4-3.2-7.2-3.6-11.3c-0.5-5.2,0.5-10.2,1.7-15.2c1.5-6.2,0-11.7-4.1-16.5c-1-1.2-2.3-2.2-3.7-2.9
	c-7.1-4-10.4-10-10.4-18.1c0-3.4,0.5-6.7,1.3-9.9c1.1-4.4,1.9-8.8,0-13.1c-1.2-2.6-2.3-5.3-3.8-7.8c-3.6-6.2-6.4-12.7-8.3-19.6
	c-0.9-3.1-1-6.4-1.5-9.4c-1,5-2,10.3-1.4,15.6c0.2,1.8,0.8,3.6,1.6,5.2c3.1,6.4,6.5,12.7,9.6,19.1c1,2.1,1.6,4.3,2.2,6.5
	c0.8,2.8,0.3,5.5-0.7,8.2c-0.6,1.6-1.2,3.1-1.9,4.6c-0.7,1.6-1,3.2,0.1,4.7c0.5,0.7,0.8,1.6,1.3,2.3c1.9,2.9,2.7,6.1,1.5,9.3
	c-1.4,3.8-0.6,7.4-0.2,11.1c0.4,3.7,1,7.4,1.3,11.1c0.2,2.1,0.3,4.3-2.3,4.9c0,2.6,0,4.9,0,7.2c0.1,2.7,0.2,5.4,0.3,8.1
	c0.1,7.9,0.1,15.8,0.2,23.7c0,1.3,0.3,2.7,0.4,4.2c5.5-1.2,10.8-2.5,16.1-3.5c3.7-0.7,7.4-1.4,11.1-1.6c3.6-0.2,7.2,0.4,10.7,0.7
	c0.5,0,1,0.3,1.5,0.5c-0.6,2.9-3.7,5-10.3,7c3.7-0.1,7.6-0.2,11.5-0.3c3.4-0.1,6.7,0.6,9.9,1.6c2.1,0.7,4.3,1.3,6.4,2
	c1.7,0.6,2,1.6,0.7,2.8c-1,0.9-2.4,1.6-3.8,1.9c-1.7,0.4-3.4,0.4-5.6,0.6c3.8,1.8,7.8,2.2,10.5,5c-0.2,1.9-1.2,2.9-2.9,3.1
	c-2.4,0.3-4.9,0.5-7.4,0.4c-4.1-0.2-8.3-0.6-12.4-0.9c-1.4-0.1-2.9,0-4.3,0.3c1.6,0.1,3.1,0.4,4.7,0.4c3.9,0.1,7.6,1.2,11.1,2.8
	c2.9,1.3,5.7,2.8,8.5,4.4c1.9,1,2,2,0.3,3.4c-1.5,1.2-3.3,1.1-5,1.2c-1,0-2.1-0.2-3.1-0.3c-7.9-1.1-15.8-2.4-23.7-3.3
	c-3.5-0.4-7.2-0.1-10.8-0.1c-1.6,0-3.3,0.2-5,0.3c2.8,4,5.5,7.9,8.3,11.9c-0.2,0.6-0.4,1.2-0.7,1.9c-4.7,0.2-9.4,0.7-13.4-2.4
	c-1.9-1.5-3.7-3.1-5.2-4.9c-3.4-4-7.3-7.1-12.2-9c-1-0.4-1.9-0.9-2.8-1.4c-3.1-1.8-4.9-4.5-5.4-8.1c-1-8.5-2-16.9-3.1-25.4
	c-1.1-8.8-2.3-17.5-3.5-26.3c-0.1-0.9-0.2-1.9-0.4-3c-1.1-0.2-2.2-0.3-3.2-0.5c-2.3-0.3-3.8-1.8-4-4c-0.3-3.1-0.7-6.2-0.8-9.3
	c-0.1-2.6,0.2-5.3,0.4-7.9c0.1-0.7,0.5-1.4,0.9-2.4c-0.3-0.3-0.7-0.9-1.1-1.5c-4.5-5.1-5.5-11-4.4-17.5c0.7-3.8,1.5-7.5,2.2-11.3
	c0.6-2.9-0.4-5.3-2.5-7.3c-1.3-1.2-2.5-2.5-3.6-3.8c-3.7-4.1-4.8-8.9-3.8-14.2c0.3-1.5,0.4-3,0.3-4.5c-0.3-3.5-1.6-6.7-4.6-8.9
	c-2.2-1.6-4.5-3-6.8-4.5s-4.8-2.9-7-4.6c-5-4.2-6.1-9.9-5.7-16c0.3-4.8,1.5-9.4,3.4-13.9c1.6-3.7,3-7.6,4.5-11.3
	c1.2-2.9,1-5.8-0.6-8.5c-1-1.7-2.1-3.4-3.3-5c-2.1-2.6-4.3-5.2-6.4-7.8c-3.9-4.8-7.3-9.8-9.8-15.6c-2.2-5.2-2.7-10.6-2.8-16.2
	c0-1.5-0.2-3-0.3-4.5c-0.2-2.8,0.2-5.6,0.9-8.3c2.5-9,6.4-17.4,12.1-24.8c0.6-0.8,1.4-1.5,2.2-2.4c-0.3-2.6-0.8-5.3-0.9-8.1
	c-0.2-4.1-0.2-8.3,0-12.4c0.4-8,1.9-15.8,3.7-23.6c2.6-11.3,5.3-22.7,8.1-34c0.9-3.6,0.4-6.4-2-9.5c-6.1-7.8-13.1-14.4-21.4-19.7
	c-2.3-1.5-4.5-3.3-6.9-4.7c-5.9-3.4-11.8-6.6-17.7-10c-7.5-4.3-14.9-8.7-22.3-13.1c-5.4-3.2-10.7-6.4-16.1-9.5
	c-6.1-3.6-11.5-8-16.8-12.7c-1.7-1.5-3.5-3-5.2-4.6c-5.1-4.6-10.1-9.3-13.3-15.6c-0.7-1.3-1-2.7-1-4.1c-0.3-5,0.9-9.7,2.3-14.4
	c2.4-8.5,5.5-16.7,9.3-24.6c2.9-6.1,6-12,8.9-18.1c3.6-7.4,8.1-14.2,12.5-21.1c7.9-12.3,16.1-24.4,24-36.7
	c10.2-15.7,19.8-31.7,28-48.5c6.2-12.6,12.3-25.3,19.5-37.4c5.2-8.9,10.4-17.8,16.1-26.4c5.9-8.9,13.5-16.4,22.3-22.5
	c1.9-1.3,3.9-2.5,6.4-2.3c2.3,0.1,2.7,0.5,2.9,2.9c0.4,4.8-1.2,9.3-2.8,13.7c-2.2,6.2-5.7,11.8-9.3,17.3c-1.5,2.3-3,4.7-4.4,7.2
	c-3,5.3-3.4,10.7-0.6,16.2c1.8,3.4,3.7,6.7,5.1,10.3c1.5,3.9,2.1,7.9,1.8,12c-0.2,3.5-2.2,6.3-4.4,8.8c-3.5,3.9-8,6.4-12.5,8.8
	c-4.7,2.5-9.4,4.8-14.5,6.1c-1.6,0.4-3.1,1.2-4.8,2c0.3,1.4,0.5,2.6,0.8,3.8c1.5,5.7,2.3,11.6,2.2,17.5c0,3.2,0.1,6.4,0,9.6
	c-0.4,10.2-0.9,20.4-2.7,30.4c-0.9,5.1-2.7,9.8-4.6,14.6c-5.4,13.5-13.5,25.3-23.3,36c-3.7,4-7.7,7.7-12,11c-1.9,1.5-4,2.6-6,3.9
	c-0.6,0.4-1.2,0.8-1.9,1.3c0,0.2,0.1,0.3,0.1,0.5c3.1,0.2,6.1,0.4,9.2,0.5c6.3,0.2,12.6,0.2,18.9,0.5c6.4,0.3,12.7,1.4,18.8,3.4
	c7.4,2.4,14.6,5.4,20.7,10.3c3.5,2.8,6.6,6.1,9,9.9c1.2,1.9,2.5,3.7,3.6,5.6c0.9,1.5,2,2.1,3.8,1.9c0.2-2.5,0.3-5,0.5-7.4
	c0.4-4.8,1.8-9.4,3.2-14c4-12.6,9.1-24.7,14.7-36.7c6.1-13.1,12.6-26,18.9-39c2.8-5.8,5.6-11.7,8.5-17.5c0.6-1.3,0.7-2.4,0.3-3.7
	c-1.9-6.7-2.3-13.5-1.6-20.4c0.6-6.5,2.1-12.9,3.7-19.2c2.4-9.5,5-18.9,8.8-27.8c2.8-6.5,6-12.7,9.2-19c5.4-10.5,10.9-21,16.4-31.4
	c7.3-13.9,14.5-27.7,21.8-41.6c0.8-1.6,1.5-3.3,2.3-5c0.6-1.2,0.6-2.3-0.6-3.2c-0.3-0.2-0.5-0.6-0.8-0.9c-4.7-5.2-5.8-11.2-3.7-17.8
	c0.8-2.3,1.8-4.6,2.8-6.8c1.7-3.8,3.5-7.5,5.3-11.3c3.3-7.1,4-14.7,3.7-22.5c-0.2-3.6-0.9-7.1-1.3-10.7c-0.2-1.9-0.5-3.8-0.4-5.7
	c0.1-3.3,0.5-6.7,0.7-10c0.1-2.5,1.2-4.8,2.2-7c1-2.3,2.1-4.7,3.1-7c0.3-0.7,0.6-1.5,1.1-2.1c1.4-1.8,3.1-1.8,4.5,0
	c0.4,0.6,0.8,1.2,1.1,1.8c2.4,4,4.9,8,7.3,12.1c0.4,0.7,0.8,1.4,1.2,2.1c2.5,4.8,5,9.6,7.4,14.5c2.3,4.5,3.3,9.2,2.6,14.3
	c-1,7.2-1.6,14.6-2.7,21.8c-1.3,7.9-3.1,15.8-4.6,23.7c-1.1,5.9-2.1,11.8-2.9,17.7c-1,8.5-1.7,17-2.6,25.4
	c-1.4,12.8-3.3,25.6-5.8,38.3c-3.4,17.3-7.6,34.4-11.6,51.6c-2.6,11.3-6.8,22-11.4,32.5c-3.1,7-6.6,13.8-10,20.7
	c-1.1,2.1-1.5,4.1-1.3,6.4c0.2,2.2,0.4,4.5,0.4,6.7c0.2,6.7,0.6,13.4,0.3,20.1c-0.3,7.8-1.3,15.5-2.1,23.3c-0.6,5.7-1.2,11.4-2,17.1
	c-1.2,8.7-2.4,17.4-3.7,26c-0.9,6.4-1.9,12.8-3.1,19.1c-2,10.7-5.5,20.8-10.7,30.4c-1.4,2.5-3,4.9-4.5,7.3c-1.7,2.7-3.6,5.3-5.2,8
	c-0.8,1.5-1.2,3.3-1.6,5c-1.4,5.5-2.2,11.1-3,16.7c-0.7,4.7,0.2,9,0.6,13.5c0.5,5.2,0.9,10.5,1.5,15.7c0.1,1.4,0.4,2.8,0.5,4.2
	c4.9,0.3,9,4.5,8.8,9.5c-0.1,4.1-1.6,8-4.4,11.1C259.6,535.6,258.7,536.5,257.6,537.7z M208.6,785.3c6.4-0.7,12.7-1.4,18.9-2
	c2.1-0.2,4.1-0.4,6.2-0.6c1.8-0.1,3-1,3.8-2.5c1.5-3.1,2.2-6.2,0.2-9.3c-0.5-0.9-1-1.8-1.6-2.7c-1.9-2.7-1.7-5.5-0.3-8.4
	c0.6-1.3,1.2-2.6,1.8-3.9c1-2.3,1.4-4.8,0.6-7.2c-0.7-2.1-1.4-4.2-2.4-6.2c-2.7-5.5-5.5-11-8.3-16.4c-2.3-4.5-3.1-9.2-2.6-14.2
	c1-10,3.4-19.6,6.8-29.1c1.6-4.4,3.1-8.9,3.9-13.5c0.8-4.3,1.2-8.5,1-12.8c-0.2-4.2-0.3-8.4-0.2-12.7s0.7-8.6,0.8-12.9
	c0-2.2,0.7-3.8,2.4-4.9c4.2-2.9,8.4-5.9,12.8-8.3c4.1-2.2,8-4.6,11.6-7.6c2.9-2.3,6.1-4.4,8.4-7.4c1.1-1.3,2.4-1.6,4.1-1.1
	c4,1.3,7,4.1,9.6,7.2c0.9,1.1,1.8,1.4,3,1.2c1.7-0.3,3.3-0.7,4.9-0.9c4.3-0.4,8.6-0.8,12.5,1.7c2.5,1.6,5.3,2.1,8.3,1.4
	c1.7-0.4,3.5-0.6,5.2-0.8c2.7-0.4,5.4-0.4,7.9,1.1c0.8,0.5,1.7,0.8,2.6,1.3c1.7,1,3.5,1.2,5.3,0.7c2.9-0.9,5.8-0.9,8.8-0.9
	c3.9,0,7.6,0.9,10.9,3.1c2.4,1.7,4.9,3.3,7.4,4.9c3.6,2.3,7.5,3.1,11.6,1.5c0.8-0.3,1.7-0.6,2.5-0.7c2.2-0.3,4.4-0.6,6.6-0.6
	c2.4,0,4.5,0.8,6.2,2.7c1.1,1.2,2.4,2.3,3.7,3.4c3.1,2.5,6.2,3.5,10.1,1.4c5.1-2.8,10.7-4.7,16.6-4.1c3.5-10.5,5.7-21.2,7.8-31.8
	c-3.4-2.8-7-4.5-11.4-4.7c-3.2-0.1-6.3-1-9.2-2.4c-4.1-1.9-8.1-3.7-12.1-5.7c-8.6-4.3-17.8-4.9-27.1-3.5c-7.4,1.1-14.7,2.5-22.3,2.2
	c-5.7-0.2-10.8-1.2-15.2-5.2c-2.1-2-4.8-3.1-7.6-3.9c-7.6-2.1-15.5-2.8-23.3-4.1c-3.8-0.7-7.6-1-11.3-1.8
	c-6.7-1.6-12.2-5.1-15.9-11.1c-1-1.6-2.1-3.2-2.8-5c-0.8-1.9-2.2-2.3-4-2.1c-1.7,0.2-2.9,0.7-3.8,2.4c-1.2,2.4-3,4.6-4.4,6.8
	s-2.9,4.4-4.1,6.8c-2.8,5.3-5,10.9-6.7,16.6c-0.2,0.5-0.4,1-0.7,1.5c-0.1-2.3,0.2-4.5,0.7-6.7c1.8-8.1,4.5-15.8,9.6-22.5
	c1.3-1.7,2.3-3.6,3.5-5.4c0.9-1.4,1.2-2.9,0.8-4.2c-2-0.4-3.7-0.8-5.7-1.1c-4.8,5.1-7.7,11.5-11.5,17.4c-0.1-0.9-0.1-1.9,0.1-2.7
	c0.2-1,0.5-2,0.8-3c1.7-5,3.7-9.9,7.5-13.8c1.7-1.8,3.6-3.4,5.3-5.2c2.2-2.2,3.6-4.8,4.1-7.9c0.5-3.4-0.9-6-4.4-7.4
	c-2,5.4-6.6,8.4-10.9,11.6c-3.5,2.7-7.2,5.1-10.7,7.8c-12.8,9.6-25.6,19.1-38.2,28.9c-6.6,5.1-12.9,10.4-19.2,15.8
	c-7.9,6.8-14.2,14.9-19.4,23.9c-1.9,3.2-3.4,6.5-2.4,10.4c0.8,3.2,1,6.5,2,9.6c2.3,7.1,6.6,13,11.4,18.7c3.1,3.6,6,7.5,8.6,11.5
	c2.1,3.2,2.9,6.8,1.7,10.6c-1.7,5-3.4,10-5.5,14.8c-1.9,4.4-2.7,9-2.7,13.7c0,5,2,9,6.2,11.7c2,1.3,4.1,2.4,6.2,3.6
	c8.4,4.9,12.9,11.1,11.2,21.7c-0.6,3.5,0.1,6.8,2.4,9.7c1.1,1.4,2.2,2.8,3.5,4c3.6,3.5,4.7,7.7,3.9,12.5c-0.5,2.6-1,5.2-1.6,7.7
	c-1.4,6.4-0.8,12.4,3.9,17.4C207.8,783.6,208.2,784.6,208.6,785.3z M287.8,290.1c0.5-0.5,0.7-0.5,0.7-0.7c3.2-6.1,6.6-12,9.1-18.4
	c2.1-5.3,4.3-10.7,6.4-16c0.3-0.9,0.8-1.8,0.1-2.7c-2-2.6-3.6-5.5-5.9-7.8c-5.7-5.7-12.4-9.8-20.2-11.9c-3.8-1-7.8-1.6-11.7-2.2
	c-2.7-0.4-5.4-0.5-8.1-0.5c-2.5,0-3.1,0.4-3.8,2.8c-1.5,5.2-3.1,10.4-4.4,15.7c-2.6,10.1-4.6,20.2-4.1,30.7c0.1,2.4,0.3,4.8,0.8,7.5
	c1.8-2.6,2.2-5.8,5.8-6.4c0.6,2.1-0.2,3.8-1,5.4c-8.6,17.1-17.3,34.2-25.8,51.4c-6.7,13.3-12.5,26.9-17.7,40.8
	c-2.6,7-5.1,14-6.2,21.3c-0.6,4.2-1,8.4,0.5,12.5c1.7,4.9,3.6,9.7,6,14.3c2.3,4.4,5.3,8.2,9.3,11.1c5.1,3.8,10.6,6.9,16.6,9
	c7.2,2.6,14.5,5,21.7,7.5c0.3,0.1,0.6,0.1,0.9,0.2c2.4-3.5,4.8-6.9,7-10.4c5.1-8.2,8.6-17.1,10.6-26.6c1.4-6.7,2.5-13.5,3.5-20.2
	c1.4-9.3,2.6-18.6,3.8-27.9c0.8-6,1.5-12,2.2-18c0.6-5.7,1.1-11.4,1.5-17.1c0.3-4,0.3-8,0.3-12c0-5-0.1-10.1-0.3-15.1
	c-0.2-4.6-0.7-9.2-0.7-13.8c0-6.8,0.5-13.5,0.8-20.3c0-0.3,0-0.7,0.1-0.9c0.3-0.4,0.7-0.7,1.1-1c0.3,0.3,0.7,0.6,0.8,1
	c0.2,1.1,0.3,2.2,0.4,3.3c0.1,4.5,0.1,9.1,0.2,13.7C287.7,288.7,287.7,289.2,287.8,290.1z M239.4,663.1c-0.7,3.5-1.1,6.8-2,10
	c-1.4,5.1-3.1,10.1-4.8,15c-0.7,1.9-0.9,3.8-0.6,5.9c0.2,1.3,0.2,2.7,0.3,4c0.3,3.1,0.2,6.3,0.9,9.3c1,4.1,2.2,8.2,3.9,12
	c2.3,5.4,4.8,10.8,7.5,16c2.4,4.8,2.7,9.8,1.8,14.9c-0.6,3.4-1.3,6.7-1.6,10.1c-0.6,6.8,1.8,12.4,7.9,16c6,3.5,8.7,9.1,10,15.6
	c0.2,1.2,0.4,2.6,0.2,3.8c-0.4,3.3-1,6.6-1.6,9.9c-0.8,4.4-0.7,8.8,0.4,13c1.4,5.5,4.5,9.3,10.5,10c1,0.1,2.1,0.3,3.1,0.3
	c5.1,0.2,9.1,2.2,11.3,7.1c1.6,3.4,4.6,4.9,7.8,6.4c2.8,1.4,5.4,1.4,8.2-0.3c2.6-1.7,5.4-3.1,8.2-4.6c3.2-1.7,6.4-2.8,10.1-1.9
	c3.9,1,7.4-0.2,10.9-1.9c4-1.9,5.2-4.1,4.4-8.5c-0.1-0.7-0.2-1.4-0.5-2.1c-1.1-2.5-2.8-4.5-6.1-5.6c0.7,1.1,1.1,1.8,1.5,2.4
	c0.9,1.3,1.1,2.8,0.9,4.4c-0.2,1.8-1.2,2.8-2.9,3c-3,0.3-6,0.1-8.4-1.9c-1.8-1.4-3.6-2.9-5.2-4.5c-1.9-1.9-4.1-3.3-6.8-3.6
	c-0.8-0.1-1.6-0.3-2.3-0.5c-3-0.8-5.3-2.5-6.8-5.3c-0.6-1.1-1.1-2.3-1.6-3.5c-1.4-3.2-2.7-6.5-4.3-9.6c-2.8-5.5-3.1-11.1-1-16.9
	c1.8-5.1,4.8-9.5,8-13.8c2.5-3.3,5-6.6,7.1-10.2c3.5-5.9,5.8-12.3,5.5-19.3c-0.2-4.2-1-8.4-2-12.5c-0.6-2.2-1-4.5-1.1-6.8
	c-0.2-4,0.8-7.8,2.4-11.4c1.8-3.9,3.7-7.8,5.7-11.6c4-7.7,6.4-15.6,5.6-24.4c-0.4-4.9-1.6-9.6-4.5-13.7c-1.7-2.5-3.4-5-5.2-7.5
	c-5.1-7.4-7.7-15.4-6.3-24.6c0.4-2.6,0-5.4-0.4-8.1c-0.4-2.6-3-4.9-5.6-5.2c-2.3-0.2-4.6-0.1-6.9,0c-0.4,0-0.8,0.3-1.3,0.5
	c1,1.6,1.9,3,2.8,4.4c1.5,2.5,2.2,5.3,2,8.2c-0.2,3.2-2.3,4.1-4.9,2.3c-0.9-0.6-1.8-1.3-2.8-2.1c-0.4,2.2-0.6,4.1-1.1,5.9
	c-2.4,10.4-3.5,20.9-3.7,31.5c0,1.4-0.3,2.7-0.5,3.9c-2.1-1.1-4-2.1-5.8-3.1c-1.8-0.9-3.7-1.3-5.8-1.3c-3.9-0.1-7.4,1.1-11,2.2
	c-3.6,1.1-7.2,2.1-10.9,2.7s-7.2-0.1-9.9-3C241.1,664.3,240.3,663.8,239.4,663.1z M192.7,406.4c-1.7-2.5-3.2-5-4.9-7.3
	c-3-3.9-6.4-7.3-10.7-9.8c-11.8-7-24.8-9.9-38.4-10.4c-5.7-0.2-11.3-0.3-17-0.2c-5.9,0.1-11.5-1.3-17-3.2c-4.6-1.6-8.7-4-12.6-6.8
	c-0.7-0.5-1.2-1.3-1.8-2c0.1-0.2,0.2-0.3,0.3-0.5c0.7,0.2,1.5,0.2,2.2,0.5c4.7,2.4,9.8,3.9,14.9,5.2c1.3,0.3,2.4,0.3,3.5-0.6
	c1.2-1,2.6-1.8,4-2.7c1.8-1.2,3.7-2.3,5.4-3.5c4.3-3.1,8.1-6.7,11.7-10.6c1.4-1.5,2.7-3,4.1-4.7c-0.8-0.7-1.3-1.2-1.8-1.6
	c-8.3-6.7-17.8-11.3-28-14.4c-3-0.9-6.2-1.5-9.4-1.6c-4.9-0.2-9.9,0.2-14.8,0.3c-0.5,0-1.1,0.1-1.7,0.2c-1,2-2,3.9-3,5.8
	c-5.4,10.8-10.9,21.5-14.9,32.9c-2,5.6-3.7,11.2-4.8,17c-0.6,2.9-0.3,5.5,1.5,7.9c1.5,1.9,2.8,3.9,4.5,5.6c5,4.7,10,9.4,15.3,13.8
	c4.4,3.7,9.1,7.1,13.9,10.2c5.6,3.7,11.5,6.9,17.3,10.3c6.5,3.9,13,7.8,19.6,11.6c5,2.9,10.2,5.3,15.1,8.3c7,4.3,13.8,8.9,20.1,14.3
	c0.3,0.3,0.8,0.5,1.3,0.8c0.6-1.2,1.2-2.4,1.7-3.5c2.1-4.8,4.4-9.6,6.2-14.5c4.8-13,9.3-26,13.9-39
	C189.2,411.3,190.3,408.6,192.7,406.4z M206.1,142.3c-1,0.2-1.9,0.2-2.7,0.5c-1.1,0.5-2.1,1.2-3.1,1.8c-8.7,6.2-16,13.7-21.9,22.6
	c-4.1,6.2-8,12.5-11.6,19c-5.8,10.2-11.5,20.5-16.8,31c-7.4,14.7-14.5,29.5-23.2,43.5c-6.3,10-12.8,19.9-19.2,29.8
	c-0.5,0.8-1,1.5-1.5,2.5c20,1.5,36.4,9.5,49.8,23.9c0,0,0.2-0.1,0.3-0.2c0.4-1.1,0.9-2.2,1.3-3.3c2.7-7.8,3.2-16.1,3.7-24.3
	c0.5-7.5,0.5-15,0.5-22.5c0-4-0.6-7.9-1.2-11.9c-0.4-3-1.3-5.9-1.9-8.9c-0.5-2.2,0-3.3,2-4.3c1.5-0.8,3.2-1.6,4.8-2
	c4.3-1,8.3-2.8,12.3-4.7c4.8-2.3,9.7-4.7,13.5-8.5c2-2,4-4,4.2-7c0.2-3.1-0.1-6.2-1.2-9.2c-1.4-4.1-3.7-7.8-5.6-11.6
	c-3.2-6.3-2.9-12.7,0.5-18.7c2.3-4,4.8-7.9,7.4-11.8c4.1-6.1,7.2-12.6,9.1-19.7C206.2,146.4,206.7,144.6,206.1,142.3z M181.5,490.8
	c-0.1,1.4,0,2.7-0.2,3.8c-1,5.2-1.9,10.3-3,15.5c-2.3,11.3-4.9,22.6-7.1,33.9c-1.6,8.4-2.1,16.9-0.7,25.4c0.6,3.8,1.5,7.6,2.4,11.8
	c1.9-1.7,3.3-3,4.8-4.3c9.7-7.7,19.3-15.4,29.2-23c10.3-7.9,20.7-15.5,31.1-23.2c4.5-3.3,9-6.6,13.5-9.9c0.9-0.7,1.7-1.7,2.4-2.3
	c-0.3-1.3-0.7-2.4-0.9-3.5c-1.5-6.8-1.2-13.8-1.7-20.7c-0.3-3.6-0.4-7.1-0.7-11c-6-0.4-12-1-18-1.2c-10.7-0.3-21.4,0.3-31.9,2.4
	C194,485.9,187.7,487.9,181.5,490.8z M319.5,19.9c-0.3,0.6-0.6,1-0.7,1.4c-1.1,2.7-2.3,5.4-3.3,8.2c-0.7,1.9-1.2,3.8-1.5,5.7
	c-0.3,2.5-0.4,5.1-0.5,7.6c0,2.2-0.1,4.3,0.3,6.4c1,5.9,1.6,11.8,1.3,17.8c-0.3,7.5-2.3,14.4-5.5,21.1c-2,4.2-4.1,8.5-5.8,12.9
	c-2.2,5.6-1.7,11,2.5,15.6c0.3,0.3,0.5,0.6,0.7,0.9c1.4,1.7,2.1,3.6,1.3,5.8c-0.7,2-1.4,4.1-2.3,6c-2.9,5.9-5.8,11.7-8.8,17.5
	c-8.3,16-16.8,32-25.1,47.9c-0.3,0.5-0.5,1.1-0.7,1.6c0.3,0.2,0.4,0.3,0.5,0.3c1,0,1.9,0.1,2.9,0.1c5.6-0.1,10.9,1.1,16.1,3.2
	c3.9,1.6,7.7,3.4,11.6,5.1c3.6,1.5,6.9,3.4,9.8,5.9c0.8,0.7,1.6,1.3,2.5,2c0.2-0.6,0.3-0.8,0.3-1.1c1.7-8,3.3-16.1,5-24.1
	c2.9-13.1,4.4-26.4,5.9-39.7c0.8-7.3,1.2-14.6,2.1-21.9c0.8-6.5,1.9-12.9,3.3-19.3c1.9-9.2,3.9-18.4,4.9-27.8c0.6-5,1.1-10,1.8-14.9
	c0.7-5.6-0.1-10.9-3.1-15.8c-1.9-3.2-3.5-6.6-5.2-10c-0.8-1.6-1.4-3.2-2.2-4.8c-2.3-4.2-4.7-8.3-7-12.5
	C320.2,20.8,319.9,20.5,319.5,19.9z M167.7,472.5c5.4,4.5,9.5,10.1,13.7,15.7c0.3-0.1,0.5-0.1,0.6-0.2c8.7-5.1,18.2-7.6,28.2-8.7
	c5.2-0.6,10.5-0.7,15.7-1.2c5.6-0.6,11.2,0.2,16.7,0.5c2.1,0.1,4.2,0.4,6.1,0.6c1-3.9,1.7-7.6,2.8-11.3c1.1-3.7,2.5-7.2,3.8-11
	c-3.9-1.2-7.7-2.3-11.5-3.5c-8.1-2.5-16-5.5-23.3-9.8c-7.1-4.1-12.7-9.6-16.3-17c-2.6-5.3-4.7-10.7-5.1-16.5
	c-0.8-0.3-1.4-0.5-2.1-0.8c-1.8-0.7-2.3-0.6-3.5,0.9c-1,1.3-1.9,2.8-2.4,4.4c-2.8,8.1-5.3,16.2-8.1,24.3
	C179,450.4,174.3,461.8,167.7,472.5z M503.8,620c0-0.3-0.1-0.6-0.1-0.8c6.1-3.4,12.8-4.9,20.1-5.7c-0.7-0.5-1-0.8-1.3-0.9
	c-1.9-0.5-3.8-1.3-5.8-1.4c-4-0.2-8-0.3-12,0c-5.1,0.4-10.2,1-15.2,1.8c-3,0.5-5.9,0.4-8.7-0.7c-3.2-1.3-6.3-2.7-9.5-4.1
	c-6-2.5-11.9-5.1-17.9-7.4c-1.9-0.8-4.1-1.1-6.3-1.7c-3.5,9.7-6.8,19.2-10.2,28.7c2.5,0.2,4.7,0.5,6.9,0.7
	c7.7,0.5,15.2,2.1,22.5,4.4c2.3,0.7,4.5,1.7,6.6,2.7c2.6,1.2,4.7,3,6.1,5.6c0.9,1.7,2,3.2,3,4.9c2.7,4.8,6.8,7.8,12.1,9.1
	c3.1,0.8,6.2,1.3,9.4,1.9c0.8,0.2,1.6,0.1,2.4,0.2c0-0.1,0.1-0.3,0.1-0.4c-0.3-0.2-0.6-0.4-0.9-0.7c-3.1-2.3-6.4-4.6-9.4-7
	c-2.7-2.2-5.3-4.4-6.7-7.7c-0.2-0.5-0.3-1.1-0.6-2.2c1.5,0.1,2.6,0,3.6,0.3c2.9,0.7,5.9,1.5,8.8,2.4c5,1.6,10,3.3,15,4.8
	c2.4,0.7,4.9,0.8,7.3,1.5c6.8,1.8,13.6,3.7,20.3,5.5c1.4,0.4,2.8,1,4.8,0.5c-4.1-3.1-7.9-6-12.3-7.8c-4.3-1.8-8.7-3.7-13.2-5.1
	c-4.5-1.4-9.2-2.3-13.8-3.5c0.7-1.6,2.1-1.5,3.2-1.6c8.6-1.2,17-0.9,25.4,1.6c3.9,1.2,7.8,2.2,11.8,3.3c0.8,0.2,1.6,0.2,2.4,0.3
	c-1.3-1.2-2.6-2.1-4-2.9c-6.7-4.4-14-6.9-21.9-7.7c-5.5-0.5-11-0.5-16.5-0.8c-0.5,0-1.1-0.3-1.8-0.4c2.1-1.8,3.1-2.1,14.1-3.1
	c4.8-0.5,9.5-1.3,14.3-0.7c4.7,0.5,9.4,1,14.1,1.5c-1.5-1.3-3.2-2.2-4.8-3.2c-3.3-2-6.9-3.2-10.8-3.7c-2.2-0.2-4.5-0.3-6.7-0.3
	c-5.2-0.1-10.4,0-15.6,0C509.4,620.1,506.6,620.1,503.8,620z M213.2,809.5c0.2,1.5,0.5,2.7,0.7,3.9c1.5,8.5,3.1,16.9,4.4,25.4
	c1.3,8.7,2.4,17.3,3.5,26c0.2,1.8,1,3.2,2.5,4.1c1.1,0.7,2.2,1.3,3.4,1.8c4.8,2.1,9,4.8,12.3,8.8c1.4,1.7,3,3.3,4.6,4.9
	c2.7,2.7,5.9,3.4,10,2.8c-1.5-2.1-2.7-4.1-4.2-5.8c-2.6-2.9-5.7-5.1-9.1-6.9c-1.3-0.7-2.4-1.8-3.5-2.9c-0.3-0.3-0.2-0.9-0.4-1.8
	c2.5,0.9,4.7,1.4,6.6,2.4c1.4,0.7,2.7,1.2,4.3,1.2c1.8-0.1,3.5,0,5.3-0.2c7.5-0.7,14.8,0,22.2,1.4c4.9,0.9,9.7,1.8,14.6,2.7
	c1.4,0.2,2.9,0.2,4.3-0.2c-4.6-3-9.4-5.6-14.9-6.3c-5.9-0.8-11.9-1.1-17.9-1.7c-0.8-0.1-1.6-0.2-2.3-0.6c-0.9-0.4-0.9-1.4-0.1-1.9
	c0.4-0.3,0.8-0.5,1.3-0.6c6.3-1.3,12.7-2.4,19.2-1.6c4.3,0.5,8.6,0.9,12.9,1.3c0.8,0.1,1.6-0.1,2.4-0.1c0-0.2,0.1-0.4,0.1-0.6
	c-3.6-1.4-7.2-2.9-10.9-4.3c-2-0.8-4-1.1-6.1-0.9c-4.3,0.3-8.6,0.5-12.8,1.7c-1.6,0.5-3.3,0.5-5,0.6c-0.5,0-1-0.4-2-0.9
	c1.3-0.7,2.1-1.3,2.9-1.6c5.7-2,11.6-2.9,17.6-2.8c3.9,0,7.8,0.2,11.7,0.2c0.8,0,1.6-0.1,2.4-0.2c-3.3-1.6-6.7-2.8-10.3-2.9
	c-5.7-0.2-11.5-0.1-17.2,0c-2.9,0.1-5.9,0.6-8.8,0.8c-0.8,0.1-1.6,0.2-2.2-0.7c0.5-1.6,1.8-2.1,3.1-2.7c3.6-1.5,7.4-2.5,11.3-3.1
	c1.4-0.2,2.7-0.7,4.5-1.1c-0.7-0.3-0.9-0.5-1.1-0.5c-3.6,0.1-7.2,0.1-10.8,0.5c-5.2,0.6-10.4,1.4-15.7,2.2c-1.9,0.3-3.7,0.5-5.6,0.8
	c0,2.1,0,3.9,0,5.7s0,3.6-1.5,5.2c-1.2-1.7-1.3-3.5-1.3-5.2c-0.2-8.1-0.3-16.1-0.5-24.2c0-0.3,0-0.6,0-1c0.1-6.6,0.2-13.1,0.3-19.6
	c0-1.7,0-3.3,0-5.2C229.7,807,221.5,808.3,213.2,809.5z M269.1,660.4c2.5,0,4.9-0.3,7.2,0.1c2.3,0.4,4.5,1.6,6.9,2.5
	c0-4.2,0-8.2,0-12.2c-2.3-0.1-4.7,0.4-6.2-2.6c2.5-0.1,4.5-0.2,6.6-0.4c0.2-2.2,0.5-4.2,0.7-6.4c-1.3,0.3-2.4,0.6-3.4,0.8
	c-4.8,1-8.8-0.6-12.2-3.9c-0.9-0.8-0.9-1.6-0.2-2.5c0.4-0.4,0.7-0.9,1.1-1.3c5-4.5,10.6-5.6,17.1-3.5c0.5-1.9,0.9-4,1.4-5.9
	c0.6-2.1,2.2-2.7,4-1.6c0.7,0.4,1.2,1,1.9,1.5c0.3,0.2,0.8,0.4,1.3,0.6c0.4-5.1-2.5-8.6-4.7-12.4c-1.8-0.3-3.7-0.2-4.9-1.8
	c-2.4-3.2-5.9-4.8-9.2-6.7c-1.1-0.6-1.8-0.3-2.7,0.5c-2.4,2.2-4.9,4.3-7.4,6.4c-1.2,1-2.5,1.9-3.9,3.1c3.6,1.6,4.8,5.2,7.2,7.6
	c1,1.1,0.2,2.7-1.3,2.9c-1.7,0.2-3.5,0.4-5.2,0.8c-4.9,1.3-9.3,3.4-11.5,8.5c-0.2,0.4-0.5,0.7-0.9,1.2c-2.1-1.8-1.7-4.2-1.8-6.3
	c-0.1-2.2,0.2-4.3,0.4-7.1c-3.1,2.2-5.9,4.2-8.5,6.2c-0.5,0.4-0.9,1.2-1,1.8c-0.1,1.9,0,3.8,0,5.7c0.3,0,0.5,0,0.7-0.1
	c3.4-1.7,6.3,0,6.5,3.7c0.3,4.9-2.8,7.8-7.7,7.1c0,3.3,0.3,6.7-0.1,10c-0.3,3.1,1,4.8,3.3,6.2c0.1,0.1,0.3,0.2,0.4,0.3
	c2.3,2,5.1,2.4,7.9,1.9c5.1-0.8,9.9-2.4,14.6-4.2c0.5-1.9,1.1-3.6,1.6-5.4c0.2-0.8,0.7-1.3,1.5-1.2c0.9,0.1,1,0.9,1,1.6
	C269.3,657.4,269.2,658.7,269.1,660.4z M145.1,338.4c-4.2-4.1-8.8-7.3-13.8-10c-12.2-6.6-25.2-8.9-39.1-7.4c-3.8,0.4-6.3,1.5-7.7,5
	c-0.4,1-1.3,1.7-1.4,3c1.3-0.1,2.4-0.2,3.5-0.3c4.5-0.4,8.9-1.1,13.4-0.7c6.6,0.6,12.8,2.9,18.7,5.7c7.3,3.4,14.1,7.7,20,13.8
	C140.7,344.4,142.9,341.5,145.1,338.4z M208.4,788c-0.1,5.8-0.3,11.3,0.6,16.8c1.9,0,3.7,0.2,5.5,0c6.5-0.9,13.1-2.1,19.7-2.4
	c1.8-0.1,3.6-0.2,5.2-1.2c-0.6-5.3-1.2-10.4-1.9-15.7c-3.5,1.7-7.2,1.8-10.8,2C220.7,787.8,214.7,787.9,208.4,788z M433.6,626.9
	c1.2-1.7,10.7-28.9,10.8-30.5c-3.3-2-10.8-4.1-13.2-3.5c-1.7,10.4-2.9,21-6.8,30.9C427.6,624.9,430.6,625.9,433.6,626.9z
	 M150.1,330.3c-2.2-1.5-4.1-2.9-6.2-4.1c-4.5-2.7-9.1-5.3-13.8-7.7c-3.1-1.6-6.3-3.2-9.7-4.1c-5.5-1.5-11.1-2.3-16.6-3.5
	c-2.8-0.6-5.5-0.8-8.3-0.2c-0.7,0.2-1.5,0.4-1.9,0.8c-1.7,2.4-3.2,4.9-5.1,7.8c11-2.5,21.2-2,31.3,1c10.2,3,18.8,8.6,26.8,15.7
	C147.9,334.1,148.9,332.4,150.1,330.3z M256.5,226.5c20.7-1.8,37.7,4.3,49.5,22.1c0.1-0.2,0.3-0.4,0.3-0.6c0.3-1.2,0.6-2.5,1.1-3.7
	c0.5-1.4,0.2-2.4-0.7-3.5c-6.2-7.4-13.8-13-22.8-16.6c-6.7-2.6-13.5-4.3-20.7-4.2c-5.2,0.1-4.1,0.1-5.7,3.9
	C257.1,224.7,256.8,225.6,256.5,226.5z M152.8,325c-4.1-3.7-8-7.5-12.7-10c-5.5-3-11.2-5.7-16.9-8.4c-4.1-2-8.7-2.5-13.1-3.8
	c-3.3-0.9-6.6-1.2-10.1-0.9c-1.2,1.9-2.5,3.9-4,6.1c1.4-0.1,2.4-0.2,3.4-0.2c3.9,0.3,7.8,0.6,11.6,1.2c6.7,0.9,13.2,2.4,19.1,5.7
	c2.6,1.4,5.2,2.8,7.8,4.3c4.3,2.5,8.9,4.8,12.7,8c0.2,0.2,0.5,0.3,0.9,0.4C152,326.7,152.3,326,152.8,325z M308.6,237.7
	c1.4-2,0.7-3.6-0.7-5.2c-4-5-9.2-8.7-14.7-11.8c-7.5-4.3-15.7-7-24.2-8.9c-1.7-0.4-3.5,0-5.2,0.1c-0.5,0-1.1,0.3-1.4,0.7
	c-0.9,1.6-1.8,3.2-2.3,4.9C280.2,215.5,295.7,223.2,308.6,237.7z M310.6,230.4c0.6-2.2,1.1-4.2,1.6-6.3c-2.8-2-5.5-4.1-8.3-5.9
	c-5.8-3.8-12.2-6.6-18.6-9.3c-6-2.7-12.4-3.2-19-3.7c-0.6,1.2-1.2,2.4-1.8,3.5c2.5,0.2,4.9,0.1,7.2,0.5c2.6,0.5,5.1,1.2,7.6,2
	c10.1,3,19.3,7.7,27,14.9C307.8,227.3,309,228.7,310.6,230.4z M312.9,221.1c0.3-1.4,0.6-2.6,0.9-3.8c0.2-0.8,0-1.4-0.6-1.9
	c-3.2-2.8-6.5-5.5-10.5-7.1c-3-1.2-5.9-2.4-8.8-3.7c-7.4-3.4-15.2-4.8-23.2-5.2c-0.8,0-1.4,0.2-1.7,1c-0.3,0.6-0.6,1.3-1,2
	c1.9,0.1,3.7,0.2,5.4,0.3c2.9,0.2,5.7,0.5,8.4,1.5c8.3,2.9,16.1,6.7,23.4,11.4C307.8,217.3,310.2,219.2,312.9,221.1z M101.6,299.5
	c6.9-0.4,13.1,1.5,19.3,3.2c6.2,1.8,11.8,5.1,17.6,8.1s10.5,7.3,15.3,11.9c0.4-1.2,0.7-2,1.1-2.9c-13.8-14.7-31.1-21.6-50.7-24
	C103.4,296.9,102.7,298,101.6,299.5z M265.6,622.7c-1-3.2-3.7-4.3-5.8-6.2c-2.8,1.5-5.6,3-8.5,4.6c0,2.7,0,5.4,0,8.4
	C255.4,625.4,260.3,623.5,265.6,622.7z M168.6,576.9c-5.8,7.9-10,16.2-12.4,25.3c2.4-3.3,4.5-6.7,6.9-9.9c2.5-3.3,5.3-6.3,7.9-9.3
	C170.2,581.1,169.5,579.2,168.6,576.9z M285.9,634.1c-1.3-1.3-2.9-1.7-4.5-1.5c-2.6,0.4-5.2,1-7.7,1.7c-1.4,0.4-2.7,1.2-3.6,2.7
	c2.2,1.6,4.5,2.2,7,2.1c0.7-3.9,1.2-4.5,3.4-4.6c1.9,0,2.5,0.7,3,3.6C286.1,637.7,285.1,635.4,285.9,634.1z M238.9,645.5
	c1.3-0.1,2.3-0.1,3.2-0.3c2.6-0.6,4.2-4.6,2.7-6.8c-0.6-0.9-1.4-1.5-2.6-1.4c-1.2,0.1-2.3,0.8-2.6,1.8
	C239.2,640.9,239.2,643.1,238.9,645.5z"></path>
<path d="M328.7,593.7c-2.8,1.1-5.2,2-7.6,2.9c-1,0.4-1.9,0.8-2.9,1c-2.1,0.5-3.7-1.2-3-3.2c1.1-3.2,2.7-6.1,4.9-8.7
	c0.4-0.5,1.1-0.8,1.6-1.1c0.2,0.1,0.3,0.3,0.5,0.4c-0.2,0.5-0.3,1.1-0.6,1.6c-1.3,2.5-2.6,4.9-4.2,7.9c1.1-0.2,1.6-0.3,2.1-0.5
	c2.1-0.8,4.1-1.7,6.2-2.5c0.7-0.3,1.3-0.6,2-0.8c2.7-0.7,3.8,0,4,2.7c0.1,1.7,0,3.5,0,5.5c0.7-0.2,1.3-0.2,1.7-0.5
	c4-2.2,8.3-3,12.8-3.6c7.2-1,14.3-2.2,21.5-3.4c0.8-0.1,1.5-0.2,2.2-0.3c0.1,0.2,0.1,0.4,0.2,0.5c-0.9,0.4-1.7,0.9-2.7,1.3
	c-6.9,2.8-13.9,5.1-21.4,5.6c-4.1,0.3-8,1.3-11.7,3.2c-2.8,1.4-5.1,0.2-5.6-2.9C328.4,597.3,328.7,595.7,328.7,593.7z"></path>
<path d="M192.5,677c-0.3-1.5-0.8-2.7-0.9-4c-0.7-7.4,1-14.1,6.2-19.7c0.2-0.2,0.4-0.6,0.7-0.7c0.6-0.2,1.3-0.6,1.7-0.3
	c0.4,0.2,0.6,1.1,0.5,1.6c-0.3,1.2-0.7,2.4-1.3,3.6c-2.7,5.9-5.1,11.9-6,18.3c0,0.2-0.2,0.5-0.3,0.7
	C193,676.5,192.9,676.6,192.5,677z"></path>
<path d="M263.4,294.1c-0.6-0.5-1.1-0.8-1.3-1.2c-2.7-4-3.8-8.4-2.9-13.2c0.1-0.5,0.2-1.1,0.5-1.3c0.6-0.4,1.3-0.9,2-0.9
	c0.9,0,0.9,1,0.9,1.7c0.1,2.7,0.2,5.4,0.3,8.1C263.1,289.5,263.3,291.6,263.4,294.1z"></path>
<path d="M211.6,491.3c-1.3-0.8-2-1.9-2.4-3.2c-0.1-0.4,0-1.3,0.3-1.4c0.7-0.3,1.6-0.5,2.4-0.5c0.2,0,0.7,0.8,0.7,1.3
	C212.7,488.8,212.4,490.1,211.6,491.3z"></path>
<path d="M260.4,640.9c1.4,7.8-0.5,14.5-5.7,20.3c-0.8,0.9-2,1.6-3.1,2.1s-1.7,0-2.2-1.1c-2.2-5.5-1.4-10.6,1.6-15.5
	C252.7,644,257.3,641.1,260.4,640.9z M259.1,643.8c-7.1,2.3-11.5,11.4-8.3,17.2c2.7-0.9,4-2.1,5.4-5.1c-1.8-1.4-2.2-3.3-1.6-5.5
	c0.7-2.3,2.8-1.6,4.5-2C259.1,646.7,259.1,645.3,259.1,643.8z"></path>
<path d="M272.8,619.4c0-0.3,0-0.6,0-1c0.5-4.7,4-6.4,8.1-4c2.7,1.6,3.7,3.4,3.3,5.8c-0.5,2.7-3,5.1-5.7,5.5c-1.7,0.2-3-0.5-4-1.7
	C273.3,622.8,272.8,621.2,272.8,619.4z M276.2,615.5c-0.3,0.2-1,0.4-1.3,0.8c-1.4,1.8-0.8,5.6,1,6.9c1.7,1.2,3.8,0.7,5.5-1.6
	c0.4-0.5,0.8-1.1,0.8-1.7c0-0.7-0.2-1.7-0.6-2.1C280.3,616.4,278.5,615.8,276.2,615.5z"></path>
<path d="M267.4,629.8c-1.8,2.8-4.3,3.9-6.4,5.4c-1.3-1.3-1.4-1.8-0.5-3C262.1,630.1,264.4,629.6,267.4,629.8z"></path>
<g id="Color">
	<path class="st1" d="M208.6,785.3c-0.5-0.8-0.8-1.7-1.4-2.4c-4.7-5.1-5.3-11-3.9-17.4c0.5-2.6,1.1-5.1,1.6-7.7
		c0.8-4.8-0.2-9-3.9-12.5c-1.3-1.2-2.4-2.6-3.5-4c-2.3-2.9-3-6.2-2.4-9.7c1.7-10.5-2.8-16.8-11.2-21.7c-2.1-1.2-4.2-2.3-6.2-3.6
		c-4.3-2.7-6.2-6.7-6.2-11.7c0-4.8,0.8-9.3,2.7-13.7c2-4.8,3.8-9.8,5.5-14.8c1.2-3.7,0.4-7.4-1.7-10.6c-2.6-4-5.5-7.9-8.6-11.5
		c-4.8-5.7-9.1-11.6-11.4-18.7c-1-3.1-1.2-6.4-2-9.6c-0.9-3.9,0.6-7.2,2.4-10.4c5.2-9,11.5-17.1,19.4-23.9
		c6.3-5.4,12.7-10.7,19.2-15.8c12.7-9.8,25.5-19.3,38.2-28.9c3.5-2.6,7.2-5.1,10.7-7.8c4.3-3.3,9-6.2,10.9-11.6c3.6,1.4,5,4,4.4,7.4
		c-0.5,3.1-1.9,5.7-4.1,7.9c-1.7,1.8-3.6,3.4-5.3,5.2c-3.8,3.9-5.8,8.8-7.5,13.8c-0.3,1-0.6,2-0.8,3c-0.2,0.9-0.2,1.8-0.1,2.7
		c3.8-5.9,6.7-12.4,11.5-17.4c1.9,0.4,3.7,0.7,5.7,1.1c0.4,1.3,0.1,2.8-0.8,4.2c-1.2,1.8-2.2,3.7-3.5,5.4
		c-5.1,6.7-7.8,14.4-9.6,22.5c-0.5,2.2-0.8,4.4-0.7,6.7c0.2-0.5,0.5-1,0.7-1.5c1.8-5.7,4-11.3,6.7-16.6c1.2-2.3,2.7-4.5,4.1-6.8
		c1.5-2.3,3.2-4.4,4.4-6.8c0.9-1.7,2.1-2.2,3.8-2.4c1.8-0.2,3.2,0.2,4,2.1c0.8,1.7,1.8,3.4,2.8,5c3.7,6,9.2,9.5,15.9,11.1
		c3.7,0.9,7.6,1.2,11.3,1.8c7.8,1.4,15.7,2,23.3,4.1c2.8,0.8,5.5,1.9,7.6,3.9c4.3,4,9.5,5,15.2,5.2c7.6,0.3,14.9-1.1,22.3-2.2
		c9.3-1.4,18.4-0.8,27.1,3.5c4,2,8.1,3.8,12.1,5.7c2.9,1.4,6,2.3,9.2,2.4c4.4,0.2,8,1.9,11.4,4.7c-2.1,10.7-4.2,21.3-7.8,31.8
		c-6-0.6-11.5,1.3-16.6,4.1c-3.9,2.2-7,1.2-10.1-1.4c-1.3-1.1-2.6-2.2-3.7-3.4c-1.7-1.9-3.8-2.7-6.2-2.7c-2.2,0-4.4,0.3-6.6,0.6
		c-0.9,0.1-1.7,0.4-2.5,0.7c-4.2,1.6-8,0.8-11.6-1.5c-2.5-1.6-4.9-3.2-7.4-4.9c-3.3-2.2-6.9-3.1-10.9-3.1c-3,0-5.9,0.1-8.8,0.9
		c-1.8,0.6-3.6,0.3-5.3-0.7c-0.8-0.5-1.8-0.8-2.6-1.3c-2.5-1.6-5.1-1.5-7.9-1.1c-1.7,0.3-3.5,0.4-5.2,0.8c-3,0.6-5.8,0.2-8.3-1.4
		c-4-2.5-8.2-2.2-12.5-1.7c-1.7,0.2-3.3,0.6-4.9,0.9c-1.3,0.2-2.1-0.1-3-1.2c-2.6-3.1-5.6-5.9-9.6-7.2c-1.7-0.6-3-0.3-4.1,1.1
		c-2.4,3-5.5,5.1-8.4,7.4c-3.6,2.9-7.5,5.3-11.6,7.6c-4.5,2.5-8.6,5.5-12.8,8.3c-1.7,1.1-2.4,2.7-2.4,4.9c-0.1,4.3-0.7,8.6-0.8,12.9
		c-0.1,4.2,0,8.5,0.2,12.7c0.2,4.3-0.2,8.6-1,12.8c-0.9,4.7-2.3,9.1-3.9,13.5c-3.4,9.4-5.7,19.1-6.8,29.1c-0.5,4.9,0.3,9.7,2.6,14.2
		c2.8,5.5,5.6,10.9,8.3,16.4c1,2,1.7,4.1,2.4,6.2c0.8,2.5,0.4,4.9-0.6,7.2c-0.6,1.3-1.1,2.6-1.8,3.9c-1.4,2.9-1.6,5.7,0.3,8.4
		c0.6,0.8,1,1.8,1.6,2.7c2,3.2,1.2,6.3-0.2,9.3c-0.7,1.6-2,2.4-3.8,2.5c-2.1,0.2-4.1,0.4-6.2,0.6C221.3,784,215,784.6,208.6,785.3z
		 M328.7,593.7c0,2-0.2,3.6,0,5.2c0.5,3.1,2.8,4.3,5.6,2.9c3.7-1.8,7.6-2.9,11.7-3.2c7.5-0.5,14.6-2.8,21.4-5.6
		c0.9-0.4,1.8-0.9,2.7-1.3c-0.1-0.2-0.1-0.4-0.2-0.5c-0.8,0.1-1.5,0.2-2.2,0.3c-7.2,1.1-14.3,2.4-21.5,3.4
		c-4.5,0.6-8.8,1.3-12.8,3.6c-0.4,0.2-1,0.3-1.7,0.5c0-2,0.1-3.8,0-5.5c-0.2-2.7-1.4-3.5-4-2.7c-0.7,0.2-1.3,0.5-2,0.8
		c-2.1,0.8-4.1,1.7-6.2,2.5c-0.4,0.2-0.9,0.2-2.1,0.5c1.6-3,2.9-5.4,4.2-7.9c0.2-0.5,0.4-1,0.6-1.6c-0.2-0.1-0.3-0.3-0.5-0.4
		c-0.6,0.4-1.2,0.6-1.6,1.1c-2.2,2.6-3.8,5.6-4.9,8.7c-0.7,2,0.9,3.7,3,3.2c1-0.2,2-0.6,2.9-1C323.5,595.7,325.9,594.7,328.7,593.7z
		 M192.5,677c0.4-0.3,0.5-0.4,0.6-0.5c0.1-0.2,0.2-0.4,0.3-0.7c1-6.4,3.3-12.4,6-18.3c0.5-1.2,1-2.4,1.3-3.6
		c0.1-0.5-0.1-1.4-0.5-1.6c-0.4-0.2-1.2,0.1-1.7,0.3c-0.3,0.1-0.5,0.4-0.7,0.7c-5.1,5.6-6.9,12.3-6.2,19.7
		C191.7,674.2,192.2,675.5,192.5,677z" style="fill: rgb(211, 182, 224);"></path>
	<path class="st1" d="M287.8,290.1c0-0.9-0.1-1.4-0.1-1.9c-0.1-4.6-0.1-9.1-0.2-13.7c0-1.1-0.2-2.2-0.4-3.3c-0.1-0.4-0.5-0.7-0.8-1
		c-0.4,0.3-0.8,0.6-1.1,1c-0.2,0.2-0.1,0.6-0.1,0.9c-0.3,6.8-0.7,13.5-0.8,20.3c0,4.6,0.5,9.2,0.7,13.8c0.2,5,0.3,10.1,0.3,15.1
		c0,4,0,8-0.3,12c-0.4,5.7-0.9,11.4-1.5,17.1c-0.6,6-1.4,12-2.2,18c-1.2,9.3-2.4,18.7-3.8,27.9c-1,6.8-2.1,13.5-3.5,20.2
		c-2,9.4-5.5,18.3-10.6,26.6c-2.2,3.5-4.6,6.9-7,10.4c-0.3,0-0.6-0.1-0.9-0.2c-7.2-2.5-14.5-4.8-21.7-7.5c-6-2.2-11.5-5.3-16.6-9
		c-4-2.9-7-6.7-9.3-11.1c-2.4-4.6-4.3-9.4-6-14.3c-1.5-4.2-1.1-8.3-0.5-12.5c1.1-7.4,3.6-14.4,6.2-21.3
		c5.2-13.9,11.1-27.5,17.7-40.8c8.6-17.1,17.2-34.2,25.8-51.4c0.8-1.6,1.6-3.3,1-5.4c-3.5,0.6-4,3.8-5.8,6.4c-0.5-2.7-0.7-5-0.8-7.5
		c-0.5-10.5,1.5-20.7,4.1-30.7c1.4-5.2,2.9-10.5,4.4-15.7c0.7-2.4,1.2-2.8,3.8-2.8c2.7,0,5.4,0.1,8.1,0.5c3.9,0.6,7.9,1.1,11.7,2.2
		c7.8,2.1,14.5,6.3,20.2,11.9c2.3,2.3,4,5.2,5.9,7.8c0.7,0.9,0.3,1.8-0.1,2.7c-2.1,5.3-4.3,10.7-6.4,16c-2.6,6.4-6,12.3-9.1,18.4
		C288.4,289.5,288.3,289.6,287.8,290.1z M263.4,294.1c-0.2-2.5-0.3-4.7-0.4-6.8c-0.1-2.7-0.2-5.4-0.3-8.1c0-0.7,0-1.7-0.9-1.7
		c-0.7,0-1.4,0.5-2,0.9c-0.3,0.2-0.4,0.8-0.5,1.3c-0.9,4.8,0.2,9.2,2.9,13.2C262.4,293.4,262.9,293.6,263.4,294.1z" style="fill: rgb(247, 193, 180);"></path>
	<path class="st1" d="M239.4,663.1c0.9,0.7,1.7,1.2,2.3,1.9c2.8,2.9,6.2,3.6,9.9,3s7.3-1.7,10.9-2.7c3.6-1.1,7.1-2.3,11-2.2
		c2,0.1,4,0.4,5.8,1.3c1.9,1,3.8,2,5.8,3.1c0.1-1.2,0.5-2.6,0.5-3.9c0.1-10.6,1.2-21.2,3.7-31.5c0.4-1.8,0.7-3.7,1.1-5.9
		c1.1,0.8,1.9,1.5,2.8,2.1c2.7,1.8,4.7,0.9,4.9-2.3c0.2-2.9-0.5-5.7-2-8.2c-0.9-1.4-1.8-2.8-2.8-4.4c0.5-0.2,0.9-0.5,1.3-0.5
		c2.3-0.1,4.6-0.2,6.9,0c2.6,0.2,5.2,2.5,5.6,5.2s0.8,5.4,0.4,8.1c-1.4,9.2,1.3,17.2,6.3,24.6c1.7,2.5,3.4,5,5.2,7.5
		c2.8,4.1,4,8.8,4.5,13.7c0.8,8.7-1.6,16.7-5.6,24.4c-2,3.8-3.9,7.7-5.7,11.6c-1.6,3.6-2.6,7.4-2.4,11.4c0.1,2.3,0.6,4.6,1.1,6.8
		c1,4.1,1.8,8.3,2,12.5c0.3,7-2,13.4-5.5,19.3c-2.1,3.6-4.7,6.9-7.1,10.2c-3.2,4.3-6.2,8.7-8,13.8c-2.1,5.8-1.7,11.4,1,16.9
		c1.6,3.1,2.9,6.4,4.3,9.6c0.5,1.2,1,2.3,1.6,3.5c1.5,2.8,3.8,4.5,6.8,5.3c0.8,0.2,1.6,0.4,2.3,0.5c2.8,0.3,4.9,1.7,6.8,3.6
		c1.6,1.6,3.4,3.1,5.2,4.5c2.5,2,5.4,2.2,8.4,1.9c1.7-0.2,2.7-1.2,2.9-3c0.2-1.5,0-3-0.9-4.4c-0.4-0.6-0.8-1.3-1.5-2.4
		c3.3,1,4.9,3,6.1,5.6c0.3,0.6,0.4,1.4,0.5,2.1c0.8,4.3-0.4,6.6-4.4,8.5c-3.4,1.6-7,2.8-10.9,1.9c-3.7-0.9-6.9,0.2-10.1,1.9
		c-2.7,1.5-5.5,2.9-8.2,4.6c-2.7,1.7-5.3,1.7-8.2,0.3c-3.1-1.5-6.2-3.1-7.8-6.4c-2.2-4.8-6.2-6.8-11.3-7.1c-1,0-2.1-0.2-3.1-0.3
		c-6-0.6-9.1-4.5-10.5-10c-1.1-4.3-1.2-8.7-0.4-13c0.6-3.3,1.2-6.6,1.6-9.9c0.2-1.2,0-2.6-0.2-3.8c-1.3-6.5-3.9-12.1-10-15.6
		c-6.1-3.6-8.5-9.1-7.9-16c0.3-3.4,1-6.8,1.6-10.1c0.9-5.2,0.6-10.1-1.8-14.9c-2.7-5.3-5.2-10.6-7.5-16c-1.6-3.9-2.9-7.9-3.9-12
		c-0.7-3-0.6-6.2-0.9-9.3c-0.1-1.3-0.1-2.7-0.3-4c-0.3-2,0-3.9,0.6-5.9c1.7-5,3.4-10,4.8-15C238.3,669.9,238.7,666.6,239.4,663.1z" style="fill: rgb(145, 86, 86);"></path>
	<path class="st1" d="M192.7,406.4c-2.3,2.2-3.5,4.8-4.5,7.6c-4.6,13-9.2,26-13.9,39c-1.8,4.9-4.1,9.7-6.2,14.5
		c-0.5,1.2-1.1,2.3-1.7,3.5c-0.5-0.3-0.9-0.5-1.3-0.8c-6.3-5.4-13.1-9.9-20.1-14.3c-4.9-3-10.1-5.4-15.1-8.3
		c-6.6-3.8-13-7.7-19.6-11.6c-5.8-3.4-11.7-6.7-17.3-10.3c-4.8-3.1-9.5-6.5-13.9-10.2c-5.3-4.4-10.3-9.1-15.3-13.8
		c-1.7-1.6-3-3.7-4.5-5.6c-1.9-2.4-2.1-5-1.5-7.9c1.1-5.8,2.8-11.4,4.8-17c4-11.4,9.6-22.1,14.9-32.9c1-1.9,2-3.8,3-5.8
		c0.6-0.1,1.2-0.2,1.7-0.2c5-0.2,9.9-0.5,14.8-0.3c3.2,0.1,6.4,0.7,9.4,1.6c10.2,3.1,19.6,7.7,28,14.4c0.5,0.4,1,1,1.8,1.6
		c-1.4,1.6-2.7,3.2-4.1,4.7c-3.6,3.8-7.5,7.5-11.7,10.6c-1.7,1.3-3.6,2.3-5.4,3.5c-1.3,0.9-2.7,1.7-4,2.7c-1.1,0.9-2.2,1-3.5,0.6
		c-5.1-1.3-10.2-2.8-14.9-5.2c-0.7-0.3-1.4-0.4-2.2-0.5c-0.1,0.2-0.2,0.3-0.3,0.5c0.6,0.7,1.1,1.5,1.8,2c3.9,2.8,8,5.2,12.6,6.8
		c5.5,2,11.1,3.3,17,3.2c5.7-0.1,11.3,0,17,0.2c13.6,0.5,26.6,3.5,38.4,10.4c4.3,2.5,7.7,6,10.7,9.8
		C189.5,401.4,191,403.9,192.7,406.4z" style="fill: rgb(247, 193, 180);"></path>
	<path class="st1" d="M206.1,142.3c0.5,2.3,0,4.1-0.5,6c-1.9,7.1-5,13.6-9.1,19.7c-2.6,3.8-5.1,7.7-7.4,11.8
		c-3.4,6.1-3.8,12.4-0.5,18.7c2,3.8,4.2,7.5,5.6,11.6c1,3,1.4,6.1,1.2,9.2c-0.2,3-2.2,5-4.2,7c-3.9,3.8-8.7,6.2-13.5,8.5
		c-4,1.9-8,3.6-12.3,4.7c-1.7,0.4-3.3,1.2-4.8,2c-2,1.1-2.5,2.1-2,4.3c0.6,3,1.5,5.9,1.9,8.9c0.6,3.9,1.1,7.9,1.2,11.9
		c0.1,7.5,0,15-0.5,22.5c-0.5,8.2-1,16.4-3.7,24.3c-0.4,1.1-0.8,2.2-1.3,3.3c0,0.1-0.2,0.2-0.3,0.2c-13.4-14.3-29.8-22.4-49.8-23.9
		c0.6-0.9,1-1.7,1.5-2.5c6.4-9.9,12.9-19.8,19.2-29.8c8.8-14,15.8-28.8,23.2-43.5c5.3-10.5,11-20.7,16.8-31
		c3.6-6.5,7.5-12.8,11.6-19c5.9-8.8,13.2-16.4,21.9-22.6c1-0.7,2-1.4,3.1-1.8C204.3,142.5,205.2,142.5,206.1,142.3z"></path>
	<path class="st1" d="M181.5,490.8c6.2-3,12.5-5,19.1-6.3c10.5-2.1,21.2-2.7,31.9-2.4c6,0.2,11.9,0.8,18,1.2c0.2,3.9,0.4,7.4,0.7,11
		c0.6,6.9,0.3,13.9,1.7,20.7c0.2,1.1,0.5,2.2,0.9,3.5c-0.7,0.7-1.4,1.7-2.4,2.3c-4.5,3.3-9,6.6-13.5,9.9
		c-10.4,7.7-20.8,15.3-31.1,23.2c-9.8,7.5-19.5,15.3-29.2,23c-1.5,1.2-3,2.6-4.8,4.3c-0.9-4.2-1.7-8-2.4-11.8
		c-1.4-8.5-0.9-17,0.7-25.4c2.2-11.3,4.8-22.6,7.1-33.9c1.1-5.2,2-10.3,3-15.5C181.5,493.5,181.4,492.3,181.5,490.8z M211.6,491.3
		c0.9-1.2,1.2-2.5,1-3.9c0-0.5-0.5-1.3-0.7-1.3c-0.8,0-1.7,0.2-2.4,0.5c-0.3,0.1-0.4,1-0.3,1.4C209.6,489.3,210.2,490.5,211.6,491.3
		z" style="fill: rgb(247, 193, 180);"></path>
	<path class="st1" d="M319.5,19.9c0.4,0.5,0.7,0.9,0.9,1.3c2.3,4.2,4.7,8.3,7,12.5c0.8,1.5,1.4,3.2,2.2,4.8c1.7,3.3,3.2,6.8,5.2,10
		c3,5,3.8,10.2,3.1,15.8c-0.6,5-1.2,10-1.8,14.9c-1.1,9.4-3,18.5-4.9,27.8c-1.3,6.4-2.4,12.8-3.3,19.3c-0.9,7.3-1.3,14.6-2.1,21.9
		c-1.4,13.3-3,26.6-5.9,39.7c-1.8,8-3.4,16.1-5,24.1c-0.1,0.3-0.2,0.6-0.3,1.1c-0.9-0.7-1.7-1.3-2.5-2c-2.9-2.5-6.2-4.4-9.8-5.9
		c-3.9-1.6-7.7-3.5-11.6-5.1c-5.1-2.1-10.5-3.3-16.1-3.2c-1,0-1.9,0-2.9-0.1c-0.1,0-0.3-0.2-0.5-0.3c0.2-0.5,0.4-1.1,0.7-1.6
		c8.4-16,16.8-32,25.1-47.9c3-5.8,6-11.7,8.8-17.5c0.9-1.9,1.6-4,2.3-6c0.8-2.2,0.2-4.1-1.3-5.8c-0.3-0.3-0.5-0.7-0.7-0.9
		c-4.2-4.7-4.6-10-2.5-15.6c1.7-4.4,3.8-8.6,5.8-12.9c3.2-6.7,5.2-13.7,5.5-21.1c0.3-6-0.3-11.9-1.3-17.8c-0.3-2.1-0.3-4.3-0.3-6.4
		c0.1-2.5,0.1-5.1,0.5-7.6c0.3-2,0.8-3.9,1.5-5.7c1-2.8,2.2-5.5,3.3-8.2C319,20.9,319.2,20.5,319.5,19.9z" style="fill: rgb(255, 255, 255);"></path>
	<path class="st1" d="M167.7,472.5c6.6-10.7,11.2-22.1,15.3-33.7c2.8-8.1,5.4-16.2,8.1-24.3c0.5-1.5,1.4-3,2.4-4.4
		c1.1-1.5,1.7-1.6,3.5-0.9c0.7,0.2,1.3,0.5,2.1,0.8c0.5,5.9,2.5,11.3,5.1,16.5c3.6,7.4,9.2,12.9,16.3,17c7.4,4.3,15.2,7.3,23.3,9.8
		c3.8,1.2,7.6,2.3,11.5,3.5c-1.3,3.8-2.7,7.4-3.8,11s-1.8,7.4-2.8,11.3c-1.9-0.2-4-0.5-6.1-0.6c-5.6-0.3-11.1-1.1-16.7-0.5
		c-5.2,0.5-10.5,0.6-15.7,1.2c-9.9,1.1-19.5,3.6-28.2,8.7c-0.1,0.1-0.3,0.1-0.6,0.2C177.2,482.6,173.1,477,167.7,472.5z" style="fill: rgb(183, 189, 239);"></path>
	<path class="st1" d="M503.8,620c2.8,0,5.6,0.1,8.4,0.1c5.2,0,10.4,0,15.6,0c2.2,0,4.5,0.1,6.7,0.3c3.9,0.4,7.5,1.7,10.8,3.7
		c1.6,1,3.3,1.8,4.8,3.2c-4.7-0.5-9.4-1-14.1-1.5c-4.8-0.6-9.6,0.2-14.3,0.7c-11,1.1-12,1.3-14.1,3.1c0.8,0.2,1.3,0.4,1.8,0.4
		c5.5,0.3,11,0.3,16.5,0.8c7.9,0.7,15.3,3.3,21.9,7.7c1.3,0.9,2.7,1.7,4,2.9c-0.8-0.1-1.6-0.1-2.4-0.3c-3.9-1.1-7.8-2.2-11.8-3.3
		c-8.3-2.4-16.8-2.7-25.4-1.6c-1.1,0.2-2.5,0-3.2,1.6c4.7,1.2,9.3,2.1,13.8,3.5s8.8,3.3,13.2,5.1s8.2,4.7,12.3,7.8
		c-2,0.6-3.4-0.1-4.8-0.5c-6.8-1.8-13.5-3.7-20.3-5.5c-2.4-0.6-4.9-0.8-7.3-1.5c-5.1-1.5-10-3.3-15-4.8c-2.9-0.9-5.8-1.7-8.8-2.4
		c-1-0.3-2.2-0.2-3.6-0.3c0.3,1,0.4,1.6,0.6,2.2c1.4,3.3,4.1,5.5,6.7,7.7c3,2.5,6.3,4.7,9.4,7c0.3,0.2,0.6,0.4,0.9,0.7
		c0,0.1-0.1,0.3-0.1,0.4c-0.8-0.1-1.6,0-2.4-0.2c-3.1-0.6-6.3-1.1-9.4-1.9c-5.2-1.4-9.3-4.3-12.1-9.1c-0.9-1.7-2.1-3.2-3-4.9
		c-1.4-2.6-3.5-4.4-6.1-5.6c-2.2-1-4.4-2-6.6-2.7c-7.3-2.3-14.8-3.9-22.5-4.4c-2.2-0.1-4.4-0.4-6.9-0.7c3.4-9.5,6.7-18.9,10.2-28.7
		c2.2,0.6,4.3,0.9,6.3,1.7c6,2.4,11.9,4.9,17.9,7.4c3.2,1.3,6.3,2.8,9.5,4.1c2.8,1.2,5.7,1.2,8.7,0.7c5-0.8,10.1-1.4,15.2-1.8
		c4-0.3,8-0.2,12,0c1.9,0.1,3.9,0.9,5.8,1.4c0.3,0.1,0.6,0.4,1.3,0.9c-7.3,0.8-14,2.2-20.1,5.7C503.8,619.5,503.8,619.8,503.8,620z" style="fill: rgb(247, 193, 180);"></path>
	<path class="st1" d="M213.2,809.5c8.3-1.3,16.5-2.5,24.8-3.8c0,1.9,0,3.6,0,5.2c-0.1,6.6-0.2,13.1-0.3,19.6c0,0.3,0,0.6,0,1
		c0.2,8.1,0.3,16.1,0.5,24.2c0,1.7,0.2,3.5,1.3,5.2c1.6-1.6,1.5-3.4,1.5-5.2s0-3.7,0-5.7c1.8-0.2,3.7-0.5,5.6-0.8
		c5.2-0.7,10.4-1.6,15.7-2.2c3.6-0.4,7.2-0.3,10.8-0.5c0.2,0,0.4,0.2,1.1,0.5c-1.8,0.5-3.2,0.9-4.5,1.1c-3.9,0.7-7.7,1.6-11.3,3.1
		c-1.3,0.5-2.7,1.1-3.1,2.7c0.5,0.9,1.4,0.8,2.2,0.7c2.9-0.3,5.9-0.8,8.8-0.8c5.7-0.1,11.5-0.2,17.2,0c3.6,0.1,7,1.3,10.3,2.9
		c-0.8,0.1-1.6,0.2-2.4,0.2c-3.9-0.1-7.8-0.2-11.7-0.2c-6-0.1-11.9,0.8-17.6,2.8c-0.9,0.3-1.6,0.9-2.9,1.6c1,0.5,1.5,0.9,2,0.9
		c1.7-0.1,3.4-0.1,5-0.6c4.2-1.2,8.5-1.5,12.8-1.7c2.1-0.1,4.2,0.2,6.1,0.9c3.6,1.4,7.2,2.9,10.9,4.3c0,0.2-0.1,0.4-0.1,0.6
		c-0.8,0-1.6,0.2-2.4,0.1c-4.3-0.4-8.6-0.7-12.8-1.3c-6.5-0.8-12.9,0.3-19.2,1.6c-0.5,0.1-0.9,0.3-1.3,0.6c-0.8,0.6-0.8,1.5,0.1,1.9
		c0.7,0.3,1.5,0.5,2.3,0.6c6,0.6,11.9,0.9,17.9,1.7c5.5,0.7,10.2,3.3,14.9,6.3c-1.5,0.4-2.9,0.5-4.3,0.2c-4.9-0.8-9.7-1.7-14.6-2.7
		c-7.3-1.4-14.7-2.1-22.2-1.4c-1.8,0.2-3.5,0.1-5.3,0.2c-1.5,0.1-2.9-0.4-4.3-1.2c-1.9-1-4.1-1.5-6.6-2.4c0.2,0.9,0.1,1.5,0.4,1.8
		c1.1,1,2.2,2.2,3.5,2.9c3.4,1.9,6.5,4.1,9.1,6.9c1.5,1.7,2.7,3.7,4.2,5.8c-4.1,0.6-7.4-0.1-10-2.8c-1.6-1.6-3.2-3.2-4.6-4.9
		c-3.3-4.1-7.6-6.8-12.3-8.8c-1.2-0.5-2.3-1.1-3.4-1.8c-1.5-0.9-2.3-2.4-2.5-4.1c-1.2-8.7-2.2-17.4-3.5-26c-1.3-8.5-3-16.9-4.4-25.4
		C213.7,812.2,213.5,811,213.2,809.5z" style="fill: rgb(247, 193, 180);"></path>
	<path class="st1" d="M269.1,660.4c0.1-1.7,0.3-2.9,0.3-4.2c0-0.8-0.1-1.5-1-1.6c-0.8-0.1-1.3,0.4-1.5,1.2c-0.5,1.8-1,3.5-1.6,5.4
		c-4.7,1.7-9.5,3.4-14.6,4.2c-2.8,0.4-5.6,0-7.9-1.9c-0.1-0.1-0.2-0.2-0.4-0.3c-2.3-1.4-3.7-3.1-3.3-6.2c0.4-3.3,0.1-6.7,0.1-10
		c4.8,0.7,8-2.2,7.7-7.1c-0.2-3.7-3.2-5.4-6.5-3.7c-0.1,0.1-0.3,0-0.7,0.1c0-1.9-0.1-3.8,0-5.7c0-0.6,0.5-1.4,1-1.8
		c2.7-2,5.4-3.9,8.5-6.2c-0.2,2.7-0.5,4.9-0.4,7.1c0.1,2.1-0.3,4.5,1.8,6.3c0.4-0.5,0.8-0.8,0.9-1.2c2.2-5.1,6.5-7.2,11.5-8.5
		c1.7-0.4,3.5-0.6,5.2-0.8c1.5-0.2,2.4-1.8,1.3-2.9c-2.4-2.4-3.5-6-7.2-7.6c1.5-1.1,2.7-2.1,3.9-3.1c2.5-2.1,5-4.2,7.4-6.4
		c0.9-0.8,1.7-1.2,2.7-0.5c3.3,1.9,6.8,3.5,9.2,6.7c1.2,1.6,3,1.5,4.9,1.8c2.2,3.7,5.1,7.3,4.7,12.4c-0.5-0.2-0.9-0.4-1.3-0.6
		c-0.6-0.5-1.2-1.1-1.9-1.5c-1.8-1.2-3.5-0.5-4,1.6c-0.5,2-1,4-1.4,5.9c-6.5-2.1-12.2-1-17.1,3.5c-0.4,0.4-0.7,0.9-1.1,1.3
		c-0.8,0.9-0.7,1.7,0.2,2.5c3.5,3.3,7.4,4.9,12.2,3.9c1.1-0.2,2.1-0.5,3.4-0.8c-0.2,2.2-0.5,4.2-0.7,6.4c-2,0.1-4.1,0.2-6.6,0.4
		c1.5,2.9,3.9,2.4,6.2,2.6c0,4,0,8.1,0,12.2c-2.3-0.9-4.5-2-6.9-2.5C274,660,271.5,660.4,269.1,660.4z M260.4,640.9
		c-3.1,0.2-7.8,3.1-9.4,5.8c-3,4.9-3.8,10.1-1.6,15.5c0.5,1.1,1.1,1.6,2.2,1.1c1.1-0.5,2.3-1.2,3.1-2.1
		C259.9,655.5,261.8,648.7,260.4,640.9z M272.8,619.4c0,1.7,0.5,3.3,1.6,4.6c1,1.2,2.3,1.9,4,1.7c2.7-0.4,5.2-2.8,5.7-5.5
		c0.5-2.3-0.6-4.1-3.3-5.8c-4-2.4-7.5-0.7-8.1,4C272.8,618.8,272.8,619.1,272.8,619.4z M267.4,629.8c-3-0.2-5.3,0.2-6.9,2.4
		c-0.9,1.2-0.8,1.7,0.5,3C263.1,633.7,265.5,632.6,267.4,629.8z" style="fill: rgb(247, 193, 180);"></path>
	<path class="st1" d="M145.1,338.4c-2.2,3-4.3,6-6.6,9.1c-5.8-6.1-12.6-10.4-20-13.8c-5.9-2.8-12.1-5.1-18.7-5.7
		c-4.5-0.4-8.9,0.2-13.4,0.7c-1.1,0.1-2.2,0.2-3.5,0.3c0.1-1.3,1-2,1.4-3c1.4-3.5,4-4.6,7.7-5c13.9-1.6,26.9,0.8,39.1,7.4
		C136.2,331.1,140.9,334.4,145.1,338.4z"></path>
	<path class="st1" d="M208.4,788c6.3-0.2,12.3-0.2,18.3-0.5c3.6-0.2,7.3-0.3,10.8-2c0.6,5.3,1.2,10.4,1.9,15.7
		c-1.5,0.9-3.4,1.1-5.2,1.2c-6.6,0.3-13.2,1.5-19.7,2.4c-1.8,0.3-3.6,0-5.5,0C208.1,799.3,208.3,793.8,208.4,788z" style="fill: rgb(68, 54, 212);"></path>
	<path class="st1" d="M433.6,626.9c-3-1-6-2-9.3-3.1c3.9-9.9,5.1-20.5,6.8-30.9c2.4-0.6,10,1.5,13.2,3.5
		C444.3,597.9,434.7,625.1,433.6,626.9z" style="fill: rgb(68, 54, 212);"></path>
	<path class="st1" d="M150.1,330.3c-1.3,2.1-2.3,3.8-3.4,5.6c-8-7.1-16.6-12.6-26.8-15.7c-10.2-3-20.4-3.4-31.3-1
		c1.9-2.9,3.4-5.4,5.1-7.8c0.3-0.5,1.2-0.7,1.9-0.8c2.8-0.6,5.5-0.4,8.3,0.2c5.5,1.2,11.2,2.1,16.6,3.5c3.3,0.9,6.5,2.5,9.7,4.1
		c4.7,2.4,9.2,5.1,13.8,7.7C146,327.4,148,328.8,150.1,330.3z" style="fill: rgb(68, 54, 212);"></path>
	<path class="st1" d="M256.5,226.5c0.3-0.9,0.6-1.8,0.9-2.5c1.6-3.8,0.5-3.8,5.7-3.9c7.2-0.1,14.1,1.6,20.7,4.2
		c9,3.6,16.6,9.1,22.8,16.6c0.9,1.1,1.2,2.1,0.7,3.5c-0.4,1.2-0.7,2.5-1.1,3.7c-0.1,0.2-0.2,0.4-0.3,0.6
		C294.2,230.8,277.2,224.6,256.5,226.5z"></path>
	<path class="st1" d="M152.8,325c-0.5,1-0.8,1.7-1.2,2.4c-0.3-0.2-0.7-0.2-0.9-0.4c-3.9-3.3-8.4-5.5-12.7-8
		c-2.5-1.5-5.2-2.8-7.8-4.3c-6-3.3-12.5-4.8-19.1-5.7c-3.9-0.5-7.8-0.8-11.6-1.2c-1-0.1-2,0.1-3.4,0.2c1.5-2.2,2.8-4.2,4-6.1
		c3.5-0.3,6.8,0,10.1,0.9c4.4,1.3,8.9,1.8,13.1,3.8c5.7,2.7,11.4,5.4,16.9,8.4C144.8,317.6,148.7,321.3,152.8,325z"></path>
	<path class="st1" d="M308.6,237.7c-12.9-14.5-28.5-22.1-48.3-20.2c0.5-1.7,1.3-3.3,2.3-4.9c0.2-0.4,0.9-0.7,1.4-0.7
		c1.7-0.1,3.6-0.5,5.2-0.1c8.5,1.8,16.7,4.5,24.2,8.9c5.5,3.2,10.6,6.8,14.7,11.8C309.3,234,310,235.6,308.6,237.7z" style="fill: rgb(68, 54, 212);"></path>
	<path class="st1" d="M310.6,230.4c-1.6-1.7-2.8-3.1-4.2-4.4c-7.8-7.2-16.9-11.9-27-14.9c-2.5-0.8-5-1.5-7.6-2
		c-2.3-0.4-4.7-0.4-7.2-0.5c0.6-1.1,1.2-2.3,1.8-3.5c6.6,0.5,13,1,19,3.7c6.4,2.8,12.8,5.5,18.6,9.3c2.8,1.8,5.4,3.9,8.3,5.9
		C311.7,226.2,311.2,228.2,310.6,230.4z" style="fill: rgb(255, 255, 255);"></path>
	<path class="st1" d="M312.9,221.1c-2.7-2-5.1-3.8-7.6-5.5c-7.4-4.7-15.2-8.5-23.4-11.4c-2.8-1-5.6-1.3-8.4-1.5
		c-1.8-0.1-3.5-0.2-5.4-0.3c0.4-0.8,0.7-1.4,1-2c0.3-0.7,0.9-1,1.7-1c8,0.4,15.8,1.8,23.2,5.2c2.9,1.3,5.9,2.5,8.8,3.7
		c4,1.6,7.3,4.3,10.5,7.1c0.6,0.5,0.8,1.1,0.6,1.9C313.5,218.5,313.2,219.7,312.9,221.1z" style="fill: rgb(68, 54, 212);"></path>
	<path class="st1" d="M101.6,299.5c1-1.5,1.8-2.6,2.6-3.8c19.5,2.4,36.8,9.3,50.7,24c-0.3,0.9-0.6,1.7-1.1,2.9
		c-4.9-4.5-9.6-8.9-15.3-11.9s-11.4-6.3-17.6-8.1C114.8,300.9,108.6,299.1,101.6,299.5z" style="fill: rgb(68, 54, 212);"></path>
	<path class="st1" d="M265.6,622.7c-5.4,0.8-10.2,2.7-14.2,6.9c0-3.1,0-5.7,0-8.4c2.9-1.6,5.7-3.1,8.5-4.6
		C261.9,618.4,264.7,619.5,265.6,622.7z"></path>
	<path class="st1" d="M168.6,576.9c0.9,2.3,1.7,4.2,2.5,6.1c-2.6,3-5.4,6-7.9,9.3c-2.4,3.2-4.5,6.6-6.9,9.9
		C158.6,593.1,162.8,584.8,168.6,576.9z" style="fill: rgb(68, 54, 212);"></path>
	<path class="st1" d="M285.9,634.1c-0.8,1.3,0.2,3.6-2.3,4c-0.5-2.9-1.2-3.7-3-3.6c-2.3,0-2.7,0.6-3.4,4.6c-2.5,0.1-4.8-0.5-7-2.1
		c0.9-1.4,2.2-2.2,3.6-2.7c2.5-0.7,5.1-1.3,7.7-1.7C283,632.4,284.6,632.8,285.9,634.1z"></path>
	<path class="st1" d="M238.9,645.5c0.2-2.4,0.3-4.6,0.8-6.7c0.2-1.1,1.4-1.7,2.6-1.8c1.2-0.1,2,0.5,2.6,1.4c1.4,2.3-0.1,6.2-2.7,6.8
		C241.2,645.4,240.2,645.4,238.9,645.5z" style="fill: rgb(246, 81, 86);"></path>
	<path class="st1" d="M259.1,643.8c0,1.5,0,3,0,4.5c-1.7,0.4-3.8-0.3-4.5,2c-0.6,2.2-0.2,4.1,1.6,5.5c-1.4,3-2.8,4.2-5.4,5.1
		C247.6,655.1,251.9,646.1,259.1,643.8z"></path>
	<path class="st1" d="M276.2,615.5c2.3,0.3,4.1,1,5.4,2.4c0.5,0.5,0.6,1.4,0.6,2.1c0,0.6-0.5,1.2-0.8,1.7c-1.7,2.2-3.8,2.8-5.5,1.6
		c-1.8-1.3-2.4-5.1-1-6.9C275.3,615.9,275.9,615.7,276.2,615.5z" style="fill: rgb(246, 81, 86);"></path>
</g></svg>