<svg version="1.1" id="Calque_1" xmlns="http://www.w3.org/2000/svg" xmlns:xlink="http://www.w3.org/1999/xlink" x="0px" y="0px" viewBox="0 0 721.8 947.9" style="enable-background:new 0 0 721.8 947.9;" xml:space="preserve">
<style type="text/css">
	.st0{fill:#F8F7F7;}
	.st1{fill:#FFFFFF;}
</style>


<path d="M653,439.7c0,3.2,0,6.2,0,9c-0.1,7-0.3,14.1-0.2,21.1c0,9.3,0,18.6,0.5,28c0.4,8.1,1.4,16.3,2.2,24.4
	c0.8,7.9,1.7,16,2.6,23.9c1.6,12.9,3.1,25.7,5,38.6c2.1,15.2,4.6,30.4,6.6,45.6c1.3,9.7,2.2,19.6,3.2,29.4c0.6,6.1,1,12.1,1.5,18.1
	c0.4,6,0.9,11.8,1.4,17.6c0.4,6.1,0.7,12.1,1.1,18.2c0.5,7.5,0.9,15,1.6,22.5c0.1,1.7,0.5,3.1-0.2,4.9c-0.3,0.7,0.1,1.8,0.3,2.6
	c0.7,3.4,1.7,6.9,2.3,10.3c1.5,7.9,1.1,15.8-0.2,23.7c-1.3,7-2.8,14-6,20.4c-2.3,5-5.1,9.7-9.3,13.5c-3.4,3-7.6,5.1-12.3,5.6
	c-6.7,0.8-12.5-4.2-13.4-10.7c-0.4-3.4,0-6.9,1-10.2c1.6-5,6.8-8.7,12.4-8.9c0.8,0,1.7,0,2.6,0c-0.1-1.8-1.3-2.8-2.3-4
	c-2-2-4.2-4-6.1-6.2c-5.7-6.5-8.9-13.9-8.9-22.6c0-2.2,0-4.6,0-7.2c-12.8,1.3-25.5,2.4-38.5,3.7c0.6,3.6,1,7.1,1.7,10.3
	c1.1,6.8,2.1,13.7,2.4,20.6c0.2,4.4,0.3,8.8,0.5,13.2c0.2,7.6,1.1,15.1,3.8,22.3c0.6,1.8,1.3,3.4,2.2,5.1c2.3,4.5,4.8,8.8,7.2,13.2
	c4.6,7.9,7,16.6,9.6,25.3c0.9,3.1,1.9,6.6,3.4,9.5c3.8,7.4,9.8,12.4,17.4,15.5c4.4,1.7,8.8,3,13.2,4.8c4.6,1.7,8.9,3.8,12.8,6.7
	c2.4,1.9,4.3,4.2,4.6,7.3c0,0.4,0.2,0.8,0.3,1.1c1.5,2.4,0.9,4.9-1.3,6.5c-2.9,2.1-6.3,3-9.7,3c-8.7,0.2-17.4,0.3-26.1,0.5
	c-5,0.1-9.9,0.4-14.9,0.2c-4-0.1-7.9-0.6-11.9-1.3c-4.6-0.7-8.1-3.1-11-6.7c-3-3.8-6.3-7.6-9.3-11.3c-1.5-1.8-3-3.6-4.8-5.3
	c-2.4-2.5-5.1-4.8-8.6-5.6c-6.7-1.6-12.5-5.1-18.2-8.7c-3-2-6.1-4.1-8.5-6.8c-2.7-3.2-5-6.9-6.6-10.8c-1.8-4.4-1.7-8.7-0.4-13.2
	c1.3-4.4,2.8-8.6,5.5-12.2c6.1-8.4,8.5-17.6,8.4-27.9c-0.1-16.2-3.3-31.8-8.9-47c-0.1-0.2-0.2-0.4-0.4-0.8c-0.6,0.1-1.3,0.1-1.9,0.2
	c-9.5,1.5-18.9,3.3-28.6,4.4c-7.1,0.7-14.2,2-21.3,3.1c-9.8,1.6-19.7,3.4-29.4,5c-6.3,0.9-12.6,1.5-18.8,2.2
	c-0.7,0.1-1.5,0.2-2.4,0.3c-0.6,3.2-1.4,6.5-1.7,9.7c-0.5,3.8-0.8,7.7-0.9,11.5c-0.1,2.3,0.3,4.7,0.4,7.1c0.3,8.4,2.3,16.3,5.6,24
	c1.8,4.2,3.6,8.2,5.5,12.3c4.5,9.5,6.8,19.6,8.2,30c0.7,5,1.6,9.9,2.6,14.9c1.8,8,6.4,14.5,11.8,20.5c3.1,3.4,7.3,6.1,10.8,9.1
	c2.4,2.1,5.1,4.2,7.7,6.2c2.5,1.9,4,4.7,5,7.5c1.1,3.1-1.3,7.2-4.6,8.1c-4,1.1-7.8,1.4-11.8,0.9c-1-0.1-2.2,0.1-3.2,0.1
	c-7.7,0.1-15.6,0.3-23.3-1.3c-6-1.3-11.7-3.4-16.9-6.6c-4.7-2.6-8-6.6-10.2-11.5c-2.5-6-5.7-11.5-9.1-17c-4-6.4-9.3-11.2-16-14.4
	c-10.2-4.9-16.4-13.1-19.1-23.8c-0.9-4-0.5-7.7,0.8-11.4c1.3-3.3,2.7-6.8,4.4-9.9c4.8-9.8,7.7-20.4,10.5-30.9
	c2.4-9.3,4.2-18.7,5.4-28.5c-0.4-0.1-0.8-0.3-1.1-0.2c-7.4,2.8-15.4,3.2-23.1,4.7c-12.3,2.1-24.5,3.1-37,4.5
	c-5.8,0.6-11.8,0.9-17.6,1.5c-0.3,0-0.6,0.1-0.9,0.2c-2.4,8.5-2.4,16.8-0.1,25.3c2.4,9,4.4,18,5.7,27.3c1.5,10.1-1,18.9-8.7,26
	c-1.7,1.6-3.7,3-6,3.8c-11.1,3.7-21.7,2.7-31.2-4.5c-6.2-4.6-8.2-11.2-7.7-18.6c0.5-6.8,7.7-13.1,14.8-13.4c4-0.2,5.2,0.1,9.5,1.8
	c-0.7-1-1.1-1.9-1.8-2.4c-2.2-2.1-4.4-4.4-6.8-6.2c-6.9-5.4-10.8-12.4-12.4-20.9c-1-5.7-1.5-11.4,0.6-16.9c0.7-1.9,1.6-3.7,2.5-5.8
	c-1.1-0.1-2.2-0.1-3.2-0.2c-10.4-1.1-21-2.1-31.4-3.6c-8.1-1.1-16.3-2.9-24.4-4.6c-12-2.3-23.9-4.7-35.8-7.2
	c-13.1-2.6-25.8-6.1-38.6-9.4c-10-2.7-20.3-4.9-30.4-7.3c-0.5-0.1-1.1-0.2-1.9-0.3c0,0.6,0,1.1,0.1,1.8c1.9,10.9-0.8,21-6.3,30.4
	c-3.3,5.8-7.1,11.5-10.5,17.2c-1.1,1.9-2,3.8-3.1,6.2c0.8,0.1,1.4,0.2,1.8,0.2c8.6-0.2,15.8,5.4,17.1,14.4
	c0.8,5.6-0.7,10.5-3.2,15.2c-4,7.1-9.6,12-17.9,13.4c-2.1,0.3-4.5,0.3-6.6-0.2c-5.4-1.5-10.5-3.6-14.3-8.1c-2.4-3-4-6.7-5.3-10.3
	c-2.4-6.3-3.3-12.8-4.3-19.5c-1.3-10.7,1.3-20.7,5.4-30.3c2.8-6.7,6-13.3,9.1-19.8c2.5-5.2,3.8-10.5,4.5-16.3c0.4-3-0.1-6.1-1-9
	c-0.1-0.3-0.2-0.6-0.2-0.9c-0.4-4.3-0.8-8.4-0.5-12.6c0.4-6.8,1.3-13.5,2.3-20.2c0.6-4.5,1.1-9,1.6-13.6c0.6-7.3,0.9-14.6,1.6-22
	c0.8-8.6,1.6-17.1,1.3-25.8c-0.1-4.9-0.5-9.7-0.8-14.7c-0.4-6.7-0.7-13.4-1.5-19.9c-0.9-7.2-2.3-14.3-3.7-21.5
	c-2.4-12.4-5-24.6-8.4-36.9c-4.2-14.4-8.8-28.6-13.8-42.7c-4.9-14-9.4-28.1-12.6-42.5c-2.1-9.5-3.7-19-5.4-28.6
	c-1.9-10.7-3.8-21.4-5.4-32.2c-1.6-10.8-3-21.5-4.4-32.4c-0.7-6.8-1.3-13.7-1.6-20.5c-0.5-10-0.7-20.2-1-30.2
	c-0.3-9.9-0.6-19.9-0.7-30c-0.1-6.6,0.1-13.1,0.3-19.6c0.2-5.8,0.5-11.7,1.1-17.4c0.7-8.2,1.7-16.4,2.7-24.6s2.2-16.5,3.7-24.7
	c3.8-21.4,10-42,18.6-61.9c7.4-17.2,16-33.9,26.6-49.5c6.7-9.7,14.1-19,22.2-27.7c8.1-8.5,16.8-16.4,26.1-23.7
	c9.8-7.8,20.8-14,32.3-18.9c14.8-6.4,29.9-11.9,45.6-15c7.1-1.5,14.3-2.3,21.6-2.5c4.5-0.1,9-0.5,13.5-0.4c7.9,0.2,15.9,0.5,23.8,1
	c6.4,0.4,12.8,0.8,19.1,1.7c14.8,2.1,29.7,4,44,9c3.7,1.3,7.4,2.5,10.9,4.3c7.2,3.3,14.4,6.8,21.4,10.7c18.5,10.2,32.9,25,44,43
	c5.1,8.4,10,16.8,14.5,25.6c6.7,13.3,12,27.3,16.3,41.4c3.8,12.5,7,25.2,9.3,38.1c1.1,6.5,2.2,13.1,2.2,19.6c0,0.2,0.1,0.5,0.1,0.8
	c1.8-0.2,3.6-0.5,5.4-0.5c5-0.2,8.6,2,11.2,6.2c2.1,3.2,3.1,7,4.1,10.5c1,4.5,1.8,8.9,2.5,13.5c0.9,6.2,1.9,12.3,2.7,18.5
	c0.7,5.7,1.3,11.4,2,17c0.5,4.3,1.1,8.4,1.7,12.5c0.9,7.3,1.9,14.5,2.7,21.8c0.3,3.3,0.3,6.7,0.5,10c0,0.4,0.2,0.9,0.4,1.4
	c1.1,1.8,2.3,3.4,3.3,5.3c0.5,1,1.3,1,2.2,1c6.6-0.1,13.2-0.2,19.8-0.2c2.1,0,3.7,1.1,5.7,2.1c3.2-2,6.7-4.3,10.2-6.3
	c3-1.7,6.4-3.2,9.5-4.9c0.6-0.3,1.3-0.5,1.9-0.7c2.5-0.7,4,0.3,4.2,2.8c0.2,3.2-0.3,6.4-1,9.5c-0.1,0.4-0.2,0.7-0.3,1.3
	c1.3,0,2.2,0,3.2,0c7,0.1,14.1,0,21.1,0.4c9.7,0.6,19.4,1.6,29,2.6c6.8,0.7,13.6,1.9,20.4,3c11.1,1.9,22.2,3.6,33.1,6.2
	c15.2,3.4,29.7,9.3,43,17.5c10.3,6.4,17.9,15,22.8,26.2c3.7,8.6,3.8,17.4,1.5,26.3c-3.3,12.9-11,22.9-22.2,30.1
	c-5.2,3.2-10.7,5.8-16.6,7.4C671.8,445.7,662.5,445.1,653,439.7z M248.4,472.2c-1.5-0.1-3-0.2-4.7-0.3c-6.9-0.3-13.9-0.4-20.8-1
	c-9.6-0.8-19.2-2-28.9-3.2c-14.8-1.9-28.8-6.7-42.7-11.9c-2.4-0.8-4.6-2.4-6.8-3.8c-1.3-0.7-1.9-1.8-1.8-3.3c0.1-1.4,0.1-2.8,0-4.3
	c0-1.8-0.3-3.4-0.3-5.3c0.1-4.1,0.3-8.1,0.5-12.2c0.1-2.4,0.2-4.9,0.6-7.3c2-13.4,6.2-26.1,11.5-38.5c7.3-16.8,15.5-33.2,22.2-50.3
	c7.2-18.4,14.9-36.7,22.2-54.9c4.5-11.1,8.6-22.2,14.1-32.8c5.4-10.3,11.2-20.7,16.7-31c1.1-2.1,2.6-3,4.9-2.5
	c2.8,0.7,4.9-0.3,6.8-2.3c0.5-0.5,1-1,1.6-1.6c3.1-3,6.3-6.2,9.4-9.2c4.8-4.5,9.6-8.8,14.2-13.5c5.7-5.8,11.3-11.7,16.7-17.6
	c9-9.9,17.9-20,26.6-30.2c10.1-11.7,19.9-23.7,31.4-34c5.2-4.6,10.7-8.6,16.9-11.3c5.4-2.4,11.1-3.2,16.8-1.6c5.4,1.6,11,2.8,15,7.1
	c0.5-0.2,0.7-0.3,1-0.4c3.7-1.7,7.4-1.9,11.2-0.1c8.7,4.1,14.3,10.5,17.5,19.4c3.1,8.7,5.5,17.5,7.1,26.6c1.6,9,2.5,18,4.2,26.9
	c1.5,8.4,2.6,16.8,5.2,25c1,3.3,2.4,6.7,3.7,9.9c0.6,1.6,1.1,3.1,1.8,4.8c4.4-1.6,8.4-3,12.4-4.6c-0.2-1.3-0.4-2.3-0.6-3.3
	c-1.7-11.8-4.3-23.3-7.2-34.8c-3.1-12.2-6.8-24.2-11.1-36c-6.7-18.1-15.5-35.1-25.9-51.3c-6-9.1-12.8-17.4-21-24.6
	c-8.1-7.2-17.1-13.2-26.9-17.8c-4.1-1.9-7.8-4-11.9-5.8c-2.9-1.4-5.8-2.6-8.9-3.8c-15.5-5.8-31.7-7.8-48-10.1
	c-6.8-0.9-13.7-1.3-20.5-1.8c-5.5-0.4-11.1-0.9-16.7-0.9c-6.7-0.1-13.4,0.2-20,0.4c-6.7,0.2-13.3,1.3-19.8,2.5
	c-9.8,2-19.4,5.3-28.9,8.7c-13.7,4.9-26.7,10.9-38.8,19c-12.5,8.6-23.6,18.6-34,29.6c-7.4,7.7-14,16.1-20,24.9
	c-9.8,13.9-17.9,29-24.9,44.7c-11.7,25.9-19.4,52.9-23,81.2c-0.9,7.2-1.7,14.4-2.6,21.6c-1.5,12.2-2.4,24.3-2.4,36.7
	c0,11,0.3,22,0.5,33c0.1,6.9,0.2,13.9,0.5,20.8c0.2,7.2,0.5,14.3,1,21.5c0.4,6,0.8,12,1.6,17.9c1.4,10.7,2.8,21.4,4.5,32.1
	c1.6,10.5,3.4,21.2,5.3,31.6c1.7,9.4,3.1,18.8,5.3,28.1c3.6,15.4,8.5,30.4,13.9,45.3c5.5,15.1,10.5,30.5,14.5,46.2
	c2.9,12,5.3,24,7.9,36.1c2.4,10.9,3.4,22,4.1,33.1c0.2,4.3,0.3,8.5,0.7,12.6c0.7,7.7,0.2,15.4-0.3,23.1c-0.6,9.5-1.5,18.9-2.3,28.5
	c-0.5,5.5-1,10.9-1.9,16.3c-1,7-2.1,14-2.1,21.2c0,4.2,0,8.2,0,12.4c1,0.3,1.8,0.6,2.6,0.9c5.5,2.2,11.4,3.1,17.1,4.6
	c14.2,3.2,28.4,6.5,42.5,10.1c13.3,3.4,26.4,7.2,39.8,9.9c10.7,2.2,21.4,4.4,32.1,6.5c9.9,1.9,19.9,4.1,29.9,5.6
	c6.7,1,13.5,1.7,20.2,2.3c5.1,0.5,10,0.9,15.1,1.4c5.3,0.4,10.3,1.1,15.1,3.6c0.2,0.1,0.5,0.1,0.8,0.1c-0.2-4.3-0.5-8.4-0.5-12.5
	c0.1-14.8,0.3-29.7,0.5-44.4c0.1-6,0.3-11.9,0.5-17.8c0.3-8.8,0.6-17.5,1-26.3c0.2-4.3,0.3-8.5,0.6-12.6c0.4-7.6,0.9-15.1,1.5-22.8
	c0.2-2.4,0.3-4.9,0.4-7.3c0.1-3.3,0.2-6.8,0.3-10.1c-0.3,0.1-0.5,0.1-0.5,0.2c-3.6,5.5-6.6,11.2-7.8,17.8
	c-1.2,6.6-1.5,13.2-1.1,19.9c0.4,8.2,1.1,16.5,2.2,24.6c0.2,1.8,0.3,3.7,0.2,5.5c-0.2,4.1-2.3,7.2-4.7,10.1
	c-2.9,3.8-7.6,5.2-12.3,3.8c-5.6-1.6-9-5.5-11.2-10.5c-5.1-11.9-6.2-24.1-3.8-36.8c2-11.1,5.5-21.8,9.5-32.3
	c2.6-7,5.8-13.7,10.1-19.9c3.4-5,7.3-9.7,10.9-14.6c0.6-0.8,1.4-1.8,1.6-2.7c0.7-4.5,1.1-8.9,1.8-13.4c0.9-6.6,1.9-13.2,2.8-19.8
	c1-7.3,2.2-14.7,3.1-22c0.6-4.7,1.3-9.3,1.8-14.1c0.6-6.7,1.3-13.5,1.6-20.3c0.2-4-0.3-7.9-0.2-11.9c0-5.3-1.5-10.1-4.3-14.7
	c-2.2-3.8-5.2-6.9-10.1-6.9c-0.5,0-1-0.1-1.5-0.2c-5.8-0.7-11.8-1.9-17.5-2.1c-9.4-0.4-18.9-0.2-28.5-0.2c-1,0-2.1,0.4-3,0.9
	c-3.1,1.9-5.5,4.8-7.2,7.9c-3.4,6.6-6.1,13.7-7.6,20.9c-1,4.7-1.4,9.3-0.3,14.1c2,9,7.3,15.6,15.2,20.3c8.9,5.2,20.4,2.6,26.4-3.4
	c4.1-4.1,7-8.7,9.4-13.8c2.4-5.3,3.4-10.7,2.5-16.5c-1.4-7.6-5.8-12.8-13.1-15.5c-2.9-1-5.8-0.5-8.5,1.3c-4.4,2.9-6.7,10.1-5,15.1
	c0.2,0.6,0.5,1.3,0.8,1.8c1,1.7,2.5,2.4,4.8,1.8c-0.2-0.8-0.5-1.6-0.6-2.4c-0.2-0.9-0.4-2-0.3-2.9c0.2-1.7,0.9-3.2,2.5-3.8
	c2.3-0.6,4.7-0.6,6.7,1.3c1.8,1.7,2,3.7,1.6,5.8c-0.8,4.2-5.2,7.9-9.4,8.5c-4,0.5-7.1-0.7-9.2-4.1c-2.2-3.4-3.1-7.4-2.7-11.7
	c0.4-4.1,2.1-7.6,4.4-11c4.5-6.8,11.3-8,17.8-5.5c6.6,2.5,11.1,7.3,13.7,13.9c2.4,6.4,2.6,12.8,0.8,19.4c-1.9,7.2-6,13.3-10.4,18.9
	c-4.4,5.5-9.8,9.2-16.9,10.1c-0.9,0.1-1.9,0.7-2.7,1.1c-2.7,1.7-5.6,2.6-8.9,2.4c-3.1-0.2-6.3-0.4-9.3-0.8
	c-10.5-1.5-21-3.6-31.3-6.3c-14-3.4-28.2-6.4-42.5-8.7c-6-0.9-11.8-2.3-17.8-3c-5.6-0.7-11.3-0.8-16.9-1.1
	c-3.3-0.2-6.8-0.2-10.1-0.2c-2.5,0-5.1,0.3-7.6,0.4c-0.4,0-0.8-0.1-1.3-0.2c0-0.2-0.1-0.3-0.1-0.5c0.8-0.4,1.7-0.9,2.5-1.3
	c5.8-2.4,12-3.4,18.2-4.1c4-0.3,7.9-0.5,11.9-0.3c7.1,0.2,14.1,1.9,21,3.3c10.4,2.1,21.1,4.1,31.5,6.5c11.7,2.6,23.3,5.7,35,8.6
	c4.5,1,8.9,1.9,13.4,2.8c-0.9-0.9-2.1-1.5-3-2.2c-2.6-2-5.4-3.8-7.6-6.2c-7.6-8.1-10.2-17.9-8.8-28.8c1.3-8.6,4.3-16.7,8.4-24.3
	C244,477.9,246.3,475.2,248.4,472.2z M315.3,436.6c-2.7-4.2-5.3-7.7-7.6-11.4c-2.4-3.7-4.8-7.6-6.1-12c-2.4-8.7-4.2-17.5-2.8-26.7
	c0.7-5.2,1.6-10.3,3.4-15.2c4.3-11.2,11.4-20.5,19.9-28.7c7.1-6.9,15.5-12.1,24.2-16.5c12.6-6.4,25.8-8.9,39.8-7.9
	c10.7,0.7,20.8,3.7,30.2,8.8c2.1,1.1,4.4,2.3,6.5,3.4c0.5,0.2,1.1,0.4,1.7,0.3c2.4-0.7,5-1.7,7.2-2.4c1.6-18.2,3.1-36.2,4.8-54.2
	c1.7,0.1,1.9,1.3,2.1,2.3c0.3,1.5,0.4,2.9,0.5,4.6c0.2,7.5-0.2,15-0.8,22.6c-0.4,5.2-0.9,10.3-1.5,15.6c-0.3,2.5-0.9,5.1-1.5,7.9
	c1-0.3,1.8-0.6,2.5-0.7c3.2-0.7,6.6-1.5,9.8-2.2c0.9-0.2,2-0.2,2.9-0.5c1.9-0.6,3.8-0.4,5.4,0.6c3.2,2.2,6.6,4.6,9.6,7.1
	c1.7,1.4,2.8,3.3,4.4,5.1c0.1-0.4,0.2-0.7,0.2-1c0.3-6.6,0.6-13.2,1-19.7c0.3-4.2,0.9-8.2,1.7-12.3c0.5-2.6,1.5-2.9,4.1-2.1
	c2.8,0.9,5.1,2.6,7.1,4.8c0.8,0.8,1.7,1.7,2.9,2.8c-0.1-1-0.1-1.5-0.1-1.9c-0.6-4.5-1.4-8.8-2-13.3c-1.5-10.9-2.8-21.9-4.3-32.8
	c-0.5-4-0.8-7.9-1.3-11.9c-0.8-6.8-1.9-13.6-2.7-20.4c-0.7-5.7-2.1-11.3-4.4-16.6c-2.2-5.5-6.1-7.9-12.4-6.4c-3.3,0.8-6.7,1.8-9.9,3
	c-11.2,4.6-22.3,9.3-33.5,13.9c-9.8,4.1-20,7.4-30.3,10.2c-0.9,0.2-2.1,0.6-2.5,1.3c-1.5,2.3-3.6,4.1-5.6,5.8
	c-4.5,4.1-9.5,6.9-14.9,9.5c-1.4,0.6-2.8,1.1-4.4,1.3c-3.6,0.3-7.2,0.6-10.9,0.5c-5.1-0.1-10.1-0.2-15-2.1c-5.3-2-10.4-4.3-15.7-6.6
	c-3.2-1.5-5.8-4-7.8-7c-2.7-4.3-5.7-8.4-7.1-13.1c-7.3-1.1-14.4-2.1-21.5-3.2c-6.2-1-12.3-2.3-18.4-3.2c-5.3-0.8-10.7-1.6-16.1-2.2
	c-4.3-0.5-8.6-0.8-12.9-1.3c-0.4,0.7-0.8,1.4-1.1,2c-3.3,6.4-6.6,12.8-10,19c-5.5,9.9-10.1,20.3-14.3,30.8
	c-3.6,9.3-6.9,18.7-10.5,28c-5.4,13.7-11,27.4-16.6,40.8c-3.1,7.8-6.6,15.6-9.8,23.3c-5,11.3-10,22.6-14.8,33.8
	c-4.2,9.9-7,20.4-8,31c-0.6,6.7-0.7,13.5-1,20.3c-0.1,2.6,0.5,5.4-0.9,7.8c2,1.7,2.9,2.2,6.6,3.2c5.7,1.6,11.3,3.3,17,4.9
	c6.4,1.6,12.8,3.1,19.2,4.4c5.8,1,11.8,1.5,17.5,2.3c10.5,1.5,21.4,2.2,32.1,2.5c13.1,0.3,26,0.2,39.1,0.3c3.2,0,6.6,0.1,9.8,0.6
	c7.7,1.1,15.6,2.4,23.3,3.7c1.7,0.3,3.3,0.5,5.5,0.7c-1.9-10.4-1-20.8-1-30.7c-2.5-0.7-4.8-1.3-6.9-2.1
	c-16.3-6.4-32.6-12.6-48.1-20.8c-10-5.3-20.7-9.8-31.4-13.5c-0.8-0.3-1.9-0.5-2.9-0.7c-0.2,8.1-4.1,14.7-7.6,21.4
	c-0.2-0.7-0.3-1.6-0.2-2.3c1.3-5.6,2.5-11.2,3.8-16.8c0.1-0.5,0.1-1.1,0.2-2.3c-4.2,3.2-7.6,6.4-10.9,9.8c1-1.9,2.2-3.6,3.4-5.3
	c1.4-1.6,2.8-3,4.6-5c-7.7,0-14.1,3.7-21,5.3c-0.9-1.6-0.7-2.8,0.4-3.8c1.3-1,2.6-2.1,4.2-2.8c4.5-2.2,9.1-3.4,14.1-4.1
	c1.8-0.2,3.7-0.3,5.5-0.4c0.1-1.3,0.1-2.4,0.4-3.4c1.4-5.3,2.6-10.7,4.3-15.9c2.3-8,5.7-15.7,9.1-23.4c5.6-12.9,11.4-25.8,14.8-39.6
	c1.3-5.2,1.9-10.4,2.6-15.7c0.7-5,1.3-10,1.3-15.1c0-2.6,0.5-5.2,0.9-7.7c0.1-0.8,0.6-1.6,1.3-2.8c1,3.4,1.7,6.6,1.8,9.7
	c0.1,6.2-0.8,12.3-1.7,18.4c-0.4,2.8-0.5,5.7-1.1,8.5c-2.5,11.4-6.1,22.5-10.8,33.2c-3.6,8.1-7.2,16.2-10.2,24.5
	c-3.2,8.8-6,17.8-8.8,26.6c-0.3,1-0.4,2.1-0.6,3.1c1.9,0.6,3.7,1.1,5.5,1.7c12.7,4.5,24.7,10.2,36.9,16.3c4.3,2.1,8.4,4.5,12.7,6.3
	c9.6,4.1,19.2,7.8,29,11.7C311.1,435.3,313,435.9,315.3,436.6z M588.4,552.8c0,1.1,0,1.9,0,2.6c-0.1,7.3-0.2,14.7-0.3,22
	c-0.2,9-0.3,18.1-0.5,27.1c-0.1,4.4-0.2,8.7-0.2,12.9c0.1,19.8-0.6,39.6,1.5,59.3c0.8,7.8,1.7,15.8,2.8,23.6c1.8,12.2,4,24.3,6,36.4
	c0.6,3.7,1.3,7.4,2,11.2c0.6-0.1,1,0,1.5-0.1c12.9-2.7,26-4.4,39.1-6.1c7.2-0.9,14.4-1.6,21.6-2.5c3.8-0.5,7.6-1.4,11.4-2
	c0-0.6,0.1-0.9,0.1-1.3c-0.3-3.4-0.6-7.1-1-10.5c-0.4-4.8-1-9.5-1.4-14.4c-0.6-7.4-0.9-14.8-1.6-22.2c-0.6-8.4-1.3-16.6-2-25
	c-0.9-9.8-1.9-19.8-3.2-29.7c-1.8-13.7-4-27.3-6.1-40.7c-2.9-18.3-4.9-36.8-7-55.1c-0.6-5.1-1-10.2-1.6-15.4
	c-0.8-8.2-1.8-16.4-2.3-24.6c-0.4-8.8-0.5-17.5-0.5-26.3c0-6.9,0.1-13.9,0.3-20.9c0.1-5.3,0.3-10.4,0.7-15.7
	c0.6-8,1.6-16.1,2.3-24.1c0.8-10.2,4.5-19.4,10.4-27.7c1.6-2.1,3.3-4.1,5.7-5.3c7.5-4.3,15.1-4.1,22.9-0.3c6.1,2.8,8.8,7.7,8.9,14.2
	c0.1,6.5-2.5,12-6.9,16.6c-2.2,2.3-5,3.8-8.1,4.5c-5.8,1-9.7-1.8-11.3-7.2c-0.8-2.6,0.1-5.4,2.1-6.6c1.9-1,4-1.8,6.1-1.5
	c3.3,0.5,5,2.3,4.2,5.6c-0.1,0.5-0.1,1-0.2,1.9c4.6-2.9,7.4-6.7,8-11.9c0.5-4.4-1.3-7.4-5.2-9.1c-1.8-0.8-3.8-1.4-5.8-1.8
	c-6.4-1.4-11.5,0.6-15.6,5.5c-6.1,7.3-9,15.8-9.6,25.1c-0.3,4.8-0.8,9.5-1.3,14.3c-0.1,1.4-0.4,2.9,0.1,4.3c0.9,2.3,2.5,4.3,5,5.1
	c3.4,1.3,7.2,2,10.9,2.1c6.6,0.2,12.7-1.7,18.6-4.2c12.4-5.2,21.5-13.9,26.2-26.6c3-8.1,3.7-16.6,0.7-24.7
	c-3.3-9.4-9-17.4-17.1-23.4c-15.1-11-32.3-17.6-50.5-21.5c-12.1-2.5-24.2-4.7-36.4-6.6c-10.8-1.7-21.8-2.9-32.7-4.3
	c-7.6-0.8-15.4-1.5-23-2c-3.4-0.2-7.1,0-10.8,0c-0.1,0.2-0.4,0.5-0.5,0.9c-1.3,3.8-3.2,7.2-5.8,10.3c-1.7,2.1-2.4,4.7-2.7,7.2
	c-0.2,1.8-0.1,3.4-0.2,5.3c-0.1,1.9,0.1,4-0.2,5.8c-1,7.7-4.6,14.4-9.2,20.6c-2.2,2.9-5.1,5.2-8.6,6.6c-1.4,0.5-2.7,1.3-4.1,2.1
	c-0.5,0.3-1,1-1.3,1.7c-1.3,3.6-2.5,7.3-4,11.1c0,0,0.2,0.2,0.4,0.3c4.1,2.4,8.1,4.9,12.2,7.2c0.4,0.2,0.9,0.4,1.4,0.3
	c2.9-0.7,6.1-0.4,9.1-0.3c6.8,0,12.9,2.1,18.9,5c7.5,3.4,12.8,9.7,17.5,16.1c6.3,8.4,9.8,18,11.4,28.4c1,7.1,2.4,14.1,3.8,21.3
	c2.6,0.6,5.1,1.3,7.7,1.8c3.2,0.6,6.6,0.9,9.7,1.8c4,1,7.7,2.5,11.5,4c0.7,0.2,1.4,0.5,2.1,0.9c2.1,1,2.5,2.8,0.7,4.4
	c-0.7,0.6-0.8,1.3-1,2c-0.7,2.7-0.2,5.6,0.3,8.2c1.1,7.1,0.8,14.2,1.1,21.2c0.3,6.1,0.1,12,0.2,18c0,1.8,0.5,3.6,0.2,5.3
	c-0.3,2.1-0.4,4.6-3,5.3c-7,1.9-14,3.6-21.2,3.6C590.9,552.6,589.9,552.8,588.4,552.8z M524.3,434.6c-0.5,0.3-1,0.5-1.6,0.8
	c-6.3,3.8-13.2,5.6-20.4,6.5c-8.5,0.9-16.9,0.8-25.3,0.8c-8.9,0.1-17.8-0.3-26.6-0.6c-1.7,0-3,0.4-4.5,1.5
	c-8.5,6.6-17.6,11.5-28,14.6c-12.5,3.8-25.2,7.2-38.1,9.5c-0.5,0.1-0.9,0.3-1.7,0.6c10.4,14.9,14.7,31.5,14.7,49.6
	c1.5-0.5,2.7-0.9,4.1-1.4c16.5-6.3,32.3-14.3,47.6-23.1c3.3-1.9,6.6-4.3,9.3-7c4-3.7,7.3-8,10.9-12c1.9-2.1,4.1-4.2,6.1-6.2
	c0.7-0.7,1.7-1.5,3.1-0.5c-0.5,0.8-0.9,1.7-1.6,2.4c-7.8,9.7-15.7,19.5-23.4,29.3c-10.4,13.3-19.1,27.5-26.1,42.8
	c-4.1,8.8-7,17.9-8.7,27.5c-2.1,11.8-3,23.6-3.3,35.5c-0.1,3.3-0.2,6.8-0.3,10.1c-0.1,2.1-0.2,4.3-0.3,6.5
	c6.6,2.4,12.8,5.3,19.5,6.9c9.4,2.2,18.8,4,28.6,4.3c4,0.1,7.7,0.3,11.7,0.4c6.4,0.1,12.6,0,18.9,0c0.3-0.8,0.5-1.4,0.7-1.9
	c3.2-9.4,6.5-18.8,9.8-28.2c7.3-19.9,14.4-39.9,20.7-60.1c6.1-19.1,11.5-38.5,16.5-58.1c0.3-1.1,0.3-2.3-0.1-3.3
	c-1.4-4.2-2.7-8.1-4-12.3c-2.4-9.5-4.3-19-5.6-28.8C526.7,438.5,526.1,436.4,524.3,434.6z M313.9,789.6c2.2-0.3,4.1-0.6,5.8-0.8
	c9.4-1,18.8-1.9,28.2-3c16.7-2.2,33.3-4.6,49.9-6.9c4.5-0.6,8.8-1.9,13.4-1.5c0.4,0,0.9-0.3,1.5-0.4c0.2-3.2,0.5-6.5,0.6-9.6
	c0.2-4.6,0.2-9.1,0.3-13.7c0.1-4.6,0.2-9.1-0.1-13.7c-0.3-6.1-0.8-12.1-1.3-18.2c-0.2-3.6-0.4-7.2-0.8-10.8
	c-0.7-6.8-1.5-13.6-2.2-20.4c-0.4-4.1-0.5-8-0.7-12.2c-0.4-6-0.9-12-1.3-17.9c-0.3-5.8-0.5-11.7-0.7-17.4
	c-0.3-7.7-0.8-15.6-0.7-23.3c0-9.3,0.4-18.6,0.8-27.9c0.1-3.2,0.5-6.6,0.9-9.8c0.3-3,0.7-6.2,1.1-9.4c-3.7,0.2-7.3,0.4-10.8,0.6
	c-4.5,0.3-9,0.4-13.5,0.8c-3.4,0.3-6.9,0.4-10.3-0.2c-0.3,0.4-0.6,0.7-0.9,1.1c-6.8,9-14.8,16.9-23.5,24c-4.1,3.2-8.1,6.3-12.2,9.5
	c-6.3,5-12.5,10-17.9,16.1c-2.1,2.4-3.4,4.8-3,8.1c0.3,2.2,0.1,4.5,0,6.6c-0.1,8.6-0.2,17-0.5,25.6c-0.2,5.6-0.5,11.3-0.8,16.9
	c-0.2,4.8-0.4,9.4-0.5,14.2c-0.2,8.6-0.3,17.2-0.5,25.8c-0.1,4.9,0,9.8-0.2,14.7c-0.2,6.2-0.6,12.3-0.7,18.4c-0.1,8-0.1,16.1,0,24.1
	C313.2,782.8,313.6,785.9,313.9,789.6z M434.1,353.3c-2.7,1.4-5,3.1-6.9,5.4c-2.5,2.9-5,6.1-7.6,8.9c-2.4,2.6-5.1,5.3-7.8,7.5
	c-2.7,2.1-4.8,1-5.1-2.4c0-0.7,0-1.6,0.2-2.2c0.4-1.4,0.8-2.7,1.4-4.1c3.2-7.2,7.4-13.9,12.5-19.9c0.3-0.4,0.6-0.8,1.3-1.7
	c-1.3,0.2-2,0.2-2.8,0.3c-3,0.5-6.2,1.1-9.2,1.6c-2.1,0.3-4.4,0.4-6.6,0.2c-2.4-0.2-3.1-2.5-1.7-4.5c0.4-0.5,0.9-0.9,1.5-1.4
	c3.7-3,7.8-5.2,12.4-6.9c1.5-0.5,2.9-1.1,4.9-1.9c-2.2-1-4-1.8-5.7-2.6c-13.2-6.5-26.9-8.5-41.4-7.4c-7.4,0.5-14.4,2.8-21.2,5.7
	c-18.5,7.9-33.4,20-43.1,38c-6.2,11.7-8,24.1-5.6,37.1c0.9,5,2,9.9,4.8,14.4c2.4,4,4.6,7.9,7.2,11.7c3,4.2,6.5,8.2,12.3,8.9
	c0.2,0,0.4,0.2,0.7,0.2c0.5,0.1,1.1,0.2,1.7,0.1c9.1-2.3,17.8-5.6,24.9-12c2.1-1.9,4.2-4.1,6.2-6.1c4.3-4.3,8.2-8.7,11.8-13.7
	c2.3-3.1,4.9-6.4,7.7-9c5.3-5,12.2-7.2,19-9.1c0.5-0.1,1-0.2,1.5-0.1c1,0.3,2.4,0.6,2.9,1.5c0.3,0.5-0.6,1.9-1,2.8
	c-0.1,0.2-0.3,0.4-0.5,0.5c-2,2-4.1,4.2-6.2,6.1c-5.7,4.7-10,10.3-14.1,16.5c-0.4,0.7-0.7,1.5-1.1,2.3c0.1,0.1,0.3,0.3,0.4,0.4
	c2.2-0.7,4.6-1.4,6.7-2.2c6.9-2.7,13.1-6.8,18.9-11.2c6.3-4.6,12.4-9.1,18.7-13.5c2.3-1.6,5-2.8,7.5-4.2c1.3-0.6,2.7-0.9,3.8,0.6
	c-0.6,2.4-2.3,4.2-3.8,6.1c-4.6,6-9.7,11.4-13.7,18c-0.7,1.3-1.7,2.3-2.6,3.3c-1.4,1.7-2.9,3.2-4.4,5c5.3-1.9,9.6-5.1,13.4-9.1
	c1.9-2.1,3.7-4.4,5.8-6.4c6.2-5.5,13.4-9.6,19.9-14.4c0.8-0.6,2-0.9,3-1c1.8-0.2,2.7,1,2,2.6c-0.8,1.8-1.8,3.6-2.9,5.3
	c-6.3,8.9-12.8,17.4-20.6,25.1c-0.7,0.7-1.5,1.6-2.3,2.3c-0.7,0.7-1.4,1.4-2.1,2.1c3.4-1,6-3.3,8.1-5.8c2.5-2.8,4.9-5.8,7.7-8.4
	c4.3-3.7,8.8-7.1,13.3-10.5c0.5-0.4,1-0.8,1.7-1c1.4-0.5,2.5,0.3,2.4,1.9c0,0.5-0.2,1.1-0.4,1.7c-0.9,2-1.7,4.1-2.9,5.8
	c-4.5,6.4-9.4,12.5-15,17.9c-4.1,4-8.5,7.5-12.8,11.2c-0.6,0.5-1.3,1.1-1.9,1.7c1.1-0.1,2.1-0.4,2.9-0.9c5.8-3.3,11.7-6.9,17.4-10.2
	c1.1-0.6,2.3-1.4,3.6-1.6c2.5-0.4,3.6,0.8,2.5,3.1c-0.7,1.7-2,3-3,4.7c-0.3,0.4-0.6,0.9-1,1.6c1.9,0.2,3.6,0.4,5.3,0.4
	c6.3,0,12.5,0,18.7,0c7.8,0,15.8-0.1,23.6-0.3c4.9-0.1,9.6-0.7,14.3-2c2.9-0.8,6-1.9,8.7-3.7c-0.4-0.4-0.6-0.8-0.9-1
	c-5.2-4.5-10.9-8-17.5-9.8c-5.5-1.6-11.2-2.3-16.8-3.7c-1.9-0.4-3.8-1.5-5.5-2.3c-1-0.5-1.8-1.6-1.1-2.9c1.1,0,2.2-0.1,3.2,0
	c5.2,0.7,10.3,1.6,15.6,2.4c7.7,1.3,14.8,4.3,21.1,8.8c2.2,1.6,4.3,3.3,6.1,5.3c2.5,2.8,4.4,6.2,4.9,10c0.7,5.8,1.8,11.7,2.6,17.4
	c1.5,9.4,4.3,18.6,7,27.8c1,3.2,2.8,6.3,5.3,8.6c2.7-0.8,3.2-1.3,4.3-3.4c0.3-0.7,0.5-1.6,0.7-2.4c1.3-5.5,1.5-11.1,1.1-16.8
	c-0.4-7.1-1.1-14.1-2.3-21.2c-0.9-6.5-2.4-12.8-5.3-18.7c-0.8-1.9-1.9-3.8-3.3-5.3c-2.7-2.7-5.7-5.2-8.8-7.6
	c-4.3-3.4-9.1-6.2-13.9-9c-6.4-3.8-12.6-7.9-18.9-11.9c-5.7-3.4-11.5-6.8-18-8.8c-1.5-0.4-2.7-1.1-4.2-1.9c-0.4-0.2-0.7-0.8-1.1-1.3
	c10.1,2.3,19.8,5.6,28.7,11.3c0.9-2.9,2.4-5.2,3.1-8.1c-1.8,0.7-3,1.3-4.5,1.8c-1,0.4-1.9,0.1-2.7-0.5c-1.8-1.4-3.6-2.7-5.6-3.8
	c-4.7-2.4-9.3-4.9-13.5-8c-3.4-2.7-7.1-5.5-10.5-8.2c-0.6-0.5-1.3-0.9-2.1-1.5c-0.1,1.3-0.2,2.1-0.3,2.9c-0.4,2.1-0.8,4.3-2.5,6
	c-1.7,1.8-3,2.1-5-0.4c-0.8-1-1.1-2.6-1.5-4.1c-0.8-4-1.5-7.8-2.3-12.1c-1.6,2.5-2.5,5-2.8,7.5c-0.3,3-0.6,6.3-0.9,9.3
	c-0.4,4.5-1.9,8.4-5.5,11.3c-2.3,1.9-3.3,1.7-4.6-1.1c-0.2-0.6-0.4-1.3-0.6-1.9c-0.4-1.8-0.8-3.6-1.1-5.4c-1-5.4-0.9-10.8,1.7-15.9
	c0.9-1.9,1.7-3.8,2.4-5.7c-1.3,0.6-2.4,1.4-3.2,2.4c-2.4,3.1-4.8,6.4-7.1,9.5c-3.2,4.5-6.5,9.1-9.8,13.6c-1.4,1.8-3,3.3-4.9,4.8
	c-1.5,1.1-2.4,0.7-3-0.9c-0.6-1.8-0.8-3.6-0.5-5.5c0.7-3.7,2.5-7,4.5-10.1c3.2-5.5,6.9-10.8,10.3-16.2
	C433.3,354.7,433.6,354,434.1,353.3z M512.4,661.3c0.9,2.5,1.6,4.9,2.6,7c5.6,11.2,11.4,22.3,17.1,33.3c3.4,6.8,7.3,13.6,10.8,20.5
	c5.5,11.1,9.8,22.8,14,34.5c3,8.8,6,17.5,7.5,26.7c0.9,5.7,1.7,11.5,2,17.3c0.3,6.5,0.3,12.8-1,19.1c-1.4,6.6-4.2,12.7-7.8,18.3
	c-1.9,2.8-3.2,6-4.3,9.2c-1.5,5-0.9,9.6,1.7,14.1s6,8.2,10.3,10.9c0.9,0.5,1.9,1.1,2.7,1.8c4.1,3.1,8.6,5.3,13.6,6.7
	c5.3,1.5,9.6,4.8,13.3,9c4.5,5.2,8.8,10.2,13.2,15.5c1.9,2.2,4.2,3.6,6.9,4.5c4.8,1.5,9.6,1.6,14.6,1.7c6,0.1,11.9-0.3,17.8-0.4
	c6.4-0.1,12.7-0.1,19-0.3c3.1-0.1,6.5-0.3,9-2.4c-0.4-4-2.6-6.5-6-8c-4.6-2.2-9.2-4.3-13.9-6.3c-3-1.3-6.5-2.2-9.4-3.6
	c-4.5-2-8.6-4.5-12-7.9c-5.2-5.3-8.6-11.7-10.4-18.8c-2.1-8.1-4.6-16.1-8.5-23.5c-2.3-4.4-4.7-8.7-7.1-12.9
	c-4.4-7.6-6.4-16-7.1-24.6c-0.4-5.5-0.2-11-0.6-16.5c-0.4-6.4-0.9-12.8-1.9-19.1c-1.3-8.8-2.8-17.4-4.4-26.2
	c-1.5-9.1-2.9-18.2-4.4-27.3c-1.1-7.3-2.3-14.6-3.2-22c-0.7-5.2-1.1-10.3-1.6-15.6c-0.5-5.8-0.9-11.5-1.3-17.3
	c-0.2-4.7-0.1-9.3-0.2-14c0-0.5-0.2-1-0.2-1.5c-2,1.1-3.8,2.6-5.8,3.2c-8.7,2.9-17.3,6.2-26.2,8.7c-8.4,2.4-16.8,4.6-25.5,5.2
	C521.4,660.5,517.2,660.9,512.4,661.3z M412.1,669.1c0.2,2,0.3,3.4,0.4,5c0.4,5.7,0.6,11.4,1.1,17.1c0.9,11,2,22,2.9,33
	c0.4,5.1,0.8,10.2,0.9,15.5c0.1,8.2,0.1,16.4,0,24.5c0,3.4-0.1,7-0.5,10.3c-1.5,13.1-3.7,26-7.2,38.7c-2.5,9.1-5.2,18.2-9.1,26.8
	c-1.6,3.6-3.2,7.2-4.8,10.9c-1.5,3.8-1.6,7.7-0.2,11.7c2.7,7.9,7.7,14,15.5,17.6c7.8,3.8,14.1,9.4,18.8,16.8
	c3.6,5.6,6.7,11.4,9.4,17.3c1.9,4.2,4.9,7.2,8.8,9.1c8.2,4.1,16.8,6.9,26.2,6.7c5.8-0.1,11.7-0.1,17.5,0c2.9,0.1,5.7-0.4,8.6-1.3
	c-0.9-2.3-2.7-3.7-4.6-5.1c-6.6-4.9-13.5-9.5-18.9-15.6c-5-5.4-9.1-11.3-11.3-18.4c-2-6.4-3.1-12.8-4.1-19.2c-1-8-2.2-16.1-5.1-23.7
	c-1.9-5-4.2-9.8-6.3-14.7c-4-9.4-6.9-18.9-7.5-29.2c-0.4-7.1-0.4-14.2,0.9-21.2c3-14.6,6.4-29.2,10.1-43.6
	c4.7-17.8,10-35.4,16.1-52.7c0.3-0.9,0.6-1.9,0.9-3c-10.3,0.2-20.4-1.4-30.2-3.4C431.3,677,421.8,673.7,412.1,669.1z M538.9,488.5
	c-0.2,1-0.4,1.7-0.5,2.3c-1.5,6.7-2.7,13.4-4.6,20c-5.2,19.7-11.8,39-17.8,58.5c-0.3,1.1-0.8,2.2-0.9,3.3c-0.6,4.9-1,9.7-1.6,14.6
	c-0.6,5.4-1.1,10.7-1.9,16.1c-0.5,4.1-1,8.1-1.7,12.3c3.4,0.3,6.8,0,10-0.7c17.3-3.8,34.9-7.6,51.8-13.6c4.2-1.4,8.1-3,12.3-4.7
	c0.1-0.6,0.1-1,0.1-1.5c0.1-6.9,0.2-13.7,0.2-20.6c0-11.1-0.1-22.1-0.2-33.2c-0.1-5.3-0.2-10.7-0.5-16c-0.3-7-0.5-14-1-21
	c-0.4-6-0.8-12-1.7-17.9c-1.8-11.9-3.8-23.6-6.1-35.5c-1.7-8.8-5.4-16.9-11.3-23.8c-2.1-2.4-4.5-4.7-6.7-7
	c-3.1-3.1-6.8-5.8-11.1-7.4c-1.6-0.5-3.1-1.3-4.7-1.9c-4-1.6-8.1-1.8-12.4-2.1c0.4,0.5,0.9,0.9,1.5,1.3c5.1,3.6,10.1,7,14.4,11.7
	c1.7,1.8,2.9,3.8,4.1,6.1c3.3,7.3,5,15,6.1,23c1,7.5,1.8,15,2,22.7c0.1,5-0.3,9.7-1.5,14.5c-0.6,2.3-1.5,4.7-3.3,6.5
	c-3.2,3.1-6.4,3-9.1-0.6C541.3,492.4,540.3,490.6,538.9,488.5z M367.7,132.1c2.8,1.4,5.7,2.5,8.5,4.1c1.3,0.7,2.2,2,3.1,3.1
	c0.6,0.8,0.4,1.7-0.6,2.4c-3.3-3.1-7.8-4.1-12-5.1c-4-1-7.9-1.4-11.9,0.3c-1.6,0.7-3.3,1-5.1,1.5c-1.9,0.4-3.8,0.6-4.8,2.2
	c-2.6-1-5-2.1-7.5-2.9c-2.2-0.7-2.8-0.2-3.3,2c-0.8,4.1-1.1,8-0.4,12.1c0.7,3.4,1.5,7.2,2.9,10.3c1,2.4,1.6,4.6,0.8,7
	c-0.4,1.4-0.8,2.7-1.3,4.2c-1.9,5.6-5,10.4-7.9,15.6c-6,10-12,20-19.1,29.2c-1.4,1.8-2.9,3.3-4.6,5.2c1.6,4.2,4.6,7.7,7.3,11.4
	c1.6,2.1,3.4,4,6.1,4.9c5.6,2.2,11.3,4.4,17,6.5c1.3,0.5,2.8,0.6,4.3,0.7c3.3,0.3,6.7,0.6,10,0.7c4.2,0.1,8.4,0.1,12.2-1.7
	c7.8-3.4,14.5-8.8,20.9-14.7c-1.8-2.8-2.4-6-2.2-9c-3.1-1.4-6.2-2.6-9.1-3.8c-7.7-3-14.8-7.5-21.4-12.6c-2-1.6-4-3.2-5.6-5.1
	c-1.5-1.6-2.8-3.2-3.7-5.3c2.1-1.1,2.4-1,4,0.4c1.7,1.8,3.3,3.6,5.2,5.2c6.5,5.4,13.4,10,21.1,13.5c4.7,2,9.2,4.4,14.2,5.3
	c2.2,0.4,4.2,0.3,6.1-1.4c8.2-7.3,15-15.8,19.9-25.7c2.2-4.6,3.3-9.5,4.4-14.6c-0.4,0.1-0.4,0.5-0.7,0.7c-2.1,2.3-4.9,3.2-7.9,3
	c-3.1-0.3-6.2-3.7-5.6-6.4c0.3-2,1.3-3.8,2.8-5c1.8-1.1,3.6-2.5,5.6-2.9c3.1-0.6,5.8,1.5,6.5,4.7c0.1,0.6,0.2,1.3,0.3,1.8
	c2.4-9.3,4.5-18.5,2.5-28.2c-0.6-0.1-0.9-0.2-1.4-0.2c-6.7-0.2-13.2,0.3-19.6,2.3c-1,0.3-2.3,0.5-3.4,0.6c-0.4,0-0.9-0.6-1.1-1
	c-0.1-0.2,0.4-0.8,0.8-1c3.7-1.8,7.3-3.8,11.4-4.8c4.2-0.9,8-1.1,11.7,1.4c0.1,0.1,0.2,0,0.5,0c-0.4-2.1-1.7-3.4-3.1-4.8
	c-4.4-3.7-7.9-8-11.5-12.5c-2.8-3.6-5.3-7.4-6.9-11.8c-0.5-1.4-1-2.6-1.6-4.1c-1.1,1.7-2,3.3-3.3,4.8c-3.8,4.3-8.1,7.8-13.1,10.9
	C374.4,127.8,371.1,130,367.7,132.1z M394.6,106.1c0.7,1.4,1.3,2.2,1.7,3.1c1.4,2.9,2.5,6.2,4.3,8.9c3.8,6,8.1,11.4,13.4,16.2
	c3.7,3.2,5.6,7.3,6.5,12.1c0.8,4.9,0.6,9.7,0.1,14.6c-1.1,9.5-3.2,18.8-6.6,27.9c-4.6,12.6-12.5,22.9-22.5,31.8
	c-1.8,1.6-3.7,2.5-6.2,2.2c-0.7-0.1-1.5,0-2.4,0c0.3,1.5,0.6,2.6,0.9,4c0.3,1.3,0.5,2.5,0.8,4.2c18.9-6.8,37.3-14.7,55.4-22.8
	c-0.1-0.4-0.1-0.6-0.1-0.7c-3.4-8.4-6.6-16.7-8.4-25.7c-2-10.5-3.6-21.3-5.2-32c-1.7-12-4.6-23.7-8.5-35.2
	c-2.6-7.6-7.6-13.3-14.8-16.9c-3.4-1.8-6.9-2.1-10.4-0.8c-1.1,0.4-2,0.2-3-0.4c-1.6-1-3.2-2.1-5.1-2.8c-3-1.1-6.3-2.2-9.4-2.8
	c-2.2-0.5-4.6-0.5-6.8-0.4c-4.4,0.2-8.1,2-12,4.1c-6.7,3.4-12.1,8.7-17.4,13.9c-7.3,7-13.9,14.6-20.4,22.2
	c-8.6,10-17.3,20.2-26.1,30c-6.9,7.7-13.9,15.5-21.2,22.9c-7.5,7.6-15.4,15-23.2,22.5c-0.8,0.8-1.9,1.4-2.9,1.9s-1.8,1-2.2,2.1
	c0.2,0.1,0.3,0.3,0.5,0.3c4.9,0.5,9.7,1.3,14.6,1.7c13.9,1.3,27.4,4.3,40.9,7c5.6,1.1,4.2,2.1,7.8-2.8c4.8-6.5,9.1-13.3,13.6-19.9
	c2.8-4.5,5.4-9,8-13.5c2.5-4.2,4.6-8.5,6.4-12.9c0.7-1.8,0.6-3.2-0.4-5.2c-1.4-2.3-2-5.2-2.9-7.7c-2.2-6.5-2.8-13.1-1.8-19.7
	c0.7-4.4,1.7-5.4,5.8-6.1c1-0.2,2.2,0,3.1,0.4c3.1,1.3,6.2,2.7,7.6,6.4c5.5-2.4,10.9-4.6,16.1-7.2
	C374.4,124.3,385,116.1,394.6,106.1z M550.8,753.4c-3.4-10.7-7.5-20.8-12.5-30.4c-6.7-13.2-13.9-25.9-20.8-39
	c-2.9-5.7-6.2-11.5-8.4-17.5c-5-13.2-6.3-26.8-5.3-40.8c0.5-8,1.8-15.9,2.9-23.8c0.5-3.6,1-7.2,1.6-10.8c-0.7,0.8-1.1,1.8-1.5,2.7
	c-5.7,16.2-11.3,32.4-17,48.5c-7.5,20.9-15.1,41.6-21.7,62.8c-5.5,17.4-10.4,35.2-14.6,52.9c-0.9,4.3-1.9,8.5-2.9,12.9
	c0.6-0.1,1-0.1,1.5-0.1c4.9-0.9,9.8-1.9,14.6-2.9c10.9-2.5,21.8-5.5,32.9-7.1c8.2-1.3,16.5-2.6,24.7-4.1c3.7-0.5,7.4-0.8,11-1.6
	c3.8-0.7,7.6-1.3,11.5-1.3C548.4,753.7,549.5,753.5,550.8,753.4z M353.2,472.3c1.5,2.4,2.7,4.6,4,6.7c1.3,2.3,2.5,4.8,3.6,7.2
	c3.4,8.5,4.8,17.3,5.6,26.3c1.1,11.7-1.5,22.5-7.7,32.4c-7.4,12-16.6,22.7-26.1,32.8c-7,7.5-14.2,14.8-21.1,22.3
	c-7.8,8.6-14.5,18-19.5,28.7c-4.1,8.9-7.2,18.1-9.8,27.5c-2.4,8.4-4,16.9-3.7,25.7c0.2,7.1,1.8,13.9,4.8,20.4c1.4,3.1,3.6,5.6,7,7.1
	c3.7,1.5,7,1,9.7-1.9c2.8-3,4.3-6.7,3.6-10.9c-0.6-4.5-1.1-8.9-1.7-13.4c-1-9.1-1.8-18.3-0.8-27.6c0.5-5,1.6-9.8,3.4-14.5
	c3.8-9,9.6-16.7,16.3-23.7c6.4-6.6,13.7-12.2,20.9-17.6c9.1-7,17.5-14.6,25-23.4c8.7-10.1,15.6-21.3,18.5-34.5
	c1.5-6.6,2.3-13.3,2.9-20c0.7-7.3,0-14.5-1.1-21.7c-1.8-11.4-6.9-21.7-12.6-31.6C367.3,470,360.5,471.2,353.2,472.3z M458.5,406.8
	c-0.1-0.1-0.3-0.3-0.4-0.4c-2.2,1.7-4.6,3.2-6.8,5c-3.4,2.5-6.8,5.4-9.5,8.7c-4.1,4.7-8.5,8.8-14.6,10.5c-1.7,0.5-3.2,1.1-4.8,2.3
	c-0.6,0.5-1.5,0.7-2.1,1c-1.1-1.1-0.8-1.8,0.2-2.6c3-2.5,6.4-5.1,9.2-7.9c8.6-8.4,15.8-17.8,22.8-27.6c0.4-0.6,0.8-1.4,1.5-2.5
	c-0.8,0.4-1,0.6-1.4,0.7c-4.5,3.1-9,6.4-13.5,9.5c-2.8,2.1-6,4.2-8.1,6.8c-5.2,6-11.3,10.2-18.6,13.3c-2.2,0.8-4.4,1.9-6.9,3.1
	c0.8-2.5,2-4.4,3.3-6.1c1.5-1.7,2.9-3.4,4.6-5.1c2.5-2.6,4.6-5.6,6.7-8.6c3.1-4.4,6.7-8.5,10-12.7c0.4-0.5,0.7-1,1-1.5
	c-1.1,0.2-2.2,0.6-3,1.3c-6.1,4.3-12.1,8.4-18,12.8c-6.6,4.9-13.3,9.3-21,12.3c-2.6,1-5.4,2-8.4,1.9c-1.9,0-2.6-0.8-2.2-2.6
	c0.3-1.3,0.8-2.5,1.6-3.7c4.3-7,9.3-13.3,15.9-18.2c1.9-1.5,4-2.9,5.3-5.3c-1,0.2-2,0.2-2.7,0.5c-4.3,1.8-8.6,3.6-12.8,5.5
	c-1.1,0.5-2.2,1.3-3,2.2c-2.9,3.3-6.1,6.7-8.7,10.2c-3,4.2-6.3,8.1-10,11.8c-0.6,0.6-1.3,1.4-1.9,2c-4.3,4.8-9.2,8.7-14.8,11.8
	c-6.4,3.3-13.4,4.7-20.2,6.7c-1.9,0.5-4.3,0.1-6.3,0.2c-0.2,0-0.5,0.1-0.7,0.2c-1.3,9.8-1.5,19.6-0.1,29.6c3.8-0.2,7.2-0.5,10.7-0.7
	c10.1-0.5,20.3-1.5,30.3-3c16.9-2.6,33.7-6,50.3-10.7c11.9-3.3,22.8-8.6,32.7-15.8c3.6-2.5,6.6-5.7,9-9.4c-0.8,0.2-1.7,0.7-2.4,1.1
	c-6.1,3.4-12,7.1-18,10.3c-2.2,1.1-4.8,1.7-7.1,2.5c-0.9,0.3-1.9,0.3-2.4-0.7c-0.4-0.9-0.3-2,0.4-2.8c0.6-0.6,1.3-1,1.9-1.6
	c11.1-8.7,21.4-18.1,29.8-29.7C456.4,409.8,457.4,408.3,458.5,406.8z M503.6,387.7c1.1-0.5,2.1-0.8,2.9-1.3
	c4.5-2.3,8.8-4.7,13.3-7.1c1-0.6,2.1-1.4,2.9-2.3c5.1-5.4,8.4-11.9,9.8-19.1c0.6-2.9,0.4-6.1,0.4-9.1c0-5.3,0.8-10.2,4.2-14.6
	c3.3-4.7,5.2-10,6.6-15.6c0.4-1.7,0.9-3.3,0.3-5.5c-5,2.3-9.7,4.6-14.5,6.9c-4.7,2.3-9.3,4.9-13.5,8.2c0.4-2.7,2.6-4.1,4.3-6
	c-1.9,0.9-3.8,0.5-5.7,0.4c-5.4-0.4-10.8-0.7-16.2-1c-0.6,0-1.3,0.1-2,0.2c0.2,2.4,0.6,4.7-0.6,7.4c-1.9-3.3-3.6-6.4-5.3-9.3
	c-1.7-2.9-4-5.5-6.5-7.8c-2.5-2.3-4.5-5.3-8.1-6.7c-0.4,2.3-0.9,4.4-1.1,6.4c-0.3,2.6-0.3,5.4-0.6,8c-0.2,2.6-0.5,5.2-0.8,7.7
	c-0.4,2.9-0.6,6-1.5,8.7c-0.9,2.8-1.1,5.6-1.1,8.5c0,6.4,0,12.7,0,19.1c3.2,2.5,6.9,5,10.2,7.8c4.8,4.1,9.7,7.5,15.2,10.3
	C498.8,383.8,501.6,385,503.6,387.7z M112.8,834.2c-1.4,3.2-4.2,5.7-7.2,6.7c-1.3,0.4-2.6,0.6-4,1.1c-4.9,1.7-12.3-1.7-14.3-7.3
	c-0.4-1.1-0.8-2.4-1-3.6c-1-6.4-0.9-12.8,0.2-19.1c1.6-9,4.6-17.4,8.5-25.6c5.1-10.7,8.7-21.8,9-33.7c0-0.8,0-1.8,0-2.6
	c-3.2-1-6.4-2-9.5-3c-0.2,0.9-0.5,1.7-0.5,2.5c-0.1,7.3-2.5,14.1-5.5,20.7c-3,6.8-6.1,13.6-8.7,20.6c-2.5,6.7-4.2,13.6-3.6,20.9
	c0.1,1.9,0.3,4,0.5,5.8c0.6,7.1,2.5,13.9,5.6,20.4c1.8,3.8,4.5,6.8,8.4,8.5c1.4,0.6,2.7,1.3,4.2,1.9c2.4,1,5.1,1.4,7.7,0.7
	c9.3-2.1,14.7-8,17.1-17c1.8-6.7-1.5-15-11.5-16.2c-2.4-0.3-4.9,0.3-6.2,2.6c-2,3.3-1.8,6.7,0.6,10.1c1.7,2.4,5.4,2.4,6.7-1.1
	c-1.3-0.6-2.5-1.3-3.8-1.8c0.9-2.2,2.3-2.8,4.8-2.2c2.3,0.6,3.6,2.2,3.3,4.4c-0.2,2.1-1.3,3.8-2.7,5.3c-3,3.1-7.5,3.3-10.5,0.2
	c-4.1-4.1-5.2-9-3.7-14.5c0.8-3,2.5-5.7,5-7.3c0.2-1.5,0.1-2.7,0.5-3.8c0.6-1.8,1.5-3.6,2.4-5.2c3.3-5.3,6.8-10.4,10.3-15.7
	c2.8-4.3,5.3-8.7,6.8-13.6c1.9-6.3,2.5-12.5,1-19c-5.5-1-10.9-2.5-16.6-3.2c0,0.8-0.1,1.3-0.1,1.8c-0.4,5.1-0.5,10.2-1.3,15.4
	c-1,7-3.8,13.5-6.5,19.9c-3,7.3-6,14.7-7.6,22.6c-1.3,6-1.7,11.9-1.1,17.9c0.1,1.5,0.4,2.9,0.8,4.5c1.5,4.7,6.4,7.3,11,6.1
	c0.9-0.2,2-0.5,2.9-0.6c2.4-0.2,4.6-0.9,6.6-2.5C111.5,835,112.1,834.8,112.8,834.2z M301.3,854.5c0.8,2.5,1.6,3,3.3,2.3
	c2.9-1.3,4.6-3.4,4.8-6.7c0.2-2.6-1.3-4.6-3.4-6.1c-4.4-2.6-10.3-1-13.5,1.7c-1.9,1.7-3.6,3.4-3.4,6.2c0.1,5.7,1.9,10.7,6.9,14
	c5.7,3.8,11.9,5.6,18.8,5.2c10.1-0.5,16-6.6,18.8-15c1.5-4.4,0.9-8.8,0.3-13.3c-1.3-9-3.3-17.9-5.6-26.7c-1.5-6.2-1.9-12.4-0.7-18.6
	c0.4-2,0.8-4.1,1.4-6.5c-5,0.3-9.7,0.4-14.4,0.8c-1.7,0.1-3.2,0.2-4.9-1.3c0.1,5,1.3,9.3,3.2,13.6c1.3,2.7,2.7,5.4,4.1,8.1
	c2.2,4.9,4.9,9.4,6.4,14.6c2,7.1,2.8,14.4,2.2,21.8c-0.3,4.2-1.9,7.8-4.7,11c-1.1,1.3-2.4,2.3-4.3,2.7c-0.9,0.2-1.7,0.2-2.1-1
	c1.1-1.5,2.3-2.9,3.6-4.5c2-2.3,3.1-5,3.2-8c0.1-2.6,0.1-5.4,0-8c-0.2-6.5-1.9-12.5-4.5-18.3c-2-4.8-4.4-9.3-6.5-14.1
	c-2.6-6.1-4.3-12.4-3.7-19.2c-4.1-1.5-8.1-2.4-12.6-2.2c-2.3,4.1-3.7,8.2-3.8,12.9c0,4.5,1,8.7,2.3,12.9c0.9,3,2.3,6,4.6,8.1
	c3.4,3.6,7.1,7,10.9,10.2c3,2.7,5,6.2,6.4,9.9c0.3,0.9,0.4,2,0.3,2.9c-0.3,2.6-0.5,5.3-1,7.9c-0.8,4.1-3,7.1-6.7,9.1
	c-4,2.1-7.9,0.5-9.4-3.6c-0.3-1-0.6-2.1-0.7-3.1c-0.1-0.8,0-1.9,0.4-2.6c1.6-3.2,5.7-4.2,8.9-1.9C305.1,852.1,303,852.9,301.3,854.5
	z M362.3,519.8c-0.4-16.7-4-32.7-13.9-47c-0.3,0-0.9,0-1.6,0c-2.8,0.2-5.7,0.5-8.6,0.7c-5.8,0.4-11.7,0.8-17.4,1.3
	c-0.6,0-1.5,0.1-1.8,0.5c-1,1.3-2.4,1.4-4,0.9c-0.5-0.1-1,0-1.8,0c4.4,5,6.9,10.4,7.6,16.6c0.3,2.7,0.5,5.5,0.6,8.2
	c0.2,6-0.1,11.9-0.7,17.6c-0.2,2-0.3,4.2-0.4,6.2C325.9,526.8,354.1,523.3,362.3,519.8z M375.9,571.2c0.8,0.1,1,0.2,1.4,0.1
	c2.7-0.2,5.5-0.5,8.2-0.7c7-0.3,14-0.5,21.1-0.8c0.8,0,1.7,0,2.1,0c1.9-6.7,3.6-13.1,5.6-19.2c2-6.3,4.9-12.3,8-18
	c3.1-5.7,6.5-11.5,9.9-17.1c3.4-5.5,7.4-10.7,11.1-16.1c-0.1-0.1-0.2-0.3-0.3-0.4c-15.5,10.3-32.5,17.2-50.9,21.4
	C391.3,538.5,387.6,556.1,375.9,571.2z M409.6,372.5c0.2,0.1,0.5,0.2,0.7,0.3c1-0.8,2.3-1.7,3.2-2.6c3.1-3.4,6.3-7.1,9.3-10.7
	c2.8-3.3,5.8-6.7,9.4-9.2c1.4-0.9,2.9-1.7,4.5-2.5c0.9-0.5,1.9-0.3,2.5,0.4c0.3,0.5,0.3,1.5,0.1,2c-0.4,1.3-1,2.4-1.8,3.6
	c-3.4,5.3-7.1,10.5-10.3,15.9c-2,3.1-3.7,6.5-5.3,9.7c-0.8,1.6-1.3,3.3-0.5,5.8c1-1,2-1.8,2.6-2.7c3.2-4.6,6.7-9.1,9.7-13.9
	c3.1-4.9,6.1-9.9,10.7-13.8c1.9-1.6,3.8-3.1,5.7-4.7c0.9-0.7,2.4-0.7,3.2-0.1c0.9,0.8,0.4,1.7,0.1,2.5c-1.8,4.2-3.3,8.2-5.3,12.4
	c-1.6,3.4-2.4,7-1.8,10.8c0.4,2.6,1,5.3,1.6,8.2c1.9-2,2.2-2.5,2.4-5.2c0.3-2.8,0.5-5.7,0.6-8.6c0.1-6.3,2.6-11.4,6.2-16.3
	c0.7-0.9,1.5-1,2.6-0.8c1.9,0.4,2,1.8,2.3,3.2c0.8,4.8,1.7,9.6,2.5,14.5c0.1,0.4,0.3,0.8,0.7,1.7c0.2-0.9,0.4-1.3,0.4-1.7
	c0.2-2.7,0.5-5.5,0.5-8.4c0.1-6.8,0-13.6,0-20.3c0-2.3-0.7-4.4-2.4-6c-2.1-1.9-4.4-3.4-6.5-5.3c-1.9-1.6-3.8-3.3-5.7-5
	c-0.5-0.4-1.4-0.6-2-0.5c-2.6,0.5-5.3,1-7.8,2.1c-9.7,3.7-19.5,7.6-29.2,11.5c-2.2,0.8-4.3,2.1-6.3,3.2c-0.6,0.3-1.1,0.8-1.7,1.3
	c1.5,0.3,2.7,0.3,4.1,0.1c4.3-0.7,8.5-1.7,12.7-2.4c1.4-0.2,2.8-0.4,4.3-0.3c1.6,0.2,2.1,1.1,1.3,2.5c-0.8,1.5-1.9,2.7-2.9,4.1
	c-5.3,6.4-9.6,13.3-12.9,20.9C410.1,369.9,409.9,371.2,409.6,372.5z M320.2,528.4c-2.1,15-4.4,30-6.5,45c2.3,0,4.5,0.1,6.5,0
	c3.3-0.1,6.8-0.4,10-0.6c1.1,0,1.9-0.5,2.6-1.4c1.5-1.7,3-3.3,4.6-5.1c6.1-6.8,11.8-13.8,16.5-21.5c2.9-4.8,5.6-9.6,7.1-15.1
	c0.4-1.8,1-3.7,0.7-5.6c-2.1,0.7-4.1,1.5-6.1,2.1c-2.1,0.6-4.3,1.4-6.4,1.6c-3.4,0.4-7.1,0.7-10.5,0.8c-4.2,0.1-8.2,0.1-12.4,0.1
	C324.3,528.7,322.2,528.5,320.2,528.4z M656.2,798.4c1.5-0.9,1.8-1.9,1.6-3.6c-0.2-1.4-1.3-1.4-2.2-1.6c-4-0.7-10.1,2.4-10.7,7.9
	c-0.1,0.7-0.2,1.5-0.3,2.2c-0.8,6,4.1,10.2,9.7,8.6c3.4-0.9,6.6-2.6,9.1-5.3c3.8-4,6.7-8.6,8.6-13.7c4.9-12.7,7.2-25.8,5.3-39.5
	c-0.5-3.6-1.4-7.1-2-10.8c-4.1,0.7-7.8,1.5-11.9,2.3c0.3,2.3,0.3,4.6,0.9,6.7c1.1,4.3,2.5,8.4,3.7,12.6c0.7,2.8,1.5,5.7,1.7,8.7
	c0.4,6.2-1.4,12-3.4,17.8c-0.2,0.6-0.7,1-1.3,1.9c0.3-4.6,0.5-8.7,1-12.6c0.7-5.1,0.2-10-1.3-15c-2-6.3-3.7-12.5-3.6-19
	c0-0.1-0.2-0.3-0.3-0.5c-6.3,0.5-12.5,1-18.7,1.6c-0.8,7.1,0.6,13.9,4,20c2.4,4.6,6.2,8,9.9,11.4c3.2,2.8,5.2,6.5,6.2,10.4
	c0.3,1.6,0.5,3.1,0.7,4.8c0.3,2.7-0.2,5.4-1.6,7.8c-1.6,2.8-4.5,3.6-7,1.6c-1.4-1.1-2.3-2.7-3.3-4.4c-0.3-0.5-0.1-1.5,0.1-2.2
	c0.4-1.5,2.8-2.9,4.5-2.8c0.8,0.1,1.5,0.5,1.3,1.5C656.6,796.3,656.4,797.4,656.2,798.4z M613.5,544.9c-0.6-17.8-1.4-35.5-2-53.4
	c-1.8,0.2-3.2,0.3-4.8,0.5c-3.8,0.5-7.6,1.3-11.5,1.7c-2.8,0.3-5.7,0.5-8.6,0.7c0,0.6-0.1,1.3-0.1,1.8c0.5,7.1,1,14.3,1.5,21.5
	c0.3,5.6,0.4,11.1,0.5,16.7c0.1,4.6,0,9.1,0,13.7c0,0.7,0.1,1.5,0.2,2.1C592.4,550.1,605.2,547.4,613.5,544.9z M508.8,627.5
	c1.6,0,2.9,0.1,4.4,0c7.4-0.9,14.9-1.7,22.3-3.1c16.4-3.2,32.3-8.7,48-14.3c0.1-3,0.3-6.1,0.4-9.3c-1,0.4-1.9,0.6-2.6,0.9
	c-7.2,3.1-14.5,6.2-22.1,8c-9.8,2.4-19.8,4.6-29.7,6.8c-6.2,1.4-12.3,2.3-18.6,1.9c-0.4,0-0.8,0.1-1.4,0.3
	C509.2,621.6,509,624.3,508.8,627.5z M583.2,631.6c-2.2,0.8-4.2,1.8-6.1,2.4c-6.8,2.2-13.6,4.3-20.3,6.6c-13.7,4.7-27.6,7.3-42,7.1
	c-1.7,0-3.4,0.3-5.4,0.4c0.7,3.6,1.4,6.9,2,10.1c0.8,0,1.5,0.1,2,0c7.8-1.5,15.9-2.4,23.6-4.5c15.6-4.1,30.7-9.2,45.9-14.5
	C583.2,636.8,583.2,634.3,583.2,631.6z M410.8,635.1c1.8,0.7,3.4,1.7,5.3,2.2c5.7,1.6,11.5,3.2,17.3,4.6c7.3,1.6,14.8,2.5,22.3,3
	c6.5,0.5,12.9,1.4,19.4,1.9c2.9,0.2,6.1,0,9.1,0c0.8-2.4,1.6-4.8,2.4-7.3c-2.9,0.2-5.5,0.6-7.9,0.6c-5.7,0-11.5-0.1-17.2-0.2
	c-2.1,0-4.3,0-6.4-0.3c-5.2-0.6-10.3-1.3-15.6-2.3c-7.7-1.5-15.4-3.4-22.2-7.5c-2.2-1.3-4.6-2.3-7.2-3.7
	C410.5,629.4,410.6,632.2,410.8,635.1z M508.8,637.5c25-0.4,62.7-11.4,74.7-18.2c0-1.8,0-3.6,0-5.6c-0.5,0.2-0.9,0.3-1.4,0.4
	c-11.5,4.9-23.4,8.7-35.6,11.9c-12.3,3.1-24.7,4.8-37.7,4.6C508.8,632.7,508.8,635,508.8,637.5z M482.1,651.8
	c-5.5-0.3-10.9-0.5-16.2-0.9c-3.6-0.3-7.2-0.9-10.8-1.3c-15.1-1.4-29.9-4.6-43.6-11.2c-0.1-0.1-0.3,0-0.7,0c0.2,2.4,0.3,5,0.5,7.7
	c3.7,1.3,7.4,2.8,11.2,3.8c7.3,1.7,14.7,3.1,22.1,4.4c6.6,0.9,13.3,1.4,19.9,1.9c3.8,0.3,7.5,0.7,11.3,0.7c5,0.1,5,0,6.5-4.9
	C482.2,652.1,482.2,652,482.1,651.8z M475.1,671.9c-4.4,0.8-8.1,0.2-12-0.5c-1.9-0.4-3.8-0.6-5.7-0.8c-7.6-1.1-15.4-2.1-22.9-4.5
	c-6.1-1.9-12.2-3.3-17.9-6.2c-1.6-0.7-3.1-1.5-4.9-2.3c0,2.3,0,4.5,0,6.6c0,1.3,0.6,1.9,1.9,2.3c2.7,0.8,5.5,1.8,8.2,2.5
	c14.1,4,28.5,6.3,43.1,7.6c2.6,0.2,5.3,0.8,8,1.3C473.6,675.9,474.4,674.2,475.1,671.9z M509.4,646.2c4.9-0.4,9.6-0.7,14.3-1.4
	c9.8-1.4,19.6-3.4,29-6.9c7.9-2.7,16-5.4,24-8.1c2.2-0.7,4.4-1.7,6.4-2.5c0-1.5,0-2.6,0-4.2c-5.7,3.4-11.8,5.4-17.9,7.2
	c-6.2,1.8-12.3,3.6-18.5,5.3c-6.2,1.6-12.4,2.8-18.7,3.2c-6.4,0.4-12.8,0.5-19.4,0.8C509,641.9,509.2,644,509.4,646.2z M411.7,653.9
	c10.4,4.8,21.5,7.2,32.5,9.4c7.2,1.5,14.5,2,21.8,3.1c3.6,0.6,7.2,0.2,10.9,0.5c0.7-2.1,1.4-4.1,2.1-6.1c-0.6,0-0.9,0-1.3,0.1
	c-4.2,0.6-8.2,0.8-12.4,0.3c-6.5-0.7-12.9-1.1-19.4-2.2c-5.8-0.9-11.5-2.5-17.2-3.8c-5.5-1.1-11-2.7-16-5.6
	c-0.4-0.2-0.8-0.2-1.5-0.4C411.4,651,411.5,652.3,411.7,653.9z M586.1,491.4c8.2-1.4,16.2-2.6,24.1-4c-8-4.6-17.3-5.7-26.1-8.9
	C584.8,482.9,585.5,486.9,586.1,491.4z M310.4,594.1c0.1,0,0.3,0.1,0.4,0.1c6-6.2,11.9-12.4,17.9-18.6c-5.4,0-10.3,0-15.6,0
	C312.3,581.8,311.4,587.9,310.4,594.1z M413.3,174c0-3.7-2.5-5.4-6-4c-1.7,0.7-2.9,1.8-4,3.3c-1.3,2.3-0.3,4.6,2.2,5.3
	c1.9,0.6,3.6-0.1,5.3-0.9C412.5,177,413.4,175.7,413.3,174z"></path>
<path d="M319.2,261.4c-0.3-0.8-0.8-1.8-0.8-2.6c0.1-2.3,0.2-4.7,0.6-7c0.3-1.7,1-2.1,2.4-1.6c1.4,0.4,1.7,1.1,1.1,2.8
	c-0.5,1.6-1.3,3-1.8,4.7c-0.4,1.3-0.7,2.4-1,3.7C319.5,261.4,319.4,261.4,319.2,261.4z"></path>
<path d="M377.1,257.4c-4,0.4-8.1-2.7-8.5-6.1c-0.1-1.1,0.5-1.8,1.6-1.4c0.9,0.3,1.9,0.8,2.4,1.6
	C374.2,253.4,375.7,255.3,377.1,257.4z"></path>
<path d="M288.5,230.4c1.3-2.4,3.4-3.1,5.6-4c1.7-0.6,3.6-1.6,5.4,0C298.5,229.1,293.8,230.8,288.5,230.4z"></path>
<path d="M354.3,265.6c-1.1,0.1-1.7-0.8-1.9-1.6c-0.7-2.4-1.4-4.9-1.9-7.3c-0.1-0.4,0.2-1.4,0.5-1.5c0.5-0.2,1.4,0,1.8,0.3
	c1.1,0.7,1.4,2,1.4,3.3C354.2,261.2,354.3,263.3,354.3,265.6z"></path>
<path d="M365.7,263c-2.6-2.8-5.5-5.2-5.4-9.2c1.1-0.6,2-0.3,2.7,0.3C364.6,255.5,366.1,260.2,365.7,263z"></path>
<path d="M308.4,256.2c0.4-1.4,0.7-2.7,1.3-4.1c0.7-2,1.6-4,2.4-5.8c0.4-0.9,1.1-1.5,2.2-1s0.7,1.4,0.3,2.1c-1.5,3.1-3.6,6.1-5.6,8.9
	C308.8,256.4,308.6,256.3,308.4,256.2z"></path>
<path d="M293.1,239.7c2.3-2.9,4.9-5,7.8-6.5c0.7-0.4,1.5-0.8,2.3,0C302.4,235.7,297.1,239.1,293.1,239.7z"></path>
<path d="M377.9,245.7c4-0.1,5.3,3.2,8.2,5.2c-2.7,1-4.7,0-6.6-1C378,248.9,377.7,248,377.9,245.7z"></path>
<path d="M330.7,263.4c-0.5-0.8-1-1.4-1.1-1.9c-0.2-2.3-0.4-4.7-0.5-7c0-0.9,0.4-1.7,1.5-1.6c1.1,0.1,1.6,0.7,1.6,1.9
	c0,0.5-0.1,1-0.2,1.5C331.5,258.4,331.1,260.6,330.7,263.4z"></path>
<path d="M342.3,264.1c-1.6-2.4-2.3-5.3-2.2-8.2c2-0.7,2.9-0.4,3,1c0.1,2.3-0.1,4.8-0.2,7.1C342.7,264,342.5,264,342.3,264.1z"></path>
<path d="M391,241.2c-2.1,1.1-4.3,0.9-6.3,0.7c-1.6-0.2-1.9-0.8-1.6-3C386,238.6,388.4,240.2,391,241.2z"></path>
<path d="M307.9,240.6c-0.1,1.9-1.8,4.2-6.1,7.6c0.2-0.7,0.1-1.4,0.4-1.8c1-1.8,2.1-3.6,3.2-5.3C306.2,240.2,306.2,240.3,307.9,240.6
	z"></path>
<path d="M369,194.9c2.4-3.4,7.5-5.5,11.5-4.6c0.3,0.1,0.6,0.1,0.9,0.1c4.5,0,6,0.9,7.5,4.5c-0.6,1-0.9,1.9-1.6,2.5
	c-2.9,3.2-7.8,4.2-11.7,1.9C373.4,198,371.3,196.3,369,194.9z M386.1,195.4c-1.9-2.2-2.2-2.2-4.8-1.6c-0.5,0.2-1.4,0-1.8-0.3
	c-1-0.8-2.2-0.7-3.2-0.4c-1.3,0.4-2.4,1-3.8,1.6C377,197.9,381.4,198.6,386.1,195.4z"></path>
<path d="M352.9,159.9c4.7-0.7,9.9,5,8.9,10.8c-0.7,3.7-4.6,6.4-8.4,5.5c-3.3-0.7-6.1-2.5-7.4-5.8c-0.6-1.5-0.9-3-0.6-4.7
	C346.1,161.4,348.3,159.9,352.9,159.9z M359.7,169c0-1.5-0.5-2.8-1.6-4.2c-2.2-2.7-5.3-2.9-8.5-3.2c-0.3,0-0.8,0.2-1,0.5
	c-1.5,1.7-2.3,3.6-1.8,5.8c0.8,3.4,4.2,6.2,7.7,6.3C357.4,174.1,359.7,171.7,359.7,169z"></path>
<path d="M355.6,154.4c1.4-0.7,2.1-0.3,2.8,0.3c3.6,2.9,7.8,4.2,12.5,4c2.4-0.1,5,0.3,7.8,0.5c-1.3,2.1-3.4,2.2-5.3,2.7
	c-1.9,0.5-4.1,0.8-6.1,0.6C362.3,161.9,358.1,159.3,355.6,154.4z"></path>
<path d="M392.9,162.4c3.2-0.2,6.6,0,9.6-0.5c3.1-0.5,6.2-1.7,9.5-2.6c-0.2,0.6-0.3,1.1-0.5,1.5c-3,3.7-6.9,5.8-12,5.1
	c-1.4-0.2-2.8-0.4-4.3-0.8C394.3,164.6,393.1,164.2,392.9,162.4z"></path>
<path d="M380.8,176.3c2.8-1.4,5.5-1.6,9.7-0.6c-1.4,2.3-4.8,4.1-7.2,3.7C381.5,179,380.9,178.3,380.8,176.3z"></path>
<path d="M478.9,346c1.3-1,2.3-0.6,3.1,0c4.5,2.8,9.5,2.3,14.5,2.9c0.8,0.1,1.8,0.2,2.7,0.7c-0.4,0.3-0.8,0.7-1.3,0.8
	c-2.7,0.8-5.5,1.8-8.2,2.3c-4.6,0.8-7.6-1.6-10.1-4.9C479.2,347.4,479.1,346.6,478.9,346z"></path>
<path d="M502.8,362.3c0.7,0.1,2,0.2,3.2,0.5c1.9,0.6,2.7,2.3,2,4.3c-0.7,2.1-3.1,3.8-5.3,3.6c-3.3-0.3-5.1-1.7-5.4-4.6
	c-0.3-2.4,0.2-3.1,2.6-3.6C500.9,362.5,501.6,362.5,502.8,362.3z M500.2,365.2c0.1,1.8,0.9,2.3,2.3,2.5c1.4,0.1,2.5-0.1,2.9-1.8
	C503.7,364.9,502,364.8,500.2,365.2z"></path>
<path d="M510,349.9c5.7,1.3,11-0.7,16.9-0.8c-0.4,0.5-0.6,1-0.9,1.1c-2.2,1.1-4.5,2.4-6.8,3.3c-2.4,0.9-5,0.7-7.4-0.3
	C510.5,352.9,509.6,352,510,349.9z"></path>
<g id="Color">
	<path class="st1" d="M248.4,472.2c-2.1,3-4.4,5.7-6.1,8.7c-4.2,7.6-7.2,15.7-8.4,24.3c-1.6,10.9,1.1,20.7,8.8,28.8
		c2.2,2.3,5.1,4.3,7.6,6.2c0.9,0.7,2.1,1.3,3,2.2c-4.5-0.9-8.9-1.8-13.4-2.8c-11.7-2.8-23.3-6-35-8.6c-10.4-2.3-21.1-4.4-31.5-6.5
		c-7-1.4-13.9-3-21-3.3c-4-0.1-7.9,0-11.9,0.3c-6.3,0.5-12.4,1.6-18.2,4.1c-0.8,0.3-1.7,0.8-2.5,1.3c0,0.2,0.1,0.3,0.1,0.5
		c0.4,0.1,0.8,0.2,1.3,0.2c2.5-0.1,5.1-0.4,7.6-0.4c3.3,0,6.8,0,10.1,0.2c5.6,0.3,11.3,0.5,16.9,1.1c6,0.7,11.9,2,17.8,3
		c14.3,2.3,28.5,5.2,42.5,8.7c10.3,2.5,20.8,4.8,31.3,6.3c3,0.4,6.3,0.6,9.3,0.8c3.2,0.2,6.2-0.8,8.9-2.4c0.8-0.5,1.8-1,2.7-1.1
		c7.1-1,12.6-4.7,16.9-10.1c4.6-5.7,8.5-11.9,10.4-18.9c1.8-6.6,1.6-13.1-0.8-19.4c-2.5-6.6-7.1-11.3-13.7-13.9
		c-6.5-2.5-13.4-1.3-17.8,5.5c-2.2,3.3-4,7-4.4,11c-0.4,4.2,0.5,8,2.7,11.7c2.1,3.3,5.3,4.6,9.2,4.1c4.4-0.5,8.6-4.4,9.4-8.5
		c0.4-2.1,0.2-4.2-1.6-5.8c-2-1.9-4.4-1.9-6.7-1.3c-1.6,0.4-2.4,2.1-2.5,3.8c-0.1,0.9,0.2,2,0.3,2.9c0.1,0.8,0.4,1.6,0.6,2.4
		c-2.2,0.6-3.7-0.1-4.8-1.8c-0.3-0.5-0.6-1.1-0.8-1.8c-1.8-5.1,0.5-12.2,5-15.1c2.5-1.8,5.4-2.4,8.5-1.3c7.3,2.6,11.7,7.8,13.1,15.5
		c1,5.8,0,11.2-2.5,16.5c-2.4,5.1-5.4,9.7-9.4,13.8c-6.3,6.2-17.6,8.7-26.4,3.4c-7.9-4.7-13.3-11.2-15.2-20.3
		c-1-4.8-0.7-9.4,0.3-14.1c1.6-7.3,4.2-14.3,7.6-20.9c1.8-3.2,4.1-6.1,7.2-7.9c0.8-0.5,2-0.9,3-0.9c9.5,0,18.9-0.1,28.5,0.2
		c6,0.2,11.8,1.4,17.5,2.1c0.5,0.1,1,0.2,1.5,0.2c5-0.1,7.9,2.9,10.1,6.9c2.6,4.5,4.3,9.3,4.3,14.7c0,4,0.4,7.9,0.2,11.9
		c-0.3,6.8-0.9,13.5-1.6,20.3c-0.4,4.7-1,9.4-1.8,14.1c-1,7.3-2.1,14.7-3.1,22c-0.9,6.6-1.9,13.2-2.8,19.8c-0.6,4.5-1,8.9-1.8,13.4
		c-0.1,0.9-0.9,1.9-1.6,2.7c-3.6,4.9-7.4,9.6-10.9,14.6c-4.3,6.2-7.4,12.9-10.1,19.9c-4.1,10.4-7.5,21.2-9.5,32.3
		c-2.3,12.6-1.3,24.9,3.8,36.8c2.2,5.2,5.6,9,11.2,10.5c4.6,1.4,9.3-0.1,12.3-3.8c2.4-2.9,4.6-6.2,4.7-10.1c0.1-1.8,0-3.7-0.2-5.5
		c-1-8.2-1.8-16.4-2.2-24.6c-0.3-6.7-0.1-13.4,1.1-19.9c1.3-6.5,4.3-12.3,7.8-17.8c0.1-0.1,0.3-0.1,0.5-0.2
		c-0.1,3.3-0.2,6.8-0.3,10.1c-0.1,2.4-0.3,4.9-0.4,7.3c-0.5,7.6-0.9,15.1-1.5,22.8c-0.2,4.3-0.4,8.5-0.6,12.6
		c-0.3,8.8-0.7,17.5-1,26.3c-0.2,6-0.4,11.9-0.5,17.8c-0.2,14.8-0.4,29.7-0.5,44.4c0,4.2,0.3,8.2,0.5,12.5c-0.3,0-0.6,0.1-0.8-0.1
		c-4.8-2.4-9.9-3.2-15.1-3.6c-5.1-0.3-10-0.8-15.1-1.4c-6.7-0.7-13.5-1.3-20.2-2.3c-10-1.7-19.9-3.7-29.9-5.6
		c-10.7-2.1-21.4-4.3-32.1-6.5c-13.5-2.7-26.5-6.5-39.8-9.9c-14.1-3.7-28.3-6.8-42.5-10.1c-5.7-1.4-11.7-2.3-17.1-4.6
		c-0.7-0.3-1.6-0.5-2.6-0.9c0-4.2,0-8.2,0-12.4c0-7.1,1-14.1,2.1-21.2c0.8-5.4,1.4-10.9,1.9-16.3c0.8-9.5,1.7-18.9,2.3-28.5
		c0.5-7.6,0.9-15.4,0.3-23.1c-0.4-4.3-0.5-8.5-0.7-12.6c-0.5-11.1-1.6-22.2-4.1-33.1c-2.6-12.1-5-24.1-7.9-36.1
		c-4-15.7-9-31-14.5-46.2c-5.4-14.8-10.2-29.9-13.9-45.3c-2.1-9.3-3.7-18.7-5.3-28.1c-1.9-10.5-3.7-21.1-5.3-31.6
		c-1.6-10.7-3-21.4-4.5-32.1c-0.7-6-1.1-12-1.6-17.9c-0.4-7.2-0.7-14.3-1-21.5c-0.2-6.9-0.4-13.9-0.5-20.8c-0.2-11-0.5-22-0.5-33
		c0-12.3,0.9-24.4,2.4-36.7c0.8-7.2,1.7-14.4,2.6-21.6c3.6-28.2,11.3-55.2,23-81.2c7.1-15.7,15.1-30.8,24.9-45
		c6.1-8.8,12.7-17.1,20-24.9c10.3-10.9,21.6-21,34-29.6c12-8.2,25.2-14.2,38.8-19c9.4-3.3,18.9-6.7,28.9-8.7
		c6.6-1.3,13.2-2.3,19.8-2.5c6.7-0.2,13.4-0.5,20-0.4c5.6,0.1,11.1,0.5,16.7,0.9c6.8,0.5,13.7,0.8,20.5,1.8
		c16.2,2.3,32.5,4.4,48,10.1c2.9,1.1,6,2.4,8.9,3.8c4.1,1.9,7.9,4,11.9,5.8c9.8,4.7,18.8,10.7,26.9,17.8c8.2,7.2,15,15.6,21,24.6
		c10.4,16.2,19.4,33.1,25.9,51.3c4.4,11.9,8,23.8,11.1,36c2.9,11.4,5.5,23,7.2,34.8c0.2,1,0.4,2.1,0.6,3.3
		c-4.1,1.5-8.1,2.9-12.4,4.6c-0.6-1.7-1.1-3.2-1.8-4.8c-1.3-3.2-2.6-6.6-3.7-9.9c-2.5-8.1-3.7-16.6-5.2-25c-1.5-9-2.4-18-4.2-26.9
		c-1.7-9.1-4.1-18-7.1-26.6c-3.1-8.8-8.9-15.5-17.5-19.4c-3.8-1.8-7.5-1.5-11.2,0.1c-0.3,0.1-0.6,0.2-1,0.4c-4.1-4.4-9.7-5.5-15-7.1
		c-5.7-1.7-11.4-0.8-16.8,1.6c-6.4,2.7-11.9,6.8-16.9,11.3c-11.7,10.3-21.4,22.3-31.4,34c-8.8,10.1-17.6,20.3-26.6,30.2
		c-5.4,6.1-11,12-16.7,17.6c-4.6,4.7-9.5,8.9-14.2,13.5c-3.1,3-6.3,6.2-9.4,9.2c-0.5,0.5-1,1-1.6,1.6c-1.8,2-4,2.9-6.8,2.3
		c-2.2-0.5-3.7,0.4-4.9,2.5c-5.5,10.3-11.3,20.7-16.7,31c-5.5,10.5-9.6,21.8-14.1,32.8c-7.3,18.4-15,36.7-22.2,54.9
		c-6.8,17-14.9,33.5-22.2,50.3c-5.4,12.4-9.5,25.1-11.5,38.5c-0.3,2.4-0.4,4.9-0.6,7.3c-0.2,4.1-0.4,8.1-0.5,12.2
		c0,1.8,0.2,3.4,0.3,5.3c0,1.4,0,2.8,0,4.3c-0.1,1.5,0.5,2.6,1.8,3.3c2.2,1.3,4.5,2.9,6.8,3.8c13.9,5.2,27.9,9.9,42.7,11.9
		c9.6,1.3,19.2,2.4,28.9,3.2c6.9,0.6,13.9,0.7,20.8,1C245.4,471.9,246.9,472.1,248.4,472.2z" style="fill: rgb(24, 136, 75);"></path>
	<path class="st1" d="M315.3,436.6c-2.2-0.7-4.1-1.1-5.8-1.9c-9.6-3.8-19.4-7.6-29-11.7c-4.4-1.8-8.5-4.2-12.7-6.3
		c-12.1-6.1-24.1-11.9-36.9-16.3c-1.8-0.6-3.4-1.1-5.5-1.7c0.2-1,0.3-2.1,0.6-3.1c2.8-8.9,5.6-17.9,8.8-26.6
		c3-8.2,6.7-16.4,10.2-24.5c4.8-10.7,8.1-21.8,10.8-33.2c0.6-2.7,0.7-5.7,1.1-8.5c0.8-6.2,1.7-12.2,1.7-18.4c0-3.1-0.7-6.2-1.8-9.7
		c-0.5,1.3-1,2-1.3,2.8c-0.4,2.5-0.9,5.2-0.9,7.7c0.1,5.1-0.5,10-1.3,15.1c-0.7,5.3-1.4,10.4-2.6,15.7c-3.3,13.8-9.2,26.6-14.8,39.6
		c-3.2,7.6-6.8,15.4-9.1,23.4c-1.5,5.3-2.8,10.5-4.3,15.9c-0.2,1-0.2,2.1-0.4,3.4c-1.8,0.1-3.6,0.2-5.5,0.4c-5,0.5-9.6,1.8-14.1,4.1
		c-1.5,0.7-2.8,1.9-4.2,2.8c-1.1,0.9-1.4,2.2-0.4,3.8c6.9-1.6,13.2-5.3,21-5.3c-1.7,1.8-3.1,3.2-4.6,5c-1.4,1.6-2.5,3.3-3.4,5.3
		c3.2-3.3,6.8-6.6,10.9-9.8c-0.1,1-0.1,1.7-0.2,2.3c-1.3,5.6-2.5,11.2-3.8,16.8c-0.2,0.7,0,1.5,0.2,2.3c3.6-6.7,7.3-13.3,7.6-21.4
		c1,0.3,2,0.4,2.9,0.7c10.8,3.7,21.3,8.1,31.4,13.5c15.6,8.1,31.8,14.5,48.1,20.8c2.1,0.8,4.4,1.4,6.9,2.1c0,9.9-0.8,20.3,1,30.7
		c-2.1-0.3-3.8-0.5-5.5-0.7c-7.7-1.3-15.5-2.6-23.3-3.7c-3.2-0.4-6.6-0.5-9.8-0.6c-13.1-0.1-26,0-39.1-0.3
		c-10.7-0.3-21.4-1-32.1-2.5c-5.8-0.8-11.8-1.3-17.5-2.3c-6.5-1.1-12.9-2.7-19.2-4.4c-5.7-1.5-11.4-3.1-17-4.9
		c-3.6-1-4.6-1.6-6.6-3.2c1.5-2.4,0.8-5.2,0.9-7.8c0.3-6.8,0.4-13.6,1-20.3c1-10.7,4-21.1,8-31c4.8-11.4,9.9-22.6,14.8-33.8
		c3.3-7.7,6.7-15.6,9.8-23.3c5.6-13.6,11.2-27.3,16.6-40.8c3.7-9.3,7-18.6,10.5-28c4.2-10.5,8.8-20.9,14.3-30.8
		c3.4-6.3,6.8-12.7,10-19c0.3-0.6,0.7-1.3,1.1-2c4.4,0.4,8.7,0.7,12.9,1.3c5.4,0.6,10.7,1.4,16.1,2.2c6.2,0.9,12.3,2.2,18.4,3.2
		c7.1,1.1,14.2,2.2,21.5,3.2c1.4,4.7,4.4,8.8,7.1,13.1c2,3,4.6,5.5,7.8,7c5.2,2.3,10.3,4.6,15.7,6.6c4.8,1.8,9.9,1.9,15,2.1
		c3.6,0.1,7.3-0.2,10.9-0.5c1.5-0.1,2.9-0.6,4.4-1.3c5.3-2.6,10.4-5.5,14.9-9.5c2-1.8,4.2-3.3,5.6-5.8c0.4-0.7,1.7-1,2.5-1.3
		c10.2-2.8,20.4-6.3,30.3-10.2c11.2-4.6,22.3-9.3,33.5-13.9c3.1-1.3,6.6-2.2,9.9-3c6.4-1.6,10,0.8,12.4,6.4
		c2.1,5.3,3.6,10.9,4.4,16.6c0.8,6.8,1.9,13.6,2.7,20.4c0.5,4,0.8,7.8,1.3,11.9c1.4,10.9,2.7,21.9,4.3,32.8c0.6,4.5,1.3,8.8,2,13.3
		c0.1,0.4,0.1,0.8,0.1,1.9c-1.3-1.1-2.1-2-2.9-2.8c-2-2-4.4-3.8-7.1-4.8c-2.5-0.8-3.4-0.5-4.1,2.1c-0.7,4.1-1.4,8.1-1.7,12.3
		c-0.5,6.6-0.7,13.2-1,19.7c0,0.3-0.1,0.6-0.2,1c-1.5-1.8-2.7-3.7-4.4-5.1c-3-2.5-6.3-4.9-9.6-7.1c-1.6-1-3.3-1.3-5.4-0.6
		c-0.9,0.3-2,0.3-2.9,0.5c-3.2,0.7-6.6,1.5-9.8,2.2c-0.8,0.2-1.6,0.5-2.5,0.7c0.5-2.8,1.1-5.3,1.5-7.9c0.6-5.2,1.1-10.3,1.5-15.6
		c0.6-7.5,1-15,0.8-22.6c0-1.5-0.2-3-0.5-4.6c-0.2-1-0.4-2.2-2.1-2.3c-1.6,18-3.1,36-4.8,54.2c-2.2,0.7-4.7,1.7-7.2,2.4
		c-0.4,0.1-1.1-0.1-1.7-0.3c-2.2-1.1-4.4-2.3-6.5-3.4c-9.4-5.2-19.5-8-30.2-8.8c-14-0.9-27.4,1.6-39.8,7.9
		c-8.8,4.5-17.1,9.5-24.2,16.5c-8.5,8.2-15.7,17.4-19.9,28.7c-1.9,5-2.7,10-3.4,15.2c-1.3,9.2,0.3,18,2.8,26.7
		c1.3,4.4,3.4,8.2,6.1,12C310,428.8,312.4,432.4,315.3,436.6z M319.2,261.4c0.2,0,0.3,0,0.5,0c0.3-1.3,0.6-2.5,1-3.7
		c0.5-1.6,1.3-3,1.8-4.7c0.5-1.6,0.2-2.3-1.1-2.8c-1.4-0.4-2.2-0.1-2.4,1.6c-0.4,2.3-0.5,4.7-0.6,7
		C318.4,259.6,318.9,260.5,319.2,261.4z M377.1,257.4c-1.6-2.1-2.8-4.1-4.4-5.8c-0.6-0.7-1.6-1.3-2.4-1.6c-1.1-0.4-1.8,0.2-1.6,1.4
		C369.1,254.8,373.3,257.9,377.1,257.4z M288.5,230.4c5.3,0.5,9.9-1.1,11-4c-1.8-1.6-3.7-0.6-5.4,0C292,227.1,289.7,228,288.5,230.4
		z M354.3,265.6c0-2.3,0-4.5,0-6.7c0-1.3-0.3-2.5-1.4-3.3c-0.5-0.3-1.3-0.5-1.8-0.3c-0.3,0.1-0.7,1-0.5,1.5c0.5,2.4,1.1,4.9,1.9,7.3
		C352.6,264.8,353.1,265.9,354.3,265.6z M365.7,263c0.4-2.8-1-7.5-2.6-8.9c-0.7-0.6-1.6-0.9-2.7-0.3
		C360.2,257.8,363,260.2,365.7,263z M308.4,256.2c0.2,0.1,0.4,0.1,0.7,0.2c2-2.9,4.2-5.7,5.6-8.9c0.3-0.7,0.8-1.6-0.3-2.1
		c-1-0.5-1.8,0.1-2.2,1c-0.8,1.9-1.7,3.8-2.4,5.8C309.2,253.5,308.7,254.9,308.4,256.2z M293.1,239.7c4.1-0.4,9.3-4.1,10.1-6.6
		c-0.7-0.8-1.6-0.3-2.3,0C297.9,234.6,295.3,236.7,293.1,239.7z M377.9,245.7c-0.2,2.3,0.1,3.2,1.8,4.3c1.9,1,3.8,2.1,6.6,1
		C383.2,248.9,381.7,245.6,377.9,245.7z M330.7,263.4c0.4-2.7,0.8-5,1.1-7.2c0.1-0.5,0.1-0.9,0.2-1.5c0.1-1-0.4-1.8-1.6-1.9
		c-1-0.1-1.5,0.7-1.5,1.6c0.1,2.3,0.2,4.7,0.5,7C329.6,262,330.2,262.5,330.7,263.4z M342.3,264.1c0.2,0,0.4,0,0.6-0.1
		c0.1-2.3,0.3-4.8,0.2-7.1c0-1.5-1-1.8-3-1C340.1,258.9,340.7,261.6,342.3,264.1z M391,241.2c-2.5-1-5-2.6-7.9-2.4
		c-0.2,2.3,0,2.9,1.6,3C386.9,242.2,388.9,242.4,391,241.2z M307.9,240.6c-1.7-0.3-1.8-0.3-2.3,0.5c-1.1,1.7-2.2,3.4-3.2,5.3
		c-0.2,0.4-0.2,0.9-0.4,1.8C306.1,244.8,307.9,242.5,307.9,240.6z" style="fill: rgb(145, 86, 86);"></path>
	<path class="st1" d="M588.4,552.8c1.4-0.1,2.5-0.2,3.6-0.2c7.3,0,14.2-1.7,21.2-3.6c2.6-0.7,2.8-3.1,3-5.3c0.2-1.7-0.2-3.4-0.2-5.3
		c-0.1-6.1,0.1-12-0.2-18c-0.4-7.1,0-14.2-1.1-21.2c-0.4-2.6-1-5.5-0.3-8.2c0.2-0.8,0.3-1.4,1-2c1.8-1.5,1.4-3.2-0.7-4.4
		c-0.6-0.3-1.4-0.6-2.1-0.9c-3.8-1.3-7.6-2.8-11.5-4c-3.1-0.8-6.5-1.1-9.7-1.8c-2.5-0.5-5.1-1.3-7.7-1.8c-1.3-7.2-2.7-14.2-3.8-21.3
		c-1.6-10.3-5.2-20-11.4-28.4c-4.8-6.5-10.1-12.6-17.5-16.1c-6-2.8-12.2-5-18.9-5c-3,0-6.1-0.4-9.1,0.3c-0.4,0.1-1,0-1.4-0.3
		c-4.2-2.3-8.1-4.8-12.2-7.2c-0.2-0.1-0.4-0.3-0.4-0.3c1.4-3.8,2.5-7.5,4-11.1c0.2-0.6,0.7-1.4,1.3-1.7c1.3-0.8,2.6-1.6,4.1-2.1
		c3.4-1.4,6.4-3.6,8.6-6.6c4.7-6.2,8.2-12.8,9.2-20.6c0.2-1.9,0.1-4,0.2-5.8c0.1-1.8,0-3.6,0.2-5.3c0.3-2.6,1-5.1,2.7-7.2
		c2.5-3.1,4.6-6.6,5.8-10.3c0.1-0.4,0.4-0.7,0.5-0.9c3.7,0,7.2-0.2,10.8,0c7.6,0.5,15.4,1,23,2c10.9,1.3,21.8,2.5,32.7,4.3
		c12.2,1.9,24.3,4.1,36.4,6.6c18.2,3.8,35.4,10.4,50.5,21.5c8.2,6,13.8,14,17.1,23.4c2.9,8.2,2.3,16.6-0.7,24.7
		c-4.9,12.7-13.9,21.4-26.2,26.6c-6,2.5-12.1,4.4-18.6,4.2c-3.7-0.1-7.4-0.8-10.9-2.1c-2.5-0.9-4.1-2.8-5-5.1
		c-0.5-1.3-0.2-2.8-0.1-4.3c0.4-4.8,0.9-9.5,1.3-14.3c0.6-9.4,3.6-17.8,9.6-25.1c4.1-5,9.3-6.9,15.6-5.5c2,0.4,4,0.9,5.8,1.8
		c4,1.7,5.7,4.9,5.2,9.1c-0.6,5.1-3.4,8.8-8,11.9c0.1-0.8,0.1-1.4,0.2-1.9c0.8-3.1-0.7-5.1-4.2-5.6c-2.1-0.3-4.3,0.3-6.1,1.5
		c-2,1.1-2.9,4-2.1,6.6c1.6,5.4,5.5,8.2,11.3,7.2c3.1-0.6,6-2.1,8.1-4.5c4.4-4.7,7-10.1,6.9-16.6s-2.9-11.3-8.9-14.2
		c-7.7-3.7-15.2-3.8-22.9,0.3c-2.3,1.3-4.2,3.1-5.7,5.3c-6.1,8.2-9.6,17.4-10.4,27.7c-0.7,8-1.7,16.1-2.3,24.1
		c-0.4,5.2-0.6,10.4-0.7,15.7c-0.2,6.9-0.3,13.9-0.3,20.9c0,8.8,0.1,17.5,0.5,26.3c0.4,8.2,1.5,16.4,2.3,24.6
		c0.5,5.1,0.9,10.2,1.6,15.4c2.1,18.4,4.1,36.9,7,55.1c2.2,13.6,4.3,27.3,6.1,40.7c1.4,9.8,2.3,19.8,3.2,29.7c0.8,8.2,1.4,16.6,2,25
		c0.5,7.4,0.9,14.8,1.6,22.2c0.3,4.8,0.9,9.5,1.4,14.4c0.3,3.4,0.7,7.1,1,10.5c0,0.3,0,0.6-0.1,1.3c-3.8,0.7-7.6,1.5-11.4,2
		c-7.2,0.9-14.4,1.7-21.6,2.5c-13.1,1.7-26.1,3.2-39.1,6.1c-0.4,0.1-0.8,0.1-1.5,0.1c-0.6-3.8-1.4-7.5-2-11.2
		c-2-12.2-4.1-24.2-6-36.4c-1.1-7.8-2-15.7-2.8-23.6c-2.1-19.7-1.5-39.5-1.5-59.3c0-4.4,0.1-8.7,0.2-12.9c0.2-9,0.3-18.1,0.5-27.1
		c0.1-7.3,0.2-14.7,0.3-22C588.4,554.7,588.4,554,588.4,552.8z" style="fill: rgb(24, 136, 75);"></path>
	<path class="st1" d="M524.3,434.6c1.9,1.7,2.4,3.8,2.7,6.2c1.4,9.7,3.1,19.2,5.6,28.8c1,4.2,2.5,8.2,4,12.3
		c0.4,1.1,0.4,2.2,0.1,3.3c-5,19.5-10.5,38.7-16.5,58.1c-6.4,20.3-13.4,40.2-20.7,60.1c-3.4,9.3-6.6,18.8-9.8,28.2
		c-0.2,0.5-0.4,1-0.7,1.9c-6.3,0-12.6,0-18.9,0c-4,0-7.7-0.2-11.7-0.4c-9.6-0.3-19.1-2-28.6-4.3c-6.7-1.6-12.9-4.5-19.5-6.9
		c0.1-2.2,0.2-4.4,0.3-6.5c0.1-3.3,0.2-6.8,0.3-10.1c0.3-11.9,1.3-23.7,3.3-35.5c1.7-9.5,4.7-18.6,8.7-27.5
		c7-15.2,15.7-29.6,26.1-42.7c7.7-9.7,15.7-19.5,23.4-29.3c0.6-0.7,1-1.6,1.6-2.4c-1.5-0.8-2.4-0.2-3.1,0.5c-2,2-4.2,4.1-6.1,6.2
		c-3.7,4.1-7.1,8.2-10.9,12c-2.7,2.6-6,5.1-9.3,7c-15.4,8.8-31.1,16.7-47.6,23.1c-1.3,0.4-2.5,0.8-4.1,1.4
		c0-18.1-4.3-34.8-14.7-49.6c0.8-0.3,1.3-0.5,1.7-0.6c12.9-2.3,25.6-5.7,38.1-9.5c10.2-3,19.5-8.1,28-14.6c1.4-1,2.7-1.5,4.5-1.5
		c8.9,0.2,17.8,0.7,26.6,0.6c8.5-0.1,16.9,0.1,25.3-0.8c7.2-0.8,14.1-2.6,20.4-6.5C523.2,435.1,523.8,434.9,524.3,434.6z" style="fill: rgb(247, 193, 180);"></path>
	<path class="st1" d="M313.9,789.6c-0.2-3.6-0.5-6.9-0.5-10.1c-0.1-8-0.1-16.1,0-24.1c0.1-6.2,0.5-12.3,0.7-18.4
		c0.2-4.9,0.1-9.8,0.2-14.7c0.1-8.6,0.3-17.2,0.5-25.8c0.1-4.8,0.3-9.4,0.5-14.2c0.2-5.6,0.6-11.3,0.8-16.9c0.2-8.6,0.3-17,0.5-25.6
		c0-2.2,0.2-4.5,0-6.6c-0.4-3.3,0.9-5.7,3-8.1c5.3-6.2,11.7-11.1,17.9-16.1c4.1-3.2,8.2-6.3,12.2-9.5c8.7-7.2,16.7-15,23.5-24
		c0.3-0.4,0.6-0.7,0.9-1.1c3.4,0.6,6.9,0.5,10.3,0.2c4.5-0.4,8.9-0.6,13.5-0.8c3.4-0.2,7-0.4,10.8-0.6c-0.4,3.2-0.8,6.4-1.1,9.4
		c-0.3,3.2-0.8,6.6-0.9,9.8c-0.4,9.3-0.8,18.6-0.8,27.9c0,7.7,0.5,15.6,0.7,23.3c0.2,5.8,0.4,11.7,0.7,17.4c0.3,6.1,0.8,12,1.3,17.9
		c0.3,4.1,0.4,8.1,0.7,12.2c0.6,6.8,1.5,13.6,2.2,20.4c0.3,3.6,0.5,7.2,0.8,10.8c0.4,6.1,0.9,12.1,1.3,18.2
		c0.2,4.6,0.1,9.1,0.1,13.7c-0.1,4.6-0.1,9.1-0.3,13.7c-0.1,3.1-0.4,6.4-0.6,9.6c-0.6,0.2-1,0.5-1.5,0.4c-4.6-0.4-8.9,0.8-13.4,1.5
		c-16.6,2.3-33.3,4.7-49.9,6.9c-9.4,1.3-18.8,2-28.2,3C317.8,788.9,316.1,789.2,313.9,789.6z" style="fill: rgb(24, 136, 75);"></path>
	<path class="st1" d="M434.1,353.3c-0.4,0.7-0.7,1.4-1.3,2.1c-3.4,5.4-7.1,10.7-10.3,16.2c-1.9,3.1-3.7,6.5-4.5,10.1
		c-0.3,1.9-0.1,3.7,0.5,5.5c0.6,1.8,1.7,2.1,3,0.9c1.8-1.4,3.4-2.9,4.9-4.8c3.3-4.5,6.6-9,9.8-13.6c2.3-3.1,4.7-6.5,7.1-9.5
		c0.8-1,1.9-1.8,3.2-2.4c-0.8,1.9-1.5,4-2.4,5.7c-2.5,5.1-2.6,10.3-1.7,15.9c0.3,1.8,0.7,3.6,1.1,5.4c0.1,0.6,0.3,1.3,0.6,1.9
		c1.1,2.8,2.2,3.1,4.6,1.1c3.4-2.9,5-6.9,5.5-11.3c0.3-3,0.5-6.3,0.9-9.3c0.3-2.6,1.3-5,2.8-7.5c0.8,4.3,1.5,8.2,2.3,12.1
		c0.3,1.4,0.7,2.8,1.5,4.1c1.9,2.5,3.2,2.2,5,0.4c1.7-1.7,2-3.8,2.5-6c0.2-0.8,0.2-1.7,0.3-2.9c0.8,0.6,1.5,1,2.1,1.5
		c3.4,2.7,7.1,5.5,10.5,8.2c4.2,3.1,8.8,5.7,13.5,8c2,1,3.8,2.4,5.6,3.8c0.9,0.7,1.7,0.9,2.7,0.5c1.4-0.5,2.6-1,4.5-1.8
		c-0.7,2.8-2.2,5.2-3.1,8.1c-8.9-5.7-18.5-9-28.7-11.3c0.4,0.4,0.7,1,1.1,1.3c1.4,0.7,2.6,1.5,4.2,1.9c6.5,2,12.3,5.3,18,8.8
		c6.4,4,12.5,8,18.9,11.9c4.7,2.8,9.5,5.5,13.9,9c2.9,2.4,6.1,4.9,8.8,7.6c1.5,1.5,2.5,3.3,3.3,5.3c2.7,6,4.3,12.3,5.3,18.7
		c1,7,1.9,14,2.3,21.2c0.3,5.7,0.2,11.3-1.1,16.8c-0.2,0.8-0.4,1.6-0.7,2.4c-0.9,2.3-1.4,2.6-4.3,3.4c-2.4-2.3-4.4-5.3-5.3-8.6
		c-2.8-9.1-5.6-18.2-7-27.8c-0.8-5.8-1.9-11.7-2.6-17.4c-0.5-4.1-2.3-7.3-4.9-10c-1.8-2-4-3.8-6.1-5.3c-6.4-4.6-13.5-7.5-21.1-8.8
		c-5.2-0.8-10.3-1.7-15.6-2.4c-1-0.2-2.1,0-3.2,0c-0.6,1.5,0.1,2.4,1.1,2.9c1.8,0.9,3.6,1.9,5.5,2.3c5.6,1.4,11.3,2.1,16.8,3.7
		c6.6,1.8,12.4,5.5,17.5,9.8c0.3,0.2,0.5,0.6,0.9,1c-2.7,1.7-5.7,2.7-8.7,3.7c-4.7,1.4-9.4,1.9-14.3,2c-7.8,0.2-15.8,0.2-23.6,0.3
		c-6.3,0-12.5,0-18.7,0c-1.7,0-3.3-0.2-5.3-0.4c0.4-0.6,0.7-1.1,1-1.6c1-1.6,2.2-2.9,3-4.7c1-2.3,0-3.7-2.5-3.1
		c-1.3,0.2-2.5,0.9-3.6,1.6c-5.8,3.3-11.7,6.9-17.4,10.2c-0.8,0.5-1.8,0.8-2.9,0.9c0.6-0.5,1.3-1.1,1.9-1.7
		c4.3-3.7,8.7-7.3,12.8-11.2c5.6-5.4,10.4-11.4,15-17.9c1.3-1.8,2-4,2.9-5.8c0.2-0.5,0.3-1.1,0.4-1.7c0.1-1.5-1-2.3-2.4-1.9
		c-0.6,0.2-1.1,0.6-1.7,1c-4.5,3.4-9,6.9-13.3,10.5c-2.8,2.5-5.2,5.6-7.7,8.4c-2.3,2.5-4.8,4.8-8.1,5.8c0.7-0.7,1.5-1.4,2.1-2.1
		c0.7-0.7,1.5-1.6,2.3-2.3c7.7-7.6,14.3-16.2,20.6-25.1c1.1-1.7,2.1-3.4,2.9-5.3c0.7-1.7-0.2-2.8-2-2.6c-1,0.1-2.2,0.5-3,1
		c-6.7,4.8-13.9,8.8-19.9,14.4c-2.1,1.9-4,4.2-5.8,6.4c-3.7,4.1-8,7.2-13.4,9.1c1.5-1.7,2.9-3.2,4.4-5c0.9-1,1.9-2.1,2.6-3.3
		c3.8-6.6,9-12,13.7-18c1.5-1.9,3.1-3.4,3.8-6.1c-0.9-1.6-2.4-1.3-3.8-0.6c-2.5,1.3-5.2,2.4-7.5,4.2c-6.4,4.4-12.5,8.9-18.7,13.5
		c-6,4.4-12.1,8.4-18.9,11.2c-2.1,0.8-4.5,1.5-6.7,2.2c-0.1-0.1-0.3-0.3-0.4-0.4c0.4-0.7,0.7-1.6,1.1-2.3
		c4.1-6.2,8.4-11.9,14.1-16.5c2.2-1.8,4.2-4.1,6.2-6.1c0.2-0.2,0.4-0.3,0.5-0.5c0.4-0.9,1.4-2.3,1-2.8c-0.5-0.8-1.9-1-2.9-1.5
		c-0.4-0.1-1,0-1.5,0.1c-6.9,1.9-13.7,4.2-19,9.1c-2.8,2.6-5.4,5.8-7.7,9c-3.4,4.9-7.5,9.3-11.8,13.7c-2,2-4,4.2-6.2,6.1
		c-7.2,6.4-15.9,9.5-24.9,12c-0.5,0.1-1,0-1.7-0.1c-0.2,0-0.4-0.2-0.7-0.2c-5.8-0.6-9.2-4.8-12.3-8.9c-2.7-3.6-4.9-7.7-7.2-11.7
		c-2.7-4.5-3.8-9.4-4.8-14.4c-2.4-12.9-0.6-25.4,5.6-37.1c9.5-18,24.4-30.2,43.1-38c6.8-2.8,13.8-5.2,21.2-5.7
		c14.4-1.1,28.4,0.8,41.4,7.4c1.7,0.8,3.4,1.6,5.7,2.6c-1.9,0.7-3.3,1.4-4.9,1.9c-4.5,1.6-8.7,3.7-12.4,6.9c-0.5,0.4-1,0.8-1.5,1.4
		c-1.5,1.9-0.7,4.3,1.7,4.5c2.1,0.2,4.4,0,6.6-0.2c3-0.4,6.2-1,9.2-1.6c0.8-0.1,1.6-0.2,2.8-0.3c-0.6,0.8-0.8,1.3-1.3,1.7
		c-5.1,6.1-9.2,12.7-12.5,19.9c-0.6,1.3-1,2.6-1.4,4.1c-0.2,0.7-0.3,1.5-0.2,2.2c0.2,3.4,2.3,4.7,5.1,2.4c2.8-2.2,5.4-4.9,7.8-7.5
		c2.6-2.8,5.1-6,7.6-8.9C429,356.5,431.3,354.6,434.1,353.3z" style="fill: rgb(211, 182, 224);"></path>
	<path class="st1" d="M512.4,661.3c4.8-0.4,8.9-0.7,13.2-1c8.7-0.7,17.1-2.8,25.5-5.2c8.9-2.5,17.5-5.6,26.2-8.7
		c2-0.7,3.8-2.1,5.8-3.2c0.1,0.4,0.2,0.9,0.2,1.5c0.1,4.7,0,9.3,0.2,14c0.3,5.8,0.7,11.7,1.3,17.3c0.4,5.2,0.8,10.3,1.6,15.6
		c0.9,7.3,2.1,14.7,3.2,22c1.4,9.1,2.8,18.2,4.4,27.3c1.4,8.8,3,17.4,4.4,26.2c0.8,6.4,1.4,12.7,1.9,19.1c0.3,5.5,0.1,11,0.6,16.5
		c0.7,8.7,2.7,16.9,7.1,24.6c2.4,4.3,4.8,8.6,7.1,12.9c4,7.4,6.4,15.5,8.5,23.5c1.9,7.2,5.2,13.6,10.4,18.8c3.3,3.4,7.6,6,12,7.9
		c3,1.4,6.4,2.3,9.4,3.6c4.7,2,9.3,4.1,13.9,6.3c3.2,1.6,5.5,4.2,6,8c-2.5,2.1-5.8,2.3-9,2.4c-6.4,0.2-12.7,0.2-19,0.3
		c-6,0.1-11.9,0.5-17.8,0.4c-4.9-0.1-9.7-0.2-14.6-1.7c-2.7-0.8-5.1-2.2-6.9-4.5c-4.4-5.2-8.8-10.2-13.2-15.5
		c-3.6-4.3-7.9-7.4-13.3-9c-5-1.4-9.5-3.4-13.6-6.7c-0.8-0.6-1.8-1.3-2.7-1.8c-4.5-2.6-7.7-6.5-10.3-10.9c-2.7-4.5-3.2-9.1-1.7-14.1
		c0.9-3.2,2.4-6.4,4.3-9.2c3.7-5.6,6.5-11.8,7.8-18.3c1.4-6.3,1.4-12.7,1-19.1c-0.3-5.8-0.9-11.7-2-17.3c-1.6-9.2-4.5-18-7.5-26.7
		c-4.1-11.8-8.4-23.4-14-34.5c-3.3-6.9-7.2-13.6-10.8-20.5c-5.7-11.1-11.5-22.2-17.1-33.3C513.9,666.1,513.3,663.8,512.4,661.3z" style="fill: rgb(68, 54, 212);"></path>
	<path class="st1" d="M412.1,669.1c9.6,4.7,19.1,7.7,29,9.9c9.8,2.2,19.8,3.7,30.2,3.4c-0.3,1.1-0.6,2.1-0.9,3
		c-6.2,17.3-11.4,35.1-16.1,52.7c-3.8,14.4-7.1,29-10.1,43.6c-1.5,6.9-1.4,14-0.9,21.2c0.6,10.2,3.6,19.9,7.5,29.2
		c2,4.9,4.4,9.7,6.3,14.7c2.8,7.6,4.2,15.7,5.1,23.7c0.8,6.6,2,13.1,4.1,19.2c2.2,7.1,6.4,13.1,11.3,18.4
		c5.6,6.2,12.4,10.7,18.9,15.6c1.8,1.4,3.6,2.7,4.6,5.1c-2.8,0.7-5.6,1.3-8.6,1.3c-5.8-0.1-11.7-0.2-17.5,0
		c-9.4,0.2-18-2.6-26.2-6.7c-4.1-1.9-6.9-5-8.8-9.1c-2.7-6.1-5.8-11.9-9.4-17.3c-4.8-7.4-10.9-13.1-18.8-16.8
		c-7.6-3.7-12.6-9.7-15.5-17.6c-1.4-4-1.4-7.8,0.2-11.7c1.5-3.7,3-7.3,4.8-10.9c4-8.7,6.6-17.6,9.1-26.8c3.4-12.7,5.6-25.7,7.2-38.7
		c0.4-3.3,0.5-6.9,0.5-10.3c0.1-8.2,0.1-16.4,0-24.5c-0.1-5.1-0.4-10.2-0.9-15.5c-0.9-11-2-22-2.9-33c-0.5-5.7-0.7-11.4-1.1-17.1
		C412.5,672.6,412.3,671.1,412.1,669.1z" style="fill: rgb(68, 54, 212);"></path>
	<path class="st1" d="M538.9,488.5c1.4,2.1,2.4,3.8,3.6,5.4c2.7,3.7,5.8,4,9.1,0.6c1.8-1.8,2.7-4.1,3.3-6.5
		c1.3-4.8,1.7-9.6,1.5-14.5c-0.2-7.6-0.9-15.1-2-22.7c-1-7.8-2.6-15.7-6.1-23c-1-2.2-2.3-4.3-4.1-6.1c-4.2-4.7-9.3-8-14.4-11.7
		c-0.5-0.3-1-0.7-1.5-1.3c4.3,0.3,8.4,0.5,12.4,2.1c1.6,0.6,3,1.3,4.7,1.9c4.4,1.6,7.9,4.2,11.1,7.4c2.2,2.3,4.6,4.6,6.7,7
		c6,6.9,9.6,14.9,11.3,23.8c2.2,11.8,4.3,23.6,6.1,35.5c0.8,6,1.3,11.9,1.7,17.9c0.5,7,0.7,14,1,21c0.2,5.3,0.4,10.7,0.5,16
		c0.1,11.1,0.2,22.1,0.2,33.2c0,6.9-0.1,13.7-0.2,20.6c0,0.4-0.1,0.8-0.1,1.5c-4.1,1.6-8.1,3.1-12.3,4.7
		c-16.8,5.8-34.3,9.6-51.8,13.6c-3.1,0.7-6.5,1-10,0.7c0.5-4.2,1.1-8.2,1.7-12.3c0.6-5.4,1.3-10.7,1.9-16.1
		c0.5-4.9,0.9-9.7,1.6-14.6c0.1-1.1,0.6-2.3,0.9-3.3c6.2-19.4,12.6-38.7,17.8-58.5c1.7-6.6,3-13.4,4.6-20
		C538.5,490.2,538.6,489.5,538.9,488.5z" style="fill: rgb(247, 193, 180);"></path>
	<path class="st1" d="M367.7,132.1c3.3-2.1,6.8-4.4,10.1-6.5c4.9-2.9,9.2-6.7,13.1-10.9c1.3-1.4,2.2-3.1,3.3-4.8
		c0.5,1.4,1,2.6,1.6,4.1c1.6,4.4,4.1,8.1,6.9,11.8c3.4,4.5,7.2,8.8,11.5,12.5c1.4,1.3,2.7,2.6,3.1,4.8c-0.3,0-0.4,0-0.5,0
		c-3.6-2.5-7.5-2.3-11.7-1.4s-7.7,3-11.4,4.8c-0.4,0.2-0.8,0.8-0.8,1c0.2,0.4,0.7,1,1.1,1c1.1,0,2.3-0.3,3.4-0.6
		c6.4-1.9,12.9-2.5,19.6-2.3c0.4,0,0.8,0.1,1.4,0.2c1.9,9.6-0.1,18.8-2.5,28.2c-0.1-0.6-0.2-1.3-0.3-1.8c-0.6-3.1-3.2-5.3-6.5-4.7
		c-2,0.4-4,1.8-5.6,2.9c-1.7,1.1-2.5,2.9-2.8,5c-0.5,2.7,2.5,6.2,5.6,6.4c3.1,0.3,5.8-0.6,7.9-3c0.2-0.2,0.3-0.6,0.7-0.7
		c-0.8,5.1-2.1,10-4.4,14.6c-4.9,9.8-11.7,18.4-19.9,25.7c-1.9,1.7-3.8,1.8-6.1,1.4c-5.1-0.9-9.5-3.2-14.2-5.3
		c-7.7-3.3-14.6-8-21.1-13.5c-1.9-1.6-3.4-3.3-5.2-5.2c-1.4-1.5-1.8-1.5-4-0.4c0.8,2,2.2,3.7,3.7,5.3c1.7,1.8,3.6,3.6,5.6,5.1
		c6.6,5.1,13.6,9.5,21.4,12.6c2.9,1.1,6,2.4,9.1,3.8c-0.2,3.1,0.4,6.3,2.2,9c-6.4,5.8-12.9,11.1-20.9,14.7c-4,1.7-8,1.8-12.2,1.7
		c-3.3-0.1-6.8-0.4-10-0.7c-1.4-0.1-2.8-0.3-4.3-0.7c-5.7-2.1-11.4-4.3-17-6.5c-2.4-0.9-4.5-2.7-6.1-4.9c-2.7-3.7-5.7-7.3-7.3-11.4
		c1.6-1.8,3.1-3.3,4.6-5.2c7.2-9.2,13.3-19.1,19.1-29.2c2.9-5.1,6.1-9.9,7.9-15.6c0.4-1.4,0.8-2.7,1.3-4.2c0.7-2.4,0.2-4.6-0.8-7
		c-1.5-3.2-2.3-6.9-2.9-10.3c-0.7-4.1-0.5-8,0.4-12.1c0.5-2.2,1.1-2.7,3.3-2c2.4,0.8,4.9,1.9,7.5,2.9c0.9-1.6,2.8-1.8,4.8-2.2
		c1.7-0.4,3.4-0.7,5.1-1.5c4-1.7,7.9-1.4,11.9-0.3c4.3,1.1,8.6,1.9,12,5.1c1-0.7,1.3-1.6,0.6-2.4c-0.9-1.1-1.9-2.4-3.1-3.1
		C373.4,134.6,370.6,133.5,367.7,132.1z M369,194.9c2.2,1.5,4.5,3,6.8,4.4c4,2.2,8.8,1.4,11.7-1.9c0.6-0.6,0.9-1.6,1.6-2.5
		c-1.6-3.4-3-4.5-7.5-4.5c-0.3,0-0.6,0-0.9-0.1C376.5,189.4,371.5,191.4,369,194.9z M352.9,159.9c-4.6,0-6.8,1.7-7.5,5.8
		c-0.3,1.6,0,3.1,0.6,4.7c1.4,3.2,4.1,5.1,7.4,5.8c3.7,0.8,7.6-1.8,8.4-5.5C362.8,164.8,357.5,159.1,352.9,159.9z M355.6,154.4
		c2.5,5,6.7,7.5,11.9,8.1c1.9,0.2,4.1-0.1,6.1-0.6c1.8-0.5,4-0.6,5.3-2.7c-2.7-0.2-5.3-0.6-7.8-0.5c-4.7,0.2-8.8-0.9-12.5-4
		C357.7,154.1,357,153.6,355.6,154.4z M392.9,162.4c0.2,1.8,1.4,2.2,2.4,2.5c1.4,0.4,2.7,0.6,4.3,0.8c5,0.7,8.8-1.4,12-5.1
		c0.2-0.3,0.3-0.8,0.5-1.5c-3.3,0.9-6.5,2.1-9.5,2.6C399.5,162.3,396.3,162.2,392.9,162.4z M380.8,176.3c0.2,2,0.8,2.7,2.5,3
		c2.3,0.4,5.8-1.4,7.2-3.7C386.2,174.7,383.6,174.8,380.8,176.3z" style="fill: rgb(247, 193, 180);"></path>
	<path class="st1" d="M394.6,106.1c-9.6,10-20.2,18.2-32.1,24.3c-5.2,2.6-10.5,4.8-16.1,7.2c-1.5-3.6-4.6-5.1-7.6-6.4
		c-0.9-0.4-2.1-0.5-3.1-0.4c-4.2,0.6-5.1,1.7-5.8,6.1c-1.1,6.7-0.4,13.3,1.8,19.7c0.8,2.6,1.6,5.4,2.9,7.7c1,1.9,1,3.2,0.4,5.2
		c-1.7,4.6-3.8,8.8-6.4,12.9c-2.7,4.5-5.3,9.1-8,13.5c-4.4,6.8-8.8,13.5-13.6,19.9c-3.7,5-2.2,4.1-7.8,2.8
		c-13.6-2.7-27.1-5.7-40.9-7c-4.9-0.4-9.7-1.1-14.6-1.7c-0.1,0-0.3-0.2-0.5-0.3c0.4-1,1.3-1.6,2.2-2.1c1-0.5,2.1-1.1,2.9-1.9
		c7.7-7.4,15.7-14.7,23.2-22.5c7.3-7.4,14.3-15.1,21.2-22.9c8.8-9.8,17.5-19.9,26.1-30c6.6-7.6,13.1-15.4,20.4-22.2
		c5.4-5.2,10.8-10.2,17.4-13.9c3.7-2,7.6-3.8,12-4.1c2.2-0.1,4.6-0.1,6.8,0.4c3.1,0.7,6.4,1.8,9.4,2.8c1.8,0.6,3.4,1.7,5.1,2.8
		c1,0.6,1.9,0.8,3,0.4c3.6-1.3,7-1,10.4,0.8c7.2,3.8,12.2,9.4,14.8,16.9c4,11.4,6.8,23.2,8.5,35.2c1.5,10.7,3,21.4,5.2,32
		c1.7,9,4.9,17.3,8.4,25.7c0.1,0.1,0.1,0.3,0.1,0.7c-18.2,8-36.5,16-55.4,22.8c-0.3-1.6-0.6-2.8-0.8-4.2c-0.3-1.3-0.5-2.4-0.9-4
		c0.9,0,1.8-0.1,2.4,0c2.4,0.3,4.5-0.6,6.2-2.2c9.8-8.9,17.9-19.2,22.5-31.8c3.1-9,5.4-18.3,6.6-27.9c0.5-4.9,0.7-9.7-0.1-14.6
		c-0.8-4.7-2.7-8.8-6.5-12.1c-5.3-4.7-9.6-10.2-13.4-16.2c-1.8-2.7-2.8-6-4.3-8.9C395.8,108.3,395.4,107.5,394.6,106.1z" style="fill: rgb(183, 189, 239);"></path>
	<path class="st1" d="M550.8,753.4c-1.4,0.1-2.4,0.3-3.4,0.3c-4,0-7.7,0.5-11.5,1.3c-3.6,0.7-7.3,1-11,1.6
		c-8.2,1.3-16.5,2.7-24.7,4.1c-11.1,1.7-22,4.6-32.9,7.1c-4.9,1.1-9.7,2-14.6,2.9c-0.4,0.1-0.8,0.1-1.5,0.1
		c0.9-4.5,1.9-8.7,2.9-12.9c4.2-17.9,9.2-35.5,14.6-52.9c6.6-21.2,14.2-41.9,21.7-62.8c5.8-16.1,11.4-32.4,17-48.5
		c0.3-0.9,0.7-1.9,1.5-2.7c-0.5,3.6-1,7.2-1.6,10.8c-1.3,7.9-2.4,15.8-2.9,23.8c-0.9,14,0.3,27.8,5.3,40.8
		c2.3,6.1,5.4,11.9,8.4,17.5c6.8,13.1,14,25.8,20.8,39C543.3,732.6,547.4,742.7,550.8,753.4z" style="fill: rgb(24, 136, 75);"></path>
	<path class="st1" d="M353.2,472.3c7.3-1.3,14.2-2.3,21.2-3.4c5.7,9.9,10.8,20.3,12.6,31.6c1.1,7.2,1.8,14.3,1.1,21.7
		c-0.6,6.8-1.5,13.5-2.9,20c-3,13.3-9.9,24.3-18.5,34.5c-7.4,8.7-15.9,16.4-25,23.4c-7.2,5.5-14.5,11.1-20.9,17.6
		c-6.7,7-12.5,14.6-16.3,23.7c-1.9,4.7-2.9,9.5-3.4,14.5c-0.9,9.2-0.2,18.4,0.8,27.6c0.5,4.5,1,8.9,1.7,13.4
		c0.6,4.3-0.7,7.8-3.6,10.9c-2.7,2.8-6.1,3.3-9.7,1.9c-3.3-1.4-5.5-4-7-7.1c-2.9-6.5-4.6-13.3-4.8-20.4c-0.2-8.8,1.3-17.2,3.7-25.7
		c2.6-9.3,5.7-18.5,9.8-27.5c4.9-10.5,11.5-20,19.5-28.7c6.9-7.5,14.1-14.9,21.1-22.3c9.6-10.2,18.7-20.9,26.1-32.8
		c6.3-9.9,8.9-20.8,7.7-32.4c-0.8-9-2.2-17.9-5.6-26.3c-1-2.4-2.3-4.9-3.6-7.2C355.9,476.9,354.7,474.9,353.2,472.3z" style="fill: rgb(211, 182, 224);"></path>
	<path class="st1" d="M458.5,406.8c-1,1.5-2.1,2.9-3.1,4.5c-8.4,11.4-18.7,20.9-29.8,29.7c-0.6,0.5-1.4,1-1.9,1.6
		c-0.8,0.8-0.9,1.9-0.4,2.8c0.4,1,1.5,1,2.4,0.7c2.4-0.7,5-1.3,7.1-2.5c6.2-3.2,12-6.9,18-10.3c0.7-0.4,1.5-0.9,2.4-1.1
		c-2.5,3.7-5.5,6.9-9,9.4c-9.9,7.2-20.9,12.4-32.7,15.8c-16.5,4.8-33.3,8-50.3,10.7c-10,1.6-20.2,2.4-30.3,3
		c-3.3,0.2-6.9,0.5-10.7,0.7c-1.4-9.9-1.1-19.7,0.1-29.6c0.2,0,0.5-0.2,0.7-0.2c2.1,0,4.4,0.3,6.3-0.2c6.8-1.9,13.9-3.2,20.2-6.7
		c5.6-2.9,10.5-6.9,14.8-11.8c0.6-0.7,1.1-1.4,1.9-2c3.7-3.6,7-7.6,10-11.8c2.6-3.6,5.7-6.9,8.7-10.2c0.8-0.9,1.9-1.7,3-2.2
		c4.3-1.9,8.5-3.7,12.8-5.5c0.7-0.3,1.6-0.3,2.7-0.5c-1.4,2.4-3.3,4-5.3,5.3c-6.6,5-11.7,11.3-15.9,18.2c-0.7,1.1-1.3,2.4-1.6,3.7
		c-0.5,1.9,0.2,2.6,2.2,2.6c2.9,0.1,5.6-0.8,8.4-1.9c7.6-2.9,14.4-7.4,21-12.3c6-4.5,12-8.6,18-12.8c0.8-0.6,1.9-1,3-1.3
		c-0.3,0.5-0.7,1-1,1.5c-3.3,4.3-6.9,8.4-10,12.7c-2.1,2.9-4.2,6.1-6.7,8.6c-1.6,1.6-3,3.3-4.6,5.1c-1.5,1.6-2.6,3.4-3.3,6.1
		c2.5-1.1,4.7-2.2,6.9-3.1c7.3-2.8,13.5-7.2,18.6-13.3c2.3-2.6,5.4-4.7,8.1-6.8c4.5-3.2,8.9-6.4,13.5-9.5c0.2-0.2,0.5-0.3,1.4-0.7
		c-0.7,1.1-1,1.9-1.5,2.5c-6.9,9.7-14.1,19.2-22.8,27.6c-2.8,2.8-6.2,5.3-9.2,7.9c-0.9,0.8-1.3,1.5-0.2,2.6c0.7-0.3,1.5-0.5,2.1-1
		c1.4-1.1,2.9-1.8,4.8-2.3c6.2-1.8,10.5-5.8,14.6-10.5c2.8-3.2,6.2-6.2,9.5-8.7c2.2-1.7,4.5-3.2,6.8-5
		C458.2,406.5,458.3,406.6,458.5,406.8z" style="fill: rgb(247, 193, 180);"></path>
	<path class="st1" d="M503.6,387.7c-2-2.7-4.9-4.1-7.5-5.4c-5.5-2.8-10.4-6.4-15.2-10.3c-3.3-2.8-7-5.3-10.2-7.8
		c0-6.5,0-12.8,0-19.1c0-2.8,0.2-5.6,1.1-8.5c0.8-2.7,1.1-5.8,1.5-8.7c0.3-2.5,0.6-5.2,0.8-7.7c0.2-2.6,0.3-5.4,0.6-8
		c0.2-2.1,0.7-4.2,1.1-6.4c3.6,1.4,5.6,4.4,8.1,6.7c2.5,2.3,4.8,4.8,6.5,7.8c1.7,2.9,3.3,6.1,5.3,9.3c1.3-2.6,0.8-5,0.6-7.4
		c0.7-0.1,1.4-0.2,2-0.2c5.4,0.3,10.8,0.6,16.2,1c1.9,0.1,3.8,0.5,5.7-0.4c-1.6,1.9-3.8,3.2-4.3,6c4.2-3.3,8.7-6,13.5-8.2
		c4.8-2.3,9.6-4.6,14.5-6.9c0.6,2.1,0.1,4-0.3,5.5c-1.3,5.5-3,10.9-6.6,15.6c-3.1,4.4-4.2,9.3-4.2,14.6c0,3,0.2,6.2-0.4,9.1
		c-1.5,7.3-4.8,13.7-9.8,19.1c-0.8,0.9-1.9,1.7-2.9,2.3c-4.4,2.4-8.8,4.8-13.3,7.1C505.7,386.9,504.7,387.2,503.6,387.7z M478.9,346
		c0.2,0.6,0.3,1.5,0.7,2c2.5,3.3,5.6,5.7,10.1,4.9c2.8-0.5,5.5-1.5,8.2-2.3c0.5-0.1,0.8-0.5,1.3-0.8c-0.9-0.5-1.9-0.6-2.7-0.7
		c-4.9-0.6-9.9-0.2-14.5-2.9C481.1,345.4,480.1,345,478.9,346z M502.8,362.3c-1.3,0.1-2,0.1-2.7,0.2c-2.4,0.3-2.9,1.1-2.6,3.6
		c0.4,2.8,2,4.3,5.4,4.6c2.1,0.2,4.6-1.5,5.3-3.6c0.6-1.9-0.1-3.6-2-4.3C504.9,362.6,503.6,362.5,502.8,362.3z M510,349.9
		c-0.4,2,0.4,2.9,1.8,3.4c2.4,1,5,1.3,7.4,0.3c2.3-0.9,4.6-2.2,6.8-3.3c0.3-0.2,0.5-0.6,0.9-1.1C521,349.3,515.7,351.3,510,349.9z" style="fill: rgb(211, 182, 224);"></path>
	<path class="st1" d="M112.8,834.2c-0.7,0.4-1.4,0.7-1.9,1c-1.9,1.5-4.2,2.2-6.6,2.5c-1,0.1-2,0.3-2.9,0.6c-4.8,1.1-9.5-1.4-11-6.1
		c-0.4-1.4-0.7-2.9-0.8-4.5c-0.5-6.1-0.1-12,1.1-17.9c1.7-7.8,4.6-15.1,7.6-22.6c2.6-6.5,5.5-12.9,6.5-19.9
		c0.7-5.1,0.8-10.2,1.3-15.4c0-0.5,0.1-0.9,0.1-1.8c5.7,0.7,11.1,2.3,16.6,3.2c1.4,6.6,0.8,12.9-1,19c-1.5,4.9-4,9.3-6.8,13.6
		c-3.4,5.2-7,10.3-10.3,15.7c-1,1.6-1.8,3.3-2.4,5.2c-0.4,1-0.3,2.3-0.5,3.8c-2.3,1.7-4.1,4.3-5,7.3c-1.6,5.5-0.3,10.3,3.7,14.5
		c3.1,3.1,7.5,3,10.5-0.2c1.5-1.5,2.4-3.2,2.7-5.3c0.2-2.1-1-3.8-3.3-4.4c-2.4-0.6-3.8,0-4.8,2.2c1.3,0.6,2.5,1.3,3.8,1.8
		c-1.3,3.6-5,3.6-6.7,1.1c-2.4-3.4-2.6-6.8-0.6-10.1c1.4-2.3,3.8-2.8,6.2-2.6c10,1.1,13.5,9.5,11.5,16.2c-2.4,9-7.9,14.9-17.1,17
		c-2.6,0.6-5.2,0.3-7.7-0.7c-1.4-0.6-2.7-1.3-4.2-1.9c-4-1.7-6.6-4.7-8.4-8.5c-3.1-6.5-5-13.3-5.6-20.4c-0.2-1.9-0.3-4-0.5-5.8
		c-0.5-7.2,1-14.2,3.6-20.9c2.6-6.9,5.6-13.8,8.7-20.6c2.9-6.6,5.3-13.4,5.5-20.7c0-0.8,0.3-1.6,0.5-2.5c3.1,1,6.3,2,9.5,3
		c0,0.8,0,1.7,0,2.6c-0.3,12-4,23.1-9,33.7c-4,8.1-6.9,16.7-8.5,25.6c-1.1,6.4-1.3,12.8-0.2,19.1c0.2,1.3,0.6,2.4,1,3.6
		c2,5.6,9.3,9,14.3,7.3c1.3-0.4,2.6-0.7,4-1.1C108.8,840.1,111.5,837.6,112.8,834.2z" style="fill: rgb(24, 136, 75);"></path>
	<path class="st1" d="M301.3,854.5c1.7-1.6,4-2.4,4.8-4.6c-3.1-2.2-7.3-1.3-8.9,1.9c-0.4,0.7-0.5,1.8-0.4,2.6c0.1,1,0.3,2.2,0.7,3.1
		c1.6,4.3,5.5,5.7,9.4,3.6c3.6-1.9,5.8-5.1,6.7-9.1c0.5-2.6,0.8-5.3,1-7.9c0.1-0.9,0-2.1-0.3-2.9c-1.3-3.8-3.1-7.2-6.4-9.9
		c-3.7-3.2-7.4-6.7-10.9-10.2c-2.2-2.2-3.6-5.1-4.6-8.1c-1.3-4.3-2.4-8.5-2.3-12.9c0-4.7,1.5-8.9,3.8-12.9c4.5-0.2,8.6,0.7,12.6,2.2
		c-0.5,6.9,1,13.3,3.7,19.2c2.1,4.7,4.5,9.3,6.5,14.1c2.5,5.8,4.3,12,4.5,18.3c0.1,2.6,0.1,5.4,0,8c-0.1,3-1.4,5.7-3.2,8
		c-1.3,1.5-2.4,2.9-3.6,4.5c0.4,1.1,1.3,1.3,2.1,1c1.7-0.4,3-1.4,4.3-2.7c2.7-3.1,4.3-6.9,4.7-11c0.6-7.4-0.2-14.6-2.2-21.8
		c-1.5-5.2-4.2-9.8-6.4-14.6c-1.3-2.7-2.7-5.4-4.1-8.1c-1.9-4.2-3-8.6-3.2-13.6c1.6,1.5,3.1,1.4,4.9,1.3c4.7-0.4,9.4-0.5,14.4-0.8
		c-0.5,2.3-0.9,4.4-1.4,6.5c-1.3,6.3-0.7,12.5,0.7,18.6c2.1,8.9,4.3,17.6,5.6,26.7c0.6,4.5,1.1,8.9-0.3,13.3
		c-2.8,8.5-8.7,14.4-18.8,15c-7,0.4-13.3-1.4-18.8-5.2c-5-3.2-6.8-8.2-6.9-14c0-2.6,1.6-4.6,3.4-6.2c3.1-2.7,9.1-4.4,13.5-1.7
		c2.2,1.4,3.7,3.2,3.4,6.1c-0.2,3-1.8,5.4-4.8,6.7C302.9,857.4,302.2,856.9,301.3,854.5z" style="fill: rgb(24, 136, 75);"></path>
	<path class="st1" d="M362.3,519.8c-8.2,3.3-36.4,7-41.8,5.3c0.1-2,0.2-4.2,0.4-6.2c0.6-6,0.9-11.8,0.7-17.6
		c-0.1-2.7-0.2-5.5-0.6-8.2c-0.8-6.2-3.2-11.7-7.6-16.6c0.7,0,1.3-0.1,1.8,0c1.5,0.4,2.7,0.3,4-0.9c0.3-0.4,1.1-0.5,1.8-0.5
		c5.8-0.4,11.7-0.8,17.4-1.3c2.8-0.2,5.7-0.5,8.6-0.7c0.6,0,1.4,0,1.6,0C358.5,487.2,361.9,503.1,362.3,519.8z" style="fill: rgb(247, 193, 180);"></path>
	<path class="st1" d="M375.9,571.2c11.8-15.1,15.4-32.7,16.6-50.9c18.3-4.2,35.3-11,50.7-21.4c0.1,0.1,0.2,0.3,0.3,0.4
		c-3.7,5.3-7.6,10.5-11.1,16.1c-3.4,5.5-6.8,11.3-9.9,17.1c-3.1,5.7-6.1,11.8-8,18c-2,6.3-3.7,12.6-5.6,19.2c-0.5,0-1.4,0-2.1,0
		c-7,0.2-14,0.5-21.1,0.8c-2.7,0.1-5.5,0.4-8.2,0.7C377,571.4,376.7,571.3,375.9,571.2z" style="fill: rgb(24, 136, 75);"></path>
	<path class="st1" d="M409.6,372.5c0.3-1.3,0.6-2.5,1.1-3.7c3.2-7.6,7.6-14.5,12.9-20.9c1-1.3,2.1-2.6,2.9-4.1
		c0.7-1.4,0.2-2.3-1.3-2.5c-1.4-0.1-2.8,0-4.3,0.3c-4.3,0.7-8.5,1.7-12.7,2.4c-1.3,0.2-2.5,0.2-4.1-0.1c0.5-0.4,1-0.9,1.7-1.3
		c2.1-1.1,4.2-2.4,6.3-3.2c9.7-4,19.5-7.7,29.2-11.5c2.5-0.9,5.2-1.5,7.8-2.1c0.6-0.1,1.5,0.1,2,0.5c2,1.6,3.8,3.2,5.7,5
		c2.1,1.8,4.5,3.3,6.5,5.3c1.7,1.6,2.4,3.6,2.4,6c0,6.8,0.1,13.6,0,20.3c0,2.7-0.3,5.5-0.5,8.4c0,0.4-0.2,0.7-0.4,1.7
		c-0.3-0.8-0.6-1.3-0.7-1.7c-0.8-4.8-1.7-9.6-2.5-14.5c-0.2-1.4-0.4-2.8-2.3-3.2c-1.1-0.2-1.9-0.2-2.6,0.8c-3.4,4.9-6.1,10-6.2,16.3
		c0,2.8-0.3,5.7-0.6,8.6c-0.2,2.6-0.5,3.1-2.4,5.2c-0.6-2.8-1.1-5.5-1.6-8.2c-0.6-3.8,0.2-7.3,1.8-10.8c1.9-4.1,3.4-8.2,5.3-12.4
		c0.3-0.8,0.9-1.7-0.1-2.5c-0.8-0.6-2.2-0.7-3.2,0.1c-1.9,1.5-3.8,3-5.7,4.7c-4.6,3.8-7.5,8.9-10.7,13.8c-3,4.8-6.5,9.3-9.7,13.9
		c-0.6,0.9-1.6,1.6-2.6,2.7c-0.6-2.4-0.2-4.3,0.5-5.8c1.7-3.2,3.3-6.7,5.3-9.7c3.3-5.4,7-10.5,10.3-15.9c0.7-1.1,1.4-2.3,1.8-3.6
		c0.2-0.6,0.3-1.6-0.1-2c-0.5-0.8-1.6-0.9-2.5-0.4c-1.5,0.8-3,1.6-4.5,2.5c-3.6,2.5-6.6,5.8-9.4,9.2c-3,3.6-6.2,7.2-9.3,10.7
		c-0.9,1-2.2,1.8-3.2,2.6C410,372.7,409.8,372.6,409.6,372.5z" style="fill: rgb(247, 193, 180);"></path>
	<path class="st1" d="M320.2,528.4c2,0.1,4.1,0.4,6.2,0.4c4.2,0.1,8.2,0.1,12.4-0.1c3.4-0.1,7.1-0.3,10.5-0.8
		c2.1-0.3,4.3-0.9,6.4-1.6c2-0.6,4-1.4,6.1-2.1c0.3,1.9-0.2,3.8-0.7,5.6c-1.4,5.5-4.2,10.3-7.1,15.1c-4.8,7.7-10.5,14.7-16.5,21.5
		c-1.5,1.7-3,3.3-4.6,5.1c-0.7,0.7-1.5,1.3-2.6,1.4c-3.3,0.1-6.8,0.4-10,0.6c-2.1,0.1-4.3,0-6.5,0
		C315.9,558.2,318,543.4,320.2,528.4z" style="fill: rgb(24, 136, 75);"></path>
	<path class="st1" d="M656.2,798.4c0.2-1,0.4-2,0.5-3c0.1-1-0.5-1.4-1.3-1.5c-1.6-0.2-4,1.3-4.5,2.8c-0.2,0.6-0.4,1.7-0.1,2.2
		c0.9,1.6,1.9,3.2,3.3,4.4c2.5,2,5.4,1.3,7-1.6c1.4-2.4,1.9-5.1,1.6-7.8c-0.2-1.6-0.3-3.1-0.7-4.8c-0.9-4.2-2.8-7.7-6.2-10.4
		c-3.8-3.2-7.5-6.8-9.9-11.4c-3.2-6.2-4.8-12.9-4-20c6.3-0.5,12.5-1,18.7-1.6c0.1,0.2,0.3,0.3,0.3,0.5c-0.1,6.6,1.6,12.9,3.6,19
		c1.6,4.9,2,9.8,1.3,15c-0.5,4.1-0.7,8-1,12.6c0.6-0.8,1.1-1.4,1.3-1.9c2.1-5.7,4-11.5,3.4-17.8c-0.2-2.9-0.9-5.8-1.7-8.7
		c-1.1-4.3-2.6-8.4-3.7-12.6c-0.5-2.1-0.6-4.4-0.9-6.7c4.2-0.8,7.8-1.5,11.9-2.3c0.7,3.7,1.6,7.2,2,10.8c1.9,13.7-0.4,26.7-5.3,39.5
		c-1.9,5.1-4.8,9.7-8.6,13.7c-2.5,2.6-5.7,4.3-9.1,5.3c-5.8,1.7-10.5-2.6-9.7-8.6c0.1-0.7,0.2-1.5,0.3-2.2c0.5-5.5,6.7-8.7,10.7-7.9
		c0.9,0.2,2,0.2,2.2,1.6C657.9,796.4,657.6,797.6,656.2,798.4z" style="fill: rgb(24, 136, 75);"></path>
	<path class="st1" d="M613.5,544.9c-8.2,2.5-21.1,5.3-24.9,5.4c-0.1-0.7-0.2-1.4-0.2-2.1c0-4.6,0.1-9.1,0-13.7
		c-0.1-5.6-0.2-11.1-0.5-16.7c-0.4-7.2-0.9-14.3-1.5-21.5c0-0.5,0.1-1.1,0.1-1.8c2.9-0.2,5.8-0.3,8.6-0.7c3.8-0.5,7.6-1.1,11.5-1.7
		c1.5-0.2,2.9-0.3,4.8-0.5C612.1,509.4,612.7,527,613.5,544.9z" style="fill: rgb(24, 136, 75);"></path>
	<path class="st1" d="M508.8,627.5c0.2-3.1,0.5-6,0.7-8.8c0.6-0.1,0.9-0.3,1.4-0.3c6.4,0.5,12.5-0.5,18.6-1.9
		c9.8-2.2,19.8-4.4,29.7-6.8c7.6-1.9,14.9-4.9,22.1-8c0.7-0.3,1.5-0.6,2.6-0.9c-0.2,3.2-0.3,6.3-0.4,9.3
		c-15.8,5.6-31.6,11.1-48,14.3c-7.3,1.5-14.8,2.1-22.3,3.1C511.7,627.6,510.4,627.5,508.8,627.5z" style="fill: rgb(68, 54, 212);"></path>
	<path class="st1" d="M583.2,631.6c0,2.8,0,5.2,0,7.6c-15.2,5.4-30.4,10.4-45.9,14.5c-7.7,2-15.8,2.9-23.6,4.5c-0.5,0.1-1.1,0-2,0
		c-0.6-3.2-1.4-6.6-2-10.1c1.9-0.2,3.7-0.5,5.4-0.4c14.4,0.2,28.4-2.4,42-7.1c6.7-2.3,13.6-4.4,20.3-6.6
		C579.1,633.3,581,632.4,583.2,631.6z" style="fill: rgb(255, 255, 255);"></path>
	<path class="st1" d="M410.8,635.1c-0.2-3-0.3-5.8-0.5-9c2.6,1.3,5,2.3,7.2,3.7c6.9,4.1,14.5,6.1,22.2,7.5
		c5.1,0.9,10.3,1.6,15.6,2.3c2.1,0.2,4.3,0.2,6.4,0.3c5.7,0.1,11.5,0.3,17.2,0.2c2.5,0,5.1-0.3,7.9-0.6c-0.8,2.5-1.7,4.9-2.4,7.3
		c-3,0-6.2,0.2-9.1,0c-6.5-0.5-12.9-1.4-19.4-1.9c-7.5-0.6-14.9-1.5-22.3-3c-5.8-1.3-11.7-2.9-17.3-4.6
		C414.2,636.9,412.4,635.9,410.8,635.1z" style="fill: rgb(68, 54, 212);"></path>
	<path class="st1" d="M508.8,637.5c0-2.4,0-4.7,0-6.9c12.9,0.2,25.4-1.4,37.7-4.6c12.1-3.1,24-7,35.6-11.9c0.3-0.2,0.7-0.2,1.4-0.4
		c0,2,0,3.8,0,5.6C571.5,626,533.8,637,508.8,637.5z" style="fill: rgb(255, 255, 255);"></path>
	<path class="st1" d="M482.1,651.8c0,0.2,0.1,0.3,0.1,0.3c-1.5,4.9-1.5,5-6.5,4.9c-3.8-0.1-7.6-0.4-11.3-0.7
		c-6.7-0.6-13.4-0.9-19.9-1.9c-7.4-1.1-14.8-2.6-22.1-4.4c-3.8-0.8-7.5-2.4-11.2-3.8c-0.2-2.7-0.3-5.2-0.5-7.7c0.4,0,0.6-0.1,0.7,0
		c13.8,6.7,28.5,9.8,43.6,11.2c3.6,0.3,7.2,0.9,10.8,1.3C471.3,651.3,476.8,651.5,482.1,651.8z" style="fill: rgb(255, 255, 255);"></path>
	<path class="st1" d="M475.1,671.9c-0.7,2.2-1.4,4.1-2.1,6c-2.7-0.4-5.4-0.9-8-1.3c-14.6-1.4-28.9-3.7-43.1-7.6
		c-2.7-0.7-5.5-1.8-8.2-2.5c-1.3-0.3-1.9-1-1.9-2.3c0-2.1,0-4.3,0-6.6c1.7,0.8,3.2,1.6,4.9,2.3c5.7,2.7,11.9,4.3,17.9,6.2
		c7.4,2.3,15.1,3.3,22.9,4.5c1.9,0.3,3.8,0.5,5.7,0.8C466.9,672,470.8,672.6,475.1,671.9z" style="fill: rgb(255, 255, 255);"></path>
	<path class="st1" d="M509.4,646.2c-0.2-2.1-0.4-4.3-0.7-6.5c6.6-0.2,12.9-0.4,19.4-0.8c6.4-0.4,12.6-1.7,18.7-3.2
		c6.3-1.7,12.4-3.4,18.5-5.3c6.1-1.8,12.1-3.7,17.9-7.2c0,1.5,0,2.6,0,4.2c-2,0.8-4.2,1.8-6.4,2.5c-8,2.7-16,5.4-24,8.1
		c-9.4,3.2-19.1,5.5-29,6.9C519.1,645.4,514.4,645.6,509.4,646.2z" style="fill: rgb(68, 54, 212);"></path>
	<path class="st1" d="M411.7,653.9c-0.2-1.5-0.3-2.9-0.5-4.7c0.7,0.2,1.1,0.2,1.5,0.4c5,2.8,10.3,4.4,16,5.6
		c5.7,1.3,11.4,2.8,17.2,3.8c6.5,1,12.9,1.4,19.4,2.2c4.2,0.5,8.2,0.2,12.4-0.3c0.3,0,0.6,0,1.3-0.1c-0.7,2.1-1.4,4-2.1,6.1
		c-3.7-0.3-7.2,0.1-10.9-0.5c-7.2-1.1-14.6-1.8-21.8-3.1C433.2,661,422.3,658.7,411.7,653.9z" style="fill: rgb(68, 54, 212);"></path>
	<path class="st1" d="M586.1,491.4c-0.7-4.5-1.4-8.5-2-12.8c8.8,3.1,18,4.4,26.1,8.9C602.4,488.7,594.3,490.1,586.1,491.4z" style="fill: rgb(24, 136, 75);"></path>
	<path class="st1" d="M310.4,594.1c0.9-6.2,1.9-12.3,2.8-18.5c5.2,0,10.1,0,15.6,0c-6.1,6.3-12,12.5-17.9,18.6
		C310.7,594.2,310.6,594.1,310.4,594.1z" style="fill: rgb(24, 136, 75);"></path>
	<path class="st1" d="M413.3,174c0.1,1.8-0.7,3-2.2,4c-1.7,0.8-3.3,1.6-5.3,0.9c-2.6-0.8-3.4-2.9-2.2-5.3c0.8-1.6,2.2-2.7,4-3.3
		C410.8,168.6,413.3,170.3,413.3,174z" style="fill: rgb(246, 81, 86);"></path>
	<path class="st1" d="M386.1,195.4c-4.7,3.2-9.1,2.4-13.8-0.6c1.4-0.5,2.5-1.1,3.8-1.6c1.1-0.4,2.2-0.5,3.2,0.4
		c0.4,0.3,1.3,0.4,1.8,0.3C383.9,193.1,384.2,193.2,386.1,195.4z" style="fill: rgb(246, 81, 86);"></path>
	<path class="st1" d="M359.7,169c0,2.8-2.3,5.2-5.2,5.1c-3.6-0.1-6.9-2.6-7.7-6.3c-0.5-2.2,0.3-4.2,1.8-5.8c0.2-0.3,0.7-0.5,1-0.5
		c3,0.3,6.3,0.5,8.5,3.2C359.2,166,359.7,167.5,359.7,169z" style="fill: rgb(246, 81, 86);"></path>
	<path class="st1" d="M500.2,365.2c1.9-0.3,3.6-0.3,5.3,0.7c-0.4,1.7-1.7,1.9-2.9,1.8C501.1,367.6,500.2,367,500.2,365.2z"></path>
</g></svg>