<svg version="1.1" id="Calque_1" xmlns="http://www.w3.org/2000/svg" xmlns:xlink="http://www.w3.org/1999/xlink" x="0px" y="0px" viewBox="0 0 530.7 907.2" style="enable-background:new 0 0 530.7 907.2;" xml:space="preserve">
<style type="text/css">
	.st0{fill:#F8F7F7;}
	.st1{fill:#FFFFFF;}
</style>


<path d="M234.1,829.6c-3.8-0.2-6.7-1.9-9.9-3.2s-6.5-2.5-10.2-3.9c-0.2,1.7-0.3,3-0.4,4.3c-0.2,4.9-0.2,9.7-0.5,14.6
	c-0.3,4.8-0.6,9.7-1.4,14.5c-0.3,1.7,0.1,3.2,0.2,4.8c0.1,1.8,0,3.6-0.2,5.4c-0.1,1.1-1,1.7-2,2.2c-4,2.2-8.4,3-12.7,4.2
	c-3.1,0.9-6.2,2-9.3,3.2c-2.6,1-4.8,2.5-6.8,4.4c-4.5,4.4-10.2,6.4-16.2,7.8c-6.2,1.4-12.4,0.8-18.5-0.3c-4-0.7-8-1.4-12-2
	c-1.1-0.2-2.3-0.2-3.3,0.1c-1.9,0.4-2.6-0.7-2.6-2.2c0-2.9,0-5.9,0.2-8.9c0.1-2,0.4-4,0.8-5.9c0.3-1.5,0.8-2.9,1.5-4.3
	c1.1-2.2,2.4-4.3,3.8-6.3c0.6-0.9,1.7-1.5,2.6-2c1.5-0.9,3.2-1.8,4.8-2.7c2.2-1.2,4.3-2.4,6.6-3.4c5-2.1,9.4-5,13.3-8.8
	c2-2,3.4-4.4,4.3-7.1c0.8-2.3,1.5-4.7,2.2-7.1c1.4-4.2,3.6-7.7,8.4-8.8c0-1.7,0-3.3,0-5.3c-1.6-0.4-3.2-0.9-4.9-1.3
	c-5-1.2-10-2.2-15-3.4c-0.8-0.2-1.7-0.5-2.5-0.8c-2-0.9-2.5-2.1-1.9-4.2c2.5-9.3,7-17.8,10.2-26.8c3-8.8,6-17.5,8.9-26.3
	c7-21.3,12.6-43,17.7-64.9c3.5-14.8,7.3-29.6,11.3-44.3c3.1-11.6,5.5-23.4,7.4-35.5c-0.5,0-1,0-1.4,0.1c-6.3,1.3-12.8,1.9-19.2,2.2
	c-4,0.2-8,0.6-11.9,0.8c-5.3,0.3-10.7,0.6-16,0.6c-7.9,0.1-15.8,0.3-23.7,0.9c-5.6,0.4-11.3,0.5-17-0.2c-1.8-0.2-3.6-0.7-5.3-1.5
	c-2.6-1.2-4.9-2.6-5-6.2c-0.1-2.7-1.4-5.4-1.8-8.1c-1.3-8.1-2.5-16.2-3.7-24.3c-1.7-12.3-3.4-24.6-5.1-36.9
	c-0.8-6.3-1.5-12.7-2.2-19c-0.7-6.4-1.6-12.8-2.2-19.2c-0.5-5.7-0.7-11.4-1.1-17.2c-0.2-3.5-0.7-7-1-10.5c-0.2-1.7-0.9-2.9-2.3-3.9
	c-4.6-3.4-9-7-12.8-11.1c-7.7-8.3-14.5-17.2-19.2-27.6c-4.2-9.3-8.3-18.7-12.3-28.1c-1.8-4.1-2.5-8.5-2.6-13.1
	c-0.2-8.8,1.3-17.5,3.1-26.1c3.6-18,7.4-35.9,11-53.9c1.5-7.2,2.4-14.5,3.9-21.7c3.6-17,7.8-33.9,12.8-50.5c4-13.5,7.7-27,11.5-40.5
	c0.5-1.9,0.7-3.9,1.2-5.8c0.2-0.9,0.6-1.8,1.2-2.5c1.4-1.4,2.9-2.8,4.5-3.9c14.7-9,29.3-17.8,44.7-25.5c8.9-4.4,18.1-8,27.4-11.4
	c5-1.8,10-3.7,15.2-5.6c-0.8-1.6,0.2-2.3,1.2-2.9c3.2-2.2,6.5-4.4,9.8-6.5c4.7-3,9.5-5.9,14.3-8.8c1-0.6,1.6-1.2,1.8-2.3
	c0.5-2.2,1.1-4.3,1.6-6.5c1.8-7.4,5.2-14.2,9-20.8c5.9-10.4,13-20,19.8-29.7c6.1-8.7,12-17.5,18.2-26.2c4.1-5.8,8.6-11.3,13.7-16.3
	c3.1-3,6.4-5.8,10.1-8c3.8-2.3,7.7-2.8,11.9-1c2.8,1.2,5.7,2.2,8.4,3.5c1.7,0.8,3.3,2,5.1,3.1c1.1-0.2,2.5-0.5,3.9-0.5
	c3.8-0.1,6.6,1.6,8.2,5.1c1.9,4.3,2.7,8.8,3.3,13.4c0.8,6.7,1,13.5,1,20.3c0,7.8-0.1,15.5,0.2,23.3c0.4,11.5,2.2,22.8,5.3,33.9
	c1,3.7,2.1,7.5,1.8,11.8c1.7,0.6,3.3,1.3,5.1,1.8c1.7,0.5,3,1.2,2.7,3.4c0.7,0.2,1.3,0.4,1.9,0.6c20.8,6.3,41.2,13.6,61,22.6
	c8.6,3.9,16.8,8.5,24.9,13.3c6.7,3.9,13.2,8.1,19.5,12.6c1.7,1.2,2.7,2.8,3.2,4.8c2.2,8.1,4.7,16.1,7.1,24.1
	c3.5,11.6,6.9,23.2,10.5,34.8c3.6,11.5,7.3,22.9,11,34.4c4.2,13,8.8,25.9,12.6,39c3.3,11.2,6,22.5,8.8,33.8c1.7,7,3.2,14,4.6,21
	c1,5.3,1.5,10.7,2.2,16.1c0.2,1.7,0.4,3.3,0.5,5c0.2,1.8,0.2,3.6-0.8,5.3c-0.4,0.7-0.5,1.7-0.5,2.5c-0.1,6-1.9,11.8-3.2,17.6
	c-4.1,17.7-10,34.8-15.3,52.1c-1.1,3.7-2.3,7.5-3.4,11.2c-0.6,2-1.1,3.9-0.9,6.1c0.2,1.8-0.5,2.3-2.4,2.4c-2.4,0.1-4.9,0.3-7.6,0.4
	c1.1,4.3,2.9,7.9,6.6,10.2c1.7,1.1,3.7,1.9,5.7,2.5c3,1.1,5.7,2.4,7.9,4.7c0.6,0.7,1.2,1.5,1.5,2.4c1.4,5.1,2,10.3,0.9,15.6
	c0,0.1-0.2,0.3-0.2,0.4c-0.9,0.2-1.8,0.3-2.8,0.5c0.5,3.1,1,6.1,1.4,9.1c0.2,1.1,0.3,2.2,0.3,3.3c0,0.9,0.2,1.8-1.2,2.5
	c-1.5,0.8-2.6,0.7-3.7-0.2c-2.1-1.7-3.6-3.8-4.6-6.3c-0.3-0.8-0.7-1.7-1.2-2.5c0,5.3-0.3,10.6-1.1,15.8c-3.9-0.7-4.5-1.1-7.7-4.5
	c-0.3,1.7-0.5,3.1-0.7,4.5c-0.2,1.6-0.8,2.1-2.2,1.4c-4.2-1.8-6.2-4.2-5.7-8.8c0.2-2.5,0.3-4.9,0.4-7.4c0-0.6-0.1-1.3-0.3-1.9
	c-1.4-3.1-2.7-6.3-5-8.9c-1.4-1.6-2.6-3.4-4-5.4c-0.2,3.2-0.5,6-0.7,8.8c-0.2,2.7-0.4,5.5-1.9,8.3c-0.9-0.7-1.5-1.2-2.4-1.8
	c-0.2,1.5-0.4,2.8-0.5,4.2c-0.9,7.8-1.9,15.7-2.8,23.5c-0.4,3.6-0.7,7.3-1.1,10.9c-0.4,3.5-0.8,7-1.2,10.4c-0.1,1.2,0.2,2.3,0.1,3.5
	c-0.1,0.9-0.2,1.9-0.6,2.7c-3.2,6.1-8.5,9.9-14.7,12.4c-4.5,1.8-9.2,3-13.9,4.3c-3.1,0.9-6.4,1.5-9.7,2.3c-0.1,0.9-0.2,1.8-0.2,2.8
	c0,6.8-0.1,13.6,0,20.4c0,4,0.3,8,0.3,12c-0.1,16-0.2,32-0.5,47.9c-0.2,10.7-0.5,21.4-1,32.1c-0.2,6.1-0.9,12.2-1.2,18.4
	c-0.3,5-0.5,10-0.7,15.1c-0.2,6.2-0.5,12.4-0.4,18.7c0.1,6.8,0.6,13.5,0.9,20.3c0.1,2.3,0.1,4.6,0.1,6.9c0,2.7-1.2,4-4.3,4.5
	c-2.5,0.4-5.1,0.4-7.6,0.6c-0.9,0.1-1.9,0.1-2.9,0.1c0.6,5.2,1.3,10,3.9,14.4c2.4,4.3,5.7,7.6,10.1,10c8.6,4.7,17.9,7.2,27.3,9.3
	c3,0.7,6.1,1.5,9,2.4c4.1,1.2,6.8,4.1,8.5,7.9c0.6,1.4,0.6,3.1,1,4.6c0.8,2.8,1.1,5.6,0.9,8.5c-0.1,0.9-0.2,1.7-0.4,2.6
	c-0.2,0.8-0.5,1.6-1.5,1.5c-0.1,0-0.3,0.1-0.4,0.2c-6,4.6-13.2,5.5-20.3,6.3c-10.8,1.3-21.6,0.8-32.3,0.7c-7.1,0-14.1-1.3-21.2-2.3
	c-10.7-1.6-20.9-4.9-31.1-8.6c-1.6-0.6-2.3-2-2.9-3.3c-0.5-1.1-0.7-2.3-0.9-3.5c-0.8-5.6-1.4-11.3,0.2-16.8c0.7-2.4,1.8-4.8,2.7-7.2
	c1.1-2.9,2.3-5.8,3.3-8.7c1.1-3.2,1.1-6.6,0.6-9.9c-0.2-1.2-0.2-2.5-0.4-3.7c1.1-0.4,2-0.7,2.9-1c0-1.2,0-2.3,0-3.4
	c-0.1-1.7-0.3-1.9-2-1.9c-3.9-0.2-7.8-0.4-11.7-0.5c-4.6-0.1-9.2-0.1-13.9,0c-4.3,0.1-6.6-1.7-6.9-6c-0.3-4.1-0.4-8.3-0.3-12.4
	c0.1-4.6,0.5-9.2,0.8-13.9c1-13.5,3-26.8,6.5-39.8c4.1-15.6,8.2-31.2,12.3-46.8c4.6-17.4,8.3-35.1,11-52.9
	c1.3-8.7,2.2-17.5,3.3-26.3c0.1-0.8,0-1.6,0-2.4c-23.5-2.8-46.8-1.2-70.3,2.1c-0.1,0.8-0.1,1.5-0.2,2.2c-0.1,3.7,0.1,7.4-0.2,11
	c-0.3,4.4-0.8,8.7-1.5,13.1c-2.9,17.2-6.3,34.4-10.4,51.3c-2.8,11.2-6.2,22.3-9,33.5c-2.7,10.7-5.1,21.4-7.2,32.2
	c-2.5,12.4-4.6,24.9-6.6,37.4c-0.7,4.5-0.8,9-1.2,13.6c-0.6,6.6-1.2,13.2-1.7,19.8c-0.2,2.9-0.2,5.9-0.2,8.9
	C235.3,826,235.1,827.9,234.1,829.6z M234.9,567.9c0.3-2,0.5-3.8,0.8-5.6c0.8-5.8,1.8-11.5,2.5-17.3c0.8-7.1,1.5-14.3,2.1-21.4
	c0.5-4.8,0.9-9.7,1.2-14.5c0.3-4.5,0.4-8.9,0.5-13.4c0.2-8.5,0.4-17.1,0.5-25.6c0.1-4.1-0.1-8.2,0-12.2c0.3-6.5-0.7-12.9-1.7-19.2
	c-2-12.2-3.9-24.4-5.8-36.5c-1.7-10.5-3-21.1-5-31.6c-1.9-10.4-4.3-20.8-6.6-31.1c-1.6-7.2-3.6-14.2-5.3-21.4
	c-3.8-16.5-7.5-33-11.1-49.5c-2.1-9.5-3.7-19.1-5.9-28.5c-0.7-3.1,0.2-5.1,2.5-6.8c0.4-0.3,0.8-0.6,1.2-0.9
	c4.4-3.6,8.8-7.2,13.1-10.8c0.3-0.3,0.5-0.7,1.1-1.5c-4.1,0-7.7,0-11.3,0c-1.3,0-2.1-0.4-2.6-1.6c-0.2-0.6-0.4-1.2-0.5-1.8
	c-0.9-4.2-1.8-8.4-2.6-12.6c-2-9.9-4.9-19.5-8.3-29c-4.4-12.2-9-24.2-13.6-36.3c-0.1-0.2-0.3-0.3-0.6-0.5c-0.7,0.3-1.3,0.5-2,0.8
	c-5.2,2.2-10.4,4.5-15.7,6.5c-12.9,4.9-25.5,10.6-37.5,17.5c-8.3,4.8-16.5,9.7-24.8,14.5c-3.8,2.3-7.6,4.6-11.6,7
	c0.4,0.5,0.8,0.9,1.1,1.3c6.7,6.3,12.7,13.3,18.5,20.4c7,8.5,14,16.8,20.1,25.9c7.7,11.4,15,23.2,24.6,33.3c1.5,1.6,2,3.6,2,5.8
	c0,6.4-1.2,12.5-3.7,18.4c-3.3,7.9-6.9,15.8-10.3,23.7c-2.7,6.3-6,12.2-9.7,17.9c-0.3,0.5-0.7,1-1,1.6c0.4,0.4,0.6,0.7,0.9,1
	c6.4,6.2,12,13.2,17.3,20.5c3,4.2,6.1,8.4,9.3,12.5c1.7,2.2,3.2,4.5,3.2,7.3c5.3-1.4,10.5-2.7,15.6-4.1c3.2-0.9,5.9-0.1,8.4,2.1
	c4.3,3.8,7.8,8.2,11.4,12.6c1.3,1.6,2.1,3.1,1.7,5.2c-0.2,1,0,2.1,0.2,3.1c0.9,9.3,1.9,18.5,2.7,27.8c0.5,5.4,0.7,10.8,1,16.2
	c0.4,7.1,0.7,14.2,1,21.3c0.2,4.9,0.1,9.8,0,14.6c-0.1,5.6-1.3,7.4-6.7,8.8c-7.4,1.9-15,3.2-22.7,3.4c-3.3,0.1-6.5,0.1-9.8,0.5
	c-8.1,0.8-16.1,0.4-24.1-0.4c-2.6-0.3-5.2-0.5-7.8-0.4c-2.1,0-2.2,0.1-2.9-1.8c-0.2-0.5-0.3-1.1-0.4-1.6c-0.7-4.1-1.5-8.2-2.2-12.2
	c-0.5-2.8-0.8-5.6-1.2-8.9c-0.5,0.9-0.8,1.3-1,1.8c-1.6,3-3.1,6.2-4.8,9.1c-1,1.7-2.3,3.2-3.7,4.7c-1.5,1.6-3,1.5-4.6,0
	c-0.8-0.7-1.7-1.2-2.6-1.6c-4.1-2-8.2-4-12.2-6c-0.4-0.2-0.8-0.3-1.3-0.5c0.3,2.3,0.6,4.5,0.8,6.6c0.5,6.4,0.9,12.7,1.5,19
	c0.6,5.9,1.5,11.8,2.3,17.8c1,7.9,2,15.8,3.1,23.7c1.7,12.5,3.4,25.1,5.1,37.6c1.2,8.1,2.4,16.2,3.7,24.3c0.2,1.3,0.5,2.6,0.7,3.7
	c4.5-1.7,8.7-3.7,13.1-5c14.8-4.3,29.5-8.9,44.5-12.6c16.2-3.9,32.7-6.8,49-10.2C223.4,570.6,229.4,570.3,234.9,567.9z M231.2,825.1
	c0-1.6,0-2.9,0-4.2c0-1.5-0.1-3,0-4.6c0.5-7,1.1-14,1.7-21c0.4-4.5,0.5-9.1,1.2-13.6c2-12.2,4-24.4,6.5-36.5
	c2.6-12.7,5.6-25.2,8.8-37.8c2.7-10.8,6-21.3,8.7-32.1c2.5-10.2,4.4-20.6,6.6-30.9c3.1-14,5.6-28.1,6.1-42.5c0-0.8,0.2-1.7-0.3-2.5
	c-0.3,0.2-0.4,0.2-0.5,0.3c-3.9,5.9-7.8,11.9-11.7,17.8c-0.5,0.8-1.1,1.4-1.6,2.1c-3.5-1.8-4.1-3.6-2.1-6.6c4-6.1,8-12.1,12.1-18.2
	c0.3-0.5,0.7-1,1.3-2c-1.4,0.4-2.3,0.6-3.2,0.9c-0.9,0.3-1.8,0.6-2.8,0.8c-2,0.5-3.4-0.4-4.5-2.6c-0.6-1.3-0.4-1.8,1.5-3.2
	c3.8-2.8,7.6-5.5,11.3-8.5c3.8-3,7.4-6.2,9.5-10.6c1.8-3.7,3.7-7.3,5.4-11c10.2-22.1,19.1-44.8,27.3-67.7
	c4.8-13.4,9.5-26.8,13.7-40.3c3.7-11.7,6.6-23.7,9.8-35.5c0.1-0.4,0.1-0.9,0.2-1.7c-0.8,0.5-1.3,0.9-1.8,1.2
	c-4.1,3.3-8.2,6.6-12.3,9.9c-2.5,2-5,4-7.6,5.9c-0.6,0.5-1.2,1.2-2.3,0.8c0.2-0.3,0.3-0.5,0.5-0.7c8.3-8.3,16.4-16.8,25.6-24.1
	c0.5-0.4,1.1-1.1,1.2-1.7c0.1-1.8,0-3.6-0.1-5.7c-2.7,0.8-5,1.5-7.4,2.2c-0.8,0.2-1.5,0.5-2.3,0.6c-1.3,0.2-3.1-0.7-3.4-1.7
	c-0.6-1.4,0.6-2,1.5-2.7c1-0.8,2.1-1.5,3.1-2.2c2.2-1.5,4.3-3,6.6-4.4c1.1-0.7,1.8-1.5,1.2-2.9c-0.2-0.5-0.2-1-0.4-1.5
	c-2.5,0.8-4.9,1.6-7.2,2.4c-0.8,0.3-1.7,0.5-2.4-0.8c3.2-1.4,6.4-2.8,9.7-4.2c-0.6-4.2-1.1-8.2-1.8-12.2
	c-2.8-16.1-6.4-32.1-11.1-47.8c-0.9-2.9-2-5.7-2.9-8.2c-7.8,2.1-15.3,4.1-22.8,6.2c-0.2,0.6-0.1,1.7-0.5,1.9c-1.7,1-1.4,2.7-1.6,4.2
	c-0.4,3.6-1.3,7-3,10.3c-4.6,8.5-11.4,14.9-19.4,20.1c-1.3,0.8-1.9,1.7-2.1,3.2c-0.3,2.4-0.8,4.7-1.2,7.1
	c-2.9,14-7.3,27.4-12.4,40.7c-4.6,12.2-9.5,24.2-14.3,36.3c-0.5,1.4-0.7,2.7-0.8,4.2c-0.3,5.2,0.7,10.3,0.2,15.5
	c-0.7,7.8-0.5,15.6-0.6,23.5c-0.2,8.2-0.2,16.4-0.7,24.7c-0.5,8.8-1.5,17.6-2.4,26.4c-0.3,3.5-0.7,7-1.1,10.4
	c-0.8,6.2-1.7,12.3-2.6,18.4c-0.1,0.7-0.5,1.6-1.1,1.9c-1.5,0.8-3,1.5-4.6,1.9c-2.5,0.6-5,1-7.5,1.5c-3.4,0.7-6.8,1.3-10,1.9
	c-0.6,6.7-0.9,13.2-1.7,19.6c-1.2,9.1-2.5,18.1-4.2,27.2c-2.1,11.4-5.3,22.5-8.2,33.7c-3.9,14.8-7.4,29.7-11.1,44.6
	c-4.4,17.6-9.3,35-14.8,52.3c-4.8,15.1-10.1,29.9-16.3,44.5c-0.8,1.9-1.2,3.9-1.9,6c0.9,0.3,1.5,0.6,2.2,0.7
	c3.2,0.7,6.4,1.3,9.6,2.1c5.4,1.2,10.7,2.6,16.1,3.8c2,0.4,4.1,0.6,6.1,1c13.1,2.9,25.7,7,38,12.2
	C228.9,824.2,229.9,824.5,231.2,825.1z M415,249.3c0.4-0.7,0.7-1.2,1-1.6c2.1-3.7,4.2-7.3,6.3-11c9.4-16.2,16.2-33.4,19.8-51.8
	c0.4-1.9,0.5-3.9,0.8-5.6c-4.1-2.8-7.8-5.7-11.8-8c-9.6-5.7-19-11.8-29.1-16.7c-11.7-5.6-23.6-10.6-35.6-15.3
	c-8.6-3.3-17.2-6.3-25.9-9.4c-1.8-0.7-3.7-1.2-5.8-1.9c-0.1,1.1-0.3,1.9-0.3,2.8c0.1,3.7,0.3,7.3,0.3,11c0,5.9,0.7,11.8,0.2,17.7
	c-0.6,6.7-0.7,13.4-1,20.1c-0.1,1.8-0.8,3.1-2,4.4c-3.1,3.5-6,7.2-9.3,11.2c1.4,0.1,2.2,0.1,3.1,0.2c3,0.3,6,0.6,9,1
	c1.6,0.2,2.6,1.2,3,2.9c1.7,6,3.1,12.1,3.8,18.2c0.7,5.8,1.3,11.7,2,17.6c1.2,10.2,2.4,20.4,3.6,30.6c1,8.9,1.9,17.9,2.9,26.8
	c1.3,11,2.7,22,4,33c1.6,13,3.2,25.9,4.8,38.9c0.4,3.5,0.9,7,1.7,10.4c2.1,8.8,4.5,17.5,6.7,26.2c1.9,7.5,3.9,15,5.4,22.6
	c1.8,9.1,3.3,18.2,4.7,27.3c1.3,8.5,2.7,17,3.3,25.6c0.6,8.3,0.2,16.8,0.3,25.1c0,3.9,0.2,7.8,0.3,11.7c0.2,4.7,0.4,9.4,0.6,14.1
	c0.2,4.4,0.3,8.8,0.3,13.2c0,4.5-0.2,8.9-0.3,13.4c-0.1,6.4-0.1,12.8-0.2,19.2c0,0.4,0.1,0.8-0.1,1.2c-0.6,2.2-0.1,4.2,0.3,6.5
	c0.6-0.1,1-0.1,1.5-0.2c5.2-0.7,10.5-0.7,15.8,0c2.8,0.4,5.6,0.6,8.3,0.7c2.7,0.2,5.5-0.1,8.1,0.4c6.1,1.1,12.2,1.6,18.3,0.8
	c1.8-0.2,3.7-0.1,4.8-1.4c0.4-4,0.7-7.6,1.1-11.3c0.5-5.6,1-11.3,1.6-16.9c1.2-10.1,2.4-20.2,3.6-30.4c0.1-0.6,0-1.3-0.2-1.9
	c-2-5.8-3-11.9-3.8-18c-0.7-5.4-1.6-10.7-0.7-16.2c0.1-0.5,0-1.1,0-1.7c-2,0.1-2.8-1.1-3-2.7c-0.1-0.8-0.1-1.6-0.1-2.4
	s0.1-1.6,0.1-2.4c-0.2-5.8-0.5-11.6-0.7-17.5c0-0.8,0-1.6,0-2.5c-1.6-0.1-3.1-0.2-4.5-0.3c-3.5,0-7.1,0.2-10.6-0.1
	c-7.6-0.6-15.2-0.6-22.6,1.4c-2.2,0.6-3.5-0.5-3.7-2.7c-0.2-2.1-0.3-4.1-0.5-6.2c-0.6-7.6-1.3-15.2-1.9-22.9
	c-0.7-8.4-1.3-16.8-2-25.2c-0.4-4.8-0.9-9.7-1.4-14.5c-0.2-1.9-0.6-3.8-1-6c0.7-0.2,1.5-0.5,2.3-0.8c8.1-2.7,16.4-3.9,24.8-5.3
	c6.3-1.1,12.5-2.4,18.9-3.6c0-0.6,0.1-1.3,0-1.9c-0.4-4.8-0.9-9.7-1.3-14.5c-1-13.1-3.6-25.9-6.2-38.7c-2.6-12.8-5.5-25.6-8.5-38.3
	c-1.4-6.1-3.2-12.2-5.5-18.1c-1.2-2.9-1.9-5.9-2.8-8.9c-0.2-0.8-0.4-1.6,0.4-2.2s1.8-0.8,2.7-0.4C413.9,248.5,414.3,248.8,415,249.3
	z M315.2,796.5c0.8,0,1.6,0,2.2-0.1c5.7-1.1,11.4-0.9,17.2-0.9c3.6,0,7.2-0.1,10.8,0c5.8,0.2,11.6,0.6,17.5,0.7
	c6.2,0.2,12.5,0.2,18.7,0.2c0.6,0,1.1,0.1,1.7,0.1c4.4,0.3,8.7,0.3,13-0.3c0.9-1.4,1-2.8,0.4-4.2c-0.2-0.5-0.3-1.1-0.4-1.6
	c-0.5-6.3-1.2-12.6-1.4-18.8c-0.3-8.4,0.1-16.8,0.7-25.1c0.4-5,0.4-10.1,0.7-15.1c0.2-4,0.6-7.9,0.8-11.9c0.3-6.2,0.4-12.4,0.6-18.7
	c0.2-6,0.7-11.9,0.8-17.9c0.3-14,0.5-28,0.7-41.9c0.2-12.3,0.2-24.6,0.3-36.9c0.1-5.3,0.4-10.7,0.6-16c0.1-1,0.2-2,0.3-3.1
	c-3.4-1.3-6.7-1.5-10.1-1.6c-3.3-0.1-6.7,0-10.2,0c-0.5-1.8-1.2-3.4-1.3-5c-0.2-2.5-0.1-5.1-0.1-7.6c0.1-8.2,0.4-16.3,0.4-24.4
	c0.1-6.9,0.1-13.9,0-20.9c-0.1-7.1-0.6-14.2-0.7-21.3c-0.1-3.6,0.3-7.2,0.2-10.8c-0.1-3.7-0.5-7.5-0.8-11.2
	c-0.2-3.3-0.3-6.5-0.7-9.8c-0.8-6.6-1.8-13.1-2.7-19.6c-1.2-8.3-2.3-16.6-4-24.8c-3.7-18.1-8.1-36.1-13.1-53.9
	c-5.1-18.2-10.7-36.3-15.3-54.6c-0.9-3.8-1.9-7.5-2.8-11.1c-4.8,2.2-9.5,4.2-14.2,6.3c7.6,22.4,12.7,45.1,16,68.3
	c1-0.3,1.8-0.7,2.7-0.9c2.2-0.3,4.4-0.7,6.6-0.8c1.6-0.1,2.1,0.7,2,2.3c0,1.4-0.9,2.1-1.9,2.8c-2.4,1.7-4.8,3.4-7.3,5.1
	c-1.3,0.9-1.8,1.9-1,3.5c2.3-0.5,4.6-1,6.8-1.3c1.7-0.2,3.5-0.3,5.2-0.2c1.9,0.2,2.6,1.1,2.7,3.1c0.1,1.8-0.9,3-2.3,3.9
	c-3.5,2.3-7,4.5-10.4,6.8c-1,0.7-1.9,1.7-2.9,2.3c-1.7,1.1-2.2,2.3-1.5,4.2c3.9,11.4,6.6,23.1,7.9,35.1c0.5,4.8,0.8,9.5,1.1,14.3
	c0.4,7,0.9,14,1.3,21c0.4,7.1,0.7,14.2,1,21.3c0.2,5.9,0.4,11.8,0.5,17.7c0,7.4-0.2,14.8-0.3,22.3c-0.2,10.5-0.1,21.1-0.9,31.6
	c-0.5,6.4-0.8,12.9-1.5,19.3c-0.8,8.9-1.8,17.8-2.9,26.6c-1.7,13.2-4.1,26.3-7.2,39.3c-3.6,15.3-7.6,30.5-11.4,45.7
	c-4.3,16.8-8.9,33.6-10.4,51c-0.7,8.4-1.6,16.8-1.7,25.3C315.1,788.2,315.2,792.2,315.2,796.5z M93.3,462.8c0.1-1,0-1.4,0.1-1.7
	c0.5-2.9,2.1-4.9,4.8-5.7c2.7-0.8,5,0.1,7,2c1.8,1.8,2.5,4,2.9,6.4c0.4,2.3-0.2,4.4-1.8,6.2c1.4,0.6,2.7,1.2,4.2,1.9
	c1.4-4.6,2.8-9,4.1-13.3c-7-4.1-13.5-8.5-19.7-13.2c-4-3-7.6-6.6-10.7-10.6c-0.8-1-1.6-2-1.4-3.6c3.4,2.6,6.8,5,10,7.5
	c6.6,5.1,13.1,10.2,19.6,15.3c0.9,0.7,2,1.3,3,1.9c0.3-0.4,0.4-0.6,0.5-0.8c3.5-8.2,6.9-16.3,10.4-24.5c2.9-6.7,5.5-13.7,9-20.1
	c5.9-10.8,12.5-21.2,18.7-31.8c1.2-2.1,2.5-4.2,3.7-6.3c-4.5-4.9-8.3-10-11.8-15.3c-4.9-7.3-10.4-14.2-16.1-20.8
	c-0.4-0.4-0.9-0.7-1.5-1.3c0.4,2.5,0.7,4.6,1,6.7c0.3,2.2,0.6,4.4,0.9,6.6c0.2,2.1,0.3,4.3,0.6,6.4s0.5,4.3,0.1,6.4
	c-2.8-8.3-4.3-16.9-5.7-25.9c-2.6,2.1-3.9,4.7-5.4,7.1c-1.5,2.5-3,5.1-4.5,7.6s-2.9,4.9-4.4,7.4c-2.4-1.5-2.5-1.8-1.5-4
	c2.8-6,6.3-11.5,10.2-16.8c0.3-0.5,0.6-1,1.1-1.8c-0.8,0.2-1.2,0.3-1.5,0.5c-5,2.1-10,4.2-15,6.3c-1.1,0.5-2.2,1-3.3,1.5
	c-1.2,0.6-2-0.2-2.6-1c-0.7-1-0.2-1.7,0.5-2.2c0.9-0.8,1.9-1.5,2.9-2.2c5-3.3,10.7-5,16.5-6.2c1.9-0.4,3.8-0.8,5.6-1.4
	c1.5-0.5,2.8-1.1,4.2,0.4c0.5-0.7,1-1.1,1.2-1.7c2.4-4.9,5-9.8,7.2-14.9c3.7-8.4,7.2-16.9,10.9-25.3c2.5-5.8,4.1-11.9,4.4-18.3
	c0.1-1.4-0.3-2.4-1.3-3.4c-6.6-6.7-12.1-14.2-17.3-22c-7.2-10.6-14.3-21.4-22.7-31.2c-6.9-8-13.2-16.7-20.6-24.3
	c-0.7-0.8-1.4-1.6-2.2-2.6c-0.2,0.9-0.4,1.4-0.5,2c-2.1,8.8-4.1,17.7-6.4,26.5c-4.3,16.7-9.8,33-13.6,49.8c-1.7,7.5-3.5,14.9-5,22.4
	c-3.1,15.6-5.8,31.2-8.9,46.7c-2.8,14.3-6.6,28.4-7.6,43c-0.4,6.1,0,12,2.3,17.6c3.1,7.5,6.4,15,9.6,22.5c4.5,10.6,10.4,20.3,18,29
	c0.3,0.3,0.6,0.6,1,1c0.3-0.8,0.5-1.4,0.8-2c1-2.1,2.7-3.2,4.9-3.2c3.2,0,6,1.1,7.6,4.1c0.7,1.2,1.1,2.5,1.5,3.8
	c1,3.4,0.4,6.4-2.7,8.8C90.1,460.3,91.5,461.4,93.3,462.8z M231.9,104.1c-1,0.7-1.9,1.5-2.9,2c-1.5,0.7-2,1.9-2.1,3.4
	c-0.3,5.1-0.6,10.2-1,15.3c-0.4,5.3-0.8,10.7-1.2,16c-0.5,7.2-1.2,14.3-1.3,21.5c-0.1,5.8,0.5,11.6,0.9,17.4
	c0.4,6.2,0.9,12.4,1.4,18.6c0.8,9.9,1.6,19.8,2.5,29.8c0.9,9.5,1.9,19,3,28.5c0.6,5.3,1.5,10.6,2.1,15.8c0.2,1.6,0.8,2.7,1.8,3.8
	c2.8,2.8,5.4,5.7,8.3,8.3c8.4,7.7,17.2,14.8,26.6,21.1c0.7,0.5,1.5,1,2,1.7c0.9,1.1,1.9,1.2,3.2,0.8c5-1.5,10.1-2.8,15.2-4.3
	c5.5-1.6,11.1-3.1,16.5-5c8.6-3.1,17.2-6.6,25.7-9.9c0.4-0.2,0.8-0.5,1.3-0.7c-0.2-0.7-0.3-1.3-0.4-2c-1-4.2-2.2-8.3-3.1-12.5
	c-2.5-12.1-4.9-24.2-7.5-36.3c-3.4-16-6.8-32-10.4-47.9c-2.1-9.2-4.3-18.5-6.7-27.7c-1.4-5.4-3.6-10.6-5-16
	c-1.7-6.1-3-12.2-4.5-18.4c-1.1-4.3-2.3-8.6-3.4-12.9c-2-0.5-4-0.9-5.9-1.6c-1-0.4-1.7-0.7-2.7-0.3c-0.5,0.2-1.1,0.2-1.7,0.3
	c-7.6,0.5-15.3,1.1-23,0.5c-7.8-0.6-15.3-2.2-22.3-5.8C235.5,106.5,233.7,105.2,231.9,104.1z M476.4,477.3c-2.8-2.5-3.7-4.7-2.7-7.2
	c1-2.4,3.1-2.4,5.3-2.2c0.6-1.8,1.1-3.5,1.7-5.3c-2.2-1.6-4.1-3.4-3-6.4c1-2.7,3.2-3.3,5.8-3c1.6-5.2,3.2-10.2,4.6-15.2
	c3.4-12,6.8-24,10.1-36c0.7-2.5,1.2-5,1.2-7.9c-3.8,1.1-7.1,2.6-10.5,4.8c1.9-0.1,3.3-0.4,4.7-0.3c1.5,0,2.2,0.9,1.9,2.4
	c-0.2,1.4-0.7,2.7-1.9,3.7c-2.7,2.4-5,5.2-6.5,8.5c-0.5,1.2-1.3,2.2-2,3.2c-0.3,0.5-0.8,0.8-1.3,1.3c0.1-2.6,0.7-5.1,1.1-7.5
	c0.5-2.7,2.5-4.5,4.1-6.9c-1,0.1-1.7,0.2-2.4,0.3c-1.7,0.1-3.1-0.4-4.2-1.8c-1.3-1.5-1.3-2.6,0.3-3.8c1.8-1.4,3.6-2.8,5.5-3.8
	c3.5-1.8,7.2-3.3,11.1-5c0-0.2,0.1-0.8,0.1-1.3c-0.2-1.7-0.5-3.5-0.7-5.2c-1.2-11.8-3.4-23.5-6.3-35c-4.3-17.5-8.9-34.9-14.7-52
	c-8.2-23.8-16.2-47.7-22.6-72.1c-2.6-10-5.4-20-8.1-30c-0.6-2.4-1.2-4.8-1.9-7.7c-0.4,0.8-0.6,1.1-0.6,1.4
	c-0.6,6.4-2.5,12.5-4.4,18.6c-3.1,9.9-6.8,19.6-12,28.6c-3.7,6.4-7.6,12.8-11.3,19.2c-0.6,1-1.4,1.1-2.6,0.6
	c1.7,5.2,3.4,9.9,4.8,14.7c2,6.6,4.1,13.3,5.6,20c2.7,12,5.2,24.2,7.5,36.3c1.4,7.6,2.6,15.2,3.6,22.9c0.9,7.1,1.3,14.3,2.1,21.4
	c0.2,2.2,0.5,4.3,0.4,6.5c-0.1,2.4,0.3,4.8,0.4,7.2c0.3,5.5,0.6,11,0.9,16.5c0.2,5.1,0.4,10.2,0.6,15.3c0.2,5.8,0.4,11.5,0.3,17.2
	c0,7-0.4,14.1-0.4,21.1c0.1,9.5,0.4,19,0.6,28.5c0,0.3,0.2,0.6,0.3,1.1c11.6-1,23.2-0.1,34.7-2.1
	C475.7,479.7,476.1,478.5,476.4,477.3z M338.1,420.3c-0.2,0-0.3,0.1-0.4,0.1c-0.2,0.7-0.4,1.4-0.5,2.1c-0.7,3.2-1.4,6.4-2.2,9.6
	c-6.6,26.3-15.5,51.9-24.9,77.4c-7.2,19.4-15.2,38.4-23.8,57.2c-3.1,6.7-6.7,13.1-12.7,17.7c-0.8,0.6-1.6,1.4-2.7,2.4
	c1.4-0.1,2.2-0.3,3.1-0.3c2.1,0,2.9,1,2.2,3.1c-0.5,1.6-1.4,3.2-2.2,4.7c-0.5,0.9-1.2,1.7-0.5,2.9c11.6-2.2,23.4-3.1,35.2-3.7
	c11.9-0.6,23.7,0.8,35.2,2.5c0.3-0.3,0.4-0.4,0.4-0.5c0.6-8.3,1.5-16.7,1.8-25c0.4-11.1,0.6-22.2,0.7-33.3c0-9.1-0.2-18.2-0.4-27.3
	c-0.1-4.3-0.3-8.6-0.5-12.9c-0.3-7.6-0.6-15.1-1-22.7c-0.3-6-0.7-12.1-0.9-18.2c-0.3-7.7-1.5-15.2-3-22.7
	C340.1,429,339.1,424.6,338.1,420.3z M194.6,391.6c-0.5,0-0.7-0.1-0.8,0c-2.3,0.6-4.6,1.3-6.9,1.9c-12.7,3.3-25.7,5-38.8,5.6
	c-1.2,0-2.2-0.1-3,1.3c-3.7,6.9-7.8,13.6-10.8,20.8c-1.5,3.7-3.1,7.3-3.6,11.3c-0.7,5.9-1.5,11.9-3.4,17.6c-1.2,3.6-1.4,7-0.6,10.7
	c1.5,6.9,2.7,13.9,4.1,20.9c3.5,0,6.9,0.1,10.2,0c7.5-0.1,15-0.2,22.4-1.3c7-1.1,14.2-0.8,21.1-2.5c4.6-1.1,9.4-1.8,13.9-3.6
	c0.1-0.3,0.3-0.6,0.3-0.9c-0.1-6.4,0-12.8-0.2-19.2c-0.2-7.1-0.7-14.2-1-21.2c-0.2-4.5-0.4-9.1-0.7-13.6c-0.3-4.7-0.8-9.3-1.2-14
	C195.3,400.7,195,396.2,194.6,391.6z M303.7,15.5c-2.6-1.3-4.9-2.6-7.3-3.6c-2.5-1.1-5.1-1.8-7.6-2.9c-3.2-1.3-6.2-1-8.9,0.8
	c-3,2-6.1,4.2-8.8,6.6c-7.2,6.6-13,14.5-18.6,22.5c-4.5,6.6-9,13.2-13.6,19.7c-6.7,9.6-13.7,19.1-19.7,29.2
	c-5,8.5-8.8,17.4-10.9,27.3c0.6-0.2,1.1-0.3,1.6-0.5c4.6-1.8,9-4.1,13.2-6.8c1.3-0.8,3-1.3,4.1-2.4c2.4-2,5.1-3.9,6-7.2
	c0.1-0.2,0.2-0.4,0.4-0.6c7-12,13.9-24.1,20.9-36.1c1.6-2.7,3.2-5.3,4.8-8c-2.7-4.8-2.3-9.2,0.9-13.5c1.7-2.2,3.7-2.4,5.7-0.5
	c0.9,0.9,1.6,1.9,2.5,3.1c3.5-1.3,7.1-2.3,10.5-3.9c7.2-3.3,14-7.3,19.8-12.8c1.3-1.3,2.6-0.8,3,1c0.1,0.5,0.2,1.1,0.3,1.6
	c0.6,2.5,0.9,5,1.7,7.4c1.5,4.3,4.2,7.9,7.1,11.3c3.4,4,5.2,8.5,4.2,13.9c-0.4,2-1,3.9-1.3,5.8c-0.8,5.3-2.9,10.1-5.8,14.6
	c-3.2,5-6.4,10-11.1,13.8c-2,1.7-4.2,3.2-6.3,4.8c-1.3,0.9-2,1.9-1.6,3.6c0.1,0.6,0,1.3-0.1,1.9c-0.2,1.7-0.4,3.5-0.6,5.1
	c0.2,0.2,0.3,0.3,0.5,0.3c3.5,0.4,6.7,2.4,10.4,2.2c0.9-0.1,1.8,0.4,2.8,0.7c3.2,0.8,6.4,1.5,9.5,2.4c4,1,8,2.1,12,3.2
	c0.6,0.2,1.2,0.3,1.8,0.4c-1-4-1.8-7.8-2.9-11.5c-3-10.7-4.6-21.5-4.9-32.5c-0.2-6.9-0.1-13.7-0.2-20.6c0-4.2,0-8.3,0-12.5
	c0-6.2-0.5-12.3-1.9-18.3c-0.5-2.3-1.3-4.7-2.4-6.7C311.3,14.5,306.6,13.5,303.7,15.5z M234.5,279.8c0,0.9,0,1.2,0,1.6
	c1.5,12.2,3.2,24.3,4.5,36.5c0.9,8.5,1.5,17.1,1.9,25.7c0.4,7.4,0.5,14.8,0.7,22.2c0.2,8,0.1,16,0.4,23.9c0.2,7.3,0.7,14.7,1,22
	c0.4,8.9,0.9,17.8,1.3,26.7c0,0.3,0.1,0.5,0.1,0.8c0.9-1.6,1.5-3.2,2.1-4.8c4.2-11,8.5-21.9,12.5-32.9c4.9-13.4,8.5-27.1,10.6-41.2
	c1.8-11.5,3.2-23,4.8-34.5c0-0.4,0-0.8,0-1.2c-0.1-1.8-0.2-3.7-0.3-5.5c-0.2-2.6-0.6-5.2-0.8-7.7C259,302.8,245.8,292.8,234.5,279.8
	z M233.2,102.9c1.5,0.8,3.2,1.9,5,2.6c8,3.5,16.5,4.9,25.2,5.1c7.6,0.2,15.2,0.1,22.8-0.8c0.6-2.2,1-4.5,0.9-6.8
	c-0.3-0.1-0.5-0.2-0.6-0.2c-0.7-0.2-1.4-0.3-2.1-0.5c-8.1-1.8-14.5-6.1-19-13.1c-3.3-5.1-4.5-11-5.9-16.9c-0.2-0.7-0.4-1.6,0.7-2.4
	c0.4,0.7,0.8,1.2,1,1.8c1,2.8,1.9,5.6,3.1,8.3c1.2,2.8,2.4,5.8,4.1,8.3c4.4,6.5,10.9,9.9,18.5,11.3c0.8,0.2,1.5,0.1,2.2-0.5
	c4.3-4,8.8-7.9,12.3-12.7c1-1.4,1.9-2.9,2.9-4.3c-0.7-0.5-1.2-0.7-1.7-1c-2.2-1.7-2.9-4.1-1.8-6.3c1.3-2.6,3.9-3.8,6.6-2.9
	c0.7,0.2,1.3,0.5,2.2,0.8c0.9-3.5,1.8-6.9,2.8-10.3c1.3-4.8,0-8.9-3.5-12.6c-2.8,0.8-5.7,0.7-8.8,0c0.8-3.7,3.9-2.5,6.2-3.2
	c-3.7-5.1-6.2-10.5-7.2-16.8c-4.2,2.9-8.1,5.6-12.1,8.4c2.6,2.5,3.1,3.4,2.9,5.4c-2.3-0.6-3.7-1.4-6.2-3.5c-0.2,0.1-0.4,0.1-0.6,0.2
	c-4.8,1.8-9.5,3.7-14.3,5.4c-1.9,0.7-2.5,0.4-3-1.5c-0.4-1.5-1.5-1.9-2.8-2.7c-0.2,0.4-0.5,0.7-0.7,1c-1.5,2.5-2,5-0.9,7.8
	c0.6,1.5,0.7,2.9-0.3,4.3c-0.5,0.7-1.2,1.2-1.6,1.9c-2.8,5-5.4,10.1-8.3,15.1C245.3,82.1,239.3,92.3,233.2,102.9z M241.7,434.4
	c0.2,0,0.3,0.1,0.5,0.1c0-0.8,0-1.6,0-2.4c-0.1-3-0.3-6-0.5-9.1c-0.5-7.5-1.1-14.9-1.4-22.4c-0.4-8.9-0.5-17.9-0.7-26.8
	c-0.1-5.3,0-10.7,0-16.1c0-0.6,0-1.3,0-1.9c-0.2-4.6-0.5-9.2-0.8-13.8c-0.2-4.5-0.3-8.9-0.7-13.4c-0.6-7.3-1.4-14.6-2.2-21.8
	c-0.8-6.9-1.8-13.7-2.7-20.6c-1.2-8.8-2.5-17.5-3.6-26.3c-0.8-6.1-1.5-12.2-2.2-18.2c-0.6-5.9-1.1-11.9-1.7-17.8
	c-0.1-1.2-0.3-2.3-0.5-3.5c-1.7,0.2-3.3,0.1-4.6,1.3c-5.6,5.6-11.6,10.7-17.9,15.6c0.1,0.5,0.2,1.2,0.3,1.8
	c0.9,3.6,1.9,7.2,2.7,10.9c1.2,5.5,2,11.1,3.2,16.7c2.5,11.4,5.2,22.8,7.8,34.3c1.9,8.3,3.4,16.7,5.5,25
	c4.4,16.8,8.1,33.7,10.8,50.7c1.9,12.1,3.5,24.3,5.3,36.4C239.4,420.1,240.6,427.2,241.7,434.4z M225.1,217.4
	c-0.6-6.4-1.2-12.4-1.7-18.4c-0.4-4.8-0.7-9.5-1.1-14.3c-0.4-4.8-1-9.7-1.2-14.5c-0.2-4.9,0-9.9,0.3-14.8c0.3-6.3,0.9-12.5,1.4-18.8
	c0.5-7.4,1.1-14.8,1.6-22.2c0.1-1.5,0.2-3.1,0.3-4.9c-0.6,0.3-1,0.4-1.3,0.7c-3.7,2.7-7.7,4.8-11.9,6.5c-1.3,0.5-2.5,1.1-3.7,1.7
	c-9.3,4.8-17.8,10.9-26.4,16.7c-0.1,2,0.6,3.8,1.4,5.5c5.2,11.2,9.4,22.7,13.5,34.2c4.1,11.4,7.5,23,9.6,35c0.4,2.4,0.9,4.8,1.4,7.4
	C213.4,216.5,219.1,218.2,225.1,217.4z M392.4,389.9c-0.2,0-0.3,0-0.5,0c0.3,2.8,0.7,5.7,1,8.5c1.1,10.3,2.2,20.6,3.2,30.9
	c0.7,6.8,1.1,13.7,1.7,20.5c0.1,1.6,0.4,3.2,0.6,5c1.2-0.3,2.2-0.5,3.2-0.7c4.6-1,9.2-1.3,13.8-1.1c7,0.3,14,0.8,21.1,1.1
	c1-18.6,0.7-36.9-0.2-55.2c-0.4-0.1-0.7-0.3-1-0.3c-4.3,0-8.6-0.1-12.9,0c-2.8,0-5.6,0.2-8.4,0.2c-4.8-0.1-9.6,0-14.3,1
	c-2.8,0.5-4.3-0.5-5.3-3.2c-0.3-0.8-0.4-1.5-0.6-2.3C393.3,392.7,392.9,391.3,392.4,389.9z M316.6,196.7c3.2-3.8,6-7.3,9-10.7
	c1.6-1.8,3.3-3.4,4.9-5.2c0.5-0.5,0.9-1.3,0.9-2c0.5-7.3,1.1-14.6,1.3-22c0.1-5.1-0.3-10.2-0.4-15.3c-0.1-4.5,0-8.9-0.1-13.4
	c0-0.9,0-1.7,0-2.6c-2.4-0.8-4.5-1.6-6.8-2.2c-8.8-2.5-17.6-5-26.5-7.5c-1.2-0.3-2.6-0.3-4.2-0.5c0.3,1.2,0.6,2,0.8,2.9
	c1,3.4,2.1,6.8,3,10.3c1.5,5.8,2.8,11.6,4.4,17.4c1.3,4.5,3.1,8.9,4.2,13.5c2.8,11,5.4,22.1,8.1,33.2
	C315.9,193.9,316.2,195.1,316.6,196.7z M354.9,356.2c0.2,0,0.4,0,0.6,0c-0.1-1-0.1-2-0.2-3.1c-0.9-7.2-1.9-14.4-2.8-21.6
	c-0.9-7-1.6-14.1-2.5-21.1c-1.3-10.7-2.8-21.5-4.1-32.2c-1.2-10.4-2.2-20.9-3.4-31.3c-1.1-10.1-2.2-20.2-3.4-30.4
	c-0.7-6.2-2.1-12.2-3.6-18.1c-4.8-0.6-9.4-1.2-14.5-1.8c-1,1.5-2.2,3.4-3.5,5.3c0.4,1.7,0.7,3.4,1.1,5.1c2.7,12.5,5.4,24.9,8.1,37.4
	c2.2,10.2,3.9,20.5,6.5,30.6c5.5,21.8,11.3,43.5,17.1,65.2C351.7,345.7,353.4,350.9,354.9,356.2z M387.8,837.8
	c-1.3,3.2-2.5,6.1-3.7,9.1c-0.6-1.8-0.2-3.6,0.3-5.3s1.1-3.4,1.6-4.9c-2.1-2.3-4.1-4.3-6-6.5c-2.5,3.1-4.9,6.3-6.2,10.2
	c-0.2-0.6-0.4-1.2-0.3-1.7c0.2-1.2,0.4-2.4,0.9-3.4c1.1-2.3,2.3-4.6,3.5-6.8c0.4-0.7,0.8-1.3,0.3-2.2c-0.7-1.6-1.3-3.2-2.1-5.2
	c-2.4,2.5-4.6,4.8-6.8,7.1c-0.1-0.1-0.3-0.2-0.4-0.3c0.7-4.2,3.5-7.3,5.8-10.6c-0.5-1.4-1-2.8-1.3-4.2c-1-4.2-4.2-6.9-9-7.2
	c-4.6-0.3-9.1,0.2-13.6,0.6c-2.2,0.2-4.5,0.7-6.8,1.1c0.1,0.6,0.1,0.9,0.2,1.2c1.4,5.1,1.2,10.3-0.4,15.3c-1.2,3.6-2.6,7-3.8,10.6
	c-1,2.7-1.5,5.5-1.3,8.6c19,6.9,38.6,11,58.8,11.9c5.8,0.2,21.6,0.4,24-0.4c-0.5-1-0.8-2.2-1.5-2.9c-3.8-3.3-8.5-4.8-13.6-5.8
	c-0.4,2.1-0.7,4.1-1.1,6.2c-1.6-2.2-0.4-4.6-0.9-6.8c-2.4-0.9-4.7-1.8-7.2-2.8c-0.8,2.1-1.5,4-2.4,6.3c-0.9-2.8,0.1-4.9,0.4-7.2
	C392.7,840.5,390.4,839.3,387.8,837.8z M111.3,603.3c0,0.2-0.1,0.4-0.1,0.7c1.4,0.6,2.8,1.6,4.3,1.9c2.3,0.5,4.7,0.7,7.1,0.8
	c6.6,0.2,13.2-0.3,19.8-0.7c6.9-0.4,13.9-0.4,20.8-0.5c2.3-0.1,4.6-0.1,6.9-0.3c5.3-0.4,10.6-0.9,16-1.1c7.5-0.4,14.9-1.1,22.2-2.6
	c1.1-3.5,3.1-21.2,2.8-24.6c-0.2,0-0.3-0.1-0.5,0c-17.8,3.5-35.6,6.8-53,11.8c-11.9,3.4-23.8,6.7-35.7,10.1
	C118.3,599.8,114.7,601.2,111.3,603.3z M449,525.4c0.1,0,0.3,0,0.4,0.1c0.2-0.6,0.4-1.2,0.4-1.8c0.2-4.5,0.4-8.9,0.6-13.4
	c0.1-1.2-0.1-2.4,0.1-3.6c0-0.3,0.5-0.9,0.8-0.9c0.4,0,1,0.3,1.3,0.6c0.2,0.2,0.2,0.6,0.3,0.9c1.2,3.5,3.1,6.7,5.6,9.4
	c2.4,2.7,3.9,5.8,5.1,9.2c0.6,1.5,0.6,3.3,0.6,4.9c0,2.3-0.3,4.6-0.4,6.9c0,2.2,0.7,3.1,3.2,4.1c0.2-1.4,0.4-2.7,0.6-4
	c0.1-1,0.2-2.1,0.1-3.1c0-2.5-0.1-4.9-0.2-7.4c0-0.6-0.2-1.2-0.1-1.7c0.5-1.5,0.1-2.8-0.4-4.2c-0.6-1.7-1.2-3.3-2-4.9
	c-1.2-2.5-2.5-4.8-3.6-7.3c-0.7-1.4-1.1-2.9-1.6-4.3c1.1-0.8,1.4-0.2,1.7,0.4c1.9,3.7,3.8,7.3,5.8,11c1.3,2.4,2.3,4.9,2.5,7.7
	c0.3,4.1,1.1,8,2.3,11.9c0.5,1.6,1.2,3.1,3.4,3.5c0.1-1.9,0.4-3.6,0.4-5.3c0-3.4-0.3-6.9-0.3-10.3c0-3.5-0.8-6.6-3-9.4
	c-1.2-1.5-2.2-3.1-3.2-4.8c-0.6-0.9-1.1-1.8-1.5-2.7c-0.2-0.6-0.5-1.4,0.8-2.1c0.1,0.2,0.2,0.6,0.3,0.8c1.9,2.7,3.8,5.3,5.8,7.9
	c0.7,0.9,1.4,1.8,1.9,2.8c1.7,3.6,3.2,7.3,4.8,10.9c0.4,1,0.8,2.1,1.3,3.1c0.9,1.6,1.9,3.2,3.9,4c-0.8-4.8-1.4-9.4-2.2-13.9
	c-0.6-3.4-2-6.4-4.7-8.6c-1.7-1.4-3.4-2.9-5-4.5c-0.7-0.7-1.2-1.6-1.8-2.3c0.8-0.8,1.3-0.5,1.9,0c1.8,1.5,3.6,2.9,5.4,4.3
	c2.9,2.2,5.2,4.9,6.2,8.6c0.3,1.2,1.1,1.8,2.4,1.9c-0.2-1.4-0.4-2.7-0.6-3.9c-0.3-2.4-0.6-4.9-0.9-7.3c-0.2-1.3-0.8-2.5-2-3.2
	c-2.1-1.2-4.1-2.6-6.2-3.5c-6.3-2.5-10.6-6.7-12.4-13.3c-0.2-0.9-0.5-1.8-0.9-2.9c-7.8,0.3-15.6-1-23.6-0.3c-0.2,1.1-0.4,2-0.4,2.9
	c0,2.8,0,5.6,0.3,8.3c0.5,4.5,1.3,9,1.9,13.5s2.9,8.5,3.6,13C448.3,524,448.7,524.7,449,525.4z M189.7,837.6c1.5,1,2.8,1.7,3.9,2.7
	c0.8,0.6,1.4,1.5,1.8,2.4c0.5,1.2-0.3,1.9-1.5,1.5c-0.8-0.3-1.5-0.8-2.2-1.3c-1.3-0.9-2.6-1.8-3.9-2.7c-2,2.2-3.8,4.1-5.6,6.1
	c5.1,4.3,5.1,4.4,4.3,6.8c-2.8-0.6-3.8-3.8-6.8-4.8c-1.3,1.5-2.7,3.1-4.1,4.8c0.9,1,2,2.1,3.1,3.3s1,2.4,0.2,3.9
	c-2.7-1.1-3.4-4.4-6.1-5.4c-0.8,0.7-1.5,1.4-2.3,2.2c0.7,0.6,1.3,1.1,1.9,1.7c1.4,1.3,2.7,2.7,3.3,4.6c0.1,0.4,0,1-0.1,1.6
	c-3.4-1.1-4.5-4.7-7.5-6.1c-1.8,1.5-3.6,3-5.1,4.2c0.7,3.1,1.3,5.8,2,8.6c0.1,0,0.5,0,0.8-0.1c5.2-1.3,10-3.3,14.2-6.6
	c2.4-1.9,4.9-3.5,7.8-4.5c5.1-1.8,10.3-2.8,15.6-3.6c2-0.3,4-0.9,6.1-1.3c0.2-3.1,0.4-6,0.5-9c-0.9-0.2-1.7-0.3-2.4-0.5
	c-3-0.6-4.8-2.6-5.5-5.3c-0.7-2.4-0.4-4.8,0.8-6.9c1-1.8,2.6-2.8,4.7-2.8c1.2,0,2.3,0,3.7,0c0-1.5,0-3,0-4.7
	c-1.7-0.5-3.4-0.9-5.2-1.5c-3.6-1.2-6.6,0-9.2,2.5C193.8,830.1,192.1,834.1,189.7,837.6z M340.1,857.5c3.9,1,7.6,2,11.3,2.9
	c5.5,1.3,11,2.7,16.6,3.8c9.1,1.8,18.3,2.9,27.6,2.9c9.7,0.1,19.3,0.3,29-0.7c6.7-0.7,13.2-2.1,18.8-6c0.1-3.3,0.8-6.6-0.4-9.9
	c-1.4,0.8-2.6,1.7-4,2.2c-6.8,2.8-13.9,4.7-21.3,5.2c-3.5,0.2-7-0.2-10.5-0.2c-8.9,0.1-17.7-0.3-26.5-1.4c-7-0.9-14.1-1.8-21-3.6
	c-7-1.9-14.1-3.6-21.1-6.1c0.1,1.5,0.3,2.9,0.4,4.4c1.4-0.1,2.5-0.2,3.6-0.2c5.6,0,10.9,1.1,16.2,2.8c16.2,5.2,32.8,8.2,49.9,8.5
	c5.5,0.1,10.8-0.9,16.2-1.3c2.6-0.2,5.3-0.4,7.9-0.6c-0.5,0.7-1.1,1.2-1.7,1.3c-5.5,1.6-11.1,3.2-16.9,3.4
	c-5.9,0.1-11.8-0.1-17.7-0.5c-10.6-0.8-21-3-31.2-6c-6.1-1.8-12.1-4.1-18.4-5.2c-2.4-0.4-4.9-0.5-7.5-0.4
	C339.5,854.5,339.8,855.9,340.1,857.5z M398,395.7c3-0.5,5.9-1.3,8.7-1.3c8.1,0.1,16.3-0.7,24.4,0.1c1.6,0.2,3.3,0,5.2,0
	c-0.4-6.2-0.7-12.1-1.1-18.2c-7.4,1.2-14.4,2.5-21.5,3.4s-14.2,1.2-21.3,3.2C395.3,386.8,396.6,391.2,398,395.7z M209.3,865.1
	c0.3-1.9,0.5-3.7-0.5-5.3c-4.2,0.7-8.2,1.3-12.2,2.2c-5.5,1.1-10.5,3.1-14.9,6.8c-2.7,2.3-5.8,4.2-9.2,5.5c-5.4,2-10.9,3.2-16.6,2.7
	c-3-0.2-6-0.5-9-1c-5.3-0.8-10.6-1.8-15.3-4.4c-0.1-0.1-0.3,0.1-0.5,0.1c-0.2,1.6-0.3,3.2-0.5,4.8c0.3,0.1,0.4,0.2,0.6,0.2
	c0.5,0,1,0,1.4-0.1c4.6-0.6,9-0.4,13.5,1c4,1.3,8,1.8,12.3,1.3c4.5-0.6,9-1.2,13.2-3.2c3.5-1.6,6.9-3.4,10.4-4.8
	c4-1.6,8.1-3,12.2-4.3c1.7-0.5,3.6-1,5.9-0.6c-1.8,1.4-3.6,1.7-5.3,2.2c-7,1.8-13.6,4.6-20,7.9c-8.2,4.2-16.6,6-25.7,4.2
	c-2-0.4-4-1-6-1.6c-4.1-1.4-8.3-0.9-12.6-0.7c0.2,1.7,0.4,3.1,0.6,4.3c5.3,0.7,10.3,1.4,15.2,2.2c6.2,0.9,12.3,1.6,18.5,0.1
	c5.5-1.3,10.7-3.2,14.9-7.2c2.1-2.1,4.7-3.7,7.5-4.7c3.5-1.3,7.1-2.5,10.7-3.4C201.7,868.3,205.6,867.3,209.3,865.1z M193,387.4
	c-0.1-0.5-0.1-0.6-0.2-0.7c-3.4-4.4-7-8.7-11.1-12.5c-1.5-1.3-3.1-1.8-5.1-1.3c-5.2,1.2-10.4,2.3-15.7,3.3c-2.8,0.5-4.3,2-4.9,4.4
	c1.7,1.2,3.3,2.5,5,3.5c3.7,2.2,7.5,4.3,9.5,8.5C178.2,390.8,185.6,389.1,193,387.4z M162.3,872.1c-0.4-1.4-0.9-2.7-1.2-4
	c-0.4-2.3-1.7-3.9-3.5-5.2c-4-2.9-8.6-4.3-13.3-5c-2.8-0.4-5.5,0.5-7.5,2.4c-2.5,2.3-4.2,5.1-5.5,8.2
	C135.2,871.6,155.5,873.9,162.3,872.1z M316.4,299.3c-6.1,2-12.1,4-18.1,6c-0.6,4.6-0.1,9.1,0.9,13.8c7.5-2.4,14.9-4.1,21.9-7.2
	C319.5,307.5,317.9,303.4,316.4,299.3z M434.2,586.7c-0.6,0-1.3,0-1.9,0c-3.7,0-7.3,0.2-10.9,0c-3.5-0.2-6.9-0.9-10.4-1.2
	c-2.4-0.2-4.9,0-7.5,0c0,4.2,0,8.4,0,12.9c2.9-0.8,5.5-1.6,8.2-2.4c4.4-1.3,8.9-2.5,13.3-3.9C428.3,590.8,431.5,589.3,434.2,586.7z
	 M187.1,835.9c0.5-0.8,1.2-1.7,1.8-2.7c1.6-2.6,1.5-5.2-0.7-7.4c-1.2-1.2-2.5-2.3-3.9-3.1c-3.8-2.2-9.2-1.1-11.7,2.2
	c-1.1,1.4-3.1,7.5-3.2,9.4c2.8,0,5.7-0.2,8.5,0.1C180.9,834.6,183.7,835.3,187.1,835.9z M281.9,349.6c-0.2-0.8-0.3-1.3-0.3-1.8
	c0-4.5-0.3-9.1-1.4-13.5c-0.3-1.1,0.2-1.9,1.4-2.4c4.4-1.7,8.9-3.1,13.7-3.4c0.2-0.9,0.4-1.8,0.6-2.8c-2.8,0.4-2.8,0.4-4.9-1.2
	c-4.9,0.8-9.8,1.6-14.8,2.4c0,3.3,0,6.5-0.2,9.6c-0.2,3.2-0.6,6.3-1,9.5c-0.3,3.1-0.8,6.2-0.8,9.3c0.2,0.1,0.3,0.2,0.5,0.2
	C277.1,353.6,279.5,351.6,281.9,349.6z M442.6,848.3c-1.9-4.2-4-6.1-8-7.3c-2.3-0.7-4.6-1.2-6.9-1.8c-2.5-0.6-2.8-0.4-3.6,2.1
	c-1.2,4.1-0.9,8.3-0.2,12.5c0,0.2,0.2,0.4,0.5,0.8C430.6,853.3,436.9,851.9,442.6,848.3z M290.1,321.4c-0.6-4.5-1.6-9.1-1.3-13.7
	c-4.6,1-9,1.9-13.3,2.8c0.7,4.3,1.4,8.4,2,12.4C281.8,322.4,285.9,321.9,290.1,321.4z M338.4,304.5c-1.2-4.5-2.4-8.8-3.6-13.5
	c-5.6,2.5-10.9,4.9-16.4,7.3c1.8,4.3,3.4,8.4,5.2,12.7C328.6,308.8,333.3,306.7,338.4,304.5z M179.2,817.9
	c6.7,0.4,10.8,3.7,13.2,9.4c1-1,1.8-2.1,2.8-2.9c3.3-2.8,7-4.1,11.2-2.3c1.7,0.7,3.4,1.3,5.2,2c0.2-0.6,0.3-1.2,0.6-1.9
	c-10.6-3.9-21.3-6.8-32.6-8.1C179.5,815.4,179.4,816.6,179.2,817.9z M147.5,396.3c4.6-0.2,19-2.8,20.2-3.6
	c-4.3-3.2-8.6-6.4-12.9-9.7C152.4,387.3,150,391.7,147.5,396.3z M421.9,838.1c-2.7-0.9-5.6-1.8-8.4-2.8c-0.9-0.3-1.6,0-2.2,0.6
	c-1.8,2.1-2.8,4.5-3.7,6.8c4.3,1.7,8.3,3.4,12.1,4.9C420.4,844.7,421.2,841.6,421.9,838.1z M284,347.6c4.7-5.1,8.6-10.1,10.8-16.5
	c-4.5,1-8.8,1.1-12.8,3C282.7,338.5,283.3,342.8,284,347.6z M376.6,815c2.8-1.3,5.5-2.6,8.2-3.8c-0.3-3-0.5-6.1-0.8-9.5
	c-1.3,0-2.5,0-3.7,0c-0.6,0-1.4-0.1-1.8,0.2c-1.8,1.6-3.6,3.3-5.1,4.8C374.5,809.8,375.6,812.4,376.6,815z M184.7,839.2
	c-0.1-0.2-0.3-0.5-0.4-0.8c-5.1-2.4-10.5-2.1-15.9-2.2c-0.5,1.1-0.9,1.9-1.4,3.1c4.8,0.4,8,3.7,11.6,5
	C180.8,842.5,182.8,840.8,184.7,839.2z M381.8,827.9c1.4,2.6,3.2,4.4,5.3,5.9c2-2.8,3.9-5.5,5.8-8.3c-1.1-1.3-2.4-2.7-3.6-4.2
	C385.9,822.4,384,825.2,381.8,827.9z M172.3,851.1c1.6-1.6,3.2-3.1,4.8-4.7c-3.7-2.2-6.6-5.3-11-5.6c-1.3,1.5-2.5,2.8-3.9,4.5
	C166.6,845.7,169.3,848.6,172.3,851.1z M146.8,854.9c5,1.5,9.9,2.9,13.8,6.5c1.7-1.3,3.2-2.5,4.8-3.9c-3-1.4-5.6-2.8-8.3-4
	C153.6,851.9,150.1,852.2,146.8,854.9z M345.9,805.1c1.4-0.3,2.5-0.6,3.6-0.8c7.2-1.3,14.5-2.3,21.6,0.6c0.7-1,1.3-2.1,2.1-3.3
	c-9.1-0.4-17.9-0.8-26.8-1.2C346.2,801.9,346,803.3,345.9,805.1z M389.3,835.6c2.3,1.2,4.4,2.3,6.6,3.4c0.8-1.7,1.5-3.2,2.2-4.5
	c0.8-1.4,1.7-2.6,2.7-4c-1.9-1.1-3.9-2.2-5.9-3.3C392.6,829.5,391.2,832.4,389.3,835.6z M170.6,852.7c-1.1-1-2-1.7-2.9-2.6
	c-1.8-1.8-3.9-2.8-6.3-3.2c-0.5-0.1-1.1,0-1.5,0.2c-1.7,1.2-3.4,2.4-5.2,3.7c2,0.7,3.8,1.2,5.5,1.9c1.9,0.7,3.9,1.4,5.8,2.3
	c1.2,0.6,2.1,0.4,2.9-0.6C169.4,853.9,169.8,853.5,170.6,852.7z M114.8,471.6c5.6-9.5,9.8-19.4,11.5-30.4
	C121.7,451,117.2,460.9,114.8,471.6z M102,468.1c1.9-1,3.3-1.9,2.9-4c-0.2-1.1-0.6-2.2-1.1-3.1c-0.9-1.7-3.2-2.7-4.9-2.2
	c-1.7,0.4-3.3,2.5-3.2,4.3c0,0.6,0.3,1.5,0.8,1.8C98.3,466,100.2,467,102,468.1z M88.1,452.4c-0.2-0.7-0.6-1.8-1-2.9
	c-0.8-2.3-2.6-3.1-4.8-3.3c-1.4-0.2-2.4,0.6-3.1,2.1c-0.7,1.4-0.6,2,0.6,3.2s2.5,2.4,3.8,3.6c0.7,0.7,1.5,1.2,2.5,0.6
	C87.3,455,88.1,454.2,88.1,452.4z M408.8,834c-1.1-0.4-2.5-0.9-3.7-1.5c-1.1-0.5-1.8-0.3-2.4,0.7c-1.4,2.2-2.7,4.4-4.2,6.9
	c2.4,0.9,4.5,1.7,6.4,2.4C406.1,839.5,407.4,836.8,408.8,834z M296.9,321.6c-0.7-5.3-1.4-10.4-2.1-15.7c-1.2,0.3-2.1,0.6-3.2,0.9
	c-0.5,5.4,1,10.4,2.2,15.7C294.9,322.2,295.8,321.9,296.9,321.6z M380.1,824.8c2.4-2.5,4.5-5,7.8-5.8c-0.8-1.7-1.4-3.1-2.2-4.7
	c-3.2,0.7-5.5,2.5-7.7,4.8C378.7,820.9,379.3,822.7,380.1,824.8z M308.7,74.6c-2.6-1.9-5-1.8-6.4,0.2s-0.6,4.1,2.7,6.2
	C306.2,78.9,307.5,76.7,308.7,74.6z M210.3,843.4c0.2-1.3,0.4-2.6-1.3-2.9c-0.7,0.5-1.4,1-2.3,1.7c-0.3-1.1-0.4-2-0.8-2.7
	c-0.4-0.8-1.4-1.4-1.1-2.1c1.1-0.8,2-1.1,2.5-1.8c1.4-1.9,1.3-2,3.5-1.6c-0.5-1.2-1.5-1.5-3.4-1.1c-2.8,0.7-3.9,3.1-3.5,5.9
	C204.2,842,206.6,843.7,210.3,843.4z M352,397.5c-0.1-0.2-0.2-0.4-0.2-0.6c-3.2,0.6-6.4,1.3-9.8,1.9c0.2,1.7,0.3,3.1,0.4,4.7
	C345.8,401.5,348.9,399.5,352,397.5z M483.1,454.9c-2.3,0.2-3.6,1-3.8,2.4c-0.3,1.6,0.7,2.5,2,3.6
	C481.9,458.8,482.5,457,483.1,454.9z M477,474.7c0.5-1.8,0.9-3.3,1.4-5c-1.5,0.1-2.5,0.5-2.8,1.7C475.3,472.6,475.4,473.8,477,474.7
	z M341.5,388.3c1.9-1.3,3.5-2.5,5.1-3.6c-0.1-0.2-0.2-0.3-0.2-0.5c-1.6,0.5-3.3,0.9-4.9,1.4C341.5,386.5,341.5,387.2,341.5,388.3z
	 M339.3,395.5c-0.1-0.2-0.1-0.5-0.2-0.7c-0.8-0.2-1.3,0.5-2.2,1.4C338.1,395.9,338.7,395.7,339.3,395.5z"></path>
<path d="M344.1,343.6c-1.6-4-3.2-8.1-3.5-13C342.4,332.2,344.2,339.3,344.1,343.6z"></path>
<path d="M334.9,313.8c0.7-0.8,1.3-0.7,1.6,0.1c0.5,1.3,0.9,2.7,1.3,4.1c0.5,1.8,0.9,3.5,1.1,5.4C337,320.4,335.8,317.1,334.9,313.8z
	"></path>
<path d="M344.4,362c0.2-3.8,0.3-7.5,0.5-11.3c1.1,1.3,1.2,1.9,1,5.8C345.7,359,345.4,360.5,344.4,362z"></path>
<path d="M339.8,365.7c1-1,1.9-1.8,2.9-2.7C342.1,365.3,341.7,365.8,339.8,365.7z"></path>
<path d="M63.4,374.7c3.9-2.8,7-5.8,11-7.3c0.1,0.1,0.2,0.2,0.3,0.4c-0.6,0.6-1.3,1.2-1.9,1.9c-3.7,3.8-7.5,7.7-11.2,11.5
	c-0.2,0.2-0.4,0.5-0.6,0.7c-0.6,0.7-1.2,1.3-2.3,0.8c-1-0.5-1.8-2-1.4-3c0.3-1.1,0.8-2.1,1.2-3.1c0.3-0.7,0.5-1.4,0.6-2.2
	c-4.7,3.8-9.1,7.8-12,13.4c-0.9-1-0.6-1.8-0.2-2.5c1.1-1.8,2.1-3.8,3.5-5.4c3.5-3.8,7.2-7.5,10.8-11.2c0.2-0.2,0.3-0.3,0.5-0.5
	c0.8-0.7,1.8-1.3,2.8-0.6c1,0.7,0.6,1.7,0.3,2.6C64.6,371.5,64.1,372.8,63.4,374.7z"></path>
<path d="M246.5,114c-0.1,3.5-1.7,6.1-2.6,9.3c-0.6-2-0.6-2,0.1-5.2C244.7,114.7,244.7,114.7,246.5,114z"></path>
<path d="M288,120.9c-2.2-1.5-4.4-3.1-5.7-5.5c0.5-1,1.2-0.8,1.8-0.3C285.7,116.8,287.2,118.5,288,120.9z"></path>
<path d="M278.8,123c-1.4-1.4-2-3.3-2.6-5.1c-0.2-0.7-0.1-1.5,0.8-1.7s1.3,0.5,1.5,1.2c0.3,1.8,0.5,3.5,0.8,5.3
	C279.1,122.9,279,123,278.8,123z"></path>
<path d="M235.7,109.9c0.2,1.8-1.7,5.7-3.9,7.9C232.3,113.9,234,110.3,235.7,109.9z"></path>
<path d="M232.6,108c-0.4,2.7-2.6,3.9-4.1,5.8c-0.4-1.7,0.2-3.4,1.5-5C230.6,108.1,231.3,107.6,232.6,108z"></path>
<path d="M259.7,116.3c0.5,3.1-0.1,5.6-0.8,8.1c-0.8-2.2-1.2-4.5-0.8-6.9C258.2,117.1,259,116.8,259.7,116.3z"></path>
<path d="M272.4,124c-0.5-2-0.9-4.1-1.3-6.2c-0.1-0.3,0.5-0.8,0.9-1.2c0,0,0.7,0.3,0.8,0.6C273.2,119.5,273.6,121.8,272.4,124z"></path>
<path d="M237.3,120.9c-0.2-2.4,0.8-4.4,1.4-6.5c0.1-0.4,0.5-0.8,0.8-1.1c0.1-0.1,0.4,0,0.7,0C240.4,115,239.2,118,237.3,120.9z"></path>
<path d="M251.4,123.1c-0.3-2.3-0.5-4.7,0.4-7c0.1-0.2,0.6-0.3,1.2-0.6C253.3,118.4,252.2,120.7,251.4,123.1z"></path>
<path d="M266.5,123.6c-1.2-2-1.7-4.2-1.3-6.5c1-0.4,1.2,0.2,1.3,0.9C266.5,119.9,266.5,121.8,266.5,123.6z"></path>
<path d="M286.9,55.6c-1,0.2-1.8,0.2-2.5,0.4c-5.6,1.5-11.1-2.3-11.7-8.2c-0.2-1.8,0.3-2.5,2.1-2.7c4.5-0.6,9.8,0.8,12,6.6
	C287.2,53,287.4,54.3,286.9,55.6z M282.8,50.7c-0.7,0.5-1.1,0.8-1.6,1.1c-1.9,1-3.1,0.4-3.2-1.7c0-0.7-0.1-1.4-0.1-2.1
	c-0.8-0.1-1.4-0.3-2-0.4c-0.6-0.1-1.2-0.1-1.9-0.1c1.6,5.8,5.8,8.2,10.5,6.2c-0.2-0.3-0.3-0.7-0.5-1
	C283.7,52.1,283.3,51.5,282.8,50.7z"></path>
<path d="M311.8,60.4c-3.5,5.8-9.8,7.3-14.9,3.5c-0.4-0.3-0.8-0.6-1.1-0.9c-1.2-1.4-1.1-2.6,0.5-3.6c0.9-0.6,2-1.1,3-1.4
	c4.1-1.3,8-0.6,11.7,1.6C311.3,59.8,311.5,60.2,311.8,60.4z M296.3,61.6c3.8,3.6,8.6,3.3,11.6,0.8c0.4-0.3,0.8-0.9,1.2-1.4
	c-0.8-0.2-1.4-0.4-2-0.6c-0.5,0.5-1,1.1-1.5,1.6c-2.1,1.8-3.1,1.4-3.9-1.3c0-0.1-0.2-0.2-0.4-0.5C299.8,60.6,298.2,61.1,296.3,61.6z
	"></path>
<path d="M274.6,76.2c3-0.8,5.7-1.8,8.5-0.3c0.3,0.2,0.8,0.2,1.2,0.2c4.2,0.3,5.3,1.3,6.3,5.6c-2.8,1.8-5.5,3.7-9.4,2.4
	C277.3,82.9,276.4,79.5,274.6,76.2z M288.7,81c-1.1-2.1-2.5-3.3-4.9-2.6c-0.6,0.2-1.4-0.2-2-0.5c-1.5-0.8-2.9-0.8-4.6-0.5
	C279.2,81.8,282.7,82.8,288.7,81z"></path>
<path d="M276.2,60.7c0,2.6-2.2,4.8-4.8,4.8c-3,0-5.2-2.2-5.4-5.2c-0.2-2.5,2.4-4.8,4.6-4.7C273.6,55.8,276.2,58,276.2,60.7z
	 M276.1,60.8c-0.6-0.9-1-1.8-1.7-2.4c-0.9-0.7-2-1.2-3.2-1.7c-1.1-0.4-2.4-0.6-3.3,0.5c-1,1.2-1.5,2.4-0.9,4c1,2.9,5.2,4.2,7.5,2.1
	C275.2,62.7,275.5,61.7,276.1,60.8z"></path>
<path d="M285.4,68.5c3.1-0.3,5.1,1.5,7.7,2.2c-1.3,1.7-2.8,1.9-4.5,1.6C286.7,71.9,285.8,70.6,285.4,68.5z"></path>
<path d="M355,818.5c3.6-0.2,6.4,1.2,7.5,4.1c1.4,3.8,1.5,6.9-1.3,10c-2.4,2.7-5.1,3.7-8.6,2.8c-4.2-1.1-6.5-4.1-6.3-8.6
	c0.1-1.2,0.4-2.5,0.8-3.7c1.1-3.3,3-4.5,6.5-4.4C354.1,818.6,354.4,818.5,355,818.5z M353.2,819.9c-1.1,0.6-2.3-0.1-3.2,1.1
	c-2,2.7-2.6,5.7-1.6,8.8c0.8,2.7,3.2,3.5,5.8,3.9c3.5,0.4,7.4-2.9,7.3-6.5c0-2.3-0.7-4.6-2.9-5.6C356.9,820.7,355,820.4,353.2,819.9
	z"></path>
<path d="M334.7,300.6c-0.1,2.4-2.6,4.5-5.6,4.1c-2.1-0.3-4.2-1.8-4.4-3.5c-0.3-2.2,0.7-4,2.3-5.4c1.6-1.4,3.5-1.6,5.3-0.6
	C334.1,296.2,334.8,297.9,334.7,300.6z M329.4,298.7L329.4,298.7c-0.3,0-0.6,0-0.9,0c-0.8,0.2-1.8-0.1-2.2,1
	c-0.2,0.7,0.7,1.8,1.9,2.1c0.7,0.1,1.4,0.1,2-0.1c0.9-0.4,1.6-1.2,1.4-2.2s-1.2-0.7-2-0.8C329.5,298.7,329.5,298.7,329.4,298.7z"></path>
<path d="M354.3,830.3c-1,0.5-1.9,0.9-2.9,1.4c-0.3-0.5-0.8-0.9-0.8-1.1c0.9-1.9-0.8-3.3-1.1-4.9c-0.1-0.3-0.1-0.6-0.2-1.1
	c1.5,0.1,2.5-0.6,3.2-2c0.4-0.9,1.4-1.4,2.1-0.4c1.2,1.6,2.7,2.4,5.3,1.8c-0.6,1.2-0.9,2.1-1.4,2.6c-1.1,1-1.5,2.2-1.4,3.6
	c0.1,0.5-0.2,1-0.4,2C355.8,831.5,355.1,831,354.3,830.3z"></path>
<g id="Color">
	<path class="st1" d="M234.9,567.9c-5.5,2.5-11.5,2.8-17.2,4c-16.3,3.4-32.8,6.3-49,10.2c-15,3.6-29.7,8.2-44.5,12.6
		c-4.4,1.3-8.6,3.3-13.1,5c-0.2-1.1-0.5-2.4-0.7-3.7c-1.2-8.1-2.5-16.2-3.7-24.3c-1.8-12.5-3.5-25.1-5.1-37.6
		c-1.1-7.9-2-15.8-3.1-23.7c-0.8-5.9-1.7-11.8-2.3-17.8c-0.7-6.3-1-12.7-1.5-19c-0.2-2.1-0.5-4.2-0.8-6.6c0.5,0.2,1,0.4,1.3,0.5
		c4.1,2,8.2,4,12.2,6c0.9,0.5,1.9,0.9,2.6,1.6c1.7,1.5,3.1,1.6,4.6,0c1.4-1.4,2.7-3,3.7-4.7c1.7-3,3.2-6.1,4.8-9.1
		c0.2-0.5,0.5-0.9,1-1.8c0.4,3.3,0.8,6.1,1.2,8.9c0.7,4.1,1.4,8.2,2.2,12.2c0.1,0.6,0.2,1.1,0.4,1.6c0.7,1.9,0.8,1.8,2.9,1.8
		c2.6,0,5.2,0.2,7.8,0.4c8,0.8,16.1,1.2,24.1,0.4c3.2-0.3,6.5-0.4,9.8-0.5c7.7-0.2,15.2-1.6,22.7-3.4c5.4-1.4,6.7-3.2,6.7-8.8
		c0-4.9,0.1-9.8,0-14.6c-0.2-7.1-0.6-14.2-1-21.3c-0.3-5.4-0.5-10.8-1-16.2c-0.8-9.3-1.8-18.5-2.7-27.8c-0.1-1-0.3-2.1-0.2-3.1
		c0.4-2.1-0.4-3.6-1.7-5.2c-3.6-4.4-7.1-8.8-11.4-12.6c-2.5-2.2-5.1-3-8.4-2.1c-5.2,1.4-10.3,2.7-15.6,4.1c0-2.8-1.5-5.1-3.2-7.3
		c-3.2-4.1-6.2-8.3-9.3-12.5c-5.3-7.2-10.8-14.2-17.3-20.5c-0.3-0.3-0.5-0.6-0.9-1c0.3-0.5,0.7-1.1,1-1.6c3.7-5.7,7-11.6,9.7-17.9
		c3.4-7.9,7-15.8,10.3-23.7c2.5-5.9,3.8-12,3.7-18.4c0-2.1-0.5-4.2-2-5.8c-9.6-10.1-16.9-21.8-24.6-33.3
		c-6.1-9.1-13.2-17.5-20.1-25.9c-5.8-7.1-11.8-14-18.5-20.4c-0.4-0.4-0.7-0.8-1.1-1.3c3.9-2.4,7.7-4.7,11.6-7
		c8.2-4.9,16.5-9.8,24.8-14.5c12-6.9,24.6-12.5,37.5-17.5c5.3-2,10.5-4.3,15.7-6.5c0.7-0.3,1.3-0.5,2-0.8c0.2,0.2,0.5,0.3,0.6,0.5
		c4.6,12.1,9.2,24.2,13.6,36.3c3.4,9.5,6.3,19.1,8.3,29c0.8,4.2,1.7,8.4,2.6,12.6c0.1,0.6,0.3,1.2,0.5,1.8c0.5,1.2,1.3,1.6,2.6,1.6
		c3.6,0,7.2,0,11.3,0c-0.6,0.8-0.8,1.2-1.1,1.5c-4.4,3.6-8.7,7.2-13.1,10.8c-0.4,0.3-0.8,0.6-1.2,0.9c-2.3,1.7-3.2,3.7-2.5,6.8
		c2.2,9.5,3.8,19.1,5.9,28.5c3.6,16.5,7.3,33,11.1,49.5c1.6,7.2,3.7,14.2,5.3,21.4c2.3,10.3,4.7,20.7,6.6,31.1
		c1.9,10.5,3.3,21.1,5,31.6c1.9,12.2,3.9,24.4,5.8,36.5c1,6.4,2,12.7,1.7,19.2c-0.2,4.1,0,8.2,0,12.2c-0.1,8.6-0.3,17.1-0.5,25.6
		c-0.1,4.5-0.2,8.9-0.5,13.4c-0.3,4.8-0.8,9.7-1.2,14.5c-0.7,7.1-1.3,14.3-2.1,21.4c-0.7,5.8-1.7,11.5-2.5,17.3
		C235.4,564.1,235.2,565.9,234.9,567.9z" style="fill: rgb(183, 189, 239);"></path>
	<path class="st1" d="M231.2,825.1c-1.3-0.5-2.3-0.9-3.3-1.3c-12.3-5.3-25-9.4-38-12.2c-2-0.4-4.1-0.5-6.1-1
		c-5.4-1.2-10.7-2.5-16.1-3.8c-3.2-0.7-6.4-1.4-9.6-2.1c-0.7-0.2-1.3-0.4-2.2-0.7c0.6-2.1,1.1-4.1,1.9-6
		c6.2-14.5,11.5-29.4,16.3-44.5c5.5-17.3,10.4-34.7,14.8-52.3c3.8-14.8,7.3-29.8,11.1-44.6c2.9-11.2,6.2-22.3,8.2-33.7
		c1.6-9,3-18.1,4.2-27.2c0.8-6.4,1.2-12.8,1.7-19.6c3.2-0.6,6.6-1.3,10-1.9c2.5-0.5,5-0.9,7.5-1.5c1.6-0.4,3.2-1.1,4.6-1.9
		c0.5-0.3,1-1.2,1.1-1.9c0.9-6.1,1.8-12.3,2.6-18.4c0.5-3.5,0.8-7,1.1-10.4c0.8-8.8,1.8-17.6,2.4-26.4c0.5-8.2,0.5-16.4,0.7-24.7
		c0.2-7.8-0.1-15.7,0.6-23.5c0.5-5.2-0.5-10.3-0.2-15.5c0.1-1.5,0.3-2.8,0.8-4.2c4.8-12.1,9.7-24.1,14.3-36.3
		c5-13.3,9.5-26.8,12.4-40.7c0.5-2.3,0.9-4.7,1.2-7.1c0.2-1.5,0.8-2.3,2.1-3.2c8-5.2,14.8-11.6,19.4-20.1c1.8-3.2,2.6-6.7,3-10.3
		c0.2-1.5-0.1-3.2,1.6-4.2c0.4-0.3,0.4-1.3,0.5-1.9c7.5-2,14.9-4,22.8-6.2c0.9,2.5,2,5.3,2.9,8.2c4.7,15.7,8.3,31.6,11.1,47.8
		c0.7,4,1.2,8,1.8,12.2c-3.2,1.4-6.4,2.8-9.7,4.2c0.7,1.3,1.5,1.1,2.4,0.8c2.4-0.8,4.7-1.5,7.2-2.4c0.1,0.5,0.2,1,0.4,1.5
		c0.6,1.4-0.1,2.2-1.2,2.9c-2.2,1.4-4.4,3-6.6,4.4c-1.1,0.7-2.1,1.5-3.1,2.2c-0.8,0.7-2,1.2-1.5,2.7c0.4,1,2.2,1.9,3.4,1.7
		c0.8-0.1,1.5-0.4,2.3-0.6c2.4-0.7,4.7-1.4,7.4-2.2c0.1,2.1,0.2,3.9,0.1,5.7c0,0.6-0.7,1.2-1.2,1.7c-9.2,7.4-17.4,15.8-25.6,24.1
		c-0.2,0.2-0.3,0.4-0.5,0.7c1.1,0.4,1.7-0.3,2.3-0.8c2.6-1.9,5.1-3.9,7.6-5.9c4.1-3.3,8.2-6.6,12.3-9.9c0.5-0.4,1-0.7,1.8-1.2
		c-0.1,0.8-0.1,1.3-0.2,1.7c-3.2,11.8-6.2,23.8-9.8,35.5c-4.2,13.6-8.9,27-13.7,40.3c-8.2,22.9-17.1,45.6-27.3,67.7
		c-1.7,3.7-3.6,7.3-5.4,11c-2.2,4.4-5.8,7.6-9.5,10.6c-3.7,2.9-7.6,5.6-11.3,8.5c-1.9,1.4-2.1,1.9-1.5,3.2c1.1,2.2,2.5,3.1,4.5,2.6
		c0.9-0.2,1.8-0.6,2.8-0.8c0.9-0.3,1.8-0.5,3.2-0.9c-0.6,1-1,1.5-1.3,2c-4,6.1-8.1,12.1-12.1,18.2c-1.9,2.9-1.3,4.8,2.1,6.6
		c0.5-0.7,1.1-1.4,1.6-2.1c3.9-5.9,7.8-11.9,11.7-17.8c0.1-0.1,0.2-0.2,0.5-0.3c0.5,0.8,0.3,1.7,0.3,2.5c-0.4,14.4-3,28.5-6.1,42.5
		c-2.2,10.3-4.1,20.7-6.6,30.9c-2.6,10.8-6,21.4-8.7,32.1c-3.1,12.5-6.2,25.1-8.8,37.8c-2.5,12.1-4.5,24.3-6.5,36.5
		c-0.7,4.5-0.8,9-1.2,13.6c-0.6,7-1.2,14-1.7,21c-0.1,1.5,0,3,0,4.6C231.2,822.2,231.2,823.4,231.2,825.1z" style="fill: rgb(68, 54, 212);"></path>
	<path class="st1" d="M415,249.3c-0.7-0.5-1.1-0.8-1.6-1c-1-0.5-1.9-0.2-2.7,0.4c-0.8,0.6-0.7,1.4-0.4,2.2c0.9,3,1.7,6,2.8,8.9
		c2.3,5.9,4.1,11.9,5.5,18.1c3,12.7,5.9,25.5,8.5,38.3s5.2,25.6,6.2,38.7c0.4,4.8,0.9,9.7,1.3,14.5c0.1,0.6,0,1.2,0,1.9
		c-6.4,1.2-12.6,2.5-18.9,3.6c-8.3,1.5-16.7,2.6-24.8,5.3c-0.8,0.3-1.6,0.5-2.3,0.8c0.4,2.2,0.8,4.1,1,6c0.5,4.8,1,9.7,1.4,14.5
		c0.7,8.4,1.3,16.8,2,25.2c0.6,7.6,1.3,15.2,1.9,22.9c0.2,2.1,0.3,4.1,0.5,6.2c0.2,2.2,1.5,3.3,3.7,2.7c7.4-2.1,15-2,22.6-1.4
		c3.5,0.3,7,0.1,10.6,0.1c1.4,0,2.8,0.2,4.5,0.3c0,1,0,1.8,0,2.5c0.2,5.8,0.5,11.6,0.7,17.5c0,0.8-0.1,1.6-0.1,2.4s0,1.6,0.1,2.4
		c0.2,1.7,1,2.8,3,2.7c0,0.7,0.1,1.2,0,1.7c-0.9,5.4,0,10.8,0.7,16.2c0.8,6.1,1.8,12.1,3.8,18c0.2,0.6,0.3,1.3,0.2,1.9
		c-1.2,10.1-2.4,20.2-3.6,30.4c-0.6,5.6-1.1,11.3-1.6,16.9c-0.3,3.6-0.7,7.3-1.1,11.3c-1.1,1.2-3,1.1-4.8,1.4
		c-6.2,0.8-12.2,0.3-18.3-0.8c-2.6-0.5-5.4-0.2-8.1-0.4c-2.8-0.2-5.6-0.4-8.3-0.7c-5.3-0.7-10.5-0.7-15.8,0
		c-0.5,0.1-0.9,0.1-1.5,0.2c-0.4-2.2-0.8-4.3-0.3-6.5c0.1-0.4,0-0.8,0.1-1.2c0.1-6.4,0.1-12.8,0.2-19.2c0.1-4.5,0.3-8.9,0.3-13.4
		c0-4.4-0.2-8.8-0.3-13.2c-0.2-4.7-0.4-9.4-0.6-14.1c-0.1-3.9-0.3-7.8-0.3-11.7c-0.1-8.4,0.3-16.8-0.3-25.1
		c-0.6-8.6-2-17.1-3.3-25.6c-1.4-9.1-2.9-18.3-4.7-27.3c-1.5-7.6-3.5-15.1-5.4-22.6c-2.2-8.7-4.6-17.4-6.7-26.2
		c-0.8-3.4-1.3-6.9-1.7-10.4c-1.6-13-3.2-25.9-4.8-38.9c-1.3-11-2.7-22-4-33c-1-8.9-1.9-17.9-2.9-26.8c-1.2-10.2-2.4-20.4-3.6-30.6
		c-0.7-5.8-1.3-11.7-2-17.6c-0.7-6.2-2.1-12.2-3.8-18.2c-0.5-1.7-1.4-2.7-3-2.9c-3-0.4-6-0.7-9-1c-0.8-0.1-1.7-0.1-3.1-0.2
		c3.3-4.1,6.2-7.8,9.3-11.2c1.2-1.3,1.9-2.7,2-4.4c0.3-6.7,0.4-13.4,1-20.1c0.5-5.9-0.2-11.8-0.2-17.7c0-3.7-0.2-7.3-0.3-11
		c0-0.8,0.2-1.7,0.3-2.8c2.1,0.7,4,1.2,5.8,1.9c8.6,3.1,17.3,6.1,25.9,9.4c12.1,4.7,24,9.7,35.6,15.3c10.1,4.9,19.5,11,29.1,16.7
		c4,2.3,7.7,5.2,11.8,8c-0.2,1.7-0.4,3.7-0.8,5.6c-3.6,18.4-10.4,35.7-19.8,51.8c-2.1,3.7-4.2,7.3-6.3,11
		C415.7,248.1,415.4,248.6,415,249.3z" style="fill: rgb(183, 189, 239);"></path>
	<path class="st1" d="M315.2,796.5c0-4.3,0-8.2,0-12.2c0.1-8.5,0.9-16.9,1.7-25.3c1.5-17.4,6.2-34.2,10.4-51
		c3.9-15.2,7.9-30.4,11.4-45.7c3-13,5.5-26.1,7.2-39.3c1.1-8.8,2-17.7,2.9-26.6c0.6-6.4,1-12.9,1.5-19.3c0.8-10.5,0.8-21.1,0.9-31.6
		c0.1-7.4,0.3-14.8,0.3-22.3c0-5.9-0.2-11.8-0.5-17.7c-0.3-7.1-0.6-14.2-1-21.3c-0.4-7-0.8-14-1.3-21c-0.3-4.8-0.5-9.5-1.1-14.3
		c-1.3-12-4-23.7-7.9-35.1c-0.7-2-0.2-3.1,1.5-4.2c1-0.7,1.9-1.7,2.9-2.3c3.4-2.3,6.9-4.6,10.4-6.8c1.4-0.9,2.4-2,2.3-3.9
		s-0.7-2.9-2.7-3.1c-1.7-0.2-3.5-0.1-5.2,0.2c-2.3,0.3-4.5,0.9-6.8,1.3c-0.7-1.6-0.3-2.6,1-3.5c2.4-1.7,4.8-3.4,7.3-5.1
		c1-0.7,1.9-1.4,1.9-2.8c0-1.6-0.5-2.3-2-2.3c-2.2,0.1-4.4,0.5-6.6,0.8c-0.8,0.1-1.7,0.5-2.7,0.9c-3.3-23.3-8.4-46-16-68.3
		c4.7-2.1,9.4-4.2,14.2-6.3c0.9,3.6,1.9,7.3,2.8,11.1c4.6,18.4,10.1,36.4,15.3,54.6c5,17.8,9.4,35.8,13.1,53.9
		c1.7,8.2,2.7,16.5,4,24.8c1,6.5,1.9,13.1,2.7,19.6c0.4,3.2,0.5,6.5,0.7,9.8c0.3,3.7,0.7,7.5,0.8,11.2c0.1,3.6-0.3,7.2-0.2,10.8
		c0.2,7.1,0.6,14.2,0.7,21.3c0.1,6.9,0.1,13.9,0,20.9c-0.1,8.2-0.3,16.3-0.4,24.4c0,2.5-0.2,5.1,0.1,7.6c0.1,1.6,0.8,3.2,1.3,5
		c3.5,0,6.9-0.1,10.2,0c3.3,0.1,6.7,0.3,10.1,1.6c-0.1,1.1-0.3,2.1-0.3,3.1c-0.2,5.3-0.6,10.7-0.6,16c-0.2,12.3-0.2,24.6-0.3,36.9
		c-0.2,14-0.4,28-0.7,41.9c-0.1,6-0.6,11.9-0.8,17.9c-0.2,6.2-0.4,12.4-0.6,18.7c-0.2,4-0.6,7.9-0.8,11.9c-0.3,5-0.3,10.1-0.7,15.1
		c-0.6,8.4-1,16.8-0.7,25.1c0.2,6.3,0.9,12.6,1.4,18.8c0,0.6,0.2,1.1,0.4,1.6c0.6,1.4,0.5,2.8-0.4,4.2c-4.3,0.6-8.6,0.6-13,0.3
		c-0.6,0-1.1-0.1-1.7-0.1c-6.2-0.1-12.5-0.1-18.7-0.2c-5.8-0.2-11.6-0.5-17.5-0.7c-3.6-0.1-7.2,0-10.8,0c-5.8,0-11.5-0.2-17.2,0.9
		C316.7,796.5,316,796.5,315.2,796.5z M344.1,343.6c0.1-4.3-1.7-11.5-3.5-13C341,335.5,342.5,339.6,344.1,343.6z M334.9,313.8
		c0.9,3.3,2,6.6,4,9.6c-0.2-1.8-0.6-3.6-1.1-5.4c-0.4-1.4-0.8-2.8-1.3-4.1C336.2,313.1,335.7,313,334.9,313.8z M344.4,362
		c1-1.5,1.3-3,1.5-5.5c0.2-3.9,0.1-4.4-1-5.8C344.7,354.5,344.6,358.2,344.4,362z M339.8,365.7c1.9,0.1,2.3-0.4,2.9-2.7
		C341.7,363.9,340.8,364.7,339.8,365.7z" style="fill: rgb(68, 54, 212);"></path>
	<path class="st1" d="M93.3,462.8c-1.8-1.4-3.2-2.5-4.7-3.8c3.2-2.4,3.7-5.4,2.7-8.8c-0.4-1.3-0.8-2.6-1.5-3.8
		c-1.6-3-4.4-4.1-7.6-4.1c-2.2,0-3.9,1.2-4.9,3.2c-0.3,0.6-0.5,1.2-0.8,2c-0.4-0.4-0.8-0.7-1-1c-7.6-8.7-13.5-18.4-18-29
		c-3.2-7.5-6.5-14.9-9.6-22.5c-2.3-5.6-2.7-11.5-2.3-17.6c1-14.6,4.8-28.8,7.6-43c3.1-15.6,5.8-31.2,8.9-46.7c1.5-7.5,3.3-15,5-22.4
		c3.8-16.8,9.3-33.2,13.6-49.8c2.3-8.8,4.3-17.7,6.4-26.5c0.1-0.5,0.3-1.1,0.5-2c0.8,1,1.5,1.8,2.2,2.6c7.5,7.6,13.7,16.2,20.6,24.3
		c8.4,9.8,15.4,20.6,22.7,31.2c5.3,7.7,10.8,15.3,17.3,22c1,1,1.4,2,1.3,3.4c-0.3,6.4-1.9,12.4-4.4,18.3
		c-3.6,8.4-7.1,16.9-10.9,25.3c-2.2,5-4.8,9.9-7.2,14.9c-0.3,0.5-0.7,1-1.2,1.7c-1.4-1.5-2.8-0.8-4.2-0.4c-1.8,0.6-3.7,1-5.6,1.4
		c-5.8,1.2-11.5,2.8-16.5,6.2c-1,0.7-2,1.4-2.9,2.2c-0.7,0.6-1.3,1.3-0.5,2.2c0.7,0.8,1.4,1.6,2.6,1c1.1-0.5,2.2-1,3.3-1.5
		c5-2.1,10-4.2,15-6.3c0.3-0.2,0.7-0.2,1.5-0.5c-0.5,0.8-0.8,1.3-1.1,1.8c-3.9,5.3-7.4,10.8-10.2,16.8c-1,2.2-0.9,2.5,1.5,4
		c1.5-2.5,2.9-4.9,4.4-7.4s3-5.1,4.5-7.6c1.5-2.4,2.8-4.9,5.4-7.1c1.4,9,3,17.6,5.7,25.9c0.5-2.2,0.2-4.3-0.1-6.4s-0.4-4.3-0.6-6.4
		c-0.2-2.2-0.6-4.4-0.9-6.6c-0.3-2.1-0.7-4.2-1-6.7c0.7,0.6,1.2,0.9,1.5,1.3c5.7,6.7,11.2,13.5,16.1,20.8
		c3.5,5.3,7.3,10.5,11.8,15.3c-1.2,2-2.4,4.2-3.7,6.3c-6.3,10.6-12.8,21-18.7,31.8c-3.5,6.4-6.1,13.3-9,20.1
		c-3.5,8.1-7,16.3-10.4,24.5c-0.1,0.2-0.2,0.4-0.5,0.8c-1-0.7-2-1.2-3-1.9c-6.5-5.1-13.1-10.3-19.6-15.3c-3.2-2.5-6.6-5-10-7.5
		c-0.2,1.6,0.6,2.7,1.4,3.6c3.1,4,6.7,7.5,10.7,10.6c6.2,4.7,12.7,9.1,19.7,13.2c-1.3,4.3-2.7,8.7-4.1,13.3
		c-1.5-0.7-2.8-1.2-4.2-1.9c1.6-1.9,2.2-4,1.8-6.2c-0.4-2.4-1.1-4.7-2.9-6.4c-2-1.9-4.3-2.8-7-2c-2.8,0.8-4.4,2.8-4.8,5.7
		C93.4,461.5,93.4,461.9,93.3,462.8z M63.4,374.7c0.7-1.8,1.2-3.2,1.6-4.5c0.3-0.9,0.7-2-0.3-2.6c-1-0.7-2-0.1-2.8,0.6
		c-0.2,0.2-0.4,0.3-0.5,0.5c-3.6,3.7-7.3,7.4-10.8,11.2c-1.4,1.6-2.4,3.6-3.5,5.4c-0.5,0.7-0.7,1.5,0.2,2.5c2.9-5.6,7.3-9.6,12-13.4
		c-0.1,0.8-0.3,1.5-0.6,2.2c-0.4,1-0.9,2-1.2,3.1c-0.3,1,0.4,2.5,1.4,3s1.7-0.2,2.3-0.8c0.2-0.2,0.4-0.5,0.6-0.7
		c3.7-3.8,7.5-7.7,11.2-11.5c0.6-0.6,1.3-1.2,1.9-1.9c-0.1-0.1-0.2-0.2-0.3-0.4C70.5,368.9,67.3,371.9,63.4,374.7z" style="fill: rgb(211, 182, 224);"></path>
	<path class="st1" d="M231.9,104.1c1.9,1.2,3.6,2.4,5.5,3.4c7,3.6,14.5,5.2,22.3,5.8c7.7,0.6,15.3,0,23-0.5c0.6,0,1.1-0.1,1.7-0.3
		c1-0.3,1.8,0,2.7,0.3c1.8,0.7,3.8,1.1,5.9,1.6c1.1,4.3,2.3,8.6,3.4,12.9c1.5,6.1,2.8,12.3,4.5,18.4c1.5,5.4,3.6,10.6,5,16
		c2.4,9.2,4.6,18.4,6.7,27.7c3.6,16,7,31.9,10.4,47.9c2.6,12.1,4.9,24.2,7.5,36.3c0.9,4.2,2.1,8.4,3.1,12.5c0.2,0.6,0.3,1.2,0.4,2
		c-0.4,0.3-0.8,0.5-1.3,0.7c-8.6,3.3-17.1,6.8-25.7,9.9c-5.4,1.9-11,3.4-16.5,5c-5,1.5-10.1,2.8-15.2,4.3c-1.3,0.4-2.3,0.3-3.2-0.8
		c-0.5-0.7-1.3-1.2-2-1.7c-9.5-6.3-18.2-13.4-26.6-21.1c-2.9-2.6-5.6-5.5-8.3-8.3c-1-1-1.7-2.2-1.8-3.8c-0.6-5.3-1.5-10.6-2.1-15.8
		c-1.1-9.5-2.1-19-3-28.5c-0.9-9.9-1.7-19.8-2.5-29.8c-0.5-6.2-1-12.4-1.4-18.6c-0.4-5.8-1-11.6-0.9-17.4c0.1-7.2,0.8-14.3,1.3-21.5
		c0.4-5.3,0.8-10.7,1.2-16c0.3-5.1,0.7-10.2,1-15.3c0.1-1.5,0.6-2.7,2.1-3.4C230,105.6,230.9,104.7,231.9,104.1z M246.5,114
		c-1.8,0.7-1.8,0.7-2.5,4.1c-0.7,3.2-0.7,3.2-0.1,5.2C244.8,120.1,246.4,117.4,246.5,114z M288,120.9c-0.8-2.4-2.3-4.1-4-5.8
		c-0.5-0.5-1.2-0.8-1.8,0.3C283.6,117.8,285.8,119.4,288,120.9z M278.8,123c0.2-0.1,0.3-0.1,0.5-0.2c-0.3-1.8-0.5-3.6-0.8-5.3
		c-0.1-0.7-0.6-1.4-1.5-1.2s-1,0.9-0.8,1.7C276.8,119.8,277.4,121.6,278.8,123z M235.7,109.9c-1.7,0.5-3.4,4-3.9,7.9
		C234,115.6,235.9,111.7,235.7,109.9z M232.6,108c-1.3-0.4-2,0-2.6,0.8c-1.3,1.7-1.8,3.3-1.5,5C230.1,111.9,232.3,110.7,232.6,108z
		 M259.7,116.3c-0.8,0.6-1.5,0.8-1.6,1.2c-0.3,2.3,0,4.6,0.8,6.9C259.6,121.8,260.2,119.4,259.7,116.3z M272.4,124
		c1.3-2.3,0.9-4.5,0.4-6.7c-0.1-0.3-0.8-0.7-0.8-0.6c-0.4,0.3-0.9,0.8-0.9,1.2C271.4,119.9,271.9,122,272.4,124z M237.3,120.9
		c1.9-3,3-5.9,2.9-7.5c-0.2,0-0.5-0.2-0.7,0c-0.3,0.3-0.7,0.7-0.8,1.1C238.1,116.5,237.1,118.5,237.3,120.9z M251.4,123.1
		c0.8-2.4,1.9-4.7,1.7-7.6c-0.6,0.3-1.2,0.4-1.2,0.6C250.9,118.4,251.2,120.8,251.4,123.1z M266.5,123.6c0-1.9,0-3.7,0-5.6
		c0-0.7-0.3-1.3-1.3-0.9C264.8,119.4,265.3,121.6,266.5,123.6z" style="fill: rgb(246, 81, 86);"></path>
	<path class="st1" d="M476.4,477.3c-0.3,1.2-0.6,2.4-0.9,3.6c-11.6,2-23.1,1.1-34.7,2.1c-0.2-0.6-0.3-0.8-0.3-1.1
		c-0.2-9.5-0.6-19-0.6-28.5c-0.1-7,0.4-14.1,0.4-21.1c0-5.8-0.2-11.5-0.3-17.2c-0.1-5.1-0.3-10.2-0.6-15.3c-0.2-5.5-0.6-11-0.9-16.5
		c-0.1-2.4-0.5-4.8-0.4-7.2c0.1-2.2-0.2-4.3-0.4-6.5c-0.8-7.1-1.2-14.3-2.1-21.4c-1-7.7-2.1-15.3-3.6-22.9
		c-2.3-12.1-4.8-24.2-7.5-36.3c-1.5-6.8-3.6-13.4-5.6-20c-1.4-4.8-3.1-9.5-4.8-14.7c1.2,0.5,2,0.5,2.6-0.6
		c3.7-6.4,7.5-12.8,11.3-19.2c5.2-9,8.9-18.7,12-28.6c1.9-6.1,3.8-12.2,4.4-18.6c0-0.3,0.2-0.6,0.6-1.4c0.7,2.9,1.2,5.3,1.9,7.7
		c2.7,10,5.5,20,8.1,30c6.4,24.4,14.5,48.3,22.6,72.1c5.8,17.1,10.4,34.5,14.7,52c2.9,11.5,5.1,23.2,6.3,35c0.2,1.7,0.5,3.5,0.7,5.2
		c0.1,0.5,0,1.1-0.1,1.3c-3.8,1.7-7.5,3.2-11.1,5c-2,1-3.8,2.4-5.5,3.8c-1.6,1.2-1.6,2.3-0.3,3.8c1.1,1.4,2.6,1.9,4.2,1.8
		c0.7,0,1.4-0.2,2.4-0.3c-1.6,2.4-3.6,4.2-4.1,6.9c-0.4,2.5-1,4.9-1.1,7.5c0.4-0.4,0.9-0.8,1.3-1.3c0.7-1,1.5-2.1,2-3.2
		c1.5-3.3,3.8-6.1,6.5-8.5c1.2-1,1.7-2.3,1.9-3.7c0.2-1.5-0.4-2.3-1.9-2.4c-1.4,0-2.8,0.2-4.7,0.3c3.5-2.2,6.8-3.7,10.5-4.8
		c0.1,2.8-0.5,5.4-1.2,7.9c-3.3,12-6.7,24-10.1,36c-1.4,5.1-3,10.1-4.6,15.2c-2.6-0.3-4.8,0.2-5.8,3c-1.1,3,0.7,4.8,3,6.4
		c-0.6,1.8-1.1,3.5-1.7,5.3c-2.3-0.2-4.4-0.2-5.3,2.2C472.7,472.6,473.5,474.8,476.4,477.3z" style="fill: rgb(211, 182, 224);"></path>
	<path class="st1" d="M338.1,420.3c1,4.3,2,8.7,2.8,13.1c1.5,7.5,2.7,15.1,3,22.7c0.3,6,0.7,12.1,0.9,18.2c0.3,7.6,0.7,15.1,1,22.7
		c0.2,4.3,0.4,8.6,0.5,12.9c0.2,9.1,0.5,18.2,0.4,27.3c-0.1,11.1-0.2,22.2-0.7,33.3c-0.3,8.3-1.2,16.7-1.8,25c0,0.1-0.1,0.1-0.4,0.5
		c-11.5-1.7-23.3-3.1-35.2-2.5c-11.8,0.6-23.5,1.4-35.2,3.7c-0.7-1.2,0-1.9,0.5-2.9c0.8-1.5,1.6-3.1,2.2-4.7
		c0.7-2.1-0.1-3.1-2.2-3.1c-0.9,0-1.7,0.2-3.1,0.3c1.1-1,1.9-1.8,2.7-2.4c6-4.7,9.6-11,12.7-17.7c8.7-18.8,16.7-37.8,23.8-57.2
		c9.4-25.4,18.3-51,24.9-77.4c0.8-3.2,1.4-6.4,2.2-9.6c0.2-0.7,0.3-1.4,0.5-2.1C337.8,420.4,338,420.3,338.1,420.3z" style="fill: rgb(211, 182, 224);"></path>
	<path class="st1" d="M194.6,391.6c0.3,4.6,0.6,9.2,1,13.7c0.4,4.7,0.9,9.3,1.2,14c0.3,4.5,0.5,9.1,0.7,13.6
		c0.3,7.1,0.8,14.2,1,21.2c0.2,6.4,0.2,12.8,0.2,19.2c0,0.3-0.2,0.6-0.3,0.9c-4.5,1.9-9.2,2.5-13.9,3.6c-7,1.6-14.1,1.4-21.1,2.5
		c-7.5,1.1-14.9,1.2-22.4,1.3c-3.3,0.1-6.7,0-10.2,0c-1.4-7-2.5-14-4.1-20.9c-0.8-3.7-0.6-7.1,0.6-10.7c1.8-5.7,2.7-11.7,3.4-17.6
		c0.5-4,2.1-7.7,3.6-11.3c3-7.2,7.1-13.9,10.8-20.8c0.8-1.4,1.8-1.3,3-1.3c13.1-0.5,26-2.3,38.8-5.6c2.3-0.6,4.6-1.3,6.9-1.9
		C194,391.5,194.2,391.5,194.6,391.6z" style="fill: rgb(183, 189, 239);"></path>
	<path class="st1" d="M303.7,15.5c2.9-2,7.6-1.1,9.4,2.3c1.1,2.1,1.9,4.4,2.4,6.7c1.4,6,1.9,12.1,1.9,18.3c0,4.2,0,8.3,0,12.5
		c0,6.9,0,13.7,0.2,20.6c0.3,11,1.8,21.9,4.9,32.5c1.1,3.7,1.9,7.5,2.9,11.5c-0.7-0.1-1.2-0.3-1.8-0.4c-4-1.1-8-2.2-12-3.2
		c-3.2-0.8-6.3-1.6-9.5-2.4c-0.9-0.2-1.9-0.7-2.8-0.7c-3.7,0.2-6.9-1.8-10.4-2.2c-0.1,0-0.2-0.2-0.5-0.3c0.2-1.7,0.4-3.4,0.6-5.1
		c0.1-0.6,0.2-1.3,0.1-1.9c-0.4-1.7,0.3-2.7,1.6-3.6c2.1-1.5,4.3-3.1,6.3-4.8c4.7-3.8,7.8-8.8,11.1-13.8c2.9-4.5,5-9.2,5.8-14.6
		c0.3-2,0.9-3.9,1.3-5.8c1-5.4-0.9-9.9-4.2-13.9c-2.9-3.5-5.6-7.1-7.1-11.3c-0.8-2.4-1.2-4.9-1.7-7.4c-0.1-0.5-0.2-1.1-0.3-1.6
		c-0.4-1.8-1.7-2.2-3-1c-5.8,5.5-12.6,9.5-19.8,12.8c-3.4,1.6-7,2.6-10.5,3.9c-0.9-1.1-1.6-2.2-2.5-3.1c-2-2-4-1.7-5.7,0.5
		c-3.2,4.3-3.7,8.7-0.9,13.5c-1.6,2.7-3.2,5.3-4.8,8c-7,12-13.9,24.1-20.9,36.1c-0.1,0.2-0.3,0.4-0.4,0.6c-0.8,3.4-3.6,5.2-6,7.2
		c-1.2,1-2.8,1.5-4.1,2.4c-4.2,2.6-8.6,4.9-13.2,6.8c-0.5,0.2-1,0.3-1.6,0.5c2.1-9.8,5.9-18.8,10.9-27.3c6-10.1,13-19.6,19.7-29.2
		c4.6-6.5,9.1-13.2,13.6-19.7c5.5-8,11.3-15.9,18.6-22.5c2.7-2.5,5.7-4.6,8.8-6.6c2.7-1.8,5.8-2.2,8.9-0.8c2.5,1.1,5.1,1.8,7.6,2.9
		C298.8,13,301.1,14.2,303.7,15.5z" style="fill: rgb(247, 193, 180);"></path>
	<path class="st1" d="M234.5,279.8c11.3,13,24.4,23,38.9,31.8c0.3,2.4,0.6,5,0.8,7.7c0.2,1.8,0.2,3.7,0.3,5.5c0,0.4,0,0.8,0,1.2
		c-1.6,11.5-3.1,23-4.8,34.5c-2.2,14.1-5.8,27.8-10.6,41.2c-4,11-8.3,21.9-12.5,32.9c-0.6,1.6-1.2,3.2-2.1,4.8
		c0-0.3-0.1-0.5-0.1-0.8c-0.5-8.9-0.9-17.8-1.3-26.7c-0.4-7.3-0.8-14.6-1-22c-0.2-8-0.2-16-0.4-23.9c-0.2-7.4-0.3-14.8-0.7-22.2
		c-0.5-8.6-1-17.2-1.9-25.7c-1.3-12.2-3-24.3-4.5-36.5C234.5,281.1,234.5,280.7,234.5,279.8z" style="fill: rgb(211, 182, 224);"></path>
	<path class="st1" d="M233.2,102.9c6.1-10.5,12.1-20.8,18-31.1c2.8-5,5.5-10.1,8.3-15.1c0.4-0.7,1.1-1.3,1.6-1.9
		c1-1.4,0.9-2.8,0.3-4.3c-1.1-2.8-0.6-5.3,0.9-7.8c0.2-0.3,0.4-0.7,0.7-1c1.3,0.8,2.5,1.1,2.8,2.7c0.5,1.9,1.1,2.2,3,1.5
		c4.8-1.8,9.5-3.6,14.3-5.4c0.2-0.1,0.4-0.2,0.6-0.2c2.5,2,3.9,2.8,6.2,3.5c0.2-1.9-0.3-2.9-2.9-5.4c4-2.8,7.9-5.5,12.1-8.4
		c1,6.3,3.4,11.8,7.2,16.8c-2.3,0.7-5.4-0.5-6.2,3.2c3.1,0.7,6,0.7,8.8,0c3.5,3.7,4.8,7.8,3.5,12.6c-0.9,3.4-1.8,6.7-2.8,10.3
		c-0.9-0.3-1.6-0.6-2.2-0.8c-2.7-0.9-5.3,0.3-6.6,2.9c-1.1,2.2-0.4,4.7,1.8,6.3c0.4,0.3,0.9,0.6,1.7,1c-1,1.5-1.9,3-2.9,4.3
		c-3.5,4.8-8,8.7-12.3,12.7c-0.7,0.6-1.3,0.7-2.2,0.5c-7.6-1.5-14.1-4.8-18.5-11.3c-1.7-2.5-2.9-5.5-4.1-8.3c-1.2-2.7-2-5.5-3.1-8.3
		c-0.2-0.6-0.6-1.1-1-1.8c-1.1,0.8-0.9,1.7-0.7,2.4c1.4,5.8,2.6,11.8,5.9,16.9c4.5,7,10.9,11.3,19,13.1c0.7,0.2,1.4,0.3,2.1,0.5
		c0.2,0,0.3,0.1,0.6,0.2c0.2,2.3-0.3,4.6-0.9,6.8c-7.7,1-15.3,1-22.8,0.8c-8.7-0.2-17.2-1.6-25.2-5.1
		C236.4,104.7,234.7,103.7,233.2,102.9z M286.9,55.6c0.5-1.3,0.3-2.6-0.2-3.9c-2.2-5.8-7.5-7.2-12-6.6c-1.8,0.2-2.3,0.9-2.1,2.7
		c0.6,5.9,6.1,9.7,11.7,8.2C285.1,55.8,285.8,55.8,286.9,55.6z M311.8,60.4c-0.2-0.2-0.5-0.6-0.8-0.8c-3.7-2.2-7.6-2.9-11.7-1.6
		c-1.1,0.3-2.1,0.8-3,1.4c-1.6,1-1.7,2.2-0.5,3.6c0.3,0.4,0.7,0.7,1.1,0.9C302,67.7,308.3,66.2,311.8,60.4z M274.6,76.2
		c1.8,3.3,2.8,6.7,6.6,8s6.5-0.6,9.4-2.4c-1-4.3-2.1-5.3-6.3-5.6c-0.4,0-0.8,0-1.2-0.2C280.2,74.4,277.6,75.4,274.6,76.2z
		 M276.2,60.7c0-2.7-2.6-4.8-5.6-5c-2.3-0.2-4.8,2.2-4.6,4.7c0.2,3,2.3,5.2,5.4,5.2C274.1,65.4,276.2,63.3,276.2,60.7z M285.4,68.5
		c0.3,2.1,1.3,3.4,3.1,3.8c1.7,0.3,3.3,0.1,4.5-1.6C290.6,70,288.5,68.2,285.4,68.5z" style="fill: rgb(145, 86, 86);"></path>
	<path class="st1" d="M241.7,434.4c-1.1-7.2-2.3-14.3-3.3-21.5c-1.8-12.1-3.3-24.3-5.3-36.4c-2.7-17.1-6.4-34-10.8-50.7
		c-2.1-8.2-3.6-16.7-5.5-25c-2.6-11.4-5.3-22.8-7.8-34.3c-1.2-5.5-2.1-11.1-3.2-16.7c-0.8-3.7-1.8-7.3-2.7-10.9
		c-0.2-0.6-0.2-1.2-0.3-1.8c6.3-5,12.3-10,17.9-15.6c1.3-1.3,2.9-1.2,4.6-1.3c0.2,1.2,0.4,2.4,0.5,3.5c0.6,6,1,11.9,1.7,17.8
		c0.7,6.1,1.4,12.2,2.2,18.2c1.2,8.8,2.5,17.5,3.6,26.3c0.9,6.9,1.9,13.7,2.7,20.6c0.8,7.3,1.6,14.6,2.2,21.8
		c0.4,4.5,0.5,8.9,0.7,13.4c0.2,4.6,0.5,9.2,0.8,13.8c0,0.6,0,1.3,0,1.9c0,5.4-0.1,10.7,0,16.1c0.2,8.9,0.3,17.9,0.7,26.8
		c0.3,7.5,0.9,15,1.4,22.4c0.2,3,0.3,6,0.5,9.1c0,0.8,0,1.6,0,2.4C242,434.4,241.9,434.4,241.7,434.4z" style="fill: rgb(211, 182, 224);"></path>
	<path class="st1" d="M225.1,217.4c-6,0.9-11.7-0.9-17.7-0.1c-0.5-2.6-1-5-1.4-7.4c-2.1-12-5.5-23.6-9.6-35
		c-4.1-11.6-8.4-23.1-13.5-34.2c-0.8-1.7-1.5-3.5-1.4-5.5c8.6-5.8,17.1-11.9,26.4-16.7c1.2-0.6,2.4-1.2,3.7-1.7
		c4.2-1.7,8.2-3.9,11.9-6.5c0.3-0.2,0.7-0.4,1.3-0.7c-0.1,1.8-0.2,3.4-0.3,4.9c-0.5,7.4-1,14.8-1.6,22.2c-0.5,6.3-1.1,12.5-1.4,18.8
		c-0.3,4.9-0.4,9.9-0.3,14.8c0.2,4.8,0.8,9.7,1.2,14.5s0.7,9.5,1.1,14.3C223.9,205,224.5,211,225.1,217.4z" style="fill: rgb(211, 182, 224);"></path>
	<path class="st1" d="M392.4,389.9c0.4,1.4,0.9,2.9,1.3,4.3c0.2,0.8,0.3,1.6,0.6,2.3c0.9,2.7,2.5,3.7,5.3,3.2c4.7-0.9,9.5-1,14.3-1
		c2.8,0,5.6-0.2,8.4-0.2c4.3,0,8.6,0,12.9,0c0.3,0,0.6,0.2,1,0.3c0.9,18.4,1.1,36.7,0.2,55.2c-7.1-0.4-14.1-0.8-21.1-1.1
		c-4.7-0.2-9.3,0.1-13.8,1.1c-1,0.2-2,0.4-3.2,0.7c-0.2-1.7-0.4-3.3-0.6-5c-0.6-6.8-1-13.7-1.7-20.5c-1-10.3-2.1-20.6-3.2-30.9
		c-0.3-2.8-0.6-5.7-1-8.5C392.1,389.9,392.3,389.9,392.4,389.9z" style="fill: rgb(183, 189, 239);"></path>
	<path class="st1" d="M316.6,196.7c-0.4-1.6-0.7-2.9-1-4.2c-2.7-11.1-5.3-22.2-8.1-33.2c-1.2-4.5-3-8.9-4.2-13.5
		c-1.6-5.8-2.9-11.6-4.4-17.4c-0.9-3.5-2-6.9-3-10.3c-0.2-0.8-0.5-1.7-0.8-2.9c1.6,0.2,2.9,0.2,4.2,0.5c8.8,2.5,17.7,5,26.5,7.5
		c2.2,0.6,4.4,1.5,6.8,2.2c0,0.9,0,1.7,0,2.6c0,4.5,0,8.9,0.1,13.4c0.1,5.1,0.5,10.2,0.4,15.3c-0.2,7.3-0.8,14.6-1.3,22
		c-0.1,0.7-0.5,1.5-0.9,2c-1.6,1.8-3.3,3.4-4.9,5.2C322.6,189.5,319.7,193,316.6,196.7z" style="fill: rgb(211, 182, 224);"></path>
	<path class="st1" d="M354.9,356.2c-1.6-5.3-3.2-10.5-4.6-15.8c-5.8-21.7-11.6-43.4-17.1-65.2c-2.5-10.1-4.3-20.4-6.5-30.6
		c-2.7-12.5-5.4-24.9-8.1-37.4c-0.4-1.7-0.7-3.4-1.1-5.1c1.2-1.9,2.4-3.7,3.5-5.3c5,0.6,9.7,1.2,14.5,1.8c1.5,5.8,2.9,11.9,3.6,18.1
		c1.2,10.1,2.3,20.2,3.4,30.4c1.2,10.4,2.2,20.9,3.4,31.3c1.3,10.8,2.8,21.5,4.1,32.2c0.9,7,1.6,14.1,2.5,21.1
		c0.9,7.2,1.8,14.4,2.8,21.6c0.1,1,0.2,2,0.2,3.1C355.3,356.2,355.1,356.2,354.9,356.2z" style="fill: rgb(211, 182, 224);"></path>
	<path class="st1" d="M387.8,837.8c2.7,1.5,4.9,2.7,7.2,3.9c-0.3,2.2-1.3,4.4-0.4,7.2c0.9-2.3,1.6-4.2,2.4-6.3
		c2.5,1,4.9,1.9,7.2,2.8c0.4,2.2-0.7,4.6,0.9,6.8c0.4-2.1,0.7-4.1,1.1-6.2c5.2,1,9.8,2.5,13.6,5.8c0.8,0.7,1,1.9,1.5,2.9
		c-2.4,0.9-18.2,0.7-24,0.4c-20.2-0.8-39.8-4.9-58.8-11.9c-0.2-3.1,0.3-5.9,1.3-8.6c1.2-3.5,2.7-7,3.8-10.6c1.7-5,1.9-10.2,0.4-15.3
		c-0.1-0.3-0.1-0.6-0.2-1.2c2.3-0.4,4.5-0.9,6.8-1.1c4.5-0.4,9-0.9,13.6-0.6c4.8,0.3,8,2.9,9,7.2c0.3,1.4,0.9,2.7,1.3,4.2
		c-2.3,3.3-5.1,6.4-5.8,10.6c0.1,0.1,0.3,0.2,0.4,0.3c2.2-2.3,4.4-4.6,6.8-7.1c0.8,2,1.4,3.6,2.1,5.2c0.4,0.9,0.1,1.5-0.3,2.2
		c-1.2,2.2-2.4,4.5-3.5,6.8c-0.5,1.1-0.7,2.3-0.9,3.4c-0.1,0.6,0.1,1.2,0.3,1.7c1.4-3.9,3.8-7.1,6.2-10.2c2,2.1,3.9,4.2,6,6.5
		c-0.5,1.5-1.1,3.2-1.6,4.9s-0.9,3.5-0.3,5.3C385.3,843.9,386.5,841,387.8,837.8z M355,818.5c-0.5,0.1-0.9,0.1-1.3,0.1
		c-3.5,0-5.3,1.2-6.5,4.4c-0.4,1.2-0.7,2.5-0.8,3.7c-0.3,4.5,2,7.5,6.3,8.6c3.5,0.9,6.2-0.1,8.6-2.8c2.8-3.1,2.7-6.3,1.3-10
		C361.3,819.6,358.6,818.3,355,818.5z" style="fill: rgb(183, 189, 239);"></path>
	<path class="st1" d="M111.3,603.3c3.3-2.1,7-3.5,10.7-4.6c11.9-3.4,23.8-6.6,35.7-10.1c17.4-5.1,35.2-8.3,53-11.8
		c0.2,0,0.3,0,0.5,0c0.3,3.4-1.7,21.1-2.8,24.6c-7.3,1.5-14.8,2.2-22.2,2.6c-5.3,0.3-10.7,0.8-16,1.1c-2.3,0.2-4.6,0.2-6.9,0.3
		c-6.9,0.2-13.9,0.1-20.8,0.5c-6.6,0.4-13.2,0.9-19.8,0.7c-2.4-0.1-4.8-0.3-7.1-0.8c-1.5-0.3-2.9-1.2-4.3-1.9
		C111.3,603.7,111.3,603.5,111.3,603.3z" style="fill: rgb(211, 182, 224);"></path>
	<path class="st1" d="M449,525.4c-0.3-0.7-0.7-1.4-0.8-2.2c-0.7-4.5-3-8.5-3.6-13s-1.4-9-1.9-13.5c-0.3-2.8-0.3-5.6-0.3-8.3
		c0-0.9,0.2-1.9,0.4-2.9c7.9-0.7,15.7,0.7,23.6,0.3c0.3,1.1,0.6,2,0.9,2.9c1.8,6.6,6.1,10.8,12.4,13.3c2.2,0.9,4.2,2.2,6.2,3.5
		c1.2,0.7,1.8,1.8,2,3.2c0.3,2.4,0.6,4.9,0.9,7.3c0.2,1.2,0.4,2.5,0.6,3.9c-1.3-0.1-2.1-0.6-2.4-1.9c-0.9-3.7-3.2-6.3-6.2-8.6
		c-1.8-1.4-3.6-2.9-5.4-4.3c-0.6-0.4-1-0.8-1.9,0c0.6,0.8,1.1,1.6,1.8,2.3c1.6,1.6,3.3,3.1,5,4.5c2.7,2.3,4.1,5.2,4.7,8.6
		c0.8,4.5,1.4,9.1,2.2,13.9c-2-0.8-3-2.4-3.9-4c-0.6-0.9-0.9-2.1-1.3-3.1c-1.6-3.7-3.2-7.3-4.8-10.9c-0.5-1-1.2-1.9-1.9-2.8
		c-1.9-2.7-3.8-5.3-5.8-7.9c-0.2-0.3-0.2-0.6-0.3-0.8c-1.3,0.7-1,1.5-0.8,2.1c0.4,0.9,0.9,1.9,1.5,2.7c1,1.6,2.1,3.2,3.2,4.8
		c2.2,2.8,3,5.9,3,9.4c0,3.4,0.2,6.9,0.3,10.3c0,1.7-0.2,3.5-0.4,5.3c-2.2-0.4-2.8-1.9-3.4-3.5c-1.3-3.9-2-7.8-2.3-11.9
		c-0.2-2.7-1.2-5.2-2.5-7.7c-2-3.7-3.9-7.3-5.8-11c-0.3-0.6-0.6-1.2-1.7-0.4c0.5,1.4,1,2.9,1.6,4.3c1.2,2.5,2.4,4.8,3.6,7.3
		c0.8,1.6,1.4,3.2,2,4.9c0.5,1.3,0.9,2.7,0.4,4.2c-0.2,0.5,0.1,1.1,0.1,1.7c0.1,2.5,0.1,4.9,0.2,7.4c0,1,0,2.1-0.1,3.1
		c-0.1,1.3-0.4,2.6-0.6,4c-2.5-0.9-3.3-1.8-3.2-4.1c0-2.3,0.4-4.6,0.4-6.9c0-1.7-0.1-3.4-0.6-4.9c-1.2-3.3-2.7-6.5-5.1-9.2
		c-2.5-2.8-4.4-5.9-5.6-9.4c-0.1-0.3-0.1-0.7-0.3-0.9c-0.4-0.3-0.9-0.6-1.3-0.6c-0.3,0-0.8,0.6-0.8,0.9c-0.1,1.2,0,2.4-0.1,3.6
		c-0.2,4.5-0.4,8.9-0.6,13.4c0,0.6-0.3,1.2-0.4,1.8C449.3,525.5,449.2,525.4,449,525.4z" style="fill: rgb(145, 86, 86);"></path>
	<path class="st1" d="M189.7,837.6c2.5-3.5,4.1-7.4,7.3-10.4c2.6-2.5,5.6-3.7,9.2-2.5c1.7,0.6,3.5,1,5.2,1.5c0,1.7,0,3.2,0,4.7
		c-1.4,0-2.5,0-3.7,0c-2.1,0-3.7,1-4.7,2.8c-1.2,2.2-1.5,4.6-0.8,6.9c0.8,2.8,2.5,4.8,5.5,5.3c0.8,0.2,1.5,0.3,2.4,0.5
		c-0.2,3-0.4,5.9-0.5,9c-2,0.5-4,1.1-6.1,1.3c-5.3,0.8-10.5,1.7-15.6,3.6c-2.9,1.1-5.4,2.7-7.8,4.5c-4.2,3.3-9.1,5.3-14.2,6.6
		c-0.4,0.1-0.8,0.1-0.8,0.1c-0.7-2.8-1.3-5.5-2-8.6c1.5-1.2,3.3-2.7,5.1-4.2c3.1,1.4,4.1,4.9,7.5,6.1c0-0.6,0.2-1.2,0.1-1.6
		c-0.6-1.9-1.9-3.3-3.3-4.6c-0.6-0.5-1.2-1-1.9-1.7c0.8-0.8,1.6-1.5,2.3-2.2c2.7,1,3.4,4.3,6.1,5.4c0.8-1.5,0.9-2.8-0.2-3.9
		c-1.1-1.2-2.2-2.3-3.1-3.3c1.5-1.7,2.8-3.3,4.1-4.8c2.9,1,3.9,4.1,6.8,4.8c0.8-2.5,0.8-2.5-4.3-6.8c1.8-2,3.6-3.9,5.6-6.1
		c1.3,0.9,2.6,1.9,3.9,2.7c0.7,0.5,1.5,1,2.2,1.3c1.2,0.4,2-0.3,1.5-1.5c-0.4-0.9-1-1.8-1.8-2.4
		C192.4,839.3,191.1,838.5,189.7,837.6z" style="fill: rgb(183, 189, 239);"></path>
	<path class="st1" d="M340.1,857.5c-0.3-1.6-0.6-3-0.9-4.7c2.6-0.1,5.1-0.1,7.5,0.4c6.3,1.1,12.3,3.4,18.4,5.2
		c10.2,3,20.6,5.2,31.2,6c5.9,0.4,11.8,0.7,17.7,0.5c5.8-0.1,11.3-1.8,16.9-3.4c0.7-0.2,1.2-0.7,1.7-1.3c-2.6,0.2-5.3,0.4-7.9,0.6
		c-5.4,0.4-10.7,1.4-16.2,1.3c-17.1-0.3-33.6-3.2-49.9-8.5c-5.3-1.7-10.7-2.8-16.2-2.8c-1.1,0-2.2,0.1-3.6,0.2
		c-0.1-1.5-0.3-2.9-0.4-4.4c7,2.5,14.1,4.2,21.1,6.1c6.9,1.8,13.9,2.7,21,3.6c8.8,1.2,17.7,1.5,26.5,1.4c3.5,0,7,0.4,10.5,0.2
		c7.4-0.5,14.5-2.4,21.3-5.2c1.4-0.6,2.6-1.4,4-2.2c1.2,3.3,0.5,6.6,0.4,9.9c-5.6,3.9-12.1,5.2-18.8,6c-9.6,1.1-19.3,0.8-29,0.7
		c-9.3-0.1-18.5-1.2-27.6-2.9c-5.6-1.1-11.1-2.5-16.6-3.8C347.7,859.5,344,858.5,340.1,857.5z"></path>
	<path class="st1" d="M398,395.7c-1.4-4.5-2.7-8.9-5.7-12.8c7.2-1.9,14.3-2.3,21.3-3.2c7.1-0.9,14.2-2.2,21.5-3.4
		c0.4,6.1,0.7,12.1,1.1,18.2c-1.9,0-3.5,0.2-5.2,0c-8.1-0.9-16.3-0.1-24.4-0.1C403.8,394.4,401,395.3,398,395.7z" style="fill: rgb(211, 182, 224);"></path>
	<path class="st1" d="M209.3,865.1c-3.7,2.2-7.6,3.2-11.5,4.3c-3.6,0.9-7.2,2.1-10.7,3.4c-2.8,1-5.3,2.6-7.5,4.7
		c-4.2,4.1-9.4,5.9-14.9,7.2c-6.2,1.5-12.4,0.8-18.5-0.1c-5-0.8-9.9-1.4-15.2-2.2c-0.2-1.2-0.3-2.6-0.6-4.3
		c4.3-0.2,8.5-0.8,12.6,0.7c2,0.7,4,1.2,6,1.6c9.1,1.8,17.5,0.1,25.7-4.2c6.4-3.3,13-6.1,20-7.9c1.7-0.4,3.5-0.8,5.3-2.2
		c-2.3-0.4-4.2,0-5.9,0.6c-4.1,1.3-8.2,2.7-12.2,4.3c-3.5,1.4-6.9,3.2-10.4,4.8c-4.2,1.9-8.7,2.6-13.2,3.2c-4.2,0.5-8.3,0-12.3-1.3
		c-4.5-1.4-8.9-1.6-13.5-1c-0.5,0.1-1,0.1-1.4,0.1c-0.1,0-0.3-0.1-0.6-0.2c0.2-1.6,0.3-3.2,0.5-4.8c0.3-0.1,0.5-0.2,0.5-0.1
		c4.8,2.6,10.1,3.5,15.3,4.4c3,0.5,6,0.8,9,1c5.8,0.4,11.2-0.8,16.6-2.7c3.4-1.3,6.5-3.1,9.2-5.5c4.3-3.7,9.4-5.7,14.9-6.8
		c4-0.8,8-1.4,12.2-2.2C209.8,861.4,209.5,863.2,209.3,865.1z"></path>
	<path class="st1" d="M193,387.4c-7.4,1.7-14.8,3.5-22.5,5.2c-2-4.3-5.9-6.3-9.5-8.5c-1.7-1-3.2-2.3-5-3.5c0.6-2.5,2.1-3.9,4.9-4.4
		c5.2-1,10.5-2.2,15.7-3.3c2-0.4,3.6,0,5.1,1.3c4.2,3.7,7.7,8,11.1,12.5C192.9,386.7,192.9,386.9,193,387.4z" style="fill: rgb(211, 182, 224);"></path>
	<path class="st1" d="M162.3,872.1c-6.8,1.8-27-0.6-31-3.6c1.3-3.1,3.1-5.9,5.5-8.2c2-1.9,4.8-2.8,7.5-2.4c4.8,0.7,9.3,2.1,13.3,5
		c1.8,1.3,3.1,2.9,3.5,5.2C161.4,869.4,161.9,870.7,162.3,872.1z"></path>
	<path class="st1" d="M316.4,299.3c1.6,4.1,3.1,8.2,4.8,12.6c-7,3.2-14.5,4.8-21.9,7.2c-0.9-4.7-1.5-9.2-0.9-13.8
		C304.3,303.3,310.2,301.3,316.4,299.3z" style="fill: rgb(68, 54, 212);"></path>
	<path class="st1" d="M434.2,586.7c-2.7,2.6-5.9,4.2-9.2,5.3c-4.4,1.4-8.9,2.6-13.3,3.9c-2.7,0.8-5.3,1.6-8.2,2.4
		c0-4.5,0-8.7,0-12.9c2.6,0,5-0.2,7.5,0c3.5,0.3,6.9,1,10.4,1.2c3.6,0.2,7.3,0,10.9,0C432.9,586.7,433.6,586.7,434.2,586.7z" style="fill: rgb(211, 182, 224);"></path>
	<path class="st1" d="M187.1,835.9c-3.3-0.6-6.2-1.3-9.1-1.5c-2.8-0.2-5.7-0.1-8.5-0.1c0.1-1.9,2.1-8,3.2-9.4
		c2.5-3.3,7.9-4.4,11.7-2.2c1.4,0.8,2.8,1.9,3.9,3.1c2.2,2.2,2.3,4.7,0.7,7.4C188.3,834.2,187.6,835.1,187.1,835.9z"></path>
	<path class="st1" d="M281.9,349.6c-2.4,2-4.8,4-7.1,6c-0.2-0.1-0.3-0.2-0.5-0.2c0-3.1,0.5-6.2,0.8-9.3c0.3-3.2,0.8-6.3,1-9.5
		s0.1-6.4,0.2-9.6c5-0.8,9.9-1.6,14.8-2.4c2.1,1.6,2.1,1.6,4.9,1.2c-0.2,1-0.4,1.9-0.6,2.8c-4.9,0.3-9.3,1.7-13.7,3.4
		c-1.2,0.5-1.7,1.3-1.4,2.4c1.1,4.5,1.3,9,1.4,13.5C281.6,348.3,281.7,348.7,281.9,349.6z" style="fill: rgb(68, 54, 212);"></path>
	<path class="st1" d="M442.6,848.3c-5.7,3.6-11.9,4.9-18.2,6.2c-0.2-0.4-0.4-0.6-0.5-0.8c-0.8-4.2-1.1-8.3,0.2-12.5
		c0.7-2.5,1.1-2.7,3.6-2.1c2.3,0.6,4.7,1.1,6.9,1.8C438.6,842.2,440.7,844.1,442.6,848.3z"></path>
	<path class="st1" d="M290.1,321.4c-4.3,0.5-8.4,1-12.6,1.5c-0.7-4-1.3-8.2-2-12.4c4.3-0.9,8.7-1.8,13.3-2.8
		C288.5,312.3,289.5,316.9,290.1,321.4z" style="fill: rgb(68, 54, 212);"></path>
	<path class="st1" d="M338.4,304.5c-5.1,2.2-9.8,4.3-14.8,6.5c-1.7-4.3-3.4-8.3-5.2-12.7c5.4-2.4,10.8-4.8,16.4-7.3
		C336,295.6,337.2,300,338.4,304.5z M334.7,300.6c0.1-2.6-0.6-4.3-2.4-5.4c-1.8-1-3.7-0.9-5.3,0.6c-1.5,1.4-2.6,3.2-2.3,5.4
		c0.2,1.6,2.3,3.2,4.4,3.5C332.1,305.1,334.6,303,334.7,300.6z" style="fill: rgb(68, 54, 212);"></path>
	<path class="st1" d="M179.2,817.9c0.2-1.3,0.3-2.4,0.5-3.8c11.2,1.3,22,4.1,32.6,8.1c-0.2,0.7-0.4,1.3-0.6,1.9
		c-1.8-0.7-3.5-1.3-5.2-2c-4.3-1.8-8-0.5-11.2,2.3c-1,0.9-1.9,1.9-2.8,2.9C190,821.6,185.9,818.3,179.2,817.9z" style="fill: rgb(145, 86, 86);"></path>
	<path class="st1" d="M147.5,396.3c2.5-4.6,4.9-9,7.3-13.3c4.3,3.3,8.6,6.5,12.9,9.7C166.5,393.5,152.1,396.1,147.5,396.3z" style="fill: rgb(145, 86, 86);"></path>
	<path class="st1" d="M421.9,838.1c-0.8,3.4-1.5,6.6-2.2,9.6c-3.8-1.5-7.8-3.2-12.1-4.9c0.8-2.3,1.9-4.8,3.7-6.8
		c0.6-0.7,1.3-0.9,2.2-0.6C416.4,836.3,419.2,837.2,421.9,838.1z"></path>
	<path class="st1" d="M284,347.6c-0.7-4.8-1.3-9.1-2-13.5c4-1.9,8.3-1.9,12.8-3C292.6,337.5,288.7,342.5,284,347.6z" style="fill: rgb(68, 54, 212);"></path>
	<path class="st1" d="M376.6,815c-1-2.6-2-5.2-3.2-8.3c1.5-1.4,3.2-3.2,5.1-4.8c0.4-0.3,1.2-0.2,1.8-0.2c1.2,0,2.4,0,3.7,0
		c0.3,3.3,0.6,6.5,0.8,9.5C382,812.4,379.4,813.7,376.6,815z"></path>
	<path class="st1" d="M184.7,839.2c-2,1.6-3.9,3.3-6.1,5.1c-3.6-1.3-6.8-4.6-11.6-5c0.5-1.2,1-2.1,1.4-3.1
		c5.4,0.2,10.8-0.1,15.9,2.2C184.4,838.7,184.6,838.9,184.7,839.2z"></path>
	<path class="st1" d="M381.8,827.9c2.2-2.7,4-5.5,7.5-6.6c1.3,1.5,2.5,2.9,3.6,4.2c-2,2.8-3.9,5.5-5.8,8.3
		C385,832.3,383.2,830.4,381.8,827.9z"></path>
	<path class="st1" d="M172.3,851.1c-3-2.5-5.7-5.5-10.1-5.9c1.4-1.6,2.6-3,3.9-4.5c4.4,0.3,7.3,3.4,11,5.6
		C175.5,848.1,173.9,849.5,172.3,851.1z"></path>
	<path class="st1" d="M146.8,854.9c3.4-2.7,6.8-3.1,10.4-1.4c2.7,1.2,5.3,2.6,8.3,4c-1.7,1.3-3.2,2.6-4.8,3.9
		C156.6,857.8,151.8,856.4,146.8,854.9z"></path>
	<path class="st1" d="M345.9,805.1c0.2-1.8,0.3-3.2,0.4-4.8c8.9,0.4,17.8,0.8,26.8,1.2c-0.8,1.2-1.4,2.3-2.1,3.3
		c-7.2-3-14.4-2-21.6-0.6C348.3,804.5,347.3,804.8,345.9,805.1z" style="fill: rgb(145, 86, 86);"></path>
	<path class="st1" d="M389.3,835.6c1.8-3.1,3.2-6.1,5.6-8.4c2,1.1,3.9,2.2,5.9,3.3c-0.9,1.4-1.9,2.7-2.7,4c-0.8,1.4-1.4,2.8-2.2,4.5
		C393.7,837.8,391.6,836.8,389.3,835.6z"></path>
	<path class="st1" d="M170.6,852.7c-0.8,0.8-1.2,1.3-1.6,1.7c-0.8,1-1.7,1.2-2.9,0.6c-1.9-0.9-3.8-1.6-5.8-2.3
		c-1.8-0.7-3.6-1.2-5.5-1.9c1.8-1.3,3.4-2.5,5.2-3.7c0.4-0.3,1-0.3,1.5-0.2c2.4,0.4,4.5,1.4,6.3,3.2
		C168.5,851,169.5,851.7,170.6,852.7z"></path>
	<path class="st1" d="M114.8,471.6c2.4-10.7,6.9-20.6,11.5-30.4C124.6,452.2,120.4,462.2,114.8,471.6z" style="fill: rgb(211, 182, 224);"></path>
	<path class="st1" d="M102,468.1c-1.8-1.1-3.7-2.1-5.5-3.3c-0.5-0.3-0.8-1.2-0.8-1.8c-0.1-1.8,1.6-3.8,3.2-4.3
		c1.7-0.5,3.9,0.5,4.9,2.2c0.5,1,0.8,2.1,1.1,3.1C105.3,466.2,103.9,467.1,102,468.1z" style="fill: rgb(211, 182, 224);"></path>
	<path class="st1" d="M88.1,452.4c0,1.8-0.8,2.6-2,3.2c-1.1,0.6-1.8,0.1-2.5-0.6c-1.3-1.2-2.6-2.4-3.8-3.6c-1.2-1.2-1.2-1.8-0.6-3.2
		c0.7-1.5,1.8-2.3,3.1-2.1c2.2,0.2,4,1,4.8,3.3C87.5,450.6,87.9,451.7,88.1,452.4z" style="fill: rgb(211, 182, 224);"></path>
	<path class="st1" d="M408.8,834c-1.4,2.8-2.6,5.5-4,8.5c-1.9-0.7-3.9-1.5-6.4-2.4c1.5-2.5,2.9-4.7,4.2-6.9c0.6-0.9,1.3-1.2,2.4-0.7
		C406.3,833.1,407.6,833.5,408.8,834z"></path>
	<path class="st1" d="M296.9,321.6c-1.1,0.3-1.9,0.5-3.1,0.9c-1.2-5.2-2.7-10.2-2.2-15.7c1.1-0.3,2-0.6,3.2-0.9
		C295.5,311.2,296.2,316.4,296.9,321.6z" style="fill: rgb(68, 54, 212);"></path>
	<path class="st1" d="M380.1,824.8c-0.7-2.1-1.4-3.9-2-5.7c2.2-2.3,4.5-4.1,7.7-4.8c0.8,1.6,1.4,3,2.2,4.7
		C384.6,819.8,382.5,822.3,380.1,824.8z"></path>
	<path class="st1" d="M308.7,74.6c-1.2,2.1-2.5,4.3-3.8,6.5c-3.2-2.2-4.1-4.2-2.7-6.2C303.7,72.8,306.1,72.7,308.7,74.6z" style="fill: rgb(246, 81, 86);"></path>
	<path class="st1" d="M210.3,843.4c-3.6,0.3-6-1.4-6.4-4.4c-0.3-2.8,0.8-5.3,3.5-5.9c1.9-0.5,2.9-0.2,3.4,1.1
		c-2.2-0.4-2.1-0.4-3.5,1.6c-0.5,0.7-1.4,1-2.5,1.8c-0.3,0.7,0.7,1.2,1.1,2.1c0.4,0.7,0.5,1.6,0.8,2.7c0.9-0.7,1.6-1.1,2.3-1.7
		C210.7,840.8,210.4,842.1,210.3,843.4z"></path>
	<path class="st1" d="M352,397.5c-3.1,2-6.2,4-9.6,6.1c-0.2-1.6-0.3-3-0.4-4.7c3.4-0.7,6.6-1.3,9.8-1.9
		C351.9,397.2,352,397.4,352,397.5z" style="fill: rgb(68, 54, 212);"></path>
	<path class="st1" d="M483.1,454.9c-0.6,2-1.2,3.8-1.8,6c-1.2-1.1-2.3-2-2-3.6C479.5,455.9,480.8,455.1,483.1,454.9z"></path>
	<path class="st1" d="M477,474.7c-1.6-0.9-1.7-2.1-1.4-3.2c0.3-1.2,1.3-1.7,2.8-1.7C477.9,471.4,477.5,472.9,477,474.7z"></path>
	<path class="st1" d="M341.5,388.3c0-1.1,0-1.8,0-2.7c1.7-0.5,3.3-0.9,4.9-1.4c0.1,0.2,0.2,0.3,0.2,0.5
		C345,385.8,343.4,386.9,341.5,388.3z" style="fill: rgb(68, 54, 212);"></path>
	<path class="st1" d="M339.3,395.5c-0.6,0.2-1.2,0.4-2.3,0.7c0.9-1,1.3-1.6,2.2-1.4C339.2,395.1,339.2,395.3,339.3,395.5z" style="fill: rgb(68, 54, 212);"></path>
	<path class="st1" d="M282.8,50.7c0.5,0.8,0.9,1.3,1.3,1.9c0.2,0.3,0.3,0.7,0.5,1c-4.6,2.1-8.9-0.4-10.5-6.2c0.7,0,1.3,0,1.9,0.1
		s1.2,0.2,2,0.4c0,0.7,0.1,1.4,0.1,2.1c0.1,2.1,1.3,2.7,3.2,1.7C281.7,51.6,282.1,51.2,282.8,50.7z"></path>
	<path class="st1" d="M296.3,61.6c1.9-0.5,3.5-1,4.9-1.4c0.2,0.3,0.4,0.4,0.4,0.5c0.8,2.7,1.8,3.1,3.9,1.3c0.5-0.5,1-1,1.5-1.6
		c0.6,0.2,1.2,0.4,2,0.6c-0.4,0.5-0.8,1-1.2,1.4C304.9,64.9,300.1,65.2,296.3,61.6z"></path>
	<path class="st1" d="M288.7,81c-6,1.8-9.5,0.8-11.4-3.5c1.6-0.3,3.1-0.3,4.6,0.5c0.6,0.3,1.4,0.7,2,0.5
		C286.3,77.7,287.6,78.9,288.7,81z"></path>
	<path class="st1" d="M276.1,60.8c-0.6,1-0.9,1.9-1.6,2.5c-2.3,2.1-6.5,0.9-7.5-2.1c-0.6-1.5-0.1-2.8,0.9-4c1-1.1,2.2-0.9,3.3-0.5
		c1.1,0.4,2.2,0.9,3.2,1.7C275.1,58.9,275.5,59.9,276.1,60.8z" style="fill: rgb(246, 81, 86);"></path>
	<path class="st1" d="M353.2,819.9c1.8,0.5,3.7,0.8,5.4,1.6c2.3,1.1,2.9,3.3,2.9,5.6c0.1,3.6-3.8,6.9-7.3,6.5
		c-2.6-0.3-5-1.1-5.8-3.9c-1-3.1-0.4-6.1,1.6-8.8C350.9,819.8,352.1,820.5,353.2,819.9z M354.3,830.3c0.8,0.7,1.5,1.2,2.5,2
		c0.2-0.9,0.5-1.5,0.4-2c-0.1-1.5,0.3-2.6,1.4-3.6c0.6-0.5,0.8-1.4,1.4-2.6c-2.6,0.6-4.1-0.2-5.3-1.8c-0.7-0.9-1.7-0.4-2.1,0.4
		c-0.7,1.3-1.6,2.1-3.2,2c0.1,0.5,0.1,0.8,0.2,1.1c0.3,1.6,2,3,1.1,4.9c-0.1,0.2,0.4,0.6,0.8,1.1
		C352.4,831.2,353.3,830.8,354.3,830.3z"></path>
	<path class="st1" d="M329.4,298.7c0.1,0,0.2,0,0.2,0c0.8,0.1,1.8-0.2,2,0.8s-0.4,1.9-1.4,2.2c-0.6,0.2-1.4,0.3-2,0.1
		c-1.2-0.3-2.1-1.3-1.9-2.1c0.3-1.1,1.4-0.8,2.2-1C328.7,298.7,329.1,298.7,329.4,298.7L329.4,298.7z" style="fill: rgb(68, 54, 212);"></path>
</g>
<!-- Code injected by live-server -->
</svg>