<?xml version="1.0" encoding="utf-8"?>
<!-- Generator: Adobe Illustrator 24.1.0, SVG Export Plug-In . SVG Version: 6.00 Build 0)  -->
<svg version="1.1" id="Layer_1" xmlns="http://www.w3.org/2000/svg" xmlns:xlink="http://www.w3.org/1999/xlink" x="0px" y="0px"
	 viewBox="0 0 414.4 388.7" style="enable-background:new 0 0 414.4 388.7;" xml:space="preserve">
<style type="text/css">
	.st0{fill:#4B6EEB;}
</style>
<path class="st0" d="M280.4,213.9c-0.6-2.4-2.3-3.3-3.5-4.6c-26.1-26.2-52.2-52.4-78.5-78.4c-2.7-2.6-3.1-4.1,0-6.8
	c6.9-6.2,13.6-12.8,20.1-19.4c2-2,3.1-2.6,5.5-0.2c41.4,41.8,82.8,83.5,124.3,125.2c2,2,1.9,3.1-0.1,5.1
	c-41.4,41.3-82.7,82.7-123.9,124.1c-2.5,2.5-3.7,2-5.8-0.1c-6.6-6.6-13.3-13.1-20.2-19.4c-2.8-2.5-2.8-3.8-0.1-6.5
	c27-26.5,53.8-53.2,80.6-79.8c0.8-0.8,1.9-1.2,2.9-1.8c-0.2-0.5-0.5-0.9-0.7-1.4c-1.7,0-3.5,0-5.2,0c-70.8,0-141.6,0-212.4,0.1
	c-4.6,0-5.9-1.2-5.7-5.7c0.4-8.6,0.3-17.3,0-26c-0.1-3.4,0.7-4.6,4.3-4.5c8.2,0.3,16.3,0.1,24.5,0.1c62.8,0,125.6,0,188.4,0
	C276.6,213.9,278.4,213.9,280.4,213.9z"/>
</svg>
