<?xml version="1.0" encoding="utf-8"?>
<!-- Generator: Adobe Illustrator 24.1.0, SVG Export Plug-In . SVG Version: 6.00 Build 0)  -->
<svg version="1.1" id="Layer_1" xmlns="http://www.w3.org/2000/svg" xmlns:xlink="http://www.w3.org/1999/xlink" x="0px" y="0px"
	 viewBox="0 0 334.4 327.7" style="enable-background:new 0 0 334.4 327.7;" xml:space="preserve">
<style type="text/css">
	.st0{fill:#4B6EEB;}
</style>
<path class="st0" d="M289.3,163.9c-0.4,17-0.6,34-1.1,50.9c-0.4,12.6-2.8,24.9-8.9,36.1c-9.7,17.7-24.9,28-44.4,32.1
	c-11,2.3-22.3,2.6-33.5,2.6c-25.8,0.1-51.6,0-77.4-0.2c-11.3-0.1-22.5-0.9-33.4-4.6C67.7,273,53.8,257.1,48,233.7
	c-2.1-8.7-2.8-17.5-2.8-26.4c-0.1-29-0.2-58,0-87.1c0.1-10.8,0.9-21.6,4.4-31.9c7.7-23.4,23.8-37.6,47.6-43.4
	c8.8-2.2,17.8-2.7,26.8-2.8c28.5-0.2,56.9-0.2,85.4,0c11.2,0.1,22.4,0.9,33.2,4.5c24.1,8.1,38.2,24.9,43.6,49.4
	c2.4,11.2,2.4,22.5,2.6,33.9c0.2,11.3,0,22.7,0,34C288.9,163.9,289.1,163.9,289.3,163.9z M267.2,163.7c-0.1,0-0.2,0-0.3,0
	c0-7.8,0.1-15.7,0-23.5c-0.1-12.3,0-24.6-1.7-36.9c-2.9-20-15.8-33.9-35.6-37.2c-8.7-1.4-17.6-1.9-26.5-2.1
	c-20.4-0.3-40.7-0.4-61.1-0.1c-11.9,0.1-23.8,0.4-35.6,1.8c-19.6,2.3-32.5,14.6-37,33.9c-2,8.6-2.2,17.5-2.3,26.3
	c-0.2,25.2-0.2,50.3,0,75.5c0.1,9.1,0.3,18.2,2.4,27.1c3.9,16.5,13.7,27.6,30.1,32c6.1,1.6,12.4,2.6,18.7,2.7
	c29.4,0.4,58.7,0.5,88.1,0.4c8.5,0,17.1-0.3,25.4-2.4c15.9-3.9,26.7-13.3,31.6-29.1c2.1-6.7,2.8-13.6,3-20.5
	C266.6,195.6,266.9,179.6,267.2,163.7z"/>
<path class="st0" d="M229.6,163.9c0,34.7-28.2,62.7-63,62.7c-34.4,0-62.5-28.3-62.4-62.8c0-34.6,28.2-62.7,62.8-62.7
	C201.6,101.1,229.6,129.2,229.6,163.9z M166.9,123.1c-22.2-0.1-40.6,18.1-40.7,40.5c-0.1,22.4,18,40.7,40.5,40.9
	c22.4,0.2,40.7-18,40.9-40.5C207.7,141.5,189.5,123.2,166.9,123.1z"/>
<path class="st0" d="M232.3,84c8.2,0.2,14.5,6.8,14.3,14.9c-0.2,8.1-6.9,14.6-15,14.4c-8.1-0.2-14.6-7-14.4-15
	C217.6,90.1,224.2,83.8,232.3,84z"/>
</svg>
