<?xml version="1.0" encoding="utf-8"?>
<!-- Generator: Adobe Illustrator 24.0.1, SVG Export Plug-In . SVG Version: 6.00 Build 0)  -->
<svg version="1.1" id="Calque_1" xmlns="http://www.w3.org/2000/svg" xmlns:xlink="http://www.w3.org/1999/xlink" x="0px" y="0px"
	 viewBox="0 0 2000 2000" style="enable-background:new 0 0 2000 2000;" xml:space="preserve">
<style type="text/css">
	.st0{fill:#FFFFFF;}
</style>
<path class="st0" d="M1453.2,1453.2c-302.4,0-604.8,0-907.2,0c0-302.4,0-604.8,0-907.2c302.4,0,604.8,0,907.2,0
	C1453.2,848.4,1453.2,1150.8,1453.2,1453.2z M564.32,1170.09c5.12-2.66,7.21-2.93,12.04-1.82c2.53,0.58,4.5,1.99,6.28,3.75
	c5.33,5.28,11.68,7.93,19.24,7.53c5.23-0.28,10.26-1.54,15.17-3.26c8.21-2.89,16.39-5.87,24.58-8.8c8.19-2.93,16.69-3.13,25.07-1.7
	c5.85,1,11.59,3.03,17.19,5.11c7.93,2.94,15.73,6.18,24.01,8.15c9.25,2.2,18.1,1.89,26.89-2.07c5.3-2.39,10.82-4.34,16.37-6.11
	c11.77-3.77,23.63-3.6,35.31,0.38c4.9,1.67,9.56,4.03,14.3,6.12c6.57,2.9,13.14,5.79,19.44,9.29c8.76,4.86,18,8.57,28.01,10.13
	c5.78,0.9,11.56,1.34,17.41,0.75c4.72-0.48,9.25-1.69,13.75-3.14c2.2-0.71,4.42-1.44,6.69-1.81c5.24-0.86,10.34,0.13,15.32,1.72
	c3.8,1.21,7.55,2.57,11.34,3.84c9.03,3.01,18.24,3.94,27.64,2.22c4.97-0.91,9.69-2.66,14.38-4.52c3.78-1.5,7.63-2.81,11.45-4.21
	c0.45-0.16,0.97-0.27,1.31-0.57c1.92-1.74,4.32-2.1,6.71-2.15c5.67-0.12,11.34-0.04,17.01-0.02c0.39,0,0.79,0.1,1.16,0.24
	c4.42,1.61,8.84,3.23,13.26,4.85c3.14,1.16,6.2,2.63,9.43,3.43c10.48,2.62,21.15,4.19,31.93,4.62c6.29,0.25,12.62,0.01,18.92-0.26
	c4.69-0.2,9.12-1.56,13.07-4.21c1.92-1.29,3.83-2.61,5.69-4c8.39-6.24,17.34-11.33,27.39-14.51c11.11-3.52,22.22-4.33,33.46-0.98
	c7.18,2.14,14.31,4.46,21.44,6.78c8.12,2.64,16.2,5.38,24.69,6.66c6.45,0.98,12.71,0.82,18.74-2.07c2.58-1.24,5.28-2.26,7.99-3.19
	c3.39-1.17,6.78-2.42,10.28-3.16c7.11-1.49,14.16-0.43,21.11,1.23c7.94,1.9,15.56,4.8,23.16,7.73c8.58,3.31,17.12,6.64,26.27,8.1
	c6.91,1.1,13.8,1.45,20.72,0.14c4.16-0.79,8.33-1.51,12.51-2.12c11.53-1.67,22.91-1.16,34.12,2.31c4.49,1.39,9.09,2.44,13.67,3.5
	c5.61,1.3,11.07,1.01,16.3-1.76c3.67-1.95,7.73-2.51,11.84-2.52c4.47-0.01,8.95,0.06,13.42,0.21c3.46,0.11,6.59-0.84,9.69-2.26
	c2.97-1.36,6.01-2.61,9.12-3.61c1.78-0.58,3.74-0.78,5.62-0.79c1.93-0.02,2.2-0.01,3.14-2.33c-0.86-0.47-1.72-1-2.64-1.43
	c-4.62-2.18-9.52-3.92-13.31-7.47c-2.73-2.55-5.33-5.3-7.61-8.25c-6.68-8.61-15.65-11.63-26.15-11.31c-3.16,0.1-6.12,0.99-9.11,1.91
	c-2.73,0.84-5.49,1.61-8.08,1.46c-2.46-3.23-4.59-6.34-7.03-9.17c-6.95-8.08-15.95-11.31-26.47-10.8c-2.78,0.13-5.57,0.04-8.35-0.05
	c-1.32-0.04-2.15-0.64-2.28-2.2c-0.28-3.39-2.24-5.98-4.65-8.12c-11.14-9.91-23.7-16.88-38.71-19.13c-9.32-1.4-18.57-3.3-27.45-6.58
	c-2.08-0.77-4.12-1.77-5.96-2.99c-3.55-2.35-4.58-5.78-3.54-9.85c0.45-1.78,0.98-3.53,1.44-5.31c1.57-6.08,3.94-11.92,4.36-18.34
	c0.47-7.29,0.08-14.38-2.84-21.11c-5.14-11.83-11.89-22.56-21.5-31.38c-9.81-9.01-20.85-16.06-32.9-21.61
	c-8.21-3.77-16.88-5.81-25.84-6.7c-1.28-0.13-2.19-0.55-3.09-1.48c-1.99-2.07-4.09-4.05-6.22-5.98
	c-7.16-6.49-15.35-11.55-23.92-15.81c-19.69-9.79-40.64-13.46-62.55-11.7c-2.66,0.21-5.31,0.55-8.05,0.84
	c-0.04-0.53-0.08-0.92-0.1-1.31c-0.27-5.5-0.84-10.93-2.32-16.29c-2.15-7.8-5.79-14.64-11.56-20.36
	c-7.13-7.07-15.63-11.87-25.04-15.04c-17.02-5.75-34.36-5.94-51.77-2.16c-16.41,3.56-31.22,10.71-44.66,20.71
	c-6.22,4.63-12.26,9.51-17.44,15.31c-5.22,5.84-10.03,12-12.95,19.33c-2.17-0.47-4.24-1.1-6.36-1.35c-7.23-0.84-14.49-1-21.75-0.25
	c-8.28,0.86-16.48,2.14-24.37,4.86c-19.74,6.82-37.35,17.2-52.64,31.51c-10.23,9.57-16.77,21.22-20.11,34.72
	c-0.55,2.21-0.77,4.51-1.11,6.51c-3.12-0.03-6.18-0.45-9.13-0.04c-16.2,2.25-29.59,9.94-40.33,22.05
	c-6.57,7.42-11.27,16.04-14.06,25.65c-1.96,6.77-3.62,13.57-3.87,20.63c-0.15,4.31-0.05,8.63-0.08,12.95c0,0.67-0.1,1.34-0.16,2
	c-0.37,0-0.55,0.05-0.67-0.01c-0.72-0.35-1.44-0.7-2.13-1.09c-4.85-2.7-10.14-4.02-15.61-4.05c-8.35-0.03-15.84,2.74-22.21,8.2
	c-4.79,4.11-9.46,8.35-14.22,12.49c-3.21,2.8-6.96,4.2-11.23,3.95c-4.62-0.27-9.21-0.72-13.77-1.63c-6.45-1.28-12.06,0.29-16.85,5.1
	c-3.25,3.27-6.97,6.1-10.58,8.99c-4.21,3.37-8.89,4.79-14.32,3.28c-3.8-1.06-7.74-1.16-11.65-0.54c-4.88,0.78-8.49,3.84-12.16,6.83
	c-2.86,2.33-4.25,5.97-7.42,8.04C563.4,1167.95,563.04,1169.08,564.32,1170.09z"/>
<path d="M564.32,1170.09c-1.28-1.01-0.92-2.14-0.04-2.71c3.17-2.07,4.56-5.71,7.42-8.04c3.67-2.99,7.28-6.05,12.16-6.83
	c3.91-0.62,7.85-0.51,11.65,0.54c5.43,1.51,10.11,0.09,14.32-3.28c3.61-2.89,7.33-5.72,10.58-8.99c4.79-4.82,10.4-6.39,16.85-5.1
	c4.56,0.91,9.15,1.36,13.77,1.63c4.27,0.25,8.02-1.15,11.23-3.95c4.75-4.15,9.43-8.39,14.22-12.49c6.37-5.46,13.86-8.24,22.21-8.2
	c5.47,0.02,10.76,1.34,15.61,4.05c0.7,0.39,1.41,0.74,2.13,1.09c0.13,0.06,0.31,0.01,0.67,0.01c0.05-0.66,0.15-1.33,0.16-2
	c0.03-4.32-0.08-8.64,0.08-12.95c0.25-7.06,1.91-13.87,3.87-20.63c2.79-9.61,7.49-18.23,14.06-25.65
	c10.74-12.12,24.13-19.8,40.33-22.05c2.95-0.41,6.01,0,9.13,0.04c0.33-2,0.56-4.29,1.11-6.51c3.34-13.51,9.88-25.15,20.11-34.72
	c15.28-14.31,32.9-24.69,52.64-31.51c7.89-2.73,16.1-4,24.37-4.86c7.26-0.76,14.51-0.59,21.75,0.25c2.12,0.24,4.19,0.88,6.36,1.35
	c2.92-7.33,7.73-13.49,12.95-19.33c5.18-5.8,11.22-10.68,17.44-15.31c13.44-10,28.25-17.16,44.66-20.71
	c17.41-3.77,34.75-3.59,51.77,2.16c9.41,3.18,17.92,7.98,25.04,15.04c5.77,5.72,9.41,12.57,11.56,20.36
	c1.48,5.36,2.06,10.79,2.32,16.29c0.02,0.39,0.06,0.78,0.1,1.31c2.74-0.29,5.39-0.63,8.05-0.84c21.91-1.77,42.86,1.9,62.55,11.7
	c8.57,4.26,16.76,9.32,23.92,15.81c2.13,1.93,4.23,3.9,6.22,5.98c0.9,0.93,1.82,1.36,3.09,1.48c8.96,0.89,17.63,2.93,25.84,6.7
	c12.06,5.54,23.1,12.6,32.9,21.61c9.61,8.82,16.36,19.55,21.5,31.38c2.93,6.74,3.31,13.83,2.84,21.11
	c-0.41,6.42-2.79,12.26-4.36,18.34c-0.46,1.78-0.99,3.53-1.44,5.31c-1.04,4.07-0.02,7.5,3.54,9.85c1.84,1.22,3.89,2.22,5.96,2.99
	c8.88,3.28,18.14,5.18,27.45,6.58c15.01,2.25,27.57,9.22,38.71,19.13c2.41,2.15,4.38,4.74,4.65,8.12c0.13,1.57,0.97,2.16,2.28,2.2
	c2.78,0.09,5.58,0.18,8.35,0.05c10.52-0.51,19.51,2.72,26.47,10.8c2.44,2.83,4.57,5.94,7.03,9.17c2.6,0.14,5.35-0.63,8.08-1.46
	c2.98-0.91,5.95-1.81,9.11-1.91c10.5-0.32,19.47,2.7,26.15,11.31c2.29,2.95,4.89,5.7,7.61,8.25c3.79,3.55,8.7,5.29,13.31,7.47
	c0.91,0.43,1.78,0.96,2.64,1.43c-0.93,2.32-1.21,2.31-3.14,2.33c-1.88,0.02-3.84,0.22-5.62,0.79c-3.1,1.01-6.15,2.25-9.12,3.61
	c-3.1,1.42-6.24,2.38-9.69,2.26c-4.47-0.15-8.95-0.21-13.42-0.21c-4.11,0-8.17,0.57-11.84,2.52c-5.23,2.77-10.69,3.07-16.3,1.76
	c-4.58-1.06-9.18-2.11-13.67-3.5c-11.21-3.48-22.59-3.98-34.12-2.31c-4.19,0.61-8.36,1.33-12.51,2.12
	c-6.93,1.32-13.81,0.96-20.72-0.14c-9.15-1.46-17.7-4.79-26.27-8.1c-7.59-2.93-15.22-5.83-23.16-7.73c-6.95-1.66-14-2.72-21.11-1.23
	c-3.49,0.73-6.89,1.99-10.28,3.16c-2.71,0.94-5.41,1.96-7.99,3.19c-6.03,2.89-12.29,3.04-18.74,2.07
	c-8.49-1.28-16.57-4.02-24.69-6.66c-7.13-2.32-14.26-4.64-21.44-6.78c-11.24-3.35-22.36-2.55-33.46,0.98
	c-10.04,3.19-19,8.28-27.39,14.51c-1.86,1.38-3.77,2.7-5.69,4c-3.95,2.65-8.38,4.01-13.07,4.21c-6.3,0.27-12.62,0.51-18.92,0.26
	c-10.79-0.44-21.46-2.01-31.93-4.62c-3.23-0.81-6.29-2.28-9.43-3.43c-4.42-1.62-8.84-3.24-13.26-4.85
	c-0.37-0.13-0.77-0.24-1.16-0.24c-5.67-0.02-11.34-0.1-17.01,0.02c-2.39,0.05-4.79,0.41-6.71,2.15c-0.33,0.3-0.86,0.41-1.31,0.57
	c-3.82,1.4-7.68,2.7-11.45,4.21c-4.69,1.87-9.4,3.62-14.38,4.52c-9.4,1.71-18.61,0.79-27.64-2.22c-3.78-1.26-7.53-2.63-11.34-3.84
	c-4.98-1.58-10.08-2.57-15.32-1.72c-2.27,0.37-4.49,1.1-6.69,1.81c-4.5,1.45-9.03,2.66-13.75,3.14c-5.85,0.59-11.63,0.15-17.41-0.75
	c-10-1.56-19.25-5.26-28.01-10.13c-6.3-3.5-12.87-6.39-19.44-9.29c-4.75-2.09-9.41-4.46-14.3-6.12
	c-11.68-3.97-23.53-4.15-35.31-0.38c-5.54,1.78-11.07,3.72-16.37,6.11c-8.79,3.96-17.65,4.27-26.89,2.07
	c-8.28-1.97-16.08-5.2-24.01-8.15c-5.6-2.08-11.33-4.11-17.19-5.11c-8.38-1.43-16.88-1.23-25.07,1.7
	c-8.19,2.93-16.37,5.91-24.58,8.8c-4.91,1.73-9.93,2.98-15.17,3.26c-7.56,0.41-13.91-2.24-19.24-7.53
	c-1.78-1.76-3.76-3.17-6.28-3.75C571.54,1167.16,569.44,1167.42,564.32,1170.09z M573.85,1164.22c1.03,0.2,1.65,0.38,2.29,0.44
	c3.15,0.31,5.78,1.66,8.06,3.82c1.1,1.04,2.34,1.93,3.53,2.86c4.48,3.49,9.67,4.66,15.14,3.86c4.08-0.6,8.15-1.63,12.07-2.95
	c8.39-2.83,16.66-6.03,25.02-8.96c9.19-3.22,18.67-3.53,28.14-1.87c7.16,1.26,14.03,3.79,20.73,6.6c6.5,2.72,13.08,5.13,19.96,6.69
	c3.74,0.85,7.5,1.62,11.37,1.43c4.12-0.2,8.02-1.25,11.77-2.97c2.61-1.2,5.28-2.27,7.95-3.33c9.49-3.77,19.18-6.61,29.57-6.14
	c6.16,0.28,12.3,0.8,18.1,3.04c4.91,1.9,9.69,4.12,14.56,6.12c8.06,3.32,15.82,7.23,23.56,11.24c5.46,2.83,11.22,5.04,17.24,6.43
	c7.19,1.67,14.45,2.69,21.86,1.96c5.45-0.54,10.62-2.2,15.81-3.79c3-0.92,6.08-1.42,9.21-1.24c4.63,0.27,9.18,1.03,13.58,2.61
	c3.98,1.42,7.95,2.92,12.03,4.03c3.84,1.05,7.76,1.99,11.71,2.37c7.36,0.72,14.48-0.72,21.34-3.46c4.45-1.78,8.87-3.6,13.34-5.33
	c1.78-0.69,3.67-1.03,5.27-2.2c0.68-0.49,1.6-0.74,2.45-0.9c6.91-1.23,13.79-1.21,20.69,0.24c6.14,1.29,11.77,3.99,17.58,6.17
	c4.29,1.6,8.63,2.88,13.13,3.62c2.44,0.4,4.89,0.76,7.33,1.13c11.97,1.82,23.99,2.31,36.07,1.55c5.81-0.37,11.12-2.05,15.77-5.64
	c1.58-1.22,3.23-2.36,4.84-3.54c7.52-5.5,15.59-9.96,24.45-12.97c12.21-4.16,24.5-5.08,36.95-1.26c6.95,2.13,13.86,4.37,20.77,6.65
	c7.81,2.57,15.58,5.26,23.72,6.68c6.61,1.15,12.99,0.97,19.18-2.07c3.36-1.65,6.94-2.85,10.43-4.23c5.2-2.04,10.6-3.03,16.18-2.78
	c5.85,0.26,11.64,1.1,17.2,2.91c8.27,2.7,16.43,5.73,24.65,8.59c4.67,1.62,9.31,3.4,14.07,4.7c10.15,2.78,20.36,3.35,30.8,1.12
	c6.13-1.31,12.48-1.85,18.76-2.2c8.52-0.47,16.85,1.03,25.04,3.43c4.36,1.28,8.78,2.39,13.21,3.44c5.2,1.24,10.21,0.95,15.15-1.52
	c2.52-1.26,5.41-2.14,8.21-2.42c4.36-0.43,8.78-0.39,13.17-0.19c5.1,0.22,10.02,0.03,14.67-2.49c2.09-1.14,4.43-1.8,6.67-2.67
	c0.62-0.24,1.25-0.46,2.14-0.78c-1.01-0.47-1.72-0.82-2.44-1.14c-3.83-1.74-7.24-4.09-10.16-7.1c-1.89-1.95-3.61-4.06-5.45-6.05
	c-3.01-3.26-6.32-6.19-10.68-7.44c-6.66-1.9-13.31-2.13-20.04,0.1c-3.22,1.07-6.7,1.37-10.07,1.96c-0.96,0.17-1.83-0.01-2.48-1
	c-1.75-2.66-3.5-5.33-5.44-7.86c-6.54-8.54-15.17-12.28-25.95-11.33c-2.74,0.24-5.56-0.22-8.33-0.54c-2.75-0.31-4.22-2.03-4.55-4.75
	c-0.24-2-1.28-3.54-2.67-4.96c-3.55-3.62-7.68-6.47-11.93-9.2c-8.04-5.17-16.67-8.58-26.16-10.12c-6.53-1.05-12.98-2.66-19.4-4.28
	c-4.55-1.15-9.15-2.39-13.26-4.76c-6.04-3.48-8.43-8.34-6.96-14.81c1.05-4.58,2.31-9.12,3.6-13.64c1.99-6.93,2.5-13.96,1.41-21.07
	c-0.67-4.38-2.39-8.44-4.4-12.37c-3.65-7.14-7.74-14-13.24-19.89c-10.9-11.66-23.83-20.55-38.45-26.84
	c-15.56-6.7-31.83-7.82-48.39-4.69c-7.46,1.41-14.08,4.67-19.2,10.49c-6.14,6.98-9.32,14.89-7.95,24.39
	c1.09,7.58,4.56,13.35,11.58,16.76c0.79,0.38,1.56,0.82,2.35,1.18c7.86,3.56,15.88,4.04,24,1.02c4.28-1.59,7.89-4.19,10.71-7.81
	c2.73-3.49,2.56-7.34-0.37-10.67c-1.77-2.02-4.03-3.15-6.61-3.6c-4.6-0.8-9.21-1.99-14.12-0.33c0.81-2.15,2.27-3.21,4.03-3.8
	c5.36-1.8,10.69-1.78,15.86,0.69c7.6,3.64,10.15,13.15,5.11,19.85c-4.77,6.34-11.05,10.54-19.03,11.91
	c-9.91,1.71-18.87-0.84-27.12-6.21c-4.8-3.13-7.97-7.56-9.32-13.18c-0.5-2.09-0.99-4.2-1.18-6.33c-0.44-5.13-0.24-10.26,1.84-15.07
	c4.92-11.39,13.12-19.3,25.11-23.01c6.16-1.9,12.51-2.48,18.92-2.6c1.08-0.02,2.15-0.03,3.23-0.04c-4-4.13-8-7.93-12.69-10.84
	c-5.5-3.4-10.87-7.13-16.7-9.84c-12.85-5.98-26.49-9.2-40.68-10.02c-8.8-0.51-17.55-0.25-26.26,1.17
	c-6.82,1.11-13.45,2.77-19.47,6.34c-1.13,0.67-2.34,1.2-3.8,1.94c0.05-0.79-0.08-1.35,0.15-1.64c0.62-0.8,1.29-1.62,2.11-2.2
	c5.09-3.58,10.65-6.1,16.79-7.3c0.75-0.15,1.48-0.42,2.17-0.62c-0.1-0.87-0.18-1.5-0.23-2.13c-0.57-6.37-1.74-12.62-3.86-18.68
	c-1.88-5.37-4.81-10.05-8.76-14.14c-5.82-6.04-12.81-10.29-20.47-13.5c-13.66-5.71-27.95-7.07-42.55-5.53
	c-15.31,1.61-29.56,6.57-42.94,14.11c-9.09,5.12-17.35,11.38-25.15,18.29c-5.97,5.29-10.91,11.43-15.25,18.07
	c-1.15,1.76-2.4,3.54-2.07,5.92c0.09,0.61-0.62,1.33-0.8,1.69c-3-0.64-5.6-1.43-8.26-1.71c-6.68-0.72-13.38-0.71-20.08-0.06
	c-8.21,0.8-16.34,2.08-24.14,4.8c-18.4,6.41-34.88,16.11-49.32,29.25c-5.61,5.1-10.48,10.73-14.05,17.45
	c-4.95,9.35-8.21,19.04-6.6,29.84c0.86,5.77,2.44,11.23,6.23,15.82c6.6,8,14.76,13.55,24.97,15.94c2.85,0.67,5.72,0.89,8.56,0.49
	c14.31-2.02,24.89-11.99,28.16-25.89c1.08-4.61,0.26-9.18-3.68-12.43c-1.76-1.45-3.87-2.54-5.96-3.47c-2.94-1.32-5.56-0.6-7.81,1.78
	c-2.3,2.44-4.72,4.76-7.11,7.12c-0.36,0.36-0.82,0.62-1.71,1.27c0.17-1.76,0.16-3.02,0.42-4.22c0.71-3.16,2.29-5.94,3.94-8.68
	c2.58-4.26,6.65-5.5,11.15-4.84c6,0.88,10.72,4.29,13.86,9.36c2.33,3.77,3.05,8.13,2.62,12.65c-0.43,4.57-2.25,8.61-4.37,12.56
	c-3.02,5.64-6.79,10.66-12.25,14.18c-10.23,6.6-21.02,8.25-32.64,3.93c-7.23-2.69-13.11-7.14-18.52-12.48
	c-5.13-5.07-8.22-11.14-9.68-18.1c-0.57-2.72-0.86-5.49-1.28-8.28c-2.11-0.86-4.32-0.96-6.57-0.72c-6.51,0.67-12.66,2.56-18.52,5.43
	c-9.53,4.67-17.82,10.88-24.28,19.43c-6.96,9.22-10.5,19.81-12.74,30.95c-1.25,6.23-0.84,12.56-1.29,18.84
	c-0.08,1.18,0.17,2.38,0.21,3.58c0.05,1.52,0.16,3.05,0.02,4.55c-0.15,1.64-0.42,3.33-2,4.38c-0.27-0.09-0.57-0.11-0.7-0.26
	c-1.84-2.37-4.52-3.53-7.11-4.72c-11.7-5.39-22.57-3.63-32.53,4.19c-4.58,3.6-8.87,7.56-13.25,11.4c-4.2,3.69-8.95,5.61-14.64,5.53
	c-5.13-0.07-10.21-0.44-15.25-1.3c-4.08-0.69-7.79,0.01-10.95,2.83c-0.83,0.74-1.66,1.5-2.52,2.21c-3.69,3.06-7.26,6.26-11.11,9.1
	c-3.52,2.59-7.49,4.32-12.05,3.88c-2.3-0.22-4.61-0.41-6.88-0.85C585.18,1156.34,579.36,1159.27,573.85,1164.22z"/>
<path class="st0" d="M573.85,1164.22c5.52-4.95,11.33-7.88,18.71-6.43c2.26,0.44,4.58,0.63,6.88,0.85
	c4.56,0.44,8.54-1.29,12.05-3.88c3.85-2.84,7.43-6.04,11.11-9.1c0.86-0.71,1.69-1.46,2.52-2.21c3.17-2.82,6.87-3.53,10.95-2.83
	c5.05,0.86,10.12,1.23,15.25,1.3c5.68,0.08,10.44-1.84,14.64-5.53c4.38-3.85,8.67-7.8,13.25-11.4c9.95-7.83,20.83-9.59,32.53-4.19
	c2.59,1.2,5.27,2.35,7.11,4.72c0.12,0.16,0.43,0.17,0.7,0.26c1.57-1.05,1.84-2.74,2-4.38c0.14-1.5,0.03-3.03-0.02-4.55
	c-0.04-1.19-0.3-2.39-0.21-3.58c0.44-6.28,0.04-12.62,1.29-18.84c2.24-11.15,5.77-21.73,12.74-30.95
	c6.46-8.55,14.75-14.76,24.28-19.43c5.85-2.87,12.01-4.76,18.52-5.43c2.25-0.23,4.46-0.14,6.57,0.72c0.42,2.79,0.72,5.56,1.28,8.28
	c1.46,6.96,4.55,13.03,9.68,18.1c5.41,5.34,11.29,9.79,18.52,12.48c11.63,4.32,22.42,2.66,32.64-3.93
	c5.45-3.52,9.22-8.54,12.25-14.18c2.12-3.95,3.94-7.99,4.37-12.56c0.43-4.52-0.29-8.88-2.62-12.65c-3.15-5.07-7.87-8.48-13.86-9.36
	c-4.5-0.66-8.57,0.58-11.15,4.84c-1.66,2.74-3.24,5.52-3.94,8.68c-0.27,1.2-0.26,2.46-0.42,4.22c0.89-0.65,1.34-0.92,1.71-1.27
	c2.39-2.36,4.81-4.68,7.11-7.12c2.25-2.38,4.87-3.09,7.81-1.78c2.09,0.94,4.21,2.03,5.96,3.47c3.94,3.24,4.77,7.82,3.68,12.43
	c-3.27,13.9-13.85,23.87-28.16,25.89c-2.84,0.4-5.72,0.17-8.56-0.49c-10.21-2.39-18.37-7.94-24.97-15.94
	c-3.79-4.59-5.37-10.06-6.23-15.82c-1.62-10.8,1.64-20.5,6.6-29.84c3.56-6.72,8.44-12.35,14.05-17.45
	c14.44-13.14,30.92-22.84,49.32-29.25c7.8-2.72,15.93-4,24.14-4.8c6.7-0.65,13.4-0.67,20.08,0.06c2.66,0.29,5.27,1.08,8.26,1.71
	c0.18-0.35,0.89-1.07,0.8-1.69c-0.33-2.38,0.92-4.16,2.07-5.92c4.34-6.64,9.28-12.79,15.25-18.07c7.8-6.91,16.06-13.17,25.15-18.29
	c13.38-7.54,27.64-12.5,42.94-14.11c14.59-1.53,28.89-0.18,42.55,5.53c7.65,3.2,14.65,7.46,20.47,13.5
	c3.95,4.1,6.88,8.77,8.76,14.14c2.12,6.06,3.29,12.3,3.86,18.68c0.06,0.63,0.14,1.26,0.23,2.13c-0.69,0.2-1.42,0.48-2.17,0.62
	c-6.14,1.2-11.7,3.72-16.79,7.3c-0.82,0.58-1.49,1.4-2.11,2.2c-0.22,0.29-0.09,0.85-0.15,1.64c1.46-0.74,2.67-1.27,3.8-1.94
	c6.02-3.57,12.65-5.23,19.47-6.34c8.71-1.41,17.46-1.67,26.26-1.17c14.19,0.82,27.83,4.04,40.68,10.02
	c5.83,2.71,11.21,6.44,16.7,9.84c4.69,2.91,8.68,6.71,12.69,10.84c-1.08,0.01-2.15,0.02-3.23,0.04c-6.41,0.12-12.77,0.7-18.92,2.6
	c-11.99,3.71-20.19,11.62-25.11,23.01c-2.07,4.8-2.28,9.93-1.84,15.07c0.18,2.13,0.68,4.25,1.18,6.33
	c1.34,5.62,4.52,10.06,9.32,13.18c8.25,5.37,17.21,7.92,27.12,6.21c7.98-1.37,14.25-5.57,19.03-11.91
	c5.04-6.7,2.49-16.21-5.11-19.85c-5.17-2.47-10.5-2.49-15.86-0.69c-1.76,0.59-3.22,1.65-4.03,3.8c4.91-1.66,9.52-0.47,14.12,0.33
	c2.58,0.45,4.84,1.58,6.61,3.6c2.92,3.33,3.09,7.18,0.37,10.67c-2.82,3.62-6.43,6.22-10.71,7.81c-8.12,3.02-16.14,2.54-24-1.02
	c-0.8-0.36-1.56-0.8-2.35-1.18c-7.02-3.41-10.49-9.18-11.58-16.76c-1.37-9.5,1.82-17.41,7.95-24.39c5.12-5.82,11.74-9.08,19.2-10.49
	c16.55-3.13,32.82-2.01,48.39,4.69c14.61,6.29,27.55,15.18,38.45,26.84c5.5,5.88,9.59,12.75,13.24,19.89
	c2.01,3.93,3.73,7.98,4.4,12.37c1.09,7.11,0.58,14.14-1.41,21.07c-1.3,4.52-2.56,9.06-3.6,13.64c-1.48,6.48,0.92,11.33,6.96,14.81
	c4.11,2.37,8.71,3.61,13.26,4.76c6.42,1.62,12.87,3.22,19.4,4.28c9.48,1.53,18.12,4.94,26.16,10.12c4.24,2.73,8.37,5.58,11.93,9.2
	c1.39,1.41,2.42,2.96,2.67,4.96c0.33,2.72,1.8,4.44,4.55,4.75c2.77,0.31,5.59,0.78,8.33,0.54c10.78-0.95,19.41,2.79,25.95,11.33
	c1.94,2.53,3.69,5.2,5.44,7.86c0.65,0.99,1.51,1.17,2.48,1c3.37-0.58,6.85-0.89,10.07-1.96c6.73-2.23,13.38-2,20.04-0.1
	c4.36,1.25,7.67,4.18,10.68,7.44c1.84,1.99,3.56,4.1,5.45,6.05c2.92,3.01,6.33,5.36,10.16,7.1c0.72,0.33,1.43,0.67,2.44,1.14
	c-0.89,0.33-1.52,0.54-2.14,0.78c-2.23,0.87-4.58,1.53-6.67,2.67c-4.64,2.53-9.56,2.72-14.67,2.49c-4.38-0.19-8.81-0.24-13.17,0.19
	c-2.8,0.28-5.69,1.16-8.21,2.42c-4.94,2.47-9.95,2.76-15.15,1.52c-4.42-1.05-8.84-2.16-13.21-3.44c-8.18-2.4-16.52-3.91-25.04-3.43
	c-6.28,0.35-12.62,0.88-18.76,2.2c-10.44,2.23-20.65,1.66-30.8-1.12c-4.76-1.31-9.4-3.08-14.07-4.7
	c-8.22-2.85-16.38-5.88-24.65-8.59c-5.56-1.82-11.35-2.66-17.2-2.91c-5.58-0.25-10.98,0.74-16.18,2.78
	c-3.49,1.37-7.07,2.58-10.43,4.23c-6.19,3.04-12.57,3.22-19.18,2.07c-8.14-1.42-15.91-4.11-23.72-6.68
	c-6.9-2.27-13.82-4.51-20.77-6.65c-12.45-3.82-24.73-2.89-36.95,1.26c-8.87,3.02-16.93,7.47-24.45,12.97
	c-1.61,1.18-3.26,2.32-4.84,3.54c-4.65,3.59-9.96,5.27-15.77,5.64c-12.08,0.76-24.1,0.27-36.07-1.55c-2.45-0.37-4.89-0.74-7.33-1.13
	c-4.51-0.74-8.85-2.02-13.13-3.62c-5.82-2.17-11.45-4.87-17.58-6.17c-6.89-1.45-13.78-1.47-20.69-0.24c-0.85,0.15-1.77,0.4-2.45,0.9
	c-1.6,1.17-3.49,1.51-5.27,2.2c-4.47,1.72-8.9,3.55-13.34,5.33c-6.85,2.75-13.97,4.18-21.34,3.46c-3.95-0.38-7.87-1.32-11.71-2.37
	c-4.07-1.12-8.04-2.61-12.03-4.03c-4.4-1.58-8.95-2.34-13.58-2.61c-3.13-0.18-6.21,0.32-9.21,1.24c-5.19,1.59-10.36,3.26-15.81,3.79
	c-7.41,0.73-14.67-0.29-21.86-1.96c-6.02-1.4-11.77-3.6-17.24-6.43c-7.73-4-15.5-7.92-23.56-11.24c-4.87-2-9.65-4.23-14.56-6.12
	c-5.8-2.24-11.93-2.76-18.1-3.04c-10.39-0.46-20.07,2.37-29.57,6.14c-2.67,1.06-5.34,2.13-7.95,3.33
	c-3.75,1.72-7.65,2.78-11.77,2.97c-3.87,0.18-7.62-0.58-11.37-1.43c-6.88-1.56-13.46-3.97-19.96-6.69
	c-6.71-2.81-13.57-5.34-20.73-6.6c-9.47-1.66-18.95-1.35-28.14,1.87c-8.36,2.93-16.63,6.13-25.02,8.96
	c-3.91,1.32-7.98,2.35-12.07,2.95c-5.47,0.8-10.66-0.37-15.14-3.86c-1.2-0.93-2.44-1.82-3.53-2.86c-2.28-2.16-4.91-3.51-8.06-3.82
	C575.5,1164.6,574.88,1164.42,573.85,1164.22z"/>
</svg>
